<?xml version="1.0" encoding="UTF-8" standalone="no"?>
<!DOCTYPE svg PUBLIC "-//W3C//DTD SVG 1.1//EN" "http://www.w3.org/Graphics/SVG/1.1/DTD/svg11.dtd">
<svg width="100%" height="100%" viewBox="0 0 1024 1024" version="1.1" xmlns="http://www.w3.org/2000/svg" xmlns:xlink="http://www.w3.org/1999/xlink" xml:space="preserve" xmlns:serif="http://www.serif.com/" style="fill-rule:evenodd;clip-rule:evenodd;stroke-linejoin:round;stroke-miterlimit:2;">
    <g id="HuhGlyph" transform="matrix(12.9619,0,0,12.9619,408.149,351.422)">
        <path d="M7.217,16.973C8.457,16.973 9.277,16.387 9.551,15.293C9.57,15.244 9.59,15.156 9.6,15.107C9.834,14.014 10.361,13.506 12.48,12.246C14.834,10.85 15.996,9.209 15.996,6.826C15.996,2.813 12.715,0.361 7.9,0.361C4.356,0.361 1.631,1.709 0.498,3.779C0.166,4.385 0,5.039 0,5.693C-0.01,7.1 0.947,8.057 2.461,8.057C3.565,8.057 4.502,7.5 4.951,6.533C5.508,5.225 6.406,4.736 7.627,4.736C9.111,4.736 10.244,5.625 10.244,6.924C10.244,8.379 9.531,9.043 7.49,10.264C5.811,11.279 4.678,12.49 4.678,14.287L4.678,14.522C4.678,15.996 5.703,16.973 7.217,16.973ZM7.285,24.443C8.965,24.443 10.342,23.164 10.342,21.543C10.342,19.932 8.965,18.652 7.285,18.652C5.606,18.652 4.238,19.932 4.238,21.543C4.238,23.164 5.606,24.443 7.285,24.443Z" style="fill:white;fill-rule:nonzero;"/>
    </g>
</svg>
