<?xml version="1.0" encoding="UTF-8"?>
<!--Generator: Apple Native CoreSVG 149-->
<!DOCTYPE svg
PUBLIC "-//W3C//DTD SVG 1.1//EN"
       "http://www.w3.org/Graphics/SVG/1.1/DTD/svg11.dtd">
<svg version="1.1" xmlns="http://www.w3.org/2000/svg" xmlns:xlink="http://www.w3.org/1999/xlink" width="3300" height="2200">
 <!--glyph: "uni100122.medium", point size: 100.000000, font version: "Version 16.0d12e3", template writer version: "8"-->
 <g id="Notes">
  <rect height="2200" id="artboard" style="fill:white;opacity:1" width="3300" x="0" y="0"/>
  <line id="" style="fill:none;stroke:black;opacity:1;stroke-width:0.5;" x1="263" x2="3036" y1="292" y2="292"/>
  <text style="stroke:none;fill:black;font-family:-apple-system,&quot;SF Pro Display&quot;,&quot;SF Pro Text&quot;,Helvetica,sans-serif;font-weight:bold;" transform="matrix(1 0 0 1 263 322)">Weight/Scale Variations</text>
  <text style="stroke:none;fill:black;font-family:-apple-system,&quot;SF Pro Display&quot;,&quot;SF Pro Text&quot;,Helvetica,sans-serif;text-anchor:middle;" transform="matrix(1 0 0 1 559.711 322)">Ultralight</text>
  <text style="stroke:none;fill:black;font-family:-apple-system,&quot;SF Pro Display&quot;,&quot;SF Pro Text&quot;,Helvetica,sans-serif;text-anchor:middle;" transform="matrix(1 0 0 1 856.422 322)">Thin</text>
  <text style="stroke:none;fill:black;font-family:-apple-system,&quot;SF Pro Display&quot;,&quot;SF Pro Text&quot;,Helvetica,sans-serif;text-anchor:middle;" transform="matrix(1 0 0 1 1153.13 322)">Light</text>
  <text style="stroke:none;fill:black;font-family:-apple-system,&quot;SF Pro Display&quot;,&quot;SF Pro Text&quot;,Helvetica,sans-serif;text-anchor:middle;" transform="matrix(1 0 0 1 1449.84 322)">Regular</text>
  <text style="stroke:none;fill:black;font-family:-apple-system,&quot;SF Pro Display&quot;,&quot;SF Pro Text&quot;,Helvetica,sans-serif;text-anchor:middle;" transform="matrix(1 0 0 1 1746.56 322)">Medium</text>
  <text style="stroke:none;fill:black;font-family:-apple-system,&quot;SF Pro Display&quot;,&quot;SF Pro Text&quot;,Helvetica,sans-serif;text-anchor:middle;" transform="matrix(1 0 0 1 2043.27 322)">Semibold</text>
  <text style="stroke:none;fill:black;font-family:-apple-system,&quot;SF Pro Display&quot;,&quot;SF Pro Text&quot;,Helvetica,sans-serif;text-anchor:middle;" transform="matrix(1 0 0 1 2339.98 322)">Bold</text>
  <text style="stroke:none;fill:black;font-family:-apple-system,&quot;SF Pro Display&quot;,&quot;SF Pro Text&quot;,Helvetica,sans-serif;text-anchor:middle;" transform="matrix(1 0 0 1 2636.69 322)">Heavy</text>
  <text style="stroke:none;fill:black;font-family:-apple-system,&quot;SF Pro Display&quot;,&quot;SF Pro Text&quot;,Helvetica,sans-serif;text-anchor:middle;" transform="matrix(1 0 0 1 2933.4 322)">Black</text>
  <line id="" style="fill:none;stroke:black;opacity:1;stroke-width:0.5;" x1="263" x2="3036" y1="1903" y2="1903"/>
  <g id="" transform="matrix(1 0 0 1 263 1933)">
   <path d="M9.24805 0.830078C13.5547 0.830078 17.1387-2.74414 17.1387-7.05078C17.1387-11.3574 13.5449-14.9316 9.23828-14.9316C4.94141-14.9316 1.36719-11.3574 1.36719-7.05078C1.36719-2.74414 4.95117 0.830078 9.24805 0.830078ZM9.24805-0.654297C5.70312-0.654297 2.87109-3.49609 2.87109-7.05078C2.87109-10.6055 5.69336-13.4473 9.23828-13.4473C12.793-13.4473 15.6348-10.6055 15.6445-7.05078C15.6543-3.49609 12.8027-0.654297 9.24805-0.654297ZM9.22852-3.62305C9.69727-3.62305 9.9707-3.93555 9.9707-4.45312L9.9707-6.31836L12.002-6.31836C12.5-6.31836 12.832-6.57227 12.832-7.04102C12.832-7.51953 12.5195-7.7832 12.002-7.7832L9.9707-7.7832L9.9707-9.81445C9.9707-10.332 9.69727-10.6543 9.22852-10.6543C8.75977-10.6543 8.50586-10.3125 8.50586-9.81445L8.50586-7.7832L6.49414-7.7832C5.97656-7.7832 5.64453-7.51953 5.64453-7.04102C5.64453-6.57227 5.99609-6.31836 6.49414-6.31836L8.50586-6.31836L8.50586-4.45312C8.50586-3.95508 8.75977-3.62305 9.22852-3.62305Z"/>
  </g>
  <g id="" transform="matrix(1 0 0 1 281.506 1933)">
   <path d="M11.709 2.91016C17.1582 2.91016 21.6699-1.61133 21.6699-7.05078C21.6699-12.5 17.1484-17.0117 11.6992-17.0117C6.25977-17.0117 1.74805-12.5 1.74805-7.05078C1.74805-1.61133 6.26953 2.91016 11.709 2.91016ZM11.709 1.25C7.09961 1.25 3.41797-2.44141 3.41797-7.05078C3.41797-11.6602 7.08984-15.3516 11.6992-15.3516C16.3086-15.3516 20-11.6602 20.0098-7.05078C20.0195-2.44141 16.3184 1.25 11.709 1.25ZM11.6797-2.66602C12.207-2.66602 12.5098-3.01758 12.5098-3.59375L12.5098-6.23047L15.3223-6.23047C15.8691-6.23047 16.25-6.51367 16.25-7.03125C16.25-7.55859 15.8887-7.86133 15.3223-7.86133L12.5098-7.86133L12.5098-10.6836C12.5098-11.25 12.207-11.6113 11.6797-11.6113C11.1621-11.6113 10.8789-11.2305 10.8789-10.6836L10.8789-7.86133L8.07617-7.86133C7.50977-7.86133 7.13867-7.55859 7.13867-7.03125C7.13867-6.51367 7.5293-6.23047 8.07617-6.23047L10.8789-6.23047L10.8789-3.59375C10.8789-3.03711 11.1621-2.66602 11.6797-2.66602Z"/>
  </g>
  <g id="" transform="matrix(1 0 0 1 304.924 1933)">
   <path d="M14.9707 5.66406C21.9336 5.66406 27.6953-0.0976562 27.6953-7.05078C27.6953-14.0137 21.9238-19.7754 14.9609-19.7754C8.00781-19.7754 2.25586-14.0137 2.25586-7.05078C2.25586-0.0976562 8.01758 5.66406 14.9707 5.66406ZM14.9707 3.84766C8.93555 3.84766 4.08203-1.01562 4.08203-7.05078C4.08203-13.0957 8.92578-17.9492 14.9609-17.9492C21.0059-17.9492 25.8594-13.0957 25.8691-7.05078C25.8789-1.01562 21.0156 3.84766 14.9707 3.84766ZM14.9414-1.38672C15.5176-1.38672 15.8594-1.77734 15.8594-2.38281L15.8594-6.13281L19.7754-6.13281C20.3711-6.13281 20.7812-6.46484 20.7812-7.02148C20.7812-7.59766 20.3906-7.93945 19.7754-7.93945L15.8594-7.93945L15.8594-11.8652C15.8594-12.4805 15.5176-12.8711 14.9414-12.8711C14.375-12.8711 14.0527-12.4609 14.0527-11.8652L14.0527-7.93945L10.1465-7.93945C9.53125-7.93945 9.13086-7.59766 9.13086-7.02148C9.13086-6.46484 9.55078-6.13281 10.1465-6.13281L14.0527-6.13281L14.0527-2.38281C14.0527-1.79688 14.375-1.38672 14.9414-1.38672Z"/>
  </g>
  <text style="stroke:none;fill:black;font-family:-apple-system,&quot;SF Pro Display&quot;,&quot;SF Pro Text&quot;,Helvetica,sans-serif;font-weight:bold;" transform="matrix(1 0 0 1 263 1953)">Design Variations</text>
  <text style="stroke:none;fill:black;font-family:-apple-system,&quot;SF Pro Display&quot;,&quot;SF Pro Text&quot;,Helvetica,sans-serif;" transform="matrix(1 0 0 1 263 1971)">Symbols are supported in up to nine weights and three scales.</text>
  <text style="stroke:none;fill:black;font-family:-apple-system,&quot;SF Pro Display&quot;,&quot;SF Pro Text&quot;,Helvetica,sans-serif;" transform="matrix(1 0 0 1 263 1989)">For optimal layout with text and other symbols, vertically align</text>
  <text style="stroke:none;fill:black;font-family:-apple-system,&quot;SF Pro Display&quot;,&quot;SF Pro Text&quot;,Helvetica,sans-serif;" transform="matrix(1 0 0 1 263 2007)">symbols with the adjacent text.</text>
  <line id="" style="fill:none;stroke:#00AEEF;stroke-width:0.5;opacity:1.0;" x1="776" x2="776" y1="1919" y2="1933"/>
  <g id="" transform="matrix(1 0 0 1 776 1933)">
   <path d="M3.31055 0.126953C3.82812 0.126953 4.08203-0.0683594 4.26758-0.605469L5.52734-4.0625L11.2891-4.0625L12.5488-0.605469C12.7344-0.0683594 12.9883 0.126953 13.4961 0.126953C14.0137 0.126953 14.3457-0.185547 14.3457-0.673828C14.3457-0.839844 14.3164-0.986328 14.2383-1.20117L9.6582-13.3887C9.43359-13.9941 9.0332-14.2871 8.4082-14.2871C7.80273-14.2871 7.39258-13.9941 7.17773-13.3984L2.59766-1.19141C2.51953-0.976562 2.49023-0.830078 2.49023-0.664062C2.49023-0.175781 2.80273 0.126953 3.31055 0.126953ZM6.00586-5.53711L8.37891-12.1094L8.42773-12.1094L10.8008-5.53711Z"/>
  </g>
  <line id="" style="fill:none;stroke:#00AEEF;stroke-width:0.5;opacity:1.0;" x1="792.836" x2="792.836" y1="1919" y2="1933"/>
  <text style="stroke:none;fill:black;font-family:-apple-system,&quot;SF Pro Display&quot;,&quot;SF Pro Text&quot;,Helvetica,sans-serif;font-weight:bold;" transform="matrix(1 0 0 1 776 1953)">Margins</text>
  <text style="stroke:none;fill:black;font-family:-apple-system,&quot;SF Pro Display&quot;,&quot;SF Pro Text&quot;,Helvetica,sans-serif;" transform="matrix(1 0 0 1 776 1971)">Leading and trailing margins on the left and right side of each symbol</text>
  <text style="stroke:none;fill:black;font-family:-apple-system,&quot;SF Pro Display&quot;,&quot;SF Pro Text&quot;,Helvetica,sans-serif;" transform="matrix(1 0 0 1 776 1989)">can be adjusted by modifying the x-location of the margin guidelines.</text>
  <text style="stroke:none;fill:black;font-family:-apple-system,&quot;SF Pro Display&quot;,&quot;SF Pro Text&quot;,Helvetica,sans-serif;" transform="matrix(1 0 0 1 776 2007)">Modifications are automatically applied proportionally to all</text>
  <text style="stroke:none;fill:black;font-family:-apple-system,&quot;SF Pro Display&quot;,&quot;SF Pro Text&quot;,Helvetica,sans-serif;" transform="matrix(1 0 0 1 776 2025)">scales and weights.</text>
  <g id="" transform="matrix(1 0 0 1 1289 1933)">
   <path d="M2.8418 1.86523L4.54102 3.57422C5.40039 4.44336 6.38672 4.38477 7.31445 3.35938L17.4902-7.85156C17.7539-7.76367 18.0273-7.7832 18.3398-7.8418L19.4043-8.03711L20.0684-7.36328L20.0293-6.80664C19.9902-6.30859 20.1172-5.92773 20.6055-5.44922L21.3672-4.70703C21.8457-4.22852 22.4609-4.19922 22.9297-4.66797L25.8398-7.58789C26.3086-8.05664 26.2891-8.65234 25.8105-9.13086L25.0391-9.89258C24.5605-10.3711 24.1895-10.5273 23.7109-10.4883L23.1348-10.4395L22.4902-11.0742L22.7344-12.1973C22.8613-12.7637 22.7051-13.2031 22.1191-13.7891L19.9219-15.9766C16.582-19.2969 12.1484-19.2188 9.25781-16.3281C8.83789-15.918 8.80859-15.3418 9.04297-14.9512C9.27734-14.5898 9.73633-14.3555 10.3809-14.5215C11.8457-14.8633 13.3691-14.9219 14.7949-13.9844L14.209-12.5293C14.0137-12.0508 13.9844-11.6504 14.1113-11.2891L3.04688-0.898438C2.06055 0.0195312 1.98242 0.996094 2.8418 1.86523ZM10.752-15.957C13.1836-17.7344 16.4746-17.4316 18.7012-15.2051L21.1328-12.793C21.3672-12.5586 21.4062-12.373 21.3379-12.0312L21.0156-10.5469L22.5195-9.0625L23.5059-9.12109C23.7598-9.13086 23.8379-9.11133 24.0332-8.91602L24.6094-8.33984L22.168-5.89844L21.5918-6.47461C21.3965-6.66992 21.3672-6.74805 21.377-7.01172L21.4453-7.98828L19.9512-9.47266L18.4277-9.21875C18.1055-9.15039 17.959-9.17969 17.7148-9.41406L15.7129-11.416C15.459-11.6504 15.4297-11.8164 15.5859-12.1875L16.4648-14.2773C14.9023-15.7324 12.8711-16.3574 10.8398-15.7617C10.6836-15.7227 10.625-15.8496 10.752-15.957ZM5.27344 2.30469L4.10156 1.14258C3.63281 0.683594 3.74023 0.341797 4.14062-0.0195312L14.9512-10.1953L16.416-8.71094L6.42578 2.27539C6.07422 2.67578 5.74219 2.77344 5.27344 2.30469Z"/>
  </g>
  <text style="stroke:none;fill:black;font-family:-apple-system,&quot;SF Pro Display&quot;,&quot;SF Pro Text&quot;,Helvetica,sans-serif;font-weight:bold;" transform="matrix(1 0 0 1 1289 1953)">Exporting</text>
  <text style="stroke:none;fill:black;font-family:-apple-system,&quot;SF Pro Display&quot;,&quot;SF Pro Text&quot;,Helvetica,sans-serif;" transform="matrix(1 0 0 1 1289 1971)">Symbols should be outlined when exporting to ensure the</text>
  <text style="stroke:none;fill:black;font-family:-apple-system,&quot;SF Pro Display&quot;,&quot;SF Pro Text&quot;,Helvetica,sans-serif;" transform="matrix(1 0 0 1 1289 1989)">design is preserved when submitting to Xcode.</text>
  <text id="template-version" style="stroke:none;fill:black;font-family:-apple-system,&quot;SF Pro Display&quot;,&quot;SF Pro Text&quot;,Helvetica,sans-serif;text-anchor:end;" transform="matrix(1 0 0 1 3036 1933)">Template v.2.0</text>
  <text style="stroke:none;fill:black;font-family:-apple-system,&quot;SF Pro Display&quot;,&quot;SF Pro Text&quot;,Helvetica,sans-serif;text-anchor:end;" transform="matrix(1 0 0 1 3036 1951)">Requires Xcode 12 or greater</text>
  <text style="stroke:none;fill:black;font-family:-apple-system,&quot;SF Pro Display&quot;,&quot;SF Pro Text&quot;,Helvetica,sans-serif;text-anchor:end;" transform="matrix(1 0 0 1 3036 1969)">Generated from questionmark.diamond</text>
  <text style="stroke:none;fill:black;font-family:-apple-system,&quot;SF Pro Display&quot;,&quot;SF Pro Text&quot;,Helvetica,sans-serif;text-anchor:end;" transform="matrix(1 0 0 1 3036 1987)">Typeset at 100 points</text>
  <text style="stroke:none;fill:black;font-family:-apple-system,&quot;SF Pro Display&quot;,&quot;SF Pro Text&quot;,Helvetica,sans-serif;" transform="matrix(1 0 0 1 263 726)">Small</text>
  <text style="stroke:none;fill:black;font-family:-apple-system,&quot;SF Pro Display&quot;,&quot;SF Pro Text&quot;,Helvetica,sans-serif;" transform="matrix(1 0 0 1 263 1156)">Medium</text>
  <text style="stroke:none;fill:black;font-family:-apple-system,&quot;SF Pro Display&quot;,&quot;SF Pro Text&quot;,Helvetica,sans-serif;" transform="matrix(1 0 0 1 263 1586)">Large</text>
 </g>
 <g id="Guides">
  <g id="H-reference" style="fill:#27AAE1;stroke:none;" transform="matrix(1 0 0 1 339 696)">
   <path d="M0.976562 0L3.66211 0L12.9883-24.4629L45.752-24.4629L55.127 0L57.7637 0L30.6152-70.459L28.125-70.459ZM29.3457-67.1387L29.4434-67.1387L44.873-26.709L13.8672-26.709Z"/>
  </g>
  <line id="Baseline-S" style="fill:none;stroke:#27AAE1;opacity:1;stroke-width:0.5;" x1="263" x2="3036" y1="696" y2="696"/>
  <line id="Capline-S" style="fill:none;stroke:#27AAE1;opacity:1;stroke-width:0.5;" x1="263" x2="3036" y1="625.541" y2="625.541"/>
  <g id="H-reference" style="fill:#27AAE1;stroke:none;" transform="matrix(1 0 0 1 339 1126)">
   <path d="M0.976562 0L3.66211 0L12.9883-24.4629L45.752-24.4629L55.127 0L57.7637 0L30.6152-70.459L28.125-70.459ZM29.3457-67.1387L29.4434-67.1387L44.873-26.709L13.8672-26.709Z"/>
  </g>
  <line id="Baseline-M" style="fill:none;stroke:#27AAE1;opacity:1;stroke-width:0.5;" x1="263" x2="3036" y1="1126" y2="1126"/>
  <line id="Capline-M" style="fill:none;stroke:#27AAE1;opacity:1;stroke-width:0.5;" x1="263" x2="3036" y1="1055.54" y2="1055.54"/>
  <g id="H-reference" style="fill:#27AAE1;stroke:none;" transform="matrix(1 0 0 1 339 1556)">
   <path d="M0.976562 0L3.66211 0L12.9883-24.4629L45.752-24.4629L55.127 0L57.7637 0L30.6152-70.459L28.125-70.459ZM29.3457-67.1387L29.4434-67.1387L44.873-26.709L13.8672-26.709Z"/>
  </g>
  <line id="Baseline-L" style="fill:none;stroke:#27AAE1;opacity:1;stroke-width:0.5;" x1="263" x2="3036" y1="1556" y2="1556"/>
  <line id="Capline-L" style="fill:none;stroke:#27AAE1;opacity:1;stroke-width:0.5;" x1="263" x2="3036" y1="1485.54" y2="1485.54"/>
  <line id="left-margin" style="fill:none;stroke:#00AEEF;stroke-width:0.5;opacity:1.0;" x1="1384.46" x2="1384.46" y1="1030.79" y2="1150.12"/>
  <line id="right-margin" style="fill:none;stroke:#00AEEF;stroke-width:0.5;opacity:1.0;" x1="1515.23" x2="1515.23" y1="1030.79" y2="1150.12"/>
 </g>
 <g id="Symbols">
  <g id="Black-L" transform="matrix(1 0 0 1 2844.63 1556)">
   <path d="M20.9473-18.3594L71.875 32.5195C82.666 43.3594 94.873 43.3594 105.664 32.6172L156.641-18.4082C167.432-29.1992 167.383-41.3574 156.592-52.1973L105.713-103.076C94.873-113.867 82.666-113.916 71.9238-103.125L20.8984-52.1484C10.1074-41.3574 10.1562-29.1504 20.9473-18.3594ZM37.2559-30.7617C34.2285-33.7891 33.9844-36.5234 37.2559-39.7949L84.2285-86.7676C87.5-90.0391 90.2344-89.8438 93.3105-86.8164L140.283-39.7949C143.359-36.7188 143.555-33.9844 140.283-30.7129L93.3105 16.2109C90.0391 19.4824 87.3047 19.2871 84.2773 16.2598ZM87.0605-24.2188C91.6016-24.2188 94.873-26.416 95.6055-29.3457C95.6543-29.541 95.7031-29.834 95.752-29.9805C96.5332-32.373 99.3164-34.2773 102.393-36.1816C108.984-40.2832 111.963-43.75 111.963-50.4395C111.963-61.1816 102.002-68.3105 89.1602-68.3105C78.3691-68.3105 70.3613-64.1113 67.5781-57.9102C66.9922-56.5918 66.6992-55.3711 66.6992-53.9551C66.6992-50.1465 69.6289-46.9727 75.0488-46.9727C79.248-46.9727 80.9082-48.9258 82.6172-50.5371C84.668-52.4902 86.1328-53.2715 88.0859-53.2715C90.6738-53.2715 92.334-51.7578 92.334-49.3652C92.334-46.7285 89.6973-44.8242 84.9609-41.6016C80.6641-38.623 77.6855-35.7422 77.6855-31.4941L77.6855-31.2988C77.6855-26.6602 81.0059-24.2188 87.0605-24.2188ZM87.0605-3.07617C92.4805-3.07617 96.4844-6.20117 96.4844-11.377C96.4844-16.4551 92.4805-19.6777 87.0605-19.6777C81.5918-19.6777 77.4902-16.5039 77.4902-11.377C77.4902-6.25 81.6406-3.07617 87.0605-3.07617Z"/>
  </g>
  <g id="Heavy-L" transform="matrix(1 0 0 1 2549.16 1556)">
   <path d="M20.6543-19.1895L71.4355 31.5918C81.8359 41.9922 93.2617 41.9922 103.564 31.6895L154.492-19.2383C164.795-29.541 164.795-41.0156 154.395-51.3672L103.613-102.148C93.2617-112.5 81.8359-112.549 71.4844-102.197L20.5566-51.3184C10.2539-40.9668 10.3027-29.541 20.6543-19.1895ZM34.5703-30.0293C31.1035-33.5449 30.9082-36.8164 34.5703-40.5273L82.2754-88.1836C85.9863-91.8945 89.2578-91.6992 92.7246-88.2324L140.479-40.4785C143.945-37.0117 144.141-33.6914 140.479-30.0293L92.7734 17.6758C89.1113 21.3379 85.7422 21.1914 82.3242 17.7246ZM85.9375-23.7793C90.0391-23.7793 92.9199-25.8301 93.457-28.6133C93.5059-28.8574 93.5547-29.1504 93.6035-29.3457C94.1895-32.0312 96.7773-34.0332 100.244-36.2305C106.738-40.332 109.912-43.8477 109.912-50.6348C109.912-61.1328 100.244-67.9199 87.9395-67.9199C77.2461-67.9199 69.4824-63.4766 66.9922-57.3242C66.5039-56.1035 66.2109-54.9316 66.2109-53.6133C66.2109-50.0977 68.8965-47.3633 73.4863-47.3633C77.3926-47.3633 78.8086-49.2676 80.4688-50.9766C82.4707-53.4668 84.4238-54.7363 87.0605-54.7363C90.4785-54.7363 92.7246-52.7344 92.7246-49.707C92.7246-46.6797 90.1367-44.7266 85.1562-41.3086C80.7617-38.2812 77.7832-35.2539 77.7832-30.6152L77.7832-30.1758C77.7832-25.9766 80.6641-23.7793 85.9375-23.7793ZM85.8887-3.32031C90.8203-3.32031 94.5801-6.34766 94.5801-11.084C94.5801-15.7715 90.8691-18.7988 85.8887-18.7988C80.957-18.7988 77.1484-15.7715 77.1484-11.084C77.1484-6.39648 80.957-3.32031 85.8887-3.32031Z"/>
  </g>
  <g id="Bold-L" transform="matrix(1 0 0 1 2253.84 1556)">
   <path d="M20.3125-20.1172L70.9961 30.5664C80.8594 40.4297 91.4551 40.4785 101.27 30.6641L152.051-20.166C161.865-29.9805 161.865-40.5762 152.002-50.4395L101.318-101.074C91.4551-110.986 80.9082-111.035 71.0449-101.172L20.2148-50.3906C10.3516-40.5273 10.4492-29.9805 20.3125-20.1172ZM31.543-29.248C27.6367-33.2031 27.4902-37.1582 31.5918-41.2598L80.127-89.7949C84.2285-93.9453 88.1836-93.7988 92.1387-89.8438L140.723-41.2598C144.629-37.3047 144.824-33.3496 140.674-29.248L92.1387 19.2871C88.0371 23.3887 84.0332 23.2422 80.1758 19.3359ZM84.668-23.291C88.2812-23.291 90.7715-25.2441 91.1133-27.7832C91.1133-28.0762 91.1621-28.418 91.1621-28.6621C91.5527-31.6895 93.9453-33.7891 97.8027-36.2793C104.199-40.3809 107.617-43.9453 107.617-50.8789C107.617-61.1328 98.2422-67.5293 86.6211-67.5293C75.9766-67.5293 68.5059-62.793 66.3574-56.6895C65.918-55.5664 65.6738-54.4434 65.6738-53.2227C65.6738-50.0977 68.1152-47.8516 71.7285-47.8516C75.3418-47.8516 76.4648-49.6582 78.125-51.5137C80.0293-54.541 82.4707-56.2988 85.8887-56.2988C90.332-56.2988 93.1641-53.8086 93.1641-50.0977C93.1641-46.6309 90.5762-44.5801 85.3516-40.9668C80.8594-37.8418 77.832-34.7168 77.832-29.6387L77.832-28.9551C77.832-25.2441 80.2734-23.291 84.668-23.291ZM84.6191-3.56445C88.9648-3.56445 92.4316-6.49414 92.4316-10.7422C92.4316-14.9414 89.0137-17.8711 84.6191-17.8711C80.1758-17.8711 76.7578-14.9414 76.7578-10.7422C76.7578-6.54297 80.2246-3.56445 84.6191-3.56445Z"/>
  </g>
  <g id="Semibold-L" transform="matrix(1 0 0 1 1958.09 1556)">
   <path d="M20.0684-20.752L70.6543 29.8828C80.1758 39.4043 90.1855 39.4531 99.6582 29.9805L150.391-20.8008C159.863-30.2734 159.863-40.2832 150.342-49.8047L99.7559-100.391C90.1855-109.912 80.2246-109.961 70.752-100.488L19.9707-49.707C10.4492-40.2344 10.5469-30.2734 20.0684-20.752ZM29.4922-28.7109C25.2441-33.0078 25.0977-37.4023 29.541-41.7969L78.6133-90.918C83.0566-95.3613 87.4023-95.2637 91.6992-90.9668L140.869-41.7969C145.117-37.5488 145.264-33.1055 140.82-28.7109L91.748 20.4102C87.3047 24.8047 82.8613 24.707 78.6621 20.459ZM83.7891-22.9492C87.0605-22.9492 89.2578-24.8047 89.4531-27.2461C89.502-27.5391 89.502-27.8809 89.502-28.1738C89.7461-31.4453 91.9922-33.5938 96.0938-36.2793C102.441-40.4297 106.055-44.043 106.055-51.0254C106.055-61.1328 96.9238-67.2363 85.6934-67.2363C75.0977-67.2363 67.8223-62.3047 65.918-56.25C65.5273-55.1758 65.2832-54.1016 65.2832-52.9785C65.2832-50.0977 67.5293-48.1934 70.5078-48.1934C73.9258-48.1934 74.8535-49.9023 76.5137-51.8555C78.3203-55.2734 81.1035-57.4219 85.1074-57.4219C90.1855-57.4219 93.457-54.541 93.457-50.3418C93.457-46.582 90.8691-44.4824 85.498-40.7227C80.9082-37.5488 77.8809-34.375 77.8809-29.0039L77.8809-28.125C77.8809-24.707 80.0293-22.9492 83.7891-22.9492ZM83.7402-3.75977C87.6953-3.75977 90.918-6.5918 90.918-10.498C90.918-14.4043 87.7441-17.2363 83.7402-17.2363C79.6875-17.2363 76.4648-14.3555 76.4648-10.498C76.4648-6.64062 79.7363-3.75977 83.7402-3.75977Z"/>
  </g>
  <g id="Medium-L" transform="matrix(1 0 0 1 1662.11 1556)">
   <path d="M19.873-21.1914L70.4102 29.2969C79.6875 38.5742 89.2578 38.623 98.4375 29.4434L149.17-21.2891C158.35-30.4688 158.35-40.0391 149.072-49.3164L98.5352-99.8535C89.2578-109.131 79.7363-109.18 70.5078-99.9512L19.7754-49.2188C10.5469-39.9902 10.5957-30.4688 19.873-21.1914ZM27.9297-28.3203C23.3887-32.8613 23.291-37.5488 27.9297-42.2363L77.4902-91.748C82.1289-96.4355 86.8164-96.3379 91.3574-91.7969L140.967-42.1875C145.459-37.6953 145.605-32.9102 140.967-28.2715L91.4062 21.2402C86.7676 25.8789 81.9824 25.7812 77.5391 21.3379ZM83.1543-22.7051C86.1816-22.7051 88.0859-24.5117 88.2324-26.8066C88.2324-27.1484 88.2324-27.4902 88.2812-27.832C88.3789-31.25 90.5273-33.4473 94.8242-36.2793C101.123-40.4297 104.883-44.0918 104.883-51.123C104.883-61.084 95.8984-66.9922 85.0098-66.9922C74.4141-66.9922 67.2852-61.9141 65.5762-55.9082C65.2344-54.8828 65.0391-53.8574 65.0391-52.7832C65.0391-50.0977 67.1387-48.4375 69.6289-48.4375C72.8516-48.4375 73.6328-50.0977 75.2441-52.0996C77.0508-55.8105 80.127-58.252 84.5215-58.252C90.0879-58.252 93.6523-55.127 93.6523-50.5859C93.6523-46.582 91.1133-44.3848 85.5957-40.5762C80.957-37.3535 77.9297-34.082 77.9297-28.5156L77.9297-27.4902C77.9297-24.3164 79.834-22.7051 83.1543-22.7051ZM83.0566-3.90625C86.7676-3.90625 89.7949-6.64062 89.7949-10.3027C89.7949-13.9648 86.8164-16.6992 83.0566-16.6992C79.2969-16.6992 76.2207-13.9648 76.2207-10.3027C76.2207-6.68945 79.3457-3.90625 83.0566-3.90625Z"/>
  </g>
  <g id="Regular-L" transform="matrix(1 0 0 1 1366.35 1556)">
   <path d="M19.6777-21.8262L70.1172 28.6133C79.0527 37.5488 88.0371 37.5977 96.875 28.7598L147.51-21.9238C156.348-30.7617 156.348-39.7461 147.412-48.6816L96.9727-99.1211C88.0371-108.105 79.1016-108.154 70.2148-99.2188L19.4824-48.584C10.5957-39.6973 10.6934-30.7617 19.6777-21.8262ZM25.8789-27.7832C21.0449-32.6172 20.9473-37.793 25.9277-42.7246L76.0254-92.8223C80.957-97.8027 86.084-97.7539 90.9668-92.8711L141.113-42.7246C145.947-37.8906 146.094-32.666 141.113-27.7344L91.0156 22.3145C86.0352 27.2949 80.8105 27.1973 76.0742 22.4121ZM82.2754-22.3633C84.9609-22.3633 86.6211-24.0723 86.6211-26.2695L86.6211-27.3438C86.6211-31.0059 88.623-33.252 93.1641-36.3281C99.3652-40.4785 103.32-44.1406 103.32-51.2695C103.32-61.084 94.5312-66.6992 84.082-66.6992C73.5352-66.6992 66.6504-61.4258 65.1367-55.4688C64.8438-54.4922 64.6484-53.5156 64.6484-52.4902C64.6484-50.0977 66.5527-48.7305 68.4082-48.7305C71.4355-48.7305 72.0215-50.3906 73.6328-52.4414C75.3418-56.543 78.7598-59.3262 83.7402-59.3262C89.9414-59.3262 93.9453-55.8594 93.9453-50.8301C93.9453-46.5332 91.4062-44.2871 85.7422-40.332C81.0547-37.0605 77.9785-33.7402 77.9785-27.832L77.9785-26.6602C77.9785-23.8281 79.541-22.3633 82.2754-22.3633ZM82.1777-4.05273C85.498-4.05273 88.3301-6.73828 88.3301-10.0586C88.3301-13.4277 85.5469-16.0645 82.1777-16.0645C78.7598-16.0645 75.9766-13.3789 75.9766-10.0586C75.9766-6.78711 78.8086-4.05273 82.1777-4.05273Z"/>
  </g>
  <g id="Light-L" transform="matrix(1 0 0 1 1070.76 1556)">
   <path d="M19.2383-22.5586L69.7266 27.9297C78.125 36.3281 86.7676 36.2793 95.0684 27.9785L145.557-22.6074C153.857-30.9082 154.004-39.5508 145.605-47.998L95.166-98.3887C86.6699-106.885 78.1738-106.836 69.7754-98.4375L19.1406-47.9004C10.7422-39.502 10.791-31.0059 19.2383-22.5586ZM23.9746-27.0508C18.6523-32.373 18.6523-38.0371 23.9746-43.4082L74.1699-93.6035C79.5898-98.9746 85.1562-98.9746 90.5273-93.6035L140.723-43.4082C145.947-38.1836 146.143-32.373 140.723-27.0508L90.5273 23.0957C85.1562 28.5156 79.3945 28.3691 74.2188 23.1445ZM81.2012-22.5098C83.252-22.5098 84.5215-23.877 84.5215-25.6348L84.5215-27.1973C84.5215-31.0059 86.377-33.3496 91.1621-36.5723C97.5586-40.8691 100.879-44.5801 100.879-51.123C100.879-60.0098 92.9199-65.6738 82.7637-65.6738C72.6074-65.6738 65.9668-60.1562 64.7461-53.9062C64.5508-53.0273 64.4043-52.1484 64.4043-51.2207C64.4043-49.3164 65.8691-48.2422 67.3828-48.2422C69.6777-48.2422 70.3125-49.5117 71.3379-51.2207C72.6074-56.1523 76.5137-59.8633 82.4707-59.8633C89.3555-59.8633 93.75-56.1035 93.75-50.7324C93.75-46.4355 91.3574-43.9453 85.4492-39.8438C80.5176-36.377 77.8809-33.1055 77.8809-27.5879L77.8809-25.8789C77.8809-23.7305 79.1016-22.5098 81.2012-22.5098ZM81.1035-4.93164C84.0332-4.93164 86.4746-7.32422 86.4746-10.2051C86.4746-13.1348 84.0332-15.4785 81.1035-15.4785C78.125-15.4785 75.6836-13.0859 75.6836-10.2051C75.6836-7.37305 78.1738-4.93164 81.1035-4.93164Z"/>
  </g>
  <g id="Thin-L" transform="matrix(1 0 0 1 775.563 1556)">
   <path d="M18.6523-23.5352L69.1895 27.002C76.9043 34.7168 85.0586 34.5703 92.6758 27.002L143.018-23.5352C150.635-31.1035 150.928-39.2578 143.164-47.0215L92.7246-97.4609C84.9121-105.273 76.9043-105.127 69.1895-97.4121L18.6523-47.0215C10.9375-39.2578 10.9375-31.25 18.6523-23.5352ZM21.4355-26.123C15.4785-31.9824 15.5762-38.3789 21.4355-44.2871L71.7773-94.5801C77.7344-100.537 83.9844-100.537 89.9414-94.5801L140.186-44.3359C145.996-38.5742 146.191-31.9824 140.234-26.123L89.9414 24.1211C83.9844 30.0781 77.5391 29.9316 71.7773 24.1211ZM79.7363-22.7539C80.957-22.7539 81.7383-23.584 81.7383-24.8047L81.7383-26.9531C81.7383-31.0059 83.4473-33.3984 88.5254-36.8652C95.1172-41.4062 97.6562-45.1172 97.6562-50.9277C97.6562-58.6426 90.7227-64.2578 81.0547-64.2578C71.3379-64.2578 65.1367-58.4961 64.3066-51.9043C64.209-51.123 64.1113-50.3906 64.1113-49.5605C64.1113-48.3398 64.9902-47.6074 66.0645-47.6074C67.3828-47.6074 68.0176-48.3398 68.2617-49.5605C68.9453-55.6152 73.4863-60.5957 80.8594-60.5957C88.5742-60.5957 93.457-56.3965 93.457-50.6348C93.457-46.3379 91.3086-43.5059 85.1074-39.209C79.7852-35.498 77.7344-32.2754 77.7344-27.2461L77.7344-24.8535C77.7344-23.584 78.5645-22.7539 79.7363-22.7539ZM79.6875-6.10352C82.0801-6.10352 83.9844-8.10547 83.9844-10.3516C83.9844-12.6953 82.0801-14.6484 79.6875-14.6484C77.2461-14.6484 75.3418-12.6953 75.3418-10.3516C75.3418-8.10547 77.2949-6.10352 79.6875-6.10352Z"/>
  </g>
  <g id="Ultralight-L" transform="matrix(1 0 0 1 479.633 1556)">
   <path d="M18.3594-24.0234L68.8965 26.5137C76.2695 33.8867 84.2285 33.6914 91.4551 26.4648L141.748-23.9746C148.975-31.2012 149.316-39.1602 141.943-46.5332L91.5039-96.9727C84.0332-104.443 76.2695-104.248 68.8965-96.875L18.4082-46.5332C10.9863-39.1602 10.9863-31.3965 18.3594-24.0234ZM20.166-25.6348C13.8672-31.7871 13.9648-38.5742 20.166-44.7266L70.5078-95.1172C76.7578-101.367 83.3496-101.367 89.6484-95.1172L139.893-44.8242C145.996-38.7207 146.24-31.7871 139.99-25.6348L89.5996 24.6582C83.3496 30.9082 76.6113 30.7617 70.5078 24.6582ZM79.0039-22.8516C79.7852-22.8516 80.2734-23.4375 80.2734-24.3652L80.2734-26.8555C80.2734-31.0059 81.9336-33.4473 87.1582-37.0605C93.8965-41.6992 96.0449-45.3613 96.0449-50.8301C96.0449-57.9102 89.5996-63.5742 80.1758-63.5742C70.7031-63.5742 64.6973-57.6172 64.0625-50.8301C64.0137-50.1465 63.916-49.4629 63.916-48.6816C63.916-47.8027 64.502-47.2656 65.3809-47.2656C66.1621-47.2656 66.8457-47.7539 66.6992-48.6816C67.041-55.3223 71.9727-60.9375 80.0293-60.9375C88.1836-60.9375 93.3105-56.5918 93.3105-50.5859C93.3105-46.2402 91.2598-43.2617 84.9121-38.916C79.4434-35.0586 77.6367-31.8359 77.6367-27.0508L77.6367-24.3164C77.6367-23.4863 78.2715-22.8516 79.0039-22.8516ZM78.9551-6.68945C81.0547-6.68945 82.7148-8.54492 82.7148-10.4492C82.7148-12.5 81.0547-14.2578 78.9551-14.2578C76.8066-14.2578 75.1953-12.5 75.1953-10.4492C75.1953-8.49609 76.8066-6.68945 78.9551-6.68945Z"/>
  </g>
  <g id="Black-M" transform="matrix(1 0 0 1 2863.5 1126)">
   <path d="M16.4551-21.4355L56.0547 18.1641C64.7461 26.8555 75.0488 26.8555 83.7402 18.1641L123.291-21.4355C131.982-30.127 132.031-40.3809 123.34-49.0723L83.7402-88.6719C75.0488-97.3633 64.7461-97.3633 56.0547-88.6719L16.5039-49.1211C7.8125-40.4297 7.76367-30.127 16.4551-21.4355ZM31.4941-32.3242C29.4922-34.3262 29.2969-35.9863 31.4941-38.1836L66.9434-73.6328C69.1895-75.8789 70.8008-75.6836 72.8516-73.6328L108.301-38.1836C110.303-36.1816 110.498-34.5215 108.301-32.3242L72.8516 3.125C70.6055 5.37109 68.9941 5.17578 66.9434 3.125ZM68.3594-27.3926C72.1191-27.3926 75.0488-29.0039 75.7812-31.3477C75.8789-31.4941 75.9277-31.7871 75.9766-31.8848C76.8066-33.4473 79.1992-34.8633 81.25-36.084C86.5723-39.3066 88.2324-41.9434 88.2324-46.6797C88.2324-54.7852 80.5176-60.791 70.0195-60.791C61.7676-60.791 55.3711-57.7637 52.9785-52.7832C52.4414-51.709 52.1973-50.6836 52.1973-49.5117C52.1973-46.3867 54.5898-43.457 59.7168-43.457C62.9395-43.457 64.5996-44.9219 65.625-45.8008C67.1387-47.1191 67.9199-47.6074 68.9941-47.6074C70.166-47.6074 70.9473-46.875 70.9473-45.7031C70.9473-44.1895 68.9453-42.6758 65.4785-40.332C62.1094-38.0371 60.0586-35.8887 60.0586-33.3496L60.0586-33.252C60.0586-29.3945 63.0371-27.3926 68.3594-27.3926ZM68.457-10.4492C73.0957-10.4492 76.3672-12.8906 76.3672-17.2363C76.3672-21.4844 73.0957-23.9746 68.457-23.9746C63.8184-23.9746 60.4004-21.5332 60.4004-17.2363C60.4004-12.8906 63.8184-10.4492 68.457-10.4492Z"/>
  </g>
  <g id="Heavy-M" transform="matrix(1 0 0 1 2567.87 1126)">
   <path d="M16.2598-22.1191L55.7129 17.334C64.0625 25.6836 73.584 25.6836 81.9336 17.3828L121.436-22.168C129.785-30.4688 129.785-40.0391 121.436-48.3887L81.9336-87.8418C73.6328-96.1914 64.0625-96.1914 55.7129-87.8906L16.2109-48.3398C7.86133-40.0391 7.91016-30.4688 16.2598-22.1191ZM29.0527-31.7383C26.709-34.1309 26.5137-36.2305 29.0527-38.7695L65.2832-75C67.8711-77.5879 69.9707-77.3926 72.3633-75.0488L108.594-38.7695C110.986-36.4258 111.133-34.2773 108.594-31.7383L72.3633 4.49219C69.8242 7.03125 67.6758 6.88477 65.332 4.54102ZM67.4316-26.8555C70.8984-26.8555 73.4375-28.4668 74.0234-30.7129C74.0723-30.8594 74.1211-31.1035 74.1699-31.25C74.8047-33.0566 77.002-34.5703 79.3945-36.0352C84.5703-39.2578 86.6211-41.9434 86.6211-46.9238C86.6211-55.0293 79.0527-60.6934 69.043-60.6934C60.791-60.6934 54.541-57.4219 52.4414-52.5391C51.9531-51.5137 51.7578-50.5859 51.7578-49.4629C51.7578-46.582 53.9551-44.0918 58.252-44.0918C61.377-44.0918 62.7441-45.5078 63.916-46.6309C65.4297-48.2422 66.6016-49.0234 68.2129-49.0234C70.166-49.0234 71.3867-47.8516 71.3867-46.0938C71.3867-44.1406 69.3848-42.627 65.7227-40.1367C62.3535-37.793 60.1562-35.5469 60.1562-32.4707L60.1562-32.2266C60.1562-28.7109 62.7441-26.8555 67.4316-26.8555ZM67.4805-10.498C71.6797-10.498 74.7559-12.8906 74.7559-16.8457C74.7559-20.8008 71.6797-23.1934 67.4805-23.1934C63.2324-23.1934 60.1074-20.8496 60.1074-16.8457C60.1074-12.8906 63.2324-10.498 67.4805-10.498Z"/>
  </g>
  <g id="Bold-M" transform="matrix(1 0 0 1 2272.35 1126)">
   <path d="M15.9668-22.9492L55.3223 16.4062C63.2812 24.3652 72.0215 24.4141 79.9316 16.4551L119.385-22.998C127.295-30.9082 127.246-39.6484 119.287-47.6074L79.9805-86.9141C72.0215-94.873 63.2812-94.9219 55.3711-86.9629L15.918-47.5586C7.95898-39.5996 8.00781-30.9082 15.9668-22.9492ZM26.3184-31.1035C23.584-33.8379 23.4375-36.5234 26.3672-39.4531L63.4766-76.5625C66.3574-79.4434 69.043-79.3457 71.7773-76.5625L108.936-39.4043C111.719-36.6699 111.865-33.9844 108.936-31.0547L71.8262 6.05469C68.8965 8.93555 66.2109 8.83789 63.4766 6.10352ZM66.4062-26.2695C69.4824-26.2695 71.6797-27.8809 72.0703-29.9805C72.1191-30.1758 72.1191-30.4199 72.168-30.5664C72.5586-32.7148 74.5605-34.2773 77.2949-35.9863C82.3242-39.209 84.8633-41.9434 84.8633-47.2168C84.8633-55.3223 77.3438-60.498 67.9688-60.498C59.668-60.498 53.6621-57.0312 51.8066-52.2949C51.416-51.3184 51.2207-50.4395 51.2207-49.4141C51.2207-46.7773 53.2715-44.7266 56.6406-44.7266C59.668-44.7266 60.6934-46.1914 62.0117-47.5586C63.5742-49.5605 65.1367-50.5859 67.2852-50.5859C70.1172-50.5859 71.9238-48.9746 71.9238-46.5332C71.9238-44.0918 69.9219-42.5781 66.0156-39.8926C62.5977-37.5 60.3027-35.1562 60.3027-31.4941L60.3027-31.1035C60.3027-27.9297 62.4512-26.2695 66.4062-26.2695ZM66.3574-10.5469C70.1172-10.5469 72.9492-12.8418 72.9492-16.4551C72.9492-20.0195 70.1172-22.3633 66.3574-22.3633C62.5977-22.3633 59.7168-20.0195 59.7168-16.4551C59.7168-12.8906 62.6465-10.5469 66.3574-10.5469Z"/>
  </g>
  <g id="Semibold-M" transform="matrix(1 0 0 1 1976.45 1126)">
   <path d="M15.8203-23.4863L55.0293 15.7715C62.7441 23.4375 70.8984 23.4863 78.5156 15.8691L117.92-23.5352C125.586-31.2012 125.537-39.3555 117.871-47.0215L78.6133-86.2793C70.8984-93.9941 62.793-94.043 55.127-86.377L15.7227-46.9727C8.05664-39.3066 8.10547-31.1523 15.8203-23.4863ZM24.4141-30.6641C21.4355-33.6914 21.2891-36.7188 24.4629-39.8926L62.1582-77.5879C65.332-80.7617 68.3594-80.6641 71.4355-77.6367L109.18-39.8438C112.207-36.8164 112.354-33.7891 109.18-30.6152L71.4355 7.08008C68.2617 10.2539 65.1855 10.1562 62.207 7.17773ZM65.6738-25.8789C68.5547-25.8789 70.459-27.4414 70.7031-29.4922C70.7031-29.6875 70.752-29.8828 70.752-30.0781C71.0449-32.4219 72.9004-34.0332 75.8301-35.9863C80.7617-39.1602 83.5938-41.9434 83.5938-47.4121C83.5938-55.5176 76.2207-60.4004 67.2363-60.4004C58.8867-60.4004 53.0762-56.7383 51.416-52.0996C51.0742-51.2207 50.8789-50.3418 50.8789-49.4141C50.8789-46.9238 52.7832-45.2148 55.5664-45.2148C58.4473-45.2148 59.2773-46.6309 60.6934-48.1934C62.2559-50.4395 64.1113-51.709 66.6504-51.709C70.0684-51.709 72.3145-49.7559 72.3145-46.8262C72.3145-44.0918 70.2637-42.5293 66.2598-39.7461C62.793-37.3535 60.3516-34.9121 60.3516-30.8105L60.3516-30.3711C60.3516-27.3926 62.2559-25.8789 65.6738-25.8789ZM65.625-10.5469C68.9941-10.5469 71.7285-12.8418 71.7285-16.1621C71.7285-19.4824 69.043-21.7773 65.625-21.7773C62.1582-21.7773 59.4727-19.4336 59.4727-16.1621C59.4727-12.8906 62.207-10.5469 65.625-10.5469Z"/>
  </g>
  <g id="Medium-M" transform="matrix(1 0 0 1 1680.37 1126)">
   <path d="M15.6738-23.9258L54.834 15.2832C62.3535 22.7539 70.0684 22.8027 77.4902 15.3809L116.846-23.9746C124.268-31.3965 124.219-39.1113 116.748-46.6309L77.5879-85.791C70.0684-93.3105 62.3535-93.3594 54.9316-85.8887L15.5273-46.5332C8.10547-39.1113 8.1543-31.3965 15.6738-23.9258ZM22.998-30.3223C19.7754-33.5449 19.6777-36.8652 23.0469-40.2344L61.2305-78.418C64.5996-81.7871 67.8711-81.6895 71.1426-78.418L109.375-40.1855C112.598-36.9629 112.695-33.6426 109.326-30.2734L71.1914 7.91016C67.8223 11.2305 64.4531 11.1328 61.2305 7.95898ZM65.0879-25.5859C67.8223-25.5859 69.5312-27.0996 69.6777-29.1016C69.6777-29.2969 69.6777-29.541 69.7266-29.6875C69.873-32.2266 71.582-33.8867 74.7559-35.9375C79.5898-39.1113 82.666-41.9434 82.666-47.5586C82.666-55.6641 75.3418-60.3516 66.6504-60.3516C58.3008-60.3516 52.5879-56.543 51.0742-51.9531C50.7812-51.123 50.5859-50.2441 50.5859-49.3652C50.5859-47.0215 52.4414-45.5566 54.6875-45.5566C57.5684-45.5566 58.2031-47.0215 59.7168-48.6816C61.2793-51.123 63.3301-52.5391 66.2109-52.5391C70.0684-52.5391 72.5586-50.3418 72.5586-47.0703C72.5586-44.043 70.5566-42.4805 66.4062-39.5996C62.9395-37.207 60.4004-34.7168 60.4004-30.3223L60.4004-29.7852C60.4004-27.002 62.1094-25.5859 65.0879-25.5859ZM65.0391-10.5469C68.1641-10.5469 70.752-12.8418 70.752-15.9668C70.752-19.043 68.2129-21.3379 65.0391-21.3379C61.8652-21.3379 59.2773-19.043 59.2773-15.9668C59.2773-12.8906 61.8652-10.5469 65.0391-10.5469Z"/>
  </g>
  <g id="Regular-M" transform="matrix(1 0 0 1 1384.46 1126)">
   <path d="M15.4785-24.4629L54.5898 14.6484C61.8164 21.875 68.9453 21.9238 76.123 14.7949L115.43-24.5605C122.559-31.6895 122.51-38.8672 115.283-46.0938L76.2207-85.1562C68.9941-92.3828 61.8652-92.4805 54.6875-85.3027L15.332-45.9961C8.1543-38.8184 8.25195-31.6895 15.4785-24.4629ZM21.1426-29.8828C17.6758-33.3984 17.5781-37.0605 21.1914-40.6738L59.9609-79.4434C63.5742-83.0566 67.2363-83.0078 70.752-79.4922L109.619-40.625C113.086-37.1582 113.184-33.4473 109.57-29.834L70.8008 8.93555C67.1875 12.5488 63.4277 12.4512 60.0098 9.0332ZM64.4043-25.1465C66.8457-25.1465 68.3105-26.709 68.3105-28.6133L68.3105-29.1992C68.3105-31.9336 69.9219-33.6914 73.3398-35.9375C78.0762-39.0625 81.4453-41.8945 81.4453-47.7539C81.4453-55.8594 74.2188-60.2539 65.918-60.2539C57.5195-60.2539 52.002-56.25 50.6836-51.7578C50.3906-50.9766 50.2441-50.1465 50.2441-49.3652C50.2441-47.168 51.9531-45.9961 53.6133-45.9961C56.3477-45.9961 56.8359-47.4609 58.3984-49.3164C59.9609-52.002 62.3535-53.6133 65.5762-53.6133C70.0684-53.6133 72.9492-51.0742 72.9492-47.3633C72.9492-44.043 70.8984-42.4316 66.6016-39.4531C63.1348-37.0117 60.498-34.4238 60.498-29.6387L60.498-29.0039C60.498-26.4648 61.8652-25.1465 64.4043-25.1465ZM64.2578-10.5957C67.0898-10.5957 69.5312-12.8418 69.5312-15.6738C69.5312-18.5059 67.1387-20.752 64.2578-20.752C61.4258-20.752 59.0332-18.457 59.0332-15.6738C59.0332-12.8906 61.4746-10.5957 64.2578-10.5957Z"/>
  </g>
  <g id="Light-M" transform="matrix(1 0 0 1 1088.78 1126)">
   <path d="M15.0879-25.0977L54.1992 14.0137C60.9863 20.8008 67.8223 20.8008 74.4629 14.1113L113.672-25.1465C120.361-31.8359 120.41-38.6719 113.672-45.4102L74.5605-84.5215C67.7734-91.3086 60.9863-91.3086 54.2969-84.5703L14.9902-45.3613C8.30078-38.623 8.34961-31.8359 15.0879-25.0977ZM19.4336-29.248C15.5273-33.1055 15.4785-37.3047 19.4336-41.2598L58.3008-80.127C62.3047-84.1309 66.4062-84.082 70.3613-80.1758L109.229-41.2598C113.135-37.4023 113.232-33.1543 109.229-29.1992L70.3613 9.61914C66.4062 13.623 62.1582 13.5254 58.3496 9.7168ZM63.4277-25.293C65.2832-25.293 66.4551-26.5137 66.4551-28.0762L66.4551-29.0527C66.4551-31.9336 67.9199-33.7402 71.5332-36.1328C76.416-39.4043 79.248-42.2852 79.248-47.6074C79.248-54.9316 72.7539-59.2773 64.7461-59.2773C56.6895-59.2773 51.416-55.127 50.3418-50.3906C50.1465-49.6582 50.0488-48.9746 50.0488-48.1934C50.0488-46.4844 51.3672-45.5566 52.6855-45.5566C54.7852-45.5566 55.2734-46.6797 56.2988-48.1934C57.5195-51.6113 60.3027-54.1016 64.502-54.1016C69.5312-54.1016 72.7539-51.3184 72.7539-47.3145C72.7539-43.9453 70.8496-42.1387 66.3574-39.0137C62.6465-36.4258 60.4004-33.8867 60.4004-29.3945L60.4004-28.3203C60.4004-26.3672 61.5234-25.293 63.4277-25.293ZM63.3301-11.377C65.7715-11.377 67.8711-13.3301 67.8711-15.7715C67.8711-18.2129 65.8203-20.166 63.3301-20.166C60.8398-20.166 58.7891-18.2129 58.7891-15.7715C58.7891-13.3789 60.8887-11.377 63.3301-11.377Z"/>
  </g>
  <g id="Thin-M" transform="matrix(1 0 0 1 793.434 1126)">
   <path d="M14.5996-25.9277L53.7109 13.1836C59.8633 19.3359 66.3086 19.2383 72.3145 13.2324L111.426-25.9766C117.432-31.9824 117.627-38.4277 111.475-44.5801L72.4121-83.6426C66.2109-89.8438 59.8633-89.7461 53.7598-83.6426L14.5508-44.5312C8.44727-38.4277 8.44727-32.0801 14.5996-25.9277ZM17.1875-28.3691C12.6953-32.8125 12.7441-37.5977 17.1875-42.041L56.1523-81.0059C60.6445-85.498 65.332-85.498 69.8242-81.0547L108.74-42.0898C113.135-37.7441 113.281-32.8125 108.789-28.3691L69.8242 10.5469C65.332 15.0391 60.498 14.9414 56.1523 10.5957ZM62.1094-25.4883C63.2324-25.4883 63.916-26.2695 63.916-27.3438L63.916-28.8574C63.916-31.9336 65.2832-33.7891 69.1895-36.4258C74.2676-39.8926 76.3672-42.7734 76.3672-47.4121C76.3672-53.6621 70.8008-58.0566 63.1836-58.0566C55.5664-58.0566 50.6348-53.6133 49.9512-48.584C49.8047-47.9492 49.7559-47.3633 49.7559-46.6797C49.7559-45.6055 50.5371-44.9707 51.4648-44.9707C52.6855-44.9707 53.1738-45.6543 53.5645-46.6797C54.1992-51.123 57.6172-54.7363 63.0371-54.7363C68.8477-54.7363 72.4609-51.5625 72.4609-47.2168C72.4609-43.8477 70.752-41.748 66.0156-38.4766C62.0117-35.6445 60.2539-33.1055 60.2539-29.1016L60.2539-27.3926C60.2539-26.2207 60.9863-25.4883 62.1094-25.4883ZM62.0605-12.4023C64.0137-12.4023 65.625-14.0625 65.625-15.918C65.625-17.8711 64.0137-19.4824 62.0605-19.4824C60.0586-19.4824 58.4961-17.8711 58.4961-15.918C58.4961-14.0625 60.0586-12.4023 62.0605-12.4023Z"/>
  </g>
  <g id="Ultralight-M" transform="matrix(1 0 0 1 497.406 1126)">
   <path d="M14.3555-26.3672L53.4668 12.7441C59.3262 18.6035 65.5273 18.457 71.2402 12.7441L110.254-26.3672C115.967-32.0801 116.211-38.2812 110.352-44.1406L71.2891-83.2031C65.3809-89.1113 59.3262-88.9648 53.4668-83.1543L14.3555-44.1406C8.49609-38.2812 8.49609-32.2266 14.3555-26.3672ZM16.0156-27.9297C11.2305-32.6172 11.3281-37.7441 16.0156-42.4805L55.0293-81.4941C59.7656-86.2305 64.7949-86.2305 69.5801-81.4941L108.496-42.5293C113.135-37.8906 113.33-32.6172 108.594-27.9297L69.5312 11.0352C64.7949 15.7715 59.668 15.6738 55.0293 11.0352ZM61.4746-25.5859C62.1582-25.5859 62.6465-26.1719 62.6465-26.9531L62.6465-28.7598C62.6465-31.9336 63.9648-33.8379 67.9688-36.5723C73.1445-40.1367 74.9023-43.0176 74.9023-47.3633C74.9023-53.0273 69.7754-57.373 62.4023-57.373C54.9805-57.373 50.2441-52.832 49.707-47.6562C49.6582-47.0703 49.6094-46.5332 49.6094-45.8984C49.6094-45.1172 50.1465-44.6289 50.8789-44.6289C51.6602-44.6289 52.1484-45.1172 52.1973-45.8984C52.5391-50.8789 56.25-55.0293 62.2559-55.0293C68.457-55.0293 72.3633-51.709 72.3633-47.168C72.3633-43.7988 70.752-41.5527 65.8691-38.1836C61.6699-35.2051 60.2051-32.7148 60.2051-28.9551L60.2051-26.9531C60.2051-26.1719 60.7422-25.5859 61.4746-25.5859ZM61.377-12.9395C63.1348-12.9395 64.4531-14.4043 64.4531-16.0156C64.4531-17.6758 63.1348-19.0918 61.377-19.0918C59.668-19.0918 58.3008-17.6758 58.3008-16.0156C58.3008-14.4043 59.668-12.9395 61.377-12.9395Z"/>
  </g>
  <g id="Black-S" transform="matrix(1 0 0 1 2878.69 696)">
   <path d="M12.8906-24.4629L43.8965 6.54297C50.6836 13.3301 58.6914 13.3301 65.4785 6.54297L96.4844-24.4629C103.271-31.25 103.271-39.2578 96.4844-46.0449L65.4785-77.0508C58.6914-83.8379 50.6836-83.8379 43.8965-77.0508L12.8906-46.0449C6.10352-39.2578 6.10352-31.25 12.8906-24.4629ZM24.5117-32.9102C22.9004-34.5215 22.7539-35.8398 24.5117-37.5977L52.3438-65.4297C54.1016-67.1875 55.4199-67.041 57.0312-65.4297L84.8633-37.5977C86.4746-35.9863 86.6211-34.668 84.8633-32.9102L57.0312-5.07812C55.2734-3.32031 53.9551-3.4668 52.3438-5.07812ZM53.5156-29.0527C56.4453-29.0527 58.6914-30.3223 59.2773-32.1289C59.3262-32.2754 59.375-32.4707 59.4238-32.5684C60.0586-33.7891 61.9141-34.9121 63.5254-35.8887C67.6758-38.4277 69.043-40.4785 69.043-44.2383C69.043-50.5859 62.9883-55.2734 54.7852-55.2734C48.3398-55.2734 43.3105-52.8809 41.4551-48.9746C41.0645-48.1445 40.8691-47.3633 40.8691-46.4355C40.8691-43.9941 42.7246-41.748 46.6797-41.748C49.2188-41.748 50.4883-42.8711 51.3184-43.6035C52.4902-44.6289 53.125-45.0195 54.0039-45.0195C54.9805-45.0195 55.6152-44.4336 55.6152-43.457C55.6152-42.2363 54.0527-41.0645 51.3184-39.209C48.6816-37.4023 47.0703-35.7422 47.0703-33.6914L47.0703-33.5938C47.0703-30.6152 49.3652-29.0527 53.5156-29.0527ZM53.5645-15.8203C57.1777-15.8203 59.7168-17.7246 59.7168-21.0938C59.7168-24.4141 57.1777-26.3672 53.5645-26.3672C49.9512-26.3672 47.3145-24.4629 47.3145-21.0938C47.3145-17.7246 49.9512-15.8203 53.5645-15.8203Z"/>
  </g>
  <g id="Heavy-S" transform="matrix(1 0 0 1 2582.71 696)">
   <path d="M12.7441-24.9512L43.6523 5.95703C50.2441 12.5488 57.7148 12.5488 64.3066 6.00586L95.2637-24.9512C101.807-31.543 101.807-39.0137 95.2148-45.5566L64.3066-76.4648C57.7148-83.0566 50.2441-83.0566 43.7012-76.5137L12.7441-45.5566C6.15234-38.9648 6.20117-31.4941 12.7441-24.9512ZM22.8516-32.5195C20.9961-34.375 20.8496-35.9863 22.8516-37.9883L51.2695-66.4062C53.2227-68.3594 54.8828-68.2617 56.6895-66.4062L85.1562-37.9883C86.9629-36.1328 87.1094-34.4727 85.1562-32.5195L56.6895-4.10156C54.7363-2.14844 53.0762-2.24609 51.2695-4.10156ZM52.8809-28.6133C55.6641-28.6133 57.666-29.9316 58.1543-31.6895C58.1543-31.8359 58.2031-32.0312 58.252-32.0801C58.7402-33.5449 60.4492-34.7168 62.3047-35.8398C66.3086-38.3301 68.0664-40.4297 68.0664-44.4336C68.0664-50.8789 62.0117-55.2734 54.1992-55.2734C47.6562-55.2734 42.7734-52.7344 41.0645-48.9258C40.7227-48.1445 40.5273-47.4121 40.5273-46.5332C40.5273-44.1895 42.334-42.2363 45.6543-42.2363C48.1934-42.2363 49.2676-43.4082 50.2441-44.3359C51.4648-45.5566 52.3438-46.0449 53.5156-46.0449C55.0293-46.0449 56.0059-45.166 56.0059-43.75C56.0059-42.2363 54.3945-41.0645 51.5625-39.1113C48.9258-37.3047 47.168-35.5469 47.168-33.0566L47.168-32.9102C47.168-30.0781 49.2188-28.6133 52.8809-28.6133ZM52.9297-15.7715C56.25-15.7715 58.6914-17.6758 58.6914-20.8008C58.6914-23.9258 56.25-25.8301 52.9297-25.8301C49.5605-25.8301 47.0703-23.9258 47.0703-20.8008C47.0703-17.6758 49.6094-15.7715 52.9297-15.7715Z"/>
  </g>
  <g id="Bold-S" transform="matrix(1 0 0 1 2286.78 696)">
   <path d="M12.5977-25.4883L43.4082 5.32227C49.7559 11.6699 56.6406 11.7188 62.9395 5.41992L93.8477-25.4883C100.146-31.8359 100.146-38.7207 93.7988-45.0195L62.9883-75.8301C56.6406-82.1777 49.7559-82.2266 43.457-75.9277L12.5-45.0195C6.20117-38.6719 6.25-31.7871 12.5977-25.4883ZM20.9473-32.1289C18.8965-34.2285 18.75-36.1816 20.9473-38.3789L50.0488-67.4805C52.2461-69.6777 54.248-69.5801 56.2988-67.5293L85.4492-38.3789C87.5-36.2793 87.6465-34.3262 85.4004-32.1289L56.3477-3.02734C54.1504-0.830078 52.0996-0.927734 50.0488-2.97852ZM52.1973-28.1738C54.7852-28.1738 56.5918-29.4922 56.8848-31.25C56.8848-31.3477 56.9336-31.4941 56.9336-31.5918C57.2754-33.252 58.8379-34.4727 60.9375-35.791C64.7949-38.2324 66.9434-40.3809 66.9434-44.6777C66.9434-51.2207 60.9375-55.2734 53.5156-55.2734C46.9238-55.2734 42.1875-52.5879 40.625-48.9258C40.332-48.1445 40.1855-47.4609 40.1855-46.6309C40.1855-44.4336 41.8945-42.8223 44.5801-42.8223C47.0703-42.8223 47.9004-44.043 49.0234-45.2148C50.3418-46.582 51.4648-47.2168 52.9785-47.2168C55.0781-47.2168 56.4453-45.9961 56.4453-44.0918C56.4453-42.1875 54.7852-41.0645 51.8066-38.9648C49.1699-37.1582 47.2656-35.3027 47.2656-32.3242L47.2656-32.1289C47.2656-29.4922 49.0234-28.1738 52.1973-28.1738ZM52.1973-15.6738C55.1758-15.6738 57.5195-17.5781 57.5195-20.459C57.5195-23.3398 55.2246-25.2441 52.1973-25.2441C49.1699-25.2441 46.8262-23.3398 46.8262-20.459C46.8262-17.5781 49.2188-15.6738 52.1973-15.6738Z"/>
  </g>
  <g id="Semibold-S" transform="matrix(1 0 0 1 1990.63 696)">
   <path d="M12.5-25.8301L43.2129 4.93164C49.4141 11.084 55.8594 11.1328 62.0117 5.0293L92.9199-25.8789C99.0234-32.0312 98.9746-38.5254 92.8223-44.6777L62.0605-75.4395C55.9082-81.5918 49.4141-81.6406 43.2617-75.4883L12.4023-44.6289C6.25-38.4766 6.29883-31.9824 12.5-25.8301ZM19.6289-31.8359C17.3828-34.082 17.2852-36.3281 19.6777-38.6719L49.2188-68.2129C51.5625-70.6055 53.8086-70.5078 56.0547-68.2617L85.6445-38.6719C87.8906-36.4258 87.9883-34.1797 85.6445-31.7871L56.1035-2.29492C53.7109 0.0976562 51.4648 0 49.2188-2.19727ZM51.7578-27.832C54.1992-27.832 55.8105-29.1504 55.957-30.9082C56.0059-31.0059 56.0059-31.1523 56.0059-31.2012C56.25-33.0078 57.7148-34.2773 59.9609-35.7422C63.7695-38.1836 66.1621-40.332 66.1621-44.8242C66.1621-51.4648 60.1562-55.2734 53.0273-55.2734C46.3867-55.2734 41.748-52.4414 40.332-48.877C40.0879-48.1934 39.8926-47.4609 39.8926-46.7285C39.8926-44.6289 41.5527-43.2129 43.7988-43.2129C46.2891-43.2129 46.9238-44.4336 48.1934-45.8008C49.5605-47.2656 50.8789-47.998 52.5879-47.998C55.0781-47.998 56.7383-46.5332 56.7383-44.3359C56.7383-42.1875 55.0781-41.0156 52.002-38.916C49.3652-37.0605 47.3145-35.1562 47.3145-31.8359L47.3145-31.6406C47.3145-29.1016 48.877-27.832 51.7578-27.832ZM51.709-15.625C54.4922-15.625 56.6895-17.5293 56.6895-20.2637C56.6895-22.9492 54.4922-24.8535 51.709-24.8535C48.877-24.8535 46.6797-22.9492 46.6797-20.2637C46.6797-17.5293 48.9258-15.625 51.709-15.625Z"/>
  </g>
  <g id="Medium-S" transform="matrix(1 0 0 1 1694.33 696)">
   <path d="M12.4023-26.123L43.0664 4.58984C49.1211 10.6445 55.2734 10.6934 61.2793 4.6875L92.1875-26.1719C98.1934-32.1777 98.0957-38.3301 92.041-44.3848L61.377-75.0977C55.3223-81.1523 49.1699-81.2012 43.1641-75.1953L12.2559-44.3359C6.25-38.3301 6.34766-32.1777 12.4023-26.123ZM18.6523-31.6406C16.3086-34.0332 16.2109-36.4258 18.6523-38.916L48.584-68.7988C51.0254-71.2891 53.4668-71.2402 55.8594-68.8477L85.791-38.8672C88.1836-36.4746 88.2812-34.082 85.791-31.5918L55.9082-1.70898C53.418 0.78125 50.9277 0.732422 48.584-1.61133ZM51.3672-27.5879C53.7109-27.5879 55.2246-28.9551 55.3223-30.6641C55.3223-30.7617 55.3223-30.8594 55.3223-30.957C55.4688-32.8613 56.8359-34.1797 59.2773-35.6934C62.9883-38.1348 65.625-40.332 65.625-44.9219C65.625-51.6113 59.6191-55.2734 52.6855-55.2734C45.9961-55.2734 41.4551-52.3926 40.1367-48.877C39.8926-48.1934 39.6973-47.5098 39.6973-46.7773C39.6973-44.7266 41.3086-43.5059 43.2129-43.5059C45.7031-43.5059 46.1914-44.7754 47.5586-46.2402C48.9746-47.8027 50.4395-48.584 52.2949-48.584C55.127-48.584 56.9336-46.9727 56.9336-44.5312C56.9336-42.1875 55.2734-41.0156 52.1484-38.8184C49.5117-37.0117 47.3633-35.0098 47.3633-31.4453L47.3633-31.2012C47.3633-28.8086 48.7793-27.5879 51.3672-27.5879ZM51.3184-15.5762C53.9062-15.5762 56.1035-17.4805 56.1035-20.0684C56.1035-22.6562 53.9551-24.5117 51.3184-24.5117C48.6816-24.5117 46.5332-22.6074 46.5332-20.0684C46.5332-17.5293 48.7305-15.5762 51.3184-15.5762Z"/>
  </g>
  <g id="Regular-S" transform="matrix(1 0 0 1 1398.16 696)">
   <path d="M12.2559-26.4648L42.9199 4.15039C48.7793 10.0586 54.541 10.1074 60.4004 4.29688L91.2109-26.5625C97.0703-32.373 96.9727-38.1348 91.0645-44.043L60.4492-74.6582C54.5898-80.5664 48.8281-80.6152 42.9688-74.8047L12.1582-43.9453C6.29883-38.0859 6.39648-32.373 12.2559-26.4648ZM17.334-31.3477C14.8438-33.8867 14.7461-36.5723 17.3828-39.209L47.7051-69.5312C50.3906-72.168 53.0273-72.1191 55.5664-69.5801L86.0352-39.1602C88.5742-36.6211 88.623-33.9355 85.9863-31.2988L55.6152-0.976562C52.9785 1.66016 50.293 1.61133 47.7539-0.878906ZM50.9277-27.2461C53.125-27.2461 54.4434-28.6133 54.4434-30.3223L54.4434-30.6152C54.4434-32.666 55.7617-33.9844 58.3008-35.6934C61.9629-38.0371 64.8438-40.2832 64.8438-45.1172C64.8438-51.8555 58.8379-55.2734 52.1973-55.2734C45.459-55.2734 41.0156-52.2461 39.8438-48.877C39.5996-48.1934 39.4531-47.5098 39.4531-46.8262C39.4531-44.9219 41.0156-43.8965 42.4316-43.8965C44.9219-43.8965 45.2637-45.2148 46.7285-46.7773C48.1934-48.5352 49.8535-49.4141 51.9043-49.4141C55.127-49.4141 57.2266-47.5586 57.2266-44.7754C57.2266-42.1875 55.5664-41.0156 52.2949-38.7695C49.6582-36.9141 47.4609-34.8633 47.4609-30.957L47.4609-30.7129C47.4609-28.418 48.6816-27.2461 50.9277-27.2461ZM50.8301-15.5273C53.2227-15.5273 55.3223-17.4316 55.3223-19.8242C55.3223-22.2656 53.2715-24.1211 50.8301-24.1211C48.3887-24.1211 46.3379-22.2168 46.3379-19.8242C46.3379-17.4805 48.4375-15.5273 50.8301-15.5273Z"/>
  </g>
  <g id="Light-S" transform="matrix(1 0 0 1 1102.35 696)">
   <path d="M11.9629-27.0508L42.5781 3.61328C48.0469 9.08203 53.5645 9.08203 58.9355 3.71094L89.6973-27.0996C95.1172-32.5195 95.1172-37.9883 89.6484-43.457L59.0332-74.0723C53.5645-79.5898 48.0957-79.5898 42.627-74.1699L11.8652-43.4082C6.39648-37.9395 6.49414-32.5195 11.9629-27.0508ZM15.8691-30.7617C12.9395-33.6914 12.8906-36.7676 15.8691-39.7461L46.2891-70.1172C49.2676-73.1445 52.3438-73.0957 55.2246-70.166L85.6934-39.6973C88.5742-36.8164 88.6719-33.6914 85.6934-30.7617L55.2734-0.341797C52.2949 2.63672 49.1699 2.58789 46.3379-0.292969ZM50.0488-27.3926C51.7578-27.3926 52.7832-28.4668 52.7832-29.834L52.7832-30.4688C52.7832-32.666 54.0039-34.0332 56.7383-35.8887C60.498-38.3789 62.9395-40.625 62.9395-44.9707C62.9395-51.0254 57.5684-54.4434 51.1719-54.4434C44.7266-54.4434 40.5273-51.2695 39.5508-47.6562C39.4043-47.0215 39.2578-46.4355 39.2578-45.8496C39.2578-44.3359 40.4785-43.457 41.6504-43.457C43.5059-43.457 43.8965-44.4824 44.9219-45.8008C45.9961-48.1934 48.0469-49.8047 50.9277-49.8047C54.6875-49.8047 57.0801-47.7539 57.0801-44.7266C57.0801-42.0898 55.5176-40.7715 52.0996-38.3789C49.2676-36.377 47.3633-34.375 47.3633-30.7617L47.3633-30.0781C47.3633-28.3203 48.3398-27.3926 50.0488-27.3926ZM50-16.2598C52.0508-16.2598 53.8086-17.8711 53.8086-19.9219C53.8086-22.0215 52.0508-23.6328 50-23.6328C47.9004-23.6328 46.1426-21.9727 46.1426-19.9219C46.1426-17.9199 47.9004-16.2598 50-16.2598Z"/>
  </g>
  <g id="Thin-S" transform="matrix(1 0 0 1 806.813 696)">
   <path d="M11.5234-27.7832L42.1875 2.88086C47.1191 7.8125 52.2461 7.76367 57.0801 2.88086L87.6953-27.832C92.5781-32.666 92.6758-37.793 87.7441-42.7246L57.1289-73.3398C52.1484-78.3203 47.1191-78.2715 42.1875-73.3398L11.4746-42.6758C6.5918-37.793 6.5918-32.7148 11.5234-27.7832ZM13.8672-30.0293C10.498-33.3984 10.498-37.0117 13.8672-40.4297L44.3848-70.9473C47.8027-74.3652 51.416-74.3652 54.7852-70.9473L85.3027-40.4297C88.623-37.1094 88.7695-33.3984 85.3027-30.0293L54.834 0.439453C51.3672 3.90625 47.7051 3.80859 44.3848 0.488281ZM48.9258-27.5879C49.9512-27.5879 50.5859-28.2715 50.5859-29.1992L50.5859-30.2734C50.5859-32.666 51.6602-34.082 54.6387-36.1328C58.5938-38.7695 60.4004-41.0156 60.4004-44.8242C60.4004-49.9023 55.8105-53.3203 49.8047-53.3203C43.75-53.3203 39.8438-49.9023 39.209-46.0449C39.1113-45.5566 39.0137-45.0195 39.0137-44.4824C39.0137-43.5059 39.7461-42.9688 40.5762-42.9688C41.6992-42.9688 42.0898-43.6035 42.4805-44.4824C43.1152-47.8027 45.6543-50.3906 49.6582-50.3906C54.0527-50.3906 56.8359-47.998 56.8359-44.6289C56.8359-41.9922 55.4688-40.4297 51.8066-37.8906C48.6816-35.6934 47.2656-33.7402 47.2656-30.5176L47.2656-29.2969C47.2656-28.2227 47.9004-27.5879 48.9258-27.5879ZM48.877-17.1387C50.4883-17.1387 51.8555-18.5059 51.8555-20.0684C51.8555-21.6797 50.4883-22.998 48.877-22.998C47.2168-22.998 45.8984-21.6797 45.8984-20.0684C45.8984-18.5059 47.2168-17.1387 48.877-17.1387Z"/>
  </g>
  <g id="Ultralight-S" transform="matrix(1 0 0 1 510.712 696)">
   <path d="M11.3281-28.1738L41.9434 2.49023C46.6309 7.12891 51.5625 7.03125 56.1035 2.49023L86.6699-28.1738C91.2598-32.7637 91.4062-37.6953 86.7676-42.334L56.1523-72.9492C51.4648-77.6367 46.6309-77.5391 41.9922-72.9004L11.2793-42.334C6.64062-37.6465 6.64062-32.8125 11.3281-28.1738ZM12.8418-29.6387C9.17969-33.252 9.22852-37.1582 12.8418-40.7715L43.4082-71.3379C47.0703-75 50.9277-75 54.5898-71.3379L85.0586-40.8203C88.623-37.2559 88.7695-33.252 85.1074-29.6387L54.5898 0.878906C50.9277 4.54102 46.9727 4.44336 43.4082 0.878906ZM48.3398-27.6855C48.9746-27.6855 49.4141-28.1738 49.4141-28.8574L49.4141-30.1758C49.4141-32.666 50.4883-34.1309 53.5645-36.2305C57.6172-39.0137 59.082-41.2598 59.082-44.7266C59.082-49.3652 54.9316-52.7832 49.0723-52.7832C43.2129-52.7832 39.502-49.2188 39.0137-45.2148C38.9648-44.7754 38.916-44.2871 38.916-43.7988C38.916-43.1152 39.4043-42.6758 40.0391-42.6758C40.7227-42.6758 41.1133-43.1152 41.2598-43.7988C41.6016-47.5586 44.4336-50.6836 48.9746-50.6836C53.7109-50.6836 56.7383-48.0957 56.7383-44.5801C56.7383-41.9434 55.4199-40.2344 51.6602-37.5977C48.3887-35.3516 47.168-33.3984 47.168-30.3711L47.168-28.8574C47.168-28.125 47.6562-27.6855 48.3398-27.6855ZM48.291-17.627C49.707-17.627 50.8301-18.8477 50.8301-20.166C50.8301-21.5332 49.707-22.7051 48.291-22.7051C46.875-22.7051 45.752-21.5332 45.752-20.166C45.752-18.8477 46.875-17.627 48.291-17.627Z"/>
  </g>
 </g>
</svg>
