<?xml version="1.0" encoding="UTF-8"?>
<!--Generator: Apple Native CoreSVG 129-->
<!DOCTYPE svg
PUBLIC "-//W3C//DTD SVG 1.1//EN"
       "http://www.w3.org/Graphics/SVG/1.1/DTD/svg11.dtd">
<svg version="1.1" xmlns="http://www.w3.org/2000/svg" xmlns:xlink="http://www.w3.org/1999/xlink" width="3300" height="2200">
 <!--glyph: "uni100139.medium", point size: 100.000000, font version: "Version 16.0d9e1", template writer version: "8"-->
 <g id="Notes">
  <rect height="2200" id="artboard" style="fill:white;opacity:1" width="3300" x="0" y="0"/>
  <line id="" style="fill:none;stroke:black;opacity:1;stroke-width:0.5;" x1="263" x2="3036" y1="292" y2="292"/>
  <text style="stroke:none;fill:black;font-family:-apple-system,&quot;SF Pro Display&quot;,&quot;SF Pro Text&quot;,Helvetica,sans-serif;font-weight:bold;" transform="matrix(1 0 0 1 263 322)">Weight/Scale Variations</text>
  <text style="stroke:none;fill:black;font-family:-apple-system,&quot;SF Pro Display&quot;,&quot;SF Pro Text&quot;,Helvetica,sans-serif;text-anchor:middle;" transform="matrix(1 0 0 1 559.711 322)">Ultralight</text>
  <text style="stroke:none;fill:black;font-family:-apple-system,&quot;SF Pro Display&quot;,&quot;SF Pro Text&quot;,Helvetica,sans-serif;text-anchor:middle;" transform="matrix(1 0 0 1 856.422 322)">Thin</text>
  <text style="stroke:none;fill:black;font-family:-apple-system,&quot;SF Pro Display&quot;,&quot;SF Pro Text&quot;,Helvetica,sans-serif;text-anchor:middle;" transform="matrix(1 0 0 1 1153.13 322)">Light</text>
  <text style="stroke:none;fill:black;font-family:-apple-system,&quot;SF Pro Display&quot;,&quot;SF Pro Text&quot;,Helvetica,sans-serif;text-anchor:middle;" transform="matrix(1 0 0 1 1449.84 322)">Regular</text>
  <text style="stroke:none;fill:black;font-family:-apple-system,&quot;SF Pro Display&quot;,&quot;SF Pro Text&quot;,Helvetica,sans-serif;text-anchor:middle;" transform="matrix(1 0 0 1 1746.56 322)">Medium</text>
  <text style="stroke:none;fill:black;font-family:-apple-system,&quot;SF Pro Display&quot;,&quot;SF Pro Text&quot;,Helvetica,sans-serif;text-anchor:middle;" transform="matrix(1 0 0 1 2043.27 322)">Semibold</text>
  <text style="stroke:none;fill:black;font-family:-apple-system,&quot;SF Pro Display&quot;,&quot;SF Pro Text&quot;,Helvetica,sans-serif;text-anchor:middle;" transform="matrix(1 0 0 1 2339.98 322)">Bold</text>
  <text style="stroke:none;fill:black;font-family:-apple-system,&quot;SF Pro Display&quot;,&quot;SF Pro Text&quot;,Helvetica,sans-serif;text-anchor:middle;" transform="matrix(1 0 0 1 2636.69 322)">Heavy</text>
  <text style="stroke:none;fill:black;font-family:-apple-system,&quot;SF Pro Display&quot;,&quot;SF Pro Text&quot;,Helvetica,sans-serif;text-anchor:middle;" transform="matrix(1 0 0 1 2933.4 322)">Black</text>
  <line id="" style="fill:none;stroke:black;opacity:1;stroke-width:0.5;" x1="263" x2="3036" y1="1903" y2="1903"/>
  <g id="" transform="matrix(1 0 0 1 263 1933)">
   <path d="M 9.24805 0.830078 C 13.5547 0.830078 17.1387 -2.74414 17.1387 -7.05078 C 17.1387 -11.3574 13.5449 -14.9316 9.23828 -14.9316 C 4.94141 -14.9316 1.36719 -11.3574 1.36719 -7.05078 C 1.36719 -2.74414 4.95117 0.830078 9.24805 0.830078 Z M 9.24805 -0.654297 C 5.70312 -0.654297 2.87109 -3.49609 2.87109 -7.05078 C 2.87109 -10.6055 5.69336 -13.4473 9.23828 -13.4473 C 12.793 -13.4473 15.6348 -10.6055 15.6445 -7.05078 C 15.6543 -3.49609 12.8027 -0.654297 9.24805 -0.654297 Z M 9.22852 -3.62305 C 9.69727 -3.62305 9.9707 -3.93555 9.9707 -4.45312 L 9.9707 -6.31836 L 12.002 -6.31836 C 12.5 -6.31836 12.832 -6.57227 12.832 -7.04102 C 12.832 -7.51953 12.5195 -7.7832 12.002 -7.7832 L 9.9707 -7.7832 L 9.9707 -9.81445 C 9.9707 -10.332 9.69727 -10.6543 9.22852 -10.6543 C 8.75977 -10.6543 8.50586 -10.3125 8.50586 -9.81445 L 8.50586 -7.7832 L 6.49414 -7.7832 C 5.97656 -7.7832 5.64453 -7.51953 5.64453 -7.04102 C 5.64453 -6.57227 5.99609 -6.31836 6.49414 -6.31836 L 8.50586 -6.31836 L 8.50586 -4.45312 C 8.50586 -3.95508 8.75977 -3.62305 9.22852 -3.62305 Z"/>
  </g>
  <g id="" transform="matrix(1 0 0 1 281.506 1933)">
   <path d="M 11.709 2.91016 C 17.1582 2.91016 21.6699 -1.61133 21.6699 -7.05078 C 21.6699 -12.5 17.1484 -17.0117 11.6992 -17.0117 C 6.25977 -17.0117 1.74805 -12.5 1.74805 -7.05078 C 1.74805 -1.61133 6.26953 2.91016 11.709 2.91016 Z M 11.709 1.25 C 7.09961 1.25 3.41797 -2.44141 3.41797 -7.05078 C 3.41797 -11.6602 7.08984 -15.3516 11.6992 -15.3516 C 16.3086 -15.3516 20 -11.6602 20.0098 -7.05078 C 20.0195 -2.44141 16.3184 1.25 11.709 1.25 Z M 11.6797 -2.66602 C 12.207 -2.66602 12.5098 -3.01758 12.5098 -3.59375 L 12.5098 -6.23047 L 15.3223 -6.23047 C 15.8691 -6.23047 16.25 -6.51367 16.25 -7.03125 C 16.25 -7.55859 15.8887 -7.86133 15.3223 -7.86133 L 12.5098 -7.86133 L 12.5098 -10.6836 C 12.5098 -11.25 12.207 -11.6113 11.6797 -11.6113 C 11.1621 -11.6113 10.8789 -11.2305 10.8789 -10.6836 L 10.8789 -7.86133 L 8.07617 -7.86133 C 7.50977 -7.86133 7.13867 -7.55859 7.13867 -7.03125 C 7.13867 -6.51367 7.5293 -6.23047 8.07617 -6.23047 L 10.8789 -6.23047 L 10.8789 -3.59375 C 10.8789 -3.03711 11.1621 -2.66602 11.6797 -2.66602 Z"/>
  </g>
  <g id="" transform="matrix(1 0 0 1 304.924 1933)">
   <path d="M 14.9707 5.66406 C 21.9336 5.66406 27.6953 -0.0976562 27.6953 -7.05078 C 27.6953 -14.0137 21.9238 -19.7754 14.9609 -19.7754 C 8.00781 -19.7754 2.25586 -14.0137 2.25586 -7.05078 C 2.25586 -0.0976562 8.01758 5.66406 14.9707 5.66406 Z M 14.9707 3.84766 C 8.93555 3.84766 4.08203 -1.01562 4.08203 -7.05078 C 4.08203 -13.0957 8.92578 -17.9492 14.9609 -17.9492 C 21.0059 -17.9492 25.8594 -13.0957 25.8691 -7.05078 C 25.8789 -1.01562 21.0156 3.84766 14.9707 3.84766 Z M 14.9414 -1.38672 C 15.5176 -1.38672 15.8594 -1.77734 15.8594 -2.38281 L 15.8594 -6.13281 L 19.7754 -6.13281 C 20.3711 -6.13281 20.7812 -6.46484 20.7812 -7.02148 C 20.7812 -7.59766 20.3906 -7.93945 19.7754 -7.93945 L 15.8594 -7.93945 L 15.8594 -11.8652 C 15.8594 -12.4805 15.5176 -12.8711 14.9414 -12.8711 C 14.375 -12.8711 14.0527 -12.4609 14.0527 -11.8652 L 14.0527 -7.93945 L 10.1465 -7.93945 C 9.53125 -7.93945 9.13086 -7.59766 9.13086 -7.02148 C 9.13086 -6.46484 9.55078 -6.13281 10.1465 -6.13281 L 14.0527 -6.13281 L 14.0527 -2.38281 C 14.0527 -1.79688 14.375 -1.38672 14.9414 -1.38672 Z"/>
  </g>
  <text style="stroke:none;fill:black;font-family:-apple-system,&quot;SF Pro Display&quot;,&quot;SF Pro Text&quot;,Helvetica,sans-serif;font-weight:bold;" transform="matrix(1 0 0 1 263 1953)">Design Variations</text>
  <text style="stroke:none;fill:black;font-family:-apple-system,&quot;SF Pro Display&quot;,&quot;SF Pro Text&quot;,Helvetica,sans-serif;" transform="matrix(1 0 0 1 263 1971)">Symbols are supported in up to nine weights and three scales.</text>
  <text style="stroke:none;fill:black;font-family:-apple-system,&quot;SF Pro Display&quot;,&quot;SF Pro Text&quot;,Helvetica,sans-serif;" transform="matrix(1 0 0 1 263 1989)">For optimal layout with text and other symbols, vertically align</text>
  <text style="stroke:none;fill:black;font-family:-apple-system,&quot;SF Pro Display&quot;,&quot;SF Pro Text&quot;,Helvetica,sans-serif;" transform="matrix(1 0 0 1 263 2007)">symbols with the adjacent text.</text>
  <line id="" style="fill:none;stroke:#00AEEF;stroke-width:0.5;opacity:1.0;" x1="776" x2="776" y1="1919" y2="1933"/>
  <g id="" transform="matrix(1 0 0 1 776 1933)">
   <path d="M 3.31055 0.126953 C 3.82812 0.126953 4.08203 -0.0683594 4.26758 -0.605469 L 5.52734 -4.0625 L 11.2891 -4.0625 L 12.5488 -0.605469 C 12.7344 -0.0683594 12.9883 0.126953 13.4961 0.126953 C 14.0137 0.126953 14.3457 -0.185547 14.3457 -0.673828 C 14.3457 -0.839844 14.3164 -0.986328 14.2383 -1.20117 L 9.6582 -13.3887 C 9.43359 -13.9941 9.0332 -14.2871 8.4082 -14.2871 C 7.80273 -14.2871 7.39258 -13.9941 7.17773 -13.3984 L 2.59766 -1.19141 C 2.51953 -0.976562 2.49023 -0.830078 2.49023 -0.664062 C 2.49023 -0.175781 2.80273 0.126953 3.31055 0.126953 Z M 6.00586 -5.53711 L 8.37891 -12.1094 L 8.42773 -12.1094 L 10.8008 -5.53711 Z"/>
  </g>
  <line id="" style="fill:none;stroke:#00AEEF;stroke-width:0.5;opacity:1.0;" x1="792.836" x2="792.836" y1="1919" y2="1933"/>
  <text style="stroke:none;fill:black;font-family:-apple-system,&quot;SF Pro Display&quot;,&quot;SF Pro Text&quot;,Helvetica,sans-serif;font-weight:bold;" transform="matrix(1 0 0 1 776 1953)">Margins</text>
  <text style="stroke:none;fill:black;font-family:-apple-system,&quot;SF Pro Display&quot;,&quot;SF Pro Text&quot;,Helvetica,sans-serif;" transform="matrix(1 0 0 1 776 1971)">Leading and trailing margins on the left and right side of each symbol</text>
  <text style="stroke:none;fill:black;font-family:-apple-system,&quot;SF Pro Display&quot;,&quot;SF Pro Text&quot;,Helvetica,sans-serif;" transform="matrix(1 0 0 1 776 1989)">can be adjusted by modifying the x-location of the margin guidelines.</text>
  <text style="stroke:none;fill:black;font-family:-apple-system,&quot;SF Pro Display&quot;,&quot;SF Pro Text&quot;,Helvetica,sans-serif;" transform="matrix(1 0 0 1 776 2007)">Modifications are automatically applied proportionally to all</text>
  <text style="stroke:none;fill:black;font-family:-apple-system,&quot;SF Pro Display&quot;,&quot;SF Pro Text&quot;,Helvetica,sans-serif;" transform="matrix(1 0 0 1 776 2025)">scales and weights.</text>
  <g id="" transform="matrix(1 0 0 1 1289 1933)">
   <path d="M 2.8418 1.86523 L 4.54102 3.57422 C 5.40039 4.44336 6.38672 4.38477 7.31445 3.35938 L 17.4902 -7.85156 C 17.7539 -7.76367 18.0273 -7.7832 18.3398 -7.8418 L 19.4043 -8.03711 L 20.0684 -7.36328 L 20.0293 -6.80664 C 19.9902 -6.30859 20.1172 -5.92773 20.6055 -5.44922 L 21.3672 -4.70703 C 21.8457 -4.22852 22.4609 -4.19922 22.9297 -4.66797 L 25.8398 -7.58789 C 26.3086 -8.05664 26.2891 -8.65234 25.8105 -9.13086 L 25.0391 -9.89258 C 24.5605 -10.3711 24.1895 -10.5273 23.7109 -10.4883 L 23.1348 -10.4395 L 22.4902 -11.0742 L 22.7344 -12.1973 C 22.8613 -12.7637 22.7051 -13.2031 22.1191 -13.7891 L 19.9219 -15.9766 C 16.582 -19.2969 12.1484 -19.2188 9.25781 -16.3281 C 8.83789 -15.918 8.80859 -15.3418 9.04297 -14.9512 C 9.27734 -14.5898 9.73633 -14.3555 10.3809 -14.5215 C 11.8457 -14.8633 13.3691 -14.9219 14.7949 -13.9844 L 14.209 -12.5293 C 14.0137 -12.0508 13.9844 -11.6504 14.1113 -11.2891 L 3.04688 -0.898438 C 2.06055 0.0195312 1.98242 0.996094 2.8418 1.86523 Z M 10.752 -15.957 C 13.1836 -17.7344 16.4746 -17.4316 18.7012 -15.2051 L 21.1328 -12.793 C 21.3672 -12.5586 21.4062 -12.373 21.3379 -12.0312 L 21.0156 -10.5469 L 22.5195 -9.0625 L 23.5059 -9.12109 C 23.7598 -9.13086 23.8379 -9.11133 24.0332 -8.91602 L 24.6094 -8.33984 L 22.168 -5.89844 L 21.5918 -6.47461 C 21.3965 -6.66992 21.3672 -6.74805 21.377 -7.01172 L 21.4453 -7.98828 L 19.9512 -9.47266 L 18.4277 -9.21875 C 18.1055 -9.15039 17.959 -9.17969 17.7148 -9.41406 L 15.7129 -11.416 C 15.459 -11.6504 15.4297 -11.8164 15.5859 -12.1875 L 16.4648 -14.2773 C 14.9023 -15.7324 12.8711 -16.3574 10.8398 -15.7617 C 10.6836 -15.7227 10.625 -15.8496 10.752 -15.957 Z M 5.27344 2.30469 L 4.10156 1.14258 C 3.63281 0.683594 3.74023 0.341797 4.14062 -0.0195312 L 14.9512 -10.1953 L 16.416 -8.71094 L 6.42578 2.27539 C 6.07422 2.67578 5.74219 2.77344 5.27344 2.30469 Z"/>
  </g>
  <text style="stroke:none;fill:black;font-family:-apple-system,&quot;SF Pro Display&quot;,&quot;SF Pro Text&quot;,Helvetica,sans-serif;font-weight:bold;" transform="matrix(1 0 0 1 1289 1953)">Exporting</text>
  <text style="stroke:none;fill:black;font-family:-apple-system,&quot;SF Pro Display&quot;,&quot;SF Pro Text&quot;,Helvetica,sans-serif;" transform="matrix(1 0 0 1 1289 1971)">Symbols should be outlined when exporting to ensure the</text>
  <text style="stroke:none;fill:black;font-family:-apple-system,&quot;SF Pro Display&quot;,&quot;SF Pro Text&quot;,Helvetica,sans-serif;" transform="matrix(1 0 0 1 1289 1989)">design is preserved when submitting to Xcode.</text>
  <text id="template-version" style="stroke:none;fill:black;font-family:-apple-system,&quot;SF Pro Display&quot;,&quot;SF Pro Text&quot;,Helvetica,sans-serif;text-anchor:end;" transform="matrix(1 0 0 1 3036 1933)">Template v.2.0</text>
  <text style="stroke:none;fill:black;font-family:-apple-system,&quot;SF Pro Display&quot;,&quot;SF Pro Text&quot;,Helvetica,sans-serif;text-anchor:end;" transform="matrix(1 0 0 1 3036 1951)">Requires Xcode 12 or greater</text>
  <text style="stroke:none;fill:black;font-family:-apple-system,&quot;SF Pro Display&quot;,&quot;SF Pro Text&quot;,Helvetica,sans-serif;text-anchor:end;" transform="matrix(1 0 0 1 3036 1969)">Generated from arrow.turn.up.right</text>
  <text style="stroke:none;fill:black;font-family:-apple-system,&quot;SF Pro Display&quot;,&quot;SF Pro Text&quot;,Helvetica,sans-serif;text-anchor:end;" transform="matrix(1 0 0 1 3036 1987)">Typeset at 100 points</text>
  <text style="stroke:none;fill:black;font-family:-apple-system,&quot;SF Pro Display&quot;,&quot;SF Pro Text&quot;,Helvetica,sans-serif;" transform="matrix(1 0 0 1 263 726)">Small</text>
  <text style="stroke:none;fill:black;font-family:-apple-system,&quot;SF Pro Display&quot;,&quot;SF Pro Text&quot;,Helvetica,sans-serif;" transform="matrix(1 0 0 1 263 1156)">Medium</text>
  <text style="stroke:none;fill:black;font-family:-apple-system,&quot;SF Pro Display&quot;,&quot;SF Pro Text&quot;,Helvetica,sans-serif;" transform="matrix(1 0 0 1 263 1586)">Large</text>
 </g>
 <g id="Guides">
  <g id="H-reference" style="fill:#27AAE1;stroke:none;" transform="matrix(1 0 0 1 339 696)">
   <path d="M 0.976562 0 L 3.66211 0 L 12.9883 -24.4629 L 45.7031 -24.4629 L 55.0781 0 L 57.7148 0 L 30.6152 -70.459 L 28.125 -70.459 Z M 29.2969 -67.1387 L 29.3945 -67.1387 L 44.873 -26.709 L 13.8672 -26.709 Z"/>
  </g>
  <line id="Baseline-S" style="fill:none;stroke:#27AAE1;opacity:1;stroke-width:0.5;" x1="263" x2="3036" y1="696" y2="696"/>
  <line id="Capline-S" style="fill:none;stroke:#27AAE1;opacity:1;stroke-width:0.5;" x1="263" x2="3036" y1="625.541" y2="625.541"/>
  <g id="H-reference" style="fill:#27AAE1;stroke:none;" transform="matrix(1 0 0 1 339 1126)">
   <path d="M 0.976562 0 L 3.66211 0 L 12.9883 -24.4629 L 45.7031 -24.4629 L 55.0781 0 L 57.7148 0 L 30.6152 -70.459 L 28.125 -70.459 Z M 29.2969 -67.1387 L 29.3945 -67.1387 L 44.873 -26.709 L 13.8672 -26.709 Z"/>
  </g>
  <line id="Baseline-M" style="fill:none;stroke:#27AAE1;opacity:1;stroke-width:0.5;" x1="263" x2="3036" y1="1126" y2="1126"/>
  <line id="Capline-M" style="fill:none;stroke:#27AAE1;opacity:1;stroke-width:0.5;" x1="263" x2="3036" y1="1055.54" y2="1055.54"/>
  <g id="H-reference" style="fill:#27AAE1;stroke:none;" transform="matrix(1 0 0 1 339 1556)">
   <path d="M 0.976562 0 L 3.66211 0 L 12.9883 -24.4629 L 45.7031 -24.4629 L 55.0781 0 L 57.7148 0 L 30.6152 -70.459 L 28.125 -70.459 Z M 29.2969 -67.1387 L 29.3945 -67.1387 L 44.873 -26.709 L 13.8672 -26.709 Z"/>
  </g>
  <line id="Baseline-L" style="fill:none;stroke:#27AAE1;opacity:1;stroke-width:0.5;" x1="263" x2="3036" y1="1556" y2="1556"/>
  <line id="Capline-L" style="fill:none;stroke:#27AAE1;opacity:1;stroke-width:0.5;" x1="263" x2="3036" y1="1485.54" y2="1485.54"/>
  <line id="left-margin" style="fill:none;stroke:#00AEEF;stroke-width:0.5;opacity:1.0;" x1="1391.57" x2="1391.57" y1="1030.79" y2="1150.12"/>
  <line id="right-margin" style="fill:none;stroke:#00AEEF;stroke-width:0.5;opacity:1.0;" x1="1508.12" x2="1508.12" y1="1030.79" y2="1150.12"/>
 </g>
 <g id="Symbols">
  <g id="Black-L" transform="matrix(1 0 0 1 2856.59 1556)">
   <path d="M 28.5645 17.8223 C 35.2051 17.8223 39.4043 13.3301 39.4043 6.5918 C 39.4043 3.56445 39.0137 -0.292969 39.0137 -5.27344 C 39.0137 -18.8965 44.043 -24.3164 57.5684 -24.3164 L 88.7207 -24.3164 L 102.539 -25.1953 L 91.5527 -15.625 L 78.2715 -2.39258 C 76.123 -0.292969 74.5117 2.29492 74.5117 5.81055 C 74.5117 11.9141 79.0039 16.6016 85.791 16.6016 C 88.4766 16.6016 91.3574 15.332 93.7012 13.0371 L 134.18 -27.3438 C 136.23 -29.3945 137.549 -32.666 137.549 -35.7422 C 137.549 -38.8184 136.23 -42.0898 134.18 -44.1406 L 93.7012 -84.5703 C 91.3574 -86.9141 88.4766 -88.1348 85.791 -88.1348 C 79.0039 -88.1348 74.5117 -83.4473 74.5117 -77.3438 C 74.5117 -73.8281 76.123 -71.2402 78.2715 -69.1406 L 91.5527 -55.8594 L 102.49 -46.3379 L 88.7207 -47.168 L 55.6152 -47.168 C 28.6133 -47.168 16.0645 -32.4219 16.0645 -5.27344 C 16.0645 -1.66016 16.2109 2.05078 16.9434 6.54297 C 17.7246 11.4746 20.8984 17.8223 28.5645 17.8223 Z"/>
  </g>
  <g id="Heavy-L" transform="matrix(1 0 0 1 2560.3 1556)">
   <path d="M 26.8066 16.748 C 32.5195 16.748 36.2305 12.8906 36.2305 7.08008 C 36.2305 4.29688 35.8887 0.830078 35.8887 -3.75977 C 35.8887 -19.7266 41.7969 -26.123 57.6172 -26.123 L 92.4805 -26.123 L 106.592 -27.002 L 93.6035 -15.3809 L 79.4434 -1.2207 C 77.6367 0.537109 76.3184 2.83203 76.3184 5.81055 C 76.3184 11.1328 80.1758 15.1367 86.0352 15.1367 C 88.3789 15.1367 90.8203 14.1113 92.8711 12.0605 L 133.74 -28.7109 C 135.596 -30.5176 136.719 -33.3496 136.719 -35.9863 C 136.719 -38.6719 135.596 -41.4551 133.74 -43.2617 L 92.9199 -84.082 C 90.8203 -86.1328 88.3789 -87.207 86.0352 -87.207 C 80.1758 -87.207 76.3184 -83.1543 76.3184 -77.8809 C 76.3184 -74.8535 77.5879 -72.6074 79.4434 -70.8008 L 93.6035 -56.6406 L 106.592 -45.0684 L 92.4805 -45.8496 L 56.0059 -45.8496 C 28.5645 -45.8496 16.0645 -31.5918 16.0645 -3.85742 C 16.0645 -0.244141 16.2109 3.36914 16.8457 7.17773 C 17.5293 11.4746 20.2637 16.748 26.8066 16.748 Z"/>
  </g>
  <g id="Bold-L" transform="matrix(1 0 0 1 2264.05 1556)">
   <path d="M 24.8535 15.5762 C 29.541 15.5762 32.6172 12.3535 32.6172 7.56836 C 32.6172 5.07812 32.373 2.09961 32.373 -2.05078 C 32.373 -20.6543 39.2578 -28.1738 57.666 -28.1738 L 96.6309 -28.1738 L 111.182 -29.0039 L 95.8984 -15.1367 L 80.8105 0.0488281 C 79.2969 1.51367 78.2715 3.41797 78.2715 5.85938 C 78.2715 10.2051 81.543 13.5254 86.2305 13.5254 C 88.2324 13.5254 90.2344 12.6953 91.9434 11.0352 L 133.252 -30.2734 C 134.863 -31.8359 135.791 -34.082 135.791 -36.2793 C 135.791 -38.4766 134.863 -40.7715 133.252 -42.2852 L 92.0898 -83.4961 C 90.2344 -85.3027 88.2324 -86.1328 86.2305 -86.1328 C 81.543 -86.1328 78.2715 -82.8125 78.2715 -78.4668 C 78.2715 -76.0254 79.2969 -74.1211 80.8105 -72.6562 L 95.8984 -57.4707 L 111.133 -43.6035 L 96.6309 -44.3848 L 56.4941 -44.3848 C 28.4668 -44.3848 16.0645 -30.7129 16.0645 -2.29492 C 16.0645 1.36719 16.2109 4.78516 16.748 7.91016 C 17.334 11.4746 19.5801 15.5762 24.8535 15.5762 Z"/>
  </g>
  <g id="Semibold-L" transform="matrix(1 0 0 1 1967.66 1556)">
   <path d="M 23.4863 14.7461 C 27.4902 14.7461 30.1758 12.0117 30.1758 7.95898 C 30.1758 5.66406 29.9316 2.92969 29.9316 -0.878906 C 29.9316 -21.2891 37.5488 -29.5898 57.7148 -29.5898 L 99.5117 -29.5898 L 114.307 -30.4199 L 97.4609 -14.9414 L 81.7383 0.927734 C 80.4688 2.19727 79.6387 3.85742 79.6387 5.85938 C 79.6387 9.61914 82.4707 12.4512 86.4258 12.4512 C 88.1348 12.4512 89.8438 11.7188 91.3086 10.3027 L 132.959 -31.3477 C 134.375 -32.7148 135.156 -34.6191 135.156 -36.4746 C 135.156 -38.3789 134.375 -40.2344 132.959 -41.6504 L 91.5039 -83.1055 C 89.8438 -84.7168 88.1348 -85.4004 86.4258 -85.4004 C 82.4707 -85.4004 79.6387 -82.6172 79.6387 -78.8574 C 79.6387 -76.8555 80.4688 -75.1953 81.7383 -73.9258 L 97.4609 -58.0078 L 114.307 -42.627 L 99.5117 -43.3594 L 56.7871 -43.3594 C 28.418 -43.3594 16.0645 -30.0781 16.0645 -1.2207 C 16.0645 2.44141 16.1621 5.81055 16.6504 8.39844 C 17.1875 11.4746 19.0918 14.7461 23.4863 14.7461 Z"/>
  </g>
  <g id="Medium-L" transform="matrix(1 0 0 1 1671.19 1556)">
   <path d="M 22.4609 14.1113 C 25.9277 14.1113 28.3203 11.7188 28.3203 8.20312 C 28.3203 6.10352 28.125 3.61328 28.125 0 C 28.125 -21.7773 36.2305 -30.6641 57.7637 -30.6641 L 101.709 -30.6641 L 116.699 -31.4453 L 98.6816 -14.7949 L 82.4219 1.61133 C 81.3477 2.68555 80.6641 4.19922 80.6641 5.85938 C 80.6641 9.13086 83.1543 11.5723 86.5234 11.5723 C 88.0859 11.5723 89.502 10.9863 90.8203 9.76562 L 132.715 -32.1289 C 133.984 -33.3984 134.668 -35.0098 134.668 -36.6211 C 134.668 -38.2812 133.984 -39.8926 132.715 -41.1133 L 91.0645 -82.8125 C 89.5508 -84.2285 88.0859 -84.8633 86.5234 -84.8633 C 83.1543 -84.8633 80.6641 -82.4219 80.6641 -79.1504 C 80.6641 -77.4414 81.2988 -75.9766 82.4219 -74.9023 L 98.6816 -58.4473 L 116.65 -41.8457 L 101.709 -42.5781 L 57.0312 -42.5781 C 28.3691 -42.5781 16.0645 -29.5898 16.0645 -0.390625 C 16.0645 3.27148 16.1621 6.54297 16.6016 8.78906 C 17.0898 11.4746 18.75 14.1113 22.4609 14.1113 Z"/>
  </g>
  <g id="Regular-L" transform="matrix(1 0 0 1 1374.77 1556)">
   <path d="M 21.0938 13.3301 C 23.877 13.3301 25.8789 11.377 25.8789 8.54492 C 25.8789 6.64062 25.6836 4.44336 25.6836 1.17188 C 25.6836 -22.4121 34.4727 -32.0801 57.8125 -32.0801 L 104.541 -32.0801 L 119.824 -32.8125 L 100.244 -14.6484 L 83.3496 2.49023 C 82.5195 3.32031 82.0312 4.58984 82.0312 5.85938 C 82.0312 8.54492 84.082 10.498 86.7188 10.498 C 87.9883 10.498 89.1113 10.0586 90.1855 9.0332 L 132.373 -33.2031 C 133.496 -34.2773 134.082 -35.498 134.082 -36.8164 C 134.082 -38.1348 133.496 -39.4043 132.373 -40.4785 L 90.4785 -82.4219 C 89.1602 -83.6914 87.9883 -84.1797 86.7188 -84.1797 C 84.082 -84.1797 82.0312 -82.1777 82.0312 -79.541 C 82.0312 -78.2715 82.4707 -77.002 83.3496 -76.1719 L 100.244 -59.0332 L 119.775 -40.8691 L 104.541 -41.6016 L 57.373 -41.6016 C 28.3203 -41.6016 16.0645 -28.9551 16.0645 0.683594 C 16.0645 4.3457 16.1621 7.56836 16.5039 9.27734 C 16.9922 11.4746 18.2617 13.3301 21.0938 13.3301 Z"/>
  </g>
  <g id="Light-L" transform="matrix(1 0 0 1 1078.26 1556)">
   <path d="M 19.873 11.5723 C 21.9727 11.5723 23.4863 10.1074 23.4863 8.00781 C 23.4863 6.54297 23.291 4.15039 23.291 0.488281 C 23.291 -23.4863 33.0078 -33.252 56.5918 -33.252 L 107.764 -33.252 L 122.754 -33.7891 L 105.469 -17.2852 L 84.5703 3.75977 C 83.9355 4.39453 83.5449 5.37109 83.5449 6.34766 C 83.5449 8.34961 85.1074 9.81445 87.1094 9.81445 C 88.0859 9.81445 88.9648 9.47266 89.7461 8.74023 L 132.422 -34.082 C 133.301 -34.9121 133.691 -35.8398 133.691 -36.8652 C 133.691 -37.8418 133.301 -38.7695 132.422 -39.6484 L 90.1855 -81.9824 C 89.0137 -83.1543 88.0859 -83.5449 87.1094 -83.5449 C 85.1074 -83.5449 83.5449 -82.0312 83.5449 -80.0293 C 83.5449 -79.0527 83.8867 -78.125 84.5703 -77.4902 L 105.469 -56.3965 L 122.754 -39.9414 L 107.764 -40.4297 L 56.2988 -40.4297 C 28.3691 -40.4297 16.0645 -28.4668 16.0645 0.0976562 C 16.0645 3.75977 16.1133 6.98242 16.4062 8.39844 C 16.748 10.1562 17.7246 11.5723 19.873 11.5723 Z"/>
  </g>
  <g id="Thin-L" transform="matrix(1 0 0 1 781.788 1556)">
   <path d="M 18.2617 9.32617 C 19.4824 9.32617 20.2637 8.44727 20.2637 7.22656 C 20.2637 6.34766 20.1172 3.71094 20.1172 -0.439453 C 20.1172 -24.9023 31.0547 -34.8633 54.9316 -34.8633 L 112.012 -34.8633 L 126.66 -35.0098 L 112.354 -20.8496 L 86.1816 5.46875 C 85.8398 5.76172 85.5957 6.34766 85.5957 6.93359 C 85.5957 8.05664 86.4746 8.93555 87.6465 8.93555 C 88.2324 8.93555 88.7207 8.74023 89.1602 8.34961 L 132.422 -35.2051 C 133.008 -35.791 133.203 -36.2793 133.203 -36.8652 C 133.203 -37.4512 133.008 -37.9883 132.422 -38.5254 L 89.8438 -81.3965 C 88.8184 -82.4219 88.2324 -82.7148 87.6465 -82.7148 C 86.4746 -82.7148 85.5957 -81.7871 85.5957 -80.7129 C 85.5957 -80.127 85.791 -79.5898 86.1816 -79.1992 L 112.354 -52.9297 L 126.66 -38.7207 L 112.012 -38.916 L 54.8828 -38.916 C 28.418 -38.916 16.0645 -27.7832 16.0645 -0.732422 C 16.0645 2.92969 16.0645 6.25 16.2598 7.32422 C 16.4551 8.44727 16.9922 9.32617 18.2617 9.32617 Z"/>
  </g>
  <g id="Ultralight-L" transform="matrix(1 0 0 1 485.199 1556)">
   <path d="M 17.4316 8.1543 C 18.1641 8.1543 18.6523 7.56836 18.6523 6.83594 C 18.6523 6.25 18.5059 3.4668 18.5059 -0.927734 C 18.5059 -25.6348 30.0781 -35.6445 54.1016 -35.6445 L 128.662 -35.6445 L 115.869 -22.6074 L 87.0117 6.29883 C 86.8164 6.49414 86.6211 6.88477 86.6211 7.27539 C 86.6211 7.91016 87.1582 8.49609 87.9395 8.49609 C 88.3301 8.49609 88.623 8.39844 88.8672 8.1543 L 132.422 -35.791 C 132.861 -36.1816 132.959 -36.5234 132.959 -36.8652 C 132.959 -37.2559 132.861 -37.5488 132.422 -37.9883 L 89.6484 -81.1523 C 88.7207 -82.0801 88.3301 -82.2754 87.9395 -82.2754 C 87.1582 -82.2754 86.6211 -81.6895 86.6211 -81.0547 C 86.6211 -80.6641 86.7188 -80.3223 87.0117 -80.0781 L 115.869 -51.123 L 128.662 -38.0859 L 54.1504 -38.0859 C 28.4668 -38.0859 16.0645 -27.4902 16.0645 -1.12305 C 16.0645 2.49023 16.0645 5.9082 16.2109 6.73828 C 16.3086 7.56836 16.6016 8.1543 17.4316 8.1543 Z"/>
  </g>
  <g id="Black-M" transform="matrix(1 0 0 1 2873.41 1126)">
   <path d="M 23.877 6.39648 C 29.8828 6.39648 33.5938 2.39258 33.5938 -3.75977 C 33.5938 -6.25 33.2031 -9.86328 33.2031 -14.4531 C 33.2031 -22.0215 36.377 -24.9512 43.8477 -24.9512 L 65.4785 -24.9512 L 75.4883 -25.4883 L 70.9961 -21.7773 L 59.668 -10.6445 C 57.7148 -8.74023 56.2012 -6.49414 56.2012 -3.22266 C 56.2012 2.29492 60.1562 6.49414 66.4062 6.49414 C 68.7988 6.49414 71.3867 5.37109 73.4863 3.27148 L 104.541 -27.7344 C 106.299 -29.4922 107.52 -32.5195 107.52 -35.3027 C 107.52 -38.0859 106.299 -41.1133 104.541 -42.8711 L 73.4863 -73.9258 C 71.3867 -76.0254 68.7988 -77.1484 66.4062 -77.1484 C 60.1562 -77.1484 56.2012 -72.9492 56.2012 -67.4316 C 56.2012 -64.1602 57.7148 -61.9141 59.668 -60.0098 L 70.9961 -48.8281 L 75.5371 -45.0684 L 65.4785 -45.6543 L 41.9434 -45.6543 C 22.3145 -45.6543 12.4512 -33.8867 12.4512 -14.2578 C 12.4512 -11.4746 12.5977 -8.39844 13.1836 -4.15039 C 13.8184 0.292969 16.748 6.39648 23.877 6.39648 Z"/>
  </g>
  <g id="Heavy-M" transform="matrix(1 0 0 1 2577.12 1126)">
   <path d="M 22.2656 5.71289 C 27.4414 5.71289 30.7129 2.19727 30.7129 -3.07617 C 30.7129 -5.41992 30.3711 -8.54492 30.3711 -12.5977 C 30.3711 -22.6562 34.3262 -26.6602 44.2383 -26.6602 L 68.7012 -26.6602 L 79.1992 -27.2461 L 71.875 -20.8008 L 60.6934 -9.7168 C 58.9844 -8.10547 57.7148 -6.10352 57.7148 -3.32031 C 57.7148 1.46484 61.1816 5.12695 66.5527 5.12695 C 68.6523 5.12695 70.8496 4.15039 72.7051 2.34375 L 104.102 -29.0039 C 105.664 -30.5664 106.689 -33.1543 106.689 -35.5469 C 106.689 -37.9883 105.664 -40.5762 104.102 -42.1387 L 72.7051 -73.4863 C 70.8984 -75.3418 68.6523 -76.3184 66.5527 -76.3184 C 61.1816 -76.3184 57.7148 -72.6562 57.7148 -67.8711 C 57.7148 -65.0879 58.9844 -63.0859 60.6934 -61.4746 L 71.875 -50.3418 L 79.1992 -43.8965 L 68.7012 -44.4824 L 42.6758 -44.4824 C 22.2168 -44.4824 12.4512 -33.1543 12.4512 -12.5488 C 12.4512 -9.7168 12.5488 -6.83594 13.1348 -3.22266 C 13.7207 0.585938 16.2109 5.71289 22.2656 5.71289 Z"/>
  </g>
  <g id="Bold-M" transform="matrix(1 0 0 1 2280.85 1126)">
   <path d="M 20.459 4.88281 C 24.707 4.88281 27.4902 2.00195 27.4902 -2.34375 C 27.4902 -4.49219 27.2461 -7.08008 27.2461 -10.5469 C 27.2461 -23.3398 31.9824 -28.5156 44.6777 -28.5156 L 72.3145 -28.5156 L 83.3496 -29.1504 L 72.8516 -19.7754 L 61.7676 -8.69141 C 60.4004 -7.37305 59.4238 -5.66406 59.4238 -3.41797 C 59.4238 0.537109 62.3535 3.56445 66.6992 3.56445 C 68.457 3.56445 70.2637 2.7832 71.8262 1.26953 L 103.564 -30.4199 C 104.932 -31.7871 105.811 -33.8867 105.811 -35.8887 C 105.811 -37.8418 104.932 -39.9414 103.564 -41.3086 L 71.875 -72.998 C 70.3125 -74.5605 68.457 -75.3418 66.6992 -75.3418 C 62.3535 -75.3418 59.4238 -72.3145 59.4238 -68.3594 C 59.4238 -66.1621 60.4004 -64.4531 61.7676 -63.0859 L 72.8516 -52.002 L 83.3496 -42.627 L 72.3145 -43.2129 L 43.5059 -43.2129 C 22.1191 -43.2129 12.4512 -32.2754 12.4512 -10.6445 C 12.4512 -7.8125 12.5488 -5.07812 13.0371 -2.19727 C 13.5742 0.976562 15.625 4.88281 20.459 4.88281 Z"/>
  </g>
  <g id="Semibold-M" transform="matrix(1 0 0 1 1984.45 1126)">
   <path d="M 19.2383 4.3457 C 22.8516 4.3457 25.293 1.85547 25.293 -1.85547 C 25.293 -3.80859 25.0977 -6.05469 25.0977 -9.08203 C 25.0977 -23.8281 30.3711 -29.834 44.9707 -29.834 L 74.8047 -29.834 L 86.2305 -30.5176 L 73.5352 -19.043 L 62.5488 -7.95898 C 61.377 -6.83594 60.6445 -5.32227 60.6445 -3.51562 C 60.6445 -0.0976562 63.1836 2.49023 66.7969 2.49023 C 68.3594 2.49023 69.873 1.80664 71.1914 0.537109 L 103.223 -31.4453 C 104.443 -32.666 105.176 -34.375 105.176 -36.084 C 105.176 -37.793 104.443 -39.5508 103.223 -40.7715 L 71.2891 -72.6562 C 69.873 -74.0234 68.3594 -74.6582 66.7969 -74.6582 C 63.1836 -74.6582 60.6445 -72.1191 60.6445 -68.7012 C 60.6445 -66.8457 61.377 -65.3809 62.5488 -64.209 L 73.5352 -53.125 L 86.1816 -41.6992 L 74.8047 -42.334 L 44.0918 -42.334 C 22.0215 -42.334 12.4512 -31.6895 12.4512 -9.32617 C 12.4512 -6.49414 12.5488 -3.85742 12.9883 -1.51367 C 13.4766 1.2207 15.1855 4.3457 19.2383 4.3457 Z"/>
  </g>
  <g id="Medium-M" transform="matrix(1 0 0 1 1687.96 1126)">
   <path d="M 18.2617 3.90625 C 21.4355 3.90625 23.584 1.70898 23.584 -1.46484 C 23.584 -3.32031 23.4375 -5.27344 23.4375 -8.00781 C 23.4375 -24.2188 29.1504 -30.8105 45.2148 -30.8105 L 76.709 -30.8105 L 88.3789 -31.4941 L 74.0723 -18.457 L 63.1348 -7.42188 C 62.1582 -6.44531 61.5234 -5.07812 61.5234 -3.56445 C 61.5234 -0.585938 63.7695 1.66016 66.8945 1.66016 C 68.2617 1.66016 69.5801 1.12305 70.752 -0.0488281 L 102.93 -32.1777 C 104.102 -33.3008 104.736 -34.7656 104.736 -36.2305 C 104.736 -37.7441 104.102 -39.209 102.93 -40.332 L 70.8496 -72.3633 C 69.5801 -73.584 68.2617 -74.1699 66.8945 -74.1699 C 63.7695 -74.1699 61.5234 -71.9238 61.5234 -68.9453 C 61.5234 -67.4316 62.1094 -66.0645 63.1348 -65.0879 L 74.0723 -54.0039 L 88.3301 -41.0156 L 76.709 -41.6992 L 44.5312 -41.6992 C 21.9727 -41.6992 12.4512 -31.25 12.4512 -8.34961 C 12.4512 -5.46875 12.5488 -2.92969 12.9395 -0.976562 C 13.3789 1.41602 14.8926 3.90625 18.2617 3.90625 Z"/>
  </g>
  <g id="Regular-M" transform="matrix(1 0 0 1 1391.57 1126)">
   <path d="M 17.041 3.36914 C 19.5801 3.36914 21.4355 1.61133 21.4355 -0.976562 C 21.4355 -2.68555 21.2891 -4.29688 21.2891 -6.5918 C 21.2891 -24.707 27.5879 -32.0801 45.5078 -32.0801 L 79.1992 -32.0801 L 91.2109 -32.8125 L 74.707 -17.7734 L 63.8672 -6.73828 C 63.1348 -5.95703 62.6953 -4.78516 62.6953 -3.61328 C 62.6953 -1.17188 64.5508 0.585938 66.9922 0.585938 C 68.1152 0.585938 69.1895 0.146484 70.166 -0.78125 L 102.588 -33.1543 C 103.613 -34.1309 104.102 -35.2539 104.102 -36.4746 C 104.102 -37.6465 103.613 -38.8184 102.588 -39.7461 L 70.2637 -72.0215 C 69.1895 -73.0957 68.1152 -73.4863 66.9922 -73.4863 C 64.5508 -73.4863 62.6953 -71.7285 62.6953 -69.2871 C 62.6953 -68.1152 63.0859 -66.9922 63.8672 -66.2109 L 74.707 -55.1758 L 91.1621 -40.1367 L 79.1992 -40.8203 L 45.0684 -40.8203 C 21.9238 -40.8203 12.4512 -30.6641 12.4512 -7.03125 C 12.4512 -4.19922 12.5488 -1.75781 12.8906 -0.292969 C 13.2812 1.70898 14.4531 3.36914 17.041 3.36914 Z"/>
  </g>
  <g id="Light-M" transform="matrix(1 0 0 1 1095.03 1126)">
   <path d="M 15.9668 1.80664 C 17.8711 1.80664 19.2383 0.439453 19.2383 -1.46484 C 19.2383 -2.83203 19.1406 -4.58984 19.1406 -7.22656 C 19.1406 -25.6836 26.2695 -33.1543 44.3848 -33.1543 L 82.0801 -33.1543 L 93.8477 -33.6914 L 79.3945 -20.166 L 64.9902 -5.56641 C 64.4043 -4.98047 64.0625 -4.10156 64.0625 -3.22266 C 64.0625 -1.36719 65.4785 0 67.334 0 C 68.2129 0 69.043 -0.341797 69.7754 -1.02539 L 102.588 -33.9355 C 103.418 -34.7168 103.76 -35.5469 103.76 -36.4746 C 103.76 -37.4023 103.418 -38.2324 102.588 -39.0137 L 70.0195 -71.6309 C 69.043 -72.6074 68.2129 -72.9492 67.334 -72.9492 C 65.4785 -72.9492 64.0625 -71.582 64.0625 -69.7266 C 64.0625 -68.8477 64.3555 -67.9688 64.9902 -67.3828 L 79.3945 -52.7832 L 93.7988 -39.3066 L 82.0801 -39.7949 L 44.0918 -39.7949 C 21.9727 -39.7949 12.4512 -30.2246 12.4512 -7.56836 C 12.4512 -4.73633 12.5 -2.24609 12.793 -1.02539 C 13.0859 0.537109 13.9648 1.80664 15.9668 1.80664 Z"/>
  </g>
  <g id="Thin-M" transform="matrix(1 0 0 1 798.536 1126)">
   <path d="M 14.502 -0.195312 C 15.625 -0.195312 16.4062 -1.02539 16.4062 -2.14844 C 16.4062 -2.97852 16.3086 -4.98047 16.3086 -8.05664 C 16.3086 -26.9531 24.5117 -34.5703 42.9199 -34.5703 L 85.8887 -34.5703 L 97.3145 -34.8145 L 85.5957 -23.291 L 66.4062 -4.05273 C 66.1133 -3.75977 65.8691 -3.22266 65.8691 -2.68555 C 65.8691 -1.61133 66.6992 -0.78125 67.8223 -0.78125 C 68.3594 -0.78125 68.7988 -0.976562 69.2383 -1.36719 L 102.637 -34.9609 C 103.125 -35.4492 103.32 -35.9375 103.32 -36.4746 C 103.32 -37.0605 103.125 -37.5488 102.637 -38.0371 L 69.6777 -71.1426 C 68.8965 -71.9727 68.3594 -72.2168 67.8223 -72.2168 C 66.6992 -72.2168 65.8691 -71.3867 65.8691 -70.3125 C 65.8691 -69.7754 66.0645 -69.2871 66.4062 -68.9453 L 85.5957 -49.707 L 97.3145 -38.1836 L 85.8887 -38.3789 L 42.8223 -38.3789 C 22.0215 -38.3789 12.4512 -29.6387 12.4512 -8.30078 C 12.4512 -5.46875 12.4512 -2.92969 12.6465 -2.00195 C 12.8418 -1.02539 13.3301 -0.195312 14.502 -0.195312 Z"/>
  </g>
  <g id="Ultralight-M" transform="matrix(1 0 0 1 501.923 1126)">
   <path d="M 13.7695 -1.26953 C 14.4531 -1.26953 14.9414 -1.80664 14.9414 -2.49023 C 14.9414 -3.02734 14.8438 -5.17578 14.8438 -8.49609 C 14.8438 -27.5879 23.584 -35.3027 42.1875 -35.3027 L 87.8418 -35.3027 L 99.1211 -35.3516 L 88.7207 -24.9023 L 67.1875 -3.27148 C 66.9922 -3.125 66.7969 -2.73438 66.7969 -2.39258 C 66.7969 -1.75781 67.334 -1.2207 68.0664 -1.2207 C 68.4082 -1.2207 68.7012 -1.31836 68.9453 -1.5625 L 102.637 -35.498 C 102.979 -35.8398 103.125 -36.1328 103.125 -36.5234 C 103.125 -36.8652 102.979 -37.1582 102.637 -37.5488 L 69.5312 -70.8984 C 68.7988 -71.6309 68.4082 -71.8262 68.0664 -71.8262 C 67.334 -71.8262 66.7969 -71.2891 66.7969 -70.6055 C 66.7969 -70.2637 66.9434 -69.9707 67.1875 -69.7266 L 88.7207 -48.0957 L 99.1211 -37.6465 L 87.8418 -37.6953 L 42.1875 -37.6953 C 22.0703 -37.6953 12.4512 -29.2969 12.4512 -8.69141 C 12.4512 -5.85938 12.4512 -3.27148 12.5488 -2.53906 C 12.6953 -1.80664 12.9883 -1.26953 13.7695 -1.26953 Z"/>
  </g>
  <g id="Black-S" transform="matrix(1 0 0 1 2886.43 696)">
   <path d="M 18.6035 -2.63672 C 23.2422 -2.63672 26.123 -5.76172 26.123 -10.498 C 26.123 -12.4512 25.8301 -15.2344 25.8301 -18.7988 C 25.8301 -24.9023 28.3691 -27.2949 34.4238 -27.2949 L 51.5137 -27.2949 L 59.4238 -27.7344 L 55.6152 -24.5605 L 46.8262 -15.918 C 45.3125 -14.4531 44.1406 -12.6953 44.1406 -10.1562 C 44.1406 -5.9082 47.2168 -2.63672 52.0508 -2.63672 C 53.9062 -2.63672 55.9082 -3.51562 57.5195 -5.12695 L 81.8848 -29.4434 C 83.252 -30.8105 84.1797 -33.1543 84.1797 -35.3027 C 84.1797 -37.4512 83.252 -39.7949 81.8848 -41.1621 L 57.5195 -65.5273 C 55.9082 -67.1387 53.9062 -68.0176 52.0508 -68.0176 C 47.2168 -68.0176 44.1406 -64.7461 44.1406 -60.498 C 44.1406 -57.959 45.3125 -56.2012 46.8262 -54.7363 L 55.6152 -46.0449 L 59.4238 -42.8711 L 51.5137 -43.3105 L 32.959 -43.3105 C 17.4805 -43.3105 9.76562 -34.1309 9.76562 -18.6523 C 9.76562 -16.4551 9.86328 -14.0625 10.3516 -10.791 C 10.8398 -7.37305 13.0859 -2.63672 18.6035 -2.63672 Z"/>
  </g>
  <g id="Heavy-S" transform="matrix(1 0 0 1 2590.01 696)">
   <path d="M 17.4805 -3.02734 C 21.582 -3.02734 24.1699 -5.76172 24.1699 -9.96094 C 24.1699 -11.8164 23.9258 -14.209 23.9258 -17.334 C 23.9258 -25.293 26.9043 -28.4668 34.8633 -28.4668 L 53.6621 -28.4668 L 61.9629 -28.9551 L 55.7617 -23.584 L 47.4609 -15.332 C 46.1426 -14.0625 45.166 -12.4512 45.166 -10.3027 C 45.166 -6.49414 47.9004 -3.66211 52.0996 -3.66211 C 53.7598 -3.66211 55.5176 -4.39453 56.9824 -5.81055 L 81.543 -30.3223 C 82.7637 -31.5918 83.5938 -33.5938 83.5938 -35.498 C 83.5938 -37.4023 82.7637 -39.4531 81.543 -40.6738 L 56.9824 -65.2344 C 55.5176 -66.6504 53.7598 -67.4316 52.0996 -67.4316 C 47.9004 -67.4316 45.166 -64.5508 45.166 -60.791 C 45.166 -58.5938 46.1426 -57.0312 47.4609 -55.7129 L 55.7617 -47.4609 L 61.9629 -42.0898 L 53.6621 -42.5781 L 33.6426 -42.5781 C 17.3828 -42.5781 9.76562 -33.5938 9.76562 -17.2852 C 9.76562 -15.0879 9.86328 -12.793 10.3027 -10.0098 C 10.7422 -6.98242 12.7441 -3.02734 17.4805 -3.02734 Z"/>
  </g>
  <g id="Bold-S" transform="matrix(1 0 0 1 2293.62 696)">
   <path d="M 16.2598 -3.41797 C 19.7266 -3.41797 21.9727 -5.81055 21.9727 -9.32617 C 21.9727 -11.084 21.7773 -13.0371 21.7773 -15.6738 C 21.7773 -25.7324 25.293 -29.7852 35.3027 -29.7852 L 56.1035 -29.7852 L 64.7949 -30.3223 L 55.957 -22.4609 L 48.1934 -14.6973 C 47.0703 -13.623 46.2891 -12.207 46.2891 -10.4004 C 46.2891 -7.17773 48.6816 -4.73633 52.1973 -4.73633 C 53.6133 -4.73633 55.0781 -5.37109 56.3477 -6.5918 L 81.1523 -31.3477 C 82.2754 -32.4219 82.959 -34.1309 82.959 -35.7422 C 82.959 -37.3535 82.2754 -39.0625 81.1523 -40.1367 L 56.3477 -64.8926 C 55.0781 -66.1133 53.6133 -66.748 52.1973 -66.748 C 48.6816 -66.748 46.2891 -64.3066 46.2891 -61.084 C 46.2891 -59.3262 47.0703 -57.9102 48.1934 -56.8359 L 55.957 -49.0234 L 64.7949 -41.1621 L 56.1035 -41.6992 L 34.375 -41.6992 C 17.334 -41.6992 9.76562 -33.0078 9.76562 -15.7715 C 9.76562 -13.5254 9.86328 -11.4258 10.2539 -9.13086 C 10.6934 -6.54297 12.3535 -3.41797 16.2598 -3.41797 Z"/>
  </g>
  <g id="Semibold-S" transform="matrix(1 0 0 1 1997.12 696)">
   <path d="M 15.3809 -3.71094 C 18.457 -3.71094 20.459 -5.81055 20.459 -8.88672 C 20.459 -10.5469 20.3125 -12.2559 20.3125 -14.502 C 20.3125 -26.0254 24.2188 -30.6641 35.6445 -30.6641 L 57.7637 -30.6641 L 66.748 -31.2988 L 56.0547 -21.7285 L 48.6816 -14.209 C 47.7051 -13.2812 47.0703 -12.0117 47.0703 -10.498 C 47.0703 -7.66602 49.2188 -5.51758 52.2461 -5.51758 C 53.5156 -5.51758 54.7852 -6.05469 55.9082 -7.12891 L 80.8594 -32.0312 C 81.8848 -33.0566 82.5195 -34.4727 82.5195 -35.8887 C 82.5195 -37.3047 81.8848 -38.7695 80.8594 -39.7949 L 55.9082 -64.6484 C 54.7852 -65.7715 53.5156 -66.3086 52.2461 -66.3086 C 49.2188 -66.3086 47.0703 -64.1602 47.0703 -61.3281 C 47.0703 -59.8145 47.7051 -58.5449 48.6816 -57.5684 L 56.0547 -50.0977 L 66.748 -40.5762 L 57.7637 -41.1133 L 34.9121 -41.1133 C 17.2363 -41.1133 9.76562 -32.5684 9.76562 -14.6973 C 9.76562 -12.5 9.86328 -10.4492 10.2051 -8.54492 C 10.5957 -6.25 12.0605 -3.71094 15.3809 -3.71094 Z"/>
  </g>
  <g id="Medium-S" transform="matrix(1 0 0 1 1700.58 696)">
   <path d="M 14.7461 -3.95508 C 17.4805 -3.95508 19.3359 -5.81055 19.3359 -8.54492 C 19.3359 -10.2051 19.1895 -11.6211 19.1895 -13.623 C 19.1895 -26.2207 23.3398 -31.3477 35.8887 -31.3477 L 58.9844 -31.3477 L 68.2617 -31.9824 L 56.1523 -21.1426 L 49.0234 -13.8672 C 48.1934 -13.0371 47.6562 -11.8652 47.6562 -10.5957 C 47.6562 -8.00781 49.6094 -6.10352 52.2461 -6.10352 C 53.418 -6.10352 54.5898 -6.5918 55.5664 -7.56836 L 80.6641 -32.5684 C 81.6406 -33.4961 82.1777 -34.7656 82.1777 -36.0352 C 82.1777 -37.3047 81.6406 -38.5742 80.6641 -39.502 L 55.6152 -64.502 C 54.5898 -65.4785 53.418 -65.9668 52.2461 -65.9668 C 49.6094 -65.9668 47.6562 -64.0625 47.6562 -61.4746 C 47.6562 -60.1562 48.1934 -59.0332 49.0234 -58.1543 L 56.1523 -50.9277 L 68.2129 -40.0879 L 58.9844 -40.6738 L 35.3027 -40.6738 C 17.1875 -40.6738 9.76562 -32.2754 9.76562 -13.916 C 9.76562 -11.6699 9.86328 -9.7168 10.1562 -8.10547 C 10.5957 -6.05469 11.8652 -3.95508 14.7461 -3.95508 Z"/>
  </g>
  <g id="Regular-S" transform="matrix(1 0 0 1 1404.09 696)">
   <path d="M 13.916 -4.24805 C 16.2109 -4.24805 17.8223 -5.85938 17.8223 -8.1543 C 17.8223 -9.66797 17.7246 -10.8398 17.7246 -12.5 C 17.7246 -26.5137 22.2656 -32.2266 36.1816 -32.2266 L 60.6445 -32.2266 L 70.166 -32.959 L 56.2988 -20.4102 L 49.5117 -13.4277 C 48.8281 -12.7441 48.4375 -11.7188 48.4375 -10.6934 C 48.4375 -8.49609 50.1465 -6.88477 52.2949 -6.88477 C 53.3203 -6.88477 54.2969 -7.27539 55.1758 -8.10547 L 80.3711 -33.2031 C 81.25 -34.082 81.7383 -35.1074 81.7383 -36.1816 C 81.7383 -37.2559 81.25 -38.2812 80.3711 -39.1602 L 55.1758 -64.2578 C 54.2969 -65.0879 53.3203 -65.4785 52.2949 -65.4785 C 50.1465 -65.4785 48.4375 -63.916 48.4375 -61.6699 C 48.4375 -60.6445 48.8281 -59.6191 49.5117 -58.9355 L 56.2988 -52.002 L 70.1172 -39.4531 L 60.6445 -40.1367 L 35.791 -40.1367 C 17.1387 -40.1367 9.76562 -31.8848 9.76562 -12.8906 C 9.76562 -10.6445 9.86328 -8.78906 10.1562 -7.4707 C 10.498 -5.76172 11.5723 -4.24805 13.916 -4.24805 Z"/>
  </g>
  <g id="Light-S" transform="matrix(1 0 0 1 1107.53 696)">
   <path d="M 12.9395 -5.61523 C 14.6973 -5.61523 15.918 -6.83594 15.918 -8.59375 C 15.918 -9.76562 15.8203 -11.084 15.8203 -13.0371 C 15.8203 -27.3438 21.0938 -33.2031 35.2051 -33.2031 L 63.1836 -33.2031 L 72.5098 -33.6914 L 60.4492 -22.5098 L 50.4883 -12.4512 C 50 -11.9141 49.6582 -11.1328 49.6582 -10.3027 C 49.6582 -8.64258 50.9766 -7.42188 52.6367 -7.42188 C 53.418 -7.42188 54.1504 -7.71484 54.834 -8.34961 L 80.3711 -33.9355 C 81.1035 -34.5703 81.4453 -35.3516 81.4453 -36.1816 C 81.4453 -37.0117 81.1035 -37.793 80.3711 -38.4766 L 54.9805 -63.916 C 54.1504 -64.6973 53.418 -64.9902 52.6367 -64.9902 C 50.9766 -64.9902 49.6582 -63.7695 49.6582 -62.1094 C 49.6582 -61.2793 49.9512 -60.498 50.4883 -59.9609 L 60.4492 -49.9023 L 72.4609 -38.7207 L 63.1836 -39.209 L 34.9609 -39.209 C 17.1875 -39.209 9.76562 -31.4453 9.76562 -13.3789 C 9.76562 -11.1328 9.81445 -9.22852 10.0586 -8.1543 C 10.3516 -6.78711 11.1328 -5.61523 12.9395 -5.61523 Z"/>
  </g>
  <g id="Thin-S" transform="matrix(1 0 0 1 811.012 696)">
   <path d="M 11.6699 -7.42188 C 12.6953 -7.42188 13.4277 -8.1543 13.4277 -9.17969 C 13.4277 -9.91211 13.3301 -11.4258 13.3301 -13.7695 C 13.3301 -28.4668 19.5312 -34.4727 33.9355 -34.4727 L 66.5527 -34.4727 L 75.5859 -34.668 L 65.8691 -25.293 L 51.7578 -11.084 C 51.4648 -10.791 51.2695 -10.3027 51.2695 -9.81445 C 51.2695 -8.83789 52.0508 -8.10547 53.0273 -8.10547 C 53.5156 -8.10547 53.9551 -8.25195 54.3457 -8.64258 L 80.4199 -34.8145 C 80.8594 -35.2539 81.0547 -35.6934 81.0547 -36.2305 C 81.0547 -36.7188 80.8594 -37.1582 80.4199 -37.5977 L 54.6875 -63.4766 C 54.0039 -64.1113 53.5156 -64.3555 53.0273 -64.3555 C 52.0508 -64.3555 51.2695 -63.5742 51.2695 -62.5977 C 51.2695 -62.1094 51.4648 -61.6699 51.7578 -61.3281 L 65.8691 -47.168 L 75.5859 -37.793 L 66.5527 -37.9883 L 33.8379 -37.9883 C 17.2363 -37.9883 9.76562 -30.957 9.76562 -14.0137 C 9.76562 -11.7676 9.81445 -9.76562 9.96094 -9.0332 C 10.1074 -8.10547 10.5957 -7.42188 11.6699 -7.42188 Z"/>
  </g>
  <g id="Ultralight-S" transform="matrix(1 0 0 1 514.399 696)">
   <path d="M 10.9863 -8.34961 C 11.6699 -8.34961 12.1094 -8.83789 12.1094 -9.52148 C 12.1094 -10.0098 12.0117 -11.6211 12.0117 -14.1602 C 12.0117 -29.0527 18.75 -35.1074 33.252 -35.1074 L 68.3105 -35.1074 L 77.1973 -35.2051 L 68.7012 -26.709 L 52.4414 -10.4004 C 52.2461 -10.2539 52.0996 -9.91211 52.0996 -9.57031 C 52.0996 -8.93555 52.5879 -8.44727 53.2715 -8.44727 C 53.6133 -8.44727 53.8574 -8.59375 54.1016 -8.78906 L 80.4199 -35.3027 C 80.7617 -35.5957 80.8594 -35.8887 80.8594 -36.2305 C 80.8594 -36.5723 80.7617 -36.8652 80.4199 -37.1582 L 54.541 -63.2324 C 53.9062 -63.8184 53.6133 -64.0137 53.2715 -64.0137 C 52.5879 -64.0137 52.0996 -63.4766 52.0996 -62.8906 C 52.0996 -62.5488 52.1973 -62.2559 52.4414 -62.0605 L 68.7012 -45.752 L 77.1973 -37.2559 L 68.3105 -37.3535 L 33.252 -37.3535 C 17.2852 -37.3535 9.76562 -30.6641 9.76562 -14.3066 C 9.76562 -12.1094 9.76562 -10.1074 9.86328 -9.47266 C 10.0098 -8.83789 10.2539 -8.34961 10.9863 -8.34961 Z"/>
  </g>
 </g>
</svg>
