<?xml version="1.0" encoding="UTF-8"?>
<!--Generator: Apple Native CoreSVG 149-->
<!DOCTYPE svg
PUBLIC "-//W3C//DTD SVG 1.1//EN"
       "http://www.w3.org/Graphics/SVG/1.1/DTD/svg11.dtd">
<svg version="1.1" xmlns="http://www.w3.org/2000/svg" xmlns:xlink="http://www.w3.org/1999/xlink" width="3300" height="2200">
 <!--glyph: "uni1002A4.medium", point size: 100.000000, font version: "Version 16.0d12e3", template writer version: "8"-->
 <g id="Notes">
  <rect height="2200" id="artboard" style="fill:white;opacity:1" width="3300" x="0" y="0"/>
  <line id="" style="fill:none;stroke:black;opacity:1;stroke-width:0.5;" x1="263" x2="3036" y1="292" y2="292"/>
  <text style="stroke:none;fill:black;font-family:-apple-system,&quot;SF Pro Display&quot;,&quot;SF Pro Text&quot;,Helvetica,sans-serif;font-weight:bold;" transform="matrix(1 0 0 1 263 322)">Weight/Scale Variations</text>
  <text style="stroke:none;fill:black;font-family:-apple-system,&quot;SF Pro Display&quot;,&quot;SF Pro Text&quot;,Helvetica,sans-serif;text-anchor:middle;" transform="matrix(1 0 0 1 559.711 322)">Ultralight</text>
  <text style="stroke:none;fill:black;font-family:-apple-system,&quot;SF Pro Display&quot;,&quot;SF Pro Text&quot;,Helvetica,sans-serif;text-anchor:middle;" transform="matrix(1 0 0 1 856.422 322)">Thin</text>
  <text style="stroke:none;fill:black;font-family:-apple-system,&quot;SF Pro Display&quot;,&quot;SF Pro Text&quot;,Helvetica,sans-serif;text-anchor:middle;" transform="matrix(1 0 0 1 1153.13 322)">Light</text>
  <text style="stroke:none;fill:black;font-family:-apple-system,&quot;SF Pro Display&quot;,&quot;SF Pro Text&quot;,Helvetica,sans-serif;text-anchor:middle;" transform="matrix(1 0 0 1 1449.84 322)">Regular</text>
  <text style="stroke:none;fill:black;font-family:-apple-system,&quot;SF Pro Display&quot;,&quot;SF Pro Text&quot;,Helvetica,sans-serif;text-anchor:middle;" transform="matrix(1 0 0 1 1746.56 322)">Medium</text>
  <text style="stroke:none;fill:black;font-family:-apple-system,&quot;SF Pro Display&quot;,&quot;SF Pro Text&quot;,Helvetica,sans-serif;text-anchor:middle;" transform="matrix(1 0 0 1 2043.27 322)">Semibold</text>
  <text style="stroke:none;fill:black;font-family:-apple-system,&quot;SF Pro Display&quot;,&quot;SF Pro Text&quot;,Helvetica,sans-serif;text-anchor:middle;" transform="matrix(1 0 0 1 2339.98 322)">Bold</text>
  <text style="stroke:none;fill:black;font-family:-apple-system,&quot;SF Pro Display&quot;,&quot;SF Pro Text&quot;,Helvetica,sans-serif;text-anchor:middle;" transform="matrix(1 0 0 1 2636.69 322)">Heavy</text>
  <text style="stroke:none;fill:black;font-family:-apple-system,&quot;SF Pro Display&quot;,&quot;SF Pro Text&quot;,Helvetica,sans-serif;text-anchor:middle;" transform="matrix(1 0 0 1 2933.4 322)">Black</text>
  <line id="" style="fill:none;stroke:black;opacity:1;stroke-width:0.5;" x1="263" x2="3036" y1="1903" y2="1903"/>
  <g id="" transform="matrix(1 0 0 1 263 1933)">
   <path d="M9.24805 0.830078C13.5547 0.830078 17.1387-2.74414 17.1387-7.05078C17.1387-11.3574 13.5449-14.9316 9.23828-14.9316C4.94141-14.9316 1.36719-11.3574 1.36719-7.05078C1.36719-2.74414 4.95117 0.830078 9.24805 0.830078ZM9.24805-0.654297C5.70312-0.654297 2.87109-3.49609 2.87109-7.05078C2.87109-10.6055 5.69336-13.4473 9.23828-13.4473C12.793-13.4473 15.6348-10.6055 15.6445-7.05078C15.6543-3.49609 12.8027-0.654297 9.24805-0.654297ZM9.22852-3.62305C9.69727-3.62305 9.9707-3.93555 9.9707-4.45312L9.9707-6.31836L12.002-6.31836C12.5-6.31836 12.832-6.57227 12.832-7.04102C12.832-7.51953 12.5195-7.7832 12.002-7.7832L9.9707-7.7832L9.9707-9.81445C9.9707-10.332 9.69727-10.6543 9.22852-10.6543C8.75977-10.6543 8.50586-10.3125 8.50586-9.81445L8.50586-7.7832L6.49414-7.7832C5.97656-7.7832 5.64453-7.51953 5.64453-7.04102C5.64453-6.57227 5.99609-6.31836 6.49414-6.31836L8.50586-6.31836L8.50586-4.45312C8.50586-3.95508 8.75977-3.62305 9.22852-3.62305Z"/>
  </g>
  <g id="" transform="matrix(1 0 0 1 281.506 1933)">
   <path d="M11.709 2.91016C17.1582 2.91016 21.6699-1.61133 21.6699-7.05078C21.6699-12.5 17.1484-17.0117 11.6992-17.0117C6.25977-17.0117 1.74805-12.5 1.74805-7.05078C1.74805-1.61133 6.26953 2.91016 11.709 2.91016ZM11.709 1.25C7.09961 1.25 3.41797-2.44141 3.41797-7.05078C3.41797-11.6602 7.08984-15.3516 11.6992-15.3516C16.3086-15.3516 20-11.6602 20.0098-7.05078C20.0195-2.44141 16.3184 1.25 11.709 1.25ZM11.6797-2.66602C12.207-2.66602 12.5098-3.01758 12.5098-3.59375L12.5098-6.23047L15.3223-6.23047C15.8691-6.23047 16.25-6.51367 16.25-7.03125C16.25-7.55859 15.8887-7.86133 15.3223-7.86133L12.5098-7.86133L12.5098-10.6836C12.5098-11.25 12.207-11.6113 11.6797-11.6113C11.1621-11.6113 10.8789-11.2305 10.8789-10.6836L10.8789-7.86133L8.07617-7.86133C7.50977-7.86133 7.13867-7.55859 7.13867-7.03125C7.13867-6.51367 7.5293-6.23047 8.07617-6.23047L10.8789-6.23047L10.8789-3.59375C10.8789-3.03711 11.1621-2.66602 11.6797-2.66602Z"/>
  </g>
  <g id="" transform="matrix(1 0 0 1 304.924 1933)">
   <path d="M14.9707 5.66406C21.9336 5.66406 27.6953-0.0976562 27.6953-7.05078C27.6953-14.0137 21.9238-19.7754 14.9609-19.7754C8.00781-19.7754 2.25586-14.0137 2.25586-7.05078C2.25586-0.0976562 8.01758 5.66406 14.9707 5.66406ZM14.9707 3.84766C8.93555 3.84766 4.08203-1.01562 4.08203-7.05078C4.08203-13.0957 8.92578-17.9492 14.9609-17.9492C21.0059-17.9492 25.8594-13.0957 25.8691-7.05078C25.8789-1.01562 21.0156 3.84766 14.9707 3.84766ZM14.9414-1.38672C15.5176-1.38672 15.8594-1.77734 15.8594-2.38281L15.8594-6.13281L19.7754-6.13281C20.3711-6.13281 20.7812-6.46484 20.7812-7.02148C20.7812-7.59766 20.3906-7.93945 19.7754-7.93945L15.8594-7.93945L15.8594-11.8652C15.8594-12.4805 15.5176-12.8711 14.9414-12.8711C14.375-12.8711 14.0527-12.4609 14.0527-11.8652L14.0527-7.93945L10.1465-7.93945C9.53125-7.93945 9.13086-7.59766 9.13086-7.02148C9.13086-6.46484 9.55078-6.13281 10.1465-6.13281L14.0527-6.13281L14.0527-2.38281C14.0527-1.79688 14.375-1.38672 14.9414-1.38672Z"/>
  </g>
  <text style="stroke:none;fill:black;font-family:-apple-system,&quot;SF Pro Display&quot;,&quot;SF Pro Text&quot;,Helvetica,sans-serif;font-weight:bold;" transform="matrix(1 0 0 1 263 1953)">Design Variations</text>
  <text style="stroke:none;fill:black;font-family:-apple-system,&quot;SF Pro Display&quot;,&quot;SF Pro Text&quot;,Helvetica,sans-serif;" transform="matrix(1 0 0 1 263 1971)">Symbols are supported in up to nine weights and three scales.</text>
  <text style="stroke:none;fill:black;font-family:-apple-system,&quot;SF Pro Display&quot;,&quot;SF Pro Text&quot;,Helvetica,sans-serif;" transform="matrix(1 0 0 1 263 1989)">For optimal layout with text and other symbols, vertically align</text>
  <text style="stroke:none;fill:black;font-family:-apple-system,&quot;SF Pro Display&quot;,&quot;SF Pro Text&quot;,Helvetica,sans-serif;" transform="matrix(1 0 0 1 263 2007)">symbols with the adjacent text.</text>
  <line id="" style="fill:none;stroke:#00AEEF;stroke-width:0.5;opacity:1.0;" x1="776" x2="776" y1="1919" y2="1933"/>
  <g id="" transform="matrix(1 0 0 1 776 1933)">
   <path d="M3.31055 0.126953C3.82812 0.126953 4.08203-0.0683594 4.26758-0.605469L5.52734-4.0625L11.2891-4.0625L12.5488-0.605469C12.7344-0.0683594 12.9883 0.126953 13.4961 0.126953C14.0137 0.126953 14.3457-0.185547 14.3457-0.673828C14.3457-0.839844 14.3164-0.986328 14.2383-1.20117L9.6582-13.3887C9.43359-13.9941 9.0332-14.2871 8.4082-14.2871C7.80273-14.2871 7.39258-13.9941 7.17773-13.3984L2.59766-1.19141C2.51953-0.976562 2.49023-0.830078 2.49023-0.664062C2.49023-0.175781 2.80273 0.126953 3.31055 0.126953ZM6.00586-5.53711L8.37891-12.1094L8.42773-12.1094L10.8008-5.53711Z"/>
  </g>
  <line id="" style="fill:none;stroke:#00AEEF;stroke-width:0.5;opacity:1.0;" x1="792.836" x2="792.836" y1="1919" y2="1933"/>
  <text style="stroke:none;fill:black;font-family:-apple-system,&quot;SF Pro Display&quot;,&quot;SF Pro Text&quot;,Helvetica,sans-serif;font-weight:bold;" transform="matrix(1 0 0 1 776 1953)">Margins</text>
  <text style="stroke:none;fill:black;font-family:-apple-system,&quot;SF Pro Display&quot;,&quot;SF Pro Text&quot;,Helvetica,sans-serif;" transform="matrix(1 0 0 1 776 1971)">Leading and trailing margins on the left and right side of each symbol</text>
  <text style="stroke:none;fill:black;font-family:-apple-system,&quot;SF Pro Display&quot;,&quot;SF Pro Text&quot;,Helvetica,sans-serif;" transform="matrix(1 0 0 1 776 1989)">can be adjusted by modifying the x-location of the margin guidelines.</text>
  <text style="stroke:none;fill:black;font-family:-apple-system,&quot;SF Pro Display&quot;,&quot;SF Pro Text&quot;,Helvetica,sans-serif;" transform="matrix(1 0 0 1 776 2007)">Modifications are automatically applied proportionally to all</text>
  <text style="stroke:none;fill:black;font-family:-apple-system,&quot;SF Pro Display&quot;,&quot;SF Pro Text&quot;,Helvetica,sans-serif;" transform="matrix(1 0 0 1 776 2025)">scales and weights.</text>
  <g id="" transform="matrix(1 0 0 1 1289 1933)">
   <path d="M2.8418 1.86523L4.54102 3.57422C5.40039 4.44336 6.38672 4.38477 7.31445 3.35938L17.4902-7.85156C17.7539-7.76367 18.0273-7.7832 18.3398-7.8418L19.4043-8.03711L20.0684-7.36328L20.0293-6.80664C19.9902-6.30859 20.1172-5.92773 20.6055-5.44922L21.3672-4.70703C21.8457-4.22852 22.4609-4.19922 22.9297-4.66797L25.8398-7.58789C26.3086-8.05664 26.2891-8.65234 25.8105-9.13086L25.0391-9.89258C24.5605-10.3711 24.1895-10.5273 23.7109-10.4883L23.1348-10.4395L22.4902-11.0742L22.7344-12.1973C22.8613-12.7637 22.7051-13.2031 22.1191-13.7891L19.9219-15.9766C16.582-19.2969 12.1484-19.2188 9.25781-16.3281C8.83789-15.918 8.80859-15.3418 9.04297-14.9512C9.27734-14.5898 9.73633-14.3555 10.3809-14.5215C11.8457-14.8633 13.3691-14.9219 14.7949-13.9844L14.209-12.5293C14.0137-12.0508 13.9844-11.6504 14.1113-11.2891L3.04688-0.898438C2.06055 0.0195312 1.98242 0.996094 2.8418 1.86523ZM10.752-15.957C13.1836-17.7344 16.4746-17.4316 18.7012-15.2051L21.1328-12.793C21.3672-12.5586 21.4062-12.373 21.3379-12.0312L21.0156-10.5469L22.5195-9.0625L23.5059-9.12109C23.7598-9.13086 23.8379-9.11133 24.0332-8.91602L24.6094-8.33984L22.168-5.89844L21.5918-6.47461C21.3965-6.66992 21.3672-6.74805 21.377-7.01172L21.4453-7.98828L19.9512-9.47266L18.4277-9.21875C18.1055-9.15039 17.959-9.17969 17.7148-9.41406L15.7129-11.416C15.459-11.6504 15.4297-11.8164 15.5859-12.1875L16.4648-14.2773C14.9023-15.7324 12.8711-16.3574 10.8398-15.7617C10.6836-15.7227 10.625-15.8496 10.752-15.957ZM5.27344 2.30469L4.10156 1.14258C3.63281 0.683594 3.74023 0.341797 4.14062-0.0195312L14.9512-10.1953L16.416-8.71094L6.42578 2.27539C6.07422 2.67578 5.74219 2.77344 5.27344 2.30469Z"/>
  </g>
  <text style="stroke:none;fill:black;font-family:-apple-system,&quot;SF Pro Display&quot;,&quot;SF Pro Text&quot;,Helvetica,sans-serif;font-weight:bold;" transform="matrix(1 0 0 1 1289 1953)">Exporting</text>
  <text style="stroke:none;fill:black;font-family:-apple-system,&quot;SF Pro Display&quot;,&quot;SF Pro Text&quot;,Helvetica,sans-serif;" transform="matrix(1 0 0 1 1289 1971)">Symbols should be outlined when exporting to ensure the</text>
  <text style="stroke:none;fill:black;font-family:-apple-system,&quot;SF Pro Display&quot;,&quot;SF Pro Text&quot;,Helvetica,sans-serif;" transform="matrix(1 0 0 1 1289 1989)">design is preserved when submitting to Xcode.</text>
  <text id="template-version" style="stroke:none;fill:black;font-family:-apple-system,&quot;SF Pro Display&quot;,&quot;SF Pro Text&quot;,Helvetica,sans-serif;text-anchor:end;" transform="matrix(1 0 0 1 3036 1933)">Template v.2.0</text>
  <text style="stroke:none;fill:black;font-family:-apple-system,&quot;SF Pro Display&quot;,&quot;SF Pro Text&quot;,Helvetica,sans-serif;text-anchor:end;" transform="matrix(1 0 0 1 3036 1951)">Requires Xcode 12 or greater</text>
  <text style="stroke:none;fill:black;font-family:-apple-system,&quot;SF Pro Display&quot;,&quot;SF Pro Text&quot;,Helvetica,sans-serif;text-anchor:end;" transform="matrix(1 0 0 1 3036 1969)">Generated from speaker.wave.1</text>
  <text style="stroke:none;fill:black;font-family:-apple-system,&quot;SF Pro Display&quot;,&quot;SF Pro Text&quot;,Helvetica,sans-serif;text-anchor:end;" transform="matrix(1 0 0 1 3036 1987)">Typeset at 100 points</text>
  <text style="stroke:none;fill:black;font-family:-apple-system,&quot;SF Pro Display&quot;,&quot;SF Pro Text&quot;,Helvetica,sans-serif;" transform="matrix(1 0 0 1 263 726)">Small</text>
  <text style="stroke:none;fill:black;font-family:-apple-system,&quot;SF Pro Display&quot;,&quot;SF Pro Text&quot;,Helvetica,sans-serif;" transform="matrix(1 0 0 1 263 1156)">Medium</text>
  <text style="stroke:none;fill:black;font-family:-apple-system,&quot;SF Pro Display&quot;,&quot;SF Pro Text&quot;,Helvetica,sans-serif;" transform="matrix(1 0 0 1 263 1586)">Large</text>
 </g>
 <g id="Guides">
  <g id="H-reference" style="fill:#27AAE1;stroke:none;" transform="matrix(1 0 0 1 339 696)">
   <path d="M0.976562 0L3.66211 0L12.9883-24.4629L45.752-24.4629L55.127 0L57.7637 0L30.6152-70.459L28.125-70.459ZM29.3457-67.1387L29.4434-67.1387L44.873-26.709L13.8672-26.709Z"/>
  </g>
  <line id="Baseline-S" style="fill:none;stroke:#27AAE1;opacity:1;stroke-width:0.5;" x1="263" x2="3036" y1="696" y2="696"/>
  <line id="Capline-S" style="fill:none;stroke:#27AAE1;opacity:1;stroke-width:0.5;" x1="263" x2="3036" y1="625.541" y2="625.541"/>
  <g id="H-reference" style="fill:#27AAE1;stroke:none;" transform="matrix(1 0 0 1 339 1126)">
   <path d="M0.976562 0L3.66211 0L12.9883-24.4629L45.752-24.4629L55.127 0L57.7637 0L30.6152-70.459L28.125-70.459ZM29.3457-67.1387L29.4434-67.1387L44.873-26.709L13.8672-26.709Z"/>
  </g>
  <line id="Baseline-M" style="fill:none;stroke:#27AAE1;opacity:1;stroke-width:0.5;" x1="263" x2="3036" y1="1126" y2="1126"/>
  <line id="Capline-M" style="fill:none;stroke:#27AAE1;opacity:1;stroke-width:0.5;" x1="263" x2="3036" y1="1055.54" y2="1055.54"/>
  <g id="H-reference" style="fill:#27AAE1;stroke:none;" transform="matrix(1 0 0 1 339 1556)">
   <path d="M0.976562 0L3.66211 0L12.9883-24.4629L45.752-24.4629L55.127 0L57.7637 0L30.6152-70.459L28.125-70.459ZM29.3457-67.1387L29.4434-67.1387L44.873-26.709L13.8672-26.709Z"/>
  </g>
  <line id="Baseline-L" style="fill:none;stroke:#27AAE1;opacity:1;stroke-width:0.5;" x1="263" x2="3036" y1="1556" y2="1556"/>
  <line id="Capline-L" style="fill:none;stroke:#27AAE1;opacity:1;stroke-width:0.5;" x1="263" x2="3036" y1="1485.54" y2="1485.54"/>
  <line id="left-margin" style="fill:none;stroke:#00AEEF;stroke-width:0.5;opacity:1.0;" x1="1391.54" x2="1391.54" y1="1030.79" y2="1150.12"/>
  <line id="right-margin" style="fill:none;stroke:#00AEEF;stroke-width:0.5;opacity:1.0;" x1="1508.15" x2="1508.15" y1="1030.79" y2="1150.12"/>
 </g>
 <g id="Symbols">
  <g id="Black-L" transform="matrix(1 0 0 1 2848.05 1556)">
   <path d="M39.3066-4.19922L56.4941-4.19922C56.7871-4.19922 57.0801-4.15039 57.4219-3.80859L82.4219 18.5547C86.6699 22.3145 89.8926 24.0234 94.2383 24.0234C100.879 24.0234 105.957 18.9941 105.957 12.3535L105.957-82.6172C105.957-89.209 100.879-94.4336 94.1895-94.4336C90.0879-94.4336 86.8652-92.7734 82.4219-88.7695L57.4219-66.6016C57.0312-66.3086 56.7871-66.2109 56.4941-66.2109L39.3066-66.2109C27.5879-66.2109 21.2891-59.5703 21.2891-47.3633L21.2891-23.0469C21.2891-10.8398 27.5879-4.19922 39.3066-4.19922ZM127.539-3.4668C132.031-0.732422 137.451-1.80664 140.234-5.66406C146.045-13.8184 149.414-24.2676 149.414-35.2539C149.414-46.2402 146.045-56.6406 140.234-64.8438C137.451-68.7012 132.031-69.7754 127.539-67.041C122.705-64.1113 121.533-58.3496 125.586-51.5625C128.369-47.0215 129.98-41.1621 129.98-35.2539C129.98-29.2969 128.369-23.4863 125.586-18.8965C121.582-12.1094 122.705-6.39648 127.539-3.4668ZM42.5293-22.1191C41.3086-22.1191 40.5273-22.9492 40.5273-24.0723L40.5273-46.2891C40.5273-47.4609 41.3086-48.2422 42.5293-48.2422L60.6934-48.2422C62.5977-48.2422 64.0137-48.6816 65.4297-50.0488L84.9609-67.9688C85.2051-68.2129 85.498-68.3105 85.8398-68.3105C86.3281-68.3105 86.7188-67.9199 86.7188-67.334L86.7188-2.97852C86.7188-2.39258 86.3281-1.95312 85.8398-1.95312C85.498-1.95312 85.2051-2.09961 84.9609-2.34375L65.4297-20.3125C64.0137-21.6797 62.5977-22.1191 60.6934-22.1191Z"/>
  </g>
  <g id="Heavy-L" transform="matrix(1 0 0 1 2554.05 1556)">
   <path d="M37.207-5.66406L54.6387-5.66406C55.0293-5.66406 55.4199-5.56641 55.7617-5.22461L81.7383 17.9688C85.5469 21.3867 88.5254 22.998 92.4805 22.998C98.4375 22.998 102.93 18.5059 102.93 12.5488L102.93-82.7637C102.93-88.7207 98.4375-93.4082 92.4316-93.4082C88.6719-93.4082 85.791-91.7969 81.7383-88.1836L55.7617-65.1367C55.3711-64.7949 55.0293-64.6484 54.6387-64.6484L37.207-64.6484C26.3672-64.6484 20.6543-58.6426 20.6543-47.3633L20.6543-22.9492C20.6543-11.6699 26.3672-5.66406 37.207-5.66406ZM39.6973-21.2402C38.1836-21.2402 37.3535-22.1191 37.3535-23.584L37.3535-46.7285C37.3535-48.2422 38.1836-49.1211 39.6973-49.1211L58.3008-49.1211C60.2051-49.1211 61.5723-49.5117 62.9883-50.8789L84.4238-70.5078C84.7168-70.752 85.0586-70.8984 85.4004-70.8984C85.8887-70.8984 86.2793-70.5078 86.2793-69.9219L86.2793-0.439453C86.2793 0.146484 85.8887 0.585938 85.4004 0.585938C85.0586 0.585938 84.7168 0.439453 84.4238 0.146484L62.9883-19.4824C61.5723-20.8008 60.2051-21.2402 58.3008-21.2402ZM124.707-4.6875C128.564-2.29492 133.35-3.22266 135.791-6.64062C141.357-14.3555 144.678-24.5117 144.678-35.2539C144.678-45.9473 141.357-56.1035 135.791-63.8672C133.35-67.2852 128.564-68.2129 124.707-65.7715C120.508-63.2324 119.531-58.2031 122.998-52.4902C126.123-47.7051 127.832-41.6016 127.832-35.2539C127.832-28.8574 126.074-22.8027 122.998-18.0176C119.58-12.2559 120.508-7.27539 124.707-4.6875Z"/>
  </g>
  <g id="Bold-L" transform="matrix(1 0 0 1 2260.36 1556)">
   <path d="M34.8145-7.32422L52.5879-7.32422C53.0762-7.32422 53.5156-7.17773 53.9062-6.78711L80.9082 17.2852C84.2773 20.3613 87.0117 21.8262 90.5273 21.8262C95.7031 21.8262 99.5605 17.9199 99.5605 12.7441L99.5605-82.959C99.5605-88.1348 95.7031-92.2363 90.4297-92.2363C87.0605-92.2363 84.5703-90.7715 80.9082-87.5L53.9062-63.4766C53.5156-63.0859 53.0762-62.9883 52.5879-62.9883L34.8145-62.9883C25-62.9883 19.9219-57.666 19.9219-47.4121L19.9219-22.8516C19.9219-12.5977 25-7.32422 34.8145-7.32422ZM36.5723-20.2148C34.668-20.2148 33.7402-21.1914 33.7402-23.0469L33.7402-47.2168C33.7402-49.1211 34.668-50.0488 36.5723-50.0488L55.6641-50.0488C57.5195-50.0488 58.8379-50.4395 60.3027-51.7578L83.8379-73.291C84.1797-73.584 84.5215-73.7793 84.9121-73.7793C85.4004-73.7793 85.791-73.4375 85.791-72.8027L85.791 2.39258C85.791 3.02734 85.4004 3.41797 84.9121 3.41797C84.5703 3.41797 84.2285 3.27148 83.8867 2.92969L60.3027-18.5059C58.8379-19.8242 57.5195-20.2148 55.6641-20.2148ZM121.533-6.00586C124.707-4.00391 128.711-4.78516 130.811-7.76367C136.133-14.9902 139.307-24.8047 139.307-35.2539C139.307-45.6543 136.133-55.4688 130.811-62.7441C128.711-65.6738 124.707-66.4551 121.533-64.4043C118.066-62.207 117.285-58.0078 120.117-53.5156C123.535-48.4863 125.391-42.0898 125.391-35.2539C125.391-28.3691 123.535-22.0215 120.117-16.9434C117.334-12.4023 118.066-8.25195 121.533-6.00586Z"/>
  </g>
  <g id="Semibold-L" transform="matrix(1 0 0 1 1965.73 1556)">
   <path d="M33.1543-8.44727L51.1719-8.44727C51.7578-8.44727 52.2461-8.30078 52.6367-7.86133L80.3711 16.8457C83.4473 19.6777 85.9863 20.9961 89.1602 20.9961C93.8477 20.9961 97.2656 17.5293 97.2656 12.8906L97.2656-83.0566C97.2656-87.6953 93.8477-91.4551 89.1113-91.4551C85.9375-91.4551 83.6914-90.0391 80.3711-87.0117L52.6367-62.3535C52.1973-61.9629 51.7578-61.8164 51.1719-61.8164L33.1543-61.8164C24.0723-61.8164 19.4336-56.9824 19.4336-47.4609L19.4336-22.7539C19.4336-13.2324 24.0723-8.44727 33.1543-8.44727ZM34.4238-19.5312C32.2754-19.5312 31.2988-20.5566 31.2988-22.6562L31.2988-47.5586C31.2988-49.707 32.2754-50.7324 34.4238-50.7324L53.8574-50.7324C55.6641-50.7324 56.9336-51.0254 58.3984-52.3926L83.4473-75.2441C83.7891-75.5859 84.1309-75.7812 84.5703-75.7812C85.0586-75.7812 85.4492-75.4395 85.4492-74.8047L85.4492 4.39453C85.4492 4.98047 85.0586 5.37109 84.5703 5.37109C84.2285 5.37109 83.8867 5.22461 83.4961 4.83398L58.3984-17.8223C56.9824-19.1406 55.6641-19.5312 53.8574-19.5312ZM119.336-6.98242C122.021-5.22461 125.488-5.85938 127.344-8.49609C132.52-15.4297 135.645-25 135.645-35.2051C135.645-45.459 132.52-55.0293 127.344-61.9629C125.488-64.5996 122.021-65.2344 119.336-63.4766C116.357-61.5234 115.723-57.8613 118.164-54.1992C121.777-49.0234 123.73-42.3828 123.73-35.2051C123.73-28.0762 121.777-21.4844 118.164-16.2598C115.771-12.5488 116.357-8.93555 119.336-6.98242Z"/>
  </g>
  <g id="Medium-L" transform="matrix(1 0 0 1 1670.6 1556)">
   <path d="M31.8848-9.32617L50.0977-9.32617C50.7324-9.32617 51.2695-9.13086 51.709-8.69141L79.9316 16.5039C82.8125 19.1406 85.1562 20.4102 88.1348 20.4102C92.4316 20.4102 95.5078 17.2363 95.5078 12.9883L95.5078-83.1543C95.5078-87.4023 92.4316-90.8691 88.0371-90.8691C85.1074-90.8691 83.0566-89.4531 79.9316-86.6699L51.709-61.4746C51.2207-61.084 50.7324-60.9375 50.0977-60.9375L31.8848-60.9375C23.3398-60.9375 19.043-56.4453 19.043-47.4609L19.043-22.7051C19.043-13.6719 23.3398-9.32617 31.8848-9.32617ZM32.7637-18.9941C30.4199-18.9941 29.3945-20.0684 29.3945-22.3633L29.3945-47.8027C29.3945-50.1465 30.4199-51.2207 32.7637-51.2207L52.4902-51.2207C54.248-51.2207 55.5176-51.5137 56.9824-52.8809L83.1543-76.7578C83.4961-77.0508 83.8379-77.2949 84.3262-77.2949C84.8145-77.2949 85.2051-76.9531 85.2051-76.3184L85.2051 5.85938C85.2051 6.49414 84.8145 6.88477 84.3262 6.88477C83.9355 6.88477 83.5938 6.68945 83.2031 6.29883L56.9824-17.334C55.5176-18.6035 54.248-18.9941 52.4902-18.9941ZM117.725-7.66602C120.02-6.15234 123.047-6.68945 124.756-9.08203C129.736-15.7227 132.861-25.1953 132.861-35.2051C132.861-45.2637 129.736-54.6875 124.756-61.377C123.047-63.7695 120.02-64.3066 117.725-62.7441C115.088-60.9863 114.551-57.7637 116.65-54.7363C120.459-49.4141 122.461-42.627 122.461-35.2051C122.461-27.7832 120.41-21.0938 116.65-15.7227C114.6-12.6465 115.088-9.47266 117.725-7.66602Z"/>
  </g>
  <g id="Regular-L" transform="matrix(1 0 0 1 1375.97 1556)">
   <path d="M30.2734-10.4492L48.7305-10.4492C49.3652-10.4492 49.9512-10.2051 50.4395-9.76562L79.3945 16.0645C81.9336 18.4082 84.1309 19.6289 86.8164 19.6289C90.5762 19.6289 93.2129 16.8457 93.2129 13.1348L93.2129-83.3008C93.2129-87.0117 90.5762-90.0879 86.7188-90.0879C84.0332-90.0879 82.2266-88.7207 79.3945-86.2305L50.4395-60.3516C49.9512-59.9121 49.3652-59.7656 48.7305-59.7656L30.2734-59.7656C22.4121-59.7656 18.5547-55.7617 18.5547-47.4609L18.5547-22.6562C18.5547-14.3066 22.4121-10.4492 30.2734-10.4492ZM30.6152-18.3105C28.0273-18.3105 26.9531-19.4336 26.9531-22.0215L26.9531-48.1445C26.9531-50.7324 28.0273-51.8555 30.6152-51.8555L50.6836-51.8555C52.3926-51.8555 53.6621-52.1484 55.127-53.4668L82.7637-78.6621C83.1543-79.0039 83.4961-79.2969 83.9844-79.2969C84.4727-79.2969 84.8633-78.9062 84.8633-78.3203L84.8633 7.8125C84.8633 8.44727 84.4727 8.78906 83.9844 8.78906C83.6426 8.78906 83.252 8.64258 82.8125 8.20312L55.127-16.6504C53.6621-17.9688 52.3926-18.3105 50.6836-18.3105ZM115.527-8.59375C117.383-7.32422 119.922-7.76367 121.338-9.81445C126.172-16.1621 129.199-25.3906 129.199-35.2051C129.199-45.0684 126.172-54.248 121.338-60.6445C119.922-62.6953 117.383-63.0859 115.527-61.8164C113.379-60.3027 113.037-57.666 114.697-55.4199C118.701-49.9512 120.85-42.9688 120.85-35.2051C120.85-27.4902 118.652-20.5566 114.697-14.9902C113.086-12.7441 113.379-10.1562 115.527-8.59375Z"/>
  </g>
  <g id="Light-L" transform="matrix(1 0 0 1 1081.11 1556)">
   <path d="M27.832-11.5234L46.8262-11.5234C47.6562-11.5234 48.291-11.2793 48.877-10.7422L78.4668 15.625C80.5176 17.4805 82.4219 18.5547 84.7168 18.5547C88.0371 18.5547 90.1367 16.1621 90.1367 12.9883L90.1367-83.252C90.1367-86.4746 88.0371-89.1113 84.668-89.1113C82.373-89.1113 80.7129-87.8906 78.4668-85.8887L48.877-59.2285C48.291-58.6914 47.6562-58.5449 46.8262-58.5449L27.832-58.5449C20.9473-58.5449 17.627-55.0293 17.627-47.9004L17.627-22.0703C17.627-14.8926 20.9961-11.5234 27.832-11.5234ZM28.0762-17.627C25.1953-17.627 24.0723-18.7988 24.0723-21.6797L24.0723-48.291C24.0723-51.2207 25.1953-52.3926 28.0762-52.3926L48.0469-52.3926C49.8535-52.3926 51.123-52.6367 52.6367-54.0527L81.3477-80.2734C81.7871-80.6641 82.1777-81.0059 82.7148-81.0059C83.3008-81.0059 83.6914-80.6641 83.6914-79.9805L83.6914 9.375C83.6914 10.1074 83.3008 10.498 82.7637 10.498C82.373 10.498 81.9824 10.3516 81.3965 9.81445L52.6367-15.9668C51.1719-17.2852 49.8535-17.627 48.0469-17.627ZM113.916-8.93555C115.381-7.95898 117.285-8.25195 118.408-9.81445C123.242-16.1133 126.416-25.1465 126.416-35.2539C126.416-45.3613 123.242-54.3457 118.408-60.6445C117.285-62.207 115.381-62.5488 113.916-61.4746C112.305-60.3516 112.012-58.3496 113.33-56.5918C117.773-50.5371 119.971-43.5547 119.971-35.2539C119.971-26.9043 117.725-19.9707 113.33-13.8672C112.061-12.1094 112.305-10.1074 113.916-8.93555Z"/>
  </g>
  <g id="Thin-L" transform="matrix(1 0 0 1 786.842 1556)">
   <path d="M24.6582-12.9883L44.3359-12.9883C45.4102-12.9883 46.0938-12.6953 46.7773-12.0605L77.2949 14.9902C78.6133 16.2598 80.127 17.1875 81.9824 17.1875C84.6191 17.1875 86.084 15.2344 86.084 12.7441L86.084-83.2031C86.084-85.7422 84.6191-87.793 81.9336-87.793C80.127-87.793 78.7109-86.7188 77.2949-85.498L46.7773-57.7148C46.0938-57.0801 45.4102-56.9336 44.3359-56.9336L24.6582-56.9336C18.9941-56.9336 16.4062-54.1016 16.4062-48.4863L16.4062-21.3379C16.4062-15.625 19.0918-12.9883 24.6582-12.9883ZM24.707-16.748C21.4355-16.748 20.3125-17.9688 20.3125-21.2402L20.3125-48.5352C20.3125-51.9043 21.4355-53.0762 24.707-53.0762L44.5312-53.0762C46.4844-53.0762 47.7539-53.3203 49.3164-54.7852L79.4922-82.373C80.0293-82.8613 80.4199-83.3008 81.1035-83.3008C81.7383-83.3008 82.1777-82.9102 82.1777-82.1289L82.1777 11.4746C82.1777 12.3047 81.7383 12.6953 81.1523 12.6953C80.7129 12.6953 80.3223 12.5488 79.541 11.8652L49.3164-15.0879C47.8516-16.3574 46.4844-16.748 44.5312-16.748ZM111.816-9.42383C112.744-8.74023 113.867-8.93555 114.502-9.86328C119.336-16.0645 122.754-24.8047 122.754-35.2539C122.754-45.7031 119.336-54.4434 114.502-60.6934C113.867-61.5723 112.744-61.7676 111.816-61.084C110.889-60.4004 110.693-59.2285 111.475-58.1543C116.504-51.3184 118.848-44.3848 118.848-35.2539C118.848-26.123 116.455-19.2383 111.475-12.3535C110.693-11.2793 110.889-10.1074 111.816-9.42383Z"/>
  </g>
  <g id="Ultralight-L" transform="matrix(1 0 0 1 491.376 1556)">
   <path d="M22.998-13.7695L43.0664-13.7695C44.2383-13.7695 44.9707-13.4277 45.752-12.7441L76.6602 14.6973C77.6367 15.6738 78.9551 16.5039 80.5664 16.5039C82.8613 16.5039 83.9844 14.7461 83.9844 12.5977L83.9844-83.2031C83.9844-85.3516 82.8613-87.1582 80.5664-87.1582C79.0039-87.1582 77.6855-86.1328 76.6602-85.2539L45.752-56.9336C44.9707-56.25 44.2383-56.1035 43.0664-56.1035L22.998-56.1035C18.0176-56.1035 15.7715-53.6133 15.7715-48.7793L15.7715-20.9473C15.7715-15.9668 18.1152-13.7695 22.998-13.7695ZM22.9492-16.3086C19.4824-16.3086 18.3594-17.5293 18.3594-20.9961L18.3594-48.6816C18.3594-52.2461 19.4824-53.4668 22.9492-53.4668L42.7246-53.4668C44.7754-53.4668 46.0449-53.7109 47.6074-55.1758L78.5156-83.4961C79.1016-83.9844 79.4922-84.4727 80.2734-84.4727C80.9082-84.4727 81.3965-84.082 81.3965-83.252L81.3965 12.5488C81.3965 13.4277 80.9082 13.8672 80.3223 13.8672C79.834 13.8672 79.4434 13.6719 78.6133 12.9395L47.6074-14.5996C46.1426-15.918 44.7754-16.3086 42.7246-16.3086ZM110.693-9.66797C111.377-9.17969 112.061-9.32617 112.549-9.86328C117.334-16.0156 120.85-24.6582 120.85-35.2539C120.85-45.8984 117.334-54.541 112.549-60.6934C112.061-61.2305 111.377-61.377 110.693-60.8887C110.156-60.4492 110.01-59.7168 110.547-58.9844C115.82-51.709 118.262-44.7754 118.262-35.2539C118.262-25.7324 115.82-18.8477 110.547-11.5723C110.01-10.8398 110.156-10.1074 110.693-9.66797Z"/>
  </g>
  <g id="Black-M" transform="matrix(1 0 0 1 2864.6 1126)">
   <path d="M32.0312-9.76562L45.2148-9.76562C45.4102-9.76562 45.6055-9.76562 45.8496-9.52148L64.3555 6.98242C67.8711 10.1074 70.5566 11.5723 74.2676 11.5723C80.0293 11.5723 84.5215 7.08008 84.5215 1.31836L84.5215-71.6797C84.5215-77.4902 80.0293-81.9336 74.2676-81.9336C70.8008-81.9336 67.9688-80.6152 64.3555-77.3926L45.8496-60.9375C45.5566-60.6934 45.4102-60.5957 45.2148-60.5957L32.0312-60.5957C22.2656-60.5957 16.8457-54.8828 16.8457-44.8242L16.8457-25.5859C16.8457-15.4785 22.2656-9.76562 32.0312-9.76562ZM101.758-9.13086C105.859-6.68945 110.693-7.71484 113.086-11.0352C117.92-17.8711 120.752-26.2695 120.752-35.2539C120.752-44.2871 117.92-52.6367 113.086-59.5703C110.693-62.8418 105.859-63.8184 101.758-61.377C97.4609-58.8379 96.3379-53.7598 100-47.3145C102.051-43.75 103.174-39.5996 103.174-35.2539C103.174-30.9082 102.051-26.7578 100-23.2422C96.3379-16.748 97.4609-11.6699 101.758-9.13086ZM35.3516-25.9277C34.668-25.9277 34.1797-26.4648 34.1797-27.0508L34.1797-43.3105C34.1797-43.9453 34.668-44.4824 35.3516-44.4824L48.7305-44.4824C50.3906-44.4824 51.5137-44.873 52.6367-45.8984L65.7227-58.0566C65.918-58.252 66.1621-58.3008 66.4062-58.3008C66.8457-58.3008 67.1875-58.0078 67.1875-57.4707L67.1875-12.8418C67.1875-12.3535 66.8457-11.9629 66.4062-11.9629C66.1621-11.9629 65.918-12.1094 65.7227-12.3047L52.6367-24.4629C51.5137-25.5371 50.3906-25.9277 48.7305-25.9277Z"/>
  </g>
  <g id="Heavy-M" transform="matrix(1 0 0 1 2570.38 1126)">
   <path d="M30.3223-11.084L43.7012-11.084C43.9453-11.084 44.1895-11.084 44.4824-10.791L63.8184 6.44531C67.041 9.32617 69.5312 10.6934 72.9004 10.6934C78.0762 10.6934 82.0312 6.73828 82.0312 1.5625L82.0312-71.875C82.0312-77.0508 78.0762-81.1035 72.8516-81.1035C69.6777-81.1035 67.1875-79.834 63.8184-76.8066L44.4824-59.6191C44.1406-59.375 43.9453-59.2773 43.7012-59.2773L30.3223-59.2773C21.2891-59.2773 16.4062-54.1016 16.4062-44.7266L16.4062-25.6348C16.4062-16.2598 21.2891-11.084 30.3223-11.084ZM99.0723-10.4004C102.637-8.25195 106.885-9.08203 108.984-12.1094C113.574-18.5059 116.26-26.6113 116.26-35.2539C116.26-43.8965 113.574-52.002 108.984-58.4473C106.885-61.377 102.637-62.2559 99.0723-60.1074C95.3613-57.8613 94.3848-53.3691 97.5586-47.998C99.8047-44.3359 101.025-39.8926 101.025-35.2539C101.025-30.6152 99.8047-26.1719 97.5586-22.5098C94.4336-17.0898 95.3613-12.6465 99.0723-10.4004ZM32.959-25.0977C31.9824-25.0977 31.4453-25.7324 31.4453-26.6113L31.4453-43.75C31.4453-44.6289 31.9824-45.2637 32.959-45.2637L46.875-45.2637C48.3887-45.2637 49.5117-45.6055 50.6348-46.6797L65.5273-60.4004C65.7715-60.5957 66.0156-60.6934 66.2598-60.6934C66.6992-60.6934 66.9922-60.3516 66.9922-59.9121L66.9922-10.4492C66.9922-9.96094 66.6992-9.61914 66.2598-9.61914C66.0156-9.61914 65.7715-9.76562 65.5273-9.96094L50.6348-23.7305C49.5117-24.7559 48.3887-25.0977 46.875-25.0977Z"/>
  </g>
  <g id="Bold-M" transform="matrix(1 0 0 1 2276.43 1126)">
   <path d="M28.418-12.5977L42.041-12.5977C42.334-12.5977 42.627-12.5 42.9199-12.207L63.1836 5.85938C66.0645 8.49609 68.3594 9.7168 71.3379 9.7168C75.8301 9.7168 79.248 6.29883 79.248 1.85547L79.248-72.1191C79.248-76.5625 75.8301-80.127 71.2891-80.127C68.457-80.127 66.2598-78.9062 63.1836-76.1719L42.9199-58.1543C42.5781-57.8613 42.334-57.7637 42.041-57.7637L28.418-57.7637C20.2148-57.7637 15.8691-53.2227 15.8691-44.6289L15.8691-25.6836C15.8691-17.0898 20.2148-12.5977 28.418-12.5977ZM30.2734-24.2188C29.0039-24.2188 28.3691-24.9023 28.3691-26.123L28.3691-44.2383C28.3691-45.459 29.0039-46.1426 30.2734-46.1426L44.7754-46.1426C46.2402-46.1426 47.2656-46.4355 48.3887-47.5098L65.332-62.9883C65.5762-63.2324 65.8203-63.3301 66.1133-63.3301C66.5039-63.3301 66.7969-63.0371 66.7969-62.5977L66.7969-7.8125C66.7969-7.32422 66.5039-7.03125 66.1133-7.03125C65.8203-7.03125 65.5762-7.12891 65.332-7.37305L48.3887-22.8516C47.2656-23.877 46.2402-24.2188 44.7754-24.2188ZM96.0938-11.7676C98.9746-9.96094 102.539-10.6934 104.395-13.2812C108.691-19.1895 111.23-27.002 111.23-35.2539C111.23-43.5059 108.691-51.2695 104.395-57.2266C102.539-59.8145 98.9746-60.498 96.0938-58.6914C92.9688-56.7383 92.2363-52.9785 94.8242-48.7793C97.3145-45.0195 98.6328-40.2344 98.6328-35.2539C98.6328-30.2246 97.2656-25.4883 94.8242-21.7285C92.2852-17.4805 92.9688-13.7207 96.0938-11.7676Z"/>
  </g>
  <g id="Semibold-M" transform="matrix(1 0 0 1 1981.62 1126)">
   <path d="M27.0996-13.623L40.8691-13.623C41.2109-13.623 41.5527-13.4766 41.8457-13.2324L62.7441 5.46875C65.4297 7.91016 67.5781 9.0332 70.3125 9.0332C74.3164 9.0332 77.2949 6.05469 77.2949 2.05078L77.2949-72.2656C77.2949-76.2695 74.3164-79.4434 70.2148-79.4434C67.5781-79.4434 65.6738-78.2715 62.7441-75.6836L41.8457-57.1289C41.5039-56.8359 41.2109-56.7383 40.8691-56.7383L27.0996-56.7383C19.4824-56.7383 15.5273-52.6367 15.5273-44.5801L15.5273-25.7324C15.5273-17.6758 19.4824-13.623 27.0996-13.623ZM28.418-23.584C26.9531-23.584 26.2207-24.3164 26.2207-25.7812L26.2207-44.5312C26.2207-45.9961 26.9531-46.7285 28.418-46.7285L43.3105-46.7285C44.7266-46.7285 45.7031-47.0215 46.8262-48.0469L65.1855-64.7949C65.4297-65.0391 65.6738-65.1855 65.9668-65.1855C66.3574-65.1855 66.6504-64.8926 66.6504-64.4531L66.6504-5.95703C66.6504-5.51758 66.3574-5.22461 65.9668-5.22461C65.7227-5.22461 65.4785-5.32227 65.1855-5.56641L46.8262-22.2656C45.7031-23.291 44.7266-23.584 43.3105-23.584ZM94.043-12.7441C96.4844-11.1816 99.6094-11.7676 101.221-14.1113C105.322-19.6289 107.764-27.2461 107.764-35.2051C107.764-43.2129 105.322-50.7812 101.221-56.3965C99.6094-58.6914 96.4844-59.2773 94.043-57.7148C91.3574-55.957 90.7715-52.6855 92.9688-49.2676C95.5566-45.459 97.0215-40.4785 97.0215-35.2051C97.0215-29.9805 95.5566-25 92.9688-21.1914C90.7715-17.7246 91.3574-14.502 94.043-12.7441Z"/>
  </g>
  <g id="Medium-M" transform="matrix(1 0 0 1 1686.37 1126)">
   <path d="M26.123-14.3555L39.9414-14.3555C40.332-14.3555 40.7227-14.2578 41.0156-13.9648L62.4512 5.17578C64.9414 7.4707 66.9434 8.54492 69.4824 8.54492C73.1445 8.54492 75.8789 5.81055 75.8789 2.19727L75.8789-72.3633C75.8789-76.0254 73.1445-78.9551 69.4336-78.9551C66.9434-78.9551 65.1855-77.832 62.4512-75.3418L41.0156-56.3477C40.7227-56.0547 40.332-55.957 39.9414-55.957L26.123-55.957C18.8965-55.957 15.2344-52.1484 15.2344-44.5312L15.2344-25.7812C15.2344-18.1152 18.9453-14.3555 26.123-14.3555ZM27.002-23.0957C25.3906-23.0957 24.6094-23.877 24.6094-25.4883L24.6094-44.7754C24.6094-46.4355 25.3906-47.2168 27.002-47.2168L42.2363-47.2168C43.5547-47.2168 44.5312-47.4609 45.6543-48.4863L65.0879-66.2109C65.332-66.4062 65.5762-66.5527 65.8691-66.5527C66.2598-66.5527 66.5527-66.3086 66.5527-65.8691L66.5527-4.58984C66.5527-4.10156 66.2598-3.85742 65.918-3.85742C65.625-3.85742 65.3809-3.95508 65.0879-4.19922L45.6543-21.8262C44.5312-22.8516 43.5547-23.0957 42.2363-23.0957ZM92.4805-13.4277C94.5801-12.1094 97.3145-12.5488 98.8281-14.6973C102.783-20.0195 105.127-27.4414 105.127-35.2051C105.127-42.9688 102.783-50.3906 98.8281-55.7617C97.3145-57.8613 94.5801-58.3496 92.4805-56.9336C90.0879-55.3711 89.6484-52.4902 91.5527-49.707C94.2383-45.8496 95.752-40.6738 95.752-35.2051C95.752-29.7852 94.2383-24.6582 91.5527-20.752C89.6484-17.9199 90.0879-15.0391 92.4805-13.4277Z"/>
  </g>
  <g id="Regular-M" transform="matrix(1 0 0 1 1391.54 1126)">
   <path d="M24.8047-15.3809L38.8184-15.3809C39.2578-15.3809 39.6484-15.2344 39.9902-14.9414L62.0117 4.78516C64.3066 6.88477 66.1621 7.86133 68.457 7.86133C71.6309 7.86133 73.9746 5.56641 73.9746 2.39258L73.9746-72.5098C73.9746-75.6836 71.6309-78.2715 68.3594-78.2715C66.0645-78.2715 64.5508-77.1973 62.0117-74.9023L39.9902-55.3711C39.6484-55.0781 39.2578-54.9316 38.8184-54.9316L24.8047-54.9316C18.1641-54.9316 14.8926-51.5625 14.8926-44.4824L14.8926-25.7812C14.8926-18.7012 18.2129-15.3809 24.8047-15.3809ZM25.1465-22.5098C23.3398-22.5098 22.5098-23.3398 22.5098-25.1465L22.5098-45.1172C22.5098-46.9727 23.3398-47.8027 25.1465-47.8027L40.7715-47.8027C42.041-47.8027 43.0176-48.0469 44.1406-49.0723L64.9414-67.9688C65.1855-68.2129 65.4297-68.3594 65.7715-68.3594C66.1133-68.3594 66.4062-68.1152 66.4062-67.6758L66.4062-2.7832C66.4062-2.34375 66.1133-2.05078 65.7715-2.05078C65.5273-2.05078 65.2344-2.19727 64.9414-2.44141L44.1406-21.2402C43.0176-22.2168 42.041-22.5098 40.7715-22.5098ZM90.4785-14.4043C92.0898-13.2812 94.3848-13.623 95.7031-15.5273C99.4629-20.459 101.709-27.7344 101.709-35.2051C101.709-42.6758 99.4629-49.9023 95.7031-54.8828C94.3848-56.7871 92.0898-57.1777 90.4785-56.0059C88.4766-54.6387 88.1836-52.1973 89.6973-50.1953C92.5293-46.2891 94.1406-40.8691 94.1406-35.2051C94.1406-29.541 92.4805-24.1699 89.6973-20.2148C88.2324-18.1641 88.4766-15.8203 90.4785-14.4043Z"/>
  </g>
  <g id="Light-M" transform="matrix(1 0 0 1 1096.49 1126)">
   <path d="M22.6562-16.3574L37.1094-16.3574C37.6953-16.3574 38.1836-16.2109 38.5742-15.8203L61.2305 4.39453C63.0371 6.05469 64.5996 6.93359 66.5527 6.93359C69.3359 6.93359 71.1914 4.93164 71.1914 2.19727L71.1914-72.4609C71.1914-75.1953 69.3359-77.4414 66.5039-77.4414C64.5508-77.4414 63.1836-76.416 61.2305-74.6582L38.5742-54.3457C38.1836-53.9551 37.6953-53.8574 37.1094-53.8574L22.6562-53.8574C16.8457-53.8574 14.0625-50.9277 14.0625-44.873L14.0625-25.293C14.0625-19.1895 16.8945-16.3574 22.6562-16.3574ZM22.9004-21.875C20.8008-21.875 19.9219-22.7539 19.9219-24.8535L19.9219-45.2637C19.9219-47.4121 20.8008-48.291 22.9004-48.291L38.4277-48.291C39.7461-48.291 40.7227-48.4863 41.8945-49.5605L63.6719-69.4336C63.9648-69.6777 64.2578-69.9219 64.6484-69.9219C65.0391-69.9219 65.3809-69.6777 65.3809-69.1406L65.3809-1.36719C65.3809-0.830078 65.0391-0.537109 64.6973-0.537109C64.3555-0.537109 64.1113-0.683594 63.7207-1.02539L41.8945-20.6055C40.7715-21.6309 39.7461-21.875 38.4277-21.875ZM89.0137-14.6973C90.332-13.8184 92.041-14.1113 93.0664-15.5273C96.8262-20.4102 99.2188-27.5391 99.2188-35.2051C99.2188-42.9199 96.8262-50 93.0664-54.9316C92.041-56.3477 90.332-56.6406 89.0137-55.7129C87.5-54.6875 87.2559-52.832 88.4277-51.2695C91.6992-46.8262 93.3594-41.4062 93.3594-35.2051C93.3594-29.0527 91.6504-23.6816 88.4277-19.1895C87.3047-17.5781 87.5-15.7715 89.0137-14.6973Z"/>
  </g>
  <g id="Thin-M" transform="matrix(1 0 0 1 801.979 1126)">
   <path d="M19.7754-17.6758L34.8633-17.6758C35.6445-17.6758 36.1816-17.4805 36.6699-16.9922L60.1074 3.80859C61.2793 4.93164 62.5977 5.71289 64.1113 5.71289C66.3086 5.71289 67.5781 4.10156 67.5781 2.00195L67.5781-72.4121C67.5781-74.5117 66.3086-76.2695 64.0625-76.2695C62.5488-76.2695 61.4258-75.3906 60.1074-74.2676L36.6699-52.9785C36.1816-52.5391 35.6445-52.3926 34.8633-52.3926L19.7754-52.3926C15.1367-52.3926 12.9395-50.0488 12.9395-45.3613L12.9395-24.6094C12.9395-19.873 15.1855-17.6758 19.7754-17.6758ZM19.873-21.0938C17.3828-21.0938 16.5527-22.0215 16.5527-24.4629L16.5527-45.5078C16.5527-47.998 17.3828-48.9258 19.873-48.9258L35.2539-48.9258C36.7188-48.9258 37.7441-49.1211 38.916-50.2441L61.9629-71.3379C62.3535-71.6797 62.6953-72.0215 63.1836-72.0215C63.6719-72.0215 64.0137-71.6797 64.0137-71.0938L64.0137 0.488281C64.0137 1.12305 63.6719 1.46484 63.2324 1.46484C62.8906 1.46484 62.5977 1.31836 62.0117 0.830078L38.916-19.8242C37.793-20.8008 36.7188-21.0938 35.2539-21.0938ZM87.1094-15.1367C87.9395-14.5508 88.9648-14.6973 89.5996-15.5762C93.3105-20.4102 95.8984-27.2461 95.8984-35.2539C95.8984-43.2617 93.3105-50.0977 89.5996-54.9316C88.9648-55.7617 87.9395-55.957 87.1094-55.3711C86.2305-54.7363 86.084-53.6621 86.7676-52.6855C90.5273-47.5098 92.334-42.1387 92.334-35.2539C92.334-28.3691 90.5273-22.998 86.7676-17.8223C86.084-16.8457 86.2305-15.7715 87.1094-15.1367Z"/>
  </g>
  <g id="Ultralight-M" transform="matrix(1 0 0 1 506.415 1126)">
   <path d="M18.3105-18.3594L33.7402-18.3594C34.6191-18.3594 35.1562-18.1152 35.7422-17.627L59.5703 3.56445C60.4004 4.39453 61.5234 5.07812 62.8418 5.07812C64.7461 5.07812 65.7227 3.66211 65.7227 1.85547L65.7227-72.4121C65.7227-74.1699 64.7461-75.6836 62.8418-75.6836C61.5234-75.6836 60.498-74.8535 59.5703-74.0723L35.7422-52.2949C35.1562-51.7578 34.6191-51.6602 33.7402-51.6602L18.3105-51.6602C14.2578-51.6602 12.4023-49.6094 12.4023-45.6055L12.4023-24.2676C12.4023-20.2148 14.3066-18.3594 18.3105-18.3594ZM18.3105-20.7031C15.6738-20.7031 14.7949-21.6309 14.7949-24.2676L14.7949-45.6055C14.7949-48.291 15.6738-49.2676 18.3105-49.2676L33.6426-49.2676C35.2051-49.2676 36.1816-49.4141 37.3535-50.5371L61.084-72.3145C61.5234-72.6562 61.8652-73.0469 62.4023-73.0469C62.9395-73.0469 63.2812-72.7539 63.2812-72.1191L63.2812 1.46484C63.2812 2.14844 62.9395 2.49023 62.5 2.49023C62.1094 2.49023 61.8164 2.34375 61.1816 1.75781L37.3535-19.3848C36.2305-20.4102 35.2051-20.7031 33.6426-20.7031ZM86.1328-15.332C86.7188-14.8926 87.3535-15.0391 87.793-15.5762C91.5527-20.3613 94.2383-27.0996 94.2383-35.2539C94.2383-43.457 91.5527-50.1465 87.793-54.9316C87.3535-55.4688 86.7188-55.6152 86.1328-55.1758C85.5957-54.7852 85.4492-54.0527 85.9375-53.3691C89.9414-47.9004 91.7969-42.5293 91.7969-35.2539C91.7969-27.9785 89.9414-22.6562 85.9375-17.1387C85.4492-16.4551 85.5957-15.7715 86.1328-15.332Z"/>
  </g>
  <g id="Black-S" transform="matrix(1 0 0 1 2879.66 696)">
   <path d="M25-15.3809L35.3516-15.3809C35.498-15.3809 35.6445-15.3809 35.8398-15.1855L50.3906-2.19727C53.125 0.244141 55.2246 1.36719 58.1055 1.36719C62.5977 1.36719 66.0645-2.09961 66.0645-6.5918L66.0645-63.8184C66.0645-68.3105 62.5977-71.7773 58.1055-71.7773C55.4199-71.7773 53.2227-70.752 50.3906-68.2129L35.8398-55.2734C35.5957-55.0781 35.498-55.0293 35.3516-55.0293L25-55.0293C17.3828-55.0293 13.1836-50.5859 13.1836-42.7246L13.1836-27.6855C13.1836-19.8242 17.3828-15.3809 25-15.3809ZM79.541-14.8926C82.7148-12.9883 86.4746-13.7695 88.3301-16.3574C92.0898-21.6797 94.2871-28.2227 94.2871-35.2539C94.2871-42.2852 92.0898-48.8281 88.3301-54.1992C86.4746-56.7383 82.7148-57.5195 79.541-55.6152C76.2207-53.6621 75.3418-49.707 78.1738-44.7266C79.7852-41.9434 80.6641-38.6719 80.6641-35.2539C80.6641-31.8359 79.7852-28.5645 78.1738-25.7812C75.3418-20.8008 76.2207-16.8457 79.541-14.8926ZM27.5391-27.8809C27.002-27.8809 26.6113-28.3203 26.6113-28.8086L26.6113-41.6016C26.6113-42.0898 27.002-42.5293 27.5391-42.5293L38.0859-42.5293C39.3555-42.5293 40.2344-42.8223 41.1133-43.6523L51.5137-53.2715C51.6602-53.418 51.8555-53.4668 52.0508-53.4668C52.3926-53.4668 52.6367-53.2227 52.6367-52.832L52.6367-17.5293C52.6367-17.1387 52.3926-16.8457 52.0508-16.8457C51.8555-16.8457 51.6602-16.9434 51.5137-17.0898L41.1133-26.7578C40.2344-27.5879 39.3555-27.8809 38.0859-27.8809Z"/>
  </g>
  <g id="Heavy-S" transform="matrix(1 0 0 1 2584.66 696)">
   <path d="M23.9258-16.2598L34.375-16.2598C34.5703-16.2598 34.7168-16.2598 34.9121-16.0645L50.0488-2.53906C52.6367-0.244141 54.5898 0.78125 57.2754 0.78125C61.3281 0.78125 64.4531-2.29492 64.4531-6.39648L64.4531-63.9648C64.4531-68.0176 61.3281-71.1914 57.2266-71.1914C54.7363-71.1914 52.7344-70.2148 50.0488-67.8223L34.9121-54.3945C34.7168-54.1992 34.5703-54.1016 34.375-54.1016L23.9258-54.1016C16.7969-54.1016 12.9395-50.0488 12.9395-42.627L12.9395-27.7832C12.9395-20.3613 16.7969-16.2598 23.9258-16.2598ZM77.6367-15.8203C80.4199-14.1113 83.7891-14.7949 85.4492-17.1875C89.0137-22.168 91.1133-28.5156 91.1133-35.2539C91.1133-41.9922 89.0137-48.3398 85.4492-53.3691C83.7891-55.7129 80.4199-56.3477 77.6367-54.6875C74.707-52.8809 73.9746-49.3652 76.416-45.1172C78.1738-42.334 79.1016-38.8184 79.1016-35.2539C79.1016-31.6406 78.125-28.1738 76.416-25.3418C73.9746-21.0938 74.707-17.5781 77.6367-15.8203ZM25.9766-27.3438C25.2441-27.3438 24.8047-27.832 24.8047-28.5156L24.8047-41.8945C24.8047-42.5781 25.2441-43.0664 25.9766-43.0664L36.9141-43.0664C38.0859-43.0664 38.9648-43.3594 39.8438-44.1895L51.5137-54.8828C51.6602-55.0293 51.8555-55.127 52.0508-55.127C52.3926-55.127 52.5879-54.8828 52.5879-54.4922L52.5879-15.8691C52.5879-15.4785 52.3926-15.2344 52.0508-15.2344C51.8555-15.2344 51.6602-15.332 51.5137-15.4785L39.8438-26.2207C38.9648-27.0508 38.0859-27.3438 36.9141-27.3438Z"/>
  </g>
  <g id="Bold-S" transform="matrix(1 0 0 1 2289.88 696)">
   <path d="M22.7539-17.2852L33.3008-17.2852C33.4961-17.2852 33.6914-17.2363 33.9355-17.041L49.707-2.92969C52.0508-0.78125 53.9062 0.195312 56.2988 0.195312C59.9121 0.195312 62.6465-2.53906 62.6465-6.15234L62.6465-64.1113C62.6465-67.7246 59.9121-70.6055 56.25-70.6055C53.9551-70.6055 52.2461-69.6289 49.707-67.334L33.9355-53.3691C33.6914-53.1738 33.4961-53.125 33.3008-53.125L22.7539-53.125C16.1133-53.125 12.6465-49.4629 12.6465-42.5293L12.6465-27.8809C12.6465-20.9473 16.1133-17.2852 22.7539-17.2852ZM24.1699-26.709C23.2422-26.709 22.7539-27.2461 22.7539-28.1738L22.7539-42.2363C22.7539-43.1641 23.2422-43.7012 24.1699-43.7012L35.5957-43.7012C36.7188-43.7012 37.5-43.9453 38.3789-44.7266L51.5137-56.7383C51.6602-56.8848 51.8555-56.9336 52.0508-56.9336C52.3438-56.9336 52.5879-56.7383 52.5879-56.3965L52.5879-14.0137C52.5879-13.6719 52.3438-13.4277 52.0508-13.4277C51.8555-13.4277 51.6602-13.5254 51.5137-13.6719L38.3789-25.6836C37.5-26.4648 36.7188-26.709 35.5957-26.709ZM75.5371-16.8457C77.832-15.3809 80.7617-15.918 82.2754-18.0664C85.6445-22.6562 87.5488-28.8574 87.5488-35.2539C87.5488-41.6016 85.6445-47.7539 82.2754-52.4414C80.7617-54.541 77.832-55.0781 75.5371-53.6133C72.998-52.0508 72.4121-48.9746 74.5117-45.6055C76.3184-42.7734 77.3926-39.0137 77.3926-35.2539C77.3926-31.4453 76.3184-27.6855 74.5117-24.8535C72.4121-21.4844 72.998-18.4082 75.5371-16.8457Z"/>
  </g>
  <g id="Semibold-S" transform="matrix(1 0 0 1 1994.49 696)">
   <path d="M21.9238-17.9688L32.5195-17.9688C32.7637-17.9688 33.0078-17.9199 33.2031-17.7246L49.4141-3.22266C51.6602-1.17188 53.418-0.244141 55.6641-0.244141C58.9355-0.244141 61.4258-2.68555 61.4258-5.95703L61.4258-64.2578C61.4258-67.5293 58.9355-70.166 55.6152-70.166C53.418-70.166 51.8555-69.1895 49.4141-67.041L33.2031-52.6855C33.0078-52.4902 32.7637-52.3926 32.5195-52.3926L21.9238-52.3926C15.6738-52.3926 12.4023-49.0723 12.4023-42.4316L12.4023-27.9785C12.4023-21.3379 15.6738-17.9688 21.9238-17.9688ZM22.9492-26.2695C21.875-26.2695 21.3379-26.8555 21.3379-27.9297L21.3379-42.4805C21.3379-43.5547 21.875-44.0918 22.9492-44.0918L34.668-44.0918C35.7422-44.0918 36.5234-44.3359 37.4023-45.1172L51.5137-58.0078C51.6602-58.1543 51.8555-58.2031 52.0508-58.2031C52.3438-58.2031 52.5391-58.0078 52.5391-57.666L52.5391-12.6953C52.5391-12.4023 52.3438-12.1582 52.0508-12.1582C51.8555-12.1582 51.6602-12.2559 51.5137-12.4023L37.4023-25.2441C36.5234-26.0742 35.7422-26.2695 34.668-26.2695ZM74.0723-17.5293C76.0742-16.2598 78.7109-16.6992 80.0781-18.7012C83.3008-23.0469 85.1074-29.0527 85.1074-35.2051C85.1074-41.3574 83.3008-47.3633 80.0781-51.7578C78.7109-53.7109 76.0742-54.1992 74.0723-52.8809C71.8262-51.416 71.3379-48.7305 73.1934-45.8984C75.0977-43.1152 76.1719-39.1602 76.1719-35.2051C76.1719-31.2988 75.0488-27.3926 73.1934-24.5605C71.3867-21.7285 71.8262-18.9941 74.0723-17.5293Z"/>
  </g>
  <g id="Medium-S" transform="matrix(1 0 0 1 1698.78 696)">
   <path d="M21.2891-18.5059L31.9824-18.5059C32.2266-18.5059 32.4707-18.4082 32.666-18.2129L49.2188-3.41797C51.3672-1.46484 53.0762-0.585938 55.1758-0.585938C58.2031-0.585938 60.498-2.83203 60.498-5.85938L60.498-64.3555C60.498-67.3828 58.2031-69.8242 55.0781-69.8242C53.0273-69.8242 51.6113-68.8965 49.2188-66.7969L32.666-52.1973C32.4707-51.9531 32.2266-51.9043 31.9824-51.9043L21.2891-51.9043C15.332-51.9043 12.2559-48.7305 12.2559-42.3828L12.2559-28.0273C12.2559-21.6309 15.332-18.5059 21.2891-18.5059ZM22.0215-25.9766C20.8496-25.9766 20.2637-26.5625 20.2637-27.7344L20.2637-42.6758C20.2637-43.8477 20.8496-44.4336 22.0215-44.4336L33.9844-44.4336C35.0098-44.4336 35.791-44.6289 36.6699-45.459L51.5137-58.9355C51.6602-59.082 51.8555-59.1797 52.0508-59.1797C52.3438-59.1797 52.5391-58.9844 52.5391-58.6426L52.5391-11.7676C52.5391-11.4258 52.3438-11.2305 52.0508-11.2305C51.8555-11.2305 51.6602-11.3281 51.5137-11.4746L36.6699-24.9512C35.791-25.7324 35.0098-25.9766 33.9844-25.9766ZM72.998-18.0664C74.7559-16.8945 77.0996-17.334 78.418-19.1406C81.4941-23.3398 83.252-29.248 83.252-35.2051C83.252-41.2109 81.4941-47.0703 78.418-51.2695C77.0996-53.125 74.7559-53.5156 72.998-52.3438C70.9473-50.9766 70.5566-48.4863 72.168-46.1426C74.1211-43.3105 75.293-39.2578 75.293-35.2051C75.293-31.1523 74.1211-27.1484 72.168-24.2676C70.5566-21.875 70.9473-19.4336 72.998-18.0664Z"/>
  </g>
  <g id="Regular-S" transform="matrix(1 0 0 1 1403.38 696)">
   <path d="M20.5078-19.1895L31.2012-19.1895C31.4941-19.1895 31.7871-19.0918 31.9824-18.8965L48.9746-3.66211C51.0254-1.85547 52.5879-1.02539 54.541-1.02539C57.2266-1.02539 59.2773-2.97852 59.2773-5.71289L59.2773-64.4531C59.2773-67.1387 57.2266-69.3848 54.4434-69.3848C52.4902-69.3848 51.2207-68.5059 48.9746-66.4551L31.9824-51.5137C31.7871-51.3184 31.4941-51.2207 31.2012-51.2207L20.5078-51.2207C14.8438-51.2207 12.0605-48.3398 12.0605-42.2852L12.0605-28.0762C12.0605-22.0703 14.8926-19.1895 20.5078-19.1895ZM20.8008-25.5371C19.5312-25.5371 18.8477-26.1719 18.8477-27.4902L18.8477-42.9199C18.8477-44.1895 19.5312-44.873 20.8008-44.873L33.1055-44.873C34.0332-44.873 34.7656-45.0195 35.6445-45.8496L51.5137-60.2051C51.6602-60.3516 51.8555-60.4492 52.0508-60.4492C52.2949-60.4492 52.4902-60.2539 52.4902-59.9609L52.4902-10.498C52.4902-10.1562 52.2949-9.96094 52.0508-9.96094C51.8555-9.96094 51.6602-10.0586 51.5137-10.2539L35.6445-24.5605C34.7656-25.3418 34.0332-25.5371 33.1055-25.5371ZM71.5332-18.75C72.998-17.7734 75.0488-18.0664 76.2207-19.7754C79.1504-23.6816 80.8594-29.4434 80.8594-35.2051C80.8594-40.9668 79.1504-46.6797 76.2207-50.6348C75.0488-52.3438 72.998-52.6367 71.5332-51.6113C69.7754-50.3906 69.4824-48.2422 70.8496-46.4355C72.9004-43.6523 74.0723-39.4043 74.0723-35.2051C74.0723-31.0059 72.8516-26.8066 70.8496-23.9746C69.5312-22.1191 69.7754-20.0195 71.5332-18.75Z"/>
  </g>
  <g id="Light-S" transform="matrix(1 0 0 1 1108.14 696)">
   <path d="M18.6035-20.0684L29.7363-20.0684C30.127-20.0684 30.4688-19.9219 30.7617-19.6777L48.2422-4.05273C49.8535-2.58789 51.2207-1.85547 52.8809-1.85547C55.2246-1.85547 56.8359-3.51562 56.8359-5.85938L56.8359-64.4043C56.8359-66.6992 55.2246-68.6035 52.832-68.6035C51.1719-68.6035 50.0488-67.7734 48.2422-66.2109L30.7617-50.5859C30.4688-50.3418 30.127-50.2441 29.7363-50.2441L18.6035-50.2441C13.7207-50.2441 11.3281-47.7539 11.3281-42.627L11.3281-27.6367C11.3281-22.5098 13.7207-20.0684 18.6035-20.0684ZM18.7988-25C17.2363-25 16.6016-25.6836 16.6016-27.2461L16.6016-43.0664C16.6016-44.6289 17.2363-45.2637 18.7988-45.2637L31.0059-45.2637C32.0312-45.2637 32.7637-45.459 33.6914-46.2891L50.3906-61.4746C50.5859-61.6699 50.7812-61.8164 51.0742-61.8164C51.3672-61.8164 51.6113-61.6211 51.6113-61.2305L51.6113-9.22852C51.6113-8.83789 51.3672-8.64258 51.0742-8.64258C50.8789-8.64258 50.6348-8.74023 50.3906-8.98438L33.6914-24.0234C32.8125-24.8047 32.0312-25 31.0059-25ZM70.2637-19.043C71.4355-18.2617 72.998-18.5059 73.9258-19.7754C76.8555-23.6328 78.6621-29.248 78.6621-35.2051C78.6621-41.1621 76.8555-46.7773 73.9258-50.6348C72.998-51.9531 71.4355-52.1973 70.2637-51.3672C68.8965-50.4395 68.7012-48.7793 69.7266-47.4121C72.168-44.0918 73.4375-39.8926 73.4375-35.2051C73.4375-30.5664 72.1191-26.3672 69.7266-23.0469C68.75-21.6309 68.8965-20.0195 70.2637-19.043Z"/>
  </g>
  <g id="Thin-S" transform="matrix(1 0 0 1 813.356 696)">
   <path d="M16.0645-21.2402L27.7344-21.2402C28.3203-21.2402 28.7109-21.0449 29.1016-20.7031L47.3145-4.54102C48.3398-3.51562 49.4141-2.92969 50.6836-2.92969C52.5391-2.92969 53.6133-4.24805 53.6133-6.00586L53.6133-64.4043C53.6133-66.1621 52.5391-67.5781 50.6836-67.5781C49.4141-67.5781 48.4375-66.8945 47.3145-65.8691L29.1016-49.4141C28.7109-49.0723 28.3203-48.9746 27.7344-48.9746L16.0645-48.9746C12.207-48.9746 10.3516-47.0215 10.3516-43.0664L10.3516-27.0508C10.3516-23.0469 12.207-21.2402 16.0645-21.2402ZM16.1133-24.3164C14.2578-24.3164 13.623-25.0488 13.623-26.9043L13.623-43.2129C13.623-45.1172 14.2578-45.8496 16.1133-45.8496L28.2227-45.8496C29.3457-45.8496 30.127-45.9961 31.0547-46.8262L48.877-63.1348C49.1699-63.3789 49.4141-63.623 49.8047-63.623C50.1465-63.623 50.3906-63.4277 50.3906-62.9883L50.3906-7.56836C50.3906-7.12891 50.1465-6.88477 49.8047-6.88477C49.5605-6.88477 49.3164-6.98242 48.9258-7.32422L31.0547-23.291C30.1758-24.0723 29.3457-24.3164 28.2227-24.3164ZM68.6035-19.3848C69.3359-18.8965 70.2637-19.043 70.8496-19.8242C73.7793-23.6328 75.7812-29.0039 75.7812-35.2539C75.7812-41.4551 73.7793-46.875 70.8496-50.6836C70.2637-51.4648 69.3359-51.6113 68.6035-51.0742C67.8223-50.4883 67.6758-49.5117 68.3105-48.6328C71.1426-44.7266 72.5586-40.5273 72.5586-35.2539C72.5586-29.9805 71.1426-25.7812 68.3105-21.875C67.6758-20.9961 67.8223-19.9707 68.6035-19.3848Z"/>
  </g>
  <g id="Ultralight-S" transform="matrix(1 0 0 1 517.646 696)">
   <path d="M14.7461-21.8262L26.7578-21.8262C27.3926-21.8262 27.832-21.6309 28.2715-21.2402L46.8262-4.78516C47.6074-4.05273 48.4863-3.4668 49.5605-3.4668C51.1719-3.4668 52.002-4.63867 52.002-6.15234L52.002-64.3555C52.002-65.8203 51.1719-67.041 49.5605-67.041C48.4863-67.041 47.6562-66.4062 46.8262-65.7227L28.2715-48.7793C27.832-48.3887 27.3926-48.291 26.7578-48.291L14.7461-48.291C11.4258-48.291 9.86328-46.6309 9.86328-43.3105L9.86328-26.709C9.86328-23.3887 11.4746-21.8262 14.7461-21.8262ZM14.7461-23.9746C12.7441-23.9746 12.0605-24.707 12.0605-26.709L12.0605-43.3594C12.0605-45.4102 12.7441-46.1426 14.7461-46.1426L26.8066-46.1426C27.9785-46.1426 28.7598-46.2891 29.6875-47.168L48.1445-64.0137C48.4375-64.3066 48.6816-64.5996 49.1211-64.5996C49.5117-64.5996 49.8047-64.3555 49.8047-63.8672L49.8047-6.73828C49.8047-6.20117 49.5117-5.95703 49.1699-5.95703C48.877-5.95703 48.6328-6.05469 48.1934-6.49414L29.6875-22.9492C28.8086-23.7305 27.9785-23.9746 26.8066-23.9746ZM67.7246-19.5801C68.2617-19.1895 68.8965-19.3359 69.2383-19.8242C72.168-23.584 74.2676-28.9062 74.2676-35.2539C74.2676-41.6016 72.168-46.9238 69.2383-50.6836C68.8965-51.1719 68.2617-51.2695 67.7246-50.9277C67.2363-50.5371 67.1387-49.8535 67.5781-49.2676C70.6055-45.0684 72.0703-40.8203 72.0703-35.2539C72.0703-29.6387 70.6055-25.4395 67.5781-21.2402C67.1387-20.6543 67.2363-19.9707 67.7246-19.5801Z"/>
  </g>
 </g>
</svg>
