<?xml version="1.0" encoding="UTF-8" standalone="no"?>
<!DOCTYPE svg PUBLIC "-//W3C//DTD SVG 1.1//EN" "http://www.w3.org/Graphics/SVG/1.1/DTD/svg11.dtd">
<svg width="100%" height="100%" viewBox="0 0 720 720" version="1.1" xmlns="http://www.w3.org/2000/svg" xmlns:xlink="http://www.w3.org/1999/xlink" xml:space="preserve" xmlns:serif="http://www.serif.com/" style="fill-rule:evenodd;clip-rule:evenodd;stroke-linejoin:round;stroke-miterlimit:2;">
    <g transform="matrix(1.00628,0.269633,-0.322362,1.20307,-166.912,-364.608)">
        <g>
            <path d="M688.647,164.035C696.109,164.437 702.246,169.104 703.433,175.279C705.212,184.454 707.761,197.712 709.467,206.587C710.54,212.171 715.688,216.592 722.334,217.638C735.557,219.762 748.579,222.681 761.306,226.357C767.68,228.229 774.772,226.554 779.036,222.172C785.832,215.21 795.964,204.793 802.977,197.584C807.701,192.727 815.814,191.25 822.524,194.026C834.796,199.178 846.699,204.926 858.161,211.252C864.383,214.721 866.908,221.329 864.244,227.173C860.301,235.863 854.582,248.41 850.754,256.809C848.346,262.095 850.161,268.076 855.292,271.761C865.473,279.131 875.006,287.104 883.831,295.61C888.231,299.897 895.374,301.413 901.686,299.401C911.734,296.214 926.736,291.43 937.119,288.12C944.113,285.889 952.022,288.003 956.173,293.213C963.722,302.807 970.594,312.763 976.739,323.035C980.053,328.641 978.29,335.42 972.49,339.367C963.88,345.243 951.427,353.719 943.091,359.391C937.846,362.961 935.842,368.901 938.083,374.238C942.494,384.878 945.984,395.771 948.542,406.828C949.79,412.381 955.07,416.681 961.74,417.578C972.346,419.02 988.197,421.151 999.17,422.626C1006.56,423.62 1012.15,428.76 1012.63,435.009C1013.43,446.473 1013.43,457.967 1012.61,469.43C1012.13,475.673 1006.55,480.808 999.167,481.801C988.198,483.289 972.346,485.421 961.736,486.847C955.059,487.745 949.774,492.051 948.524,497.61C945.984,508.67 942.495,519.562 938.1,530.207C935.862,535.538 937.864,541.471 943.103,545.037C951.427,550.721 963.88,559.197 972.5,565.063C978.306,569.014 980.071,575.799 976.754,581.411C970.594,591.677 963.722,601.633 956.16,611.219C952.012,616.424 944.112,618.536 937.125,616.308C926.736,613.01 911.734,608.226 901.693,605.025C895.374,603.01 888.223,604.528 883.817,608.82C875.006,617.336 865.473,625.31 855.303,632.691C850.178,636.372 848.366,642.347 850.772,647.626C854.582,656.03 860.301,668.578 864.259,677.263C866.926,683.113 864.398,689.728 858.17,693.201C846.699,699.515 834.796,705.262 822.516,710.402C815.813,713.175 807.709,711.7 802.989,706.848C795.964,699.647 785.832,689.23 779.05,682.258C774.782,677.871 767.681,676.195 761.3,678.069C748.579,681.759 735.557,684.678 722.337,686.817C715.699,687.862 710.557,692.278 709.485,697.856C707.761,706.728 705.212,719.986 703.448,729.163C702.261,735.345 696.118,740.016 688.648,740.419C674.94,741.09 661.196,741.09 647.488,740.405C640.026,740.003 633.889,735.336 632.702,729.161C630.923,719.986 628.375,706.728 626.669,697.854C625.596,692.269 620.448,687.848 613.802,686.802C600.579,684.678 587.557,681.759 574.83,678.083C568.456,676.211 561.364,677.886 557.1,682.268C550.304,689.23 540.172,699.647 533.159,706.856C528.435,711.713 520.322,713.19 513.612,710.414C501.339,705.263 489.437,699.515 477.975,693.189C471.753,689.72 469.228,683.112 471.892,677.268C475.835,668.578 481.554,656.03 485.382,647.632C487.79,642.346 485.975,636.365 480.845,632.68C470.663,625.31 461.13,617.336 452.305,608.83C447.905,604.543 440.762,603.027 434.45,605.039C424.402,608.226 409.4,613.01 399.017,616.32C392.023,618.551 384.114,616.437 379.963,611.227C372.414,601.633 365.542,591.677 359.397,581.405C356.083,575.799 357.846,569.02 363.646,565.073C372.256,559.197 384.709,550.721 393.044,545.049C398.29,541.479 400.294,535.539 398.053,530.202C393.641,519.562 390.152,508.67 387.594,497.613C386.346,492.06 381.066,487.76 374.397,486.863C363.79,485.42 347.939,483.289 336.967,481.813C329.577,480.82 323.992,475.682 323.511,469.434C322.709,457.968 322.709,446.472 323.527,435.007C324.008,428.766 329.587,423.633 336.97,422.64C347.939,421.152 363.79,419.02 374.399,417.594C381.076,416.696 386.362,412.39 387.612,406.831C390.152,395.771 393.642,384.878 398.036,374.232C400.274,368.902 398.272,362.969 393.033,359.403C384.709,353.719 372.256,345.243 363.636,339.377C357.83,335.426 356.065,328.641 359.382,323.029C365.542,312.763 372.414,302.807 379.976,293.221C384.124,288.016 392.024,285.904 399.011,288.132C409.4,291.43 424.402,296.214 434.443,299.415C440.762,301.43 447.913,299.912 452.319,295.62C461.13,287.104 470.663,279.131 480.832,271.75C485.957,268.069 487.77,262.094 485.364,256.815C481.554,248.41 475.835,235.863 471.877,227.178C469.21,221.328 471.738,214.713 477.966,211.24C489.437,204.926 501.339,199.178 513.62,194.038C520.323,191.265 528.427,192.74 533.147,197.592C540.172,204.793 550.304,215.21 557.086,222.182C561.354,226.569 568.455,228.245 574.836,226.371C587.557,222.681 600.579,219.762 613.798,217.623C620.437,216.578 625.579,212.162 626.651,206.584C628.375,197.712 630.923,184.454 632.687,175.278C633.874,169.096 640.018,164.424 647.488,164.022C661.196,163.351 674.94,163.351 688.647,164.035Z" style="fill:rgb(170,170,170);"/>
        </g>
    </g>
</svg>
