<?xml version="1.0" encoding="UTF-8"?>
<!--Generator: Apple Native CoreSVG 149-->
<!DOCTYPE svg
PUBLIC "-//W3C//DTD SVG 1.1//EN"
       "http://www.w3.org/Graphics/SVG/1.1/DTD/svg11.dtd">
<svg version="1.1" xmlns="http://www.w3.org/2000/svg" xmlns:xlink="http://www.w3.org/1999/xlink" width="3300" height="2200">
 <!--glyph: "uni1002A2.medium", point size: 100.000000, font version: "Version 16.0d12e3", template writer version: "8"-->
 <g id="Notes">
  <rect height="2200" id="artboard" style="fill:white;opacity:1" width="3300" x="0" y="0"/>
  <line id="" style="fill:none;stroke:black;opacity:1;stroke-width:0.5;" x1="263" x2="3036" y1="292" y2="292"/>
  <text style="stroke:none;fill:black;font-family:-apple-system,&quot;SF Pro Display&quot;,&quot;SF Pro Text&quot;,Helvetica,sans-serif;font-weight:bold;" transform="matrix(1 0 0 1 263 322)">Weight/Scale Variations</text>
  <text style="stroke:none;fill:black;font-family:-apple-system,&quot;SF Pro Display&quot;,&quot;SF Pro Text&quot;,Helvetica,sans-serif;text-anchor:middle;" transform="matrix(1 0 0 1 559.711 322)">Ultralight</text>
  <text style="stroke:none;fill:black;font-family:-apple-system,&quot;SF Pro Display&quot;,&quot;SF Pro Text&quot;,Helvetica,sans-serif;text-anchor:middle;" transform="matrix(1 0 0 1 856.422 322)">Thin</text>
  <text style="stroke:none;fill:black;font-family:-apple-system,&quot;SF Pro Display&quot;,&quot;SF Pro Text&quot;,Helvetica,sans-serif;text-anchor:middle;" transform="matrix(1 0 0 1 1153.13 322)">Light</text>
  <text style="stroke:none;fill:black;font-family:-apple-system,&quot;SF Pro Display&quot;,&quot;SF Pro Text&quot;,Helvetica,sans-serif;text-anchor:middle;" transform="matrix(1 0 0 1 1449.84 322)">Regular</text>
  <text style="stroke:none;fill:black;font-family:-apple-system,&quot;SF Pro Display&quot;,&quot;SF Pro Text&quot;,Helvetica,sans-serif;text-anchor:middle;" transform="matrix(1 0 0 1 1746.56 322)">Medium</text>
  <text style="stroke:none;fill:black;font-family:-apple-system,&quot;SF Pro Display&quot;,&quot;SF Pro Text&quot;,Helvetica,sans-serif;text-anchor:middle;" transform="matrix(1 0 0 1 2043.27 322)">Semibold</text>
  <text style="stroke:none;fill:black;font-family:-apple-system,&quot;SF Pro Display&quot;,&quot;SF Pro Text&quot;,Helvetica,sans-serif;text-anchor:middle;" transform="matrix(1 0 0 1 2339.98 322)">Bold</text>
  <text style="stroke:none;fill:black;font-family:-apple-system,&quot;SF Pro Display&quot;,&quot;SF Pro Text&quot;,Helvetica,sans-serif;text-anchor:middle;" transform="matrix(1 0 0 1 2636.69 322)">Heavy</text>
  <text style="stroke:none;fill:black;font-family:-apple-system,&quot;SF Pro Display&quot;,&quot;SF Pro Text&quot;,Helvetica,sans-serif;text-anchor:middle;" transform="matrix(1 0 0 1 2933.4 322)">Black</text>
  <line id="" style="fill:none;stroke:black;opacity:1;stroke-width:0.5;" x1="263" x2="3036" y1="1903" y2="1903"/>
  <g id="" transform="matrix(1 0 0 1 263 1933)">
   <path d="M9.24805 0.830078C13.5547 0.830078 17.1387-2.74414 17.1387-7.05078C17.1387-11.3574 13.5449-14.9316 9.23828-14.9316C4.94141-14.9316 1.36719-11.3574 1.36719-7.05078C1.36719-2.74414 4.95117 0.830078 9.24805 0.830078ZM9.24805-0.654297C5.70312-0.654297 2.87109-3.49609 2.87109-7.05078C2.87109-10.6055 5.69336-13.4473 9.23828-13.4473C12.793-13.4473 15.6348-10.6055 15.6445-7.05078C15.6543-3.49609 12.8027-0.654297 9.24805-0.654297ZM9.22852-3.62305C9.69727-3.62305 9.9707-3.93555 9.9707-4.45312L9.9707-6.31836L12.002-6.31836C12.5-6.31836 12.832-6.57227 12.832-7.04102C12.832-7.51953 12.5195-7.7832 12.002-7.7832L9.9707-7.7832L9.9707-9.81445C9.9707-10.332 9.69727-10.6543 9.22852-10.6543C8.75977-10.6543 8.50586-10.3125 8.50586-9.81445L8.50586-7.7832L6.49414-7.7832C5.97656-7.7832 5.64453-7.51953 5.64453-7.04102C5.64453-6.57227 5.99609-6.31836 6.49414-6.31836L8.50586-6.31836L8.50586-4.45312C8.50586-3.95508 8.75977-3.62305 9.22852-3.62305Z"/>
  </g>
  <g id="" transform="matrix(1 0 0 1 281.506 1933)">
   <path d="M11.709 2.91016C17.1582 2.91016 21.6699-1.61133 21.6699-7.05078C21.6699-12.5 17.1484-17.0117 11.6992-17.0117C6.25977-17.0117 1.74805-12.5 1.74805-7.05078C1.74805-1.61133 6.26953 2.91016 11.709 2.91016ZM11.709 1.25C7.09961 1.25 3.41797-2.44141 3.41797-7.05078C3.41797-11.6602 7.08984-15.3516 11.6992-15.3516C16.3086-15.3516 20-11.6602 20.0098-7.05078C20.0195-2.44141 16.3184 1.25 11.709 1.25ZM11.6797-2.66602C12.207-2.66602 12.5098-3.01758 12.5098-3.59375L12.5098-6.23047L15.3223-6.23047C15.8691-6.23047 16.25-6.51367 16.25-7.03125C16.25-7.55859 15.8887-7.86133 15.3223-7.86133L12.5098-7.86133L12.5098-10.6836C12.5098-11.25 12.207-11.6113 11.6797-11.6113C11.1621-11.6113 10.8789-11.2305 10.8789-10.6836L10.8789-7.86133L8.07617-7.86133C7.50977-7.86133 7.13867-7.55859 7.13867-7.03125C7.13867-6.51367 7.5293-6.23047 8.07617-6.23047L10.8789-6.23047L10.8789-3.59375C10.8789-3.03711 11.1621-2.66602 11.6797-2.66602Z"/>
  </g>
  <g id="" transform="matrix(1 0 0 1 304.924 1933)">
   <path d="M14.9707 5.66406C21.9336 5.66406 27.6953-0.0976562 27.6953-7.05078C27.6953-14.0137 21.9238-19.7754 14.9609-19.7754C8.00781-19.7754 2.25586-14.0137 2.25586-7.05078C2.25586-0.0976562 8.01758 5.66406 14.9707 5.66406ZM14.9707 3.84766C8.93555 3.84766 4.08203-1.01562 4.08203-7.05078C4.08203-13.0957 8.92578-17.9492 14.9609-17.9492C21.0059-17.9492 25.8594-13.0957 25.8691-7.05078C25.8789-1.01562 21.0156 3.84766 14.9707 3.84766ZM14.9414-1.38672C15.5176-1.38672 15.8594-1.77734 15.8594-2.38281L15.8594-6.13281L19.7754-6.13281C20.3711-6.13281 20.7812-6.46484 20.7812-7.02148C20.7812-7.59766 20.3906-7.93945 19.7754-7.93945L15.8594-7.93945L15.8594-11.8652C15.8594-12.4805 15.5176-12.8711 14.9414-12.8711C14.375-12.8711 14.0527-12.4609 14.0527-11.8652L14.0527-7.93945L10.1465-7.93945C9.53125-7.93945 9.13086-7.59766 9.13086-7.02148C9.13086-6.46484 9.55078-6.13281 10.1465-6.13281L14.0527-6.13281L14.0527-2.38281C14.0527-1.79688 14.375-1.38672 14.9414-1.38672Z"/>
  </g>
  <text style="stroke:none;fill:black;font-family:-apple-system,&quot;SF Pro Display&quot;,&quot;SF Pro Text&quot;,Helvetica,sans-serif;font-weight:bold;" transform="matrix(1 0 0 1 263 1953)">Design Variations</text>
  <text style="stroke:none;fill:black;font-family:-apple-system,&quot;SF Pro Display&quot;,&quot;SF Pro Text&quot;,Helvetica,sans-serif;" transform="matrix(1 0 0 1 263 1971)">Symbols are supported in up to nine weights and three scales.</text>
  <text style="stroke:none;fill:black;font-family:-apple-system,&quot;SF Pro Display&quot;,&quot;SF Pro Text&quot;,Helvetica,sans-serif;" transform="matrix(1 0 0 1 263 1989)">For optimal layout with text and other symbols, vertically align</text>
  <text style="stroke:none;fill:black;font-family:-apple-system,&quot;SF Pro Display&quot;,&quot;SF Pro Text&quot;,Helvetica,sans-serif;" transform="matrix(1 0 0 1 263 2007)">symbols with the adjacent text.</text>
  <line id="" style="fill:none;stroke:#00AEEF;stroke-width:0.5;opacity:1.0;" x1="776" x2="776" y1="1919" y2="1933"/>
  <g id="" transform="matrix(1 0 0 1 776 1933)">
   <path d="M3.31055 0.126953C3.82812 0.126953 4.08203-0.0683594 4.26758-0.605469L5.52734-4.0625L11.2891-4.0625L12.5488-0.605469C12.7344-0.0683594 12.9883 0.126953 13.4961 0.126953C14.0137 0.126953 14.3457-0.185547 14.3457-0.673828C14.3457-0.839844 14.3164-0.986328 14.2383-1.20117L9.6582-13.3887C9.43359-13.9941 9.0332-14.2871 8.4082-14.2871C7.80273-14.2871 7.39258-13.9941 7.17773-13.3984L2.59766-1.19141C2.51953-0.976562 2.49023-0.830078 2.49023-0.664062C2.49023-0.175781 2.80273 0.126953 3.31055 0.126953ZM6.00586-5.53711L8.37891-12.1094L8.42773-12.1094L10.8008-5.53711Z"/>
  </g>
  <line id="" style="fill:none;stroke:#00AEEF;stroke-width:0.5;opacity:1.0;" x1="792.836" x2="792.836" y1="1919" y2="1933"/>
  <text style="stroke:none;fill:black;font-family:-apple-system,&quot;SF Pro Display&quot;,&quot;SF Pro Text&quot;,Helvetica,sans-serif;font-weight:bold;" transform="matrix(1 0 0 1 776 1953)">Margins</text>
  <text style="stroke:none;fill:black;font-family:-apple-system,&quot;SF Pro Display&quot;,&quot;SF Pro Text&quot;,Helvetica,sans-serif;" transform="matrix(1 0 0 1 776 1971)">Leading and trailing margins on the left and right side of each symbol</text>
  <text style="stroke:none;fill:black;font-family:-apple-system,&quot;SF Pro Display&quot;,&quot;SF Pro Text&quot;,Helvetica,sans-serif;" transform="matrix(1 0 0 1 776 1989)">can be adjusted by modifying the x-location of the margin guidelines.</text>
  <text style="stroke:none;fill:black;font-family:-apple-system,&quot;SF Pro Display&quot;,&quot;SF Pro Text&quot;,Helvetica,sans-serif;" transform="matrix(1 0 0 1 776 2007)">Modifications are automatically applied proportionally to all</text>
  <text style="stroke:none;fill:black;font-family:-apple-system,&quot;SF Pro Display&quot;,&quot;SF Pro Text&quot;,Helvetica,sans-serif;" transform="matrix(1 0 0 1 776 2025)">scales and weights.</text>
  <g id="" transform="matrix(1 0 0 1 1289 1933)">
   <path d="M2.8418 1.86523L4.54102 3.57422C5.40039 4.44336 6.38672 4.38477 7.31445 3.35938L17.4902-7.85156C17.7539-7.76367 18.0273-7.7832 18.3398-7.8418L19.4043-8.03711L20.0684-7.36328L20.0293-6.80664C19.9902-6.30859 20.1172-5.92773 20.6055-5.44922L21.3672-4.70703C21.8457-4.22852 22.4609-4.19922 22.9297-4.66797L25.8398-7.58789C26.3086-8.05664 26.2891-8.65234 25.8105-9.13086L25.0391-9.89258C24.5605-10.3711 24.1895-10.5273 23.7109-10.4883L23.1348-10.4395L22.4902-11.0742L22.7344-12.1973C22.8613-12.7637 22.7051-13.2031 22.1191-13.7891L19.9219-15.9766C16.582-19.2969 12.1484-19.2188 9.25781-16.3281C8.83789-15.918 8.80859-15.3418 9.04297-14.9512C9.27734-14.5898 9.73633-14.3555 10.3809-14.5215C11.8457-14.8633 13.3691-14.9219 14.7949-13.9844L14.209-12.5293C14.0137-12.0508 13.9844-11.6504 14.1113-11.2891L3.04688-0.898438C2.06055 0.0195312 1.98242 0.996094 2.8418 1.86523ZM10.752-15.957C13.1836-17.7344 16.4746-17.4316 18.7012-15.2051L21.1328-12.793C21.3672-12.5586 21.4062-12.373 21.3379-12.0312L21.0156-10.5469L22.5195-9.0625L23.5059-9.12109C23.7598-9.13086 23.8379-9.11133 24.0332-8.91602L24.6094-8.33984L22.168-5.89844L21.5918-6.47461C21.3965-6.66992 21.3672-6.74805 21.377-7.01172L21.4453-7.98828L19.9512-9.47266L18.4277-9.21875C18.1055-9.15039 17.959-9.17969 17.7148-9.41406L15.7129-11.416C15.459-11.6504 15.4297-11.8164 15.5859-12.1875L16.4648-14.2773C14.9023-15.7324 12.8711-16.3574 10.8398-15.7617C10.6836-15.7227 10.625-15.8496 10.752-15.957ZM5.27344 2.30469L4.10156 1.14258C3.63281 0.683594 3.74023 0.341797 4.14062-0.0195312L14.9512-10.1953L16.416-8.71094L6.42578 2.27539C6.07422 2.67578 5.74219 2.77344 5.27344 2.30469Z"/>
  </g>
  <text style="stroke:none;fill:black;font-family:-apple-system,&quot;SF Pro Display&quot;,&quot;SF Pro Text&quot;,Helvetica,sans-serif;font-weight:bold;" transform="matrix(1 0 0 1 1289 1953)">Exporting</text>
  <text style="stroke:none;fill:black;font-family:-apple-system,&quot;SF Pro Display&quot;,&quot;SF Pro Text&quot;,Helvetica,sans-serif;" transform="matrix(1 0 0 1 1289 1971)">Symbols should be outlined when exporting to ensure the</text>
  <text style="stroke:none;fill:black;font-family:-apple-system,&quot;SF Pro Display&quot;,&quot;SF Pro Text&quot;,Helvetica,sans-serif;" transform="matrix(1 0 0 1 1289 1989)">design is preserved when submitting to Xcode.</text>
  <text id="template-version" style="stroke:none;fill:black;font-family:-apple-system,&quot;SF Pro Display&quot;,&quot;SF Pro Text&quot;,Helvetica,sans-serif;text-anchor:end;" transform="matrix(1 0 0 1 3036 1933)">Template v.2.0</text>
  <text style="stroke:none;fill:black;font-family:-apple-system,&quot;SF Pro Display&quot;,&quot;SF Pro Text&quot;,Helvetica,sans-serif;text-anchor:end;" transform="matrix(1 0 0 1 3036 1951)">Requires Xcode 12 or greater</text>
  <text style="stroke:none;fill:black;font-family:-apple-system,&quot;SF Pro Display&quot;,&quot;SF Pro Text&quot;,Helvetica,sans-serif;text-anchor:end;" transform="matrix(1 0 0 1 3036 1969)">Generated from speaker.slash</text>
  <text style="stroke:none;fill:black;font-family:-apple-system,&quot;SF Pro Display&quot;,&quot;SF Pro Text&quot;,Helvetica,sans-serif;text-anchor:end;" transform="matrix(1 0 0 1 3036 1987)">Typeset at 100 points</text>
  <text style="stroke:none;fill:black;font-family:-apple-system,&quot;SF Pro Display&quot;,&quot;SF Pro Text&quot;,Helvetica,sans-serif;" transform="matrix(1 0 0 1 263 726)">Small</text>
  <text style="stroke:none;fill:black;font-family:-apple-system,&quot;SF Pro Display&quot;,&quot;SF Pro Text&quot;,Helvetica,sans-serif;" transform="matrix(1 0 0 1 263 1156)">Medium</text>
  <text style="stroke:none;fill:black;font-family:-apple-system,&quot;SF Pro Display&quot;,&quot;SF Pro Text&quot;,Helvetica,sans-serif;" transform="matrix(1 0 0 1 263 1586)">Large</text>
 </g>
 <g id="Guides">
  <g id="H-reference" style="fill:#27AAE1;stroke:none;" transform="matrix(1 0 0 1 339 696)">
   <path d="M0.976562 0L3.66211 0L12.9883-24.4629L45.752-24.4629L55.127 0L57.7637 0L30.6152-70.459L28.125-70.459ZM29.3457-67.1387L29.4434-67.1387L44.873-26.709L13.8672-26.709Z"/>
  </g>
  <line id="Baseline-S" style="fill:none;stroke:#27AAE1;opacity:1;stroke-width:0.5;" x1="263" x2="3036" y1="696" y2="696"/>
  <line id="Capline-S" style="fill:none;stroke:#27AAE1;opacity:1;stroke-width:0.5;" x1="263" x2="3036" y1="625.541" y2="625.541"/>
  <g id="H-reference" style="fill:#27AAE1;stroke:none;" transform="matrix(1 0 0 1 339 1126)">
   <path d="M0.976562 0L3.66211 0L12.9883-24.4629L45.752-24.4629L55.127 0L57.7637 0L30.6152-70.459L28.125-70.459ZM29.3457-67.1387L29.4434-67.1387L44.873-26.709L13.8672-26.709Z"/>
  </g>
  <line id="Baseline-M" style="fill:none;stroke:#27AAE1;opacity:1;stroke-width:0.5;" x1="263" x2="3036" y1="1126" y2="1126"/>
  <line id="Capline-M" style="fill:none;stroke:#27AAE1;opacity:1;stroke-width:0.5;" x1="263" x2="3036" y1="1055.54" y2="1055.54"/>
  <g id="H-reference" style="fill:#27AAE1;stroke:none;" transform="matrix(1 0 0 1 339 1556)">
   <path d="M0.976562 0L3.66211 0L12.9883-24.4629L45.752-24.4629L55.127 0L57.7637 0L30.6152-70.459L28.125-70.459ZM29.3457-67.1387L29.4434-67.1387L44.873-26.709L13.8672-26.709Z"/>
  </g>
  <line id="Baseline-L" style="fill:none;stroke:#27AAE1;opacity:1;stroke-width:0.5;" x1="263" x2="3036" y1="1556" y2="1556"/>
  <line id="Capline-L" style="fill:none;stroke:#27AAE1;opacity:1;stroke-width:0.5;" x1="263" x2="3036" y1="1485.54" y2="1485.54"/>
  <line id="left-margin" style="fill:none;stroke:#00AEEF;stroke-width:0.5;opacity:1.0;" x1="1400.21" x2="1400.21" y1="1030.79" y2="1150.12"/>
  <line id="right-margin" style="fill:none;stroke:#00AEEF;stroke-width:0.5;opacity:1.0;" x1="1499.48" x2="1499.48" y1="1030.79" y2="1150.12"/>
 </g>
 <g id="Symbols">
  <g id="Black-L" transform="matrix(1 0 0 1 2862.45 1556)">
   <path d="M128.564 28.418C130.811 30.6152 134.521 30.6641 136.67 28.418C138.867 26.1719 138.965 22.5586 136.67 20.2637L18.2129-98.0957C15.9668-100.342 12.2559-100.342 10.0098-98.0957C7.86133-95.9473 7.86133-92.1387 10.0098-89.9902ZM105.908-23.3887L105.957-82.6172C105.957-89.209 100.977-94.4336 94.3359-94.4336C90.1855-94.4336 86.8652-92.7734 82.4219-88.7695L60.3027-69.1406L72.7051-56.7871L84.9121-67.9688C85.1562-68.2129 85.498-68.3105 85.8398-68.3105C86.3281-68.3105 86.7188-67.9199 86.7188-67.334L86.7188-42.6758ZM39.3066-4.19922L56.543-4.19922C56.9336-4.19922 57.1777-4.10156 57.4707-3.80859L82.5195 18.5547C86.7676 22.3145 89.9902 24.0234 94.3848 24.0234C99.0723 24.0234 102.979 21.4844 104.736 17.7734L84.3262-2.63672L65.332-20.4102C63.9648-21.7285 62.7441-22.1191 60.791-22.1191L42.4805-22.1191C41.2598-22.1191 40.5273-22.9492 40.5273-24.0723L40.5273-46.4355L25.7812-61.1328C22.9004-58.1543 21.2891-53.5156 21.2891-47.3633L21.2891-23.0469C21.2891-10.8398 27.5879-4.19922 39.3066-4.19922Z"/>
  </g>
  <g id="Heavy-L" transform="matrix(1 0 0 1 2567.79 1556)">
   <path d="M124.951 27.8809C127.051 29.9316 130.518 29.9805 132.568 27.8809C134.619 25.7812 134.668 22.4121 132.568 20.3125L17.041-95.166C14.9414-97.2656 11.4746-97.2656 9.375-95.166C7.32422-93.1152 7.32422-89.5996 9.375-87.5488ZM102.93-22.0215L102.979-82.7637C102.979-88.7207 98.5352-93.4082 92.5293-93.4082C88.7207-93.4082 85.791-91.7969 81.6895-88.1836L57.959-67.0898L68.7988-56.25L84.4238-70.5078C84.7168-70.752 85.0098-70.8984 85.4004-70.8984C85.8887-70.8984 86.2793-70.5078 86.2793-69.9219L86.2793-38.7207ZM37.1582-5.66406L54.6875-5.66406C55.1758-5.66406 55.4688-5.51758 55.8105-5.22461L81.7871 17.9688C85.6445 21.3867 88.623 22.998 92.5781 22.998C96.6797 22.998 100.098 20.8496 101.709 17.5781L84.5703 0.439453L62.8906-19.5801C61.5234-20.8496 60.3516-21.2402 58.4473-21.2402L39.6973-21.2402C38.1348-21.2402 37.3047-22.1191 37.3047-23.584L37.3047-46.8262L24.5117-59.6191C22.0215-56.9336 20.6543-52.7832 20.6543-47.3633L20.6543-22.9492C20.6543-11.6699 26.3672-5.66406 37.1582-5.66406Z"/>
  </g>
  <g id="Bold-L" transform="matrix(1 0 0 1 2273.35 1556)">
   <path d="M120.947 27.3438C122.9 29.248 126.074 29.248 127.93 27.3438C129.834 25.3418 129.883 22.2656 127.93 20.3125L15.7227-91.8457C13.8184-93.75 10.5957-93.7988 8.64258-91.8457C6.78711-89.9414 6.78711-86.7188 8.64258-84.8145ZM99.5605-20.459L99.6094-82.959C99.6094-88.1348 95.8008-92.2363 90.5273-92.2363C87.1094-92.2363 84.5215-90.7715 80.9082-87.5L55.3711-64.7461L64.4531-55.6641L83.8379-73.291C84.1797-73.584 84.4727-73.7793 84.9121-73.7793C85.4004-73.7793 85.791-73.4375 85.791-72.8027L85.791-34.3262ZM34.7656-7.32422L52.6367-7.32422C53.1738-7.32422 53.5645-7.12891 53.9551-6.78711L80.957 17.2852C84.4238 20.3613 87.0605 21.8262 90.625 21.8262C94.043 21.8262 96.875 20.0684 98.3398 17.334L84.8145 3.90625L60.1074-18.6523C58.7402-19.873 57.666-20.2148 55.8594-20.2148L36.5723-20.2148C34.668-20.2148 33.7402-21.1914 33.7402-23.0469L33.7402-47.2656L23.0469-57.9102C21.0449-55.5664 19.9219-52.002 19.9219-47.4121L19.9219-22.8516C19.9219-12.5977 25-7.32422 34.7656-7.32422Z"/>
  </g>
  <g id="Semibold-L" transform="matrix(1 0 0 1 1978.2 1556)">
   <path d="M97.2656-19.4336L97.3145-83.0566C97.3145-87.6953 93.8965-91.4551 89.1602-91.4551C85.9863-91.4551 83.6914-90.0391 80.3711-87.0117L53.6133-63.1348L61.4746-55.2734L83.4473-75.2441C83.7891-75.5859 84.1309-75.7812 84.5703-75.7812C85.0586-75.7812 85.4492-75.4395 85.4492-74.8047L85.4492-31.2988ZM118.164 26.9043C119.971 28.7598 122.998 28.7598 124.756 26.9043C126.562 25.0977 126.611 22.168 124.756 20.3125L14.8438-89.5508C13.0371-91.3574 10.0098-91.4062 8.1543-89.5508C6.39648-87.793 6.39648-84.7168 8.1543-82.959ZM33.1543-8.44727L51.2207-8.44727C51.8066-8.44727 52.2461-8.25195 52.6855-7.86133L80.3711 16.8457C83.5449 19.6289 85.9863 20.9961 89.2578 20.9961C92.1875 20.9961 94.6289 19.5801 96.0449 17.1875L84.9609 6.25L58.2031-18.0176C56.8359-19.2383 55.8105-19.5312 54.0527-19.5312L34.375-19.5312C32.2266-19.5312 31.25-20.5566 31.25-22.6562L31.25-47.5586L22.0703-56.7383C20.3613-54.6387 19.4336-51.5137 19.4336-47.4609L19.4336-22.7539C19.4336-13.2324 24.0723-8.44727 33.1543-8.44727Z"/>
  </g>
  <g id="Medium-L" transform="matrix(1 0 0 1 1682.69 1556)">
   <path d="M95.5566-18.6035L95.5566-83.1543C95.5566-87.4023 92.4316-90.8691 88.1348-90.8691C85.1562-90.8691 83.0566-89.4531 79.9316-86.6699L52.2461-61.9629L59.2285-54.9805L83.1543-76.7578C83.4961-77.0508 83.8379-77.2949 84.3262-77.2949C84.8145-77.2949 85.2051-76.9531 85.2051-76.3184L85.2051-28.9551ZM116.064 26.6113C117.822 28.3691 120.654 28.3691 122.363 26.6113C124.072 24.8535 124.072 22.0703 122.363 20.3125L14.1602-87.793C12.4023-89.5508 9.57031-89.5996 7.8125-87.793C6.10352-86.1328 6.10352-83.2031 7.8125-81.543ZM31.8848-9.32617L50.0977-9.32617C50.7324-9.32617 51.2695-9.13086 51.709-8.69141L79.9316 16.5039C82.8613 19.0918 85.2051 20.4102 88.1836 20.4102C90.7715 20.4102 92.9199 19.1895 94.2383 17.0898L85.1074 8.05664L56.7383-17.5293C55.4199-18.7012 54.4434-18.9941 52.6855-18.9941L32.7637-18.9941C30.4199-18.9941 29.3945-20.0684 29.3945-22.3633L29.3945-47.8027L21.3379-55.8594C19.8242-53.9062 19.043-51.0742 19.043-47.4609L19.043-22.7051C19.043-13.6719 23.3398-9.32617 31.8848-9.32617Z"/>
  </g>
  <g id="Regular-L" transform="matrix(1 0 0 1 1387.52 1556)">
   <path d="M93.2617-17.5781L93.2617-83.3008C93.2617-87.0117 90.5762-90.0879 86.7676-90.0879C84.0332-90.0879 82.2266-88.7207 79.3945-86.2305L50.4883-60.3516L56.25-54.541L82.7637-78.6621C83.1543-79.0039 83.4961-79.2969 83.9844-79.2969C84.4727-79.2969 84.8633-78.9062 84.8633-78.3203L84.8633-25.9766ZM113.33 26.2207C114.941 27.8809 117.627 27.8809 119.189 26.2207C120.801 24.5605 120.85 21.9727 119.189 20.3613L13.2324-85.5469C11.6699-87.1582 8.98438-87.207 7.32422-85.5469C5.71289-83.9844 5.71289-81.25 7.32422-79.6875ZM30.2734-10.4492L48.7305-10.4492C49.3652-10.4492 49.9512-10.2051 50.4395-9.76562L79.3945 16.0645C82.0312 18.4082 84.1309 19.6289 86.8652 19.6289C88.9648 19.6289 90.7227 18.6523 91.9434 16.9434L85.2539 10.4004L54.834-16.8457C53.5156-18.0664 52.6367-18.3105 50.8789-18.3105L30.6152-18.3105C28.0273-18.3105 26.9531-19.4336 26.9531-22.0215L26.9531-48.0957L20.3613-54.6875C19.1895-52.9785 18.5547-50.5371 18.5547-47.4609L18.5547-22.6562C18.5547-14.3066 22.4121-10.4492 30.2734-10.4492Z"/>
  </g>
  <g id="Light-L" transform="matrix(1 0 0 1 1093.15 1556)">
   <path d="M90.1855-15.7227L90.1855-83.252C90.1855-86.4746 88.0371-89.1113 84.668-89.1113C82.373-89.1113 80.7129-87.8906 78.4668-85.8887L47.7539-58.1543L52.1973-53.7109L81.3477-80.2734C81.7871-80.6641 82.1777-81.0059 82.7148-81.0059C83.3008-81.0059 83.6914-80.6641 83.6914-79.9805L83.6914-22.2168ZM109.619 25.1953C110.889 26.4648 112.939 26.4648 114.209 25.1953C115.479 23.9258 115.43 21.9238 114.209 20.6543L10.8887-82.6172C9.66797-83.7891 7.61719-83.8867 6.29883-82.6172C5.07812-81.3477 5.07812-79.248 6.29883-78.0273ZM27.832-11.5234L46.8262-11.5234C47.6562-11.5234 48.291-11.2793 48.877-10.7422L78.4668 15.625C80.5664 17.4316 82.4219 18.5547 84.7656 18.5547C86.4258 18.5547 87.7441 17.9199 88.7207 16.6992L82.959 11.1328L52.4414-16.1133C51.0742-17.334 50-17.627 48.1445-17.627L28.0762-17.627C25.1953-17.627 24.0723-18.7988 24.0723-21.6797L24.0723-47.9492L18.7988-53.2227C18.0664-51.9043 17.627-50.1465 17.627-47.9004L17.627-22.0703C17.627-14.8926 20.9961-11.5234 27.832-11.5234Z"/>
  </g>
  <g id="Thin-L" transform="matrix(1 0 0 1 799.537 1556)">
   <path d="M86.084-13.3301L86.084-83.2031C86.084-85.7422 84.6191-87.793 81.9336-87.793C80.127-87.793 78.7109-86.7188 77.2949-85.498L44.1406-55.2734L46.875-52.5391L79.4922-82.373C80.0293-82.8613 80.4199-83.3008 81.1035-83.3008C81.7383-83.3008 82.1777-82.9102 82.1777-82.1289L82.1777-17.1875ZM104.785 23.877C105.518 24.6582 106.787 24.6582 107.568 23.877C108.398 23.0469 108.35 21.8262 107.568 21.0938L7.8125-78.7109C7.08008-79.3945 5.85938-79.541 4.98047-78.7109C4.19922-77.9297 4.19922-76.6602 4.98047-75.8789ZM24.6582-12.9883L44.3359-12.9883C45.4102-12.9883 46.0938-12.6953 46.7773-12.0605L77.2949 14.9902C78.6621 16.2109 80.127 17.1875 81.9824 17.1875C83.0078 17.1875 83.7891 16.8945 84.4727 16.3574L79.8828 12.1582L49.2676-15.0879C47.8027-16.4062 46.5332-16.748 44.5312-16.748L24.707-16.748C21.4355-16.748 20.3125-17.9688 20.3125-21.2402L20.3125-47.8027L16.7969-51.3184C16.5527-50.5371 16.4062-49.5605 16.4062-48.4863L16.4062-21.3379C16.4062-15.625 19.0918-12.9883 24.6582-12.9883Z"/>
  </g>
  <g id="Ultralight-L" transform="matrix(1 0 0 1 504.438 1556)">
   <path d="M83.9844-12.0605L83.9844-83.2031C83.9844-85.3516 82.8613-87.1582 80.5664-87.1582C79.0039-87.1582 77.6855-86.1328 76.6602-85.2539L42.2852-53.7598L44.0918-51.9531L78.5156-83.4961C79.1016-83.9844 79.4922-84.4727 80.2734-84.4727C80.9082-84.4727 81.3965-84.082 81.3965-83.252L81.3965-14.6484ZM102.295 23.1934C102.783 23.7305 103.662 23.7305 104.15 23.1934C104.785 22.5586 104.688 21.8262 104.15 21.2891L6.20117-76.6602C5.76172-77.0996 4.93164-77.2949 4.29688-76.6602C3.75977-76.1719 3.75977-75.293 4.29688-74.8047ZM22.998-13.7695L43.0664-13.7695C44.2383-13.7695 44.9707-13.4277 45.752-12.7441L76.6602 14.6973C77.6855 15.5762 78.9551 16.5039 80.5176 16.5039C81.25 16.5039 81.7871 16.3574 82.2754 16.2109L78.2715 12.6465L47.6074-14.5996C46.1426-15.918 44.7266-16.3086 42.6758-16.3086L22.9492-16.3086C19.4824-16.3086 18.3594-17.5293 18.3594-20.9961L18.3594-47.7051L15.7227-50.293C15.7715-49.8047 15.7715-49.2676 15.7715-48.7793L15.7715-20.9473C15.7715-15.9668 18.1152-13.7695 22.998-13.7695Z"/>
  </g>
  <g id="Black-M" transform="matrix(1 0 0 1 2876.93 1126)">
   <path d="M102.539 14.2578C104.297 15.918 107.178 15.9668 108.838 14.2578C110.547 12.5 110.596 9.66797 108.838 7.95898L14.4531-86.377C12.6953-88.1348 9.86328-88.1348 8.10547-86.377C6.39648-84.7168 6.39648-81.7871 8.10547-80.0781ZM84.4727-26.9043L84.5215-71.6797C84.5215-77.4902 80.1758-81.9336 74.4141-81.9336C70.9473-81.9336 67.9688-80.6152 64.3555-77.3926L48.3887-63.1348L59.375-52.1484L65.7227-58.0566C65.918-58.252 66.1621-58.3008 66.4551-58.3008C66.8945-58.3008 67.1875-58.0078 67.1875-57.4707L67.1875-44.3359ZM32.0312-9.76562L45.3125-9.76562C45.6055-9.76562 45.752-9.7168 45.8984-9.52148L64.502 6.98242C68.0176 10.1074 70.7031 11.5723 74.4141 11.5723C78.6133 11.5723 82.1289 9.22852 83.4961 6.00586L63.8184-13.6719L52.6855-24.4629C51.5625-25.5371 50.4395-25.9277 48.8281-25.9277L35.3516-25.9277C34.668-25.9277 34.1797-26.4648 34.1797-27.0508L34.1797-43.3105L20.8984-56.543C18.3105-54.1016 16.8457-50.0977 16.8457-44.8242L16.8457-25.5859C16.8457-15.4785 22.2656-9.76562 32.0312-9.76562Z"/>
  </g>
  <g id="Heavy-M" transform="matrix(1 0 0 1 2581.83 1126)">
   <path d="M99.5605 13.9648C101.221 15.5762 104.004 15.625 105.615 13.9648C107.275 12.2559 107.324 9.57031 105.615 7.86133L13.7695-83.8867C12.1094-85.5957 9.32617-85.5957 7.66602-83.8867C6.05469-82.2754 6.05469-79.4434 7.66602-77.832ZM81.9824-25.8789L82.0312-71.875C82.0312-77.0508 78.1738-81.1035 72.998-81.1035C69.8242-81.1035 67.1875-79.834 63.8184-76.8066L46.582-61.4258L56.2012-51.8066L65.5762-60.4004C65.7715-60.5957 66.0156-60.6934 66.2598-60.6934C66.6992-60.6934 66.9922-60.3516 66.9922-59.9121L66.9922-40.9668ZM30.3223-11.084L43.7988-11.084C44.1406-11.084 44.2871-11.0352 44.5312-10.791L63.916 6.44531C67.1387 9.32617 69.6289 10.6934 72.998 10.6934C76.6602 10.6934 79.7363 8.69141 81.0547 5.85938L64.6484-10.5469L50.6348-23.7793C49.5117-24.8047 48.5352-25.0977 46.9727-25.0977L32.959-25.0977C32.0312-25.0977 31.4453-25.7324 31.4453-26.6113L31.4453-43.75L19.873-55.2734C17.627-53.0273 16.4062-49.4629 16.4062-44.7266L16.4062-25.6348C16.4062-16.2598 21.2891-11.084 30.3223-11.084Z"/>
  </g>
  <g id="Bold-M" transform="matrix(1 0 0 1 2286.93 1126)">
   <path d="M96.2402 13.623C97.8516 15.1855 100.488 15.2344 102.051 13.623C103.613 12.0117 103.662 9.42383 102.051 7.8125L13.0371-81.1523C11.4258-82.7637 8.78906-82.7637 7.17773-81.1523C5.61523-79.5898 5.61523-76.9043 7.17773-75.3418ZM79.248-24.7559L79.2969-72.1191C79.2969-76.5625 75.9277-80.127 71.3867-80.127C68.5059-80.127 66.3086-78.9062 63.1836-76.1719L44.5312-59.5215L52.6367-51.416L65.332-62.9883C65.5762-63.2324 65.8203-63.3301 66.1133-63.3301C66.5039-63.3301 66.7969-63.0371 66.7969-62.5977L66.7969-37.2559ZM28.418-12.5977L42.041-12.5977C42.4316-12.5977 42.7246-12.4512 42.9688-12.207L63.2812 5.85938C66.2109 8.49609 68.457 9.7168 71.4355 9.7168C74.5117 9.7168 77.0508 8.10547 78.3203 5.66406L65.625-6.98242L48.291-22.9492C47.2168-23.9258 46.3379-24.2188 44.9219-24.2188L30.2734-24.2188C29.0039-24.2188 28.3691-24.9023 28.3691-26.123L28.3691-44.2871L18.75-53.8574C16.8945-51.8555 15.8691-48.7305 15.8691-44.6289L15.8691-25.6836C15.8691-17.0898 20.2148-12.5977 28.418-12.5977Z"/>
  </g>
  <g id="Semibold-M" transform="matrix(1 0 0 1 1991.46 1126)">
   <path d="M93.9453 13.3789C95.5078 14.9414 98.0469 14.9414 99.5605 13.3789C101.074 11.8164 101.123 9.32617 99.5605 7.76367L12.5-79.248C10.9375-80.8105 8.39844-80.8105 6.83594-79.248C5.32227-77.7344 5.32227-75.0977 6.83594-73.6328ZM77.3438-23.9746L77.3438-72.2656C77.3438-76.2695 74.3652-79.4434 70.3125-79.4434C67.627-79.4434 65.6738-78.2715 62.793-75.6836L43.1152-58.252L50.1953-51.1719L65.1855-64.7949C65.4297-65.0391 65.6738-65.1855 65.9668-65.1855C66.3574-65.1855 66.6504-64.8926 66.6504-64.4531L66.6504-34.668ZM27.1484-13.623L40.8691-13.623C41.2598-13.623 41.6016-13.4766 41.8945-13.2324L62.793 5.46875C65.5273 7.91016 67.627 9.0332 70.3613 9.0332C73.0469 9.0332 75.1953 7.71484 76.416 5.51758L66.2598-4.54102L46.6797-22.4121C45.6543-23.3398 44.873-23.584 43.5059-23.584L28.418-23.584C26.9531-23.584 26.2207-24.3164 26.2207-25.7812L26.2207-44.6289L17.9688-52.8809C16.4062-51.0254 15.5273-48.2422 15.5273-44.5801L15.5273-25.7324C15.5273-17.6758 19.4824-13.623 27.1484-13.623Z"/>
  </g>
  <g id="Medium-M" transform="matrix(1 0 0 1 1695.7 1126)">
   <path d="M75.9277-23.3398L75.9277-72.3633C75.9277-76.0254 73.1934-78.9551 69.4824-78.9551C66.9434-78.9551 65.1855-77.832 62.4512-75.3418L42.0898-57.2754L48.3398-50.9766L65.0879-66.2109C65.332-66.4062 65.5762-66.5527 65.918-66.5527C66.2598-66.5527 66.5527-66.3086 66.5527-65.8691L66.5527-32.7148ZM92.1875 13.2324C93.7012 14.6973 96.1914 14.7461 97.6562 13.2324C99.1699 11.6699 99.2188 9.22852 97.6562 7.71484L12.1094-77.7832C10.5957-79.2969 8.10547-79.3457 6.5918-77.7832C5.07812-76.3184 5.07812-73.7793 6.5918-72.3145ZM26.123-14.3555L39.9902-14.3555C40.3809-14.3555 40.7715-14.2578 41.0645-13.9648L62.5 5.17578C65.0391 7.4707 66.9922 8.54492 69.5801 8.54492C71.875 8.54492 73.8281 7.37305 75 5.46875L66.748-2.73438L45.459-21.9727C44.4336-22.9004 43.75-23.0957 42.4316-23.0957L27.002-23.0957C25.3906-23.0957 24.6094-23.877 24.6094-25.4883L24.6094-44.9219L17.3828-52.0996C16.0156-50.3906 15.2344-47.8516 15.2344-44.5312L15.2344-25.7812C15.2344-18.1152 18.9453-14.3555 26.123-14.3555Z"/>
  </g>
  <g id="Regular-M" transform="matrix(1 0 0 1 1400.21 1126)">
   <path d="M74.0234-22.5586L74.0234-72.5098C74.0234-75.6836 71.6797-78.2715 68.4082-78.2715C66.0645-78.2715 64.5996-77.1973 62.0117-74.9023L40.6738-55.957L45.8984-50.6836L64.9414-67.9688C65.1855-68.2129 65.4785-68.3594 65.7715-68.3594C66.1133-68.3594 66.4062-68.1152 66.4062-67.6758L66.4062-30.1758ZM89.8926 12.9883C91.3574 14.4531 93.7988 14.4531 95.2148 12.9883C96.6797 11.4746 96.6797 9.13086 95.2148 7.66602L11.6211-75.9277C10.1562-77.3926 7.71484-77.3926 6.25-75.9277C4.78516-74.5117 4.78516-72.0215 6.25-70.6055ZM24.8535-15.3809L38.8184-15.3809C39.2578-15.3809 39.6484-15.2344 39.9902-14.9414L62.0117 4.78516C64.4043 6.88477 66.1621 7.86133 68.5059 7.86133C70.4102 7.86133 71.9727 6.98242 73.0957 5.32227L67.4316-0.292969L43.8477-21.4355C42.8711-22.3145 42.2852-22.5098 41.0156-22.5098L25.1953-22.5098C23.3398-22.5098 22.5098-23.3398 22.5098-25.1465L22.5098-45.2637L16.6504-51.123C15.5273-49.5605 14.8926-47.3633 14.8926-44.4824L14.8926-25.7812C14.8926-18.7012 18.2129-15.3809 24.8535-15.3809Z"/>
  </g>
  <g id="Light-M" transform="matrix(1 0 0 1 1105.6 1126)">
   <path d="M71.2402-20.9473L71.2402-72.4609C71.2402-75.1953 69.3359-77.4414 66.5527-77.4414C64.5508-77.4414 63.2324-76.416 61.2305-74.6582L38.2324-54.0039L42.2852-49.9023L63.6719-69.4336C64.0137-69.6777 64.2578-69.9219 64.6484-69.9219C65.0879-69.9219 65.3809-69.6777 65.3809-69.1406L65.3809-26.8066ZM86.6211 12.0605C87.7441 13.2324 89.5996 13.2324 90.7227 12.0605C91.8945 10.8887 91.8945 9.08203 90.7227 7.95898L9.47266-73.2422C8.39844-74.3652 6.49414-74.4141 5.32227-73.2422C4.19922-72.168 4.19922-70.2637 5.32227-69.1406ZM22.6562-16.3574L37.1094-16.3574C37.6953-16.3574 38.1836-16.2109 38.5742-15.8203L61.2305 4.39453C63.0859 6.00586 64.6484 6.93359 66.6016 6.93359C68.1152 6.93359 69.3359 6.29883 70.2148 5.12695L65.332 0.390625L41.6992-20.752C40.6738-21.6797 39.8926-21.875 38.5254-21.875L22.9004-21.875C20.8008-21.875 19.9707-22.7539 19.9707-24.8535L19.9707-45.166L15.2832-49.8535C14.502-48.6328 14.0625-46.9727 14.0625-44.873L14.0625-25.293C14.0625-19.1895 16.8945-16.3574 22.6562-16.3574Z"/>
  </g>
  <g id="Thin-M" transform="matrix(1 0 0 1 811.671 1126)">
   <path d="M67.5781-18.75L67.5781-72.4121C67.5781-74.5117 66.3086-76.2695 64.1113-76.2695C62.5977-76.2695 61.4258-75.3906 60.1562-74.2676L35.0098-51.3672L37.4512-48.877L62.0117-71.3379C62.4023-71.6797 62.6953-72.0215 63.1836-72.0215C63.6719-72.0215 64.0137-71.6797 64.0137-71.0938L64.0137-22.3633ZM82.2266 10.8887C82.959 11.5723 84.082 11.5723 84.7656 10.8887C85.5469 10.1074 85.498 9.0332 84.7656 8.30078L6.68945-69.7754C6.05469-70.4102 4.88281-70.5078 4.15039-69.7754C3.4668-69.043 3.4668-67.9199 4.15039-67.1875ZM19.7754-17.6758L34.9121-17.6758C35.6934-17.6758 36.1816-17.4805 36.7188-16.9922L60.1562 3.80859C61.377 4.88281 62.5977 5.71289 64.1113 5.71289C65.0879 5.71289 65.7715 5.37109 66.3574 4.83398L62.5488 1.26953L38.8672-19.873C37.793-20.8496 36.8164-21.0938 35.3027-21.0938L19.873-21.0938C17.4316-21.0938 16.5527-22.0215 16.5527-24.4629L16.5527-44.9707L13.4277-48.0957C13.1348-47.3633 12.9883-46.4844 12.9883-45.3613L12.9883-24.6094C12.9883-19.873 15.1855-17.6758 19.7754-17.6758Z"/>
  </g>
  <g id="Ultralight-M" transform="matrix(1 0 0 1 516.376 1126)">
   <path d="M65.7227-17.6758L65.7227-72.4121C65.7227-74.1699 64.7461-75.6836 62.8418-75.6836C61.5723-75.6836 60.498-74.8535 59.6191-74.0723L33.3496-50.0488L35.0098-48.3887L61.1328-72.3145C61.5723-72.6562 61.8652-73.0469 62.4512-73.0469C62.9395-73.0469 63.3301-72.7539 63.3301-72.1191L63.3301-20.0684ZM79.9805 10.2539C80.4688 10.7422 81.25 10.7422 81.7383 10.2539C82.2754 9.7168 82.2266 8.98438 81.7383 8.49609L5.27344-67.9688C4.88281-68.3594 4.10156-68.5059 3.51562-67.9688C3.07617-67.4805 3.07617-66.6992 3.51562-66.2109ZM18.3105-18.3594L33.7402-18.3594C34.6191-18.3594 35.2051-18.1152 35.7422-17.627L59.6191 3.56445C60.498 4.3457 61.5723 5.07812 62.8418 5.07812C63.5254 5.07812 63.9648 4.88281 64.4043 4.6875L61.1328 1.75781L37.4023-19.3848C36.2793-20.4102 35.2051-20.7031 33.6426-20.7031L18.3105-20.7031C15.6738-20.7031 14.7949-21.6309 14.7949-24.2676L14.7949-44.9219L12.5-47.2168C12.4512-46.7285 12.4023-46.1914 12.4023-45.6055L12.4023-24.2676C12.4023-20.2148 14.3066-18.3594 18.3105-18.3594Z"/>
  </g>
  <g id="Black-S" transform="matrix(1 0 0 1 2889.26 696)">
   <path d="M80.127 3.51562C81.4941 4.83398 83.7402 4.88281 85.0586 3.51562C86.377 2.14844 86.4258-0.0488281 85.0586-1.41602L11.2793-75.1465C9.91211-76.5137 7.66602-76.5137 6.29883-75.1465C4.98047-73.8281 4.98047-71.5332 6.29883-70.2148ZM66.0156-28.6621L66.0645-63.8184C66.0645-68.3105 62.6953-71.7773 58.2031-71.7773C55.5176-71.7773 53.2227-70.752 50.3906-68.2129L37.793-56.9824L46.3379-48.4863L51.5137-53.2715C51.6602-53.418 51.8555-53.4668 52.0508-53.4668C52.3926-53.4668 52.6367-53.2227 52.6367-52.832L52.6367-42.1387ZM25-15.3809L35.4004-15.3809C35.6445-15.3809 35.7422-15.332 35.8887-15.1855L50.4883-2.19727C53.2227 0.244141 55.3223 1.36719 58.2031 1.36719C61.4746 1.36719 64.209-0.439453 65.2832-2.92969L50.0977-18.1152L41.1621-26.7578C40.2832-27.5879 39.4043-27.8809 38.1348-27.8809L27.5391-27.8809C27.002-27.8809 26.6113-28.3203 26.6113-28.8086L26.6113-41.6016L16.3086-51.8555C14.3066-49.9512 13.1836-46.8262 13.1836-42.7246L13.1836-27.6855C13.1836-19.8242 17.3828-15.3809 25-15.3809Z"/>
  </g>
  <g id="Heavy-S" transform="matrix(1 0 0 1 2593.55 696)">
   <path d="M78.2227 3.36914C79.5898 4.6875 81.7871 4.73633 83.1055 3.36914C84.4238 2.05078 84.4727-0.146484 83.1055-1.51367L10.9863-73.5352C9.66797-74.9023 7.42188-74.9023 6.05469-73.5352C4.78516-72.2656 4.78516-69.9707 6.05469-68.6523ZM64.4531-28.0762L64.4531-63.9648C64.4531-68.0176 61.4258-71.1914 57.3242-71.1914C54.7852-71.1914 52.7344-70.2148 50.0488-67.8223L36.6699-55.9082L44.2871-48.291L51.5137-54.8828C51.6602-55.0293 51.8555-55.127 52.0508-55.127C52.3926-55.127 52.5879-54.8828 52.5879-54.4922L52.5879-39.9414ZM23.9258-16.2598L34.4238-16.2598C34.668-16.2598 34.8145-16.2109 34.9609-16.0645L50.1465-2.53906C52.7344-0.244141 54.6875 0.78125 57.373 0.78125C60.2539 0.78125 62.6953-0.78125 63.7207-3.02734L50.9766-15.7715L39.7949-26.2695C38.9648-27.0996 38.1836-27.3438 37.0117-27.3438L25.9766-27.3438C25.2441-27.3438 24.8047-27.832 24.8047-28.5156L24.8047-41.9434L15.6738-51.0254C13.916-49.2188 12.9395-46.3867 12.9395-42.627L12.9395-27.7832C12.9395-20.3613 16.7969-16.2598 23.9258-16.2598Z"/>
  </g>
  <g id="Bold-S" transform="matrix(1 0 0 1 2297.96 696)">
   <path d="M76.0742 3.27148C77.4414 4.58984 79.6387 4.58984 80.9082 3.27148C82.2266 1.9043 82.2754-0.244141 80.9082-1.61133L10.6934-71.7773C9.32617-73.0957 7.12891-73.0957 5.81055-71.7773C4.49219-70.459 4.49219-68.2129 5.81055-66.9434ZM62.6953-27.3926L62.6953-64.1113C62.6953-67.7246 59.9609-70.6055 56.3477-70.6055C54.0039-70.6055 52.2461-69.6289 49.707-67.334L35.4492-54.6875L42.041-48.0957L51.5137-56.7383C51.6602-56.8848 51.8555-56.9336 52.0508-56.9336C52.3438-56.9336 52.5879-56.7383 52.5879-56.3965L52.5879-37.5488ZM22.7539-17.2852L33.3008-17.2852C33.5938-17.2852 33.7891-17.2363 33.9355-17.041L49.7559-2.92969C52.1484-0.78125 53.9551 0.195312 56.3965 0.195312C58.8867 0.195312 60.9375-1.12305 61.9629-3.125L51.9531-13.1348L38.2812-25.7324C37.5-26.5137 36.8164-26.709 35.7422-26.709L24.1699-26.709C23.2422-26.709 22.7539-27.2461 22.7539-28.1738L22.7539-42.3828L14.9902-50.0977C13.4766-48.4375 12.6465-45.8496 12.6465-42.5293L12.6465-27.8809C12.6465-20.9473 16.1133-17.2852 22.7539-17.2852Z"/>
  </g>
  <g id="Semibold-S" transform="matrix(1 0 0 1 2002.01 696)">
   <path d="M74.6094 3.17383C75.9277 4.49219 78.125 4.49219 79.3945 3.17383C80.7129 1.80664 80.7129-0.341797 79.3945-1.66016L10.4492-70.5566C9.13086-71.875 6.93359-71.875 5.61523-70.5566C4.3457-69.2383 4.3457-66.9922 5.61523-65.7227ZM61.4746-26.9043L61.4746-64.2578C61.4746-67.5293 58.9844-70.166 55.6641-70.166C53.4668-70.166 51.9043-69.1895 49.4629-67.041L34.5703-53.8574L40.4785-47.9492L51.5137-58.0078C51.6602-58.1543 51.8555-58.2031 52.0508-58.2031C52.3438-58.2031 52.5391-58.0078 52.5391-57.666L52.5391-35.8398ZM21.9238-17.9688L32.5684-17.9688C32.8125-17.9688 33.0566-17.9199 33.252-17.7246L49.4629-3.22266C51.7578-1.17188 53.4668-0.244141 55.7617-0.244141C57.9102-0.244141 59.7656-1.36719 60.791-3.22266L52.6367-11.3281L37.2559-25.3906C36.4746-26.123 35.8887-26.2695 34.8633-26.2695L22.9492-26.2695C21.9238-26.2695 21.3379-26.8555 21.3379-27.9297L21.3379-42.6758L14.5508-49.4629C13.1836-47.9004 12.4512-45.5078 12.4512-42.4316L12.4512-27.9785C12.4512-21.3379 15.6738-17.9688 21.9238-17.9688Z"/>
  </g>
  <g id="Medium-S" transform="matrix(1 0 0 1 1705.88 696)">
   <path d="M73.4863 3.07617C74.8047 4.39453 76.9531 4.39453 78.2715 3.07617C79.541 1.75781 79.5898-0.390625 78.2715-1.70898L10.3027-69.5801C8.98438-70.9473 6.78711-70.9473 5.46875-69.5801C4.19922-68.3105 4.19922-66.1133 5.46875-64.8438ZM60.5469-26.5625L60.5469-64.3555C60.5469-67.3828 58.252-69.8242 55.1758-69.8242C53.0273-69.8242 51.6113-68.8965 49.2676-66.7969L33.9355-53.2715L39.2578-47.8516L51.5137-58.9355C51.6602-59.082 51.8555-59.1797 52.0508-59.1797C52.3438-59.1797 52.5391-58.9844 52.5391-58.6426L52.5391-34.5703ZM21.3379-18.5059L31.9824-18.5059C32.2266-18.5059 32.5195-18.4082 32.7148-18.2129L49.2676-3.41797C51.4648-1.46484 53.0762-0.585938 55.2246-0.585938C57.2266-0.585938 58.8867-1.5625 59.8633-3.27148L53.1738-9.96094L36.4258-25.0977C35.6934-25.8301 35.2051-25.9766 34.1797-25.9766L22.0215-25.9766C20.8496-25.9766 20.2637-26.5625 20.2637-27.7344L20.2637-42.8711L14.1602-48.9746C12.9395-47.4609 12.2559-45.2637 12.2559-42.3828L12.2559-28.0273C12.2559-21.6309 15.332-18.5059 21.3379-18.5059Z"/>
  </g>
  <g id="Regular-S" transform="matrix(1 0 0 1 1409.93 696)">
   <path d="M59.3262-26.123L59.3262-64.4531C59.3262-67.1387 57.2754-69.3848 54.4922-69.3848C52.4902-69.3848 51.2695-68.5059 48.9746-66.4551L33.0566-52.4414L37.6953-47.7539L51.5137-60.2051C51.6602-60.3516 51.8555-60.4492 52.0508-60.4492C52.3438-60.4492 52.5391-60.2539 52.5391-59.9609L52.5391-32.9102ZM72.0215 2.97852C73.3398 4.29688 75.4883 4.29688 76.7578 2.97852C78.0273 1.66016 78.0762-0.439453 76.7578-1.75781L10.1074-68.4082C8.78906-69.6777 6.5918-69.7266 5.27344-68.4082C4.00391-67.1387 4.00391-64.8926 5.27344-63.623ZM20.5078-19.1895L31.25-19.1895C31.4941-19.1895 31.7871-19.0918 32.0312-18.8965L48.9746-3.66211C51.0742-1.85547 52.5879-1.02539 54.5898-1.02539C56.2988-1.02539 57.7148-1.80664 58.6914-3.36914L53.8086-8.20312L35.4004-24.7559C34.668-25.4395 34.2773-25.5371 33.3008-25.5371L20.8496-25.5371C19.5312-25.5371 18.8965-26.1719 18.8965-27.4902L18.8965-43.1641L13.7207-48.3398C12.6465-46.9238 12.0605-44.9219 12.0605-42.2852L12.0605-28.0762C12.0605-22.0703 14.8926-19.1895 20.5078-19.1895Z"/>
  </g>
  <g id="Light-S" transform="matrix(1 0 0 1 1115.1 696)">
   <path d="M56.8848-24.6582L56.8848-64.4043C56.8848-66.6992 55.2246-68.6035 52.832-68.6035C51.1719-68.6035 50.0488-67.7734 48.291-66.2109L30.9082-50.6836L34.5215-47.0215L50.3906-61.4746C50.5859-61.6699 50.8301-61.8164 51.0742-61.8164C51.3672-61.8164 51.6113-61.6211 51.6113-61.2305L51.6113-29.9316ZM69.0918 2.19727C70.1172 3.22266 71.8262 3.22266 72.8027 2.19727C73.8281 1.12305 73.8281-0.488281 72.8027-1.51367L8.25195-66.0645C7.22656-67.041 5.56641-67.0898 4.49219-66.0645C3.51562-65.0391 3.51562-63.3301 4.49219-62.3535ZM18.6035-20.0684L29.7363-20.0684C30.127-20.0684 30.4688-19.9219 30.7617-19.6777L48.291-4.05273C49.9023-2.58789 51.2207-1.85547 52.9297-1.85547C54.248-1.85547 55.3223-2.44141 56.1035-3.56445L52.002-7.61719L33.4961-24.1699C32.7148-24.8535 32.1777-25 31.1523-25L18.7988-25C17.2852-25 16.6016-25.6836 16.6016-27.2461L16.6016-43.0664L12.5-47.168C11.7188-46.0938 11.3281-44.5801 11.3281-42.627L11.3281-27.6367C11.3281-22.5098 13.7207-20.0684 18.6035-20.0684Z"/>
  </g>
  <g id="Thin-S" transform="matrix(1 0 0 1 820.827 696)">
   <path d="M53.6621-22.7539L53.6621-64.4043C53.6621-66.1621 52.5391-67.5781 50.6836-67.5781C49.4141-67.5781 48.4863-66.8945 47.3145-65.8691L28.0273-48.3887L30.2734-46.1426L48.877-63.1348C49.1699-63.3789 49.4141-63.623 49.8047-63.623C50.1465-63.623 50.4395-63.4277 50.4395-62.9883L50.4395-25.9766ZM65.2832 1.12305C65.918 1.75781 66.9434 1.75781 67.5781 1.12305C68.2129 0.439453 68.2129-0.537109 67.5781-1.17188L5.81055-62.9395C5.17578-63.5254 4.15039-63.623 3.4668-62.9395C2.88086-62.3047 2.88086-61.2793 3.4668-60.6445ZM16.0645-21.2402L27.7832-21.2402C28.3203-21.2402 28.7598-21.0449 29.1016-20.7031L47.3145-4.54102C48.4375-3.56445 49.4141-2.92969 50.7324-2.92969C51.5625-2.92969 52.1973-3.22266 52.7344-3.80859L49.5605-6.78711L31.0059-23.3398C30.127-24.1211 29.4434-24.3164 28.2715-24.3164L16.1621-24.3164C14.3066-24.3164 13.623-25.0488 13.623-26.9043L13.623-42.9199L10.8887-45.6543C10.5469-44.9707 10.4004-44.1406 10.4004-43.0664L10.4004-27.0508C10.4004-23.0469 12.2559-21.2402 16.0645-21.2402Z"/>
  </g>
  <g id="Ultralight-S" transform="matrix(1 0 0 1 525.385 696)">
   <path d="M52.002-21.7773L52.002-64.3555C52.002-65.8203 51.123-67.041 49.5605-67.041C48.4863-67.041 47.6562-66.4062 46.8262-65.7227L26.5625-47.2168L28.0762-45.6543L48.1445-64.0137C48.4375-64.3066 48.6816-64.5996 49.1211-64.5996C49.5117-64.5996 49.8047-64.3555 49.8047-63.8672L49.8047-23.9746ZM63.2812 0.585938C63.7207 1.02539 64.4531 1.02539 64.8926 0.585938C65.332 0.0976562 65.332-0.585938 64.8926-1.02539L4.54102-61.3281C4.15039-61.7188 3.41797-61.8164 2.92969-61.3281C2.53906-60.9375 2.53906-60.2051 2.92969-59.7656ZM14.7461-21.8262L26.7578-21.8262C27.3926-21.8262 27.832-21.6309 28.2715-21.2402L46.8262-4.78516C47.6562-4.10156 48.4863-3.4668 49.5605-3.4668C50.1465-3.4668 50.6348-3.66211 50.9766-3.90625L48.291-6.39648L29.6875-22.9492C28.8086-23.7305 28.0273-23.9746 26.8066-23.9746L14.7461-23.9746C12.7441-23.9746 12.0605-24.707 12.0605-26.709L12.0605-42.8223L10.0586-44.873C9.96094-44.4336 9.86328-43.8965 9.86328-43.3105L9.86328-26.709C9.86328-23.3887 11.4746-21.8262 14.7461-21.8262Z"/>
  </g>
 </g>
</svg>
