<?xml version="1.0" encoding="UTF-8"?>
<!--Generator: Apple Native CoreSVG 149-->
<!DOCTYPE svg
PUBLIC "-//W3C//DTD SVG 1.1//EN"
       "http://www.w3.org/Graphics/SVG/1.1/DTD/svg11.dtd">
<svg version="1.1" xmlns="http://www.w3.org/2000/svg" xmlns:xlink="http://www.w3.org/1999/xlink" width="3300" height="2200">
 <!--glyph: "uni100C76.medium", point size: 100.000000, font version: "Version 16.0d12e3", template writer version: "8"-->
 <g id="Notes">
  <rect height="2200" id="artboard" style="fill:white;opacity:1" width="3300" x="0" y="0"/>
  <line id="" style="fill:none;stroke:black;opacity:1;stroke-width:0.5;" x1="263" x2="3036" y1="292" y2="292"/>
  <text style="stroke:none;fill:black;font-family:-apple-system,&quot;SF Pro Display&quot;,&quot;SF Pro Text&quot;,Helvetica,sans-serif;font-weight:bold;" transform="matrix(1 0 0 1 263 322)">Weight/Scale Variations</text>
  <text style="stroke:none;fill:black;font-family:-apple-system,&quot;SF Pro Display&quot;,&quot;SF Pro Text&quot;,Helvetica,sans-serif;text-anchor:middle;" transform="matrix(1 0 0 1 559.711 322)">Ultralight</text>
  <text style="stroke:none;fill:black;font-family:-apple-system,&quot;SF Pro Display&quot;,&quot;SF Pro Text&quot;,Helvetica,sans-serif;text-anchor:middle;" transform="matrix(1 0 0 1 856.422 322)">Thin</text>
  <text style="stroke:none;fill:black;font-family:-apple-system,&quot;SF Pro Display&quot;,&quot;SF Pro Text&quot;,Helvetica,sans-serif;text-anchor:middle;" transform="matrix(1 0 0 1 1153.13 322)">Light</text>
  <text style="stroke:none;fill:black;font-family:-apple-system,&quot;SF Pro Display&quot;,&quot;SF Pro Text&quot;,Helvetica,sans-serif;text-anchor:middle;" transform="matrix(1 0 0 1 1449.84 322)">Regular</text>
  <text style="stroke:none;fill:black;font-family:-apple-system,&quot;SF Pro Display&quot;,&quot;SF Pro Text&quot;,Helvetica,sans-serif;text-anchor:middle;" transform="matrix(1 0 0 1 1746.56 322)">Medium</text>
  <text style="stroke:none;fill:black;font-family:-apple-system,&quot;SF Pro Display&quot;,&quot;SF Pro Text&quot;,Helvetica,sans-serif;text-anchor:middle;" transform="matrix(1 0 0 1 2043.27 322)">Semibold</text>
  <text style="stroke:none;fill:black;font-family:-apple-system,&quot;SF Pro Display&quot;,&quot;SF Pro Text&quot;,Helvetica,sans-serif;text-anchor:middle;" transform="matrix(1 0 0 1 2339.98 322)">Bold</text>
  <text style="stroke:none;fill:black;font-family:-apple-system,&quot;SF Pro Display&quot;,&quot;SF Pro Text&quot;,Helvetica,sans-serif;text-anchor:middle;" transform="matrix(1 0 0 1 2636.69 322)">Heavy</text>
  <text style="stroke:none;fill:black;font-family:-apple-system,&quot;SF Pro Display&quot;,&quot;SF Pro Text&quot;,Helvetica,sans-serif;text-anchor:middle;" transform="matrix(1 0 0 1 2933.4 322)">Black</text>
  <line id="" style="fill:none;stroke:black;opacity:1;stroke-width:0.5;" x1="263" x2="3036" y1="1903" y2="1903"/>
  <g id="" transform="matrix(1 0 0 1 263 1933)">
   <path d="M9.24805 0.830078C13.5547 0.830078 17.1387-2.74414 17.1387-7.05078C17.1387-11.3574 13.5449-14.9316 9.23828-14.9316C4.94141-14.9316 1.36719-11.3574 1.36719-7.05078C1.36719-2.74414 4.95117 0.830078 9.24805 0.830078ZM9.24805-0.654297C5.70312-0.654297 2.87109-3.49609 2.87109-7.05078C2.87109-10.6055 5.69336-13.4473 9.23828-13.4473C12.793-13.4473 15.6348-10.6055 15.6445-7.05078C15.6543-3.49609 12.8027-0.654297 9.24805-0.654297ZM9.22852-3.62305C9.69727-3.62305 9.9707-3.93555 9.9707-4.45312L9.9707-6.31836L12.002-6.31836C12.5-6.31836 12.832-6.57227 12.832-7.04102C12.832-7.51953 12.5195-7.7832 12.002-7.7832L9.9707-7.7832L9.9707-9.81445C9.9707-10.332 9.69727-10.6543 9.22852-10.6543C8.75977-10.6543 8.50586-10.3125 8.50586-9.81445L8.50586-7.7832L6.49414-7.7832C5.97656-7.7832 5.64453-7.51953 5.64453-7.04102C5.64453-6.57227 5.99609-6.31836 6.49414-6.31836L8.50586-6.31836L8.50586-4.45312C8.50586-3.95508 8.75977-3.62305 9.22852-3.62305Z"/>
  </g>
  <g id="" transform="matrix(1 0 0 1 281.506 1933)">
   <path d="M11.709 2.91016C17.1582 2.91016 21.6699-1.61133 21.6699-7.05078C21.6699-12.5 17.1484-17.0117 11.6992-17.0117C6.25977-17.0117 1.74805-12.5 1.74805-7.05078C1.74805-1.61133 6.26953 2.91016 11.709 2.91016ZM11.709 1.25C7.09961 1.25 3.41797-2.44141 3.41797-7.05078C3.41797-11.6602 7.08984-15.3516 11.6992-15.3516C16.3086-15.3516 20-11.6602 20.0098-7.05078C20.0195-2.44141 16.3184 1.25 11.709 1.25ZM11.6797-2.66602C12.207-2.66602 12.5098-3.01758 12.5098-3.59375L12.5098-6.23047L15.3223-6.23047C15.8691-6.23047 16.25-6.51367 16.25-7.03125C16.25-7.55859 15.8887-7.86133 15.3223-7.86133L12.5098-7.86133L12.5098-10.6836C12.5098-11.25 12.207-11.6113 11.6797-11.6113C11.1621-11.6113 10.8789-11.2305 10.8789-10.6836L10.8789-7.86133L8.07617-7.86133C7.50977-7.86133 7.13867-7.55859 7.13867-7.03125C7.13867-6.51367 7.5293-6.23047 8.07617-6.23047L10.8789-6.23047L10.8789-3.59375C10.8789-3.03711 11.1621-2.66602 11.6797-2.66602Z"/>
  </g>
  <g id="" transform="matrix(1 0 0 1 304.924 1933)">
   <path d="M14.9707 5.66406C21.9336 5.66406 27.6953-0.0976562 27.6953-7.05078C27.6953-14.0137 21.9238-19.7754 14.9609-19.7754C8.00781-19.7754 2.25586-14.0137 2.25586-7.05078C2.25586-0.0976562 8.01758 5.66406 14.9707 5.66406ZM14.9707 3.84766C8.93555 3.84766 4.08203-1.01562 4.08203-7.05078C4.08203-13.0957 8.92578-17.9492 14.9609-17.9492C21.0059-17.9492 25.8594-13.0957 25.8691-7.05078C25.8789-1.01562 21.0156 3.84766 14.9707 3.84766ZM14.9414-1.38672C15.5176-1.38672 15.8594-1.77734 15.8594-2.38281L15.8594-6.13281L19.7754-6.13281C20.3711-6.13281 20.7812-6.46484 20.7812-7.02148C20.7812-7.59766 20.3906-7.93945 19.7754-7.93945L15.8594-7.93945L15.8594-11.8652C15.8594-12.4805 15.5176-12.8711 14.9414-12.8711C14.375-12.8711 14.0527-12.4609 14.0527-11.8652L14.0527-7.93945L10.1465-7.93945C9.53125-7.93945 9.13086-7.59766 9.13086-7.02148C9.13086-6.46484 9.55078-6.13281 10.1465-6.13281L14.0527-6.13281L14.0527-2.38281C14.0527-1.79688 14.375-1.38672 14.9414-1.38672Z"/>
  </g>
  <text style="stroke:none;fill:black;font-family:-apple-system,&quot;SF Pro Display&quot;,&quot;SF Pro Text&quot;,Helvetica,sans-serif;font-weight:bold;" transform="matrix(1 0 0 1 263 1953)">Design Variations</text>
  <text style="stroke:none;fill:black;font-family:-apple-system,&quot;SF Pro Display&quot;,&quot;SF Pro Text&quot;,Helvetica,sans-serif;" transform="matrix(1 0 0 1 263 1971)">Symbols are supported in up to nine weights and three scales.</text>
  <text style="stroke:none;fill:black;font-family:-apple-system,&quot;SF Pro Display&quot;,&quot;SF Pro Text&quot;,Helvetica,sans-serif;" transform="matrix(1 0 0 1 263 1989)">For optimal layout with text and other symbols, vertically align</text>
  <text style="stroke:none;fill:black;font-family:-apple-system,&quot;SF Pro Display&quot;,&quot;SF Pro Text&quot;,Helvetica,sans-serif;" transform="matrix(1 0 0 1 263 2007)">symbols with the adjacent text.</text>
  <line id="" style="fill:none;stroke:#00AEEF;stroke-width:0.5;opacity:1.0;" x1="776" x2="776" y1="1919" y2="1933"/>
  <g id="" transform="matrix(1 0 0 1 776 1933)">
   <path d="M3.31055 0.126953C3.82812 0.126953 4.08203-0.0683594 4.26758-0.605469L5.52734-4.0625L11.2891-4.0625L12.5488-0.605469C12.7344-0.0683594 12.9883 0.126953 13.4961 0.126953C14.0137 0.126953 14.3457-0.185547 14.3457-0.673828C14.3457-0.839844 14.3164-0.986328 14.2383-1.20117L9.6582-13.3887C9.43359-13.9941 9.0332-14.2871 8.4082-14.2871C7.80273-14.2871 7.39258-13.9941 7.17773-13.3984L2.59766-1.19141C2.51953-0.976562 2.49023-0.830078 2.49023-0.664062C2.49023-0.175781 2.80273 0.126953 3.31055 0.126953ZM6.00586-5.53711L8.37891-12.1094L8.42773-12.1094L10.8008-5.53711Z"/>
  </g>
  <line id="" style="fill:none;stroke:#00AEEF;stroke-width:0.5;opacity:1.0;" x1="792.836" x2="792.836" y1="1919" y2="1933"/>
  <text style="stroke:none;fill:black;font-family:-apple-system,&quot;SF Pro Display&quot;,&quot;SF Pro Text&quot;,Helvetica,sans-serif;font-weight:bold;" transform="matrix(1 0 0 1 776 1953)">Margins</text>
  <text style="stroke:none;fill:black;font-family:-apple-system,&quot;SF Pro Display&quot;,&quot;SF Pro Text&quot;,Helvetica,sans-serif;" transform="matrix(1 0 0 1 776 1971)">Leading and trailing margins on the left and right side of each symbol</text>
  <text style="stroke:none;fill:black;font-family:-apple-system,&quot;SF Pro Display&quot;,&quot;SF Pro Text&quot;,Helvetica,sans-serif;" transform="matrix(1 0 0 1 776 1989)">can be adjusted by modifying the x-location of the margin guidelines.</text>
  <text style="stroke:none;fill:black;font-family:-apple-system,&quot;SF Pro Display&quot;,&quot;SF Pro Text&quot;,Helvetica,sans-serif;" transform="matrix(1 0 0 1 776 2007)">Modifications are automatically applied proportionally to all</text>
  <text style="stroke:none;fill:black;font-family:-apple-system,&quot;SF Pro Display&quot;,&quot;SF Pro Text&quot;,Helvetica,sans-serif;" transform="matrix(1 0 0 1 776 2025)">scales and weights.</text>
  <g id="" transform="matrix(1 0 0 1 1289 1933)">
   <path d="M2.8418 1.86523L4.54102 3.57422C5.40039 4.44336 6.38672 4.38477 7.31445 3.35938L17.4902-7.85156C17.7539-7.76367 18.0273-7.7832 18.3398-7.8418L19.4043-8.03711L20.0684-7.36328L20.0293-6.80664C19.9902-6.30859 20.1172-5.92773 20.6055-5.44922L21.3672-4.70703C21.8457-4.22852 22.4609-4.19922 22.9297-4.66797L25.8398-7.58789C26.3086-8.05664 26.2891-8.65234 25.8105-9.13086L25.0391-9.89258C24.5605-10.3711 24.1895-10.5273 23.7109-10.4883L23.1348-10.4395L22.4902-11.0742L22.7344-12.1973C22.8613-12.7637 22.7051-13.2031 22.1191-13.7891L19.9219-15.9766C16.582-19.2969 12.1484-19.2188 9.25781-16.3281C8.83789-15.918 8.80859-15.3418 9.04297-14.9512C9.27734-14.5898 9.73633-14.3555 10.3809-14.5215C11.8457-14.8633 13.3691-14.9219 14.7949-13.9844L14.209-12.5293C14.0137-12.0508 13.9844-11.6504 14.1113-11.2891L3.04688-0.898438C2.06055 0.0195312 1.98242 0.996094 2.8418 1.86523ZM10.752-15.957C13.1836-17.7344 16.4746-17.4316 18.7012-15.2051L21.1328-12.793C21.3672-12.5586 21.4062-12.373 21.3379-12.0312L21.0156-10.5469L22.5195-9.0625L23.5059-9.12109C23.7598-9.13086 23.8379-9.11133 24.0332-8.91602L24.6094-8.33984L22.168-5.89844L21.5918-6.47461C21.3965-6.66992 21.3672-6.74805 21.377-7.01172L21.4453-7.98828L19.9512-9.47266L18.4277-9.21875C18.1055-9.15039 17.959-9.17969 17.7148-9.41406L15.7129-11.416C15.459-11.6504 15.4297-11.8164 15.5859-12.1875L16.4648-14.2773C14.9023-15.7324 12.8711-16.3574 10.8398-15.7617C10.6836-15.7227 10.625-15.8496 10.752-15.957ZM5.27344 2.30469L4.10156 1.14258C3.63281 0.683594 3.74023 0.341797 4.14062-0.0195312L14.9512-10.1953L16.416-8.71094L6.42578 2.27539C6.07422 2.67578 5.74219 2.77344 5.27344 2.30469Z"/>
  </g>
  <text style="stroke:none;fill:black;font-family:-apple-system,&quot;SF Pro Display&quot;,&quot;SF Pro Text&quot;,Helvetica,sans-serif;font-weight:bold;" transform="matrix(1 0 0 1 1289 1953)">Exporting</text>
  <text style="stroke:none;fill:black;font-family:-apple-system,&quot;SF Pro Display&quot;,&quot;SF Pro Text&quot;,Helvetica,sans-serif;" transform="matrix(1 0 0 1 1289 1971)">Symbols should be outlined when exporting to ensure the</text>
  <text style="stroke:none;fill:black;font-family:-apple-system,&quot;SF Pro Display&quot;,&quot;SF Pro Text&quot;,Helvetica,sans-serif;" transform="matrix(1 0 0 1 1289 1989)">design is preserved when submitting to Xcode.</text>
  <text id="template-version" style="stroke:none;fill:black;font-family:-apple-system,&quot;SF Pro Display&quot;,&quot;SF Pro Text&quot;,Helvetica,sans-serif;text-anchor:end;" transform="matrix(1 0 0 1 3036 1933)">Template v.2.0</text>
  <text style="stroke:none;fill:black;font-family:-apple-system,&quot;SF Pro Display&quot;,&quot;SF Pro Text&quot;,Helvetica,sans-serif;text-anchor:end;" transform="matrix(1 0 0 1 3036 1951)">Requires Xcode 12 or greater</text>
  <text style="stroke:none;fill:black;font-family:-apple-system,&quot;SF Pro Display&quot;,&quot;SF Pro Text&quot;,Helvetica,sans-serif;text-anchor:end;" transform="matrix(1 0 0 1 3036 1969)">Generated from arrow.up.backward.and.arrow.down.forward</text>
  <text style="stroke:none;fill:black;font-family:-apple-system,&quot;SF Pro Display&quot;,&quot;SF Pro Text&quot;,Helvetica,sans-serif;text-anchor:end;" transform="matrix(1 0 0 1 3036 1987)">Typeset at 100 points</text>
  <text style="stroke:none;fill:black;font-family:-apple-system,&quot;SF Pro Display&quot;,&quot;SF Pro Text&quot;,Helvetica,sans-serif;" transform="matrix(1 0 0 1 263 726)">Small</text>
  <text style="stroke:none;fill:black;font-family:-apple-system,&quot;SF Pro Display&quot;,&quot;SF Pro Text&quot;,Helvetica,sans-serif;" transform="matrix(1 0 0 1 263 1156)">Medium</text>
  <text style="stroke:none;fill:black;font-family:-apple-system,&quot;SF Pro Display&quot;,&quot;SF Pro Text&quot;,Helvetica,sans-serif;" transform="matrix(1 0 0 1 263 1586)">Large</text>
 </g>
 <g id="Guides">
  <g id="H-reference" style="fill:#27AAE1;stroke:none;" transform="matrix(1 0 0 1 339 696)">
   <path d="M0.976562 0L3.66211 0L12.9883-24.4629L45.752-24.4629L55.127 0L57.7637 0L30.6152-70.459L28.125-70.459ZM29.3457-67.1387L29.4434-67.1387L44.873-26.709L13.8672-26.709Z"/>
  </g>
  <line id="Baseline-S" style="fill:none;stroke:#27AAE1;opacity:1;stroke-width:0.5;" x1="263" x2="3036" y1="696" y2="696"/>
  <line id="Capline-S" style="fill:none;stroke:#27AAE1;opacity:1;stroke-width:0.5;" x1="263" x2="3036" y1="625.541" y2="625.541"/>
  <g id="H-reference" style="fill:#27AAE1;stroke:none;" transform="matrix(1 0 0 1 339 1126)">
   <path d="M0.976562 0L3.66211 0L12.9883-24.4629L45.752-24.4629L55.127 0L57.7637 0L30.6152-70.459L28.125-70.459ZM29.3457-67.1387L29.4434-67.1387L44.873-26.709L13.8672-26.709Z"/>
  </g>
  <line id="Baseline-M" style="fill:none;stroke:#27AAE1;opacity:1;stroke-width:0.5;" x1="263" x2="3036" y1="1126" y2="1126"/>
  <line id="Capline-M" style="fill:none;stroke:#27AAE1;opacity:1;stroke-width:0.5;" x1="263" x2="3036" y1="1055.54" y2="1055.54"/>
  <g id="H-reference" style="fill:#27AAE1;stroke:none;" transform="matrix(1 0 0 1 339 1556)">
   <path d="M0.976562 0L3.66211 0L12.9883-24.4629L45.752-24.4629L55.127 0L57.7637 0L30.6152-70.459L28.125-70.459ZM29.3457-67.1387L29.4434-67.1387L44.873-26.709L13.8672-26.709Z"/>
  </g>
  <line id="Baseline-L" style="fill:none;stroke:#27AAE1;opacity:1;stroke-width:0.5;" x1="263" x2="3036" y1="1556" y2="1556"/>
  <line id="Capline-L" style="fill:none;stroke:#27AAE1;opacity:1;stroke-width:0.5;" x1="263" x2="3036" y1="1485.54" y2="1485.54"/>
  <line id="left-margin" style="fill:none;stroke:#00AEEF;stroke-width:0.5;opacity:1.0;" x1="1390.86" x2="1390.86" y1="1030.79" y2="1150.12"/>
  <line id="right-margin" style="fill:none;stroke:#00AEEF;stroke-width:0.5;opacity:1.0;" x1="1508.83" x2="1508.83" y1="1030.79" y2="1150.12"/>
 </g>
 <g id="Symbols">
  <g id="Black-L" transform="matrix(1 0 0 1 2854.54 1556)">
   <path d="M26.8555-39.1602C32.959-39.1602 37.5977-43.4082 37.5977-49.5117L37.5977-50.5371L36.084-63.0371L44.043-54.4922L57.8613-40.5762C59.9121-38.4766 62.6465-37.4512 65.5762-37.4512C72.168-37.4512 76.6602-42.1875 76.6602-48.7793C76.6602-51.6113 75.4395-54.1016 73.3887-56.1035L59.4727-69.9707L50.8789-77.9297L63.7207-76.416L66.2598-76.416C72.3633-76.416 76.6602-81.0547 76.6602-87.1582C76.6602-93.3594 72.3633-97.9492 66.2598-97.9492L31.9336-97.9492C21.875-97.9492 16.0645-92.0898 16.0645-82.0312L16.0645-49.5117C16.0645-43.4082 20.752-39.1602 26.8555-39.1602ZM91.4551 27.6855L125.732 27.6855C135.791 27.6855 141.65 21.875 141.65 11.8164L141.65-20.7031C141.65-26.8066 136.963-31.1035 130.859-31.1035C124.756-31.1035 120.068-26.8555 120.068-20.7031L120.068-19.7266L121.631-7.22656L113.623-15.7715L99.8047-29.6875C97.7539-31.7383 95.0195-32.8125 92.1387-32.8125C85.5469-32.8125 81.0059-28.0762 81.0059-21.4844C81.0059-18.6523 82.2754-16.1621 84.2773-14.1113L98.2422-0.244141L106.787 7.66602L93.9453 6.15234L91.4551 6.15234C85.3516 6.15234 81.0547 10.791 81.0547 16.8945C81.0547 23.0957 85.3516 27.6855 91.4551 27.6855Z"/>
  </g>
  <g id="Heavy-L" transform="matrix(1 0 0 1 2558.56 1556)">
   <path d="M25.4883-40.4785C30.8105-40.4785 34.8145-44.2383 34.8145-49.6094L34.8145-52.3926L33.3984-67.041L43.7988-56.0547L59.082-40.6738C60.8398-38.8184 63.2324-37.9395 65.7227-37.9395C71.4844-37.9395 75.4395-42.041 75.4395-47.7539C75.4395-50.2441 74.3652-52.4902 72.6074-54.248L57.2266-69.5801L46.2402-79.9316L61.1328-78.5156L65.0879-78.5156C70.4102-78.5156 74.2188-82.4707 74.2188-87.8418C74.2188-93.2617 70.4102-97.2168 65.0879-97.2168L30.2246-97.2168C21.2891-97.2168 16.0645-92.041 16.0645-83.0566L16.0645-49.6094C16.0645-44.2871 20.1172-40.4785 25.4883-40.4785ZM91.1621 26.9043L126.025 26.9043C134.961 26.9043 140.186 21.7285 140.186 12.7441L140.186-20.7031C140.186-26.0254 136.133-29.834 130.762-29.834C125.439-29.834 121.387-26.0742 121.387-20.7031L121.387-17.9199L122.852-3.27148L112.451-14.2578L97.168-29.6387C95.4102-31.4453 93.0176-32.373 90.4785-32.373C84.7168-32.373 80.7617-28.2715 80.7617-22.5586C80.7617-20.0684 81.8359-17.8223 83.5938-16.0645L99.0234-0.732422L110.01 9.61914L95.1172 8.20312L91.1621 8.20312C85.8398 8.20312 82.0312 12.207 82.0312 17.5293C82.0312 22.9492 85.791 26.9043 91.1621 26.9043Z"/>
  </g>
  <g id="Bold-L" transform="matrix(1 0 0 1 2262.68 1556)">
   <path d="M23.9258-41.9922C28.3691-41.9922 31.7383-45.166 31.7383-49.6582L31.7383-54.4434L30.3711-71.4844L43.457-57.8125L60.4004-40.7715C61.8652-39.209 63.8184-38.4766 65.918-38.4766C70.752-38.4766 74.1211-41.8457 74.1211-46.6309C74.1211-48.7793 73.2422-50.6348 71.7285-52.1484L54.6875-69.1406L41.0156-82.1289L58.2031-80.8105L63.7695-80.8105C68.2129-80.8105 71.4844-84.1309 71.4844-88.623C71.4844-93.1641 68.2617-96.4355 63.7695-96.4355L28.3203-96.4355C20.5566-96.4355 16.0645-91.9434 16.0645-84.2285L16.0645-49.6582C16.0645-45.2148 19.4336-41.9922 23.9258-41.9922ZM90.8203 26.0742L126.27 26.0742C134.033 26.0742 138.525 21.582 138.525 13.8184L138.525-20.7031C138.525-25.1465 135.156-28.3691 130.664-28.3691C126.221-28.3691 122.9-25.1953 122.9-20.7031L122.9-15.918L124.219 1.12305L111.133-12.5977L94.1895-29.6387C92.7246-31.1523 90.7715-31.8848 88.6719-31.8848C83.8379-31.8848 80.4688-28.5645 80.4688-23.7305C80.4688-21.6309 81.3477-19.7266 82.8613-18.2617L99.9023-1.2207L113.623 11.7676L96.3867 10.4492L90.8203 10.4492C86.377 10.4492 83.1543 13.7695 83.1055 18.2617C83.1055 22.7539 86.3281 26.0742 90.8203 26.0742Z"/>
  </g>
  <g id="Semibold-L" transform="matrix(1 0 0 1 1966.53 1556)">
   <path d="M22.8516-43.0176C26.709-43.0176 29.5898-45.8008 29.5898-49.707L29.5898-55.9082L28.3203-74.5605L43.2617-58.9844L61.2793-40.8203C62.5977-39.502 64.2578-38.8672 66.0645-38.8672C70.2148-38.8672 73.1934-41.6992 73.1934-45.8496C73.1934-47.7051 72.4121-49.3652 71.1426-50.6836L52.9785-68.8477L37.4023-83.6914L56.2012-82.4219L62.8418-82.4219C66.748-82.4219 69.5801-85.2539 69.5801-89.1602C69.5801-93.0664 66.748-95.9473 62.8418-95.9473L27.002-95.9473C20.0684-95.9473 16.0645-91.8945 16.0645-85.0098L16.0645-49.707C16.0645-45.8984 18.9453-43.0176 22.8516-43.0176ZM90.625 25.4883L126.465 25.4883C133.398 25.4883 137.402 21.4844 137.402 14.5996L137.402-20.7031C137.402-24.5605 134.521-27.3926 130.615-27.3926C126.758-27.3926 123.877-24.6094 123.877-20.7031L123.877-14.5508L125.146 4.15039L110.205-11.4258L92.1875-29.5898C90.8691-30.9082 89.209-31.5918 87.4023-31.5918C83.252-31.5918 80.2734-28.7109 80.2734-24.5605C80.2734-22.7051 81.0547-21.0449 82.3242-19.7266L100.488-1.61133L116.064 13.2812L97.2656 12.0117L90.625 12.0117C86.7676 12.0117 83.8867 14.8438 83.8867 18.75C83.8867 22.6562 86.7188 25.4883 90.625 25.4883Z"/>
  </g>
  <g id="Medium-L" transform="matrix(1 0 0 1 1670.24 1556)">
   <path d="M22.0215-43.7988C25.4395-43.7988 27.9297-46.2891 27.9297-49.7559L27.9297-56.9824L26.7578-76.9043L43.1152-59.9121L62.0117-40.8691C63.1348-39.6973 64.5996-39.1602 66.1621-39.1602C69.8242-39.1602 72.4609-41.6016 72.4609-45.2637C72.4609-46.9238 71.8262-48.4375 70.6543-49.6094L51.6602-68.6035L34.668-84.8633L54.6875-83.6426L62.1582-83.6426C65.5762-83.6426 68.1641-86.084 68.1641-89.5508C68.1641-93.0176 65.625-95.5078 62.1582-95.5078L25.9766-95.5078C19.7266-95.5078 16.0645-91.8457 16.0645-85.5957L16.0645-49.7559C16.0645-46.3867 18.6035-43.7988 22.0215-43.7988ZM90.4297 25.0488L126.611 25.0488C132.91 25.0488 136.572 21.3867 136.572 15.1367L136.572-20.7031C136.572-24.0723 134.033-26.6602 130.566-26.6602C127.148-26.6602 124.658-24.1699 124.658-20.7031L124.658-13.4766L125.879 6.44531L109.521-10.5469L90.625-29.5898C89.502-30.7617 88.0371-31.2988 86.4258-31.2988C82.7637-31.2988 80.127-28.8574 80.127-25.1953C80.127-23.5352 80.8105-22.0215 81.9336-20.8496L100.977-1.85547L117.969 14.4043L97.9492 13.1836L90.4297 13.1836C87.0117 13.1836 84.4727 15.625 84.4238 19.0918C84.4238 22.5586 86.9629 25.0488 90.4297 25.0488Z"/>
  </g>
  <g id="Regular-L" transform="matrix(1 0 0 1 1374.09 1556)">
   <path d="M20.9961-44.8242C23.8281-44.8242 25.8301-46.9238 25.8301-49.8047L25.8301-58.3984L24.707-79.9316L42.8711-61.1328L62.8906-40.918C63.8184-39.9902 64.9902-39.502 66.3086-39.502C69.3359-39.502 71.5332-41.5039 71.5332-44.5312C71.5332-45.8984 71.0449-47.168 70.0684-48.1445L49.9512-68.3105L31.1035-86.377L52.6855-85.2539L61.2793-85.2539C64.1113-85.2539 66.3086-87.207 66.3086-90.0879C66.3086-92.9688 64.1602-94.9707 61.2793-94.9707L24.6582-94.9707C19.2383-94.9707 16.0645-91.7969 16.0645-86.377L16.0645-49.8047C16.0645-47.0215 18.1152-44.8242 20.9961-44.8242ZM90.2344 24.4629L126.807 24.4629C132.275 24.4629 135.449 21.2891 135.449 15.8691L135.449-20.7031C135.449-23.4863 133.398-25.6836 130.518-25.6836C127.686-25.6836 125.684-23.584 125.684-20.7031L125.684-12.1094L126.807 9.42383L108.594-9.375L88.623-29.5898C87.6953-30.5176 86.4746-31.0059 85.2051-31.0059C82.1777-31.0059 79.9805-29.0039 79.9805-25.9766C79.9805-24.6094 80.4688-23.3398 81.4453-22.3633L101.562-2.19727L120.41 15.8691L98.7793 14.7461L90.2344 14.7461C87.4023 14.7461 85.2051 16.6992 85.2051 19.5801C85.2051 22.4609 87.3535 24.4629 90.2344 24.4629Z"/>
  </g>
  <g id="Light-L" transform="matrix(1 0 0 1 1077.86 1556)">
   <path d="M19.7266-45.4102C21.9238-45.4102 23.3887-47.0215 23.3887-49.1699L23.3887-62.2559L22.5098-83.2031L42.8223-62.5L63.7207-41.4551C64.4043-40.7227 65.332-40.3809 66.2598-40.3809C68.5547-40.3809 70.2148-41.8457 70.2148-44.1406C70.2148-45.166 69.8242-46.0938 69.0918-46.8262L47.9492-67.9688L27.2949-88.0859L48.3398-87.1094L61.377-87.1094C63.4766-87.1094 65.1855-88.623 65.1855-90.7715C65.1855-92.9688 63.5742-94.4824 61.377-94.4824L22.5586-94.4824C18.5059-94.4824 16.0645-92.041 16.0645-87.9883L16.0645-49.1699C16.0645-47.0703 17.5781-45.4102 19.7266-45.4102ZM89.1602 24.0234L127.979 24.0234C132.031 24.0234 134.473 21.5332 134.473 17.4805L134.473-21.2891C134.473-23.3887 133.008-25.0977 130.811-25.0977C128.662-25.0977 127.148-23.4863 127.148-21.2891L127.148-8.25195L128.027 12.6953L107.764-7.95898L86.8164-29.0527C86.1328-29.7852 85.2539-30.127 84.2773-30.127C81.9824-30.127 80.3711-28.6621 80.3711-26.3672C80.3711-25.3418 80.7617-24.3652 81.4453-23.6816L102.588-2.53906L123.242 17.5781L102.246 16.6504L89.1602 16.6504C87.0605 16.6504 85.4004 18.1152 85.3516 20.3125C85.3516 22.5098 86.9629 24.0234 89.1602 24.0234Z"/>
  </g>
  <g id="Thin-L" transform="matrix(1 0 0 1 781.764 1556)">
   <path d="M18.1152-46.1426C19.3848-46.1426 20.2148-47.0703 20.2148-48.3398L20.2148-67.3828L19.6289-87.5L42.7246-64.3555L64.8438-42.0898C65.2344-41.6992 65.7227-41.5039 66.2598-41.5039C67.5781-41.5039 68.4082-42.2852 68.4082-43.6035C68.4082-44.1406 68.2129-44.6777 67.7734-45.0684L45.3613-67.4805L22.3145-90.332L42.5293-89.5996L61.5234-89.5996C62.6953-89.5996 63.7207-90.4297 63.7207-91.6992C63.7207-93.0176 62.8418-93.8477 61.5234-93.8477L19.7754-93.8477C17.5293-93.8477 16.0645-92.3828 16.0645-90.1367L16.0645-48.3398C16.0645-47.168 16.8457-46.1426 18.1152-46.1426ZM87.7441 23.3398L129.541 23.3398C131.787 23.3398 133.252 21.875 133.252 19.6289L133.252-22.1191C133.252-23.291 132.471-24.3164 131.201-24.3164C129.932-24.3164 129.102-23.3887 129.102-22.1191L129.102-3.07617L129.688 17.041L106.592-6.10352L84.4727-28.3691C84.082-28.7598 83.5938-29.0039 83.0566-29.0039C81.7383-29.0039 80.9082-28.1738 80.9082-26.8555C80.9082-26.3184 81.1035-25.8301 81.4941-25.3906L103.906-2.97852L127.002 19.873L106.787 19.1406L87.7441 19.1406C86.6211 19.1406 85.6445 19.9707 85.5469 21.2402C85.5469 22.5586 86.4746 23.3398 87.7441 23.3398Z"/>
  </g>
  <g id="Ultralight-L" transform="matrix(1 0 0 1 485.37 1556)">
   <path d="M17.2852-46.5332C18.1152-46.5332 18.5547-47.1191 18.5547-47.9492L18.5547-69.9707L18.1641-89.7461L42.6758-65.332L65.3809-42.4316C65.625-42.1875 65.9668-42.041 66.2598-42.041C67.041-42.041 67.4805-42.5293 67.4805-43.3594C67.4805-43.6035 67.3828-43.8965 67.1387-44.1406L44.043-67.2363L19.7266-91.4551L39.5508-90.8691L61.6211-90.8691C62.2559-90.8691 62.9883-91.3574 62.9883-92.1875C62.9883-93.0176 62.4512-93.5059 61.6211-93.5059L18.3594-93.5059C17.041-93.5059 16.0645-92.5293 16.0645-91.2109L16.0645-47.9492C16.0645-47.168 16.4551-46.5332 17.2852-46.5332ZM87.0605 23.0469L130.322 23.0469C131.641 23.0469 132.617 22.0703 132.617 20.752L132.617-22.5098C132.617-23.2422 132.227-23.877 131.396-23.877C130.566-23.877 130.078-23.3398 130.078-22.5098L130.078-0.488281L130.518 19.2871L106.006-5.12695L83.3008-28.0273C83.0078-28.2715 82.7148-28.3691 82.4219-28.3691C81.6406-28.3691 81.1523-27.9297 81.1523-27.0996C81.1523-26.8066 81.2988-26.5137 81.543-26.2695L104.639-3.22266L128.955 21.0449L109.131 20.459L87.0605 20.459C86.4258 20.459 85.791 20.8984 85.6934 21.7285C85.6934 22.5586 86.2305 23.0469 87.0605 23.0469Z"/>
  </g>
  <g id="Black-M" transform="matrix(1 0 0 1 2871.56 1126)">
   <path d="M22.0215-36.7676C27.4414-36.7676 31.5918-40.4785 31.5918-45.8984L31.5918-46.6309L30.4199-53.1738L34.4727-48.7793L43.7012-39.502C45.5566-37.6953 47.998-36.7188 50.5859-36.7188C56.4453-36.7188 60.3516-41.0156 60.3516-46.875C60.3516-49.3164 59.1797-51.4648 57.4219-53.2227L48.0957-62.5488L43.7012-66.5039L50.5859-65.332L52.9785-65.332C58.3984-65.332 62.1094-69.4824 62.1094-74.9023C62.1094-80.3711 58.3984-84.4727 52.9785-84.4727L25.9277-84.4727C17.4316-84.4727 12.4512-79.541 12.4512-70.9961L12.4512-45.8984C12.4512-40.4785 16.6016-36.7676 22.0215-36.7676ZM70.7031 14.3066L97.7539 14.3066C106.25 14.3066 111.23 9.32617 111.23 0.78125L111.23-24.3164C111.23-29.7363 107.08-33.4473 101.66-33.4473C96.2402-33.4473 92.0898-29.7363 92.0898-24.3164L92.0898-23.584L93.2617-17.041L89.209-21.3867L79.9805-30.7129C78.125-32.5195 75.6836-33.4473 73.0957-33.4473C67.2363-33.4473 63.3301-29.1504 63.3301-23.3398C63.3301-20.8496 64.502-18.75 66.2598-16.9434L75.5859-7.66602L79.9805-3.66211L73.0957-4.88281L70.7031-4.88281C65.2832-4.88281 61.5723-0.683594 61.5723 4.73633C61.5723 10.2051 65.2832 14.3066 70.7031 14.3066Z"/>
  </g>
  <g id="Heavy-M" transform="matrix(1 0 0 1 2575.53 1126)">
   <path d="M20.8496-38.0859C25.5859-38.0859 29.1992-41.3574 29.1992-46.1426L29.1992-47.6562L28.0273-56.6895L34.1797-50.1465L44.7754-39.4531C46.3867-37.8906 48.5352-37.0605 50.7812-37.0605C55.9082-37.0605 59.375-40.7715 59.375-45.8984C59.375-48.0469 58.3984-49.9512 56.8359-51.5137L46.1426-62.1582L39.5996-68.2617L48.877-67.1387L51.6602-67.1387C56.3965-67.1387 59.7168-70.752 59.7168-75.4883C59.7168-80.2734 56.3965-83.8379 51.6602-83.8379L24.6094-83.8379C16.9434-83.8379 12.4512-79.3945 12.4512-71.6797L12.4512-46.1426C12.4512-41.3574 16.0645-38.0859 20.8496-38.0859ZM70.6543 13.5742L97.7051 13.5742C105.42 13.5742 109.863 9.13086 109.863 1.41602L109.863-24.1699C109.863-28.9062 106.25-32.1777 101.514-32.1777C96.7773-32.1777 93.1152-28.9062 93.1152-24.1699L93.1152-22.6074L94.2871-13.623L88.1348-20.1172L77.5391-30.8105C75.9766-32.4219 73.8281-33.2031 71.582-33.2031C66.4551-33.2031 62.9883-29.541 62.9883-24.4141C62.9883-22.2168 63.9648-20.3125 65.5273-18.75L76.2207-8.10547L82.7148-2.00195L73.4863-3.125L70.6543-3.125C65.918-3.125 62.5977 0.439453 62.5977 5.22461C62.5977 10.0098 65.918 13.5742 70.6543 13.5742Z"/>
  </g>
  <g id="Bold-M" transform="matrix(1 0 0 1 2279.58 1126)">
   <path d="M19.4824-39.5508C23.4863-39.5508 26.5137-42.3828 26.5137-46.3867L26.5137-48.8281L25.3906-60.5957L33.8867-51.6602L45.9961-39.4531C47.3145-38.0859 49.0723-37.4023 50.9766-37.4023C55.2734-37.4023 58.252-40.4785 58.252-44.7754C58.252-46.6309 57.4707-48.291 56.1523-49.6094L43.9453-61.7676L35.0098-70.2148L46.9727-69.1406L50.1953-69.1406C54.1992-69.1406 57.0801-72.1191 57.0801-76.123C57.0801-80.1758 54.1992-83.1543 50.1953-83.1543L23.1445-83.1543C16.3574-83.1543 12.4512-79.248 12.4512-72.4609L12.4512-46.3867C12.4512-42.3828 15.4785-39.5508 19.4824-39.5508ZM70.6055 12.793L97.7051 12.793C104.443 12.793 108.35 8.88672 108.35 2.09961L108.35-23.9746C108.35-27.9297 105.322-30.8105 101.318-30.8105C97.3145-30.8105 94.3359-27.9785 94.3359-23.9746L94.3359-21.5332L95.4102-9.76562L86.9141-18.7012L74.8047-30.9082C73.4863-32.2754 71.7285-32.959 69.8242-32.959C65.5273-32.959 62.5488-29.8828 62.5488-25.5859C62.5488-23.7305 63.3301-22.0703 64.6484-20.752L76.8555-8.54492L85.8398-0.146484L73.877-1.2207L70.6055-1.2207C66.6016-1.2207 63.7695 1.75781 63.7695 5.76172C63.7695 9.81445 66.6016 12.793 70.6055 12.793Z"/>
  </g>
  <g id="Semibold-M" transform="matrix(1 0 0 1 1983.38 1126)">
   <path d="M18.5547-40.5762C22.0703-40.5762 24.6582-43.0664 24.6582-46.582L24.6582-49.6094L23.584-63.2812L33.6426-52.6855L46.8262-39.4043C47.9492-38.2324 49.5117-37.6465 51.123-37.6465C54.8828-37.6465 57.5195-40.2344 57.5195-43.9941C57.5195-45.6543 56.8359-47.1191 55.6641-48.291L42.4316-61.5234L31.7871-71.5332L45.6543-70.5078L49.2188-70.5078C52.6855-70.5078 55.2246-73.0469 55.2246-76.5625C55.2246-80.0781 52.6855-82.666 49.2188-82.666L22.1191-82.666C16.0156-82.666 12.4512-79.1504 12.4512-72.998L12.4512-46.582C12.4512-43.1152 15.0879-40.5762 18.5547-40.5762ZM70.5566 12.2559L97.6562 12.2559C103.76 12.2559 107.324 8.74023 107.324 2.58789L107.324-23.8281C107.324-27.2949 104.688-29.834 101.221-29.834C97.7051-29.834 95.1172-27.3438 95.1172-23.8281L95.1172-20.8008L96.1914-7.12891L86.1328-17.7246L72.9492-31.0059C71.7773-32.1777 70.2637-32.7637 68.6523-32.7637C64.8926-32.7637 62.2559-30.1758 62.2559-26.416C62.2559-24.7559 62.9395-23.291 64.1113-22.1191L77.3438-8.88672L87.9395 1.12305L74.1211 0.0976562L70.5566 0.0976562C67.0898 0.0976562 64.5508 2.63672 64.5508 6.15234C64.5508 9.66797 67.0898 12.2559 70.5566 12.2559Z"/>
  </g>
  <g id="Medium-M" transform="matrix(1 0 0 1 1687.06 1126)">
   <path d="M17.8711-41.3574C20.9473-41.3574 23.2422-43.6035 23.2422-46.7285L23.2422-50.1953L22.2168-65.332L33.4961-53.4668L47.4609-39.4043C48.4863-38.3301 49.8047-37.8418 51.2207-37.8418C54.541-37.8418 56.9336-40.0879 56.9336-43.4082C56.9336-44.9219 56.3477-46.2402 55.3223-47.3145L41.3086-61.3281L29.3945-72.5586L44.6289-71.5332L48.4375-71.5332C51.5137-71.5332 53.8574-73.7793 53.8574-76.9043C53.8574-80.0293 51.5625-82.3242 48.4375-82.3242L21.3379-82.3242C15.7227-82.3242 12.4512-79.0527 12.4512-73.4375L12.4512-46.7285C12.4512-43.6523 14.7461-41.3574 17.8711-41.3574ZM70.5566 11.8652L97.6562 11.8652C103.271 11.8652 106.543 8.59375 106.543 2.97852L106.543-23.7305C106.543-26.8066 104.199-29.1016 101.123-29.1016C98.0469-29.1016 95.752-26.8555 95.752-23.7305L95.752-20.2637L96.7773-5.12695L85.498-16.9922L71.5332-31.0547C70.5078-32.1289 69.1895-32.6172 67.7246-32.6172C64.4043-32.6172 62.0117-30.3711 62.0117-27.0508C62.0117-25.5371 62.5977-24.1699 63.6719-23.1445L77.6855-9.13086L89.5996 2.09961L74.3652 1.07422L70.5566 1.07422C67.4316 1.07422 65.1367 3.32031 65.1367 6.44531C65.1367 9.57031 67.4316 11.8652 70.5566 11.8652Z"/>
  </g>
  <g id="Regular-M" transform="matrix(1 0 0 1 1390.86 1126)">
   <path d="M16.9434-42.334C19.5312-42.334 21.3867-44.2871 21.3867-46.875L21.3867-50.9766L20.4102-68.0176L33.252-54.4922L48.291-39.3555C49.1211-38.4766 50.1953-38.0859 51.3672-38.0859C54.1504-38.0859 56.2012-39.8926 56.2012-42.627C56.2012-43.9453 55.7617-45.1172 54.8828-45.9961L39.7949-61.0352L26.2695-73.877L43.3594-72.9004L47.4121-72.9004C50-72.9004 52.002-74.707 52.002-77.3438C52.002-79.9805 50.0488-81.8359 47.4121-81.8359L20.3125-81.8359C15.332-81.8359 12.4512-78.9551 12.4512-73.9746L12.4512-46.875C12.4512-44.3359 14.3555-42.334 16.9434-42.334ZM70.5078 11.3281L97.6074 11.3281C102.588 11.3281 105.518 8.44727 105.518 3.4668L105.518-23.6328C105.518-26.1719 103.613-28.1738 100.977-28.1738C98.4375-28.1738 96.5332-26.2207 96.5332-23.6328L96.5332-19.5312L97.5586-2.49023L84.668-16.0156L69.6777-31.1523C68.8477-32.0312 67.7246-32.4219 66.5527-32.4219C63.8184-32.4219 61.7188-30.6152 61.7188-27.8809C61.7188-26.5625 62.207-25.3906 63.0859-24.5117L78.125-9.47266L91.6992 3.36914L74.6094 2.39258L70.5078 2.39258C67.9199 2.39258 65.918 4.19922 65.918 6.83594C65.918 9.47266 67.9199 11.3281 70.5078 11.3281Z"/>
  </g>
  <g id="Light-M" transform="matrix(1 0 0 1 1094.59 1126)">
   <path d="M15.8691-42.8711C17.8223-42.8711 19.2383-44.3359 19.2383-46.3379L19.2383-54.4434L18.457-70.9473L33.2031-55.7617L49.0234-39.7949C49.6582-39.1602 50.4883-38.8184 51.3672-38.8184C53.4668-38.8184 54.9805-40.1855 54.9805-42.2852C54.9805-43.2617 54.6387-44.1406 54.0039-44.8242L38.0371-60.7422L22.8516-75.4395L39.4043-74.6094L47.5098-74.6094C49.4629-74.6094 51.0254-75.9766 51.0254-77.9785C51.0254-79.9805 49.5117-81.3965 47.5098-81.3965L18.4082-81.3965C14.6973-81.3965 12.4512-79.1504 12.4512-75.3906L12.4512-46.3379C12.4512-44.3848 13.8672-42.8711 15.8691-42.8711ZM69.5801 10.8887L98.6816 10.8887C102.441 10.8887 104.639 8.64258 104.639 4.88281L104.639-24.1699C104.639-26.123 103.271-27.6367 101.27-27.6367C99.2676-27.6367 97.8516-26.1719 97.8516-24.1699L97.8516-16.0156L98.6816 0.439453L83.8867-14.7461L68.0664-30.6641C67.4316-31.3477 66.6016-31.6406 65.7227-31.6406C63.623-31.6406 62.1094-30.2734 62.1094-28.1738C62.1094-27.2461 62.4512-26.3672 63.1348-25.6836L79.0527-9.76562L94.2383 4.93164L77.6855 4.10156L69.5801 4.10156C67.627 4.10156 66.1133 5.46875 66.0645 7.4707C66.0645 9.47266 67.5781 10.8887 69.5801 10.8887Z"/>
  </g>
  <g id="Thin-M" transform="matrix(1 0 0 1 798.439 1126)">
   <path d="M14.4043-43.5547C15.5762-43.5547 16.3574-44.3848 16.3574-45.6055L16.3574-59.0332L15.8691-74.8047L33.1055-57.4219L50-40.3809C50.3906-40.0391 50.8789-39.8438 51.3672-39.8438C52.5879-39.8438 53.418-40.625 53.418-41.8457C53.418-42.334 53.2227-42.8711 52.832-43.2129L35.7422-60.3027L18.3594-77.4414L34.2285-76.8555L47.6562-76.8555C48.7305-76.8555 49.707-77.6367 49.707-78.8086C49.707-79.9805 48.877-80.8105 47.6562-80.8105L15.918-80.8105C13.8184-80.8105 12.4512-79.4434 12.4512-77.2949L12.4512-45.6055C12.4512-44.4336 13.1836-43.5547 14.4043-43.5547ZM68.3105 10.3027L100.049 10.3027C102.197 10.3027 103.516 8.98438 103.516 6.83594L103.516-24.9023C103.516-26.0254 102.783-26.9043 101.611-26.9043C100.439-26.9043 99.6094-26.0742 99.6094-24.9023L99.6094-11.4258L100.146 4.3457L82.8613-13.0371L65.9668-30.0781C65.625-30.4688 65.1367-30.6152 64.6484-30.6152C63.4277-30.6152 62.5977-29.834 62.5977-28.6133C62.5977-28.125 62.793-27.6367 63.1836-27.2461L80.2734-10.1562L97.6074 6.98242L81.7871 6.34766L68.3105 6.34766C67.2363 6.34766 66.3086 7.12891 66.2598 8.34961C66.2598 9.52148 67.1387 10.3027 68.3105 10.3027Z"/>
  </g>
  <g id="Ultralight-M" transform="matrix(1 0 0 1 501.996 1126)">
   <path d="M13.623-43.8965C14.4043-43.8965 14.8926-44.4336 14.8926-45.2148L14.8926-61.377L14.502-76.8066L33.0566-58.252L50.4883-40.7227C50.7324-40.4785 51.0254-40.332 51.3184-40.332C52.0996-40.332 52.5879-40.8203 52.5879-41.6016C52.5879-41.8945 52.4414-42.1875 52.2461-42.4316L34.5215-60.1074L16.0645-78.4668L31.543-77.9785L47.7539-77.9785C48.3887-77.9785 49.0234-78.4668 49.0234-79.248C49.0234-80.0293 48.4863-80.4688 47.7539-80.4688L14.6484-80.4688C13.3301-80.4688 12.4512-79.5898 12.4512-78.2715L12.4512-45.2148C12.4512-44.4824 12.8418-43.8965 13.623-43.8965ZM67.6758 10.0098L100.781 10.0098C102.051 10.0098 102.979 9.13086 102.979 7.8125L102.979-25.2441C102.979-25.9766 102.539-26.5625 101.758-26.5625C100.977-26.5625 100.537-26.0254 100.537-25.2441L100.537-9.08203L100.879 6.34766L82.3242-12.207L64.8926-29.7363C64.6484-29.9805 64.3555-30.127 64.0625-30.127C63.2812-30.127 62.8418-29.6387 62.8418-28.8574C62.8418-28.5645 62.9395-28.2715 63.1836-28.0273L80.8594-10.3516L99.3652 8.00781L83.8379 7.51953L67.6758 7.51953C67.041 7.51953 66.4551 8.00781 66.3574 8.78906C66.3574 9.57031 66.8945 10.0098 67.6758 10.0098Z"/>
  </g>
  <g id="Black-S" transform="matrix(1 0 0 1 2884.99 696)">
   <path d="M17.1875-36.5234C21.3867-36.5234 24.6094-39.4043 24.6094-43.6035L24.6094-44.1895L23.6816-49.5117L27.002-45.9473L34.3262-38.5742C35.7422-37.1582 37.6465-36.4258 39.6484-36.4258C44.1895-36.4258 47.2168-39.7461 47.2168-44.2871C47.2168-46.1914 46.3379-47.8516 44.9707-49.2188L37.5488-56.5918L33.9844-59.8633L39.5508-58.9355L41.4062-58.9355C45.6055-58.9355 48.4863-62.1582 48.4863-66.3574C48.4863-70.6055 45.6055-73.7793 41.4062-73.7793L20.2637-73.7793C13.623-73.7793 9.76562-69.9219 9.76562-63.2812L9.76562-43.6035C9.76562-39.4043 12.9883-36.5234 17.1875-36.5234ZM55.4199 3.51562L76.5625 3.51562C83.2031 3.51562 87.0605-0.341797 87.0605-6.98242L87.0605-26.6602C87.0605-30.8594 83.8379-33.7402 79.6387-33.7402C75.4395-33.7402 72.2168-30.8594 72.2168-26.6602L72.2168-26.0742L73.1445-20.752L69.8242-24.3164L62.5-31.6895C61.084-33.1055 59.1797-33.8379 57.1777-33.8379C52.6367-33.8379 49.6094-30.5176 49.6094-25.9766C49.6094-24.0723 50.4883-22.4121 51.8555-21.0449L59.2773-13.6719L62.8418-10.4004L57.2754-11.3281L55.4199-11.3281C51.2207-11.3281 48.3398-8.10547 48.3398-3.90625C48.3398 0.341797 51.2207 3.51562 55.4199 3.51562Z"/>
  </g>
  <g id="Heavy-S" transform="matrix(1 0 0 1 2588.74 696)">
   <path d="M16.4062-37.5C20.166-37.5 22.998-40.0879 22.998-43.8477L22.998-44.5801L22.0703-51.8555L26.8066-46.8262L35.0586-38.4766C36.3281-37.207 38.0371-36.5723 39.7949-36.5723C43.8477-36.5723 46.6309-39.502 46.6309-43.5547C46.6309-45.3125 45.8496-46.8262 44.5801-48.0469L36.2305-56.3477L31.2012-61.0352L38.6719-60.1074L40.3809-60.1074C44.1406-60.1074 46.7773-62.9883 46.7773-66.748C46.7773-70.5078 44.1406-73.3398 40.3809-73.3398L19.4336-73.3398C13.3301-73.3398 9.76562-69.7754 9.76562-63.6719L9.76562-43.8477C9.76562-40.0879 12.6465-37.5 16.4062-37.5ZM55.4688 3.02734L76.416 3.02734C82.5684 3.02734 86.1328-0.537109 86.1328-6.64062L86.1328-26.4648C86.1328-30.2246 83.252-32.8613 79.4922-32.8613C75.7324-32.8613 72.9004-30.2246 72.9004-26.4648L72.9004-25.7324L73.7793-18.457L69.0918-23.4863L60.8398-31.8359C59.5703-33.1055 57.8613-33.7402 56.1035-33.7402C52.0508-33.7402 49.2676-30.8105 49.2676-26.7578C49.2676-25.0488 50.0488-23.4863 51.2695-22.2656L59.6191-13.9648L64.6973-9.27734L57.2266-10.2051L55.4688-10.2051C51.709-10.2051 49.1211-7.37305 49.1211-3.61328C49.1211 0.195312 51.709 3.02734 55.4688 3.02734Z"/>
  </g>
  <g id="Bold-S" transform="matrix(1 0 0 1 2292.57 696)">
   <path d="M15.5273-38.5254C18.75-38.5254 21.2402-40.8691 21.2402-44.1406L21.2402-45.0684L20.3125-54.4922L26.5625-47.8516L35.8887-38.4277C36.9629-37.3047 38.4277-36.7676 39.9414-36.7676C43.457-36.7676 45.9473-39.2578 45.9473-42.7246C45.9473-44.2871 45.2637-45.6543 44.1895-46.7285L34.8145-56.1035L28.125-62.3047L37.6953-61.4258L39.2578-61.4258C42.5293-61.4258 44.873-63.8672 44.873-67.1387C44.873-70.459 42.5293-72.8516 39.2578-72.8516L18.5547-72.8516C12.9883-72.8516 9.76562-69.6289 9.76562-64.0625L9.76562-44.1406C9.76562-40.8691 12.2559-38.5254 15.5273-38.5254ZM55.5664 2.49023L76.2695 2.49023C81.8359 2.49023 85.0586-0.732422 85.0586-6.29883L85.0586-26.2695C85.0586-29.4922 82.5684-31.8359 79.2969-31.8359C76.0742-31.8359 73.6328-29.541 73.6328-26.2695L73.6328-25.3418L74.5117-15.8691L68.2617-22.5586L58.9355-31.9824C57.8613-33.0566 56.3965-33.6426 54.8828-33.6426C51.3672-33.6426 48.9258-31.1523 48.9258-27.6367C48.9258-26.123 49.5605-24.7559 50.6348-23.6328L60.0098-14.2578L66.748-8.05664L57.1289-8.93555L55.5664-8.93555C52.2949-8.93555 49.9512-6.54297 49.9512-3.22266C49.9512 0.0488281 52.2949 2.49023 55.5664 2.49023Z"/>
  </g>
  <g id="Semibold-S" transform="matrix(1 0 0 1 1996.22 696)">
   <path d="M14.8926-39.2578C17.8223-39.2578 19.9707-41.3574 19.9707-44.2871L19.9707-45.3613L19.0918-56.2988L26.416-48.5352L36.4746-38.3789C37.4512-37.3535 38.7207-36.8652 40.0879-36.8652C43.2129-36.8652 45.459-39.0625 45.459-42.1875C45.459-43.6035 44.873-44.873 43.8965-45.8496L33.7891-55.9082L25.9766-63.2324L37.0605-62.3535L38.4766-62.3535C41.4062-62.3535 43.5547-64.502 43.5547-67.4316C43.5547-70.3613 41.4062-72.5098 38.4766-72.5098L17.9199-72.5098C12.7441-72.5098 9.76562-69.5312 9.76562-64.3555L9.76562-44.2871C9.76562-41.4062 11.9629-39.2578 14.8926-39.2578ZM55.6152 2.09961L76.1719 2.09961C81.3477 2.09961 84.3262-0.878906 84.3262-6.05469L84.3262-26.123C84.3262-29.0039 82.1289-31.1523 79.1992-31.1523C76.3184-31.1523 74.1211-29.0527 74.1211-26.123L74.1211-25.0977L75.0488-14.1113L67.7246-21.9238L57.6172-32.0801C56.6895-33.0566 55.4199-33.5449 54.0039-33.5449C50.8789-33.5449 48.6328-31.3965 48.6328-28.2227C48.6328-26.8555 49.2188-25.5859 50.1953-24.6094L60.3027-14.502L68.1641-7.22656L57.0801-8.10547L55.6152-8.10547C52.6855-8.10547 50.5371-5.95703 50.5371-3.02734C50.5371-0.0488281 52.6855 2.09961 55.6152 2.09961Z"/>
  </g>
  <g id="Medium-S" transform="matrix(1 0 0 1 1699.78 696)">
   <path d="M14.4531-39.8438C17.0898-39.8438 19.043-41.7969 19.043-44.4336L19.043-45.6055L18.1641-57.7148L26.2695-49.0234L36.9141-38.3301C37.793-37.4023 38.916-36.9629 40.1855-36.9629C43.0176-36.9629 45.1172-38.916 45.1172-41.748C45.1172-43.0664 44.5801-44.2383 43.7012-45.166L33.0566-55.8105L24.3652-63.916L36.5234-63.0371L37.8906-63.0371C40.5762-63.0371 42.5781-64.9414 42.5781-67.627C42.5781-70.3125 40.5762-72.2656 37.8906-72.2656L17.4805-72.2656C12.5977-72.2656 9.76562-69.4824 9.76562-64.5996L9.76562-44.4336C9.76562-41.7969 11.7676-39.8438 14.4531-39.8438ZM55.6641 1.80664L76.0742 1.80664C80.957 1.80664 83.7891-0.976562 83.7891-5.85938L83.7891-26.0254C83.7891-28.6621 81.7871-30.6152 79.1016-30.6152C76.4648-30.6152 74.5117-28.7109 74.5117-26.0254L74.5117-24.8535L75.3906-12.793L67.2852-21.4355L56.6406-32.1289C55.7617-33.0566 54.6387-33.4961 53.3691-33.4961C50.5371-33.4961 48.4375-31.543 48.4375-28.7109C48.4375-27.3926 48.9746-26.2207 49.8535-25.3418L60.498-14.6484L69.1895-6.54297L57.0312-7.42188L55.6641-7.42188C52.9785-7.42188 51.0254-5.51758 51.0254-2.83203C51.0254-0.146484 52.9785 1.80664 55.6641 1.80664Z"/>
  </g>
  <g id="Regular-S" transform="matrix(1 0 0 1 1403.43 696)">
   <path d="M13.8184-40.5762C16.1621-40.5762 17.8223-42.2852 17.8223-44.6289L17.8223-45.8984L16.9434-59.4727L26.123-49.707L37.4512-38.2324C38.2324-37.4512 39.209-37.0605 40.2832-37.0605C42.7734-37.0605 44.6289-38.7207 44.6289-41.2109C44.6289-42.3828 44.2383-43.457 43.4082-44.2383L32.0312-55.6152L22.2168-64.7949L35.8887-63.916L37.1094-63.916C39.4531-63.916 41.2598-65.5762 41.2598-67.9199C41.2598-70.2637 39.4531-71.9727 37.1094-71.9727L16.8457-71.9727C12.3535-71.9727 9.76562-69.3848 9.76562-64.8926L9.76562-44.6289C9.76562-42.334 11.4746-40.5762 13.8184-40.5762ZM55.7129 1.46484L75.9766 1.46484C80.4688 1.46484 83.0566-1.12305 83.0566-5.61523L83.0566-25.8789C83.0566-28.1738 81.3477-29.9316 79.0039-29.9316C76.709-29.9316 75-28.2227 75-25.8789L75-24.6094L75.9277-11.0352L66.748-20.8008L55.3711-32.2754C54.6387-33.0566 53.6133-33.4473 52.5391-33.4473C50.0488-33.4473 48.1934-31.7871 48.1934-29.2969C48.1934-28.125 48.6328-27.0508 49.4141-26.2695L60.791-14.8926L70.6055-5.71289L56.9824-6.5918L55.7129-6.5918C53.3691-6.5918 51.6113-4.93164 51.5625-2.58789C51.5625-0.244141 53.3691 1.46484 55.7129 1.46484Z"/>
  </g>
  <g id="Light-S" transform="matrix(1 0 0 1 1107.09 696)">
   <path d="M12.8418-41.0156C14.6484-41.0156 15.918-42.334 15.918-44.1406L15.918-48.9746L15.1855-62.0605L26.0742-50.8301L38.1348-38.6719C38.7207-38.0371 39.4531-37.7441 40.2832-37.7441C42.1875-37.7441 43.5547-39.0137 43.5547-40.918C43.5547-41.7969 43.2617-42.5781 42.627-43.2129L30.5176-55.3223L19.2383-66.1133L32.373-65.4297L37.207-65.4297C38.9648-65.4297 40.3809-66.6504 40.3809-68.457C40.3809-70.2637 39.0137-71.5332 37.207-71.5332L15.1855-71.5332C11.7676-71.5332 9.76562-69.5801 9.76562-66.1621L9.76562-44.1406C9.76562-42.3828 11.0352-41.0156 12.8418-41.0156ZM54.8828 1.07422L76.9043 1.07422C80.3223 1.07422 82.3242-0.927734 82.3242-4.3457L82.3242-26.3672C82.3242-28.125 81.0547-29.4922 79.248-29.4922C77.4414-29.4922 76.1719-28.1738 76.1719-26.3672L76.1719-21.5332L76.9043-8.39844L66.0156-19.6777L53.9551-31.8359C53.3691-32.4707 52.6367-32.7148 51.8066-32.7148C49.9023-32.7148 48.5352-31.4941 48.5352-29.5898C48.5352-28.7109 48.8281-27.8809 49.4629-27.2949L61.5723-15.1367L72.8516-4.3457L59.7168-5.07812L54.8828-5.07812C53.125-5.07812 51.7578-3.80859 51.709-2.00195C51.709-0.195312 53.0762 1.07422 54.8828 1.07422Z"/>
  </g>
  <g id="Thin-S" transform="matrix(1 0 0 1 810.866 696)">
   <path d="M11.5723-41.6016C12.6465-41.6016 13.3789-42.3828 13.3789-43.5059L13.3789-53.0273L12.9395-65.5273L25.9766-52.2949L39.0137-39.1602C39.3555-38.8184 39.7949-38.623 40.2344-38.623C41.3574-38.623 42.1387-39.3555 42.1387-40.4785C42.1387-40.9668 41.9922-41.4551 41.6016-41.7969L28.4668-54.9805L15.2344-67.9199L27.7832-67.3828L37.3047-67.3828C38.3301-67.3828 39.209-68.1152 39.209-69.1895C39.209-70.3125 38.4277-71.0449 37.3047-71.0449L12.9883-71.0449C10.9863-71.0449 9.76562-69.8242 9.76562-67.8223L9.76562-43.5059C9.76562-42.4316 10.498-41.6016 11.5723-41.6016ZM53.7598 0.585938L78.125 0.585938C80.127 0.585938 81.3477-0.683594 81.3477-2.63672L81.3477-27.002C81.3477-28.0273 80.6152-28.8574 79.541-28.8574C78.4668-28.8574 77.7344-28.0762 77.7344-27.002L77.7344-17.4805L78.1738-4.98047L65.1367-18.1641L52.0996-31.2988C51.7578-31.6406 51.3184-31.8359 50.8789-31.8359C49.7559-31.8359 48.9258-31.1035 48.9258-29.9805C48.9258-29.4922 49.1211-29.0039 49.4629-28.6621L62.6465-15.4785L75.8301-2.53906L63.2812-3.07617L53.7598-3.07617C52.7832-3.07617 51.9043-2.34375 51.9043-1.26953C51.9043-0.195312 52.6855 0.585938 53.7598 0.585938Z"/>
  </g>
  <g id="Ultralight-S" transform="matrix(1 0 0 1 514.423 696)">
   <path d="M10.8887-41.9434C11.6211-41.9434 12.0605-42.4316 12.0605-43.1641L12.0605-55.0781L11.7676-67.2852L25.9277-53.0273L39.4531-39.4531C39.6484-39.209 39.9414-39.1113 40.2344-39.1113C40.9668-39.1113 41.4062-39.5508 41.4062-40.2832C41.4062-40.5762 41.3086-40.8691 41.0645-41.0645L27.3926-54.7852L13.2324-68.8477L25.4395-68.4082L37.4023-68.4082C38.0371-68.4082 38.623-68.8477 38.623-69.5801C38.623-70.3125 38.0859-70.752 37.4023-70.752L11.8164-70.752C10.5957-70.752 9.76562-69.9219 9.76562-68.7012L9.76562-43.1641C9.76562-42.4805 10.1562-41.9434 10.8887-41.9434ZM53.2227 0.292969L78.7598 0.292969C80.0293 0.292969 80.8105-0.537109 80.8105-1.75781L80.8105-27.2949C80.8105-27.9785 80.4199-28.5156 79.6875-28.5156C79.0039-28.5156 78.5156-28.0273 78.5156-27.2949L78.5156-15.3809L78.8574-3.17383L64.6484-17.4316L51.123-31.0059C50.9277-31.25 50.6348-31.3477 50.3418-31.3477C49.6094-31.3477 49.1699-30.9082 49.1699-30.1758C49.1699-29.8828 49.2676-29.5898 49.5117-29.3945L63.1836-15.6738L77.3926-1.61133L65.1367-2.05078L53.2227-2.05078C52.5879-2.05078 52.0508-1.61133 52.002-0.878906C52.002-0.146484 52.4902 0.292969 53.2227 0.292969Z"/>
  </g>
 </g>
</svg>
