<?xml version="1.0" encoding="UTF-8"?>
<!--Generator: Apple Native CoreSVG 129-->
<!DOCTYPE svg
PUBLIC "-//W3C//DTD SVG 1.1//EN"
       "http://www.w3.org/Graphics/SVG/1.1/DTD/svg11.dtd">
<svg version="1.1" xmlns="http://www.w3.org/2000/svg" xmlns:xlink="http://www.w3.org/1999/xlink" width="3300" height="2200">
 <!--glyph: "uni10029D.medium", point size: 100.000000, font version: "Version 16.0d9e1", template writer version: "8"-->
 <g id="Notes">
  <rect height="2200" id="artboard" style="fill:white;opacity:1" width="3300" x="0" y="0"/>
  <line id="" style="fill:none;stroke:black;opacity:1;stroke-width:0.5;" x1="263" x2="3036" y1="292" y2="292"/>
  <text style="stroke:none;fill:black;font-family:-apple-system,&quot;SF Pro Display&quot;,&quot;SF Pro Text&quot;,Helvetica,sans-serif;font-weight:bold;" transform="matrix(1 0 0 1 263 322)">Weight/Scale Variations</text>
  <text style="stroke:none;fill:black;font-family:-apple-system,&quot;SF Pro Display&quot;,&quot;SF Pro Text&quot;,Helvetica,sans-serif;text-anchor:middle;" transform="matrix(1 0 0 1 559.711 322)">Ultralight</text>
  <text style="stroke:none;fill:black;font-family:-apple-system,&quot;SF Pro Display&quot;,&quot;SF Pro Text&quot;,Helvetica,sans-serif;text-anchor:middle;" transform="matrix(1 0 0 1 856.422 322)">Thin</text>
  <text style="stroke:none;fill:black;font-family:-apple-system,&quot;SF Pro Display&quot;,&quot;SF Pro Text&quot;,Helvetica,sans-serif;text-anchor:middle;" transform="matrix(1 0 0 1 1153.13 322)">Light</text>
  <text style="stroke:none;fill:black;font-family:-apple-system,&quot;SF Pro Display&quot;,&quot;SF Pro Text&quot;,Helvetica,sans-serif;text-anchor:middle;" transform="matrix(1 0 0 1 1449.84 322)">Regular</text>
  <text style="stroke:none;fill:black;font-family:-apple-system,&quot;SF Pro Display&quot;,&quot;SF Pro Text&quot;,Helvetica,sans-serif;text-anchor:middle;" transform="matrix(1 0 0 1 1746.56 322)">Medium</text>
  <text style="stroke:none;fill:black;font-family:-apple-system,&quot;SF Pro Display&quot;,&quot;SF Pro Text&quot;,Helvetica,sans-serif;text-anchor:middle;" transform="matrix(1 0 0 1 2043.27 322)">Semibold</text>
  <text style="stroke:none;fill:black;font-family:-apple-system,&quot;SF Pro Display&quot;,&quot;SF Pro Text&quot;,Helvetica,sans-serif;text-anchor:middle;" transform="matrix(1 0 0 1 2339.98 322)">Bold</text>
  <text style="stroke:none;fill:black;font-family:-apple-system,&quot;SF Pro Display&quot;,&quot;SF Pro Text&quot;,Helvetica,sans-serif;text-anchor:middle;" transform="matrix(1 0 0 1 2636.69 322)">Heavy</text>
  <text style="stroke:none;fill:black;font-family:-apple-system,&quot;SF Pro Display&quot;,&quot;SF Pro Text&quot;,Helvetica,sans-serif;text-anchor:middle;" transform="matrix(1 0 0 1 2933.4 322)">Black</text>
  <line id="" style="fill:none;stroke:black;opacity:1;stroke-width:0.5;" x1="263" x2="3036" y1="1903" y2="1903"/>
  <g id="" transform="matrix(1 0 0 1 263 1933)">
   <path d="M 9.24805 0.830078 C 13.5547 0.830078 17.1387 -2.74414 17.1387 -7.05078 C 17.1387 -11.3574 13.5449 -14.9316 9.23828 -14.9316 C 4.94141 -14.9316 1.36719 -11.3574 1.36719 -7.05078 C 1.36719 -2.74414 4.95117 0.830078 9.24805 0.830078 Z M 9.24805 -0.654297 C 5.70312 -0.654297 2.87109 -3.49609 2.87109 -7.05078 C 2.87109 -10.6055 5.69336 -13.4473 9.23828 -13.4473 C 12.793 -13.4473 15.6348 -10.6055 15.6445 -7.05078 C 15.6543 -3.49609 12.8027 -0.654297 9.24805 -0.654297 Z M 9.22852 -3.62305 C 9.69727 -3.62305 9.9707 -3.93555 9.9707 -4.45312 L 9.9707 -6.31836 L 12.002 -6.31836 C 12.5 -6.31836 12.832 -6.57227 12.832 -7.04102 C 12.832 -7.51953 12.5195 -7.7832 12.002 -7.7832 L 9.9707 -7.7832 L 9.9707 -9.81445 C 9.9707 -10.332 9.69727 -10.6543 9.22852 -10.6543 C 8.75977 -10.6543 8.50586 -10.3125 8.50586 -9.81445 L 8.50586 -7.7832 L 6.49414 -7.7832 C 5.97656 -7.7832 5.64453 -7.51953 5.64453 -7.04102 C 5.64453 -6.57227 5.99609 -6.31836 6.49414 -6.31836 L 8.50586 -6.31836 L 8.50586 -4.45312 C 8.50586 -3.95508 8.75977 -3.62305 9.22852 -3.62305 Z"/>
  </g>
  <g id="" transform="matrix(1 0 0 1 281.506 1933)">
   <path d="M 11.709 2.91016 C 17.1582 2.91016 21.6699 -1.61133 21.6699 -7.05078 C 21.6699 -12.5 17.1484 -17.0117 11.6992 -17.0117 C 6.25977 -17.0117 1.74805 -12.5 1.74805 -7.05078 C 1.74805 -1.61133 6.26953 2.91016 11.709 2.91016 Z M 11.709 1.25 C 7.09961 1.25 3.41797 -2.44141 3.41797 -7.05078 C 3.41797 -11.6602 7.08984 -15.3516 11.6992 -15.3516 C 16.3086 -15.3516 20 -11.6602 20.0098 -7.05078 C 20.0195 -2.44141 16.3184 1.25 11.709 1.25 Z M 11.6797 -2.66602 C 12.207 -2.66602 12.5098 -3.01758 12.5098 -3.59375 L 12.5098 -6.23047 L 15.3223 -6.23047 C 15.8691 -6.23047 16.25 -6.51367 16.25 -7.03125 C 16.25 -7.55859 15.8887 -7.86133 15.3223 -7.86133 L 12.5098 -7.86133 L 12.5098 -10.6836 C 12.5098 -11.25 12.207 -11.6113 11.6797 -11.6113 C 11.1621 -11.6113 10.8789 -11.2305 10.8789 -10.6836 L 10.8789 -7.86133 L 8.07617 -7.86133 C 7.50977 -7.86133 7.13867 -7.55859 7.13867 -7.03125 C 7.13867 -6.51367 7.5293 -6.23047 8.07617 -6.23047 L 10.8789 -6.23047 L 10.8789 -3.59375 C 10.8789 -3.03711 11.1621 -2.66602 11.6797 -2.66602 Z"/>
  </g>
  <g id="" transform="matrix(1 0 0 1 304.924 1933)">
   <path d="M 14.9707 5.66406 C 21.9336 5.66406 27.6953 -0.0976562 27.6953 -7.05078 C 27.6953 -14.0137 21.9238 -19.7754 14.9609 -19.7754 C 8.00781 -19.7754 2.25586 -14.0137 2.25586 -7.05078 C 2.25586 -0.0976562 8.01758 5.66406 14.9707 5.66406 Z M 14.9707 3.84766 C 8.93555 3.84766 4.08203 -1.01562 4.08203 -7.05078 C 4.08203 -13.0957 8.92578 -17.9492 14.9609 -17.9492 C 21.0059 -17.9492 25.8594 -13.0957 25.8691 -7.05078 C 25.8789 -1.01562 21.0156 3.84766 14.9707 3.84766 Z M 14.9414 -1.38672 C 15.5176 -1.38672 15.8594 -1.77734 15.8594 -2.38281 L 15.8594 -6.13281 L 19.7754 -6.13281 C 20.3711 -6.13281 20.7812 -6.46484 20.7812 -7.02148 C 20.7812 -7.59766 20.3906 -7.93945 19.7754 -7.93945 L 15.8594 -7.93945 L 15.8594 -11.8652 C 15.8594 -12.4805 15.5176 -12.8711 14.9414 -12.8711 C 14.375 -12.8711 14.0527 -12.4609 14.0527 -11.8652 L 14.0527 -7.93945 L 10.1465 -7.93945 C 9.53125 -7.93945 9.13086 -7.59766 9.13086 -7.02148 C 9.13086 -6.46484 9.55078 -6.13281 10.1465 -6.13281 L 14.0527 -6.13281 L 14.0527 -2.38281 C 14.0527 -1.79688 14.375 -1.38672 14.9414 -1.38672 Z"/>
  </g>
  <text style="stroke:none;fill:black;font-family:-apple-system,&quot;SF Pro Display&quot;,&quot;SF Pro Text&quot;,Helvetica,sans-serif;font-weight:bold;" transform="matrix(1 0 0 1 263 1953)">Design Variations</text>
  <text style="stroke:none;fill:black;font-family:-apple-system,&quot;SF Pro Display&quot;,&quot;SF Pro Text&quot;,Helvetica,sans-serif;" transform="matrix(1 0 0 1 263 1971)">Symbols are supported in up to nine weights and three scales.</text>
  <text style="stroke:none;fill:black;font-family:-apple-system,&quot;SF Pro Display&quot;,&quot;SF Pro Text&quot;,Helvetica,sans-serif;" transform="matrix(1 0 0 1 263 1989)">For optimal layout with text and other symbols, vertically align</text>
  <text style="stroke:none;fill:black;font-family:-apple-system,&quot;SF Pro Display&quot;,&quot;SF Pro Text&quot;,Helvetica,sans-serif;" transform="matrix(1 0 0 1 263 2007)">symbols with the adjacent text.</text>
  <line id="" style="fill:none;stroke:#00AEEF;stroke-width:0.5;opacity:1.0;" x1="776" x2="776" y1="1919" y2="1933"/>
  <g id="" transform="matrix(1 0 0 1 776 1933)">
   <path d="M 3.31055 0.126953 C 3.82812 0.126953 4.08203 -0.0683594 4.26758 -0.605469 L 5.52734 -4.0625 L 11.2891 -4.0625 L 12.5488 -0.605469 C 12.7344 -0.0683594 12.9883 0.126953 13.4961 0.126953 C 14.0137 0.126953 14.3457 -0.185547 14.3457 -0.673828 C 14.3457 -0.839844 14.3164 -0.986328 14.2383 -1.20117 L 9.6582 -13.3887 C 9.43359 -13.9941 9.0332 -14.2871 8.4082 -14.2871 C 7.80273 -14.2871 7.39258 -13.9941 7.17773 -13.3984 L 2.59766 -1.19141 C 2.51953 -0.976562 2.49023 -0.830078 2.49023 -0.664062 C 2.49023 -0.175781 2.80273 0.126953 3.31055 0.126953 Z M 6.00586 -5.53711 L 8.37891 -12.1094 L 8.42773 -12.1094 L 10.8008 -5.53711 Z"/>
  </g>
  <line id="" style="fill:none;stroke:#00AEEF;stroke-width:0.5;opacity:1.0;" x1="792.836" x2="792.836" y1="1919" y2="1933"/>
  <text style="stroke:none;fill:black;font-family:-apple-system,&quot;SF Pro Display&quot;,&quot;SF Pro Text&quot;,Helvetica,sans-serif;font-weight:bold;" transform="matrix(1 0 0 1 776 1953)">Margins</text>
  <text style="stroke:none;fill:black;font-family:-apple-system,&quot;SF Pro Display&quot;,&quot;SF Pro Text&quot;,Helvetica,sans-serif;" transform="matrix(1 0 0 1 776 1971)">Leading and trailing margins on the left and right side of each symbol</text>
  <text style="stroke:none;fill:black;font-family:-apple-system,&quot;SF Pro Display&quot;,&quot;SF Pro Text&quot;,Helvetica,sans-serif;" transform="matrix(1 0 0 1 776 1989)">can be adjusted by modifying the x-location of the margin guidelines.</text>
  <text style="stroke:none;fill:black;font-family:-apple-system,&quot;SF Pro Display&quot;,&quot;SF Pro Text&quot;,Helvetica,sans-serif;" transform="matrix(1 0 0 1 776 2007)">Modifications are automatically applied proportionally to all</text>
  <text style="stroke:none;fill:black;font-family:-apple-system,&quot;SF Pro Display&quot;,&quot;SF Pro Text&quot;,Helvetica,sans-serif;" transform="matrix(1 0 0 1 776 2025)">scales and weights.</text>
  <g id="" transform="matrix(1 0 0 1 1289 1933)">
   <path d="M 2.8418 1.86523 L 4.54102 3.57422 C 5.40039 4.44336 6.38672 4.38477 7.31445 3.35938 L 17.4902 -7.85156 C 17.7539 -7.76367 18.0273 -7.7832 18.3398 -7.8418 L 19.4043 -8.03711 L 20.0684 -7.36328 L 20.0293 -6.80664 C 19.9902 -6.30859 20.1172 -5.92773 20.6055 -5.44922 L 21.3672 -4.70703 C 21.8457 -4.22852 22.4609 -4.19922 22.9297 -4.66797 L 25.8398 -7.58789 C 26.3086 -8.05664 26.2891 -8.65234 25.8105 -9.13086 L 25.0391 -9.89258 C 24.5605 -10.3711 24.1895 -10.5273 23.7109 -10.4883 L 23.1348 -10.4395 L 22.4902 -11.0742 L 22.7344 -12.1973 C 22.8613 -12.7637 22.7051 -13.2031 22.1191 -13.7891 L 19.9219 -15.9766 C 16.582 -19.2969 12.1484 -19.2188 9.25781 -16.3281 C 8.83789 -15.918 8.80859 -15.3418 9.04297 -14.9512 C 9.27734 -14.5898 9.73633 -14.3555 10.3809 -14.5215 C 11.8457 -14.8633 13.3691 -14.9219 14.7949 -13.9844 L 14.209 -12.5293 C 14.0137 -12.0508 13.9844 -11.6504 14.1113 -11.2891 L 3.04688 -0.898438 C 2.06055 0.0195312 1.98242 0.996094 2.8418 1.86523 Z M 10.752 -15.957 C 13.1836 -17.7344 16.4746 -17.4316 18.7012 -15.2051 L 21.1328 -12.793 C 21.3672 -12.5586 21.4062 -12.373 21.3379 -12.0312 L 21.0156 -10.5469 L 22.5195 -9.0625 L 23.5059 -9.12109 C 23.7598 -9.13086 23.8379 -9.11133 24.0332 -8.91602 L 24.6094 -8.33984 L 22.168 -5.89844 L 21.5918 -6.47461 C 21.3965 -6.66992 21.3672 -6.74805 21.377 -7.01172 L 21.4453 -7.98828 L 19.9512 -9.47266 L 18.4277 -9.21875 C 18.1055 -9.15039 17.959 -9.17969 17.7148 -9.41406 L 15.7129 -11.416 C 15.459 -11.6504 15.4297 -11.8164 15.5859 -12.1875 L 16.4648 -14.2773 C 14.9023 -15.7324 12.8711 -16.3574 10.8398 -15.7617 C 10.6836 -15.7227 10.625 -15.8496 10.752 -15.957 Z M 5.27344 2.30469 L 4.10156 1.14258 C 3.63281 0.683594 3.74023 0.341797 4.14062 -0.0195312 L 14.9512 -10.1953 L 16.416 -8.71094 L 6.42578 2.27539 C 6.07422 2.67578 5.74219 2.77344 5.27344 2.30469 Z"/>
  </g>
  <text style="stroke:none;fill:black;font-family:-apple-system,&quot;SF Pro Display&quot;,&quot;SF Pro Text&quot;,Helvetica,sans-serif;font-weight:bold;" transform="matrix(1 0 0 1 1289 1953)">Exporting</text>
  <text style="stroke:none;fill:black;font-family:-apple-system,&quot;SF Pro Display&quot;,&quot;SF Pro Text&quot;,Helvetica,sans-serif;" transform="matrix(1 0 0 1 1289 1971)">Symbols should be outlined when exporting to ensure the</text>
  <text style="stroke:none;fill:black;font-family:-apple-system,&quot;SF Pro Display&quot;,&quot;SF Pro Text&quot;,Helvetica,sans-serif;" transform="matrix(1 0 0 1 1289 1989)">design is preserved when submitting to Xcode.</text>
  <text id="template-version" style="stroke:none;fill:black;font-family:-apple-system,&quot;SF Pro Display&quot;,&quot;SF Pro Text&quot;,Helvetica,sans-serif;text-anchor:end;" transform="matrix(1 0 0 1 3036 1933)">Template v.2.0</text>
  <text style="stroke:none;fill:black;font-family:-apple-system,&quot;SF Pro Display&quot;,&quot;SF Pro Text&quot;,Helvetica,sans-serif;text-anchor:end;" transform="matrix(1 0 0 1 3036 1951)">Requires Xcode 12 or greater</text>
  <text style="stroke:none;fill:black;font-family:-apple-system,&quot;SF Pro Display&quot;,&quot;SF Pro Text&quot;,Helvetica,sans-serif;text-anchor:end;" transform="matrix(1 0 0 1 3036 1969)">Generated from shuffle</text>
  <text style="stroke:none;fill:black;font-family:-apple-system,&quot;SF Pro Display&quot;,&quot;SF Pro Text&quot;,Helvetica,sans-serif;text-anchor:end;" transform="matrix(1 0 0 1 3036 1987)">Typeset at 100 points</text>
  <text style="stroke:none;fill:black;font-family:-apple-system,&quot;SF Pro Display&quot;,&quot;SF Pro Text&quot;,Helvetica,sans-serif;" transform="matrix(1 0 0 1 263 726)">Small</text>
  <text style="stroke:none;fill:black;font-family:-apple-system,&quot;SF Pro Display&quot;,&quot;SF Pro Text&quot;,Helvetica,sans-serif;" transform="matrix(1 0 0 1 263 1156)">Medium</text>
  <text style="stroke:none;fill:black;font-family:-apple-system,&quot;SF Pro Display&quot;,&quot;SF Pro Text&quot;,Helvetica,sans-serif;" transform="matrix(1 0 0 1 263 1586)">Large</text>
 </g>
 <g id="Guides">
  <g id="H-reference" style="fill:#27AAE1;stroke:none;" transform="matrix(1 0 0 1 339 696)">
   <path d="M 0.976562 0 L 3.66211 0 L 12.9883 -24.4629 L 45.7031 -24.4629 L 55.0781 0 L 57.7148 0 L 30.6152 -70.459 L 28.125 -70.459 Z M 29.2969 -67.1387 L 29.3945 -67.1387 L 44.873 -26.709 L 13.8672 -26.709 Z"/>
  </g>
  <line id="Baseline-S" style="fill:none;stroke:#27AAE1;opacity:1;stroke-width:0.5;" x1="263" x2="3036" y1="696" y2="696"/>
  <line id="Capline-S" style="fill:none;stroke:#27AAE1;opacity:1;stroke-width:0.5;" x1="263" x2="3036" y1="625.541" y2="625.541"/>
  <g id="H-reference" style="fill:#27AAE1;stroke:none;" transform="matrix(1 0 0 1 339 1126)">
   <path d="M 0.976562 0 L 3.66211 0 L 12.9883 -24.4629 L 45.7031 -24.4629 L 55.0781 0 L 57.7148 0 L 30.6152 -70.459 L 28.125 -70.459 Z M 29.2969 -67.1387 L 29.3945 -67.1387 L 44.873 -26.709 L 13.8672 -26.709 Z"/>
  </g>
  <line id="Baseline-M" style="fill:none;stroke:#27AAE1;opacity:1;stroke-width:0.5;" x1="263" x2="3036" y1="1126" y2="1126"/>
  <line id="Capline-M" style="fill:none;stroke:#27AAE1;opacity:1;stroke-width:0.5;" x1="263" x2="3036" y1="1055.54" y2="1055.54"/>
  <g id="H-reference" style="fill:#27AAE1;stroke:none;" transform="matrix(1 0 0 1 339 1556)">
   <path d="M 0.976562 0 L 3.66211 0 L 12.9883 -24.4629 L 45.7031 -24.4629 L 55.0781 0 L 57.7148 0 L 30.6152 -70.459 L 28.125 -70.459 Z M 29.2969 -67.1387 L 29.3945 -67.1387 L 44.873 -26.709 L 13.8672 -26.709 Z"/>
  </g>
  <line id="Baseline-L" style="fill:none;stroke:#27AAE1;opacity:1;stroke-width:0.5;" x1="263" x2="3036" y1="1556" y2="1556"/>
  <line id="Capline-L" style="fill:none;stroke:#27AAE1;opacity:1;stroke-width:0.5;" x1="263" x2="3036" y1="1485.54" y2="1485.54"/>
  <line id="left-margin" style="fill:none;stroke:#00AEEF;stroke-width:0.5;opacity:1.0;" x1="1380.04" x2="1380.04" y1="1030.79" y2="1150.12"/>
  <line id="right-margin" style="fill:none;stroke:#00AEEF;stroke-width:0.5;opacity:1.0;" x1="1519.64" x2="1519.64" y1="1030.79" y2="1150.12"/>
 </g>
 <g id="Symbols">
  <g id="Black-L" transform="matrix(1 0 0 1 2833.06 1556)">
   <path d="M 16.0645 2.44141 C 16.0645 8.20312 20.7031 12.793 26.6113 12.793 L 42.9688 12.793 C 55.2246 12.793 62.9883 8.78906 69.9707 0.0488281 L 84.7656 -18.457 L 98.584 -1.17188 C 106.592 8.83789 117.725 12.793 130.029 12.793 L 140.479 12.793 L 140.479 26.123 C 140.479 31.1035 143.604 34.2773 148.486 34.2773 C 150.781 34.2773 152.588 33.4473 154.053 32.2266 L 181.934 8.49609 C 185.547 5.37109 185.498 0.292969 181.934 -2.7832 L 154.053 -26.5137 C 152.588 -27.7344 150.781 -28.5645 148.486 -28.5645 C 143.604 -28.5645 140.479 -25.3906 140.479 -20.4102 L 140.479 -7.91016 L 130.371 -7.91016 C 121.484 -7.91016 115.82 -10.8398 110.596 -17.3828 L 97.2656 -34.082 L 110.84 -51.0254 C 116.406 -58.0566 120.312 -60.3027 128.857 -60.3027 L 140.479 -60.3027 L 140.479 -47.998 C 140.479 -43.0176 143.604 -39.8926 148.486 -39.8926 C 150.781 -39.8926 152.588 -40.6738 154.053 -41.8945 L 181.934 -65.6738 C 185.547 -68.75 185.498 -73.877 181.934 -76.9531 L 154.053 -100.684 C 152.588 -101.904 150.781 -102.686 148.486 -102.686 C 143.604 -102.686 140.479 -99.5605 140.479 -94.5801 L 140.479 -81.0059 L 130.225 -81.0059 C 116.455 -81.0059 106.641 -77.4902 96.9238 -65.1855 L 84.7168 -49.8047 L 69.9707 -68.2617 C 62.9883 -77.002 53.4668 -81.0059 41.2109 -81.0059 L 26.6113 -81.0059 C 20.7031 -81.0059 16.0645 -76.416 16.0645 -70.6543 C 16.0645 -64.8438 20.7031 -60.3027 26.6113 -60.3027 L 38.1836 -60.3027 C 46.9727 -60.3027 53.6621 -57.4707 58.8867 -50.9277 L 72.2656 -34.1309 L 58.8867 -17.2852 C 53.6621 -10.6934 48.6816 -7.91016 39.9414 -7.91016 L 26.6113 -7.91016 C 20.7031 -7.91016 16.0645 -3.36914 16.0645 2.44141 Z"/>
  </g>
  <g id="Heavy-L" transform="matrix(1 0 0 1 2539.2 1556)">
   <path d="M 16.0645 1.07422 C 16.0645 6.34766 20.2637 10.4492 25.7324 10.4492 L 41.5527 10.4492 C 53.418 10.4492 60.8398 6.68945 68.0176 -2.14844 L 82.666 -20.166 L 96.5332 -3.07617 C 104.443 6.73828 114.453 10.498 126.367 10.498 L 136.914 10.498 L 136.914 24.0234 C 136.914 28.5645 139.795 31.4453 144.287 31.4453 C 146.387 31.4453 148.096 30.7129 149.463 29.541 L 176.318 6.88477 C 179.785 3.95508 179.736 -0.830078 176.318 -3.71094 L 149.463 -26.3672 C 148.096 -27.4902 146.387 -28.2715 144.287 -28.2715 C 139.795 -28.2715 136.914 -25.3906 136.914 -20.8008 L 136.914 -8.34961 L 126.66 -8.34961 C 118.359 -8.34961 113.086 -11.0352 107.861 -17.4805 L 94.1895 -34.375 L 108.008 -51.416 C 113.525 -58.252 117.48 -60.4492 125.488 -60.4492 L 136.914 -60.4492 L 136.914 -48.0957 C 136.914 -43.5059 139.795 -40.625 144.287 -40.625 C 146.387 -40.625 148.096 -41.3574 149.463 -42.5293 L 176.318 -65.1855 C 179.785 -68.1152 179.736 -72.9004 176.318 -75.7812 L 149.463 -98.4375 C 148.096 -99.6094 146.387 -100.342 144.287 -100.342 C 139.795 -100.342 136.914 -97.4609 136.914 -92.9199 L 136.914 -79.248 L 126.514 -79.248 C 113.477 -79.248 104.492 -75.8301 95.2637 -64.3555 L 82.6172 -48.6816 L 68.0176 -66.6504 C 60.8398 -75.4883 52.0996 -79.248 40.2344 -79.248 L 25.7324 -79.248 C 20.2637 -79.248 16.0645 -75.1465 16.0645 -69.873 C 16.0645 -64.5996 20.2637 -60.4492 25.7324 -60.4492 L 37.9883 -60.4492 C 46.1426 -60.4492 52.1973 -57.8125 57.4219 -51.3184 L 71.0938 -34.4238 L 57.4219 -17.4316 C 52.1484 -10.9375 47.4609 -8.34961 39.3555 -8.34961 L 25.7324 -8.34961 C 20.2637 -8.34961 16.0645 -4.19922 16.0645 1.07422 Z"/>
  </g>
  <g id="Bold-L" transform="matrix(1 0 0 1 2245.69 1556)">
   <path d="M 16.0645 -0.439453 C 16.0645 4.29688 19.7266 7.86133 24.707 7.86133 L 39.9902 7.86133 C 51.416 7.86133 58.4473 4.29688 65.8203 -4.54102 L 80.2734 -22.0703 L 94.2383 -5.12695 C 102.051 4.3457 110.791 7.86133 122.266 7.86133 L 132.959 7.86133 L 132.959 21.6309 C 132.959 25.7324 135.498 28.2715 139.6 28.2715 C 141.455 28.2715 143.066 27.6367 144.385 26.5625 L 170.068 5.12695 C 173.34 2.39258 173.291 -2.05078 170.068 -4.6875 L 144.385 -26.1719 C 143.066 -27.2461 141.455 -27.9297 139.6 -27.9297 C 135.498 -27.9297 132.959 -25.3418 132.959 -21.2402 L 132.959 -8.78906 L 122.51 -8.78906 C 114.844 -8.78906 110.01 -11.2793 104.785 -17.627 L 90.6738 -34.7168 L 104.883 -51.9043 C 110.303 -58.4961 114.258 -60.6934 121.777 -60.6934 L 132.959 -60.6934 L 132.959 -48.1445 C 132.959 -44.043 135.498 -41.4551 139.6 -41.4551 C 141.455 -41.4551 143.066 -42.1387 144.385 -43.2129 L 170.068 -64.6484 C 173.34 -67.3828 173.291 -71.7773 170.068 -74.4629 L 144.385 -95.9473 C 143.066 -97.0215 141.455 -97.7051 139.6 -97.7051 C 135.498 -97.7051 132.959 -95.1172 132.959 -91.0156 L 132.959 -77.3438 L 122.363 -77.3438 C 110.156 -77.3438 102.1 -74.0234 93.4082 -63.3789 L 80.2246 -47.3633 L 65.8203 -64.8926 C 58.4473 -73.7793 50.5371 -77.2949 39.1602 -77.2949 L 24.707 -77.2949 C 19.7266 -77.2949 16.0645 -73.7305 16.0645 -68.9941 C 16.0645 -64.2578 19.7754 -60.6445 24.707 -60.6445 L 37.793 -60.6445 C 45.2148 -60.6445 50.5371 -58.2031 55.7617 -51.8066 L 69.8242 -34.7168 L 55.7617 -17.627 C 50.4883 -11.2305 46.0449 -8.78906 38.6719 -8.78906 L 24.707 -8.78906 C 19.7754 -8.78906 16.0645 -5.17578 16.0645 -0.439453 Z"/>
  </g>
  <g id="Semibold-L" transform="matrix(1 0 0 1 1951.2 1556)">
   <path d="M 16.0645 -1.51367 C 16.0645 2.88086 19.3848 6.05469 24.0234 6.05469 L 38.916 6.05469 C 50.0488 6.05469 56.8359 2.68555 64.2578 -6.20117 L 78.6133 -23.3887 L 92.6758 -6.5918 C 100.391 2.73438 108.252 6.10352 119.434 6.10352 L 130.176 6.10352 L 130.176 19.9707 C 130.176 23.7305 132.568 26.123 136.377 26.123 C 138.037 26.123 139.6 25.4883 140.869 24.4629 L 165.771 3.85742 C 168.896 1.31836 168.799 -2.88086 165.771 -5.41992 L 140.869 -26.0254 C 139.6 -27.0996 138.037 -27.6855 136.377 -27.6855 C 132.568 -27.6855 130.176 -25.293 130.176 -21.582 L 130.176 -9.08203 L 119.678 -9.08203 C 112.451 -9.08203 107.861 -11.4258 102.637 -17.7246 L 88.2812 -34.9609 L 102.686 -52.1973 C 108.057 -58.6426 112.061 -60.8398 119.189 -60.8398 L 130.176 -60.8398 L 130.176 -48.1934 C 130.176 -44.4336 132.568 -42.041 136.377 -42.041 C 138.037 -42.041 139.6 -42.6758 140.869 -43.7012 L 165.771 -64.3066 C 168.896 -66.8457 168.799 -71.0449 165.771 -73.584 L 140.869 -94.1895 C 139.6 -95.2637 138.037 -95.8496 136.377 -95.8496 C 132.568 -95.8496 130.176 -93.5059 130.176 -89.7461 L 130.176 -75.9766 L 119.482 -75.9766 C 107.861 -75.9766 100.439 -72.7539 92.1387 -62.7441 L 78.6133 -46.5332 L 64.2578 -63.6719 C 56.8359 -72.5586 49.5117 -75.9766 38.3789 -75.9766 L 24.0234 -75.9766 C 19.3848 -75.9766 16.0645 -72.7539 16.0645 -68.4082 C 16.0645 -64.0625 19.4336 -60.791 24.0234 -60.791 L 37.6465 -60.791 C 44.5801 -60.791 49.3652 -58.4473 54.6387 -52.1484 L 68.9941 -34.9609 L 54.6387 -17.7246 C 49.3652 -11.4258 45.1172 -9.08203 38.1836 -9.08203 L 24.0234 -9.08203 C 19.4336 -9.08203 16.0645 -5.85938 16.0645 -1.51367 Z"/>
  </g>
  <g id="Medium-L" transform="matrix(1 0 0 1 1656.15 1556)">
   <path d="M 16.0645 -2.29492 C 16.0645 1.80664 19.1406 4.6875 23.4863 4.6875 L 38.1348 4.6875 C 48.9746 4.6875 55.5664 1.41602 63.1348 -7.4707 L 77.3926 -24.3652 L 91.4551 -7.66602 C 99.1211 1.46484 106.348 4.73633 117.285 4.73633 L 128.125 4.73633 L 128.125 18.75 C 128.125 22.2656 130.371 24.4629 133.887 24.4629 C 135.498 24.4629 136.963 23.877 138.184 22.9004 L 162.5 2.92969 C 165.527 0.488281 165.43 -3.51562 162.5 -5.9082 L 138.184 -25.9277 C 136.963 -26.9531 135.498 -27.5391 133.887 -27.5391 C 130.371 -27.5391 128.125 -25.293 128.125 -21.7773 L 128.125 -9.32617 L 117.48 -9.32617 C 110.596 -9.32617 106.25 -11.5723 101.025 -17.8223 L 86.4258 -35.1074 L 101.074 -52.4414 C 106.396 -58.7891 110.4 -60.9375 117.236 -60.9375 L 128.125 -60.9375 L 128.125 -48.1934 C 128.125 -44.7266 130.371 -42.4805 133.887 -42.4805 C 135.498 -42.4805 136.963 -43.0664 138.184 -44.043 L 162.5 -64.0137 C 165.527 -66.4551 165.43 -70.459 162.5 -72.9004 L 138.184 -92.9199 C 136.963 -93.8965 135.498 -94.4824 133.887 -94.4824 C 130.371 -94.4824 128.125 -92.2363 128.125 -88.7695 L 128.125 -75 L 117.334 -75 C 106.104 -75 99.1699 -71.7773 91.1621 -62.2559 L 77.3926 -45.8496 L 63.1348 -62.793 C 55.5664 -71.6797 48.6816 -74.9512 37.793 -74.9512 L 23.4863 -74.9512 C 19.1406 -74.9512 16.0645 -72.0215 16.0645 -67.9199 C 16.0645 -63.8672 19.1895 -60.8887 23.4863 -60.8887 L 37.5488 -60.8887 C 44.0918 -60.8887 48.5352 -58.6426 53.7598 -52.4414 L 68.3594 -35.1074 L 53.7598 -17.8223 C 48.4863 -11.5723 44.3848 -9.32617 37.8418 -9.32617 L 23.4863 -9.32617 C 19.1895 -9.32617 16.0645 -6.34766 16.0645 -2.29492 Z"/>
  </g>
  <g id="Regular-L" transform="matrix(1 0 0 1 1361.64 1556)">
   <path d="M 16.0645 -3.36914 C 16.0645 0.390625 18.75 2.92969 22.8027 2.92969 L 37.0605 2.92969 C 47.6074 2.92969 53.9551 -0.195312 61.6211 -9.13086 L 75.7324 -25.6836 L 89.8926 -9.08203 C 97.5098 -0.146484 103.809 2.97852 114.502 2.97852 L 125.391 2.97852 L 125.391 17.1387 C 125.391 20.3125 127.441 22.3145 130.713 22.3145 C 132.129 22.3145 133.545 21.7773 134.717 20.8496 L 158.252 1.70898 C 161.084 -0.585938 161.035 -4.3457 158.252 -6.64062 L 134.717 -25.8301 C 133.545 -26.7578 132.129 -27.2949 130.713 -27.2949 C 127.441 -27.2949 125.391 -25.293 125.391 -22.1191 L 125.391 -9.61914 L 114.648 -9.61914 C 108.203 -9.61914 104.15 -11.7676 98.9258 -17.9199 L 84.0332 -35.3516 L 98.9258 -52.7832 C 104.15 -58.9355 108.203 -61.084 114.648 -61.084 L 125.391 -61.084 L 125.391 -48.2422 C 125.391 -45.0684 127.441 -43.0664 130.713 -43.0664 C 132.129 -43.0664 133.545 -43.6035 134.717 -44.5312 L 158.252 -63.6719 C 161.084 -65.9668 161.035 -69.7266 158.252 -72.0215 L 134.717 -91.2109 C 133.545 -92.1387 132.129 -92.6758 130.713 -92.6758 C 127.441 -92.6758 125.391 -90.6738 125.391 -87.5 L 125.391 -73.6328 L 114.502 -73.6328 C 103.809 -73.6328 97.5098 -70.5566 89.8926 -61.6211 L 75.7324 -45.0195 L 61.6211 -61.5723 C 53.9551 -70.5078 47.6074 -73.6328 37.0605 -73.6328 L 22.8027 -73.6328 C 18.75 -73.6328 16.0645 -71.0449 16.0645 -67.334 C 16.0645 -63.6719 18.8477 -61.0352 22.8027 -61.0352 L 37.4023 -61.0352 C 43.5059 -61.0352 47.3633 -58.9355 52.6367 -52.7344 L 67.4805 -35.3516 L 52.6367 -17.9199 C 47.3145 -11.7676 43.457 -9.61914 37.4023 -9.61914 L 22.8027 -9.61914 C 18.8477 -9.61914 16.0645 -7.03125 16.0645 -3.36914 Z"/>
  </g>
  <g id="Light-L" transform="matrix(1 0 0 1 1067.42 1556)">
   <path d="M 16.0645 -4.00391 C 16.0645 -0.732422 18.457 1.5625 21.875 1.5625 L 36.0352 1.5625 C 46.1914 1.5625 52.2461 -1.46484 59.6191 -10.1074 L 73.7793 -26.8066 L 87.9395 -10.0586 C 95.3125 -1.41602 101.367 1.61133 111.621 1.61133 L 121.631 1.61133 L 121.631 16.0156 C 121.631 18.8477 123.486 20.7031 126.416 20.7031 C 127.734 20.7031 128.955 20.2637 130.078 19.3359 L 153.32 0.927734 C 156.104 -1.26953 156.006 -5.07812 153.32 -7.22656 L 130.078 -25.6348 C 128.955 -26.5625 127.734 -27.002 126.416 -27.002 C 123.486 -27.002 121.631 -25.1465 121.631 -22.3145 L 121.631 -9.47266 L 111.523 -9.47266 C 105.176 -9.47266 101.123 -11.6699 95.6543 -18.0664 L 81.0059 -35.3027 L 95.6543 -52.5879 C 101.123 -58.9844 105.176 -61.1816 111.523 -61.1816 L 121.631 -61.1816 L 121.631 -48.0957 C 121.631 -45.2148 123.486 -43.4082 126.416 -43.4082 C 127.734 -43.4082 128.955 -43.8477 130.078 -44.7266 L 153.32 -63.1348 C 156.104 -65.3809 156.006 -69.1895 153.32 -71.3379 L 130.078 -89.7461 C 128.955 -90.625 127.734 -91.0645 126.416 -91.0645 C 123.486 -91.0645 121.631 -89.2578 121.631 -86.377 L 121.631 -72.2168 L 111.621 -72.2168 C 101.367 -72.2168 95.3125 -69.2383 87.9395 -60.5469 L 73.7793 -43.8477 L 59.6191 -60.498 C 52.2461 -69.1895 46.1914 -72.168 36.0352 -72.168 L 21.875 -72.168 C 18.457 -72.168 16.0645 -69.9219 16.0645 -66.6504 C 16.0645 -63.4766 18.5547 -61.1328 21.875 -61.1328 L 36.4258 -61.1328 C 42.5293 -61.1328 46.5332 -58.9355 51.9531 -52.5391 L 66.5527 -35.3027 L 51.9531 -18.1152 C 46.4844 -11.7188 42.5293 -9.52148 36.4258 -9.52148 L 21.875 -9.52148 C 18.5547 -9.52148 16.0645 -7.12891 16.0645 -4.00391 Z"/>
  </g>
  <g id="Thin-L" transform="matrix(1 0 0 1 774 1556)">
   <path d="M 16.1133 -4.83398 C 16.1133 -2.14844 17.9688 -0.292969 20.7031 -0.292969 L 34.668 -0.292969 C 44.2871 -0.292969 50 -3.125 57.0312 -11.4258 L 71.1426 -28.2715 L 85.4004 -11.377 C 92.3828 -3.07617 98.0957 -0.195312 107.764 -0.195312 L 116.602 -0.195312 L 116.602 14.502 C 116.602 16.9434 118.262 18.5547 120.801 18.5547 C 121.924 18.5547 122.9 18.2129 123.975 17.3828 L 146.777 -0.0976562 C 149.512 -2.19727 149.365 -6.05469 146.777 -8.05664 L 123.975 -25.4395 C 122.9 -26.2695 121.924 -26.6113 120.801 -26.6113 C 118.262 -26.6113 116.602 -25 116.602 -22.5586 L 116.602 -9.27734 L 107.373 -9.27734 C 101.123 -9.27734 97.0215 -11.5723 91.4062 -18.2617 L 77.0508 -35.3027 L 91.4062 -52.2949 C 97.0215 -58.9844 101.123 -61.2793 107.373 -61.2793 L 116.602 -61.2793 L 116.602 -47.8516 C 116.602 -45.4102 118.262 -43.8477 120.801 -43.8477 C 121.924 -43.8477 122.9 -44.1895 123.975 -45.0195 L 146.777 -62.4512 C 149.512 -64.5996 149.365 -68.457 146.777 -70.4102 L 123.975 -87.793 C 122.9 -88.623 121.924 -88.9648 120.801 -88.9648 C 118.262 -88.9648 116.602 -87.4023 116.602 -84.9609 L 116.602 -70.3613 L 107.764 -70.3613 C 98.0957 -70.3613 92.3828 -67.4805 85.4004 -59.1797 L 71.1426 -42.2852 L 57.0312 -59.1309 C 50 -67.4316 44.2871 -70.2637 34.668 -70.2637 L 20.7031 -70.2637 C 17.9688 -70.2637 16.1133 -68.4082 16.1133 -65.7715 C 16.1133 -63.2324 18.1641 -61.2305 20.7031 -61.2305 L 35.1074 -61.2305 C 41.3086 -61.2305 45.3613 -58.9355 51.0254 -52.2461 L 65.2832 -35.3027 L 51.0254 -18.3105 C 45.3613 -11.6699 41.2598 -9.32617 35.1074 -9.32617 L 20.7031 -9.32617 C 18.1641 -9.32617 16.1133 -7.32422 16.1133 -4.83398 Z"/>
  </g>
  <g id="Ultralight-L" transform="matrix(1 0 0 1 478.974 1556)">
   <path d="M 16.1133 -5.22461 C 16.1133 -2.88086 17.7734 -1.2207 20.0684 -1.2207 L 33.9355 -1.2207 C 43.3105 -1.2207 48.8281 -4.00391 55.6641 -12.1094 L 69.8242 -29.0527 L 84.082 -12.0117 C 90.918 -3.90625 96.4355 -1.12305 105.811 -1.12305 L 114.014 -1.12305 L 114.014 13.7207 C 114.014 15.9668 115.576 17.4316 117.871 17.4316 C 118.994 17.4316 119.775 17.1387 120.85 16.3574 L 143.408 -0.634766 C 146.143 -2.68555 145.947 -6.54297 143.408 -8.44727 L 120.85 -25.3418 C 119.775 -26.123 118.994 -26.416 117.871 -26.416 C 115.576 -26.416 114.014 -24.9512 114.014 -22.7051 L 114.014 -9.17969 L 105.225 -9.17969 C 99.0723 -9.17969 94.9707 -11.5234 89.209 -18.3594 L 75.0488 -35.2539 L 89.209 -52.1484 C 94.9707 -58.9844 99.0723 -61.377 105.225 -61.377 L 114.014 -61.377 L 114.014 -47.7539 C 114.014 -45.5078 115.576 -44.043 117.871 -44.043 C 118.994 -44.043 119.775 -44.3848 120.85 -45.166 L 143.408 -62.1094 C 146.143 -64.209 145.947 -68.0664 143.408 -69.9707 L 120.85 -86.8164 C 119.775 -87.5977 118.994 -87.8906 117.871 -87.8906 C 115.576 -87.8906 114.014 -86.4258 114.014 -84.2285 L 114.014 -69.3848 L 105.811 -69.3848 C 96.4355 -69.3848 90.918 -66.6016 84.082 -58.4961 L 69.8242 -41.5039 L 55.6641 -58.3984 C 48.8281 -66.5039 43.3105 -69.2871 33.9355 -69.2871 L 20.0684 -69.2871 C 17.7734 -69.2871 16.1133 -67.627 16.1133 -65.2832 C 16.1133 -63.1348 17.9199 -61.2793 20.0684 -61.2793 L 34.4238 -61.2793 C 40.625 -61.2793 44.7754 -58.9355 50.5371 -52.0996 L 64.5996 -35.2539 L 50.5371 -18.457 C 44.7754 -11.6211 40.6738 -9.22852 34.4238 -9.22852 L 20.0684 -9.22852 C 17.9199 -9.22852 16.1133 -7.42188 16.1133 -5.22461 Z"/>
  </g>
  <g id="Black-M" transform="matrix(1 0 0 1 2853.1 1126)">
   <path d="M 12.4512 -4.54102 C 12.4512 0.341797 16.4551 4.39453 21.3379 4.39453 L 34.6191 4.39453 C 44.4336 4.39453 50.7324 1.07422 55.8594 -5.51758 L 67.5293 -20.5078 L 78.0762 -6.88477 C 84.3262 1.12305 94.3359 4.39453 104.15 4.39453 L 111.67 4.39453 L 111.67 14.5996 C 111.67 18.8477 114.307 21.582 118.408 21.582 C 120.459 21.582 121.875 20.8984 123.047 19.873 L 145.85 0.390625 C 148.926 -2.24609 148.877 -6.64062 145.85 -9.17969 L 123.047 -28.6133 C 121.875 -29.5898 120.459 -30.2734 118.408 -30.2734 C 114.307 -30.2734 111.67 -27.5879 111.67 -23.3398 L 111.67 -13.4766 L 104.346 -13.4766 C 96.7285 -13.4766 91.8457 -15.9668 87.6953 -21.2891 L 77.9297 -33.8867 L 87.9883 -46.7773 C 92.4805 -52.6367 95.459 -54.4434 102.686 -54.4434 L 111.67 -54.4434 L 111.67 -44.9707 C 111.67 -40.6738 114.307 -37.9883 118.408 -37.9883 C 120.459 -37.9883 121.875 -38.6719 123.047 -39.6973 L 145.85 -59.1797 C 148.926 -61.8164 148.877 -66.2109 145.85 -68.75 L 123.047 -88.1836 C 121.875 -89.1602 120.459 -89.8438 118.408 -89.8438 C 114.307 -89.8438 111.67 -87.1582 111.67 -82.9102 L 111.67 -72.2656 L 104.346 -72.2656 C 92.9688 -72.2656 84.375 -69.4824 76.3184 -59.0332 L 67.3828 -47.4609 L 55.8594 -62.3535 C 50.7324 -68.9453 42.5293 -72.2656 32.7148 -72.2656 L 21.3379 -72.2656 C 16.4551 -72.2656 12.4512 -68.2617 12.4512 -63.3789 C 12.4512 -58.4473 16.4551 -54.4434 21.3379 -54.4434 L 29.2969 -54.4434 C 37.0117 -54.4434 43.1152 -52.002 47.2168 -46.6797 L 57.0312 -33.9844 L 47.2168 -21.2402 C 43.1152 -15.8691 38.916 -13.4766 31.25 -13.4766 L 21.3379 -13.4766 C 16.4551 -13.4766 12.4512 -9.42383 12.4512 -4.54102 Z"/>
  </g>
  <g id="Heavy-M" transform="matrix(1 0 0 1 2558.88 1126)">
   <path d="M 12.4512 -5.85938 C 12.4512 -1.36719 16.0645 2.19727 20.6055 2.19727 L 33.3496 2.19727 C 42.8711 2.19727 48.877 -0.927734 54.1992 -7.61719 L 65.7227 -22.1191 L 76.3672 -8.64258 C 82.5684 -0.878906 91.4062 2.19727 100.928 2.19727 L 108.74 2.19727 L 108.74 12.5488 C 108.74 16.4551 111.182 18.8965 114.941 18.8965 C 116.797 18.8965 118.164 18.2617 119.287 17.334 L 141.064 -1.12305 C 143.896 -3.56445 143.848 -7.61719 141.064 -10.0098 L 119.287 -28.4668 C 118.164 -29.3945 116.797 -30.0293 114.941 -30.0293 C 111.182 -30.0293 108.74 -27.5879 108.74 -23.6816 L 108.74 -13.916 L 101.123 -13.916 C 94.0918 -13.916 89.6484 -16.2109 85.5469 -21.3867 L 75.3418 -34.2285 L 85.7422 -47.3145 C 90.1367 -52.832 93.1152 -54.6387 99.8535 -54.6387 L 108.74 -54.6387 L 108.74 -45.0684 C 108.74 -41.2109 111.182 -38.7207 114.941 -38.7207 C 116.797 -38.7207 118.164 -39.3555 119.287 -40.332 L 141.064 -58.7891 C 143.896 -61.2305 143.848 -65.2832 141.064 -67.6758 L 119.287 -86.1328 C 118.164 -87.0605 116.797 -87.6953 114.941 -87.6953 C 111.182 -87.6953 108.74 -85.2539 108.74 -81.3477 L 108.74 -70.752 L 101.074 -70.752 C 90.332 -70.752 82.6172 -68.0176 75 -58.3984 L 65.625 -46.4844 L 54.1992 -60.9375 C 48.877 -67.627 41.4062 -70.752 31.8848 -70.752 L 20.6055 -70.752 C 16.0645 -70.752 12.4512 -67.1875 12.4512 -62.6953 C 12.4512 -58.2031 16.0645 -54.6387 20.6055 -54.6387 L 29.3945 -54.6387 C 36.3281 -54.6387 41.748 -52.3438 45.8008 -47.2168 L 56.0059 -34.3262 L 45.8008 -21.3379 C 41.6992 -16.1621 37.793 -13.916 30.8594 -13.916 L 20.6055 -13.916 C 16.0645 -13.916 12.4512 -10.3516 12.4512 -5.85938 Z"/>
  </g>
  <g id="Bold-M" transform="matrix(1 0 0 1 2264.93 1126)">
   <path d="M 12.4512 -7.37305 C 12.4512 -3.32031 15.625 -0.244141 19.7754 -0.244141 L 31.9824 -0.244141 C 41.1133 -0.244141 46.7773 -3.125 52.3438 -9.96094 L 63.6719 -23.877 L 74.4629 -10.6445 C 80.5664 -3.07617 88.1348 -0.244141 97.2656 -0.244141 L 105.518 -0.244141 L 105.518 10.3027 C 105.518 13.7207 107.666 15.918 111.084 15.918 C 112.646 15.918 114.014 15.3809 115.039 14.502 L 135.645 -2.88086 C 138.33 -5.12695 138.281 -8.74023 135.645 -10.9375 L 115.039 -28.3203 C 114.014 -29.1992 112.646 -29.7852 111.084 -29.7852 C 107.666 -29.7852 105.518 -27.5879 105.518 -24.1211 L 105.518 -14.4531 L 97.5098 -14.4531 C 91.1621 -14.4531 87.1582 -16.5039 83.1055 -21.4844 L 72.4609 -34.6191 L 83.252 -47.8516 C 87.5 -53.125 90.5273 -54.834 96.6797 -54.834 L 105.518 -54.834 L 105.518 -45.2148 C 105.518 -41.748 107.666 -39.5508 111.084 -39.5508 C 112.646 -39.5508 114.014 -40.1367 115.039 -41.0156 L 135.645 -58.3496 C 138.33 -60.5957 138.281 -64.2578 135.645 -66.4551 L 115.039 -83.7891 C 114.014 -84.668 112.646 -85.2539 111.084 -85.2539 C 107.666 -85.2539 105.518 -83.0566 105.518 -79.6387 L 105.518 -69.043 L 97.3633 -69.043 C 87.4023 -69.043 80.6152 -66.4062 73.5352 -57.666 L 63.623 -45.459 L 52.3438 -59.3262 C 46.7773 -66.1621 40.1367 -69.043 31.0059 -69.043 L 19.7754 -69.043 C 15.625 -69.043 12.4512 -65.9668 12.4512 -61.9141 C 12.4512 -57.9102 15.625 -54.834 19.7754 -54.834 L 29.4434 -54.834 C 35.6445 -54.834 40.1855 -52.7832 44.2383 -47.8027 L 54.9316 -34.668 L 44.2383 -21.4844 C 40.1367 -16.4551 36.5723 -14.4531 30.3711 -14.4531 L 19.7754 -14.4531 C 15.625 -14.4531 12.4512 -11.377 12.4512 -7.37305 Z"/>
  </g>
  <g id="Semibold-M" transform="matrix(1 0 0 1 1970.15 1126)">
   <path d="M 12.4512 -8.39844 C 12.4512 -4.6875 15.2832 -1.9043 19.1895 -1.9043 L 31.0059 -1.9043 C 39.8926 -1.9043 45.3125 -4.6875 51.0742 -11.5723 L 62.3047 -25.0977 L 73.0957 -12.0117 C 79.1992 -4.63867 85.8398 -1.9043 94.7754 -1.9043 L 103.271 -1.9043 L 103.271 8.74023 C 103.271 11.8652 105.273 13.8672 108.398 13.8672 C 109.863 13.8672 111.133 13.3789 112.109 12.5 L 131.982 -4.05273 C 134.473 -6.15234 134.424 -9.52148 131.982 -11.5723 L 112.109 -28.2227 C 111.133 -29.0527 109.863 -29.5898 108.398 -29.5898 C 105.273 -29.5898 103.271 -27.5879 103.271 -24.4141 L 103.271 -14.8438 L 95.0195 -14.8438 C 89.1602 -14.8438 85.4492 -16.6992 81.4453 -21.582 L 70.4102 -34.8633 L 81.4941 -48.2422 C 85.6445 -53.2715 88.7695 -54.9805 94.4824 -54.9805 L 103.271 -54.9805 L 103.271 -45.2637 C 103.271 -42.1387 105.273 -40.1367 108.398 -40.1367 C 109.863 -40.1367 111.133 -40.625 112.109 -41.5039 L 131.982 -58.0566 C 134.473 -60.1562 134.424 -63.5254 131.982 -65.5762 L 112.109 -82.2266 C 111.133 -83.0566 109.863 -83.5938 108.398 -83.5938 C 105.273 -83.5938 103.271 -81.5918 103.271 -78.418 L 103.271 -67.8711 L 94.8242 -67.8711 C 85.4004 -67.8711 79.248 -65.2832 72.5586 -57.1289 L 62.2559 -44.7266 L 51.0742 -58.2031 C 45.3125 -65.1367 39.2578 -67.8711 30.4199 -67.8711 L 19.1895 -67.8711 C 15.2832 -67.8711 12.4512 -65.1367 12.4512 -61.4258 C 12.4512 -57.7148 15.332 -54.9316 19.1895 -54.9316 L 29.4922 -54.9316 C 35.1074 -54.9316 39.1113 -53.0762 43.1152 -48.1934 L 54.1504 -34.9121 L 43.1152 -21.582 C 39.0625 -16.6992 35.6934 -14.8438 30.0781 -14.8438 L 19.1895 -14.8438 C 15.332 -14.8438 12.4512 -12.0605 12.4512 -8.39844 Z"/>
  </g>
  <g id="Medium-M" transform="matrix(1 0 0 1 1674.88 1126)">
   <path d="M 12.4512 -9.13086 C 12.4512 -5.66406 15.0391 -3.22266 18.75 -3.22266 L 30.2734 -3.22266 C 38.9648 -3.22266 44.2383 -5.81055 50.1465 -12.8418 L 61.2305 -26.0254 L 72.1191 -13.0371 C 78.1738 -5.81055 84.1309 -3.17383 92.8711 -3.17383 L 101.562 -3.17383 L 101.562 7.51953 C 101.562 10.4492 103.418 12.3047 106.396 12.3047 C 107.715 12.3047 108.936 11.8164 109.912 11.0352 L 129.15 -4.98047 C 131.543 -6.93359 131.494 -10.1074 129.15 -12.0605 L 109.912 -28.125 C 108.936 -28.9551 107.715 -29.4434 106.396 -29.4434 C 103.418 -29.4434 101.562 -27.5879 101.562 -24.6582 L 101.562 -15.0879 L 93.1152 -15.0879 C 87.5977 -15.0879 84.1797 -16.8945 80.1758 -21.6309 L 68.8477 -35.0586 L 80.2246 -48.584 C 84.2773 -53.418 87.4023 -55.0781 92.8223 -55.0781 L 101.562 -55.0781 L 101.562 -45.3613 C 101.562 -42.4316 103.418 -40.5762 106.396 -40.5762 C 107.715 -40.5762 108.936 -41.0645 109.912 -41.8457 L 129.15 -57.8613 C 131.543 -59.8145 131.494 -62.9883 129.15 -64.9414 L 109.912 -81.0059 C 108.936 -81.8359 107.715 -82.3242 106.396 -82.3242 C 103.418 -82.3242 101.562 -80.4688 101.562 -77.5391 L 101.562 -66.9922 L 92.9199 -66.9922 C 83.8867 -66.9922 78.1738 -64.4531 71.7773 -56.7383 L 61.2305 -44.1895 L 50.1465 -57.3242 C 44.2383 -64.3555 38.623 -66.9922 29.9316 -66.9922 L 18.75 -66.9922 C 15.0391 -66.9922 12.4512 -64.502 12.4512 -61.0352 C 12.4512 -57.5684 15.0879 -55.0781 18.75 -55.0781 L 29.4922 -55.0781 C 34.7656 -55.0781 38.2812 -53.3203 42.2852 -48.5352 L 53.5645 -35.1074 L 42.2852 -21.6309 C 38.2324 -16.8457 35.0586 -15.0879 29.834 -15.0879 L 18.75 -15.0879 C 15.0879 -15.0879 12.4512 -12.5977 12.4512 -9.13086 Z"/>
  </g>
  <g id="Regular-M" transform="matrix(1 0 0 1 1380.04 1126)">
   <path d="M 12.4512 -10.1562 C 12.4512 -7.03125 14.7461 -4.88281 18.2129 -4.88281 L 29.2969 -4.88281 C 37.7441 -4.88281 42.7734 -7.32422 48.877 -14.4043 L 59.8145 -27.1973 L 70.8008 -14.4043 C 76.8066 -7.32422 81.8848 -4.83398 90.3809 -4.83398 L 99.3652 -4.83398 L 99.3652 6.00586 C 99.3652 8.64258 101.025 10.3027 103.711 10.3027 C 104.883 10.3027 106.104 9.86328 107.031 9.08203 L 125.488 -6.15234 C 127.686 -7.95898 127.686 -10.8887 125.488 -12.6953 L 107.031 -28.0273 C 106.104 -28.8086 104.883 -29.248 103.711 -29.248 C 101.025 -29.248 99.3652 -27.5879 99.3652 -24.9512 L 99.3652 -15.4785 L 90.6738 -15.4785 C 85.5957 -15.4785 82.4707 -17.0898 78.5156 -21.7285 L 66.8457 -35.3516 L 78.5156 -48.9258 C 82.4707 -53.6133 85.5957 -55.2246 90.6738 -55.2246 L 99.3652 -55.2246 L 99.3652 -45.4102 C 99.3652 -42.7734 101.025 -41.1133 103.711 -41.1133 C 104.883 -41.1133 106.104 -41.5527 107.031 -42.334 L 125.488 -57.5684 C 127.686 -59.375 127.686 -62.2559 125.488 -64.1113 L 107.031 -79.4434 C 106.104 -80.2246 104.883 -80.6641 103.711 -80.6641 C 101.025 -80.6641 99.3652 -79.0039 99.3652 -76.3672 L 99.3652 -65.8203 L 90.3809 -65.8203 C 81.8848 -65.8203 76.8066 -63.3301 70.8008 -56.25 L 59.8145 -43.457 L 48.877 -56.25 C 42.7734 -63.3301 37.7441 -65.8203 29.2969 -65.8203 L 18.2129 -65.8203 C 14.7461 -65.8203 12.4512 -63.6719 12.4512 -60.498 C 12.4512 -57.373 14.7949 -55.1758 18.2129 -55.1758 L 29.541 -55.1758 C 34.2285 -55.1758 37.207 -53.5645 41.2109 -48.9258 L 52.8809 -35.3516 L 41.2109 -21.7285 C 37.1582 -17.0898 34.1797 -15.4785 29.541 -15.4785 L 18.2129 -15.4785 C 14.7949 -15.4785 12.4512 -13.2812 12.4512 -10.1562 Z"/>
  </g>
  <g id="Light-M" transform="matrix(1 0 0 1 1085.58 1126)">
   <path d="M 12.4512 -10.7422 C 12.4512 -8.00781 14.4531 -6.10352 17.3828 -6.10352 L 28.3691 -6.10352 C 36.4258 -6.10352 41.2598 -8.49609 47.0703 -15.332 L 58.0566 -28.1738 L 69.043 -15.2832 C 74.8535 -8.44727 79.6387 -6.05469 87.793 -6.05469 L 95.9473 -6.05469 L 95.9473 4.98047 C 95.9473 7.32422 97.4609 8.83789 99.9023 8.83789 C 100.977 8.83789 102.002 8.44727 102.881 7.71484 L 121.045 -6.83594 C 123.193 -8.59375 123.145 -11.5234 121.045 -13.2324 L 102.881 -27.8809 C 102.002 -28.6133 100.977 -29.0039 99.9023 -29.0039 C 97.4609 -29.0039 95.9473 -27.4902 95.9473 -25.0977 L 95.9473 -15.332 L 87.8418 -15.332 C 82.8613 -15.332 79.7363 -16.9922 75.5859 -21.875 L 64.1113 -35.3027 L 75.5859 -48.7793 C 79.7363 -53.6133 82.8613 -55.2734 87.8418 -55.2734 L 95.9473 -55.2734 L 95.9473 -45.2637 C 95.9473 -42.9199 97.4609 -41.4062 99.9023 -41.4062 C 100.977 -41.4062 102.002 -41.7969 102.881 -42.5293 L 121.045 -57.0801 C 123.193 -58.8379 123.145 -61.7676 121.045 -63.5254 L 102.881 -78.125 C 102.002 -78.8574 100.977 -79.248 99.9023 -79.248 C 97.4609 -79.248 95.9473 -77.7344 95.9473 -75.3906 L 95.9473 -64.5508 L 87.793 -64.5508 C 79.6387 -64.5508 74.8535 -62.1582 69.043 -55.3223 L 58.0566 -42.4316 L 47.0703 -55.2734 C 41.2598 -62.1582 36.4258 -64.502 28.3691 -64.502 L 17.3828 -64.502 C 14.4531 -64.502 12.4512 -62.6465 12.4512 -59.8633 C 12.4512 -57.2266 14.502 -55.2734 17.3828 -55.2734 L 28.6621 -55.2734 C 33.3984 -55.2734 36.4258 -53.5645 40.5762 -48.7305 L 52.002 -35.3027 L 40.5762 -21.875 C 36.4258 -17.041 33.3496 -15.332 28.6621 -15.332 L 17.3828 -15.332 C 14.502 -15.332 12.4512 -13.4277 12.4512 -10.7422 Z"/>
  </g>
  <g id="Thin-M" transform="matrix(1 0 0 1 791.847 1126)">
   <path d="M 12.4512 -11.4746 C 12.4512 -9.27734 14.0137 -7.76367 16.2598 -7.76367 L 27.1484 -7.76367 C 34.7168 -7.76367 39.209 -10.0098 44.7266 -16.5039 L 55.7129 -29.4922 L 66.6992 -16.4551 C 72.2168 -9.96094 76.709 -7.71484 84.3262 -7.71484 L 91.4062 -7.71484 L 91.4062 3.61328 C 91.4062 5.61523 92.7734 6.88477 94.8242 6.88477 C 95.752 6.88477 96.5332 6.5918 97.3633 5.95703 L 115.137 -7.76367 C 117.285 -9.42383 117.188 -12.4023 115.137 -13.9648 L 97.3633 -27.6855 C 96.5332 -28.3203 95.752 -28.6133 94.8242 -28.6133 C 92.7734 -28.6133 91.4062 -27.3438 91.4062 -25.3418 L 91.4062 -15.1367 L 84.082 -15.1367 C 79.248 -15.1367 76.0742 -16.8945 71.7285 -22.0215 L 60.5469 -35.2539 L 71.7285 -48.5352 C 76.0742 -53.6133 79.248 -55.4199 84.082 -55.4199 L 91.4062 -55.4199 L 91.4062 -45.0684 C 91.4062 -43.1152 92.7734 -41.7969 94.8242 -41.7969 C 95.752 -41.7969 96.5332 -42.0898 97.3633 -42.7734 L 115.137 -56.4941 C 117.285 -58.1543 117.188 -61.1328 115.137 -62.6953 L 97.3633 -76.416 C 96.5332 -77.0508 95.752 -77.3438 94.8242 -77.3438 C 92.7734 -77.3438 91.4062 -76.0742 91.4062 -74.0723 L 91.4062 -62.8418 L 84.3262 -62.8418 C 76.709 -62.8418 72.2168 -60.5957 66.6992 -54.1016 L 55.7129 -41.0156 L 44.7266 -54.0527 C 39.209 -60.5469 34.7168 -62.793 27.1484 -62.793 L 16.2598 -62.793 C 14.0137 -62.793 12.4512 -61.2793 12.4512 -59.082 C 12.4512 -56.9824 14.1113 -55.3711 16.2598 -55.3711 L 27.4902 -55.3711 C 32.2266 -55.3711 35.4004 -53.5645 39.6973 -48.4863 L 50.8301 -35.2539 L 39.6973 -22.0703 C 35.3516 -16.9922 32.2266 -15.1855 27.4902 -15.1855 L 16.2598 -15.1855 C 14.1113 -15.1855 12.4512 -13.5742 12.4512 -11.4746 Z"/>
  </g>
  <g id="Ultralight-M" transform="matrix(1 0 0 1 496.65 1126)">
   <path d="M 12.4512 -11.8652 C 12.4512 -9.96094 13.8184 -8.59375 15.7227 -8.59375 L 26.4648 -8.59375 C 33.8379 -8.59375 38.1836 -10.791 43.5059 -17.0898 L 54.4922 -30.1758 L 65.5273 -17.041 C 70.8496 -10.6934 75.1953 -8.54492 82.5684 -8.54492 L 89.1113 -8.54492 L 89.1113 2.92969 C 89.1113 4.73633 90.332 5.9082 92.1875 5.9082 C 93.0664 5.9082 93.75 5.66406 94.5312 5.0293 L 112.109 -8.25195 C 114.209 -9.86328 114.111 -12.8418 112.109 -14.3555 L 94.5312 -27.5879 C 93.75 -28.2227 93.0664 -28.4668 92.1875 -28.4668 C 90.332 -28.4668 89.1113 -27.2949 89.1113 -25.4883 L 89.1113 -15.0391 L 82.1777 -15.0391 C 77.3438 -15.0391 74.1699 -16.8945 69.7754 -22.1191 L 58.7402 -35.2539 L 69.7754 -48.3887 C 74.1699 -53.6621 77.3438 -55.4688 82.1777 -55.4688 L 89.1113 -55.4688 L 89.1113 -44.9707 C 89.1113 -43.1641 90.332 -41.9922 92.1875 -41.9922 C 93.0664 -41.9922 93.75 -42.2363 94.5312 -42.8711 L 112.109 -56.1523 C 114.209 -57.8125 114.111 -60.791 112.109 -62.2559 L 94.5312 -75.4883 C 93.75 -76.123 93.0664 -76.3672 92.1875 -76.3672 C 90.332 -76.3672 89.1113 -75.1953 89.1113 -73.3887 L 89.1113 -62.0117 L 82.5684 -62.0117 C 75.1953 -62.0117 70.8496 -59.8145 65.5273 -53.4668 L 54.4922 -40.332 L 43.5059 -53.418 C 38.1836 -59.7656 33.8379 -61.9141 26.4648 -61.9141 L 15.7227 -61.9141 C 13.8184 -61.9141 12.4512 -60.5469 12.4512 -58.6426 C 12.4512 -56.8848 13.916 -55.3711 15.7227 -55.3711 L 26.8555 -55.3711 C 31.6406 -55.3711 34.8633 -53.5645 39.2578 -48.3398 L 50.2441 -35.2539 L 39.2578 -22.168 C 34.8633 -16.9434 31.6406 -15.1367 26.8555 -15.1367 L 15.7227 -15.1367 C 13.916 -15.1367 12.4512 -13.623 12.4512 -11.8652 Z"/>
  </g>
  <g id="Black-S" transform="matrix(1 0 0 1 2870.66 696)">
   <path d="M 9.76562 -11.2793 C 9.76562 -7.4707 12.8906 -4.3457 16.6992 -4.3457 L 27.0508 -4.3457 C 34.7168 -4.3457 39.6484 -6.93359 43.6523 -12.1094 L 52.7832 -23.8281 L 61.084 -13.1348 C 65.9668 -6.88477 73.7305 -4.3457 81.3965 -4.3457 L 87.3047 -4.3457 L 87.3047 3.66211 C 87.3047 6.98242 89.3555 9.08203 92.5781 9.08203 C 94.1406 9.08203 95.2637 8.54492 96.1914 7.76367 L 113.965 -7.42188 C 116.357 -9.47266 116.309 -12.8906 113.965 -14.8926 L 96.1914 -30.0293 C 95.2637 -30.8105 94.1406 -31.3477 92.5781 -31.3477 C 89.3555 -31.3477 87.3047 -29.248 87.3047 -25.9277 L 87.3047 -18.2129 L 81.543 -18.2129 C 75.6348 -18.2129 71.8262 -20.166 68.6035 -24.3164 L 60.8887 -34.2285 L 68.7988 -44.3359 C 72.3145 -48.877 74.6582 -50.293 80.2734 -50.293 L 87.3047 -50.293 L 87.3047 -42.8711 C 87.3047 -39.5508 89.3555 -37.4512 92.5781 -37.4512 C 94.1406 -37.4512 95.2637 -37.9883 96.1914 -38.7695 L 113.965 -53.9551 C 116.357 -56.0059 116.309 -59.4238 113.965 -61.4258 L 96.1914 -76.5625 C 95.2637 -77.3438 94.1406 -77.8809 92.5781 -77.8809 C 89.3555 -77.8809 87.3047 -75.7812 87.3047 -72.4609 L 87.3047 -64.1602 L 81.543 -64.1602 C 72.6562 -64.1602 66.0156 -61.9629 59.7168 -53.8574 L 52.6855 -44.7754 L 43.6523 -56.3965 C 39.6484 -61.5723 33.252 -64.1602 25.5859 -64.1602 L 16.6992 -64.1602 C 12.8906 -64.1602 9.76562 -61.0352 9.76562 -57.2266 C 9.76562 -53.418 12.8906 -50.293 16.6992 -50.293 L 22.998 -50.293 C 28.9551 -50.293 33.6914 -48.3887 36.9141 -44.2383 L 44.6289 -34.2773 L 36.9141 -24.2676 C 33.6914 -20.0684 30.4199 -18.2129 24.4629 -18.2129 L 16.6992 -18.2129 C 12.8906 -18.2129 9.76562 -15.0879 9.76562 -11.2793 Z"/>
  </g>
  <g id="Heavy-S" transform="matrix(1 0 0 1 2575.58 696)">
   <path d="M 9.76562 -12.2559 C 9.76562 -8.69141 12.5977 -5.85938 16.2109 -5.85938 L 26.2207 -5.85938 C 33.6426 -5.85938 38.3789 -8.30078 42.5781 -13.623 L 51.6113 -24.9023 L 59.9609 -14.4043 C 64.8438 -8.30078 71.7285 -5.85938 79.1992 -5.85938 L 85.4492 -5.85938 L 85.4492 2.19727 C 85.4492 5.27344 87.3535 7.22656 90.332 7.22656 C 91.748 7.22656 92.8711 6.68945 93.75 5.95703 L 110.791 -8.54492 C 113.037 -10.4492 112.988 -13.5742 110.791 -15.4785 L 93.75 -29.9316 C 92.8711 -30.6641 91.748 -31.2012 90.332 -31.2012 C 87.3535 -31.2012 85.4492 -29.248 85.4492 -26.2207 L 85.4492 -18.6035 L 79.3945 -18.6035 C 73.9258 -18.6035 70.459 -20.3613 67.2852 -24.3652 L 59.2285 -34.4727 L 67.4316 -44.7266 C 70.8008 -49.0723 73.1934 -50.4395 78.418 -50.4395 L 85.4492 -50.4395 L 85.4492 -42.9688 C 85.4492 -39.8926 87.3535 -37.9883 90.332 -37.9883 C 91.748 -37.9883 92.8711 -38.4766 93.75 -39.209 L 110.791 -53.7109 C 113.037 -55.6152 112.988 -58.7891 110.791 -60.6445 L 93.75 -75.1465 C 92.8711 -75.8789 91.748 -76.3672 90.332 -76.3672 C 87.3535 -76.3672 85.4492 -74.4629 85.4492 -71.3867 L 85.4492 -63.1348 L 79.2969 -63.1348 C 70.8984 -63.1348 64.8926 -60.9863 58.9355 -53.4668 L 51.5625 -44.1406 L 42.5781 -55.3711 C 38.3789 -60.6934 32.5195 -63.1348 25.0977 -63.1348 L 16.2109 -63.1348 C 12.5977 -63.1348 9.76562 -60.3027 9.76562 -56.7871 C 9.76562 -53.2227 12.5977 -50.4395 16.2109 -50.4395 L 23.1445 -50.4395 C 28.5645 -50.4395 32.7148 -48.6816 35.8887 -44.6777 L 43.9453 -34.5215 L 35.8887 -24.3652 C 32.7148 -20.3125 29.6387 -18.6035 24.2676 -18.6035 L 16.2109 -18.6035 C 12.5977 -18.6035 9.76562 -15.7715 9.76562 -12.2559 Z"/>
  </g>
  <g id="Bold-S" transform="matrix(1 0 0 1 2280.7 696)">
   <path d="M 9.76562 -13.2812 C 9.76562 -10.0586 12.3047 -7.56836 15.6738 -7.56836 L 25.2441 -7.56836 C 32.4707 -7.56836 36.9629 -9.86328 41.4062 -15.2832 L 50.293 -26.123 L 58.6914 -15.8203 C 63.5742 -9.86328 69.4824 -7.56836 76.7578 -7.56836 L 83.3984 -7.56836 L 83.3984 0.585938 C 83.3984 3.36914 85.1074 5.12695 87.8418 5.12695 C 89.1113 5.12695 90.1855 4.63867 91.0156 3.95508 L 107.227 -9.76562 C 109.277 -11.5234 109.277 -14.3555 107.227 -16.1133 L 91.0156 -29.834 C 90.1855 -30.5664 89.1113 -31.0059 87.8418 -31.0059 C 85.1074 -31.0059 83.3984 -29.248 83.3984 -26.5137 L 83.3984 -18.9941 L 77.002 -18.9941 C 72.0215 -18.9941 68.8965 -20.6055 65.7715 -24.4629 L 57.3242 -34.7656 L 65.8691 -45.2148 C 69.1406 -49.2676 71.5332 -50.5859 76.3672 -50.5859 L 83.3984 -50.5859 L 83.3984 -43.0664 C 83.3984 -40.332 85.1074 -38.5742 87.8418 -38.5742 C 89.1113 -38.5742 90.1855 -39.0137 91.0156 -39.7461 L 107.227 -53.4668 C 109.277 -55.2246 109.277 -58.0566 107.227 -59.8145 L 91.0156 -73.5352 C 90.1855 -74.2188 89.1113 -74.707 87.8418 -74.707 C 85.1074 -74.707 83.3984 -72.9492 83.3984 -70.166 L 83.3984 -61.9629 L 76.8066 -61.9629 C 68.9453 -61.9629 63.5742 -59.9121 58.0078 -53.0273 L 50.2441 -43.457 L 41.4062 -54.2969 C 36.9629 -59.7168 31.7383 -61.9629 24.5117 -61.9629 L 15.6738 -61.9629 C 12.3047 -61.9629 9.76562 -59.5215 9.76562 -56.2988 C 9.76562 -53.0273 12.3047 -50.5859 15.6738 -50.5859 L 23.291 -50.5859 C 28.125 -50.5859 31.6406 -49.0234 34.7656 -45.166 L 43.2129 -34.8145 L 34.7656 -24.4141 C 31.5918 -20.5566 28.8086 -18.9941 24.0234 -18.9941 L 15.6738 -18.9941 C 12.3047 -18.9941 9.76562 -16.5527 9.76562 -13.2812 Z"/>
  </g>
  <g id="Semibold-S" transform="matrix(1 0 0 1 1985.26 696)">
   <path d="M 9.76562 -14.0137 C 9.76562 -10.9863 12.1094 -8.78906 15.332 -8.78906 L 24.6094 -8.78906 C 31.6406 -8.78906 35.9863 -10.9375 40.5762 -16.4551 L 49.3652 -27.002 L 57.8125 -16.7969 C 62.6953 -10.9375 67.9199 -8.78906 75.0488 -8.78906 L 81.9824 -8.78906 L 81.9824 -0.488281 C 81.9824 2.05078 83.5938 3.66211 86.1328 3.66211 C 87.3047 3.66211 88.3789 3.22266 89.1602 2.53906 L 104.785 -10.6445 C 106.738 -12.2559 106.689 -14.8926 104.785 -16.5527 L 89.1602 -29.7852 C 88.3789 -30.4688 87.3047 -30.9082 86.1328 -30.9082 C 83.5938 -30.9082 81.9824 -29.248 81.9824 -26.709 L 81.9824 -19.2871 L 75.293 -19.2871 C 70.7031 -19.2871 67.8223 -20.752 64.7461 -24.5117 L 56.0059 -34.9609 L 64.7949 -45.5078 C 67.9688 -49.3652 70.4102 -50.6836 74.9023 -50.6836 L 81.9824 -50.6836 L 81.9824 -43.1641 C 81.9824 -40.5762 83.5938 -38.9648 86.1328 -38.9648 C 87.3047 -38.9648 88.3789 -39.4043 89.1602 -40.0879 L 104.785 -53.2715 C 106.738 -54.9316 106.689 -57.5195 104.785 -59.1797 L 89.1602 -72.4121 C 88.3789 -73.0957 87.3047 -73.5352 86.1328 -73.5352 C 83.5938 -73.5352 81.9824 -71.9238 81.9824 -69.3848 L 81.9824 -61.1816 L 75.0977 -61.1816 C 67.5781 -61.1816 62.6953 -59.1309 57.4219 -52.6855 L 49.3652 -42.9688 L 40.5762 -53.5156 C 35.9863 -59.0332 31.2012 -61.1816 24.1211 -61.1816 L 15.332 -61.1816 C 12.1094 -61.1816 9.76562 -58.9844 9.76562 -55.9082 C 9.76562 -52.8809 12.1094 -50.6836 15.332 -50.6836 L 23.3887 -50.6836 C 27.7832 -50.6836 30.8594 -49.2188 33.9844 -45.459 L 42.7246 -35.0098 L 33.9844 -24.4629 C 30.8594 -20.752 28.2227 -19.2871 23.877 -19.2871 L 15.332 -19.2871 C 12.1094 -19.2871 9.76562 -17.041 9.76562 -14.0137 Z"/>
  </g>
  <g id="Medium-S" transform="matrix(1 0 0 1 1689.52 696)">
   <path d="M 9.76562 -14.5996 C 9.76562 -11.7188 11.9141 -9.66797 15.0391 -9.66797 L 24.0723 -9.66797 C 31.0059 -9.66797 35.2539 -11.7676 39.9902 -17.334 L 48.6816 -27.6367 L 57.1777 -17.5293 C 62.0117 -11.7676 66.748 -9.66797 73.7793 -9.66797 L 80.9082 -9.66797 L 80.9082 -1.36719 C 80.9082 1.07422 82.4219 2.58789 84.8633 2.58789 C 85.8887 2.58789 86.9629 2.14844 87.7441 1.51367 L 102.93 -11.2793 C 104.785 -12.8418 104.785 -15.2832 102.93 -16.8945 L 87.7441 -29.7363 C 86.9629 -30.3711 85.8887 -30.8105 84.8633 -30.8105 C 82.4219 -30.8105 80.9082 -29.2969 80.9082 -26.8555 L 80.9082 -19.5312 L 74.0723 -19.5312 C 69.7266 -19.5312 67.041 -20.8984 63.9648 -24.5117 L 54.9805 -35.1074 L 63.9648 -45.752 C 67.1387 -49.4629 69.5312 -50.7324 73.8281 -50.7324 L 80.9082 -50.7324 L 80.9082 -43.2129 C 80.9082 -40.8203 82.4219 -39.3066 84.8633 -39.3066 C 85.8887 -39.3066 86.9629 -39.6973 87.7441 -40.332 L 102.93 -53.125 C 104.785 -54.6875 104.785 -57.1777 102.93 -58.7402 L 87.7441 -71.582 C 86.9629 -72.2656 85.8887 -72.6562 84.8633 -72.6562 C 82.4219 -72.6562 80.9082 -71.1426 80.9082 -68.75 L 80.9082 -60.5957 L 73.7793 -60.5957 C 66.5527 -60.5957 62.0605 -58.5938 56.9336 -52.4414 L 48.6328 -42.627 L 39.9902 -52.9297 C 35.2539 -58.4961 30.7617 -60.5957 23.8281 -60.5957 L 15.0391 -60.5957 C 11.9141 -60.5957 9.76562 -58.5449 9.76562 -55.6641 C 9.76562 -52.7832 11.9141 -50.7324 15.0391 -50.7324 L 23.4863 -50.7324 C 27.5879 -50.7324 30.3223 -49.4141 33.3984 -45.752 L 42.334 -35.1562 L 33.3984 -24.5117 C 30.2734 -20.8496 27.7832 -19.5312 23.7305 -19.5312 L 15.0391 -19.5312 C 11.9141 -19.5312 9.76562 -17.4805 9.76562 -14.5996 Z"/>
  </g>
  <g id="Regular-S" transform="matrix(1 0 0 1 1394.06 696)">
   <path d="M 9.76562 -15.332 C 9.76562 -12.6465 11.7188 -10.8398 14.6484 -10.8398 L 23.4375 -10.8398 C 30.2246 -10.8398 34.2773 -12.8418 39.1602 -18.5059 L 47.7539 -28.4668 L 56.2988 -18.5059 C 61.1816 -12.8418 65.2344 -10.8398 72.1191 -10.8398 L 79.4922 -10.8398 L 79.4922 -2.44141 C 79.4922 -0.244141 80.9082 1.12305 83.1543 1.12305 C 84.082 1.12305 85.1562 0.78125 85.8887 0.146484 L 100.488 -12.1094 C 102.246 -13.5742 102.246 -15.8203 100.488 -17.334 L 85.8887 -29.6875 C 85.1562 -30.2734 84.082 -30.6641 83.1543 -30.6641 C 80.9082 -30.6641 79.4922 -29.2969 79.4922 -27.0996 L 79.4922 -19.8242 L 72.4121 -19.8242 C 68.4082 -19.8242 65.9668 -21.0449 62.9395 -24.5605 L 53.6621 -35.3027 L 62.9395 -46.0449 C 65.9668 -49.6094 68.4082 -50.8301 72.4121 -50.8301 L 79.4922 -50.8301 L 79.4922 -43.3105 C 79.4922 -41.0645 80.9082 -39.6973 83.1543 -39.6973 C 84.082 -39.6973 85.1562 -40.0879 85.8887 -40.7227 L 100.488 -52.9785 C 102.246 -54.3945 102.246 -56.6406 100.488 -58.1543 L 85.8887 -70.5078 C 85.1562 -71.1426 84.082 -71.4844 83.1543 -71.4844 C 80.9082 -71.4844 79.4922 -70.1172 79.4922 -67.9199 L 79.4922 -59.8145 L 72.1191 -59.8145 C 65.2344 -59.8145 61.1816 -57.8125 56.2988 -52.1484 L 47.7539 -42.1875 L 39.1602 -52.1484 C 34.2773 -57.8125 30.2246 -59.8145 23.4375 -59.8145 L 14.6484 -59.8145 C 11.7188 -59.8145 9.76562 -58.0078 9.76562 -55.3223 C 9.76562 -52.6367 11.7188 -50.8301 14.6484 -50.8301 L 23.584 -50.8301 C 27.2461 -50.8301 29.541 -49.6094 32.6172 -46.0449 L 41.8457 -35.3027 L 32.6172 -24.5605 C 29.541 -21.0449 27.1973 -19.8242 23.584 -19.8242 L 14.6484 -19.8242 C 11.7188 -19.8242 9.76562 -17.9688 9.76562 -15.332 Z"/>
  </g>
  <g id="Light-S" transform="matrix(1 0 0 1 1099.35 696)">
   <path d="M 9.76562 -15.8203 C 9.76562 -13.5254 11.4258 -11.9141 13.916 -11.9141 L 22.6074 -11.9141 C 29.0527 -11.9141 32.9102 -13.8184 37.5977 -19.2871 L 46.1914 -29.3457 L 54.7852 -19.2871 C 59.4238 -13.8184 63.2812 -11.9141 69.7754 -11.9141 L 76.4648 -11.9141 L 76.4648 -3.36914 C 76.4648 -1.41602 77.7344 -0.146484 79.7363 -0.146484 C 80.6152 -0.146484 81.4941 -0.488281 82.1777 -1.07422 L 96.5332 -12.7441 C 98.2422 -14.1113 98.2422 -16.4062 96.5332 -17.8223 L 82.1777 -29.541 C 81.4941 -30.127 80.6152 -30.4199 79.7363 -30.4199 C 77.7344 -30.4199 76.4648 -29.1992 76.4648 -27.2461 L 76.4648 -19.6777 L 69.9219 -19.6777 C 65.9668 -19.6777 63.5254 -20.9961 60.3516 -24.707 L 51.2695 -35.3027 L 60.3516 -45.8984 C 63.5254 -49.6094 65.9668 -50.9277 69.9219 -50.9277 L 76.4648 -50.9277 L 76.4648 -43.1641 C 76.4648 -41.2109 77.7344 -39.9414 79.7363 -39.9414 C 80.6152 -39.9414 81.4941 -40.2832 82.1777 -40.8691 L 96.5332 -52.5391 C 98.2422 -53.9551 98.2422 -56.2012 96.5332 -57.6172 L 82.1777 -69.3359 C 81.4941 -69.9219 80.6152 -70.2637 79.7363 -70.2637 C 77.7344 -70.2637 76.4648 -68.9941 76.4648 -67.041 L 76.4648 -58.6914 L 69.7754 -58.6914 C 63.2812 -58.6914 59.4238 -56.7871 54.7852 -51.3184 L 46.1914 -41.2598 L 37.5977 -51.3184 C 32.9102 -56.7871 29.0527 -58.6426 22.6074 -58.6426 L 13.916 -58.6426 C 11.4258 -58.6426 9.76562 -57.0801 9.76562 -54.7852 C 9.76562 -52.4902 11.4746 -50.8789 13.916 -50.8789 L 22.8027 -50.8789 C 26.5137 -50.8789 28.8574 -49.6094 32.0312 -45.8984 L 41.0645 -35.3027 L 32.0312 -24.707 C 28.8086 -20.9961 26.4648 -19.7266 22.8027 -19.7266 L 13.916 -19.7266 C 11.4746 -19.7266 9.76562 -18.0664 9.76562 -15.8203 Z"/>
  </g>
  <g id="Thin-S" transform="matrix(1 0 0 1 805.25 696)">
   <path d="M 9.76562 -16.4551 C 9.76562 -14.6484 11.084 -13.3789 12.9883 -13.3789 L 21.4844 -13.3789 C 27.5391 -13.3789 31.1035 -15.1855 35.498 -20.3125 L 44.0918 -30.5176 L 52.7344 -20.3125 C 57.0801 -15.1367 60.6934 -13.3301 66.748 -13.3301 L 72.5098 -13.3301 L 72.5098 -4.54102 C 72.5098 -2.88086 73.584 -1.85547 75.2441 -1.85547 C 76.0254 -1.85547 76.6602 -2.09961 77.3438 -2.63672 L 91.3086 -13.5254 C 93.0176 -14.8438 92.9199 -17.1875 91.3086 -18.457 L 77.3438 -29.3457 C 76.6602 -29.8828 76.0254 -30.127 75.2441 -30.127 C 73.584 -30.127 72.5098 -29.1016 72.5098 -27.4414 L 72.5098 -19.5312 L 66.6016 -19.5312 C 62.793 -19.5312 60.3027 -20.8984 56.9336 -24.8535 L 48.1445 -35.2539 L 56.9336 -45.7031 C 60.3027 -49.6582 62.793 -51.0254 66.6016 -51.0254 L 72.5098 -51.0254 L 72.5098 -42.9688 C 72.5098 -41.3574 73.584 -40.2832 75.2441 -40.2832 C 76.0254 -40.2832 76.6602 -40.5273 77.3438 -41.0645 L 91.3086 -52.002 C 93.0176 -53.3203 92.9199 -55.6641 91.3086 -56.8848 L 77.3438 -67.8223 C 76.6602 -68.3594 76.0254 -68.6035 75.2441 -68.6035 C 73.584 -68.6035 72.5098 -67.5293 72.5098 -65.918 L 72.5098 -57.1777 L 66.748 -57.1777 C 60.6934 -57.1777 57.0801 -55.4199 52.7344 -50.2441 L 44.0918 -40.0391 L 35.498 -50.1953 C 31.1035 -55.3711 27.5391 -57.1777 21.4844 -57.1777 L 12.9883 -57.1777 C 11.084 -57.1777 9.76562 -55.9082 9.76562 -54.0527 C 9.76562 -52.3438 11.1328 -50.9766 12.9883 -50.9766 L 21.7773 -50.9766 C 25.4883 -50.9766 27.9297 -49.6094 31.2988 -45.6543 L 40.0391 -35.2539 L 31.2988 -24.9023 C 27.9297 -20.9473 25.4883 -19.5801 21.7773 -19.5801 L 12.9883 -19.5801 C 11.1328 -19.5801 9.76562 -18.2129 9.76562 -16.4551 Z"/>
  </g>
  <g id="Ultralight-S" transform="matrix(1 0 0 1 509.906 696)">
   <path d="M 9.76562 -16.7969 C 9.76562 -15.2344 10.8887 -14.1113 12.4512 -14.1113 L 20.9473 -14.1113 C 26.7578 -14.1113 30.1758 -15.8691 34.4238 -20.8496 L 43.0176 -31.1035 L 51.6602 -20.8496 C 55.9082 -15.8203 59.3262 -14.1113 65.1367 -14.1113 L 70.459 -14.1113 L 70.459 -5.12695 C 70.459 -3.66211 71.4355 -2.73438 72.9492 -2.73438 C 73.6328 -2.73438 74.2188 -2.92969 74.8535 -3.41797 L 88.6719 -13.9648 C 90.332 -15.2344 90.2344 -17.5781 88.6719 -18.75 L 74.8535 -29.248 C 74.2188 -29.7852 73.6328 -29.9805 72.9492 -29.9805 C 71.4355 -29.9805 70.459 -29.0039 70.459 -27.5391 L 70.459 -19.4336 L 64.8926 -19.4336 C 61.1328 -19.4336 58.6426 -20.8496 55.1758 -24.9512 L 46.5332 -35.2539 L 55.1758 -45.6055 C 58.6426 -49.6582 61.1328 -51.0742 64.8926 -51.0742 L 70.459 -51.0742 L 70.459 -42.8711 C 70.459 -41.4551 71.4355 -40.4785 72.9492 -40.4785 C 73.6328 -40.4785 74.2188 -40.6738 74.8535 -41.1621 L 88.6719 -51.709 C 90.332 -52.9785 90.2344 -55.3223 88.6719 -56.543 L 74.8535 -67.041 C 74.2188 -67.5293 73.6328 -67.7246 72.9492 -67.7246 C 71.4355 -67.7246 70.459 -66.7969 70.459 -65.332 L 70.459 -56.4453 L 65.1367 -56.4453 C 59.3262 -56.4453 55.9082 -54.6875 51.6602 -49.707 L 43.0176 -39.4043 L 34.4238 -49.6582 C 30.1758 -54.6387 26.7578 -56.3965 20.9473 -56.3965 L 12.4512 -56.3965 C 10.8887 -56.3965 9.76562 -55.2734 9.76562 -53.7109 C 9.76562 -52.1973 10.9863 -51.0254 12.4512 -51.0254 L 21.2402 -51.0254 C 24.9512 -51.0254 27.4414 -49.6094 30.9082 -45.5566 L 39.5508 -35.2539 L 30.9082 -25 C 27.4414 -20.8984 24.9512 -19.4824 21.2402 -19.4824 L 12.4512 -19.4824 C 10.9863 -19.4824 9.76562 -18.3105 9.76562 -16.7969 Z"/>
  </g>
 </g>
</svg>
