<?xml version="1.0" encoding="UTF-8"?>
<!--Generator: Apple Native CoreSVG 149-->
<!DOCTYPE svg
PUBLIC "-//W3C//DTD SVG 1.1//EN"
       "http://www.w3.org/Graphics/SVG/1.1/DTD/svg11.dtd">
<svg version="1.1" xmlns="http://www.w3.org/2000/svg" xmlns:xlink="http://www.w3.org/1999/xlink" width="3300" height="2200">
 <!--glyph: "uni1006F6.medium", point size: 100.000000, font version: "Version 16.0d12e3", template writer version: "8"-->
 <g id="Notes">
  <rect height="2200" id="artboard" style="fill:white;opacity:1" width="3300" x="0" y="0"/>
  <line id="" style="fill:none;stroke:black;opacity:1;stroke-width:0.5;" x1="263" x2="3036" y1="292" y2="292"/>
  <text style="stroke:none;fill:black;font-family:-apple-system,&quot;SF Pro Display&quot;,&quot;SF Pro Text&quot;,Helvetica,sans-serif;font-weight:bold;" transform="matrix(1 0 0 1 263 322)">Weight/Scale Variations</text>
  <text style="stroke:none;fill:black;font-family:-apple-system,&quot;SF Pro Display&quot;,&quot;SF Pro Text&quot;,Helvetica,sans-serif;text-anchor:middle;" transform="matrix(1 0 0 1 559.711 322)">Ultralight</text>
  <text style="stroke:none;fill:black;font-family:-apple-system,&quot;SF Pro Display&quot;,&quot;SF Pro Text&quot;,Helvetica,sans-serif;text-anchor:middle;" transform="matrix(1 0 0 1 856.422 322)">Thin</text>
  <text style="stroke:none;fill:black;font-family:-apple-system,&quot;SF Pro Display&quot;,&quot;SF Pro Text&quot;,Helvetica,sans-serif;text-anchor:middle;" transform="matrix(1 0 0 1 1153.13 322)">Light</text>
  <text style="stroke:none;fill:black;font-family:-apple-system,&quot;SF Pro Display&quot;,&quot;SF Pro Text&quot;,Helvetica,sans-serif;text-anchor:middle;" transform="matrix(1 0 0 1 1449.84 322)">Regular</text>
  <text style="stroke:none;fill:black;font-family:-apple-system,&quot;SF Pro Display&quot;,&quot;SF Pro Text&quot;,Helvetica,sans-serif;text-anchor:middle;" transform="matrix(1 0 0 1 1746.56 322)">Medium</text>
  <text style="stroke:none;fill:black;font-family:-apple-system,&quot;SF Pro Display&quot;,&quot;SF Pro Text&quot;,Helvetica,sans-serif;text-anchor:middle;" transform="matrix(1 0 0 1 2043.27 322)">Semibold</text>
  <text style="stroke:none;fill:black;font-family:-apple-system,&quot;SF Pro Display&quot;,&quot;SF Pro Text&quot;,Helvetica,sans-serif;text-anchor:middle;" transform="matrix(1 0 0 1 2339.98 322)">Bold</text>
  <text style="stroke:none;fill:black;font-family:-apple-system,&quot;SF Pro Display&quot;,&quot;SF Pro Text&quot;,Helvetica,sans-serif;text-anchor:middle;" transform="matrix(1 0 0 1 2636.69 322)">Heavy</text>
  <text style="stroke:none;fill:black;font-family:-apple-system,&quot;SF Pro Display&quot;,&quot;SF Pro Text&quot;,Helvetica,sans-serif;text-anchor:middle;" transform="matrix(1 0 0 1 2933.4 322)">Black</text>
  <line id="" style="fill:none;stroke:black;opacity:1;stroke-width:0.5;" x1="263" x2="3036" y1="1903" y2="1903"/>
  <g id="" transform="matrix(1 0 0 1 263 1933)">
   <path d="M9.24805 0.830078C13.5547 0.830078 17.1387-2.74414 17.1387-7.05078C17.1387-11.3574 13.5449-14.9316 9.23828-14.9316C4.94141-14.9316 1.36719-11.3574 1.36719-7.05078C1.36719-2.74414 4.95117 0.830078 9.24805 0.830078ZM9.24805-0.654297C5.70312-0.654297 2.87109-3.49609 2.87109-7.05078C2.87109-10.6055 5.69336-13.4473 9.23828-13.4473C12.793-13.4473 15.6348-10.6055 15.6445-7.05078C15.6543-3.49609 12.8027-0.654297 9.24805-0.654297ZM9.22852-3.62305C9.69727-3.62305 9.9707-3.93555 9.9707-4.45312L9.9707-6.31836L12.002-6.31836C12.5-6.31836 12.832-6.57227 12.832-7.04102C12.832-7.51953 12.5195-7.7832 12.002-7.7832L9.9707-7.7832L9.9707-9.81445C9.9707-10.332 9.69727-10.6543 9.22852-10.6543C8.75977-10.6543 8.50586-10.3125 8.50586-9.81445L8.50586-7.7832L6.49414-7.7832C5.97656-7.7832 5.64453-7.51953 5.64453-7.04102C5.64453-6.57227 5.99609-6.31836 6.49414-6.31836L8.50586-6.31836L8.50586-4.45312C8.50586-3.95508 8.75977-3.62305 9.22852-3.62305Z"/>
  </g>
  <g id="" transform="matrix(1 0 0 1 281.506 1933)">
   <path d="M11.709 2.91016C17.1582 2.91016 21.6699-1.61133 21.6699-7.05078C21.6699-12.5 17.1484-17.0117 11.6992-17.0117C6.25977-17.0117 1.74805-12.5 1.74805-7.05078C1.74805-1.61133 6.26953 2.91016 11.709 2.91016ZM11.709 1.25C7.09961 1.25 3.41797-2.44141 3.41797-7.05078C3.41797-11.6602 7.08984-15.3516 11.6992-15.3516C16.3086-15.3516 20-11.6602 20.0098-7.05078C20.0195-2.44141 16.3184 1.25 11.709 1.25ZM11.6797-2.66602C12.207-2.66602 12.5098-3.01758 12.5098-3.59375L12.5098-6.23047L15.3223-6.23047C15.8691-6.23047 16.25-6.51367 16.25-7.03125C16.25-7.55859 15.8887-7.86133 15.3223-7.86133L12.5098-7.86133L12.5098-10.6836C12.5098-11.25 12.207-11.6113 11.6797-11.6113C11.1621-11.6113 10.8789-11.2305 10.8789-10.6836L10.8789-7.86133L8.07617-7.86133C7.50977-7.86133 7.13867-7.55859 7.13867-7.03125C7.13867-6.51367 7.5293-6.23047 8.07617-6.23047L10.8789-6.23047L10.8789-3.59375C10.8789-3.03711 11.1621-2.66602 11.6797-2.66602Z"/>
  </g>
  <g id="" transform="matrix(1 0 0 1 304.924 1933)">
   <path d="M14.9707 5.66406C21.9336 5.66406 27.6953-0.0976562 27.6953-7.05078C27.6953-14.0137 21.9238-19.7754 14.9609-19.7754C8.00781-19.7754 2.25586-14.0137 2.25586-7.05078C2.25586-0.0976562 8.01758 5.66406 14.9707 5.66406ZM14.9707 3.84766C8.93555 3.84766 4.08203-1.01562 4.08203-7.05078C4.08203-13.0957 8.92578-17.9492 14.9609-17.9492C21.0059-17.9492 25.8594-13.0957 25.8691-7.05078C25.8789-1.01562 21.0156 3.84766 14.9707 3.84766ZM14.9414-1.38672C15.5176-1.38672 15.8594-1.77734 15.8594-2.38281L15.8594-6.13281L19.7754-6.13281C20.3711-6.13281 20.7812-6.46484 20.7812-7.02148C20.7812-7.59766 20.3906-7.93945 19.7754-7.93945L15.8594-7.93945L15.8594-11.8652C15.8594-12.4805 15.5176-12.8711 14.9414-12.8711C14.375-12.8711 14.0527-12.4609 14.0527-11.8652L14.0527-7.93945L10.1465-7.93945C9.53125-7.93945 9.13086-7.59766 9.13086-7.02148C9.13086-6.46484 9.55078-6.13281 10.1465-6.13281L14.0527-6.13281L14.0527-2.38281C14.0527-1.79688 14.375-1.38672 14.9414-1.38672Z"/>
  </g>
  <text style="stroke:none;fill:black;font-family:-apple-system,&quot;SF Pro Display&quot;,&quot;SF Pro Text&quot;,Helvetica,sans-serif;font-weight:bold;" transform="matrix(1 0 0 1 263 1953)">Design Variations</text>
  <text style="stroke:none;fill:black;font-family:-apple-system,&quot;SF Pro Display&quot;,&quot;SF Pro Text&quot;,Helvetica,sans-serif;" transform="matrix(1 0 0 1 263 1971)">Symbols are supported in up to nine weights and three scales.</text>
  <text style="stroke:none;fill:black;font-family:-apple-system,&quot;SF Pro Display&quot;,&quot;SF Pro Text&quot;,Helvetica,sans-serif;" transform="matrix(1 0 0 1 263 1989)">For optimal layout with text and other symbols, vertically align</text>
  <text style="stroke:none;fill:black;font-family:-apple-system,&quot;SF Pro Display&quot;,&quot;SF Pro Text&quot;,Helvetica,sans-serif;" transform="matrix(1 0 0 1 263 2007)">symbols with the adjacent text.</text>
  <line id="" style="fill:none;stroke:#00AEEF;stroke-width:0.5;opacity:1.0;" x1="776" x2="776" y1="1919" y2="1933"/>
  <g id="" transform="matrix(1 0 0 1 776 1933)">
   <path d="M3.31055 0.126953C3.82812 0.126953 4.08203-0.0683594 4.26758-0.605469L5.52734-4.0625L11.2891-4.0625L12.5488-0.605469C12.7344-0.0683594 12.9883 0.126953 13.4961 0.126953C14.0137 0.126953 14.3457-0.185547 14.3457-0.673828C14.3457-0.839844 14.3164-0.986328 14.2383-1.20117L9.6582-13.3887C9.43359-13.9941 9.0332-14.2871 8.4082-14.2871C7.80273-14.2871 7.39258-13.9941 7.17773-13.3984L2.59766-1.19141C2.51953-0.976562 2.49023-0.830078 2.49023-0.664062C2.49023-0.175781 2.80273 0.126953 3.31055 0.126953ZM6.00586-5.53711L8.37891-12.1094L8.42773-12.1094L10.8008-5.53711Z"/>
  </g>
  <line id="" style="fill:none;stroke:#00AEEF;stroke-width:0.5;opacity:1.0;" x1="792.836" x2="792.836" y1="1919" y2="1933"/>
  <text style="stroke:none;fill:black;font-family:-apple-system,&quot;SF Pro Display&quot;,&quot;SF Pro Text&quot;,Helvetica,sans-serif;font-weight:bold;" transform="matrix(1 0 0 1 776 1953)">Margins</text>
  <text style="stroke:none;fill:black;font-family:-apple-system,&quot;SF Pro Display&quot;,&quot;SF Pro Text&quot;,Helvetica,sans-serif;" transform="matrix(1 0 0 1 776 1971)">Leading and trailing margins on the left and right side of each symbol</text>
  <text style="stroke:none;fill:black;font-family:-apple-system,&quot;SF Pro Display&quot;,&quot;SF Pro Text&quot;,Helvetica,sans-serif;" transform="matrix(1 0 0 1 776 1989)">can be adjusted by modifying the x-location of the margin guidelines.</text>
  <text style="stroke:none;fill:black;font-family:-apple-system,&quot;SF Pro Display&quot;,&quot;SF Pro Text&quot;,Helvetica,sans-serif;" transform="matrix(1 0 0 1 776 2007)">Modifications are automatically applied proportionally to all</text>
  <text style="stroke:none;fill:black;font-family:-apple-system,&quot;SF Pro Display&quot;,&quot;SF Pro Text&quot;,Helvetica,sans-serif;" transform="matrix(1 0 0 1 776 2025)">scales and weights.</text>
  <g id="" transform="matrix(1 0 0 1 1289 1933)">
   <path d="M2.8418 1.86523L4.54102 3.57422C5.40039 4.44336 6.38672 4.38477 7.31445 3.35938L17.4902-7.85156C17.7539-7.76367 18.0273-7.7832 18.3398-7.8418L19.4043-8.03711L20.0684-7.36328L20.0293-6.80664C19.9902-6.30859 20.1172-5.92773 20.6055-5.44922L21.3672-4.70703C21.8457-4.22852 22.4609-4.19922 22.9297-4.66797L25.8398-7.58789C26.3086-8.05664 26.2891-8.65234 25.8105-9.13086L25.0391-9.89258C24.5605-10.3711 24.1895-10.5273 23.7109-10.4883L23.1348-10.4395L22.4902-11.0742L22.7344-12.1973C22.8613-12.7637 22.7051-13.2031 22.1191-13.7891L19.9219-15.9766C16.582-19.2969 12.1484-19.2188 9.25781-16.3281C8.83789-15.918 8.80859-15.3418 9.04297-14.9512C9.27734-14.5898 9.73633-14.3555 10.3809-14.5215C11.8457-14.8633 13.3691-14.9219 14.7949-13.9844L14.209-12.5293C14.0137-12.0508 13.9844-11.6504 14.1113-11.2891L3.04688-0.898438C2.06055 0.0195312 1.98242 0.996094 2.8418 1.86523ZM10.752-15.957C13.1836-17.7344 16.4746-17.4316 18.7012-15.2051L21.1328-12.793C21.3672-12.5586 21.4062-12.373 21.3379-12.0312L21.0156-10.5469L22.5195-9.0625L23.5059-9.12109C23.7598-9.13086 23.8379-9.11133 24.0332-8.91602L24.6094-8.33984L22.168-5.89844L21.5918-6.47461C21.3965-6.66992 21.3672-6.74805 21.377-7.01172L21.4453-7.98828L19.9512-9.47266L18.4277-9.21875C18.1055-9.15039 17.959-9.17969 17.7148-9.41406L15.7129-11.416C15.459-11.6504 15.4297-11.8164 15.5859-12.1875L16.4648-14.2773C14.9023-15.7324 12.8711-16.3574 10.8398-15.7617C10.6836-15.7227 10.625-15.8496 10.752-15.957ZM5.27344 2.30469L4.10156 1.14258C3.63281 0.683594 3.74023 0.341797 4.14062-0.0195312L14.9512-10.1953L16.416-8.71094L6.42578 2.27539C6.07422 2.67578 5.74219 2.77344 5.27344 2.30469Z"/>
  </g>
  <text style="stroke:none;fill:black;font-family:-apple-system,&quot;SF Pro Display&quot;,&quot;SF Pro Text&quot;,Helvetica,sans-serif;font-weight:bold;" transform="matrix(1 0 0 1 1289 1953)">Exporting</text>
  <text style="stroke:none;fill:black;font-family:-apple-system,&quot;SF Pro Display&quot;,&quot;SF Pro Text&quot;,Helvetica,sans-serif;" transform="matrix(1 0 0 1 1289 1971)">Symbols should be outlined when exporting to ensure the</text>
  <text style="stroke:none;fill:black;font-family:-apple-system,&quot;SF Pro Display&quot;,&quot;SF Pro Text&quot;,Helvetica,sans-serif;" transform="matrix(1 0 0 1 1289 1989)">design is preserved when submitting to Xcode.</text>
  <text id="template-version" style="stroke:none;fill:black;font-family:-apple-system,&quot;SF Pro Display&quot;,&quot;SF Pro Text&quot;,Helvetica,sans-serif;text-anchor:end;" transform="matrix(1 0 0 1 3036 1933)">Template v.2.0</text>
  <text style="stroke:none;fill:black;font-family:-apple-system,&quot;SF Pro Display&quot;,&quot;SF Pro Text&quot;,Helvetica,sans-serif;text-anchor:end;" transform="matrix(1 0 0 1 3036 1951)">Requires Xcode 12 or greater</text>
  <text style="stroke:none;fill:black;font-family:-apple-system,&quot;SF Pro Display&quot;,&quot;SF Pro Text&quot;,Helvetica,sans-serif;text-anchor:end;" transform="matrix(1 0 0 1 3036 1969)">Generated from stop</text>
  <text style="stroke:none;fill:black;font-family:-apple-system,&quot;SF Pro Display&quot;,&quot;SF Pro Text&quot;,Helvetica,sans-serif;text-anchor:end;" transform="matrix(1 0 0 1 3036 1987)">Typeset at 100 points</text>
  <text style="stroke:none;fill:black;font-family:-apple-system,&quot;SF Pro Display&quot;,&quot;SF Pro Text&quot;,Helvetica,sans-serif;" transform="matrix(1 0 0 1 263 726)">Small</text>
  <text style="stroke:none;fill:black;font-family:-apple-system,&quot;SF Pro Display&quot;,&quot;SF Pro Text&quot;,Helvetica,sans-serif;" transform="matrix(1 0 0 1 263 1156)">Medium</text>
  <text style="stroke:none;fill:black;font-family:-apple-system,&quot;SF Pro Display&quot;,&quot;SF Pro Text&quot;,Helvetica,sans-serif;" transform="matrix(1 0 0 1 263 1586)">Large</text>
 </g>
 <g id="Guides">
  <g id="H-reference" style="fill:#27AAE1;stroke:none;" transform="matrix(1 0 0 1 339 696)">
   <path d="M0.976562 0L3.66211 0L12.9883-24.4629L45.752-24.4629L55.127 0L57.7637 0L30.6152-70.459L28.125-70.459ZM29.3457-67.1387L29.4434-67.1387L44.873-26.709L13.8672-26.709Z"/>
  </g>
  <line id="Baseline-S" style="fill:none;stroke:#27AAE1;opacity:1;stroke-width:0.5;" x1="263" x2="3036" y1="696" y2="696"/>
  <line id="Capline-S" style="fill:none;stroke:#27AAE1;opacity:1;stroke-width:0.5;" x1="263" x2="3036" y1="625.541" y2="625.541"/>
  <g id="H-reference" style="fill:#27AAE1;stroke:none;" transform="matrix(1 0 0 1 339 1126)">
   <path d="M0.976562 0L3.66211 0L12.9883-24.4629L45.752-24.4629L55.127 0L57.7637 0L30.6152-70.459L28.125-70.459ZM29.3457-67.1387L29.4434-67.1387L44.873-26.709L13.8672-26.709Z"/>
  </g>
  <line id="Baseline-M" style="fill:none;stroke:#27AAE1;opacity:1;stroke-width:0.5;" x1="263" x2="3036" y1="1126" y2="1126"/>
  <line id="Capline-M" style="fill:none;stroke:#27AAE1;opacity:1;stroke-width:0.5;" x1="263" x2="3036" y1="1055.54" y2="1055.54"/>
  <g id="H-reference" style="fill:#27AAE1;stroke:none;" transform="matrix(1 0 0 1 339 1556)">
   <path d="M0.976562 0L3.66211 0L12.9883-24.4629L45.752-24.4629L55.127 0L57.7637 0L30.6152-70.459L28.125-70.459ZM29.3457-67.1387L29.4434-67.1387L44.873-26.709L13.8672-26.709Z"/>
  </g>
  <line id="Baseline-L" style="fill:none;stroke:#27AAE1;opacity:1;stroke-width:0.5;" x1="263" x2="3036" y1="1556" y2="1556"/>
  <line id="Capline-L" style="fill:none;stroke:#27AAE1;opacity:1;stroke-width:0.5;" x1="263" x2="3036" y1="1485.54" y2="1485.54"/>
  <line id="left-margin" style="fill:none;stroke:#00AEEF;stroke-width:0.5;opacity:1.0;" x1="1397.62" x2="1397.62" y1="1030.79" y2="1150.12"/>
  <line id="right-margin" style="fill:none;stroke:#00AEEF;stroke-width:0.5;opacity:1.0;" x1="1502.07" x2="1502.07" y1="1030.79" y2="1150.12"/>
 </g>
 <g id="Symbols">
  <g id="Black-L" transform="matrix(1 0 0 1 2861.35 1556)">
   <path d="M16.0645 2.83203C16.0645 13.8184 23.0469 20.752 34.668 20.752L109.424 20.752C121.045 20.752 128.027 13.8184 128.027 2.83203L128.027-73.3398C128.027-84.2773 121.045-91.2109 109.424-91.2109L34.668-91.2109C23.0469-91.2109 16.0645-84.2773 16.0645-73.3398ZM36.3281-4.58984L36.3281-65.8203C36.3281-69.3359 38.3301-71.3867 41.7969-71.3867L103.174-71.3867C106.641-71.3867 108.643-69.3359 108.643-65.8203L108.643-4.58984C108.643-1.07422 106.641 0.976562 103.174 0.976562L41.7969 0.976562C38.3301 0.976562 36.3281-1.07422 36.3281-4.58984Z"/>
  </g>
  <g id="Heavy-L" transform="matrix(1 0 0 1 2565.91 1556)">
   <path d="M16.0645 2.68555C16.0645 13.0371 22.5586 19.4824 33.4473 19.4824L108.105 19.4824C118.994 19.4824 125.488 13.0371 125.488 2.68555L125.488-73.1934C125.488-83.4961 118.994-89.9414 108.105-89.9414L33.4473-89.9414C22.5586-89.9414 16.0645-83.4961 16.0645-73.1934ZM33.5938-3.4668L33.5938-66.9922C33.5938-70.6055 35.6934-72.7539 39.3066-72.7539L102.93-72.7539C106.543-72.7539 108.643-70.6055 108.643-66.9922L108.643-3.4668C108.643 0.195312 106.543 2.29492 102.93 2.29492L39.3066 2.29492C35.6934 2.29492 33.5938 0.195312 33.5938-3.4668Z"/>
  </g>
  <g id="Bold-L" transform="matrix(1 0 0 1 2270.62 1556)">
   <path d="M16.0645 2.49023C16.0645 12.1094 22.0215 18.0176 32.0801 18.0176L106.641 18.0176C116.65 18.0176 122.656 12.1094 122.656 2.49023L122.656-72.998C122.656-82.6172 116.65-88.5254 106.641-88.5254L32.0801-88.5254C22.0215-88.5254 16.0645-82.6172 16.0645-72.998ZM30.5176-2.19727L30.5176-68.3105C30.5176-72.0703 32.7148-74.3164 36.4746-74.3164L102.686-74.3164C106.445-74.3164 108.643-72.0703 108.643-68.3105L108.643-2.19727C108.643 1.5625 106.445 3.80859 102.686 3.80859L36.4746 3.80859C32.7148 3.80859 30.5176 1.5625 30.5176-2.19727Z"/>
  </g>
  <g id="Semibold-L" transform="matrix(1 0 0 1 1974.88 1556)">
   <path d="M16.0645 2.34375C16.0645 11.5234 21.6797 17.041 31.1035 17.041L105.615 17.041C115.088 17.041 120.703 11.5234 120.703 2.34375L120.703-72.9004C120.703-82.0312 115.088-87.5488 105.615-87.5488L31.1035-87.5488C21.6797-87.5488 16.0645-82.0312 16.0645-72.9004ZM28.418-1.31836L28.418-69.1895C28.418-73.0469 30.6641-75.3418 34.5215-75.3418L102.539-75.3418C106.348-75.3418 108.643-73.0469 108.643-69.1895L108.643-1.31836C108.643 2.53906 106.348 4.88281 102.539 4.88281L34.5215 4.88281C30.6641 4.88281 28.418 2.53906 28.418-1.31836Z"/>
  </g>
  <g id="Medium-L" transform="matrix(1 0 0 1 1678.93 1556)">
   <path d="M16.0645 2.29492C16.0645 11.0352 21.3867 16.3086 30.3711 16.3086L104.883 16.3086C113.867 16.3086 119.189 11.0352 119.189 2.29492L119.189-72.8027C119.189-81.5918 113.867-86.8164 104.883-86.8164L30.3711-86.8164C21.3867-86.8164 16.0645-81.5918 16.0645-72.8027ZM26.8066-0.634766L26.8066-69.873C26.8066-73.8281 29.1016-76.1719 33.0078-76.1719L102.393-76.1719C106.299-76.1719 108.643-73.8281 108.643-69.873L108.643-0.634766C108.643 3.27148 106.299 5.66406 102.393 5.66406L33.0078 5.66406C29.1016 5.66406 26.8066 3.27148 26.8066-0.634766Z"/>
  </g>
  <g id="Regular-L" transform="matrix(1 0 0 1 1383.19 1556)">
   <path d="M16.0645 2.14844C16.0645 10.4492 21.0449 15.332 29.4434 15.332L103.857 15.332C112.305 15.332 117.236 10.4492 117.236 2.14844L117.236-72.7051C117.236-81.0059 112.305-85.8887 103.857-85.8887L29.4434-85.8887C21.0449-85.8887 16.0645-81.0059 16.0645-72.7051ZM24.707 0.195312L24.707-70.752C24.707-74.8047 27.0996-77.1973 31.1035-77.1973L102.246-77.1973C106.25-77.1973 108.594-74.8047 108.594-70.752L108.594 0.195312C108.594 4.24805 106.25 6.68945 102.246 6.68945L31.1035 6.68945C27.0996 6.68945 24.707 4.24805 24.707 0.195312Z"/>
  </g>
  <g id="Light-L" transform="matrix(1 0 0 1 1087.46 1556)">
   <path d="M16.0645 2.09961C16.0645 9.81445 20.6543 14.3066 28.418 14.3066L102.93 14.3066C110.693 14.3066 115.283 9.81445 115.283 2.09961L115.283-72.6562C115.283-80.3223 110.693-84.8633 102.93-84.8633L28.418-84.8633C20.6543-84.8633 16.0645-80.3223 16.0645-72.6562ZM22.7051 0.830078L22.7051-71.3867C22.7051-75.6836 25.1953-78.2715 29.4922-78.2715L101.807-78.2715C106.104-78.2715 108.643-75.6836 108.643-71.3867L108.643 0.830078C108.643 5.12695 106.104 7.71484 101.807 7.71484L29.4922 7.71484C25.1953 7.71484 22.7051 5.12695 22.7051 0.830078Z"/>
  </g>
  <g id="Thin-L" transform="matrix(1 0 0 1 792.067 1556)">
   <path d="M16.0645 2.05078C16.0645 8.93555 20.1172 12.9883 27.0508 12.9883L101.66 12.9883C108.545 12.9883 112.646 8.93555 112.646 2.05078L112.646-72.6074C112.646-79.4922 108.545-83.5449 101.66-83.5449L27.0508-83.5449C20.1172-83.5449 16.0645-79.4922 16.0645-72.6074ZM19.9707 1.66016L19.9707-72.2168C19.9707-76.8555 22.7539-79.6387 27.3926-79.6387L101.27-79.6387C105.957-79.6387 108.691-76.8555 108.691-72.2168L108.691 1.66016C108.691 6.29883 105.957 9.08203 101.27 9.08203L27.3926 9.08203C22.7539 9.08203 19.9707 6.29883 19.9707 1.66016Z"/>
  </g>
  <g id="Ultralight-L" transform="matrix(1 0 0 1 496.039 1556)">
   <path d="M16.0645 2.05078C16.0645 8.49609 19.873 12.3535 26.3184 12.3535L100.977 12.3535C107.471 12.3535 111.279 8.49609 111.279 2.05078L111.279-72.5586C111.279-79.0527 107.471-82.8613 100.977-82.8613L26.3184-82.8613C19.873-82.8613 16.0645-79.0527 16.0645-72.5586ZM18.6035 2.09961L18.6035-72.6074C18.6035-77.4414 21.4844-80.3223 26.3184-80.3223L101.025-80.3223C105.859-80.3223 108.74-77.4414 108.74-72.6074L108.74 2.09961C108.74 6.93359 105.859 9.76562 101.025 9.76562L26.3184 9.76562C21.4844 9.76562 18.6035 6.93359 18.6035 2.09961Z"/>
  </g>
  <g id="Black-M" transform="matrix(1 0 0 1 2876.39 1126)">
   <path d="M12.4512-5.51758C12.4512 3.51562 18.2617 9.32617 27.9785 9.32617L86.0352 9.32617C95.752 9.32617 101.562 3.51562 101.562-5.51758L101.562-64.9414C101.562-73.9746 95.752-79.7852 86.0352-79.7852L27.9785-79.7852C18.2617-79.7852 12.4512-73.9746 12.4512-64.9414ZM30.7617-12.6953L30.7617-57.7148C30.7617-60.4004 32.2754-61.9629 34.9609-61.9629L80.0293-61.9629C82.7148-61.9629 84.2285-60.4004 84.2285-57.7148L84.2285-12.6953C84.2285-10.0098 82.7148-8.44727 80.0293-8.44727L34.9609-8.44727C32.2754-8.44727 30.7617-10.0098 30.7617-12.6953Z"/>
  </g>
  <g id="Heavy-M" transform="matrix(1 0 0 1 2580.81 1126)">
   <path d="M12.4512-5.66406C12.4512 2.7832 17.8711 8.20312 26.9043 8.20312L84.8633 8.20312C93.8965 8.20312 99.3164 2.7832 99.3164-5.66406L99.3164-64.7949C99.3164-73.291 93.8965-78.6621 84.8633-78.6621L26.9043-78.6621C17.8711-78.6621 12.4512-73.291 12.4512-64.7949ZM28.2715-11.6211L28.2715-58.8379C28.2715-61.5723 29.8828-63.1836 32.6172-63.1836L79.8828-63.1836C82.6172-63.1836 84.2285-61.5723 84.2285-58.8379L84.2285-11.6211C84.2285-8.83789 82.6172-7.22656 79.8828-7.22656L32.6172-7.22656C29.8828-7.22656 28.2715-8.83789 28.2715-11.6211Z"/>
  </g>
  <g id="Bold-M" transform="matrix(1 0 0 1 2285.36 1126)">
   <path d="M12.4512-5.85938C12.4512 2.00195 17.3828 6.93359 25.6836 6.93359L83.5449 6.93359C91.8457 6.93359 96.7773 2.00195 96.7773-5.85938L96.7773-64.5996C96.7773-72.5098 91.8457-77.4414 83.5449-77.4414L25.6836-77.4414C17.3828-77.4414 12.4512-72.5098 12.4512-64.5996ZM25.5371-10.4004L25.5371-60.0586C25.5371-62.8906 27.1973-64.5508 29.9805-64.5508L79.7363-64.5508C82.5684-64.5508 84.1797-62.8906 84.1797-60.0586L84.1797-10.4004C84.1797-7.56836 82.5684-5.9082 79.7363-5.9082L29.9805-5.9082C27.1973-5.9082 25.5371-7.56836 25.5371-10.4004Z"/>
  </g>
  <g id="Semibold-M" transform="matrix(1 0 0 1 1989.51 1126)">
   <path d="M12.4512-6.00586C12.4512 1.46484 17.0898 6.05469 24.8535 6.05469L82.6172 6.05469C90.4297 6.05469 95.0684 1.46484 95.0684-6.00586L95.0684-64.502C95.0684-71.9727 90.4297-76.5625 82.6172-76.5625L24.8535-76.5625C17.0898-76.5625 12.4512-71.9727 12.4512-64.502ZM23.6328-9.57031L23.6328-60.8887C23.6328-63.8184 25.293-65.5273 28.1738-65.5273L79.6387-65.5273C82.5195-65.5273 84.1797-63.8184 84.1797-60.8887L84.1797-9.57031C84.1797-6.68945 82.5195-4.98047 79.6387-4.98047L28.1738-4.98047C25.293-4.98047 23.6328-6.68945 23.6328-9.57031Z"/>
  </g>
  <g id="Medium-M" transform="matrix(1 0 0 1 1693.45 1126)">
   <path d="M12.4512-6.10352C12.4512 1.07422 16.8457 5.37109 24.2188 5.37109L81.9336 5.37109C89.3555 5.37109 93.75 1.07422 93.75-6.10352L93.75-64.4043C93.75-71.582 89.3555-75.8789 81.9336-75.8789L24.2188-75.8789C16.8457-75.8789 12.4512-71.582 12.4512-64.4043ZM22.168-8.93555L22.168-61.5723C22.168-64.502 23.877-66.2598 26.8066-66.2598L79.541-66.2598C82.4707-66.2598 84.1797-64.502 84.1797-61.5723L84.1797-8.93555C84.1797-6.00586 82.4707-4.24805 79.541-4.24805L26.8066-4.24805C23.877-4.24805 22.168-6.00586 22.168-8.93555Z"/>
  </g>
  <g id="Regular-M" transform="matrix(1 0 0 1 1397.62 1126)">
   <path d="M12.4512-6.25C12.4512 0.537109 16.5527 4.54102 23.3887 4.54102L81.0547 4.54102C87.9395 4.54102 91.9922 0.537109 91.9922-6.25L91.9922-64.2578C91.9922-71.0449 87.9395-75.0488 81.0547-75.0488L23.3887-75.0488C16.5527-75.0488 12.4512-71.0449 12.4512-64.2578ZM20.3125-8.10547L20.3125-62.4023C20.3125-65.3809 22.0703-67.1875 25-67.1875L79.4434-67.1875C82.4219-67.1875 84.1309-65.3809 84.1309-62.4023L84.1309-8.10547C84.1309-5.12695 82.4219-3.32031 79.4434-3.32031L25-3.32031C22.0703-3.32031 20.3125-5.12695 20.3125-8.10547Z"/>
  </g>
  <g id="Light-M" transform="matrix(1 0 0 1 1101.79 1126)">
   <path d="M12.4512-6.29883C12.4512-0.0488281 16.1621 3.61328 22.4609 3.61328L80.1758 3.61328C86.4746 3.61328 90.2344-0.0488281 90.2344-6.29883L90.2344-64.2578C90.2344-70.459 86.4746-74.1699 80.1758-74.1699L22.4609-74.1699C16.1621-74.1699 12.4512-70.459 12.4512-64.2578ZM18.5059-7.56836L18.5059-62.9395C18.5059-66.1621 20.3613-68.1152 23.584-68.1152L79.1016-68.1152C82.2754-68.1152 84.1797-66.1621 84.1797-62.9395L84.1797-7.56836C84.1797-4.3457 82.2754-2.39258 79.1016-2.39258L23.584-2.39258C20.3613-2.39258 18.5059-4.3457 18.5059-7.56836Z"/>
  </g>
  <g id="Thin-M" transform="matrix(1 0 0 1 806.276 1126)">
   <path d="M12.4512-6.29883C12.4512-0.830078 15.7227 2.44141 21.2402 2.44141L79.0527 2.44141C84.5703 2.44141 87.8418-0.830078 87.8418-6.29883L87.8418-64.209C87.8418-69.7266 84.5703-72.9492 79.0527-72.9492L21.2402-72.9492C15.7227-72.9492 12.4512-69.7266 12.4512-64.209ZM16.0645-6.83594L16.0645-63.7207C16.0645-67.2363 18.1641-69.3359 21.6797-69.3359L78.6133-69.3359C82.1289-69.3359 84.2285-67.2363 84.2285-63.7207L84.2285-6.83594C84.2285-3.27148 82.1289-1.17188 78.6133-1.17188L21.6797-1.17188C18.1641-1.17188 16.0645-3.27148 16.0645-6.83594Z"/>
  </g>
  <g id="Ultralight-M" transform="matrix(1 0 0 1 510.175 1126)">
   <path d="M12.4512-6.34766C12.4512-1.2207 15.4785 1.85547 20.6055 1.85547L78.4668 1.85547C83.5938 1.85547 86.6211-1.2207 86.6211-6.34766L86.6211-64.1602C86.6211-69.3359 83.5938-72.3633 78.4668-72.3633L20.6055-72.3633C15.4785-72.3633 12.4512-69.3359 12.4512-64.1602ZM14.8438-6.44531L14.8438-64.0625C14.8438-67.7734 17.041-69.9707 20.7031-69.9707L78.3691-69.9707C82.0801-69.9707 84.2285-67.7734 84.2285-64.0625L84.2285-6.44531C84.2285-2.73438 82.0801-0.537109 78.3691-0.537109L20.7031-0.537109C17.041-0.537109 14.8438-2.73438 14.8438-6.44531Z"/>
  </g>
  <g id="Black-S" transform="matrix(1 0 0 1 2888.8 696)">
   <path d="M9.76562-11.9629C9.76562-4.93164 14.3066-0.390625 21.875-0.390625L67.334-0.390625C74.9023-0.390625 79.4434-4.93164 79.4434-11.9629L79.4434-58.4961C79.4434-65.5273 74.9023-70.0684 67.334-70.0684L21.875-70.0684C14.3066-70.0684 9.76562-65.5273 9.76562-58.4961ZM23.9258-17.4805L23.9258-52.9297C23.9258-55.0293 25.1465-56.25 27.2461-56.25L62.6953-56.25C64.7949-56.25 66.0156-55.0293 66.0156-52.9297L66.0156-17.4805C66.0156-15.3809 64.7949-14.1602 62.6953-14.1602L27.2461-14.1602C25.1465-14.1602 23.9258-15.3809 23.9258-17.4805Z"/>
  </g>
  <g id="Heavy-S" transform="matrix(1 0 0 1 2592.84 696)">
   <path d="M9.76562-12.1094C9.76562-5.41992 14.0137-1.17188 21.1426-1.17188L66.5527-1.17188C73.6328-1.17188 77.9297-5.41992 77.9297-12.1094L77.9297-58.3984C77.9297-65.0879 73.6328-69.2871 66.5527-69.2871L21.1426-69.2871C14.0137-69.2871 9.76562-65.0879 9.76562-58.3984ZM22.2656-16.6992L22.2656-53.7109C22.2656-55.8594 23.4863-57.0801 25.5859-57.0801L62.6465-57.0801C64.7461-57.0801 66.0156-55.8594 66.0156-53.7109L66.0156-16.6992C66.0156-14.5996 64.7461-13.3301 62.6465-13.3301L25.5859-13.3301C23.4863-13.3301 22.2656-14.5996 22.2656-16.6992Z"/>
  </g>
  <g id="Bold-S" transform="matrix(1 0 0 1 2296.98 696)">
   <path d="M9.76562-12.2559C9.76562-5.9082 13.7207-2.00195 20.3613-2.00195L65.625-2.00195C72.2656-2.00195 76.2207-5.9082 76.2207-12.2559L76.2207-58.252C76.2207-64.5508 72.2656-68.457 65.625-68.457L20.3613-68.457C13.7207-68.457 9.76562-64.5508 9.76562-58.252ZM20.3613-15.8691L20.3613-54.5898C20.3613-56.7383 21.6309-58.0078 23.7793-58.0078L62.5488-58.0078C64.6973-58.0078 65.9668-56.7383 65.9668-54.5898L65.9668-15.8691C65.9668-13.7207 64.6973-12.4512 62.5488-12.4512L23.7793-12.4512C21.6309-12.4512 20.3613-13.7207 20.3613-15.8691Z"/>
  </g>
  <g id="Semibold-S" transform="matrix(1 0 0 1 2000.86 696)">
   <path d="M9.76562-12.3535C9.76562-6.29883 13.5254-2.63672 19.7754-2.63672L64.9902-2.63672C71.2891-2.63672 75.0488-6.29883 75.0488-12.3535L75.0488-58.1543C75.0488-64.209 71.2891-67.8711 64.9902-67.8711L19.7754-67.8711C13.5254-67.8711 9.76562-64.209 9.76562-58.1543ZM19.0918-15.2832L19.0918-55.1758C19.0918-57.373 20.3613-58.6914 22.5098-58.6914L62.5-58.6914C64.6973-58.6914 65.9668-57.373 65.9668-55.1758L65.9668-15.2832C65.9668-13.0859 64.6973-11.8164 62.5-11.8164L22.5098-11.8164C20.3613-11.8164 19.0918-13.0859 19.0918-15.2832Z"/>
  </g>
  <g id="Medium-S" transform="matrix(1 0 0 1 1704.61 696)">
   <path d="M9.76562-12.4023C9.76562-6.54297 13.3301-3.07617 19.3359-3.07617L64.5508-3.07617C70.5566-3.07617 74.1211-6.54297 74.1211-12.4023L74.1211-58.1055C74.1211-63.916 70.5566-67.4316 64.5508-67.4316L19.3359-67.4316C13.3301-67.4316 9.76562-63.916 9.76562-58.1055ZM18.0664-14.8438L18.0664-55.6641C18.0664-57.8613 19.3848-59.1797 21.5332-59.1797L62.5-59.1797C64.6484-59.1797 65.918-57.8613 65.918-55.6641L65.918-14.8438C65.918-12.6465 64.6484-11.3281 62.5-11.3281L21.5332-11.3281C19.3848-11.3281 18.0664-12.6465 18.0664-14.8438Z"/>
  </g>
  <g id="Regular-S" transform="matrix(1 0 0 1 1408.49 696)">
   <path d="M9.76562-12.5C9.76562-6.93359 13.1348-3.66211 18.7988-3.66211L63.916-3.66211C69.5801-3.66211 72.9492-6.93359 72.9492-12.5L72.9492-58.0078C72.9492-63.5742 69.5801-66.8457 63.916-66.8457L18.7988-66.8457C13.1348-66.8457 9.76562-63.5742 9.76562-58.0078ZM16.7969-14.2578L16.7969-56.25C16.7969-58.4961 18.1152-59.8145 20.2637-59.8145L62.4512-59.8145C64.6484-59.8145 65.918-58.4961 65.918-56.25L65.918-14.2578C65.918-12.0117 64.6484-10.6934 62.4512-10.6934L20.2637-10.6934C18.1152-10.6934 16.7969-12.0117 16.7969-14.2578Z"/>
  </g>
  <g id="Light-S" transform="matrix(1 0 0 1 1112.56 696)">
   <path d="M9.76562-12.5488C9.76562-7.42188 12.8418-4.44336 17.9688-4.44336L63.1836-4.44336C68.3105-4.44336 71.3867-7.42188 71.3867-12.5488L71.3867-57.959C71.3867-63.0859 68.3105-66.0645 63.1836-66.0645L17.9688-66.0645C12.8418-66.0645 9.76562-63.0859 9.76562-57.959ZM15.1855-13.7695L15.1855-56.7383C15.1855-59.1797 16.6016-60.6445 19.043-60.6445L62.1094-60.6445C64.5508-60.6445 65.9668-59.1797 65.9668-56.7383L65.9668-13.7695C65.9668-11.3281 64.5508-9.86328 62.1094-9.86328L19.043-9.86328C16.6016-9.86328 15.1855-11.3281 15.1855-13.7695Z"/>
  </g>
  <g id="Thin-S" transform="matrix(1 0 0 1 816.896 696)">
   <path d="M9.76562-12.5488C9.76562-8.10547 12.4023-5.46875 16.8945-5.46875L62.1582-5.46875C66.6504-5.46875 69.2871-8.10547 69.2871-12.5488L69.2871-57.959C69.2871-62.4023 66.6504-65.0391 62.1582-65.0391L16.8945-65.0391C12.4023-65.0391 9.76562-62.4023 9.76562-57.959ZM13.0859-13.1348L13.0859-57.373C13.0859-60.1074 14.6484-61.7188 17.3828-61.7188L61.7188-61.7188C64.4043-61.7188 65.9668-60.1074 65.9668-57.373L65.9668-13.1348C65.9668-10.4004 64.4043-8.78906 61.7188-8.78906L17.3828-8.78906C14.6484-8.78906 13.0859-10.4004 13.0859-13.1348Z"/>
  </g>
  <g id="Ultralight-S" transform="matrix(1 0 0 1 520.722 696)">
   <path d="M9.76562-12.5977C9.76562-8.44727 12.207-6.00586 16.3574-6.00586L61.6211-6.00586C65.7715-6.00586 68.2129-8.44727 68.2129-12.5977L68.2129-57.9102C68.2129-62.0605 65.7715-64.502 61.6211-64.502L16.3574-64.502C12.207-64.502 9.76562-62.0605 9.76562-57.9102ZM11.9629-12.793L11.9629-57.7148C11.9629-60.5957 13.6719-62.2559 16.5039-62.2559L61.4746-62.2559C64.3066-62.2559 66.0156-60.5957 66.0156-57.7148L66.0156-12.793C66.0156-9.91211 64.3066-8.25195 61.4746-8.25195L16.5039-8.25195C13.6719-8.25195 11.9629-9.91211 11.9629-12.793Z"/>
  </g>
 </g>
</svg>
