<?xml version="1.0" encoding="UTF-8"?>
<!--Generator: Apple Native CoreSVG 149-->
<!DOCTYPE svg
PUBLIC "-//W3C//DTD SVG 1.1//EN"
       "http://www.w3.org/Graphics/SVG/1.1/DTD/svg11.dtd">
<svg version="1.1" xmlns="http://www.w3.org/2000/svg" xmlns:xlink="http://www.w3.org/1999/xlink" width="3300" height="2200">
 <!--glyph: "uni1002A8.medium", point size: 100.000000, font version: "Version 16.0d12e3", template writer version: "8"-->
 <g id="Notes">
  <rect height="2200" id="artboard" style="fill:white;opacity:1" width="3300" x="0" y="0"/>
  <line id="" style="fill:none;stroke:black;opacity:1;stroke-width:0.5;" x1="263" x2="3036" y1="292" y2="292"/>
  <text style="stroke:none;fill:black;font-family:-apple-system,&quot;SF Pro Display&quot;,&quot;SF Pro Text&quot;,Helvetica,sans-serif;font-weight:bold;" transform="matrix(1 0 0 1 263 322)">Weight/Scale Variations</text>
  <text style="stroke:none;fill:black;font-family:-apple-system,&quot;SF Pro Display&quot;,&quot;SF Pro Text&quot;,Helvetica,sans-serif;text-anchor:middle;" transform="matrix(1 0 0 1 559.711 322)">Ultralight</text>
  <text style="stroke:none;fill:black;font-family:-apple-system,&quot;SF Pro Display&quot;,&quot;SF Pro Text&quot;,Helvetica,sans-serif;text-anchor:middle;" transform="matrix(1 0 0 1 856.422 322)">Thin</text>
  <text style="stroke:none;fill:black;font-family:-apple-system,&quot;SF Pro Display&quot;,&quot;SF Pro Text&quot;,Helvetica,sans-serif;text-anchor:middle;" transform="matrix(1 0 0 1 1153.13 322)">Light</text>
  <text style="stroke:none;fill:black;font-family:-apple-system,&quot;SF Pro Display&quot;,&quot;SF Pro Text&quot;,Helvetica,sans-serif;text-anchor:middle;" transform="matrix(1 0 0 1 1449.84 322)">Regular</text>
  <text style="stroke:none;fill:black;font-family:-apple-system,&quot;SF Pro Display&quot;,&quot;SF Pro Text&quot;,Helvetica,sans-serif;text-anchor:middle;" transform="matrix(1 0 0 1 1746.56 322)">Medium</text>
  <text style="stroke:none;fill:black;font-family:-apple-system,&quot;SF Pro Display&quot;,&quot;SF Pro Text&quot;,Helvetica,sans-serif;text-anchor:middle;" transform="matrix(1 0 0 1 2043.27 322)">Semibold</text>
  <text style="stroke:none;fill:black;font-family:-apple-system,&quot;SF Pro Display&quot;,&quot;SF Pro Text&quot;,Helvetica,sans-serif;text-anchor:middle;" transform="matrix(1 0 0 1 2339.98 322)">Bold</text>
  <text style="stroke:none;fill:black;font-family:-apple-system,&quot;SF Pro Display&quot;,&quot;SF Pro Text&quot;,Helvetica,sans-serif;text-anchor:middle;" transform="matrix(1 0 0 1 2636.69 322)">Heavy</text>
  <text style="stroke:none;fill:black;font-family:-apple-system,&quot;SF Pro Display&quot;,&quot;SF Pro Text&quot;,Helvetica,sans-serif;text-anchor:middle;" transform="matrix(1 0 0 1 2933.4 322)">Black</text>
  <line id="" style="fill:none;stroke:black;opacity:1;stroke-width:0.5;" x1="263" x2="3036" y1="1903" y2="1903"/>
  <g id="" transform="matrix(1 0 0 1 263 1933)">
   <path d="M9.24805 0.830078C13.5547 0.830078 17.1387-2.74414 17.1387-7.05078C17.1387-11.3574 13.5449-14.9316 9.23828-14.9316C4.94141-14.9316 1.36719-11.3574 1.36719-7.05078C1.36719-2.74414 4.95117 0.830078 9.24805 0.830078ZM9.24805-0.654297C5.70312-0.654297 2.87109-3.49609 2.87109-7.05078C2.87109-10.6055 5.69336-13.4473 9.23828-13.4473C12.793-13.4473 15.6348-10.6055 15.6445-7.05078C15.6543-3.49609 12.8027-0.654297 9.24805-0.654297ZM9.22852-3.62305C9.69727-3.62305 9.9707-3.93555 9.9707-4.45312L9.9707-6.31836L12.002-6.31836C12.5-6.31836 12.832-6.57227 12.832-7.04102C12.832-7.51953 12.5195-7.7832 12.002-7.7832L9.9707-7.7832L9.9707-9.81445C9.9707-10.332 9.69727-10.6543 9.22852-10.6543C8.75977-10.6543 8.50586-10.3125 8.50586-9.81445L8.50586-7.7832L6.49414-7.7832C5.97656-7.7832 5.64453-7.51953 5.64453-7.04102C5.64453-6.57227 5.99609-6.31836 6.49414-6.31836L8.50586-6.31836L8.50586-4.45312C8.50586-3.95508 8.75977-3.62305 9.22852-3.62305Z"/>
  </g>
  <g id="" transform="matrix(1 0 0 1 281.506 1933)">
   <path d="M11.709 2.91016C17.1582 2.91016 21.6699-1.61133 21.6699-7.05078C21.6699-12.5 17.1484-17.0117 11.6992-17.0117C6.25977-17.0117 1.74805-12.5 1.74805-7.05078C1.74805-1.61133 6.26953 2.91016 11.709 2.91016ZM11.709 1.25C7.09961 1.25 3.41797-2.44141 3.41797-7.05078C3.41797-11.6602 7.08984-15.3516 11.6992-15.3516C16.3086-15.3516 20-11.6602 20.0098-7.05078C20.0195-2.44141 16.3184 1.25 11.709 1.25ZM11.6797-2.66602C12.207-2.66602 12.5098-3.01758 12.5098-3.59375L12.5098-6.23047L15.3223-6.23047C15.8691-6.23047 16.25-6.51367 16.25-7.03125C16.25-7.55859 15.8887-7.86133 15.3223-7.86133L12.5098-7.86133L12.5098-10.6836C12.5098-11.25 12.207-11.6113 11.6797-11.6113C11.1621-11.6113 10.8789-11.2305 10.8789-10.6836L10.8789-7.86133L8.07617-7.86133C7.50977-7.86133 7.13867-7.55859 7.13867-7.03125C7.13867-6.51367 7.5293-6.23047 8.07617-6.23047L10.8789-6.23047L10.8789-3.59375C10.8789-3.03711 11.1621-2.66602 11.6797-2.66602Z"/>
  </g>
  <g id="" transform="matrix(1 0 0 1 304.924 1933)">
   <path d="M14.9707 5.66406C21.9336 5.66406 27.6953-0.0976562 27.6953-7.05078C27.6953-14.0137 21.9238-19.7754 14.9609-19.7754C8.00781-19.7754 2.25586-14.0137 2.25586-7.05078C2.25586-0.0976562 8.01758 5.66406 14.9707 5.66406ZM14.9707 3.84766C8.93555 3.84766 4.08203-1.01562 4.08203-7.05078C4.08203-13.0957 8.92578-17.9492 14.9609-17.9492C21.0059-17.9492 25.8594-13.0957 25.8691-7.05078C25.8789-1.01562 21.0156 3.84766 14.9707 3.84766ZM14.9414-1.38672C15.5176-1.38672 15.8594-1.77734 15.8594-2.38281L15.8594-6.13281L19.7754-6.13281C20.3711-6.13281 20.7812-6.46484 20.7812-7.02148C20.7812-7.59766 20.3906-7.93945 19.7754-7.93945L15.8594-7.93945L15.8594-11.8652C15.8594-12.4805 15.5176-12.8711 14.9414-12.8711C14.375-12.8711 14.0527-12.4609 14.0527-11.8652L14.0527-7.93945L10.1465-7.93945C9.53125-7.93945 9.13086-7.59766 9.13086-7.02148C9.13086-6.46484 9.55078-6.13281 10.1465-6.13281L14.0527-6.13281L14.0527-2.38281C14.0527-1.79688 14.375-1.38672 14.9414-1.38672Z"/>
  </g>
  <text style="stroke:none;fill:black;font-family:-apple-system,&quot;SF Pro Display&quot;,&quot;SF Pro Text&quot;,Helvetica,sans-serif;font-weight:bold;" transform="matrix(1 0 0 1 263 1953)">Design Variations</text>
  <text style="stroke:none;fill:black;font-family:-apple-system,&quot;SF Pro Display&quot;,&quot;SF Pro Text&quot;,Helvetica,sans-serif;" transform="matrix(1 0 0 1 263 1971)">Symbols are supported in up to nine weights and three scales.</text>
  <text style="stroke:none;fill:black;font-family:-apple-system,&quot;SF Pro Display&quot;,&quot;SF Pro Text&quot;,Helvetica,sans-serif;" transform="matrix(1 0 0 1 263 1989)">For optimal layout with text and other symbols, vertically align</text>
  <text style="stroke:none;fill:black;font-family:-apple-system,&quot;SF Pro Display&quot;,&quot;SF Pro Text&quot;,Helvetica,sans-serif;" transform="matrix(1 0 0 1 263 2007)">symbols with the adjacent text.</text>
  <line id="" style="fill:none;stroke:#00AEEF;stroke-width:0.5;opacity:1.0;" x1="776" x2="776" y1="1919" y2="1933"/>
  <g id="" transform="matrix(1 0 0 1 776 1933)">
   <path d="M3.31055 0.126953C3.82812 0.126953 4.08203-0.0683594 4.26758-0.605469L5.52734-4.0625L11.2891-4.0625L12.5488-0.605469C12.7344-0.0683594 12.9883 0.126953 13.4961 0.126953C14.0137 0.126953 14.3457-0.185547 14.3457-0.673828C14.3457-0.839844 14.3164-0.986328 14.2383-1.20117L9.6582-13.3887C9.43359-13.9941 9.0332-14.2871 8.4082-14.2871C7.80273-14.2871 7.39258-13.9941 7.17773-13.3984L2.59766-1.19141C2.51953-0.976562 2.49023-0.830078 2.49023-0.664062C2.49023-0.175781 2.80273 0.126953 3.31055 0.126953ZM6.00586-5.53711L8.37891-12.1094L8.42773-12.1094L10.8008-5.53711Z"/>
  </g>
  <line id="" style="fill:none;stroke:#00AEEF;stroke-width:0.5;opacity:1.0;" x1="792.836" x2="792.836" y1="1919" y2="1933"/>
  <text style="stroke:none;fill:black;font-family:-apple-system,&quot;SF Pro Display&quot;,&quot;SF Pro Text&quot;,Helvetica,sans-serif;font-weight:bold;" transform="matrix(1 0 0 1 776 1953)">Margins</text>
  <text style="stroke:none;fill:black;font-family:-apple-system,&quot;SF Pro Display&quot;,&quot;SF Pro Text&quot;,Helvetica,sans-serif;" transform="matrix(1 0 0 1 776 1971)">Leading and trailing margins on the left and right side of each symbol</text>
  <text style="stroke:none;fill:black;font-family:-apple-system,&quot;SF Pro Display&quot;,&quot;SF Pro Text&quot;,Helvetica,sans-serif;" transform="matrix(1 0 0 1 776 1989)">can be adjusted by modifying the x-location of the margin guidelines.</text>
  <text style="stroke:none;fill:black;font-family:-apple-system,&quot;SF Pro Display&quot;,&quot;SF Pro Text&quot;,Helvetica,sans-serif;" transform="matrix(1 0 0 1 776 2007)">Modifications are automatically applied proportionally to all</text>
  <text style="stroke:none;fill:black;font-family:-apple-system,&quot;SF Pro Display&quot;,&quot;SF Pro Text&quot;,Helvetica,sans-serif;" transform="matrix(1 0 0 1 776 2025)">scales and weights.</text>
  <g id="" transform="matrix(1 0 0 1 1289 1933)">
   <path d="M2.8418 1.86523L4.54102 3.57422C5.40039 4.44336 6.38672 4.38477 7.31445 3.35938L17.4902-7.85156C17.7539-7.76367 18.0273-7.7832 18.3398-7.8418L19.4043-8.03711L20.0684-7.36328L20.0293-6.80664C19.9902-6.30859 20.1172-5.92773 20.6055-5.44922L21.3672-4.70703C21.8457-4.22852 22.4609-4.19922 22.9297-4.66797L25.8398-7.58789C26.3086-8.05664 26.2891-8.65234 25.8105-9.13086L25.0391-9.89258C24.5605-10.3711 24.1895-10.5273 23.7109-10.4883L23.1348-10.4395L22.4902-11.0742L22.7344-12.1973C22.8613-12.7637 22.7051-13.2031 22.1191-13.7891L19.9219-15.9766C16.582-19.2969 12.1484-19.2188 9.25781-16.3281C8.83789-15.918 8.80859-15.3418 9.04297-14.9512C9.27734-14.5898 9.73633-14.3555 10.3809-14.5215C11.8457-14.8633 13.3691-14.9219 14.7949-13.9844L14.209-12.5293C14.0137-12.0508 13.9844-11.6504 14.1113-11.2891L3.04688-0.898438C2.06055 0.0195312 1.98242 0.996094 2.8418 1.86523ZM10.752-15.957C13.1836-17.7344 16.4746-17.4316 18.7012-15.2051L21.1328-12.793C21.3672-12.5586 21.4062-12.373 21.3379-12.0312L21.0156-10.5469L22.5195-9.0625L23.5059-9.12109C23.7598-9.13086 23.8379-9.11133 24.0332-8.91602L24.6094-8.33984L22.168-5.89844L21.5918-6.47461C21.3965-6.66992 21.3672-6.74805 21.377-7.01172L21.4453-7.98828L19.9512-9.47266L18.4277-9.21875C18.1055-9.15039 17.959-9.17969 17.7148-9.41406L15.7129-11.416C15.459-11.6504 15.4297-11.8164 15.5859-12.1875L16.4648-14.2773C14.9023-15.7324 12.8711-16.3574 10.8398-15.7617C10.6836-15.7227 10.625-15.8496 10.752-15.957ZM5.27344 2.30469L4.10156 1.14258C3.63281 0.683594 3.74023 0.341797 4.14062-0.0195312L14.9512-10.1953L16.416-8.71094L6.42578 2.27539C6.07422 2.67578 5.74219 2.77344 5.27344 2.30469Z"/>
  </g>
  <text style="stroke:none;fill:black;font-family:-apple-system,&quot;SF Pro Display&quot;,&quot;SF Pro Text&quot;,Helvetica,sans-serif;font-weight:bold;" transform="matrix(1 0 0 1 1289 1953)">Exporting</text>
  <text style="stroke:none;fill:black;font-family:-apple-system,&quot;SF Pro Display&quot;,&quot;SF Pro Text&quot;,Helvetica,sans-serif;" transform="matrix(1 0 0 1 1289 1971)">Symbols should be outlined when exporting to ensure the</text>
  <text style="stroke:none;fill:black;font-family:-apple-system,&quot;SF Pro Display&quot;,&quot;SF Pro Text&quot;,Helvetica,sans-serif;" transform="matrix(1 0 0 1 1289 1989)">design is preserved when submitting to Xcode.</text>
  <text id="template-version" style="stroke:none;fill:black;font-family:-apple-system,&quot;SF Pro Display&quot;,&quot;SF Pro Text&quot;,Helvetica,sans-serif;text-anchor:end;" transform="matrix(1 0 0 1 3036 1933)">Template v.2.0</text>
  <text style="stroke:none;fill:black;font-family:-apple-system,&quot;SF Pro Display&quot;,&quot;SF Pro Text&quot;,Helvetica,sans-serif;text-anchor:end;" transform="matrix(1 0 0 1 3036 1951)">Requires Xcode 12 or greater</text>
  <text style="stroke:none;fill:black;font-family:-apple-system,&quot;SF Pro Display&quot;,&quot;SF Pro Text&quot;,Helvetica,sans-serif;text-anchor:end;" transform="matrix(1 0 0 1 3036 1969)">Generated from speaker.wave.3</text>
  <text style="stroke:none;fill:black;font-family:-apple-system,&quot;SF Pro Display&quot;,&quot;SF Pro Text&quot;,Helvetica,sans-serif;text-anchor:end;" transform="matrix(1 0 0 1 3036 1987)">Typeset at 100 points</text>
  <text style="stroke:none;fill:black;font-family:-apple-system,&quot;SF Pro Display&quot;,&quot;SF Pro Text&quot;,Helvetica,sans-serif;" transform="matrix(1 0 0 1 263 726)">Small</text>
  <text style="stroke:none;fill:black;font-family:-apple-system,&quot;SF Pro Display&quot;,&quot;SF Pro Text&quot;,Helvetica,sans-serif;" transform="matrix(1 0 0 1 263 1156)">Medium</text>
  <text style="stroke:none;fill:black;font-family:-apple-system,&quot;SF Pro Display&quot;,&quot;SF Pro Text&quot;,Helvetica,sans-serif;" transform="matrix(1 0 0 1 263 1586)">Large</text>
 </g>
 <g id="Guides">
  <g id="H-reference" style="fill:#27AAE1;stroke:none;" transform="matrix(1 0 0 1 339 696)">
   <path d="M0.976562 0L3.66211 0L12.9883-24.4629L45.752-24.4629L55.127 0L57.7637 0L30.6152-70.459L28.125-70.459ZM29.3457-67.1387L29.4434-67.1387L44.873-26.709L13.8672-26.709Z"/>
  </g>
  <line id="Baseline-S" style="fill:none;stroke:#27AAE1;opacity:1;stroke-width:0.5;" x1="263" x2="3036" y1="696" y2="696"/>
  <line id="Capline-S" style="fill:none;stroke:#27AAE1;opacity:1;stroke-width:0.5;" x1="263" x2="3036" y1="625.541" y2="625.541"/>
  <g id="H-reference" style="fill:#27AAE1;stroke:none;" transform="matrix(1 0 0 1 339 1126)">
   <path d="M0.976562 0L3.66211 0L12.9883-24.4629L45.752-24.4629L55.127 0L57.7637 0L30.6152-70.459L28.125-70.459ZM29.3457-67.1387L29.4434-67.1387L44.873-26.709L13.8672-26.709Z"/>
  </g>
  <line id="Baseline-M" style="fill:none;stroke:#27AAE1;opacity:1;stroke-width:0.5;" x1="263" x2="3036" y1="1126" y2="1126"/>
  <line id="Capline-M" style="fill:none;stroke:#27AAE1;opacity:1;stroke-width:0.5;" x1="263" x2="3036" y1="1055.54" y2="1055.54"/>
  <g id="H-reference" style="fill:#27AAE1;stroke:none;" transform="matrix(1 0 0 1 339 1556)">
   <path d="M0.976562 0L3.66211 0L12.9883-24.4629L45.752-24.4629L55.127 0L57.7637 0L30.6152-70.459L28.125-70.459ZM29.3457-67.1387L29.4434-67.1387L44.873-26.709L13.8672-26.709Z"/>
  </g>
  <line id="Baseline-L" style="fill:none;stroke:#27AAE1;opacity:1;stroke-width:0.5;" x1="263" x2="3036" y1="1556" y2="1556"/>
  <line id="Capline-L" style="fill:none;stroke:#27AAE1;opacity:1;stroke-width:0.5;" x1="263" x2="3036" y1="1485.54" y2="1485.54"/>
  <line id="left-margin" style="fill:none;stroke:#00AEEF;stroke-width:0.5;opacity:1.0;" x1="1369.42" x2="1369.42" y1="1030.79" y2="1150.12"/>
  <line id="right-margin" style="fill:none;stroke:#00AEEF;stroke-width:0.5;opacity:1.0;" x1="1530.26" x2="1530.26" y1="1030.79" y2="1150.12"/>
 </g>
 <g id="Symbols">
  <g id="Black-L" transform="matrix(1 0 0 1 2811.87 1556)">
   <path d="M190.332 32.959C195.068 35.6934 200.928 34.3262 203.76 29.5898C215.234 10.8887 221.826-11.377 221.826-35.1074C221.826-58.7891 215.186-81.0547 203.76-99.7559C200.928-104.492 195.068-105.859 190.332-103.125C185.303-100.195 184.473-94.0918 187.793-88.5254C197.07-73.1445 202.441-54.6387 202.441-35.1074C202.441-15.5762 197.07 2.97852 187.793 18.3594C184.473 23.9258 185.303 30.0293 190.332 32.959ZM39.2578-4.19922L56.4453-4.19922C56.7383-4.19922 57.0312-4.15039 57.373-3.80859L82.373 18.5547C86.6211 22.3145 89.8438 24.0234 94.2383 24.0234C100.83 24.0234 105.957 18.9941 105.957 12.3535L105.957-82.6172C105.957-89.209 100.83-94.4336 94.1895-94.4336C90.0391-94.4336 86.8164-92.7734 82.373-88.7695L57.373-66.6016C56.9824-66.3086 56.7383-66.2109 56.4453-66.2109L39.2578-66.2109C27.5391-66.2109 21.2402-59.5703 21.2402-47.3633L21.2402-23.0469C21.2402-10.8398 27.5391-4.19922 39.2578-4.19922ZM158.984 14.6973C163.574 17.334 169.189 16.2109 172.07 11.6699C180.762-1.66016 185.596-18.0176 185.596-35.2539C185.596-52.5391 180.811-68.8965 172.07-82.2266C169.189-86.7676 163.574-87.8906 158.984-85.2539C153.76-82.3242 153.125-76.0254 156.592-70.3125C162.695-60.3516 166.162-48.0957 166.162-35.2539C166.162-22.4609 162.646-10.2051 156.592-0.195312C153.174 5.46875 153.76 11.7676 158.984 14.6973ZM127.49-3.4668C131.982-0.732422 137.451-1.80664 140.234-5.71289C146.045-13.8184 149.414-24.2676 149.414-35.2539C149.414-46.2402 146.045-56.6895 140.234-64.8926C137.451-68.7012 131.982-69.8242 127.49-67.041C122.705-64.1113 121.533-58.3984 125.537-51.6113C128.369-47.0215 129.932-41.2109 129.932-35.2539C129.932-29.3457 128.32-23.5352 125.537-18.9453C121.533-12.1094 122.705-6.39648 127.49-3.4668ZM42.4805-22.1191C41.2598-22.1191 40.4785-22.9492 40.4785-24.0723L40.4785-46.2891C40.4785-47.4609 41.2598-48.2422 42.4805-48.2422L60.6445-48.2422C62.5488-48.2422 63.9648-48.6816 65.3809-50.0488L84.9121-67.9688C85.1562-68.2129 85.4492-68.3105 85.791-68.3105C86.2793-68.3105 86.6699-67.9199 86.6699-67.334L86.6699-2.97852C86.6699-2.39258 86.2793-1.95312 85.791-1.95312C85.4492-1.95312 85.1562-2.09961 84.9121-2.34375L65.3809-20.3125C63.9648-21.6797 62.5488-22.1191 60.6445-22.1191Z"/>
  </g>
  <g id="Heavy-L" transform="matrix(1 0 0 1 2519.84 1556)">
   <path d="M183.398 30.957C187.451 33.3496 192.529 32.1777 195.068 28.0762C206.396 10.0098 213.086-11.6211 213.086-35.1562C213.086-58.6426 206.299-80.2246 195.068-98.3398C192.529-102.49 187.451-103.662 183.398-101.221C179.102-98.6816 178.418-93.4082 181.299-88.623C190.674-73.3887 196.289-55.0293 196.289-35.1562C196.289-15.2344 190.674 3.125 181.299 18.3594C178.418 23.1445 179.102 28.418 183.398 30.957ZM37.1582-5.66406L54.6387-5.66406C54.9805-5.66406 55.3711-5.56641 55.7129-5.22461L81.6895 17.9688C85.5469 21.3867 88.4766 22.998 92.4805 22.998C98.3887 22.998 102.93 18.5059 102.93 12.5488L102.93-82.7637C102.93-88.7207 98.3887-93.4082 92.4316-93.4082C88.623-93.4082 85.7422-91.7969 81.6895-88.1836L55.7129-65.1367C55.3223-64.7949 54.9805-64.6484 54.6387-64.6484L37.1582-64.6484C26.3672-64.6484 20.6055-58.6426 20.6055-47.3633L20.6055-22.9492C20.6055-11.6699 26.3672-5.66406 37.1582-5.66406ZM154.053 13.0859C158.057 15.4297 162.939 14.4531 165.479 10.498C174.023-2.29492 178.857-18.4082 178.857-35.2539C178.857-52.1484 174.023-68.3105 165.479-81.0547C162.939-85.0098 158.057-85.9375 154.053-83.6426C149.609-81.0547 149.072-75.6836 152.051-70.8008C158.447-60.791 162.061-48.3398 162.061-35.2539C162.061-22.2168 158.35-9.76562 152.051 0.244141C149.072 5.12695 149.609 10.498 154.053 13.0859ZM39.6484-21.2402C38.1348-21.2402 37.3047-22.1191 37.3047-23.584L37.3047-46.7285C37.3047-48.2422 38.1348-49.1211 39.6484-49.1211L58.3008-49.1211C60.1562-49.1211 61.5234-49.5117 62.9883-50.8789L84.375-70.5078C84.668-70.752 85.0098-70.8984 85.3516-70.8984C85.8887-70.8984 86.2305-70.5078 86.2305-69.9219L86.2305-0.439453C86.2305 0.146484 85.8887 0.585938 85.3516 0.585938C85.0098 0.585938 84.7168 0.439453 84.4238 0.146484L62.9883-19.4824C61.5234-20.8008 60.1562-21.2402 58.3008-21.2402ZM124.707-4.6875C128.564-2.29492 133.301-3.22266 135.791-6.68945C141.357-14.4043 144.629-24.5605 144.629-35.2539C144.629-45.9961 141.357-56.1035 135.791-63.916C133.301-67.2852 128.564-68.2129 124.707-65.8203C120.508-63.2324 119.531-58.252 122.998-52.4902C126.123-47.7539 127.832-41.6504 127.832-35.2539C127.832-28.9062 126.074-22.8516 122.998-18.0176C119.531-12.3047 120.508-7.27539 124.707-4.6875Z"/>
  </g>
  <g id="Bold-L" transform="matrix(1 0 0 1 2228.38 1556)">
   <path d="M175.684 28.7598C179.004 30.8105 183.203 29.834 185.352 26.416C196.484 9.0332 203.271-11.9141 203.271-35.2051C203.271-58.4473 196.387-79.3457 185.352-96.7773C183.203-100.244 179.004-101.172 175.684-99.1211C172.168-96.9727 171.582-92.627 173.975-88.7207C183.496-73.6816 189.453-55.5176 189.453-35.2051C189.453-14.8926 183.496 3.36914 173.975 18.3594C171.582 22.2656 172.168 26.6113 175.684 28.7598ZM34.7656-7.32422L52.5879-7.32422C53.0762-7.32422 53.5156-7.17773 53.9062-6.78711L80.9082 17.2852C84.3262 20.3613 86.9629 21.8262 90.5273 21.8262C95.7031 21.8262 99.6094 17.9199 99.6094 12.7441L99.6094-82.959C99.6094-88.1348 95.7031-92.2363 90.4785-92.2363C87.0117-92.2363 84.5215-90.7715 80.9082-87.5L53.9062-63.4766C53.4668-63.0859 53.0762-62.9883 52.5879-62.9883L34.7656-62.9883C25-62.9883 19.9219-57.666 19.9219-47.4121L19.9219-22.8516C19.9219-12.5977 25-7.32422 34.7656-7.32422ZM148.584 11.2793C151.855 13.2812 155.908 12.4512 158.057 9.17969C166.455-2.97852 171.289-18.7988 171.289-35.2539C171.289-51.709 166.504-67.6758 158.057-79.7363C155.908-83.0078 151.855-83.7891 148.584-81.8359C144.971-79.6387 144.482-75.2441 147.021-71.2891C153.662-61.3281 157.422-48.584 157.422-35.2539C157.422-21.9238 153.564-9.22852 147.021 0.78125C144.531 4.73633 144.971 9.13086 148.584 11.2793ZM36.5234-20.2148C34.6191-20.2148 33.7402-21.1914 33.7402-23.0469L33.7402-47.2168C33.7402-49.1211 34.6191-50.0488 36.5234-50.0488L55.6641-50.0488C57.4707-50.0488 58.7891-50.4395 60.2539-51.7578L83.8379-73.291C84.1309-73.584 84.4727-73.7793 84.8633-73.7793C85.4004-73.7793 85.7422-73.4375 85.7422-72.8027L85.7422 2.39258C85.7422 3.02734 85.4004 3.41797 84.9121 3.41797C84.5215 3.41797 84.1797 3.27148 83.8379 2.92969L60.2539-18.5059C58.8379-19.8242 57.4707-20.2148 55.6641-20.2148ZM121.533-6.05469C124.707-4.05273 128.711-4.83398 130.811-7.76367C136.133-15.0391 139.307-24.8535 139.307-35.2539C139.307-45.7031 136.133-55.4688 130.811-62.793C128.711-65.7227 124.707-66.4551 121.533-64.4531C118.066-62.2559 117.285-58.0566 120.166-53.5156C123.584-48.4863 125.439-42.0898 125.439-35.2539C125.439-28.418 123.535-22.0703 120.166-16.9922C117.334-12.4512 118.066-8.30078 121.533-6.05469Z"/>
  </g>
  <g id="Semibold-L" transform="matrix(1 0 0 1 1935.31 1556)">
   <path d="M170.312 27.2461C173.145 29.0039 176.758 28.2227 178.662 25.2441C189.697 8.34961 196.533-12.1094 196.533-35.2051C196.533-58.3008 189.551-78.7598 178.662-95.7031C176.758-98.6816 173.145-99.4629 170.312-97.6562C167.334-95.8008 166.895-92.0898 168.945-88.8184C178.564-73.877 184.717-55.8105 184.717-35.2051C184.717-14.6484 178.564 3.4668 168.945 18.4082C166.895 21.6797 167.334 25.3906 170.312 27.2461ZM33.1543-8.44727L51.1719-8.44727C51.709-8.44727 52.1973-8.30078 52.6367-7.86133L80.3223 16.8457C83.4473 19.6777 85.9375 20.9961 89.209 20.9961C93.8477 20.9961 97.2656 17.5293 97.2656 12.8906L97.2656-83.0566C97.2656-87.6953 93.8477-91.4551 89.1113-91.4551C85.9375-91.4551 83.6914-90.0391 80.3223-87.0117L52.6367-62.3535C52.1973-61.9629 51.709-61.8164 51.1719-61.8164L33.1543-61.8164C24.0234-61.8164 19.3848-56.9824 19.3848-47.4609L19.3848-22.7539C19.3848-13.2324 24.0723-8.44727 33.1543-8.44727ZM144.775 10.0098C147.607 11.7676 151.074 11.1328 152.979 8.25195C161.23-3.41797 166.113-19.0918 166.113-35.2539C166.113-51.416 161.279-67.1875 152.979-78.8086C151.074-81.6406 147.607-82.3242 144.775-80.5664C141.748-78.7109 141.357-75 143.506-71.6797C150.342-61.6699 154.248-48.7793 154.248-35.2539C154.248-21.7773 150.244-8.88672 143.506 1.12305C141.357 4.44336 141.748 8.1543 144.775 10.0098ZM34.375-19.5312C32.2266-19.5312 31.25-20.5566 31.25-22.6562L31.25-47.5586C31.25-49.707 32.2266-50.7324 34.375-50.7324L53.8574-50.7324C55.6641-50.7324 56.9336-51.0254 58.3984-52.3926L83.4473-75.2441C83.7891-75.5859 84.1309-75.7812 84.5703-75.7812C85.0586-75.7812 85.4492-75.4395 85.4492-74.8047L85.4492 4.39453C85.4492 4.98047 85.0586 5.37109 84.5703 5.37109C84.2285 5.37109 83.8379 5.22461 83.4961 4.83398L58.3984-17.8223C56.9336-19.1406 55.6641-19.5312 53.8574-19.5312ZM119.385-6.98242C122.07-5.27344 125.537-5.9082 127.393-8.54492C132.52-15.4297 135.645-25.0488 135.645-35.2539C135.645-45.459 132.52-55.0293 127.393-62.0117C125.537-64.6484 122.07-65.2832 119.385-63.4766C116.406-61.5723 115.771-57.9102 118.164-54.248C121.826-49.0234 123.779-42.4316 123.779-35.2539C123.779-28.0762 121.777-21.5332 118.164-16.3086C115.82-12.5977 116.406-8.98438 119.385-6.98242Z"/>
  </g>
  <g id="Medium-L" transform="matrix(1 0 0 1 1641.33 1556)">
   <path d="M166.26 26.0742C168.701 27.6855 171.875 27.002 173.584 24.4141C184.521 7.86133 191.406-12.2559 191.406-35.2539C191.406-58.2031 184.375-78.2715 173.584-94.873C171.875-97.5098 168.701-98.1445 166.26-96.5332C163.721-94.9219 163.33-91.6992 165.137-88.8672C174.805-74.0234 181.152-56.0547 181.152-35.2539C181.152-14.4531 174.805 3.56445 165.137 18.4082C163.33 21.2402 163.721 24.4141 166.26 26.0742ZM31.8848-9.32617L50.0977-9.32617C50.7324-9.32617 51.2207-9.13086 51.709-8.69141L79.9316 16.5039C82.8125 19.1406 85.1562 20.4102 88.1836 20.4102C92.4316 20.4102 95.5566 17.2363 95.5566 12.9883L95.5566-83.1543C95.5566-87.4023 92.4316-90.8691 88.0859-90.8691C85.1074-90.8691 83.0566-89.4531 79.9316-86.6699L51.709-61.4746C51.2207-61.084 50.7324-60.9375 50.0977-60.9375L31.8848-60.9375C23.3398-60.9375 19.043-56.4453 19.043-47.4609L19.043-22.7051C19.043-13.6719 23.3398-9.32617 31.8848-9.32617ZM141.895 9.08203C144.385 10.6445 147.412 10.0586 149.121 7.56836C157.275-3.75977 162.158-19.3359 162.158-35.2539C162.158-51.2207 157.324-66.8457 149.121-78.125C147.412-80.6152 144.385-81.2012 141.895-79.5898C139.307-77.9785 138.965-74.7559 140.869-71.9238C147.852-61.9629 151.807-48.9258 151.807-35.2539C151.807-21.6309 147.754-8.64258 140.869 1.41602C139.014 4.24805 139.307 7.42188 141.895 9.08203ZM32.7637-18.9941C30.4199-18.9941 29.3945-20.0684 29.3945-22.3633L29.3945-47.8027C29.3945-50.1465 30.4199-51.2207 32.7637-51.2207L52.4902-51.2207C54.248-51.2207 55.5176-51.5137 56.9824-52.8809L83.1543-76.7578C83.4961-77.0508 83.8379-77.2949 84.2773-77.2949C84.8145-77.2949 85.1562-76.9531 85.1562-76.3184L85.1562 5.85938C85.1562 6.49414 84.8145 6.88477 84.3262 6.88477C83.9355 6.88477 83.5938 6.68945 83.2031 6.29883L56.9824-17.334C55.5176-18.6035 54.248-18.9941 52.4902-18.9941ZM117.725-7.71484C120.068-6.20117 123.096-6.73828 124.805-9.13086C129.785-15.7715 132.861-25.2441 132.861-35.2539C132.861-45.3125 129.785-54.7363 124.805-61.4258C123.096-63.8184 120.068-64.3555 117.725-62.793C115.088-61.0352 114.6-57.8125 116.699-54.7852C120.508-49.4629 122.51-42.6758 122.51-35.2539C122.51-27.832 120.459-21.1426 116.699-15.7715C114.648-12.6953 115.088-9.52148 117.725-7.71484Z"/>
  </g>
  <g id="Regular-L" transform="matrix(1 0 0 1 1348.21 1556)">
   <path d="M160.986 24.5605C162.891 25.9277 165.479 25.3906 166.943 23.2422C177.734 7.17773 184.717-12.4512 184.717-35.2539C184.717-58.1055 177.588-77.6855 166.943-93.7988C165.479-95.9961 162.891-96.4844 160.986-95.1172C158.984-93.75 158.691-91.1621 160.205-88.9648C169.922-74.2188 176.465-56.3477 176.465-35.2539C176.465-14.209 169.922 3.71094 160.205 18.4082C158.691 20.6055 158.984 23.1934 160.986 24.5605ZM30.2734-10.4492L48.7305-10.4492C49.3652-10.4492 49.9512-10.2051 50.4395-9.76562L79.3945 16.0645C81.9824 18.4082 84.1309 19.6289 86.8652 19.6289C90.5762 19.6289 93.2617 16.8457 93.2617 13.1348L93.2617-83.3008C93.2617-87.0117 90.5762-90.0879 86.7676-90.0879C84.0332-90.0879 82.2266-88.7207 79.3945-86.2305L50.4395-60.3516C49.9512-59.9121 49.3652-59.7656 48.7305-59.7656L30.2734-59.7656C22.4121-59.7656 18.5547-55.7617 18.5547-47.4609L18.5547-22.6562C18.5547-14.3066 22.4121-10.4492 30.2734-10.4492ZM30.6152-18.3105C28.0273-18.3105 26.9531-19.4336 26.9531-22.0215L26.9531-48.1445C26.9531-50.7324 28.0273-51.8555 30.6152-51.8555L50.6836-51.8555C52.3926-51.8555 53.6621-52.1484 55.127-53.4668L82.7637-78.6621C83.1543-79.0039 83.4961-79.2969 83.9844-79.2969C84.4727-79.2969 84.8633-78.9062 84.8633-78.3203L84.8633 7.8125C84.8633 8.44727 84.4727 8.78906 83.9844 8.78906C83.6426 8.78906 83.252 8.64258 82.8125 8.20312L55.127-16.6504C53.6621-17.9688 52.3926-18.3105 50.6836-18.3105ZM138.135 7.8125C140.137 9.17969 142.627 8.74023 144.043 6.68945C152.148-4.24805 156.982-19.6289 156.982-35.2539C156.982-50.9277 152.197-66.4062 144.043-77.1973C142.627-79.248 140.137-79.7363 138.135-78.3691C136.182-77.002 135.84-74.5117 137.402-72.2656C144.58-62.3047 148.633-49.0723 148.633-35.2539C148.633-21.4355 144.482-8.25195 137.402 1.75781C135.889 3.95508 136.182 6.49414 138.135 7.8125ZM115.576-8.64258C117.432-7.37305 119.971-7.8125 121.387-9.86328C126.221-16.2109 129.248-25.4395 129.248-35.2539C129.248-45.1172 126.221-54.2969 121.387-60.6934C119.971-62.7441 117.432-63.1348 115.576-61.8652C113.428-60.3516 113.086-57.7148 114.746-55.4688C118.75-50 120.898-43.0176 120.898-35.2539C120.898-27.5391 118.701-20.6055 114.746-15.0391C113.135-12.793 113.428-10.2051 115.576-8.64258Z"/>
  </g>
  <g id="Light-L" transform="matrix(1 0 0 1 1054.43 1556)">
   <path d="M157.275 24.3652C158.789 25.4395 160.742 25 161.865 23.3887C172.363 7.17773 179.785-11.6699 179.785-35.2539C179.785-58.8379 172.266-77.6855 161.865-93.8965C160.742-95.6055 158.789-95.9961 157.275-94.9219C155.762-93.8965 155.518-91.8945 156.641-90.1855C166.357-75 173.438-57.5195 173.438-35.2539C173.438-13.0371 166.357 4.49219 156.641 19.6289C155.518 21.3379 155.762 23.3398 157.275 24.3652ZM27.832-11.5234L46.8262-11.5234C47.6562-11.5234 48.291-11.2793 48.877-10.7422L78.4668 15.625C80.5176 17.4805 82.4219 18.5547 84.7656 18.5547C88.0371 18.5547 90.1855 16.1621 90.1855 12.9883L90.1855-83.252C90.1855-86.4746 88.0371-89.1113 84.668-89.1113C82.373-89.1113 80.7129-87.8906 78.4668-85.8887L48.877-59.2285C48.291-58.6914 47.6562-58.5449 46.8262-58.5449L27.832-58.5449C20.9473-58.5449 17.627-55.0293 17.627-47.9004L17.627-22.0703C17.627-14.8926 20.9961-11.5234 27.832-11.5234ZM28.0762-17.627C25.1953-17.627 24.0723-18.7988 24.0723-21.6797L24.0723-48.291C24.0723-51.2207 25.1953-52.3926 28.0762-52.3926L48.0469-52.3926C49.8535-52.3926 51.123-52.6367 52.6367-54.0527L81.3477-80.2734C81.7871-80.6641 82.1777-81.0059 82.7148-81.0059C83.3008-81.0059 83.6914-80.6641 83.6914-79.9805L83.6914 9.375C83.6914 10.1074 83.3008 10.498 82.7637 10.498C82.373 10.498 81.9824 10.3516 81.3965 9.81445L52.6367-15.9668C51.1719-17.2852 49.8535-17.627 48.0469-17.627ZM135.449 7.61719C137.012 8.64258 138.867 8.30078 139.99 6.73828C148.096-3.95508 153.125-19.4824 153.125-35.2539C153.125-51.0742 148.096-66.6504 139.99-77.2949C138.867-78.8574 137.012-79.1992 135.449-78.125C133.887-77.0996 133.691-75.1465 134.912-73.4375C142.48-63.1348 146.68-49.6094 146.68-35.2539C146.68-20.9473 142.383-7.42188 134.912 2.92969C133.691 4.63867 133.887 6.54297 135.449 7.61719ZM113.965-8.98438C115.43-7.95898 117.334-8.30078 118.457-9.86328C123.291-16.1621 126.465-25.1465 126.465-35.2539C126.465-45.3613 123.291-54.3457 118.457-60.6934C117.334-62.2559 115.43-62.5488 113.965-61.5234C112.354-60.4004 112.061-58.3496 113.379-56.6406C117.773-50.5371 120.02-43.6035 120.02-35.2539C120.02-26.9531 117.773-20.0195 113.379-13.916C112.109-12.1582 112.354-10.1562 113.965-8.98438Z"/>
  </g>
  <g id="Thin-L" transform="matrix(1 0 0 1 761.574 1556)">
   <path d="M152.344 24.1211C153.32 24.8047 154.492 24.5117 155.078 23.5352C165.234 7.17773 173.291-10.6934 173.291-35.2539C173.291-59.8633 165.234-77.7344 155.078-94.0918C154.492-95.0684 153.32-95.3613 152.344-94.6777C151.465-94.0918 151.27-92.8223 151.953-91.7969C161.719-76.0254 169.434-59.082 169.434-35.2539C169.434-11.4746 161.719 5.46875 151.953 21.2402C151.27 22.3145 151.465 23.5352 152.344 24.1211ZM24.6582-12.9883L44.3359-12.9883C45.4102-12.9883 46.0938-12.6953 46.7773-12.0605L77.2949 14.9902C78.6133 16.2598 80.127 17.1875 81.9824 17.1875C84.6191 17.1875 86.084 15.2344 86.084 12.7441L86.084-83.2031C86.084-85.7422 84.6191-87.793 81.9336-87.793C80.127-87.793 78.7109-86.7188 77.2949-85.498L46.7773-57.7148C46.0938-57.0801 45.4102-56.9336 44.3359-56.9336L24.6582-56.9336C18.9941-56.9336 16.4062-54.1016 16.4062-48.4863L16.4062-21.3379C16.4062-15.625 19.0918-12.9883 24.6582-12.9883ZM24.707-16.748C21.4355-16.748 20.3125-17.9688 20.3125-21.2402L20.3125-48.5352C20.3125-51.9043 21.4355-53.0762 24.707-53.0762L44.5312-53.0762C46.4844-53.0762 47.7539-53.3203 49.3164-54.7852L79.4922-82.373C80.0293-82.8613 80.4199-83.3008 81.1035-83.3008C81.7383-83.3008 82.1777-82.9102 82.1777-82.1289L82.1777 11.4746C82.1777 12.3047 81.7383 12.6953 81.1523 12.6953C80.7129 12.6953 80.3223 12.5488 79.541 11.8652L49.3164-15.0879C47.8516-16.3574 46.4844-16.748 44.5312-16.748ZM131.885 7.27539C132.861 7.95898 133.936 7.76367 134.619 6.83594C142.725-3.61328 147.998-19.2871 147.998-35.2539C147.998-51.2207 142.725-66.9434 134.619-77.3926C133.936-78.2715 132.861-78.4668 131.885-77.832C130.908-77.1484 130.811-76.0742 131.592-75C139.648-64.2578 144.092-50.293 144.092-35.2539C144.092-20.2637 139.648-6.29883 131.592 4.44336C130.811 5.51758 130.908 6.5918 131.885 7.27539ZM111.816-9.42383C112.744-8.78906 113.867-8.93555 114.551-9.86328C119.336-16.0645 122.754-24.8047 122.754-35.2539C122.754-45.7031 119.336-54.4434 114.551-60.6934C113.867-61.5723 112.744-61.7676 111.816-61.1328C110.889-60.4492 110.693-59.2285 111.475-58.2031C116.504-51.3184 118.848-44.3848 118.848-35.2539C118.848-26.1719 116.504-19.2383 111.475-12.3535C110.742-11.2793 110.889-10.1074 111.816-9.42383Z"/>
  </g>
  <g id="Ultralight-L" transform="matrix(1 0 0 1 466.84 1556)">
   <path d="M149.854 24.0234C150.488 24.4629 151.27 24.2676 151.66 23.6328C161.621 7.17773 169.971-10.1562 169.971-35.2539C169.971-60.3516 161.621-77.7344 151.66-94.1895C151.27-94.8242 150.488-95.0195 149.854-94.5801C149.268-94.1895 149.121-93.3105 149.561-92.627C159.326-76.5137 167.334-59.8633 167.334-35.2539C167.334-10.6934 159.326 6.00586 149.561 22.0703C149.121 22.8027 149.268 23.6328 149.854 24.0234ZM22.998-13.7695L43.0664-13.7695C44.2383-13.7695 44.9707-13.4277 45.752-12.7441L76.6602 14.6973C77.6367 15.6738 78.9551 16.5039 80.5176 16.5039C82.8613 16.5039 83.9844 14.7461 83.9844 12.5977L83.9844-83.2031C83.9844-85.3516 82.8613-87.1582 80.5664-87.1582C79.0039-87.1582 77.6855-86.1328 76.6602-85.2539L45.752-56.9336C44.9707-56.25 44.2383-56.1035 43.0664-56.1035L22.998-56.1035C18.0176-56.1035 15.7715-53.6133 15.7715-48.7793L15.7715-20.9473C15.7715-15.9668 18.1152-13.7695 22.998-13.7695ZM22.9492-16.3086C19.4824-16.3086 18.3594-17.5293 18.3594-20.9961L18.3594-48.6816C18.3594-52.2461 19.4824-53.4668 22.9492-53.4668L42.7246-53.4668C44.7754-53.4668 46.0449-53.7109 47.6074-55.1758L78.5156-83.4961C79.1016-83.9844 79.4922-84.4727 80.2734-84.4727C80.9082-84.4727 81.3965-84.082 81.3965-83.252L81.3965 12.5488C81.3965 13.4277 80.9082 13.8672 80.3223 13.8672C79.834 13.8672 79.4434 13.6719 78.6133 12.9395L47.6074-14.5996C46.1426-15.918 44.7754-16.3086 42.7246-16.3086ZM130.029 7.12891C130.713 7.56836 131.396 7.4707 131.836 6.88477C139.99-3.41797 145.361-19.2383 145.361-35.2539C145.361-51.3184 139.99-67.0898 131.836-77.4414C131.396-77.9785 130.713-78.125 130.029-77.6367C129.395-77.1973 129.346-76.5137 129.883-75.7812C138.184-64.7949 142.773-50.6348 142.773-35.2539C142.773-19.9219 138.232-5.71289 129.883 5.22461C129.346 5.95703 129.395 6.64062 130.029 7.12891ZM110.693-9.66797C111.377-9.17969 112.061-9.27734 112.549-9.86328C117.334-16.0156 120.85-24.6582 120.85-35.2539C120.85-45.8984 117.334-54.4922 112.549-60.6934C112.061-61.2305 111.377-61.377 110.693-60.8887C110.156-60.4492 110.01-59.7168 110.547-58.9844C115.82-51.709 118.262-44.7754 118.262-35.2539C118.262-25.7324 115.82-18.8477 110.547-11.5723C110.01-10.8398 110.156-10.1074 110.693-9.66797Z"/>
  </g>
  <g id="Black-M" transform="matrix(1 0 0 1 2834.43 1126)">
   <path d="M154.834 20.166C159.229 22.5586 164.453 21.2891 166.895 17.0898C175.879 1.66016 181.104-16.0156 181.104-35.0586C181.104-54.1504 175.879-71.8262 166.895-87.207C164.453-91.4551 159.229-92.6758 154.834-90.2832C150.244-87.7441 149.512-82.1777 152.441-77.0508C159.473-64.6973 163.525-50.3418 163.525-35.0586C163.525-19.7754 159.473-5.46875 152.441 6.93359C149.512 12.0605 150.244 17.5781 154.834 20.166ZM32.0312-9.76562L45.2148-9.76562C45.4102-9.76562 45.6055-9.76562 45.8496-9.52148L64.3555 6.98242C67.8711 10.1074 70.5566 11.5723 74.2676 11.5723C80.0293 11.5723 84.5215 7.08008 84.5215 1.31836L84.5215-71.6797C84.5215-77.4902 80.0293-81.9336 74.2676-81.9336C70.8008-81.9336 67.9688-80.6152 64.3555-77.3926L45.8496-60.9375C45.5566-60.6934 45.4102-60.5957 45.2148-60.5957L32.0312-60.5957C22.2656-60.5957 16.8457-54.8828 16.8457-44.8242L16.8457-25.5859C16.8457-15.4785 22.2656-9.76562 32.0312-9.76562ZM128.418 5.56641C132.568 7.8125 137.646 6.78711 140.137 2.7832C147.07-8.25195 150.879-21.3379 150.879-35.2539C150.879-49.2188 147.07-62.2559 140.137-73.291C137.646-77.3438 132.568-78.3203 128.418-76.0742C123.584-73.4375 123.047-67.6758 126.172-62.4512C130.762-54.4922 133.35-45.166 133.35-35.2539C133.35-25.3418 130.762-16.0156 126.172-8.10547C123.047-2.83203 123.584 2.88086 128.418 5.56641ZM101.758-9.13086C105.859-6.68945 110.693-7.71484 113.086-11.0352C117.92-17.8711 120.752-26.2207 120.752-35.2539C120.752-44.2871 117.92-52.6367 113.086-59.5703C110.693-62.8418 105.859-63.8184 101.758-61.377C97.4609-58.8379 96.3379-53.7598 100-47.3145C102.051-43.75 103.174-39.5996 103.174-35.2539C103.174-30.9082 102.051-26.7578 100-23.2422C96.3379-16.748 97.4609-11.6699 101.758-9.13086ZM35.3516-25.9277C34.668-25.9277 34.1797-26.4648 34.1797-27.0508L34.1797-43.3105C34.1797-43.9453 34.668-44.4824 35.3516-44.4824L48.7305-44.4824C50.3906-44.4824 51.5137-44.873 52.6367-45.8984L65.7227-58.0566C65.918-58.252 66.1621-58.3008 66.4062-58.3008C66.8457-58.3008 67.1875-58.0078 67.1875-57.4707L67.1875-12.8418C67.1875-12.3535 66.8457-11.9629 66.4062-11.9629C66.1621-11.9629 65.918-12.1094 65.7227-12.3047L52.6367-24.4629C51.5137-25.5371 50.3906-25.9277 48.7305-25.9277Z"/>
  </g>
  <g id="Heavy-M" transform="matrix(1 0 0 1 2542.08 1126)">
   <path d="M148.242 18.0664C152.002 20.166 156.543 19.0918 158.74 15.4297C167.578 0.732422 172.803-16.4551 172.803-35.1074C172.803-53.7598 167.578-70.9473 158.74-85.6445C156.543-89.3555 152.002-90.3809 148.242-88.2812C144.287-86.0352 143.652-81.25 146.24-76.8555C153.418-64.7461 157.617-50.4883 157.617-35.1074C157.617-19.7266 153.418-5.46875 146.24 6.64062C143.652 10.9863 144.287 15.7715 148.242 18.0664ZM30.3223-11.084L43.7012-11.084C43.9453-11.084 44.1895-11.084 44.4824-10.791L63.8184 6.44531C67.041 9.32617 69.5312 10.6934 72.9004 10.6934C78.0762 10.6934 82.0312 6.73828 82.0312 1.5625L82.0312-71.875C82.0312-77.0508 78.0762-81.1035 72.8516-81.1035C69.6777-81.1035 67.1875-79.834 63.8184-76.8066L44.4824-59.6191C44.1406-59.375 43.9453-59.2773 43.7012-59.2773L30.3223-59.2773C21.2891-59.2773 16.4062-54.1016 16.4062-44.7266L16.4062-25.6348C16.4062-16.2598 21.2891-11.084 30.3223-11.084ZM123.73 3.80859C127.344 5.85938 131.738 4.98047 133.984 1.46484C140.723-8.98438 144.531-21.7773 144.531-35.2539C144.531-48.7793 140.771-61.5723 133.984-71.9727C131.738-75.4883 127.344-76.3672 123.73-74.3652C119.629-72.0215 119.141-67.0898 121.826-62.6465C126.611-54.7852 129.346-45.2637 129.346-35.2539C129.346-25.2441 126.611-15.7227 121.826-7.91016C119.141-3.41797 119.629 1.51367 123.73 3.80859ZM99.1211-10.4004C102.637-8.25195 106.885-9.13086 109.033-12.1094C113.574-18.5059 116.26-26.6113 116.26-35.2539C116.26-43.8965 113.574-52.002 109.033-58.4473C106.885-61.4258 102.637-62.2559 99.1211-60.1074C95.3613-57.8613 94.4336-53.418 97.5586-47.998C99.8047-44.3359 101.025-39.8926 101.025-35.2539C101.025-30.6152 99.8047-26.1719 97.5586-22.5098C94.4336-17.0898 95.3613-12.6465 99.1211-10.4004ZM32.959-25.0977C31.9824-25.0977 31.4453-25.7324 31.4453-26.6113L31.4453-43.75C31.4453-44.6289 31.9824-45.2637 32.959-45.2637L46.875-45.2637C48.3887-45.2637 49.5117-45.6055 50.6348-46.6797L65.5273-60.4004C65.7715-60.5957 66.0156-60.6934 66.2598-60.6934C66.6992-60.6934 66.9922-60.3516 66.9922-59.9121L66.9922-10.4492C66.9922-9.96094 66.6992-9.61914 66.2598-9.61914C66.0156-9.61914 65.7715-9.76562 65.5273-9.96094L50.6348-23.7305C49.5117-24.7559 48.3887-25.0977 46.875-25.0977Z"/>
  </g>
  <g id="Bold-M" transform="matrix(1 0 0 1 2250.28 1126)">
   <path d="M140.869 15.6738C143.896 17.4805 147.705 16.6504 149.609 13.5254C158.35-0.341797 163.525-16.9922 163.525-35.1562C163.525-53.3203 158.252-69.9707 149.609-83.8867C147.705-86.9629 143.896-87.8418 140.869-86.0352C137.646-84.1309 137.158-80.1758 139.307-76.6113C146.582-64.8438 150.977-50.6348 150.977-35.1562C150.977-19.7266 146.582-5.46875 139.307 6.29883C137.158 9.86328 137.646 13.7695 140.869 15.6738ZM28.418-12.5977L42.041-12.5977C42.334-12.5977 42.627-12.5 42.9199-12.207L63.1836 5.85938C66.1133 8.49609 68.3594 9.7168 71.3867 9.7168C75.8301 9.7168 79.248 6.29883 79.248 1.85547L79.248-72.1191C79.248-76.5625 75.8301-80.127 71.3379-80.127C68.457-80.127 66.2598-78.9062 63.1836-76.1719L42.9199-58.1543C42.5781-57.8613 42.334-57.7637 42.041-57.7637L28.418-57.7637C20.2148-57.7637 15.8691-53.2227 15.8691-44.6289L15.8691-25.6836C15.8691-17.0898 20.2148-12.5977 28.418-12.5977ZM118.506 1.9043C121.484 3.66211 125.146 2.92969 127.051 0C133.643-9.81445 137.402-22.2656 137.402-35.2539C137.402-48.2422 133.643-60.7422 127.051-70.5078C125.146-73.4375 121.484-74.1699 118.506-72.4121C115.186-70.5078 114.795-66.5039 117.041-62.8418C122.021-55.127 124.854-45.4102 124.854-35.2539C124.854-25.0977 121.973-15.4297 117.041-7.66602C114.795-4.05273 115.186 0 118.506 1.9043ZM30.2734-24.2188C29.0039-24.2188 28.3691-24.9023 28.3691-26.123L28.3691-44.2383C28.3691-45.459 29.0039-46.1426 30.2734-46.1426L44.7754-46.1426C46.2402-46.1426 47.2656-46.4355 48.3887-47.5098L65.332-62.9883C65.5762-63.2324 65.8203-63.3301 66.1133-63.3301C66.5039-63.3301 66.7969-63.0371 66.7969-62.5977L66.7969-7.8125C66.7969-7.32422 66.5039-7.03125 66.1133-7.03125C65.8203-7.03125 65.5762-7.12891 65.332-7.37305L48.3887-22.8516C47.2656-23.877 46.2402-24.2188 44.7754-24.2188ZM96.1426-11.8164C99.0234-10.0098 102.588-10.6934 104.443-13.2812C108.691-19.1895 111.23-27.002 111.23-35.2539C111.23-43.5059 108.691-51.3184 104.443-57.2754C102.588-59.8145 99.0234-60.498 96.1426-58.6914C93.0176-56.7871 92.2852-53.0273 94.873-48.7793C97.3145-45.0195 98.6816-40.2832 98.6816-35.2539C98.6816-30.2734 97.3145-25.4883 94.873-21.7285C92.2852-17.4805 93.0176-13.7695 96.1426-11.8164Z"/>
  </g>
  <g id="Semibold-M" transform="matrix(1 0 0 1 1956.94 1126)">
   <path d="M135.791 14.0625C138.33 15.6738 141.602 14.9414 143.311 12.2559C151.953-1.07422 157.129-17.3828 157.129-35.2051C157.129-53.0273 151.855-69.2871 143.311-82.666C141.602-85.3516 138.33-86.0352 135.791-84.4727C133.057-82.8125 132.617-79.4434 134.521-76.4648C141.895-64.8926 146.436-50.7324 146.436-35.2051C146.436-19.6777 141.895-5.46875 134.521 6.05469C132.617 9.0332 133.057 12.4023 135.791 14.0625ZM27.0996-13.623L40.8691-13.623C41.2109-13.623 41.5527-13.4766 41.8457-13.2324L62.7441 5.46875C65.4785 7.91016 67.5781 9.0332 70.3125 9.0332C74.3164 9.0332 77.3438 6.05469 77.3438 2.05078L77.3438-72.2656C77.3438-76.2695 74.3164-79.4434 70.2637-79.4434C67.5781-79.4434 65.6738-78.2715 62.7441-75.6836L41.8457-57.1289C41.5039-56.8359 41.2109-56.7383 40.8691-56.7383L27.0996-56.7383C19.4824-56.7383 15.5273-52.6367 15.5273-44.5801L15.5273-25.7324C15.5273-17.6758 19.4824-13.623 27.0996-13.623ZM114.893 0.585938C117.432 2.14844 120.605 1.51367 122.266-1.02539C128.76-10.4004 132.471-22.6074 132.471-35.2539C132.471-47.9004 128.76-60.2051 122.266-69.4824C120.605-72.0703 117.432-72.6562 114.893-71.0938C112.109-69.4336 111.768-66.0645 113.721-63.0371C118.799-55.3711 121.729-45.5078 121.729-35.2539C121.729-25 118.75-15.1855 113.721-7.51953C111.816-4.49219 112.109-1.07422 114.893 0.585938ZM28.418-23.584C26.9531-23.584 26.2207-24.3164 26.2207-25.7812L26.2207-44.5312C26.2207-45.9961 26.9531-46.7285 28.418-46.7285L43.3105-46.7285C44.7266-46.7285 45.7031-47.0215 46.8262-48.0469L65.1855-64.7949C65.4297-65.0391 65.6738-65.1855 65.9668-65.1855C66.3574-65.1855 66.6504-64.8926 66.6504-64.4531L66.6504-5.95703C66.6504-5.51758 66.3574-5.22461 65.9668-5.22461C65.7227-5.22461 65.4785-5.32227 65.1855-5.56641L46.8262-22.2656C45.7031-23.291 44.7266-23.584 43.3105-23.584ZM94.0918-12.7441C96.5332-11.2305 99.6094-11.7676 101.27-14.1113C105.371-19.6777 107.764-27.2949 107.764-35.2539C107.764-43.2129 105.371-50.8301 101.27-56.3965C99.6094-58.7402 96.5332-59.3262 94.0918-57.7148C91.3574-56.0059 90.7715-52.7344 93.0176-49.3164C95.6055-45.5078 97.0215-40.5273 97.0215-35.2539C97.0215-30.0293 95.5566-25.0488 93.0176-21.1914C90.8203-17.7734 91.3574-14.502 94.0918-12.7441Z"/>
  </g>
  <g id="Medium-M" transform="matrix(1 0 0 1 1662.79 1126)">
   <path d="M131.934 12.8418C134.082 14.2578 136.963 13.623 138.525 11.2793C147.119-1.61133 152.295-17.627 152.295-35.2051C152.295-52.832 147.021-68.7988 138.525-81.7383C136.963-84.1309 134.082-84.7168 131.934-83.3008C129.59-81.7871 129.248-78.9062 130.859-76.3184C138.33-64.9414 142.969-50.8301 142.969-35.2051C142.969-19.6777 138.33-5.46875 130.859 5.85938C129.248 8.44727 129.59 11.3281 131.934 12.8418ZM26.123-14.3555L39.9414-14.3555C40.332-14.3555 40.7227-14.2578 41.0156-13.9648L62.4512 5.17578C64.9902 7.4707 66.9434 8.54492 69.5312 8.54492C73.1445 8.54492 75.8789 5.81055 75.8789 2.19727L75.8789-72.3633C75.8789-76.0254 73.1445-78.9551 69.4336-78.9551C66.9434-78.9551 65.1855-77.832 62.4512-75.3418L41.0156-56.3477C40.7227-56.0547 40.332-55.957 39.9414-55.957L26.123-55.957C18.8965-55.957 15.2344-52.1484 15.2344-44.5312L15.2344-25.7812C15.2344-18.1152 18.9453-14.3555 26.123-14.3555ZM112.158-0.390625C114.404 0.976562 117.139 0.488281 118.652-1.80664C125.049-10.791 128.711-22.8516 128.711-35.2539C128.711-47.6562 125.098-59.7656 118.652-68.7012C117.139-70.9961 114.404-71.5332 112.158-70.1172C109.814-68.6523 109.473-65.7227 111.182-63.1348C116.406-55.5176 119.385-45.6055 119.385-35.2539C119.385-24.9512 116.309-15.0391 111.182-7.37305C109.521-4.78516 109.814-1.9043 112.158-0.390625ZM27.002-23.0957C25.3906-23.0957 24.6094-23.877 24.6094-25.4883L24.6094-44.7754C24.6094-46.4355 25.3906-47.2168 27.002-47.2168L42.2363-47.2168C43.5547-47.2168 44.5312-47.4609 45.6543-48.4863L65.0879-66.2109C65.332-66.4062 65.5762-66.5527 65.8691-66.5527C66.2598-66.5527 66.5527-66.3086 66.5527-65.8691L66.5527-4.58984C66.5527-4.10156 66.2598-3.85742 65.918-3.85742C65.625-3.85742 65.3809-3.95508 65.0879-4.19922L45.6543-21.8262C44.5312-22.8516 43.5547-23.0957 42.2363-23.0957ZM92.5293-13.4766C94.6289-12.1094 97.3633-12.5977 98.877-14.7461C102.832-20.0195 105.176-27.4902 105.176-35.2539C105.176-43.0176 102.832-50.4395 98.877-55.7617C97.3633-57.9102 94.6289-58.3984 92.5293-56.9824C90.1367-55.4199 89.6484-52.5391 91.6016-49.707C94.2871-45.8496 95.8008-40.6738 95.8008-35.2539C95.8008-29.834 94.2383-24.707 91.6016-20.8008C89.6973-17.9688 90.1367-15.0879 92.5293-13.4766Z"/>
  </g>
  <g id="Regular-M" transform="matrix(1 0 0 1 1369.42 1126)">
   <path d="M126.904 11.2305C128.564 12.4512 130.957 11.9629 132.275 10.0098C140.82-2.34375 145.947-18.0176 145.947-35.2539C145.947-52.5391 140.674-68.1152 132.275-80.5176C130.957-82.5195 128.564-82.959 126.904-81.7383C125.049-80.4688 124.805-78.1738 126.123-76.1719C133.691-64.9902 138.477-50.9277 138.477-35.2539C138.477-19.6289 133.691-5.46875 126.123 5.66406C124.805 7.66602 125.049 9.96094 126.904 11.2305ZM24.8047-15.3809L38.8184-15.3809C39.2578-15.3809 39.6484-15.2344 39.9902-14.9414L62.0117 4.78516C64.3555 6.88477 66.1621 7.86133 68.5059 7.86133C71.6309 7.86133 74.0234 5.56641 74.0234 2.39258L74.0234-72.5098C74.0234-75.6836 71.6309-78.2715 68.4082-78.2715C66.0645-78.2715 64.5508-77.1973 62.0117-74.9023L39.9902-55.3711C39.6484-55.0781 39.2578-54.9316 38.8184-54.9316L24.8047-54.9316C18.1641-54.9316 14.8926-51.5625 14.8926-44.4824L14.8926-25.7812C14.8926-18.7012 18.2129-15.3809 24.8047-15.3809ZM108.594-1.70898C110.4-0.488281 112.646-0.927734 113.965-2.7832C120.215-11.377 123.877-23.1934 123.877-35.2539C123.877-47.3145 120.264-59.2285 113.965-67.7246C112.646-69.5801 110.4-70.0195 108.594-68.7988C106.787-67.5781 106.494-65.2832 107.91-63.2812C113.232-55.7617 116.309-45.6543 116.309-35.2539C116.309-24.8535 113.135-14.8438 107.91-7.22656C106.543-5.22461 106.787-2.92969 108.594-1.70898ZM25.1465-22.5098C23.3398-22.5098 22.5098-23.3398 22.5098-25.1465L22.5098-45.1172C22.5098-46.9727 23.3398-47.8027 25.1465-47.8027L40.7715-47.8027C42.041-47.8027 43.0176-48.0469 44.1406-49.0723L64.9414-67.9688C65.1855-68.2129 65.4297-68.3594 65.7715-68.3594C66.1133-68.3594 66.4062-68.1152 66.4062-67.6758L66.4062-2.7832C66.4062-2.34375 66.1133-2.05078 65.7715-2.05078C65.5273-2.05078 65.2344-2.19727 64.9414-2.44141L44.1406-21.2402C43.0176-22.2168 42.041-22.5098 40.7715-22.5098ZM90.5273-14.4531C92.1387-13.3301 94.4336-13.6719 95.752-15.5762C99.5117-20.5078 101.758-27.7832 101.758-35.2539C101.758-42.7246 99.5117-49.9512 95.752-54.9316C94.4336-56.8359 92.1387-57.2266 90.5273-56.0547C88.5254-54.6875 88.2324-52.2461 89.7461-50.2441C92.5781-46.3379 94.1895-40.918 94.1895-35.2539C94.1895-29.5898 92.5293-24.2188 89.7461-20.2637C88.2812-18.2129 88.5254-15.8691 90.5273-14.4531Z"/>
  </g>
  <g id="Light-M" transform="matrix(1 0 0 1 1075.35 1126)">
   <path d="M123.535 11.0352C124.854 12.0117 126.709 11.6211 127.686 10.1562C135.986-2.34375 141.553-17.334 141.553-35.2539C141.553-53.1738 135.889-68.1152 127.686-80.6641C126.709-82.1777 124.854-82.5195 123.535-81.5918C122.168-80.6152 121.924-78.8086 122.949-77.2461C130.518-65.6738 135.742-52.002 135.742-35.2539C135.742-18.5547 130.518-4.78516 122.949 6.73828C121.924 8.30078 122.168 10.1074 123.535 11.0352ZM22.6562-16.3574L37.1094-16.3574C37.6953-16.3574 38.1836-16.2109 38.5742-15.8203L61.2305 4.39453C63.0371 6.05469 64.5996 6.93359 66.6016 6.93359C69.3359 6.93359 71.2402 4.93164 71.2402 2.19727L71.2402-72.4609C71.2402-75.1953 69.3359-77.4414 66.5527-77.4414C64.5508-77.4414 63.1836-76.416 61.2305-74.6582L38.5742-54.3457C38.1836-53.9551 37.6953-53.8574 37.1094-53.8574L22.6562-53.8574C16.8457-53.8574 14.0625-50.9277 14.0625-44.873L14.0625-25.293C14.0625-19.1895 16.8945-16.3574 22.6562-16.3574ZM22.9004-21.875C20.8008-21.875 19.9219-22.7539 19.9219-24.8535L19.9219-45.2637C19.9219-47.4121 20.8008-48.291 22.9004-48.291L38.4277-48.291C39.7461-48.291 40.7227-48.4863 41.8945-49.5605L63.6719-69.4336C63.9648-69.6777 64.2578-69.9219 64.6484-69.9219C65.0391-69.9219 65.3809-69.6777 65.3809-69.1406L65.3809-1.36719C65.3809-0.830078 65.0391-0.537109 64.6973-0.537109C64.3555-0.537109 64.1113-0.683594 63.7207-1.02539L41.8945-20.6055C40.7715-21.6309 39.7461-21.875 38.4277-21.875ZM106.152-1.95312C107.568-0.976562 109.277-1.31836 110.303-2.73438C116.553-11.1328 120.361-23.0957 120.361-35.2539C120.361-47.4609 116.602-59.4727 110.303-67.7734C109.277-69.2383 107.568-69.5312 106.152-68.6035C104.785-67.627 104.541-65.8691 105.664-64.3066C111.328-56.4941 114.551-46.1426 114.551-35.2539C114.551-24.3652 111.279-14.0625 105.664-6.20117C104.59-4.63867 104.785-2.88086 106.152-1.95312ZM89.0625-14.7461C90.332-13.8672 92.0898-14.1113 93.1152-15.5762C96.8262-20.459 99.2188-27.5391 99.2188-35.2539C99.2188-42.9688 96.8262-50.0488 93.1152-54.9316C92.0898-56.3965 90.332-56.6895 89.0625-55.7617C87.5488-54.6875 87.3047-52.8809 88.4766-51.3184C91.6992-46.875 93.4082-41.4551 93.4082-35.2539C93.4082-29.0527 91.6992-23.6816 88.4766-19.2383C87.3047-17.627 87.5488-15.8203 89.0625-14.7461Z"/>
  </g>
  <g id="Thin-M" transform="matrix(1 0 0 1 782.106 1126)">
   <path d="M119.141 10.8398C119.971 11.4258 121.045 11.1816 121.631 10.3027C129.59-2.34375 135.693-16.4062 135.693-35.2539C135.693-54.1016 129.541-68.1641 121.631-80.8105C121.045-81.7383 119.971-81.9824 119.141-81.3477C118.311-80.8105 118.164-79.6875 118.75-78.7109C126.318-66.6016 132.129-53.3691 132.129-35.2539C132.129-17.1387 126.318-3.90625 118.75 8.20312C118.164 9.13086 118.311 10.2539 119.141 10.8398ZM19.7754-17.6758L34.8633-17.6758C35.6445-17.6758 36.1816-17.4805 36.6699-16.9922L60.1074 3.80859C61.3281 4.93164 62.5977 5.71289 64.1113 5.71289C66.3086 5.71289 67.5781 4.10156 67.5781 2.00195L67.5781-72.4121C67.5781-74.5117 66.3086-76.2695 64.0625-76.2695C62.5488-76.2695 61.4258-75.3906 60.1074-74.2676L36.6699-52.9785C36.1816-52.5391 35.6445-52.3926 34.8633-52.3926L19.7754-52.3926C15.1367-52.3926 12.9395-50.0488 12.9395-45.3613L12.9395-24.6094C12.9395-19.873 15.1855-17.6758 19.7754-17.6758ZM19.873-21.0938C17.3828-21.0938 16.5527-22.0215 16.5527-24.4629L16.5527-45.5078C16.5527-47.998 17.3828-48.9258 19.873-48.9258L35.2539-48.9258C36.7188-48.9258 37.7441-49.1211 38.916-50.2441L61.9629-71.3379C62.3535-71.6797 62.6953-72.0215 63.1836-72.0215C63.6719-72.0215 64.0137-71.6797 64.0137-71.0938L64.0137 0.488281C64.0137 1.12305 63.6719 1.46484 63.2324 1.46484C62.8906 1.46484 62.5977 1.31836 62.0117 0.830078L38.916-19.8242C37.793-20.8008 36.7188-21.0938 35.2539-21.0938ZM102.93-2.19727C103.809-1.61133 104.834-1.80664 105.469-2.63672C111.719-10.791 115.771-22.9492 115.771-35.2539C115.771-47.6074 111.768-59.7656 105.469-67.8711C104.834-68.7012 103.809-68.8965 102.93-68.3105C102.1-67.7246 101.953-66.6504 102.637-65.7227C108.789-57.4707 112.207-46.7285 112.207-35.2539C112.207-23.7793 108.789-13.0371 102.637-4.83398C101.953-3.85742 102.1-2.83203 102.93-2.19727ZM87.1094-15.1367C87.9395-14.5508 88.9648-14.7461 89.5996-15.5762C93.3105-20.4102 95.8984-27.2461 95.8984-35.2539C95.8984-43.2617 93.3105-50.0977 89.5996-54.9316C88.9648-55.8105 87.9395-55.957 87.1094-55.3711C86.2305-54.7363 86.084-53.6621 86.7676-52.6855C90.5273-47.5098 92.334-42.1387 92.334-35.2539C92.334-28.3691 90.5273-22.998 86.7676-17.8223C86.084-16.8457 86.2305-15.7715 87.1094-15.1367Z"/>
  </g>
  <g id="Ultralight-M" transform="matrix(1 0 0 1 487.177 1126)">
   <path d="M116.846 10.7422C117.48 11.1328 118.164 10.9863 118.555 10.3516C126.318-2.34375 132.715-15.9668 132.715-35.2539C132.715-54.541 126.318-68.1641 118.555-80.9082C118.164-81.4941 117.48-81.6895 116.846-81.25C116.309-80.9082 116.211-80.127 116.602-79.4434C124.17-67.0898 130.273-54.1016 130.273-35.2539C130.273-16.4551 124.17-3.41797 116.602 8.93555C116.211 9.57031 116.309 10.3516 116.846 10.7422ZM18.3105-18.3594L33.7402-18.3594C34.6191-18.3594 35.1562-18.1152 35.7422-17.627L59.5703 3.56445C60.4004 4.39453 61.5234 5.07812 62.8418 5.07812C64.7461 5.07812 65.7227 3.66211 65.7227 1.85547L65.7227-72.4121C65.7227-74.1699 64.7461-75.6836 62.8418-75.6836C61.5234-75.6836 60.498-74.8535 59.5703-74.0723L35.7422-52.2949C35.1562-51.7578 34.6191-51.6602 33.7402-51.6602L18.3105-51.6602C14.2578-51.6602 12.4023-49.6094 12.4023-45.6055L12.4023-24.2676C12.4023-20.2148 14.3066-18.3594 18.3105-18.3594ZM18.3105-20.7031C15.6738-20.7031 14.7949-21.6309 14.7949-24.2676L14.7949-45.6055C14.7949-48.291 15.6738-49.2676 18.3105-49.2676L33.6426-49.2676C35.2051-49.2676 36.1816-49.4141 37.3535-50.5371L61.084-72.3145C61.5234-72.6562 61.8652-73.0469 62.4023-73.0469C62.9395-73.0469 63.2812-72.7539 63.2812-72.1191L63.2812 1.46484C63.2812 2.14844 62.9395 2.49023 62.5 2.49023C62.1094 2.49023 61.8164 2.34375 61.1816 1.75781L37.3535-19.3848C36.2305-20.4102 35.2051-20.7031 33.6426-20.7031ZM101.318-2.34375C101.904-1.95312 102.539-2.05078 102.979-2.58789C109.277-10.6445 113.379-22.8516 113.379-35.2539C113.379-47.6562 109.277-59.9121 102.979-67.9199C102.539-68.457 101.904-68.5547 101.318-68.1641C100.684-67.7246 100.635-67.0898 101.123-66.4062C107.52-58.0078 110.986-47.0703 110.986-35.2539C110.986-23.4375 107.52-12.5488 101.123-4.10156C100.635-3.4668 100.684-2.7832 101.318-2.34375ZM86.1328-15.332C86.7188-14.8926 87.3535-15.0391 87.793-15.5762C91.5527-20.3613 94.2383-27.0996 94.2383-35.2539C94.2383-43.457 91.5527-50.1465 87.793-54.9316C87.3535-55.4688 86.7188-55.6152 86.1328-55.1758C85.5957-54.7852 85.4492-54.0527 85.9375-53.3691C89.9414-47.9004 91.7969-42.5293 91.7969-35.2539C91.7969-27.9785 89.9414-22.6562 85.9375-17.1387C85.4492-16.4551 85.5957-15.7715 86.1328-15.332Z"/>
  </g>
  <g id="Black-S" transform="matrix(1 0 0 1 2856.15 696)">
   <path d="M120.85 8.00781C124.219 9.86328 128.271 8.88672 130.176 5.61523C137.207-6.39648 141.309-20.2148 141.309-35.1074C141.309-50 137.207-63.8184 130.176-75.8301C128.271-79.1016 124.219-80.0781 120.85-78.2227C117.285-76.2207 116.699-71.9238 118.994-67.9688C124.512-58.3008 127.686-47.0703 127.686-35.1074C127.686-23.1445 124.512-11.9141 118.994-2.24609C116.699 1.70898 117.285 6.00586 120.85 8.00781ZM25-15.3809L35.3516-15.3809C35.498-15.3809 35.6445-15.3809 35.8398-15.1855L50.3906-2.19727C53.125 0.244141 55.2246 1.36719 58.1055 1.36719C62.5977 1.36719 66.0645-2.09961 66.0645-6.5918L66.0645-63.8184C66.0645-68.3105 62.5977-71.7773 58.1055-71.7773C55.4199-71.7773 53.2227-70.752 50.3906-68.2129L35.8398-55.2734C35.5957-55.0781 35.498-55.0293 35.3516-55.0293L25-55.0293C17.3828-55.0293 13.1836-50.5859 13.1836-42.7246L13.1836-27.6855C13.1836-19.8242 17.3828-15.3809 25-15.3809ZM100.293-3.41797C103.516-1.66016 107.422-2.44141 109.375-5.56641C114.795-14.1602 117.773-24.3652 117.773-35.2539C117.773-46.1426 114.795-56.3477 109.375-64.9414C107.422-68.0664 103.516-68.8477 100.293-67.0898C96.5332-65.0391 96.1426-60.5957 98.5352-56.543C102.148-50.3418 104.199-43.0176 104.199-35.2539C104.199-27.4902 102.148-20.166 98.5352-13.9648C96.1426-9.91211 96.5332-5.46875 100.293-3.41797ZM79.541-14.8926C82.7148-12.9883 86.4746-13.7695 88.3301-16.3574C92.0898-21.6797 94.2871-28.2227 94.2871-35.2539C94.2871-42.2852 92.0898-48.8281 88.3301-54.1992C86.4746-56.7383 82.7148-57.5195 79.541-55.6152C76.2207-53.6621 75.3418-49.707 78.1738-44.7266C79.7852-41.9434 80.6641-38.6719 80.6641-35.2539C80.6641-31.8359 79.7852-28.5645 78.1738-25.7812C75.3418-20.8008 76.2207-16.8457 79.541-14.8926ZM27.5391-27.8809C27.002-27.8809 26.6113-28.3203 26.6113-28.8086L26.6113-41.6016C26.6113-42.0898 27.002-42.5293 27.5391-42.5293L38.0859-42.5293C39.3555-42.5293 40.2344-42.8223 41.1133-43.6523L51.5137-53.2715C51.6602-53.418 51.8555-53.4668 52.0508-53.4668C52.3926-53.4668 52.6367-53.2227 52.6367-52.832L52.6367-17.5293C52.6367-17.1387 52.3926-16.8457 52.0508-16.8457C51.8555-16.8457 51.6602-16.9434 51.5137-17.0898L41.1133-26.7578C40.2344-27.5879 39.3555-27.8809 38.0859-27.8809Z"/>
  </g>
  <g id="Heavy-S" transform="matrix(1 0 0 1 2562.49 696)">
   <path d="M116.162 6.39648C119.092 8.10547 122.705 7.22656 124.463 4.3457C131.396-7.12891 135.449-20.6543 135.449-35.1562C135.449-49.6094 131.396-63.1348 124.463-74.6094C122.705-77.5391 119.092-78.3691 116.162-76.709C113.086-74.9023 112.549-71.1426 114.6-67.6758C120.215-58.3008 123.486-47.0703 123.486-35.1562C123.486-23.2422 120.215-12.0117 114.6-2.58789C112.549 0.830078 113.086 4.63867 116.162 6.39648ZM23.9258-16.2598L34.375-16.2598C34.5703-16.2598 34.7168-16.2598 34.9121-16.0645L50.0488-2.53906C52.6367-0.244141 54.5898 0.78125 57.2754 0.78125C61.3281 0.78125 64.4531-2.29492 64.4531-6.39648L64.4531-63.9648C64.4531-68.0176 61.3281-71.1914 57.2266-71.1914C54.7363-71.1914 52.7344-70.2148 50.0488-67.8223L34.9121-54.3945C34.7168-54.1992 34.5703-54.1016 34.375-54.1016L23.9258-54.1016C16.7969-54.1016 12.9395-50.0488 12.9395-42.627L12.9395-27.7832C12.9395-20.3613 16.7969-16.2598 23.9258-16.2598ZM96.9727-4.6875C99.8047-3.125 103.271-3.80859 105.029-6.5918C110.303-14.7461 113.281-24.707 113.281-35.2539C113.281-45.8008 110.352-55.7617 105.029-63.916C103.271-66.6992 99.8047-67.3828 96.9727-65.8203C93.7012-63.9648 93.3594-60.1074 95.459-56.5918C99.1699-50.4883 101.318-43.0664 101.318-35.2539C101.318-27.4414 99.1699-20.0195 95.459-13.916C93.3594-10.4004 93.7012-6.54297 96.9727-4.6875ZM77.6367-15.8203C80.4199-14.1113 83.7891-14.7949 85.498-17.1875C89.0625-22.168 91.1133-28.5156 91.1133-35.2539C91.1133-41.9922 89.0625-48.3398 85.498-53.3691C83.7891-55.7129 80.4199-56.3965 77.6367-54.6875C74.707-52.8809 73.9746-49.3652 76.4648-45.166C78.1738-42.334 79.1016-38.8672 79.1016-35.2539C79.1016-31.6406 78.1738-28.1738 76.4648-25.3418C73.9746-21.1426 74.707-17.627 77.6367-15.8203ZM25.9766-27.3438C25.2441-27.3438 24.8047-27.832 24.8047-28.5156L24.8047-41.8945C24.8047-42.5781 25.2441-43.0664 25.9766-43.0664L36.9141-43.0664C38.0859-43.0664 38.9648-43.3594 39.8438-44.1895L51.5137-54.8828C51.6602-55.0293 51.8555-55.127 52.0508-55.127C52.3926-55.127 52.5879-54.8828 52.5879-54.4922L52.5879-15.8691C52.5879-15.4785 52.3926-15.2344 52.0508-15.2344C51.8555-15.2344 51.6602-15.332 51.5137-15.4785L39.8438-26.2207C38.9648-27.0508 38.0859-27.3438 36.9141-27.3438Z"/>
  </g>
  <g id="Bold-S" transform="matrix(1 0 0 1 2269.23 696)">
   <path d="M110.938 4.63867C113.379 6.10352 116.455 5.37109 118.018 2.88086C124.951-7.95898 128.906-21.1426 128.906-35.2051C128.906-49.2188 124.854-62.4023 118.018-73.2422C116.455-75.7812 113.379-76.4648 110.938-75C108.35-73.4375 107.91-70.2637 109.668-67.3828C115.381-58.252 118.75-47.0703 118.75-35.2051C118.75-23.3398 115.381-12.0605 109.668-2.97852C107.91-0.0976562 108.35 3.07617 110.938 4.63867ZM22.7539-17.2852L33.3008-17.2852C33.4961-17.2852 33.6914-17.2363 33.9355-17.041L49.707-2.92969C52.0996-0.78125 53.9062 0.195312 56.3477 0.195312C59.9121 0.195312 62.6953-2.53906 62.6953-6.15234L62.6953-64.1113C62.6953-67.7246 59.9121-70.6055 56.2988-70.6055C53.9551-70.6055 52.2461-69.6289 49.707-67.334L33.9355-53.3691C33.6914-53.1738 33.4961-53.125 33.3008-53.125L22.7539-53.125C16.1133-53.125 12.6465-49.4629 12.6465-42.5293L12.6465-27.8809C12.6465-20.9473 16.1133-17.2852 22.7539-17.2852ZM93.2617-6.15234C95.6543-4.73633 98.6328-5.32227 100.195-7.71484C105.322-15.4297 108.252-25.0977 108.252-35.2539C108.252-45.4102 105.371-55.127 100.195-62.793C98.6328-65.1855 95.6543-65.7715 93.2617-64.3555C90.5762-62.793 90.2344-59.5215 92.0898-56.6406C95.8984-50.6348 98.0469-43.1152 98.0469-35.2539C98.0469-27.3926 95.8496-19.873 92.0898-13.8672C90.2832-10.9863 90.5762-7.71484 93.2617-6.15234ZM24.1699-26.709C23.2422-26.709 22.7539-27.2461 22.7539-28.1738L22.7539-42.2363C22.7539-43.1641 23.2422-43.7012 24.1699-43.7012L35.5957-43.7012C36.7188-43.7012 37.5-43.9453 38.3789-44.7266L51.5137-56.7383C51.6602-56.8848 51.8555-56.9336 52.0508-56.9336C52.3438-56.9336 52.5879-56.7383 52.5879-56.3965L52.5879-14.0137C52.5879-13.6719 52.3438-13.4277 52.0508-13.4277C51.8555-13.4277 51.6602-13.5254 51.5137-13.6719L38.3789-25.6836C37.5-26.4648 36.7188-26.709 35.5957-26.709ZM75.5859-16.8457C77.8809-15.3809 80.8105-15.9668 82.3242-18.1152C85.6445-22.7051 87.5977-28.8574 87.5977-35.2539C87.5977-41.6504 85.6445-47.8027 82.3242-52.4414C80.8105-54.541 77.8809-55.127 75.5859-53.6621C72.998-52.0508 72.4121-48.9746 74.5117-45.6055C76.3672-42.8223 77.3926-39.0625 77.3926-35.2539C77.3926-31.4453 76.3184-27.7344 74.5117-24.9023C72.4609-21.4844 72.998-18.457 75.5859-16.8457Z"/>
  </g>
  <g id="Semibold-S" transform="matrix(1 0 0 1 1974.86 696)">
   <path d="M107.324 3.41797C109.424 4.73633 112.158 4.10156 113.623 1.9043C120.459-8.49609 124.414-21.4844 124.414-35.2051C124.414-48.9258 120.361-61.8652 113.623-72.3145C112.158-74.5605 109.424-75.1465 107.324-73.8281C105.078-72.4121 104.736-69.6289 106.299-67.1387C112.109-58.252 115.527-47.0703 115.527-35.2051C115.527-23.3887 112.109-12.1582 106.299-3.27148C104.736-0.78125 105.078 2.00195 107.324 3.41797ZM21.9238-17.9688L32.5195-17.9688C32.7637-17.9688 33.0078-17.9199 33.2031-17.7246L49.4141-3.22266C51.709-1.17188 53.418-0.244141 55.7129-0.244141C58.9355-0.244141 61.4746-2.68555 61.4746-5.95703L61.4746-64.2578C61.4746-67.5293 58.9355-70.166 55.6152-70.166C53.418-70.166 51.8555-69.1895 49.4141-67.041L33.2031-52.6855C33.0078-52.4902 32.7637-52.3926 32.5195-52.3926L21.9238-52.3926C15.6738-52.3926 12.4023-49.0723 12.4023-42.4316L12.4023-27.9785C12.4023-21.3379 15.6738-17.9688 21.9238-17.9688ZM90.6738-7.12891C92.8223-5.85938 95.4102-6.34766 96.8262-8.49609C101.904-15.8691 104.785-25.3906 104.785-35.2539C104.785-45.1172 101.953-54.6875 96.8262-62.0117C95.4102-64.1602 92.8223-64.6484 90.6738-63.3789C88.4277-61.9629 88.0859-59.1797 89.6973-56.6406C93.6035-50.7324 95.8496-43.1152 95.8496-35.2539C95.8496-27.3926 93.5547-19.7754 89.6973-13.8672C88.1348-11.3281 88.4277-8.54492 90.6738-7.12891ZM22.9492-26.2695C21.875-26.2695 21.3379-26.8555 21.3379-27.9297L21.3379-42.4805C21.3379-43.5547 21.875-44.0918 22.9492-44.0918L34.668-44.0918C35.7422-44.0918 36.5234-44.3359 37.4023-45.1172L51.5137-58.0078C51.6602-58.1543 51.8555-58.2031 52.0508-58.2031C52.3438-58.2031 52.5391-58.0078 52.5391-57.666L52.5391-12.6953C52.5391-12.4023 52.3438-12.1582 52.0508-12.1582C51.8555-12.1582 51.6602-12.2559 51.5137-12.4023L37.4023-25.2441C36.5234-26.0742 35.7422-26.2695 34.668-26.2695ZM74.1211-17.5781C76.123-16.2598 78.7109-16.748 80.127-18.7012C83.3008-23.0957 85.1562-29.1016 85.1562-35.2539C85.1562-41.4062 83.3008-47.4121 80.127-51.8066C78.7109-53.7598 76.123-54.248 74.1211-52.9297C71.8262-51.4648 71.3867-48.7305 73.1934-45.9473C75.1465-43.1152 76.2207-39.209 76.2207-35.2539C76.2207-31.2988 75.0977-27.3926 73.1934-24.5605C71.3867-21.7285 71.8262-19.043 74.1211-17.5781Z"/>
  </g>
  <g id="Medium-S" transform="matrix(1 0 0 1 1679.93 696)">
   <path d="M104.59 2.44141C106.445 3.66211 108.936 3.17383 110.254 1.12305C117.09-8.93555 120.947-21.7285 120.947-35.2051C120.947-48.7305 116.992-61.4746 110.254-71.582C108.936-73.6328 106.445-74.1211 104.59-72.9004C102.637-71.6309 102.344-69.1406 103.76-66.9922C109.57-58.252 113.037-47.0215 113.037-35.2051C113.037-23.4375 109.57-12.207 103.76-3.4668C102.344-1.26953 102.637 1.17188 104.59 2.44141ZM21.2891-18.5059L31.9824-18.5059C32.2266-18.5059 32.4707-18.4082 32.666-18.2129L49.2188-3.41797C51.416-1.46484 53.0762-0.585938 55.2246-0.585938C58.2031-0.585938 60.5469-2.83203 60.5469-5.85938L60.5469-64.3555C60.5469-67.3828 58.2031-69.8242 55.127-69.8242C53.0273-69.8242 51.6113-68.8965 49.2188-66.7969L32.666-52.1973C32.4707-51.9531 32.2266-51.9043 31.9824-51.9043L21.2891-51.9043C15.332-51.9043 12.2559-48.7305 12.2559-42.3828L12.2559-28.0273C12.2559-21.6309 15.332-18.5059 21.2891-18.5059ZM88.7695-7.91016C90.625-6.68945 93.0176-7.12891 94.3359-9.08203C99.3164-16.2109 102.148-25.5859 102.148-35.2539C102.148-44.9219 99.3164-54.3945 94.3359-61.4258C93.0176-63.3789 90.625-63.8184 88.7695-62.5977C86.7676-61.377 86.4746-58.8867 87.9395-56.6895C91.8945-50.8301 94.1406-43.1641 94.1406-35.2539C94.1406-27.3438 91.7969-19.7266 87.9395-13.8184C86.5234-11.6211 86.7676-9.13086 88.7695-7.91016ZM22.0215-25.9766C20.8496-25.9766 20.2637-26.5625 20.2637-27.7344L20.2637-42.6758C20.2637-43.8477 20.8496-44.4336 22.0215-44.4336L33.9844-44.4336C35.0098-44.4336 35.791-44.6289 36.6699-45.459L51.5137-58.9355C51.6602-59.082 51.8555-59.1797 52.0508-59.1797C52.3438-59.1797 52.5391-58.9844 52.5391-58.6426L52.5391-11.7676C52.5391-11.4258 52.3438-11.2305 52.0508-11.2305C51.8555-11.2305 51.6602-11.3281 51.5137-11.4746L36.6699-24.9512C35.791-25.7324 35.0098-25.9766 33.9844-25.9766ZM72.998-18.1152C74.8047-16.9434 77.1484-17.334 78.4668-19.1895C81.543-23.3398 83.3008-29.2969 83.3008-35.2539C83.3008-41.2109 81.543-47.1191 78.4668-51.3184C77.1484-53.1738 74.8047-53.5645 72.998-52.3926C70.9473-51.0254 70.5566-48.5352 72.2168-46.1914C74.1699-43.3594 75.293-39.3066 75.293-35.2539C75.293-31.2012 74.1211-27.1973 72.2168-24.3164C70.6055-21.9238 70.9473-19.4824 72.998-18.1152Z"/>
  </g>
  <g id="Regular-S" transform="matrix(1 0 0 1 1385.56 696)">
   <path d="M101.025 1.2207C102.539 2.34375 104.688 1.9043 105.859 0.146484C112.695-9.47266 116.504-22.0703 116.504-35.2539C116.504-48.4375 112.549-60.9863 105.859-70.6543C104.688-72.4609 102.539-72.8516 101.025-71.7285C99.4141-70.6055 99.1699-68.5547 100.391-66.748C106.299-58.2031 109.814-47.0215 109.814-35.2539C109.814-23.5352 106.299-12.2559 100.391-3.75977C99.1699-1.95312 99.4141 0.0976562 101.025 1.2207ZM20.5078-19.1895L31.2012-19.1895C31.4941-19.1895 31.7871-19.0918 31.9824-18.8965L48.9746-3.66211C51.0254-1.85547 52.5879-1.02539 54.5898-1.02539C57.2266-1.02539 59.3262-2.97852 59.3262-5.71289L59.3262-64.4531C59.3262-67.1387 57.2266-69.3848 54.4922-69.3848C52.4902-69.3848 51.2207-68.5059 48.9746-66.4551L31.9824-51.5137C31.7871-51.3184 31.4941-51.2207 31.2012-51.2207L20.5078-51.2207C14.8438-51.2207 12.0605-48.3398 12.0605-42.2852L12.0605-28.0762C12.0605-22.0703 14.8926-19.1895 20.5078-19.1895ZM86.2305-8.88672C87.8418-7.8125 89.8438-8.1543 91.0156-9.86328C95.8984-16.6504 98.7305-25.8789 98.7305-35.2539C98.7305-44.6289 95.9473-53.9551 91.0156-60.6445C89.8438-62.3535 87.8418-62.6953 86.2305-61.6211C84.6191-60.5469 84.3262-58.4961 85.5957-56.6895C89.6484-50.9277 91.9434-43.1641 91.9434-35.2539C91.9434-27.3438 89.5508-19.6289 85.5957-13.8184C84.375-12.0117 84.6191-9.96094 86.2305-8.88672ZM20.8008-25.5371C19.5312-25.5371 18.8477-26.1719 18.8477-27.4902L18.8477-42.9199C18.8477-44.1895 19.5312-44.873 20.8008-44.873L33.1055-44.873C34.0332-44.873 34.7656-45.0195 35.6445-45.8496L51.5137-60.2051C51.6602-60.3516 51.8555-60.4492 52.0508-60.4492C52.2949-60.4492 52.4902-60.2539 52.4902-59.9609L52.4902-10.498C52.4902-10.1562 52.2949-9.96094 52.0508-9.96094C51.8555-9.96094 51.6602-10.0586 51.5137-10.2539L35.6445-24.5605C34.7656-25.3418 34.0332-25.5371 33.1055-25.5371ZM71.582-18.7988C73.0469-17.8223 75.0977-18.1152 76.2695-19.8242C79.1992-23.7305 80.9082-29.4922 80.9082-35.2539C80.9082-41.0156 79.1992-46.7285 76.2695-50.6836C75.0977-52.3926 73.0469-52.6855 71.582-51.6602C69.8242-50.4395 69.5312-48.291 70.8984-46.4844C72.9492-43.7012 74.1211-39.4531 74.1211-35.2539C74.1211-31.0547 72.9004-26.8555 70.8984-24.0234C69.5801-22.168 69.8242-20.0684 71.582-18.7988Z"/>
  </g>
  <g id="Light-S" transform="matrix(1 0 0 1 1091.17 696)">
   <path d="M98.0957 1.07422C99.2676 1.95312 100.879 1.61133 101.807 0.244141C108.398-9.47266 112.598-21.4844 112.598-35.2539C112.598-49.0234 108.301-60.9863 101.807-70.752C100.879-72.168 99.2676-72.4609 98.0957-71.582C96.8262-70.752 96.6309-69.1406 97.5586-67.7246C103.467-58.8379 107.422-47.9492 107.422-35.2539C107.422-22.5586 103.467-11.6699 97.5586-2.7832C96.6309-1.36719 96.8262 0.244141 98.0957 1.07422ZM18.6035-20.0684L29.7363-20.0684C30.127-20.0684 30.4688-19.9219 30.7617-19.6777L48.2422-4.05273C49.9023-2.58789 51.2207-1.85547 52.9297-1.85547C55.2246-1.85547 56.8848-3.51562 56.8848-5.85938L56.8848-64.4043C56.8848-66.6992 55.2246-68.6035 52.832-68.6035C51.1719-68.6035 50.0488-67.7734 48.2422-66.2109L30.7617-50.5859C30.4688-50.3418 30.127-50.2441 29.7363-50.2441L18.6035-50.2441C13.7207-50.2441 11.3281-47.7539 11.3281-42.627L11.3281-27.6367C11.3281-22.5098 13.7207-20.0684 18.6035-20.0684ZM84.082-9.08203C85.3516-8.20312 86.9141-8.49609 87.793-9.81445C92.7246-16.4551 95.6543-25.7812 95.6543-35.2539C95.6543-44.7266 92.7246-54.1504 87.793-60.6934C86.9141-62.0117 85.3516-62.3047 84.082-61.4258C82.8613-60.5957 82.666-59.0332 83.6426-57.6172C87.9395-51.6113 90.3809-43.6035 90.3809-35.2539C90.3809-26.9043 87.8906-18.9453 83.6426-12.8906C82.666-11.4746 82.8613-9.91211 84.082-9.08203ZM18.7988-25C17.2363-25 16.6016-25.6836 16.6016-27.2461L16.6016-43.0664C16.6016-44.6289 17.2363-45.2637 18.7988-45.2637L31.0059-45.2637C32.0312-45.2637 32.7637-45.459 33.6914-46.2891L50.3906-61.4746C50.5859-61.6699 50.7812-61.8164 51.0742-61.8164C51.3672-61.8164 51.6113-61.6211 51.6113-61.2305L51.6113-9.22852C51.6113-8.83789 51.3672-8.64258 51.0742-8.64258C50.8789-8.64258 50.6348-8.74023 50.3906-8.98438L33.6914-24.0234C32.8125-24.8047 32.0312-25 31.0059-25ZM70.3125-19.043C71.4355-18.2617 73.0469-18.5547 73.9258-19.8242C76.8555-23.6816 78.7109-29.2969 78.7109-35.2539C78.7109-41.2109 76.8555-46.7773 73.9258-50.6836C73.0469-51.9531 71.4355-52.2461 70.3125-51.416C68.9453-50.4883 68.75-48.8281 69.7754-47.4121C72.168-44.1406 73.4375-39.8926 73.4375-35.2539C73.4375-30.6152 72.168-26.416 69.7754-23.0957C68.75-21.6797 68.9453-20.0195 70.3125-19.043Z"/>
  </g>
  <g id="Thin-S" transform="matrix(1 0 0 1 797.536 696)">
   <path d="M94.1895 0.927734C94.9219 1.46484 95.8984 1.2207 96.4355 0.390625C102.734-9.47266 107.422-20.6543 107.422-35.2539C107.422-49.8535 102.686-61.0352 96.4355-70.8984C95.8984-71.7285 94.9219-71.9727 94.1895-71.4355C93.4082-70.8984 93.2617-69.873 93.8477-68.9941C99.7559-59.6191 104.199-49.1699 104.199-35.2539C104.199-21.3379 99.7559-10.8398 93.8477-1.51367C93.2617-0.634766 93.4082 0.390625 94.1895 0.927734ZM16.0645-21.2402L27.7344-21.2402C28.3203-21.2402 28.7109-21.0449 29.1016-20.7031L47.3145-4.54102C48.3887-3.51562 49.4141-2.92969 50.6836-2.92969C52.5391-2.92969 53.6621-4.24805 53.6621-6.00586L53.6621-64.4043C53.6621-66.1621 52.5391-67.5781 50.6836-67.5781C49.4141-67.5781 48.4375-66.8945 47.3145-65.8691L29.1016-49.4141C28.7109-49.0723 28.3203-48.9746 27.7344-48.9746L16.0645-48.9746C12.207-48.9746 10.3516-47.0215 10.3516-43.0664L10.3516-27.0508C10.3516-23.0469 12.207-21.2402 16.0645-21.2402ZM16.1133-24.3164C14.2578-24.3164 13.623-25.0488 13.623-26.9043L13.623-43.2129C13.623-45.1172 14.2578-45.8496 16.1133-45.8496L28.2227-45.8496C29.3457-45.8496 30.127-45.9961 31.0547-46.8262L48.877-63.1348C49.1699-63.3789 49.4141-63.623 49.8047-63.623C50.1465-63.623 50.3906-63.4277 50.3906-62.9883L50.3906-7.56836C50.3906-7.12891 50.1465-6.88477 49.8047-6.88477C49.5605-6.88477 49.3164-6.98242 48.9258-7.32422L31.0547-23.291C30.1758-24.0723 29.3457-24.3164 28.2227-24.3164ZM81.2988-9.32617C82.0801-8.78906 83.0078-8.93555 83.5449-9.7168C88.4766-16.1621 91.6016-25.6348 91.6016-35.2539C91.6016-44.873 88.4766-54.3945 83.5449-60.791C83.0078-61.5723 82.0801-61.7188 81.2988-61.1816C80.5176-60.6445 80.3711-59.7168 81.0059-58.8379C85.7422-52.4902 88.3789-44.1406 88.3789-35.2539C88.3789-26.3672 85.6934-18.0664 81.0059-11.6699C80.4199-10.791 80.5176-9.86328 81.2988-9.32617ZM68.6035-19.3848C69.3359-18.8965 70.3125-19.043 70.8496-19.8242C73.7793-23.6328 75.7812-29.0527 75.7812-35.2539C75.7812-41.4551 73.7793-46.875 70.8496-50.6836C70.3125-51.4648 69.3359-51.6113 68.6035-51.0742C67.8223-50.4883 67.6758-49.5117 68.3105-48.6328C71.1426-44.7266 72.5586-40.5273 72.5586-35.2539C72.5586-29.9805 71.1426-25.7812 68.3105-21.875C67.6758-20.9961 67.8223-20.0195 68.6035-19.3848Z"/>
  </g>
  <g id="Ultralight-S" transform="matrix(1 0 0 1 502.387 696)">
   <path d="M92.1875 0.78125C92.7246 1.17188 93.3594 1.02539 93.7012 0.488281C99.8535-9.47266 104.785-20.2637 104.785-35.2539C104.785-50.2441 99.8535-61.0352 93.7012-70.9961C93.3594-71.5332 92.7246-71.6797 92.1875-71.2891C91.6504-70.9961 91.5527-70.2637 91.9434-69.6777C97.8516-60.0586 102.588-49.8047 102.588-35.2539C102.588-20.7031 97.8516-10.4492 91.9434-0.830078C91.5527-0.244141 91.6504 0.488281 92.1875 0.78125ZM14.7461-21.8262L26.7578-21.8262C27.3926-21.8262 27.832-21.6309 28.2715-21.2402L46.8262-4.78516C47.6074-4.05273 48.4863-3.4668 49.5605-3.4668C51.1719-3.4668 52.002-4.63867 52.002-6.15234L52.002-64.3555C52.002-65.8203 51.1719-67.041 49.5605-67.041C48.4863-67.041 47.6562-66.4062 46.8262-65.7227L28.2715-48.7793C27.832-48.3887 27.3926-48.291 26.7578-48.291L14.7461-48.291C11.4258-48.291 9.86328-46.6309 9.86328-43.3105L9.86328-26.709C9.86328-23.3887 11.4746-21.8262 14.7461-21.8262ZM14.7461-23.9746C12.7441-23.9746 12.0605-24.707 12.0605-26.709L12.0605-43.3594C12.0605-45.4102 12.7441-46.1426 14.7461-46.1426L26.8066-46.1426C27.9785-46.1426 28.7598-46.2891 29.6875-47.168L48.1445-64.0137C48.4375-64.3066 48.6816-64.5996 49.1211-64.5996C49.5117-64.5996 49.8047-64.3555 49.8047-63.8672L49.8047-6.73828C49.8047-6.20117 49.5117-5.95703 49.1699-5.95703C48.877-5.95703 48.6328-6.05469 48.1934-6.49414L29.6875-22.9492C28.8086-23.7305 27.9785-23.9746 26.8066-23.9746ZM79.834-9.42383C80.3711-9.08203 81.0059-9.17969 81.3965-9.66797C86.3281-16.0156 89.502-25.5371 89.502-35.2539C89.502-44.9707 86.3281-54.4922 81.3965-60.8398C81.0059-61.3281 80.3711-61.4258 79.834-61.084C79.2969-60.6934 79.248-60.0586 79.6875-59.4727C84.6191-52.9297 87.3047-44.4336 87.3047-35.2539C87.3047-26.0742 84.6191-17.5781 79.6875-11.0352C79.248-10.4492 79.2969-9.81445 79.834-9.42383ZM67.7246-19.5801C68.2617-19.2383 68.8965-19.3359 69.2871-19.8242C72.2168-23.584 74.2676-28.9062 74.2676-35.2539C74.2676-41.6016 72.2168-46.9238 69.2871-50.6836C68.8965-51.1719 68.2617-51.2695 67.7246-50.9277C67.2363-50.5371 67.1387-49.8535 67.5781-49.2676C70.6543-45.0684 72.0703-40.8691 72.0703-35.2539C72.0703-29.6387 70.6055-25.4395 67.5781-21.2402C67.1387-20.6543 67.2363-19.9707 67.7246-19.5801Z"/>
  </g>
 </g>
</svg>
