<?xml version="1.0" encoding="UTF-8"?>
<!--Generator: Apple Native CoreSVG 129-->
<!DOCTYPE svg
PUBLIC "-//W3C//DTD SVG 1.1//EN"
       "http://www.w3.org/Graphics/SVG/1.1/DTD/svg11.dtd">
<svg version="1.1" xmlns="http://www.w3.org/2000/svg" xmlns:xlink="http://www.w3.org/1999/xlink" width="3300" height="2200">
 <!--glyph: "uni10029E.medium", point size: 100.000000, font version: "Version 16.0d9e1", template writer version: "8"-->
 <g id="Notes">
  <rect height="2200" id="artboard" style="fill:white;opacity:1" width="3300" x="0" y="0"/>
  <line id="" style="fill:none;stroke:black;opacity:1;stroke-width:0.5;" x1="263" x2="3036" y1="292" y2="292"/>
  <text style="stroke:none;fill:black;font-family:-apple-system,&quot;SF Pro Display&quot;,&quot;SF Pro Text&quot;,Helvetica,sans-serif;font-weight:bold;" transform="matrix(1 0 0 1 263 322)">Weight/Scale Variations</text>
  <text style="stroke:none;fill:black;font-family:-apple-system,&quot;SF Pro Display&quot;,&quot;SF Pro Text&quot;,Helvetica,sans-serif;text-anchor:middle;" transform="matrix(1 0 0 1 559.711 322)">Ultralight</text>
  <text style="stroke:none;fill:black;font-family:-apple-system,&quot;SF Pro Display&quot;,&quot;SF Pro Text&quot;,Helvetica,sans-serif;text-anchor:middle;" transform="matrix(1 0 0 1 856.422 322)">Thin</text>
  <text style="stroke:none;fill:black;font-family:-apple-system,&quot;SF Pro Display&quot;,&quot;SF Pro Text&quot;,Helvetica,sans-serif;text-anchor:middle;" transform="matrix(1 0 0 1 1153.13 322)">Light</text>
  <text style="stroke:none;fill:black;font-family:-apple-system,&quot;SF Pro Display&quot;,&quot;SF Pro Text&quot;,Helvetica,sans-serif;text-anchor:middle;" transform="matrix(1 0 0 1 1449.84 322)">Regular</text>
  <text style="stroke:none;fill:black;font-family:-apple-system,&quot;SF Pro Display&quot;,&quot;SF Pro Text&quot;,Helvetica,sans-serif;text-anchor:middle;" transform="matrix(1 0 0 1 1746.56 322)">Medium</text>
  <text style="stroke:none;fill:black;font-family:-apple-system,&quot;SF Pro Display&quot;,&quot;SF Pro Text&quot;,Helvetica,sans-serif;text-anchor:middle;" transform="matrix(1 0 0 1 2043.27 322)">Semibold</text>
  <text style="stroke:none;fill:black;font-family:-apple-system,&quot;SF Pro Display&quot;,&quot;SF Pro Text&quot;,Helvetica,sans-serif;text-anchor:middle;" transform="matrix(1 0 0 1 2339.98 322)">Bold</text>
  <text style="stroke:none;fill:black;font-family:-apple-system,&quot;SF Pro Display&quot;,&quot;SF Pro Text&quot;,Helvetica,sans-serif;text-anchor:middle;" transform="matrix(1 0 0 1 2636.69 322)">Heavy</text>
  <text style="stroke:none;fill:black;font-family:-apple-system,&quot;SF Pro Display&quot;,&quot;SF Pro Text&quot;,Helvetica,sans-serif;text-anchor:middle;" transform="matrix(1 0 0 1 2933.4 322)">Black</text>
  <line id="" style="fill:none;stroke:black;opacity:1;stroke-width:0.5;" x1="263" x2="3036" y1="1903" y2="1903"/>
  <g id="" transform="matrix(1 0 0 1 263 1933)">
   <path d="M 9.24805 0.830078 C 13.5547 0.830078 17.1387 -2.74414 17.1387 -7.05078 C 17.1387 -11.3574 13.5449 -14.9316 9.23828 -14.9316 C 4.94141 -14.9316 1.36719 -11.3574 1.36719 -7.05078 C 1.36719 -2.74414 4.95117 0.830078 9.24805 0.830078 Z M 9.24805 -0.654297 C 5.70312 -0.654297 2.87109 -3.49609 2.87109 -7.05078 C 2.87109 -10.6055 5.69336 -13.4473 9.23828 -13.4473 C 12.793 -13.4473 15.6348 -10.6055 15.6445 -7.05078 C 15.6543 -3.49609 12.8027 -0.654297 9.24805 -0.654297 Z M 9.22852 -3.62305 C 9.69727 -3.62305 9.9707 -3.93555 9.9707 -4.45312 L 9.9707 -6.31836 L 12.002 -6.31836 C 12.5 -6.31836 12.832 -6.57227 12.832 -7.04102 C 12.832 -7.51953 12.5195 -7.7832 12.002 -7.7832 L 9.9707 -7.7832 L 9.9707 -9.81445 C 9.9707 -10.332 9.69727 -10.6543 9.22852 -10.6543 C 8.75977 -10.6543 8.50586 -10.3125 8.50586 -9.81445 L 8.50586 -7.7832 L 6.49414 -7.7832 C 5.97656 -7.7832 5.64453 -7.51953 5.64453 -7.04102 C 5.64453 -6.57227 5.99609 -6.31836 6.49414 -6.31836 L 8.50586 -6.31836 L 8.50586 -4.45312 C 8.50586 -3.95508 8.75977 -3.62305 9.22852 -3.62305 Z"/>
  </g>
  <g id="" transform="matrix(1 0 0 1 281.506 1933)">
   <path d="M 11.709 2.91016 C 17.1582 2.91016 21.6699 -1.61133 21.6699 -7.05078 C 21.6699 -12.5 17.1484 -17.0117 11.6992 -17.0117 C 6.25977 -17.0117 1.74805 -12.5 1.74805 -7.05078 C 1.74805 -1.61133 6.26953 2.91016 11.709 2.91016 Z M 11.709 1.25 C 7.09961 1.25 3.41797 -2.44141 3.41797 -7.05078 C 3.41797 -11.6602 7.08984 -15.3516 11.6992 -15.3516 C 16.3086 -15.3516 20 -11.6602 20.0098 -7.05078 C 20.0195 -2.44141 16.3184 1.25 11.709 1.25 Z M 11.6797 -2.66602 C 12.207 -2.66602 12.5098 -3.01758 12.5098 -3.59375 L 12.5098 -6.23047 L 15.3223 -6.23047 C 15.8691 -6.23047 16.25 -6.51367 16.25 -7.03125 C 16.25 -7.55859 15.8887 -7.86133 15.3223 -7.86133 L 12.5098 -7.86133 L 12.5098 -10.6836 C 12.5098 -11.25 12.207 -11.6113 11.6797 -11.6113 C 11.1621 -11.6113 10.8789 -11.2305 10.8789 -10.6836 L 10.8789 -7.86133 L 8.07617 -7.86133 C 7.50977 -7.86133 7.13867 -7.55859 7.13867 -7.03125 C 7.13867 -6.51367 7.5293 -6.23047 8.07617 -6.23047 L 10.8789 -6.23047 L 10.8789 -3.59375 C 10.8789 -3.03711 11.1621 -2.66602 11.6797 -2.66602 Z"/>
  </g>
  <g id="" transform="matrix(1 0 0 1 304.924 1933)">
   <path d="M 14.9707 5.66406 C 21.9336 5.66406 27.6953 -0.0976562 27.6953 -7.05078 C 27.6953 -14.0137 21.9238 -19.7754 14.9609 -19.7754 C 8.00781 -19.7754 2.25586 -14.0137 2.25586 -7.05078 C 2.25586 -0.0976562 8.01758 5.66406 14.9707 5.66406 Z M 14.9707 3.84766 C 8.93555 3.84766 4.08203 -1.01562 4.08203 -7.05078 C 4.08203 -13.0957 8.92578 -17.9492 14.9609 -17.9492 C 21.0059 -17.9492 25.8594 -13.0957 25.8691 -7.05078 C 25.8789 -1.01562 21.0156 3.84766 14.9707 3.84766 Z M 14.9414 -1.38672 C 15.5176 -1.38672 15.8594 -1.77734 15.8594 -2.38281 L 15.8594 -6.13281 L 19.7754 -6.13281 C 20.3711 -6.13281 20.7812 -6.46484 20.7812 -7.02148 C 20.7812 -7.59766 20.3906 -7.93945 19.7754 -7.93945 L 15.8594 -7.93945 L 15.8594 -11.8652 C 15.8594 -12.4805 15.5176 -12.8711 14.9414 -12.8711 C 14.375 -12.8711 14.0527 -12.4609 14.0527 -11.8652 L 14.0527 -7.93945 L 10.1465 -7.93945 C 9.53125 -7.93945 9.13086 -7.59766 9.13086 -7.02148 C 9.13086 -6.46484 9.55078 -6.13281 10.1465 -6.13281 L 14.0527 -6.13281 L 14.0527 -2.38281 C 14.0527 -1.79688 14.375 -1.38672 14.9414 -1.38672 Z"/>
  </g>
  <text style="stroke:none;fill:black;font-family:-apple-system,&quot;SF Pro Display&quot;,&quot;SF Pro Text&quot;,Helvetica,sans-serif;font-weight:bold;" transform="matrix(1 0 0 1 263 1953)">Design Variations</text>
  <text style="stroke:none;fill:black;font-family:-apple-system,&quot;SF Pro Display&quot;,&quot;SF Pro Text&quot;,Helvetica,sans-serif;" transform="matrix(1 0 0 1 263 1971)">Symbols are supported in up to nine weights and three scales.</text>
  <text style="stroke:none;fill:black;font-family:-apple-system,&quot;SF Pro Display&quot;,&quot;SF Pro Text&quot;,Helvetica,sans-serif;" transform="matrix(1 0 0 1 263 1989)">For optimal layout with text and other symbols, vertically align</text>
  <text style="stroke:none;fill:black;font-family:-apple-system,&quot;SF Pro Display&quot;,&quot;SF Pro Text&quot;,Helvetica,sans-serif;" transform="matrix(1 0 0 1 263 2007)">symbols with the adjacent text.</text>
  <line id="" style="fill:none;stroke:#00AEEF;stroke-width:0.5;opacity:1.0;" x1="776" x2="776" y1="1919" y2="1933"/>
  <g id="" transform="matrix(1 0 0 1 776 1933)">
   <path d="M 3.31055 0.126953 C 3.82812 0.126953 4.08203 -0.0683594 4.26758 -0.605469 L 5.52734 -4.0625 L 11.2891 -4.0625 L 12.5488 -0.605469 C 12.7344 -0.0683594 12.9883 0.126953 13.4961 0.126953 C 14.0137 0.126953 14.3457 -0.185547 14.3457 -0.673828 C 14.3457 -0.839844 14.3164 -0.986328 14.2383 -1.20117 L 9.6582 -13.3887 C 9.43359 -13.9941 9.0332 -14.2871 8.4082 -14.2871 C 7.80273 -14.2871 7.39258 -13.9941 7.17773 -13.3984 L 2.59766 -1.19141 C 2.51953 -0.976562 2.49023 -0.830078 2.49023 -0.664062 C 2.49023 -0.175781 2.80273 0.126953 3.31055 0.126953 Z M 6.00586 -5.53711 L 8.37891 -12.1094 L 8.42773 -12.1094 L 10.8008 -5.53711 Z"/>
  </g>
  <line id="" style="fill:none;stroke:#00AEEF;stroke-width:0.5;opacity:1.0;" x1="792.836" x2="792.836" y1="1919" y2="1933"/>
  <text style="stroke:none;fill:black;font-family:-apple-system,&quot;SF Pro Display&quot;,&quot;SF Pro Text&quot;,Helvetica,sans-serif;font-weight:bold;" transform="matrix(1 0 0 1 776 1953)">Margins</text>
  <text style="stroke:none;fill:black;font-family:-apple-system,&quot;SF Pro Display&quot;,&quot;SF Pro Text&quot;,Helvetica,sans-serif;" transform="matrix(1 0 0 1 776 1971)">Leading and trailing margins on the left and right side of each symbol</text>
  <text style="stroke:none;fill:black;font-family:-apple-system,&quot;SF Pro Display&quot;,&quot;SF Pro Text&quot;,Helvetica,sans-serif;" transform="matrix(1 0 0 1 776 1989)">can be adjusted by modifying the x-location of the margin guidelines.</text>
  <text style="stroke:none;fill:black;font-family:-apple-system,&quot;SF Pro Display&quot;,&quot;SF Pro Text&quot;,Helvetica,sans-serif;" transform="matrix(1 0 0 1 776 2007)">Modifications are automatically applied proportionally to all</text>
  <text style="stroke:none;fill:black;font-family:-apple-system,&quot;SF Pro Display&quot;,&quot;SF Pro Text&quot;,Helvetica,sans-serif;" transform="matrix(1 0 0 1 776 2025)">scales and weights.</text>
  <g id="" transform="matrix(1 0 0 1 1289 1933)">
   <path d="M 2.8418 1.86523 L 4.54102 3.57422 C 5.40039 4.44336 6.38672 4.38477 7.31445 3.35938 L 17.4902 -7.85156 C 17.7539 -7.76367 18.0273 -7.7832 18.3398 -7.8418 L 19.4043 -8.03711 L 20.0684 -7.36328 L 20.0293 -6.80664 C 19.9902 -6.30859 20.1172 -5.92773 20.6055 -5.44922 L 21.3672 -4.70703 C 21.8457 -4.22852 22.4609 -4.19922 22.9297 -4.66797 L 25.8398 -7.58789 C 26.3086 -8.05664 26.2891 -8.65234 25.8105 -9.13086 L 25.0391 -9.89258 C 24.5605 -10.3711 24.1895 -10.5273 23.7109 -10.4883 L 23.1348 -10.4395 L 22.4902 -11.0742 L 22.7344 -12.1973 C 22.8613 -12.7637 22.7051 -13.2031 22.1191 -13.7891 L 19.9219 -15.9766 C 16.582 -19.2969 12.1484 -19.2188 9.25781 -16.3281 C 8.83789 -15.918 8.80859 -15.3418 9.04297 -14.9512 C 9.27734 -14.5898 9.73633 -14.3555 10.3809 -14.5215 C 11.8457 -14.8633 13.3691 -14.9219 14.7949 -13.9844 L 14.209 -12.5293 C 14.0137 -12.0508 13.9844 -11.6504 14.1113 -11.2891 L 3.04688 -0.898438 C 2.06055 0.0195312 1.98242 0.996094 2.8418 1.86523 Z M 10.752 -15.957 C 13.1836 -17.7344 16.4746 -17.4316 18.7012 -15.2051 L 21.1328 -12.793 C 21.3672 -12.5586 21.4062 -12.373 21.3379 -12.0312 L 21.0156 -10.5469 L 22.5195 -9.0625 L 23.5059 -9.12109 C 23.7598 -9.13086 23.8379 -9.11133 24.0332 -8.91602 L 24.6094 -8.33984 L 22.168 -5.89844 L 21.5918 -6.47461 C 21.3965 -6.66992 21.3672 -6.74805 21.377 -7.01172 L 21.4453 -7.98828 L 19.9512 -9.47266 L 18.4277 -9.21875 C 18.1055 -9.15039 17.959 -9.17969 17.7148 -9.41406 L 15.7129 -11.416 C 15.459 -11.6504 15.4297 -11.8164 15.5859 -12.1875 L 16.4648 -14.2773 C 14.9023 -15.7324 12.8711 -16.3574 10.8398 -15.7617 C 10.6836 -15.7227 10.625 -15.8496 10.752 -15.957 Z M 5.27344 2.30469 L 4.10156 1.14258 C 3.63281 0.683594 3.74023 0.341797 4.14062 -0.0195312 L 14.9512 -10.1953 L 16.416 -8.71094 L 6.42578 2.27539 C 6.07422 2.67578 5.74219 2.77344 5.27344 2.30469 Z"/>
  </g>
  <text style="stroke:none;fill:black;font-family:-apple-system,&quot;SF Pro Display&quot;,&quot;SF Pro Text&quot;,Helvetica,sans-serif;font-weight:bold;" transform="matrix(1 0 0 1 1289 1953)">Exporting</text>
  <text style="stroke:none;fill:black;font-family:-apple-system,&quot;SF Pro Display&quot;,&quot;SF Pro Text&quot;,Helvetica,sans-serif;" transform="matrix(1 0 0 1 1289 1971)">Symbols should be outlined when exporting to ensure the</text>
  <text style="stroke:none;fill:black;font-family:-apple-system,&quot;SF Pro Display&quot;,&quot;SF Pro Text&quot;,Helvetica,sans-serif;" transform="matrix(1 0 0 1 1289 1989)">design is preserved when submitting to Xcode.</text>
  <text id="template-version" style="stroke:none;fill:black;font-family:-apple-system,&quot;SF Pro Display&quot;,&quot;SF Pro Text&quot;,Helvetica,sans-serif;text-anchor:end;" transform="matrix(1 0 0 1 3036 1933)">Template v.2.0</text>
  <text style="stroke:none;fill:black;font-family:-apple-system,&quot;SF Pro Display&quot;,&quot;SF Pro Text&quot;,Helvetica,sans-serif;text-anchor:end;" transform="matrix(1 0 0 1 3036 1951)">Requires Xcode 12 or greater</text>
  <text style="stroke:none;fill:black;font-family:-apple-system,&quot;SF Pro Display&quot;,&quot;SF Pro Text&quot;,Helvetica,sans-serif;text-anchor:end;" transform="matrix(1 0 0 1 3036 1969)">Generated from repeat</text>
  <text style="stroke:none;fill:black;font-family:-apple-system,&quot;SF Pro Display&quot;,&quot;SF Pro Text&quot;,Helvetica,sans-serif;text-anchor:end;" transform="matrix(1 0 0 1 3036 1987)">Typeset at 100 points</text>
  <text style="stroke:none;fill:black;font-family:-apple-system,&quot;SF Pro Display&quot;,&quot;SF Pro Text&quot;,Helvetica,sans-serif;" transform="matrix(1 0 0 1 263 726)">Small</text>
  <text style="stroke:none;fill:black;font-family:-apple-system,&quot;SF Pro Display&quot;,&quot;SF Pro Text&quot;,Helvetica,sans-serif;" transform="matrix(1 0 0 1 263 1156)">Medium</text>
  <text style="stroke:none;fill:black;font-family:-apple-system,&quot;SF Pro Display&quot;,&quot;SF Pro Text&quot;,Helvetica,sans-serif;" transform="matrix(1 0 0 1 263 1586)">Large</text>
 </g>
 <g id="Guides">
  <g id="H-reference" style="fill:#27AAE1;stroke:none;" transform="matrix(1 0 0 1 339 696)">
   <path d="M 0.976562 0 L 3.66211 0 L 12.9883 -24.4629 L 45.7031 -24.4629 L 55.0781 0 L 57.7148 0 L 30.6152 -70.459 L 28.125 -70.459 Z M 29.2969 -67.1387 L 29.3945 -67.1387 L 44.873 -26.709 L 13.8672 -26.709 Z"/>
  </g>
  <line id="Baseline-S" style="fill:none;stroke:#27AAE1;opacity:1;stroke-width:0.5;" x1="263" x2="3036" y1="696" y2="696"/>
  <line id="Capline-S" style="fill:none;stroke:#27AAE1;opacity:1;stroke-width:0.5;" x1="263" x2="3036" y1="625.541" y2="625.541"/>
  <g id="H-reference" style="fill:#27AAE1;stroke:none;" transform="matrix(1 0 0 1 339 1126)">
   <path d="M 0.976562 0 L 3.66211 0 L 12.9883 -24.4629 L 45.7031 -24.4629 L 55.0781 0 L 57.7148 0 L 30.6152 -70.459 L 28.125 -70.459 Z M 29.2969 -67.1387 L 29.3945 -67.1387 L 44.873 -26.709 L 13.8672 -26.709 Z"/>
  </g>
  <line id="Baseline-M" style="fill:none;stroke:#27AAE1;opacity:1;stroke-width:0.5;" x1="263" x2="3036" y1="1126" y2="1126"/>
  <line id="Capline-M" style="fill:none;stroke:#27AAE1;opacity:1;stroke-width:0.5;" x1="263" x2="3036" y1="1055.54" y2="1055.54"/>
  <g id="H-reference" style="fill:#27AAE1;stroke:none;" transform="matrix(1 0 0 1 339 1556)">
   <path d="M 0.976562 0 L 3.66211 0 L 12.9883 -24.4629 L 45.7031 -24.4629 L 55.0781 0 L 57.7148 0 L 30.6152 -70.459 L 28.125 -70.459 Z M 29.2969 -67.1387 L 29.3945 -67.1387 L 44.873 -26.709 L 13.8672 -26.709 Z"/>
  </g>
  <line id="Baseline-L" style="fill:none;stroke:#27AAE1;opacity:1;stroke-width:0.5;" x1="263" x2="3036" y1="1556" y2="1556"/>
  <line id="Capline-L" style="fill:none;stroke:#27AAE1;opacity:1;stroke-width:0.5;" x1="263" x2="3036" y1="1485.54" y2="1485.54"/>
  <line id="left-margin" style="fill:none;stroke:#00AEEF;stroke-width:0.5;opacity:1.0;" x1="1384.05" x2="1384.05" y1="1030.79" y2="1150.12"/>
  <line id="right-margin" style="fill:none;stroke:#00AEEF;stroke-width:0.5;opacity:1.0;" x1="1515.64" x2="1515.64" y1="1030.79" y2="1150.12"/>
 </g>
 <g id="Symbols">
  <g id="Black-L" transform="matrix(1 0 0 1 2840.24 1556)">
   <path d="M 16.0645 -43.6523 C 16.0645 -37.6465 20.9473 -32.7148 26.9531 -32.7148 C 33.0078 -32.7148 37.8418 -37.6465 37.8418 -43.6523 L 37.8418 -47.5586 C 37.8418 -58.3984 45.0684 -64.8926 56.8848 -64.8926 L 104.102 -64.8926 L 104.102 -51.7578 C 104.102 -46.7773 107.178 -43.6035 112.061 -43.6035 C 114.355 -43.6035 116.211 -44.4336 117.627 -45.6543 L 145.508 -69.3848 C 149.17 -72.4609 149.121 -77.5879 145.508 -80.6641 L 117.627 -104.395 C 116.211 -105.615 114.355 -106.445 112.061 -106.445 C 107.178 -106.445 104.102 -103.271 104.102 -98.291 L 104.102 -86.2305 L 57.8613 -86.2305 C 31.8848 -86.2305 16.0645 -72.6562 16.0645 -50.5859 Z M 82.2266 -25.1953 C 82.2266 -30.1758 79.1504 -33.3008 74.2188 -33.3008 C 71.9238 -33.3008 70.1172 -32.5195 68.6523 -31.2988 L 40.8203 -7.56836 C 37.1582 -4.44336 37.207 0.683594 40.8203 3.75977 L 68.6523 27.4414 C 70.1172 28.6621 71.9238 29.4922 74.2188 29.4922 C 79.1504 29.4922 82.2266 26.3672 82.2266 21.3867 L 82.2266 9.42383 L 128.467 9.42383 C 154.395 9.42383 170.264 -4.15039 170.264 -26.2207 L 170.264 -33.1543 C 170.264 -39.1602 165.332 -44.0918 159.326 -44.0918 C 153.32 -44.0918 148.486 -39.1602 148.486 -33.1543 L 148.486 -29.248 C 148.486 -18.4082 141.26 -11.8652 129.395 -11.8652 L 82.2266 -11.8652 Z"/>
  </g>
  <g id="Heavy-L" transform="matrix(1 0 0 1 2545.89 1556)">
   <path d="M 16.0645 -42.627 C 16.0645 -37.207 20.459 -32.7637 25.9277 -32.7637 C 31.3477 -32.7637 35.6934 -37.207 35.6934 -42.627 L 35.6934 -46.5332 C 35.6934 -57.3242 42.8711 -63.916 54.4922 -63.916 L 101.367 -63.916 L 101.367 -50.7324 C 101.367 -46.1914 104.248 -43.3105 108.74 -43.3105 C 110.84 -43.3105 112.549 -44.043 113.965 -45.2148 L 140.771 -67.8223 C 144.238 -70.752 144.189 -75.5371 140.771 -78.418 L 113.965 -101.074 C 112.549 -102.246 110.84 -102.979 108.74 -102.979 C 104.248 -102.979 101.367 -100.098 101.367 -95.5566 L 101.367 -83.1543 L 55.5176 -83.1543 C 31.0547 -83.1543 16.0645 -70.166 16.0645 -49.0723 Z M 80.1758 -24.6094 C 80.1758 -29.1504 77.3438 -32.0801 72.8516 -32.0801 C 70.752 -32.0801 68.9941 -31.2988 67.627 -30.1758 L 40.7715 -7.51953 C 37.3535 -4.58984 37.3535 0.195312 40.7715 3.07617 L 67.627 25.7324 C 68.9941 26.9043 70.752 27.6367 72.8516 27.6367 C 77.3438 27.6367 80.1758 24.7559 80.1758 20.2148 L 80.1758 7.86133 L 126.074 7.86133 C 150.488 7.86133 165.527 -5.12695 165.527 -26.1719 L 165.527 -32.666 C 165.527 -38.0859 161.084 -42.4805 155.664 -42.4805 C 150.244 -42.4805 145.85 -38.0859 145.85 -32.666 L 145.85 -28.7109 C 145.85 -17.9688 138.672 -11.377 127.1 -11.377 L 80.1758 -11.377 Z"/>
  </g>
  <g id="Bold-L" transform="matrix(1 0 0 1 2251.84 1556)">
   <path d="M 16.0645 -41.5039 C 16.0645 -36.7188 19.9219 -32.8125 24.707 -32.8125 C 29.4922 -32.8125 33.3496 -36.7188 33.3496 -41.5039 L 33.3496 -45.4102 C 33.3496 -56.1035 40.4785 -62.793 51.7578 -62.793 L 98.3887 -62.793 L 98.3887 -49.6094 C 98.3887 -45.5078 100.928 -42.9199 105.029 -42.9199 C 106.885 -42.9199 108.496 -43.6035 109.814 -44.6777 L 135.498 -66.1133 C 138.77 -68.7988 138.721 -73.2422 135.498 -75.9277 L 109.814 -97.4121 C 108.496 -98.4863 106.885 -99.1699 105.029 -99.1699 C 100.928 -99.1699 98.3887 -96.582 98.3887 -92.4805 L 98.3887 -79.7363 L 52.9297 -79.7363 C 30.127 -79.7363 16.0645 -67.334 16.0645 -47.4121 Z M 77.9297 -23.9746 C 77.9297 -28.0762 75.3418 -30.6641 71.2891 -30.6641 C 69.3848 -30.6641 67.7734 -29.9805 66.5039 -28.9062 L 40.7715 -7.4707 C 37.5488 -4.78516 37.5488 -0.390625 40.7715 2.34375 L 66.5039 23.8281 C 67.7734 24.9023 69.3848 25.5859 71.2891 25.5859 C 75.3418 25.5859 77.9297 22.998 77.9297 18.8965 L 77.9297 6.15234 L 123.389 6.15234 C 146.143 6.15234 160.205 -6.20117 160.205 -26.1719 L 160.205 -32.0801 C 160.205 -36.8652 156.348 -40.7227 151.562 -40.7227 C 146.777 -40.7227 142.92 -36.8652 142.92 -32.0801 L 142.92 -28.1738 C 142.92 -17.4805 135.791 -10.7422 124.512 -10.7422 L 77.9297 -10.7422 Z"/>
  </g>
  <g id="Semibold-L" transform="matrix(1 0 0 1 1956.94 1556)">
   <path d="M 16.0645 -40.7227 C 16.0645 -36.377 19.5801 -32.8613 23.877 -32.8613 C 28.2227 -32.8613 31.6895 -36.377 31.6895 -40.7227 L 31.6895 -44.6289 C 31.6895 -55.2734 38.8184 -62.0605 49.9023 -62.0605 L 96.2891 -62.0605 L 96.2891 -48.8281 C 96.2891 -45.0684 98.6816 -42.6758 102.441 -42.6758 C 104.15 -42.6758 105.713 -43.3105 106.934 -44.3359 L 131.885 -64.9414 C 134.961 -67.4316 134.912 -71.6797 131.885 -74.2188 L 106.934 -94.8242 C 105.713 -95.8984 104.15 -96.4844 102.441 -96.4844 C 98.6816 -96.4844 96.2891 -94.0918 96.2891 -90.3809 L 96.2891 -77.3926 L 51.123 -77.3926 C 29.4922 -77.3926 16.0645 -65.4297 16.0645 -46.2891 Z M 76.3672 -23.5352 C 76.3672 -27.2949 73.9746 -29.6875 70.2148 -29.6875 C 68.5059 -29.6875 66.9434 -29.0527 65.6738 -28.0273 L 40.7715 -7.42188 C 37.6953 -4.93164 37.6953 -0.732422 40.7715 1.80664 L 65.6738 22.5098 C 66.9434 23.5352 68.5059 24.1211 70.2148 24.1211 C 73.9746 24.1211 76.3672 21.7773 76.3672 18.0176 L 76.3672 4.98047 L 121.533 4.98047 C 143.164 4.98047 156.592 -6.98242 156.592 -26.123 L 156.592 -31.6895 C 156.592 -36.0352 153.076 -39.5508 148.73 -39.5508 C 144.385 -39.5508 140.918 -36.0352 140.918 -31.6895 L 140.918 -27.7832 C 140.918 -17.1387 133.838 -10.3516 122.754 -10.3516 L 76.3672 -10.3516 Z"/>
  </g>
  <g id="Medium-L" transform="matrix(1 0 0 1 1661.62 1556)">
   <path d="M 16.0645 -40.0879 C 16.0645 -36.1328 19.2871 -32.9102 23.291 -32.9102 C 27.2461 -32.9102 30.4688 -36.1328 30.4688 -40.0879 L 30.4688 -44.043 C 30.4688 -54.6387 37.5488 -61.4746 48.4863 -61.4746 L 94.7266 -61.4746 L 94.7266 -48.1934 C 94.7266 -44.7266 96.9727 -42.4805 100.488 -42.4805 C 102.1 -42.4805 103.564 -43.0664 104.785 -44.043 L 129.102 -64.0137 C 132.08 -66.4062 132.031 -70.459 129.102 -72.9004 L 104.785 -92.9199 C 103.564 -93.8965 102.1 -94.4824 100.488 -94.4824 C 96.9727 -94.4824 94.7266 -92.2363 94.7266 -88.7695 L 94.7266 -75.5859 L 49.7559 -75.5859 C 29.0039 -75.5859 16.0645 -63.9648 16.0645 -45.4102 Z M 75.1465 -23.1934 C 75.1465 -26.709 72.9004 -28.9551 69.3848 -28.9551 C 67.7734 -28.9551 66.3086 -28.3691 65.0879 -27.3438 L 40.7715 -7.42188 C 37.8418 -5.0293 37.793 -1.02539 40.7715 1.41602 L 65.0879 21.4844 C 66.3086 22.4609 67.7734 23.0469 69.3848 23.0469 C 72.9004 23.0469 75.1465 20.8496 75.1465 17.334 L 75.1465 4.05273 L 120.117 4.05273 C 140.869 4.05273 153.809 -7.56836 153.809 -26.123 L 153.809 -31.3965 C 153.809 -35.4004 150.586 -38.623 146.582 -38.623 C 142.627 -38.623 139.404 -35.4004 139.404 -31.3965 L 139.404 -27.4902 C 139.404 -16.8457 132.324 -10.0586 121.387 -10.0586 L 75.1465 -10.0586 Z"/>
  </g>
  <g id="Regular-L" transform="matrix(1 0 0 1 1366.71 1556)">
   <path d="M 16.0645 -39.3066 C 16.0645 -35.791 18.8965 -32.9102 22.4609 -32.9102 C 26.0254 -32.9102 28.8574 -35.791 28.8574 -39.3066 L 28.8574 -43.2617 C 28.8574 -53.8086 35.8887 -60.6934 46.6309 -60.6934 L 92.6758 -60.6934 L 92.6758 -47.4609 C 92.6758 -44.2871 94.7266 -42.2363 97.9492 -42.2363 C 99.3652 -42.2363 100.83 -42.7734 101.953 -43.7012 L 125.537 -62.8418 C 128.369 -65.0879 128.271 -68.8965 125.537 -71.1914 L 101.953 -90.3809 C 100.83 -91.3574 99.3652 -91.8457 97.9492 -91.8457 C 94.7266 -91.8457 92.6758 -89.8438 92.6758 -86.6699 L 92.6758 -73.2422 L 47.998 -73.2422 C 28.3691 -73.2422 16.0645 -62.0117 16.0645 -44.2871 Z M 73.6328 -22.8027 C 73.6328 -25.9277 71.582 -27.9785 68.3105 -27.9785 C 66.8945 -27.9785 65.4785 -27.4414 64.3066 -26.5137 L 40.7227 -7.37305 C 37.9883 -5.17578 37.8906 -1.41602 40.7227 0.927734 L 64.3066 20.166 C 65.4785 21.0938 66.8945 21.6309 68.3105 21.6309 C 71.582 21.6309 73.6328 19.6289 73.6328 16.4551 L 73.6328 2.88086 L 118.262 2.88086 C 137.891 2.88086 150.195 -8.30078 150.195 -26.0742 L 150.195 -31.0059 C 150.195 -34.5703 147.363 -37.4023 143.799 -37.4023 C 140.234 -37.4023 137.402 -34.5703 137.402 -31.0059 L 137.402 -27.0996 C 137.402 -16.5039 130.371 -9.66797 119.629 -9.66797 L 73.6328 -9.66797 Z"/>
  </g>
  <g id="Light-L" transform="matrix(1 0 0 1 1072.42 1556)">
   <path d="M 16.0645 -38.7695 C 16.0645 -35.6445 18.6035 -33.1055 21.7285 -33.1055 C 24.8535 -33.1055 27.3926 -35.6445 27.3926 -38.7695 L 27.3926 -42.3828 C 27.3926 -53.7109 34.5703 -60.8887 45.8984 -60.8887 L 89.8438 -60.8887 L 89.8438 -47.5586 C 89.8438 -44.6777 91.748 -42.8711 94.6777 -42.8711 C 95.9961 -42.8711 97.2168 -43.3105 98.291 -44.1895 L 121.533 -62.5977 C 124.365 -64.7949 124.268 -68.6035 121.533 -70.752 L 98.291 -89.209 C 97.2168 -90.0879 95.9961 -90.5273 94.6777 -90.5273 C 91.748 -90.5273 89.8438 -88.7207 89.8438 -85.8398 L 89.8438 -71.9238 L 47.2656 -71.9238 C 27.9297 -71.9238 16.0645 -61.0352 16.0645 -43.4082 Z M 71.582 -22.6562 C 71.582 -25.5371 69.6777 -27.3438 66.748 -27.3438 C 65.4297 -27.3438 64.209 -26.9043 63.0859 -26.0254 L 39.8926 -7.66602 C 37.1582 -5.51758 37.0605 -1.75781 39.8926 0.488281 L 63.0859 18.9941 C 64.209 19.873 65.4297 20.3125 66.748 20.3125 C 69.6777 20.3125 71.582 18.5059 71.582 15.625 L 71.582 1.5625 L 114.16 1.5625 C 133.447 1.5625 145.361 -9.32617 145.361 -26.9531 L 145.361 -31.543 C 145.361 -34.668 142.822 -37.207 139.697 -37.207 C 136.572 -37.207 134.033 -34.668 134.033 -31.543 L 134.033 -27.9297 C 134.033 -16.6016 126.855 -9.42383 115.527 -9.42383 L 71.582 -9.42383 Z"/>
  </g>
  <g id="Thin-L" transform="matrix(1 0 0 1 778.908 1556)">
   <path d="M 16.0645 -38.0371 C 16.0645 -35.498 18.1641 -33.3496 20.752 -33.3496 C 23.291 -33.3496 25.4395 -35.498 25.4395 -38.0371 L 25.4395 -41.2109 C 25.4395 -53.5645 32.8613 -61.1816 44.873 -61.1816 L 86.1328 -61.1816 L 86.1328 -47.7051 C 86.1328 -45.2637 87.793 -43.6523 90.332 -43.6523 C 91.5039 -43.6523 92.4316 -43.9941 93.5059 -44.8242 L 116.309 -62.3047 C 119.043 -64.4043 118.896 -68.2617 116.309 -70.2148 L 93.5059 -87.6465 C 92.4316 -88.4766 91.5039 -88.8184 90.332 -88.8184 C 87.793 -88.8184 86.1328 -87.207 86.1328 -84.7656 L 86.1328 -70.166 L 46.3379 -70.166 C 27.3926 -70.166 16.0645 -59.668 16.0645 -42.2363 Z M 68.8965 -22.5098 C 68.8965 -24.9512 67.2363 -26.5625 64.6973 -26.5625 C 63.5254 -26.5625 62.5977 -26.2207 61.5234 -25.3906 L 38.7207 -8.00781 C 36.1328 -6.00586 35.9863 -2.19727 38.7207 -0.0488281 L 61.5234 17.4316 C 62.5977 18.2617 63.5254 18.6035 64.6973 18.6035 C 67.2363 18.6035 68.8965 16.9922 68.8965 14.5508 L 68.8965 -0.146484 L 108.691 -0.146484 C 127.637 -0.146484 138.965 -10.6445 138.965 -28.0762 L 138.965 -32.2754 C 138.965 -34.8145 136.816 -36.9629 134.277 -36.9629 C 131.689 -36.9629 129.59 -34.8145 129.59 -32.2754 L 129.59 -29.1016 C 129.59 -16.748 122.168 -9.13086 110.156 -9.13086 L 68.8965 -9.13086 Z"/>
  </g>
  <g id="Ultralight-L" transform="matrix(1 0 0 1 483.832 1556)">
   <path d="M 16.0645 -37.6465 C 16.0645 -35.4004 17.9688 -33.4961 20.2637 -33.4961 C 22.5098 -33.4961 24.4141 -35.4004 24.4141 -37.6465 L 24.4141 -40.625 C 24.4141 -53.4668 31.9824 -61.3281 44.3848 -61.3281 L 84.2285 -61.3281 L 84.2285 -47.7539 C 84.2285 -45.5566 85.791 -44.0918 88.0859 -44.0918 C 89.1602 -44.0918 89.9902 -44.3848 91.0156 -45.166 L 113.623 -62.1094 C 116.309 -64.209 116.162 -68.0664 113.623 -69.9707 L 91.0156 -86.8164 C 89.9902 -87.5977 89.1602 -87.9395 88.0859 -87.9395 C 85.791 -87.9395 84.2285 -86.4258 84.2285 -84.2285 L 84.2285 -69.2383 L 45.8496 -69.2383 C 27.0996 -69.2383 16.0645 -58.9844 16.0645 -41.6504 Z M 67.5293 -22.4609 C 67.5293 -24.6582 65.9668 -26.123 63.6719 -26.123 C 62.5488 -26.123 61.7188 -25.8301 60.6934 -25.0488 L 38.1348 -8.1543 C 35.5957 -6.29883 35.4004 -2.39258 38.1348 -0.341797 L 60.6934 16.6016 C 61.7188 17.3828 62.5488 17.6758 63.6719 17.6758 C 65.9668 17.6758 67.5293 16.2109 67.5293 14.0137 L 67.5293 -1.02539 L 105.908 -1.02539 C 124.658 -1.02539 135.693 -11.3281 135.693 -28.6133 L 135.693 -32.6172 C 135.693 -34.9121 133.789 -36.8164 131.494 -36.8164 C 129.199 -36.8164 127.295 -34.9121 127.295 -32.6172 L 127.295 -29.6875 C 127.295 -16.7969 119.775 -8.98438 107.373 -8.98438 L 67.5293 -8.98438 Z"/>
  </g>
  <g id="Black-M" transform="matrix(1 0 0 1 2859.3 1126)">
   <path d="M 12.4512 -42.8223 C 12.4512 -37.5977 16.748 -33.3496 21.9238 -33.3496 C 27.1484 -33.3496 31.3965 -37.5977 31.3965 -42.8223 L 31.3965 -45.7031 C 31.3965 -54.5898 37.1094 -59.668 46.9727 -59.668 L 82.8125 -59.668 L 82.8125 -49.4629 C 82.8125 -45.2148 85.4492 -42.4805 89.5996 -42.4805 C 91.6016 -42.4805 93.0176 -43.1641 94.2383 -44.1895 L 116.992 -63.6719 C 120.068 -66.3086 120.02 -70.7031 116.992 -73.2422 L 94.2383 -92.6758 C 93.0176 -93.6523 91.6016 -94.3359 89.5996 -94.3359 C 85.4492 -94.3359 82.8125 -91.6504 82.8125 -87.4023 L 82.8125 -78.1738 L 47.5586 -78.1738 C 25.6348 -78.1738 12.4512 -67.0898 12.4512 -48.6816 Z M 65.3809 -28.1738 C 65.3809 -32.4219 62.7441 -35.1074 58.5938 -35.1074 C 56.5918 -35.1074 55.127 -34.4238 53.9551 -33.4473 L 31.1523 -13.9648 C 28.0762 -11.3281 28.1738 -6.93359 31.1523 -4.3457 L 53.9551 15.0391 C 55.127 16.0645 56.5918 16.748 58.5938 16.748 C 62.7441 16.748 65.3809 14.0625 65.3809 9.76562 L 65.3809 0.732422 L 100.586 0.732422 C 122.559 0.732422 135.742 -10.3516 135.742 -28.7598 L 135.742 -34.5703 C 135.742 -39.7949 131.445 -44.0918 126.221 -44.0918 C 120.996 -44.0918 116.797 -39.7949 116.797 -34.5703 L 116.797 -31.7383 C 116.797 -22.8516 111.035 -17.7246 101.221 -17.7246 L 65.3809 -17.7246 Z"/>
  </g>
  <g id="Heavy-M" transform="matrix(1 0 0 1 2564.55 1126)">
   <path d="M 12.4512 -41.8457 C 12.4512 -37.1582 16.2598 -33.3496 20.9961 -33.3496 C 25.6836 -33.3496 29.4434 -37.1582 29.4434 -41.8457 L 29.4434 -44.8242 C 29.4434 -53.418 35.1074 -58.5449 44.5312 -58.5449 L 80.5664 -58.5449 L 80.5664 -48.3398 C 80.5664 -44.4336 83.0078 -41.9922 86.8164 -41.9922 C 88.623 -41.9922 89.9902 -42.627 91.1133 -43.5547 L 112.891 -62.0117 C 115.771 -64.4531 115.723 -68.5059 112.891 -70.8984 L 91.1133 -89.3555 C 89.9902 -90.2832 88.623 -90.918 86.8164 -90.918 C 83.0078 -90.918 80.5664 -88.4766 80.5664 -84.5703 L 80.5664 -75.1465 L 45.2148 -75.1465 C 24.8047 -75.1465 12.4512 -64.5996 12.4512 -47.2656 Z M 63.6719 -27.5391 C 63.6719 -31.4453 61.2793 -33.8867 57.4707 -33.8867 C 55.6641 -33.8867 54.248 -33.252 53.125 -32.3242 L 31.3965 -13.8672 C 28.5156 -11.4258 28.5645 -7.37305 31.3965 -4.98047 L 53.125 13.4766 C 54.248 14.4043 55.6641 15.0391 57.4707 15.0391 C 61.2793 15.0391 63.6719 12.5977 63.6719 8.69141 L 63.6719 -0.585938 L 99.0234 -0.585938 C 119.434 -0.585938 131.836 -11.1328 131.836 -28.5156 L 131.836 -33.8867 C 131.836 -38.5742 127.979 -42.4316 123.291 -42.4316 C 118.604 -42.4316 114.795 -38.5742 114.795 -33.8867 L 114.795 -30.957 C 114.795 -22.3145 109.18 -17.2363 99.7559 -17.2363 L 63.6719 -17.2363 Z"/>
  </g>
  <g id="Bold-M" transform="matrix(1 0 0 1 2270.03 1126)">
   <path d="M 12.4512 -40.7715 C 12.4512 -36.6699 15.7715 -33.3496 19.873 -33.3496 C 23.9746 -33.3496 27.2949 -36.6699 27.2949 -40.7715 L 27.2949 -43.7988 C 27.2949 -52.1484 32.8613 -57.2754 41.748 -57.2754 L 78.125 -57.2754 L 78.125 -47.0215 C 78.125 -43.6035 80.2734 -41.4062 83.6914 -41.4062 C 85.2539 -41.4062 86.6211 -41.9922 87.6465 -42.8711 L 108.252 -60.2051 C 110.938 -62.4023 110.889 -66.0645 108.252 -68.3105 L 87.6465 -85.6445 C 86.6211 -86.5234 85.2539 -87.1094 83.6914 -87.1094 C 80.2734 -87.1094 78.125 -84.9121 78.125 -81.4453 L 78.125 -71.8262 L 42.5781 -71.8262 C 23.9258 -71.8262 12.4512 -61.8164 12.4512 -45.7031 Z M 61.7676 -26.9043 C 61.7676 -30.3711 59.6191 -32.5195 56.2012 -32.5195 C 54.6387 -32.5195 53.2715 -31.9824 52.2461 -31.1035 L 31.6406 -13.7207 C 29.0039 -11.5234 29.0039 -7.86133 31.6406 -5.66406 L 52.2461 11.7188 C 53.2715 12.5977 54.6387 13.1836 56.2012 13.1836 C 59.6191 13.1836 61.7676 10.9863 61.7676 7.51953 L 61.7676 -2.09961 L 97.3145 -2.09961 C 115.967 -2.09961 127.441 -12.0605 127.441 -28.2227 L 127.441 -33.1055 C 127.441 -37.2559 124.121 -40.5762 120.02 -40.5762 C 115.918 -40.5762 112.598 -37.2559 112.598 -33.1055 L 112.598 -30.0781 C 112.598 -21.7773 107.031 -16.6504 98.1445 -16.6504 L 61.7676 -16.6504 Z"/>
  </g>
  <g id="Semibold-M" transform="matrix(1 0 0 1 1974.83 1126)">
   <path d="M 12.4512 -40.0391 C 12.4512 -36.3281 15.4297 -33.3496 19.1406 -33.3496 C 22.8516 -33.3496 25.8301 -36.3281 25.8301 -40.0391 L 25.8301 -43.1641 C 25.8301 -51.2695 31.2988 -56.3965 39.8926 -56.3965 L 76.416 -56.3965 L 76.416 -46.1426 C 76.416 -43.0176 78.3691 -41.0156 81.543 -41.0156 C 82.959 -41.0156 84.2773 -41.5527 85.2539 -42.3828 L 105.078 -58.9844 C 107.568 -60.9863 107.52 -64.4043 105.078 -66.5039 L 85.2539 -83.1055 C 84.2773 -83.9355 82.959 -84.4727 81.543 -84.4727 C 78.3691 -84.4727 76.416 -82.4707 76.416 -79.2969 L 76.416 -69.4824 L 40.7715 -69.4824 C 23.291 -69.4824 12.4512 -59.9121 12.4512 -44.6289 Z M 60.498 -26.4648 C 60.498 -29.5898 58.4961 -31.5918 55.3223 -31.5918 C 53.9062 -31.5918 52.6367 -31.0547 51.6113 -30.2246 L 31.7871 -13.6719 C 29.2969 -11.5723 29.2969 -8.20312 31.7871 -6.15234 L 51.6113 10.498 C 52.6367 11.3281 53.9062 11.8652 55.3223 11.8652 C 58.4961 11.8652 60.498 9.86328 60.498 6.68945 L 60.498 -3.125 L 96.0938 -3.125 C 113.574 -3.125 124.414 -12.6953 124.414 -28.0273 L 124.414 -32.6172 C 124.414 -36.2793 121.436 -39.3066 117.725 -39.3066 C 114.062 -39.3066 111.084 -36.2793 111.084 -32.6172 L 111.084 -29.4922 C 111.084 -21.3867 105.566 -16.2109 97.0215 -16.2109 L 60.498 -16.2109 Z"/>
  </g>
  <g id="Medium-M" transform="matrix(1 0 0 1 1679.27 1126)">
   <path d="M 12.4512 -39.4531 C 12.4512 -36.084 15.1855 -33.3496 18.5547 -33.3496 C 21.9727 -33.3496 24.6582 -36.084 24.6582 -39.4531 L 24.6582 -42.627 C 24.6582 -50.5859 30.127 -55.7129 38.4277 -55.7129 L 75.0977 -55.7129 L 75.0977 -45.5078 C 75.0977 -42.5781 76.9531 -40.7227 79.9316 -40.7227 C 81.25 -40.7227 82.4707 -41.2109 83.4473 -41.9922 L 102.686 -58.0078 C 105.078 -59.9121 105.029 -63.1348 102.686 -65.0879 L 83.4473 -81.1523 C 82.4707 -81.9824 81.25 -82.4707 79.9316 -82.4707 C 76.9531 -82.4707 75.0977 -80.6152 75.0977 -77.6855 L 75.0977 -67.7246 L 39.4043 -67.7246 C 22.8516 -67.7246 12.4512 -58.4961 12.4512 -43.7988 Z M 59.4727 -26.0742 C 59.4727 -29.0039 57.6172 -30.9082 54.6875 -30.9082 C 53.3691 -30.9082 52.0996 -30.3711 51.123 -29.5898 L 31.9336 -13.5742 C 29.541 -11.6699 29.541 -8.49609 31.9336 -6.49414 L 51.123 9.57031 C 52.0996 10.4004 53.3691 10.8887 54.6875 10.8887 C 57.6172 10.8887 59.4727 9.0332 59.4727 6.10352 L 59.4727 -3.90625 L 95.2148 -3.90625 C 111.768 -3.90625 122.119 -13.1836 122.119 -27.832 L 122.119 -32.1777 C 122.119 -35.5957 119.434 -38.3301 116.016 -38.3301 C 112.646 -38.3301 109.912 -35.5957 109.912 -32.1777 L 109.912 -29.0039 C 109.912 -21.0938 104.492 -15.918 96.1426 -15.918 L 59.4727 -15.918 Z"/>
  </g>
  <g id="Regular-M" transform="matrix(1 0 0 1 1384.05 1126)">
   <path d="M 12.4512 -38.7207 C 12.4512 -35.7422 14.8438 -33.3496 17.8223 -33.3496 C 20.8008 -33.3496 23.1934 -35.7422 23.1934 -38.7207 L 23.1934 -41.9434 C 23.1934 -49.707 28.5645 -54.834 36.5723 -54.834 L 73.3887 -54.834 L 73.3887 -44.6289 C 73.3887 -41.9922 75.0977 -40.332 77.7832 -40.332 C 78.9551 -40.332 80.1758 -40.7715 81.1035 -41.5527 L 99.5605 -56.7871 C 101.758 -58.5449 101.709 -61.4746 99.5605 -63.3301 L 81.1035 -78.6621 C 80.1758 -79.3945 78.9551 -79.8828 77.7832 -79.8828 C 75.0977 -79.8828 73.3887 -78.1738 73.3887 -75.5371 L 73.3887 -65.4297 L 37.5977 -65.4297 C 22.2168 -65.4297 12.4512 -56.5918 12.4512 -42.7246 Z M 58.2031 -25.6348 C 58.2031 -28.2715 56.543 -29.9316 53.8086 -29.9316 C 52.6367 -29.9316 51.416 -29.4922 50.5371 -28.7598 L 32.0801 -13.5254 C 29.8828 -11.7188 29.834 -8.83789 32.0801 -6.98242 L 50.5371 8.34961 C 51.416 9.13086 52.6367 9.57031 53.8086 9.57031 C 56.543 9.57031 58.2031 7.91016 58.2031 5.27344 L 58.2031 -4.93164 L 93.9941 -4.93164 C 109.375 -4.93164 119.141 -13.8184 119.141 -27.6367 L 119.141 -31.6406 C 119.141 -34.668 116.748 -37.0605 113.77 -37.0605 C 110.791 -37.0605 108.398 -34.668 108.398 -31.6406 L 108.398 -28.418 C 108.398 -20.7031 103.027 -15.5273 95.0195 -15.5273 L 58.2031 -15.5273 Z"/>
  </g>
  <g id="Light-M" transform="matrix(1 0 0 1 1089.51 1126)">
   <path d="M 12.4512 -38.2324 C 12.4512 -35.5957 14.5508 -33.4961 17.1875 -33.4961 C 19.7754 -33.4961 21.875 -35.5957 21.875 -38.2324 L 21.875 -41.1621 C 21.875 -49.6094 27.3926 -55.0293 35.8887 -55.0293 L 70.8984 -55.0293 L 70.8984 -44.7266 C 70.8984 -42.3828 72.4121 -40.8691 74.8535 -40.8691 C 75.9277 -40.8691 76.9531 -41.2598 77.832 -41.9434 L 95.9961 -56.543 C 98.1445 -58.252 98.0957 -61.2305 95.9961 -62.9395 L 77.832 -77.5879 C 76.9531 -78.3203 75.9277 -78.6621 74.8535 -78.6621 C 72.4121 -78.6621 70.8984 -77.1973 70.8984 -74.8047 L 70.8984 -64.2578 L 36.9629 -64.2578 C 21.875 -64.2578 12.4512 -55.6641 12.4512 -41.9434 Z M 56.3965 -25.5371 C 56.3965 -27.8809 54.834 -29.3945 52.4414 -29.3945 C 51.3672 -29.3945 50.3418 -29.0039 49.4629 -28.3203 L 31.2988 -13.7207 C 29.1504 -12.0605 29.1016 -9.13086 31.2988 -7.32422 L 49.4629 7.32422 C 50.3418 8.05664 51.3672 8.39844 52.4414 8.39844 C 54.834 8.39844 56.3965 6.88477 56.3965 4.54102 L 56.3965 -6.10352 L 90.332 -6.10352 C 105.42 -6.10352 114.795 -14.6973 114.795 -28.418 L 114.795 -32.1289 C 114.795 -34.7656 112.695 -36.8652 110.107 -36.8652 C 107.471 -36.8652 105.371 -34.7656 105.371 -32.1289 L 105.371 -29.1992 C 105.371 -20.752 99.8535 -15.332 91.3574 -15.332 L 56.3965 -15.332 Z"/>
  </g>
  <g id="Thin-M" transform="matrix(1 0 0 1 795.656 1126)">
   <path d="M 12.4512 -37.5488 C 12.4512 -35.4492 14.209 -33.7402 16.3086 -33.7402 C 18.4082 -33.7402 20.1172 -35.4492 20.1172 -37.5488 L 20.1172 -40.1367 C 20.1172 -49.4629 25.8301 -55.2734 35.0098 -55.2734 L 67.5781 -55.2734 L 67.5781 -44.873 C 67.5781 -42.8711 68.8965 -41.6016 70.9473 -41.6016 C 71.875 -41.6016 72.6562 -41.8945 73.4863 -42.5293 L 91.2598 -56.25 C 93.4082 -57.9102 93.3105 -60.8887 91.2598 -62.4512 L 73.4863 -76.1719 C 72.6562 -76.8555 71.875 -77.1484 70.9473 -77.1484 C 68.8965 -77.1484 67.5781 -75.8301 67.5781 -73.877 L 67.5781 -62.6953 L 36.084 -62.6953 C 21.3379 -62.6953 12.4512 -54.4434 12.4512 -40.918 Z M 53.9551 -25.3906 C 53.9551 -27.3926 52.6367 -28.6621 50.5859 -28.6621 C 49.6582 -28.6621 48.877 -28.3691 48.0469 -27.7344 L 30.2734 -14.0625 C 28.2227 -12.5 28.125 -9.52148 30.2734 -7.86133 L 48.0469 5.9082 C 48.877 6.54297 49.6582 6.83594 50.5859 6.83594 C 52.6367 6.83594 53.9551 5.56641 53.9551 3.56445 L 53.9551 -7.66602 L 85.4492 -7.66602 C 100.195 -7.66602 109.082 -15.8691 109.082 -29.4434 L 109.082 -32.7637 C 109.082 -34.8633 107.324 -36.6211 105.225 -36.6211 C 103.125 -36.6211 101.416 -34.8633 101.416 -32.7637 L 101.416 -30.2246 C 101.416 -20.8984 95.7031 -15.0879 86.5234 -15.0879 L 53.9551 -15.0879 Z"/>
  </g>
  <g id="Ultralight-M" transform="matrix(1 0 0 1 500.409 1126)">
   <path d="M 12.4512 -37.207 C 12.4512 -35.4004 14.0137 -33.8379 15.8203 -33.8379 C 17.6758 -33.8379 19.2383 -35.4004 19.2383 -37.207 L 19.2383 -39.5996 C 19.2383 -49.4141 25.0488 -55.4199 34.5215 -55.4199 L 65.8691 -55.4199 L 65.8691 -44.9219 C 65.8691 -43.1152 67.0898 -41.9434 68.9453 -41.9434 C 69.8242 -41.9434 70.5078 -42.1875 71.2891 -42.8223 L 88.8672 -56.1035 C 90.9668 -57.7637 90.8203 -60.7422 88.8672 -62.207 L 71.2891 -75.4395 C 70.5078 -76.0742 69.8242 -76.3184 68.9453 -76.3184 C 67.0898 -76.3184 65.8691 -75.1465 65.8691 -73.3398 L 65.8691 -61.8652 L 35.6445 -61.8652 C 21.0938 -61.8652 12.4512 -53.8574 12.4512 -40.3809 Z M 52.7344 -25.3418 C 52.7344 -27.1484 51.5137 -28.3203 49.6582 -28.3203 C 48.7793 -28.3203 48.0957 -28.0762 47.3145 -27.4414 L 29.7363 -14.209 C 27.7344 -12.6953 27.6367 -9.7168 29.7363 -8.10547 L 47.3145 5.17578 C 48.0957 5.81055 48.7793 6.05469 49.6582 6.05469 C 51.5137 6.05469 52.7344 4.88281 52.7344 3.07617 L 52.7344 -8.44727 L 82.9102 -8.44727 C 97.5098 -8.44727 106.152 -16.5039 106.152 -29.9316 L 106.152 -33.1055 C 106.152 -34.9609 104.59 -36.4746 102.734 -36.4746 C 100.879 -36.4746 99.3652 -34.9609 99.3652 -33.1055 L 99.3652 -30.7617 C 99.3652 -20.9473 93.5547 -14.9414 84.0332 -14.9414 L 52.7344 -14.9414 Z"/>
  </g>
  <g id="Black-S" transform="matrix(1 0 0 1 2875.47 696)">
   <path d="M 9.76562 -41.1133 C 9.76562 -37.0605 13.0859 -33.7402 17.1387 -33.7402 C 21.1914 -33.7402 24.4629 -37.0605 24.4629 -41.1133 L 24.4629 -43.3594 C 24.4629 -50.293 28.9551 -54.2969 36.6211 -54.2969 L 64.7461 -54.2969 L 64.7461 -46.2891 C 64.7461 -42.9688 66.7969 -40.8691 70.0195 -40.8691 C 71.582 -40.8691 72.7051 -41.4062 73.6328 -42.1875 L 91.4062 -57.373 C 93.7988 -59.4238 93.75 -62.8418 91.4062 -64.8438 L 73.6328 -79.9805 C 72.7051 -80.7617 71.582 -81.2988 70.0195 -81.2988 C 66.7969 -81.2988 64.7461 -79.1992 64.7461 -75.8789 L 64.7461 -68.6523 L 37.1094 -68.6523 C 20.0195 -68.6523 9.76562 -60.0098 9.76562 -45.6543 Z M 51.123 -29.6387 C 51.123 -32.959 49.0723 -35.0586 45.8496 -35.0586 C 44.2871 -35.0586 43.1641 -34.5215 42.2363 -33.7402 L 24.4629 -18.5547 C 22.0703 -16.5039 22.1191 -13.0859 24.4629 -11.084 L 42.2363 4.05273 C 43.1641 4.83398 44.2871 5.37109 45.8496 5.37109 C 49.0723 5.37109 51.123 3.27148 51.123 -0.0488281 L 51.123 -7.12891 L 78.7598 -7.12891 C 95.8496 -7.12891 106.104 -15.7715 106.104 -30.127 L 106.104 -34.668 C 106.104 -38.7207 102.783 -42.041 98.7305 -42.041 C 94.6777 -42.041 91.4062 -38.7207 91.4062 -34.668 L 91.4062 -32.4219 C 91.4062 -25.4883 86.9141 -21.4844 79.248 -21.4844 L 51.123 -21.4844 Z"/>
  </g>
  <g id="Heavy-S" transform="matrix(1 0 0 1 2580 696)">
   <path d="M 9.76562 -40.4297 C 9.76562 -36.7188 12.793 -33.7402 16.4551 -33.7402 C 20.166 -33.7402 23.1445 -36.7188 23.1445 -40.4297 L 23.1445 -42.7734 C 23.1445 -49.4141 27.5391 -53.418 34.8145 -53.418 L 63.3301 -53.418 L 63.3301 -45.4102 C 63.3301 -42.334 65.2344 -40.4297 68.2129 -40.4297 C 69.6289 -40.4297 70.752 -40.918 71.6309 -41.6504 L 88.6719 -56.1523 C 90.8691 -58.0566 90.8691 -61.2305 88.6719 -63.0859 L 71.6309 -77.5879 C 70.752 -78.3203 69.6289 -78.8086 68.2129 -78.8086 C 65.2344 -78.8086 63.3301 -76.9043 63.3301 -73.8281 L 63.3301 -66.5039 L 35.4004 -66.5039 C 19.4336 -66.5039 9.76562 -58.2031 9.76562 -44.6777 Z M 50.0488 -29.1992 C 50.0488 -32.2754 48.1445 -34.1797 45.166 -34.1797 C 43.7012 -34.1797 42.627 -33.6914 41.748 -32.959 L 24.707 -18.457 C 22.4609 -16.5527 22.5098 -13.3789 24.707 -11.5234 L 41.748 2.97852 C 42.627 3.71094 43.7012 4.19922 45.166 4.19922 C 48.1445 4.19922 50.0488 2.29492 50.0488 -0.78125 L 50.0488 -8.00781 L 77.9785 -8.00781 C 93.8965 -8.00781 103.613 -16.3086 103.613 -29.834 L 103.613 -34.082 C 103.613 -37.793 100.586 -40.7715 96.875 -40.7715 C 93.2129 -40.7715 90.2344 -37.793 90.2344 -34.082 L 90.2344 -31.7383 C 90.2344 -25.0977 85.8398 -21.0938 78.5156 -21.0938 L 50.0488 -21.0938 Z"/>
  </g>
  <g id="Bold-S" transform="matrix(1 0 0 1 2284.7 696)">
   <path d="M 9.76562 -39.6484 C 9.76562 -36.377 12.4512 -33.6914 15.7227 -33.6914 C 18.9941 -33.6914 21.6309 -36.377 21.6309 -39.6484 L 21.6309 -42.1387 C 21.6309 -48.4375 25.9766 -52.3926 32.8125 -52.3926 L 61.7676 -52.3926 L 61.7676 -44.4336 C 61.7676 -41.6504 63.4766 -39.8926 66.2109 -39.8926 C 67.4805 -39.8926 68.5547 -40.3809 69.3848 -41.0645 L 85.5469 -54.7852 C 87.6465 -56.543 87.5977 -59.375 85.5469 -61.1328 L 69.3848 -74.8535 C 68.5547 -75.5859 67.4805 -76.0254 66.2109 -76.0254 C 63.4766 -76.0254 61.7676 -74.2676 61.7676 -71.5332 L 61.7676 -64.0625 L 33.4473 -64.0625 C 18.7988 -64.0625 9.76562 -56.2012 9.76562 -43.5547 Z M 48.8281 -28.7109 C 48.8281 -31.4453 47.0703 -33.2031 44.3359 -33.2031 C 43.0664 -33.2031 41.9922 -32.7637 41.1621 -32.0312 L 25 -18.3105 C 22.9004 -16.6016 22.9492 -13.7207 25 -12.0117 L 41.1621 1.75781 C 41.9922 2.44141 43.0664 2.92969 44.3359 2.92969 C 47.0703 2.92969 48.8281 1.17188 48.8281 -1.61133 L 48.8281 -9.0332 L 77.0996 -9.0332 C 91.748 -9.0332 100.781 -16.8945 100.781 -29.541 L 100.781 -33.4473 C 100.781 -36.7188 98.1445 -39.4043 94.8242 -39.4043 C 91.5527 -39.4043 88.916 -36.7188 88.916 -33.4473 L 88.916 -30.957 C 88.916 -24.6582 84.5703 -20.7031 77.7344 -20.7031 L 48.8281 -20.7031 Z"/>
  </g>
  <g id="Semibold-S" transform="matrix(1 0 0 1 1988.97 696)">
   <path d="M 9.76562 -39.1113 C 9.76562 -36.1328 12.207 -33.6914 15.1855 -33.6914 C 18.2129 -33.6914 20.6055 -36.1328 20.6055 -39.1113 L 20.6055 -41.6992 C 20.6055 -47.8027 24.8535 -51.709 31.4453 -51.709 L 60.6445 -51.709 L 60.6445 -43.75 C 60.6445 -41.1621 62.2559 -39.5508 64.7949 -39.5508 C 65.9668 -39.5508 67.041 -39.9902 67.8223 -40.6738 L 83.4473 -53.8574 C 85.4004 -55.4688 85.3516 -58.1055 83.4473 -59.7656 L 67.8223 -72.998 C 67.041 -73.6816 65.9668 -74.1211 64.7949 -74.1211 C 62.2559 -74.1211 60.6445 -72.5098 60.6445 -69.9219 L 60.6445 -62.4023 L 32.1289 -62.4023 C 18.3594 -62.4023 9.76562 -54.834 9.76562 -42.8223 Z M 47.9492 -28.3691 C 47.9492 -30.9082 46.3867 -32.5195 43.7988 -32.5195 C 42.6758 -32.5195 41.6016 -32.1289 40.7715 -31.4453 L 25.1953 -18.2617 C 23.2422 -16.6016 23.2422 -13.9648 25.1953 -12.3047 L 40.7715 0.927734 C 41.6016 1.5625 42.6758 2.00195 43.7988 2.00195 C 46.3867 2.00195 47.9492 0.390625 47.9492 -2.14844 L 47.9492 -9.7168 L 76.5137 -9.7168 C 90.2344 -9.7168 98.8281 -17.2852 98.8281 -29.2969 L 98.8281 -33.0078 C 98.8281 -35.9863 96.4355 -38.4277 93.4082 -38.4277 C 90.3809 -38.4277 87.9883 -35.9863 87.9883 -33.0078 L 87.9883 -30.4199 C 87.9883 -24.3164 83.7402 -20.4102 77.1973 -20.4102 L 47.9492 -20.4102 Z"/>
  </g>
  <g id="Medium-S" transform="matrix(1 0 0 1 1692.99 696)">
   <path d="M 9.76562 -38.7207 C 9.76562 -35.9375 12.0117 -33.6914 14.7949 -33.6914 C 17.627 -33.6914 19.873 -35.9375 19.873 -38.7207 L 19.873 -41.3574 C 19.873 -47.2656 24.0234 -51.2207 30.3711 -51.2207 L 59.8145 -51.2207 L 59.8145 -43.2129 C 59.8145 -40.8203 61.3281 -39.3066 63.7695 -39.3066 C 64.8438 -39.3066 65.8691 -39.6973 66.6504 -40.3809 L 81.8359 -53.125 C 83.6914 -54.6875 83.6914 -57.1777 81.8359 -58.7402 L 66.6504 -71.582 C 65.8691 -72.2656 64.8438 -72.6562 63.7695 -72.6562 C 61.3281 -72.6562 59.8145 -71.1426 59.8145 -68.75 L 59.8145 -61.1328 L 31.1035 -61.1328 C 18.0664 -61.1328 9.76562 -53.7598 9.76562 -42.2363 Z M 47.3145 -28.125 C 47.3145 -30.5176 45.8008 -32.0312 43.4082 -32.0312 C 42.334 -32.0312 41.2598 -31.6406 40.4785 -30.957 L 25.3418 -18.1641 C 23.4375 -16.6504 23.4863 -14.1602 25.3418 -12.5977 L 40.4785 0.292969 C 41.2598 0.927734 42.334 1.31836 43.4082 1.31836 C 45.8008 1.31836 47.3145 -0.195312 47.3145 -2.58789 L 47.3145 -10.2539 L 76.0254 -10.2539 C 89.1113 -10.2539 97.3633 -17.627 97.3633 -29.1504 L 97.3633 -32.666 C 97.3633 -35.4492 95.1172 -37.6953 92.334 -37.6953 C 89.5508 -37.6953 87.3047 -35.4492 87.3047 -32.666 L 87.3047 -30.0293 C 87.3047 -24.1211 83.1055 -20.166 76.7578 -20.166 L 47.3145 -20.166 Z"/>
  </g>
  <g id="Regular-S" transform="matrix(1 0 0 1 1397.23 696)">
   <path d="M 9.76562 -38.1836 C 9.76562 -35.6934 11.7676 -33.6914 14.3066 -33.6914 C 16.8457 -33.6914 18.8477 -35.6934 18.8477 -38.1836 L 18.8477 -40.8691 C 18.8477 -46.6309 22.9492 -50.5371 29.0039 -50.5371 L 58.7402 -50.5371 L 58.7402 -42.5293 C 58.7402 -40.332 60.1562 -38.9648 62.4023 -38.9648 C 63.3301 -38.9648 64.4043 -39.3555 65.1367 -39.9414 L 79.7363 -52.1973 C 81.4941 -53.6133 81.4453 -55.9082 79.7363 -57.4219 L 65.1367 -69.7754 C 64.4043 -70.3613 63.3301 -70.752 62.4023 -70.752 C 60.1562 -70.752 58.7402 -69.3848 58.7402 -67.1875 L 58.7402 -59.4727 L 29.7852 -59.4727 C 17.627 -59.4727 9.76562 -52.3926 9.76562 -41.5039 Z M 46.4844 -27.7832 C 46.4844 -29.9805 45.1172 -31.3477 42.8711 -31.3477 C 41.8945 -31.3477 40.8203 -30.957 40.1367 -30.3711 L 25.5371 -18.1152 C 23.7793 -16.6504 23.7793 -14.4043 25.5371 -12.8906 L 40.1367 -0.537109 C 40.8203 0.0488281 41.8945 0.439453 42.8711 0.439453 C 45.1172 0.439453 46.4844 -0.927734 46.4844 -3.125 L 46.4844 -10.9375 L 75.4395 -10.9375 C 87.5977 -10.9375 95.459 -18.0176 95.459 -28.9062 L 95.459 -32.2266 C 95.459 -34.7168 93.457 -36.7188 90.918 -36.7188 C 88.4277 -36.7188 86.377 -34.7168 86.377 -32.2266 L 86.377 -29.4922 C 86.377 -23.7793 82.2754 -19.873 76.2207 -19.873 L 46.4844 -19.873 Z"/>
  </g>
  <g id="Light-S" transform="matrix(1 0 0 1 1102.43 696)">
   <path d="M 9.76562 -37.7441 C 9.76562 -35.5957 11.5234 -33.8379 13.7207 -33.8379 C 15.918 -33.8379 17.6758 -35.5957 17.6758 -37.7441 L 17.6758 -40.1855 C 17.6758 -46.5332 21.9238 -50.6836 28.418 -50.6836 L 56.4941 -50.6836 L 56.4941 -42.627 C 56.4941 -40.6738 57.7637 -39.4531 59.7656 -39.4531 C 60.6445 -39.4531 61.5234 -39.7461 62.207 -40.332 L 76.5625 -52.002 C 78.2715 -53.3691 78.2715 -55.7129 76.5625 -57.0801 L 62.207 -68.7988 C 61.5234 -69.3848 60.6445 -69.7266 59.7656 -69.7266 C 57.7637 -69.7266 56.4941 -68.457 56.4941 -66.5039 L 56.4941 -58.4473 L 29.1992 -58.4473 C 17.2852 -58.4473 9.76562 -51.6113 9.76562 -40.7715 Z M 44.873 -27.6855 C 44.873 -29.6387 43.6035 -30.8594 41.6016 -30.8594 C 40.7227 -30.8594 39.8438 -30.5664 39.1602 -29.9805 L 24.8047 -18.3105 C 23.1445 -16.9434 23.0957 -14.6484 24.8047 -13.2324 L 39.1602 -1.51367 C 39.8438 -0.927734 40.7227 -0.585938 41.6016 -0.585938 C 43.6035 -0.585938 44.873 -1.85547 44.873 -3.80859 L 44.873 -11.9629 L 72.168 -11.9629 C 84.1309 -11.9629 91.6504 -18.7988 91.6504 -29.5898 L 91.6504 -32.6172 C 91.6504 -34.8145 89.8926 -36.5723 87.6953 -36.5723 C 85.498 -36.5723 83.7402 -34.8145 83.7402 -32.6172 L 83.7402 -30.2246 C 83.7402 -23.877 79.4922 -19.7266 72.998 -19.7266 L 44.873 -19.7266 Z"/>
  </g>
  <g id="Thin-S" transform="matrix(1 0 0 1 808.253 696)">
   <path d="M 9.76562 -37.207 C 9.76562 -35.4492 11.1816 -33.9844 12.9395 -33.9844 C 14.6973 -33.9844 16.1133 -35.4492 16.1133 -37.207 L 16.1133 -39.2578 C 16.1133 -46.4355 20.5566 -50.8789 27.5879 -50.8789 L 53.5645 -50.8789 L 53.5645 -42.7246 C 53.5645 -41.1133 54.6387 -40.0879 56.3477 -40.0879 C 57.0801 -40.0879 57.7637 -40.332 58.3984 -40.8203 L 72.4121 -51.7578 C 74.0723 -53.0762 74.0234 -55.4199 72.4121 -56.6895 L 58.3984 -67.5781 C 57.7637 -68.1152 57.0801 -68.3594 56.3477 -68.3594 C 54.6387 -68.3594 53.5645 -67.2852 53.5645 -65.6738 L 53.5645 -57.0312 L 28.4668 -57.0312 C 16.8457 -57.0312 9.76562 -50.5371 9.76562 -39.8926 Z M 42.7734 -27.5879 C 42.7734 -29.1992 41.6504 -30.2246 39.9902 -30.2246 C 39.2578 -30.2246 38.5742 -29.9805 37.8906 -29.4922 L 23.9258 -18.5547 C 22.3145 -17.334 22.2168 -14.9902 23.9258 -13.6719 L 37.8906 -2.73438 C 38.5742 -2.19727 39.2578 -1.95312 39.9902 -1.95312 C 41.6504 -1.95312 42.7734 -3.02734 42.7734 -4.63867 L 42.7734 -13.3301 L 67.8711 -13.3301 C 79.4922 -13.3301 86.5723 -19.8242 86.5723 -30.4688 L 86.5723 -33.2031 C 86.5723 -34.9121 85.1074 -36.377 83.3984 -36.377 C 81.6406 -36.377 80.2246 -34.9121 80.2246 -33.2031 L 80.2246 -31.1035 C 80.2246 -23.9746 75.7812 -19.4824 68.7012 -19.4824 L 42.7734 -19.4824 Z"/>
  </g>
  <g id="Ultralight-S" transform="matrix(1 0 0 1 512.861 696)">
   <path d="M 9.76562 -36.8652 C 9.76562 -35.3516 11.0352 -34.1309 12.5488 -34.1309 C 14.0625 -34.1309 15.332 -35.3516 15.332 -36.8652 L 15.332 -38.7695 C 15.332 -46.3379 19.8242 -50.9766 27.1973 -50.9766 L 52.0508 -50.9766 L 52.0508 -42.8223 C 52.0508 -41.3574 53.0762 -40.3809 54.541 -40.3809 C 55.2734 -40.3809 55.8105 -40.625 56.4453 -41.1133 L 70.2637 -51.6602 C 71.9238 -52.9297 71.8262 -55.2734 70.2637 -56.4453 L 56.4453 -66.9434 C 55.8105 -67.4316 55.2734 -67.627 54.541 -67.627 C 53.0762 -67.627 52.0508 -66.6992 52.0508 -65.2344 L 52.0508 -56.2988 L 28.0762 -56.2988 C 16.6016 -56.2988 9.76562 -50 9.76562 -39.4043 Z M 41.6504 -27.4902 C 41.6504 -28.9551 40.6738 -29.9316 39.1602 -29.9316 C 38.4766 -29.9316 37.8906 -29.6875 37.2559 -29.1992 L 23.4375 -18.7012 C 21.875 -17.5293 21.7773 -15.1855 23.4375 -13.916 L 37.2559 -3.36914 C 37.8906 -2.88086 38.4766 -2.68555 39.1602 -2.68555 C 40.6738 -2.68555 41.6504 -3.61328 41.6504 -5.07812 L 41.6504 -14.0625 L 65.625 -14.0625 C 77.0996 -14.0625 83.9355 -20.3613 83.9355 -30.957 L 83.9355 -33.4961 C 83.9355 -35.0098 82.666 -36.2793 81.1523 -36.2793 C 79.6387 -36.2793 78.418 -35.0098 78.418 -33.4961 L 78.418 -31.5918 C 78.418 -24.0234 73.877 -19.3848 66.5039 -19.3848 L 41.6504 -19.3848 Z"/>
  </g>
 </g>
</svg>
