<?xml version="1.0" encoding="UTF-8"?>
<!--Generator: Apple Native CoreSVG 129-->
<!DOCTYPE svg
PUBLIC "-//W3C//DTD SVG 1.1//EN"
       "http://www.w3.org/Graphics/SVG/1.1/DTD/svg11.dtd">
<svg version="1.1" xmlns="http://www.w3.org/2000/svg" xmlns:xlink="http://www.w3.org/1999/xlink" width="3300" height="2200">
 <!--glyph: "uni100283.medium", point size: 100.000000, font version: "Version 16.0d9e1", template writer version: "8"-->
 <g id="Notes">
  <rect height="2200" id="artboard" style="fill:white;opacity:1" width="3300" x="0" y="0"/>
  <line id="" style="fill:none;stroke:black;opacity:1;stroke-width:0.5;" x1="263" x2="3036" y1="292" y2="292"/>
  <text style="stroke:none;fill:black;font-family:-apple-system,&quot;SF Pro Display&quot;,&quot;SF Pro Text&quot;,Helvetica,sans-serif;font-weight:bold;" transform="matrix(1 0 0 1 263 322)">Weight/Scale Variations</text>
  <text style="stroke:none;fill:black;font-family:-apple-system,&quot;SF Pro Display&quot;,&quot;SF Pro Text&quot;,Helvetica,sans-serif;text-anchor:middle;" transform="matrix(1 0 0 1 559.711 322)">Ultralight</text>
  <text style="stroke:none;fill:black;font-family:-apple-system,&quot;SF Pro Display&quot;,&quot;SF Pro Text&quot;,Helvetica,sans-serif;text-anchor:middle;" transform="matrix(1 0 0 1 856.422 322)">Thin</text>
  <text style="stroke:none;fill:black;font-family:-apple-system,&quot;SF Pro Display&quot;,&quot;SF Pro Text&quot;,Helvetica,sans-serif;text-anchor:middle;" transform="matrix(1 0 0 1 1153.13 322)">Light</text>
  <text style="stroke:none;fill:black;font-family:-apple-system,&quot;SF Pro Display&quot;,&quot;SF Pro Text&quot;,Helvetica,sans-serif;text-anchor:middle;" transform="matrix(1 0 0 1 1449.84 322)">Regular</text>
  <text style="stroke:none;fill:black;font-family:-apple-system,&quot;SF Pro Display&quot;,&quot;SF Pro Text&quot;,Helvetica,sans-serif;text-anchor:middle;" transform="matrix(1 0 0 1 1746.56 322)">Medium</text>
  <text style="stroke:none;fill:black;font-family:-apple-system,&quot;SF Pro Display&quot;,&quot;SF Pro Text&quot;,Helvetica,sans-serif;text-anchor:middle;" transform="matrix(1 0 0 1 2043.27 322)">Semibold</text>
  <text style="stroke:none;fill:black;font-family:-apple-system,&quot;SF Pro Display&quot;,&quot;SF Pro Text&quot;,Helvetica,sans-serif;text-anchor:middle;" transform="matrix(1 0 0 1 2339.98 322)">Bold</text>
  <text style="stroke:none;fill:black;font-family:-apple-system,&quot;SF Pro Display&quot;,&quot;SF Pro Text&quot;,Helvetica,sans-serif;text-anchor:middle;" transform="matrix(1 0 0 1 2636.69 322)">Heavy</text>
  <text style="stroke:none;fill:black;font-family:-apple-system,&quot;SF Pro Display&quot;,&quot;SF Pro Text&quot;,Helvetica,sans-serif;text-anchor:middle;" transform="matrix(1 0 0 1 2933.4 322)">Black</text>
  <line id="" style="fill:none;stroke:black;opacity:1;stroke-width:0.5;" x1="263" x2="3036" y1="1903" y2="1903"/>
  <g id="" transform="matrix(1 0 0 1 263 1933)">
   <path d="M 9.24805 0.830078 C 13.5547 0.830078 17.1387 -2.74414 17.1387 -7.05078 C 17.1387 -11.3574 13.5449 -14.9316 9.23828 -14.9316 C 4.94141 -14.9316 1.36719 -11.3574 1.36719 -7.05078 C 1.36719 -2.74414 4.95117 0.830078 9.24805 0.830078 Z M 9.24805 -0.654297 C 5.70312 -0.654297 2.87109 -3.49609 2.87109 -7.05078 C 2.87109 -10.6055 5.69336 -13.4473 9.23828 -13.4473 C 12.793 -13.4473 15.6348 -10.6055 15.6445 -7.05078 C 15.6543 -3.49609 12.8027 -0.654297 9.24805 -0.654297 Z M 9.22852 -3.62305 C 9.69727 -3.62305 9.9707 -3.93555 9.9707 -4.45312 L 9.9707 -6.31836 L 12.002 -6.31836 C 12.5 -6.31836 12.832 -6.57227 12.832 -7.04102 C 12.832 -7.51953 12.5195 -7.7832 12.002 -7.7832 L 9.9707 -7.7832 L 9.9707 -9.81445 C 9.9707 -10.332 9.69727 -10.6543 9.22852 -10.6543 C 8.75977 -10.6543 8.50586 -10.3125 8.50586 -9.81445 L 8.50586 -7.7832 L 6.49414 -7.7832 C 5.97656 -7.7832 5.64453 -7.51953 5.64453 -7.04102 C 5.64453 -6.57227 5.99609 -6.31836 6.49414 -6.31836 L 8.50586 -6.31836 L 8.50586 -4.45312 C 8.50586 -3.95508 8.75977 -3.62305 9.22852 -3.62305 Z"/>
  </g>
  <g id="" transform="matrix(1 0 0 1 281.506 1933)">
   <path d="M 11.709 2.91016 C 17.1582 2.91016 21.6699 -1.61133 21.6699 -7.05078 C 21.6699 -12.5 17.1484 -17.0117 11.6992 -17.0117 C 6.25977 -17.0117 1.74805 -12.5 1.74805 -7.05078 C 1.74805 -1.61133 6.26953 2.91016 11.709 2.91016 Z M 11.709 1.25 C 7.09961 1.25 3.41797 -2.44141 3.41797 -7.05078 C 3.41797 -11.6602 7.08984 -15.3516 11.6992 -15.3516 C 16.3086 -15.3516 20 -11.6602 20.0098 -7.05078 C 20.0195 -2.44141 16.3184 1.25 11.709 1.25 Z M 11.6797 -2.66602 C 12.207 -2.66602 12.5098 -3.01758 12.5098 -3.59375 L 12.5098 -6.23047 L 15.3223 -6.23047 C 15.8691 -6.23047 16.25 -6.51367 16.25 -7.03125 C 16.25 -7.55859 15.8887 -7.86133 15.3223 -7.86133 L 12.5098 -7.86133 L 12.5098 -10.6836 C 12.5098 -11.25 12.207 -11.6113 11.6797 -11.6113 C 11.1621 -11.6113 10.8789 -11.2305 10.8789 -10.6836 L 10.8789 -7.86133 L 8.07617 -7.86133 C 7.50977 -7.86133 7.13867 -7.55859 7.13867 -7.03125 C 7.13867 -6.51367 7.5293 -6.23047 8.07617 -6.23047 L 10.8789 -6.23047 L 10.8789 -3.59375 C 10.8789 -3.03711 11.1621 -2.66602 11.6797 -2.66602 Z"/>
  </g>
  <g id="" transform="matrix(1 0 0 1 304.924 1933)">
   <path d="M 14.9707 5.66406 C 21.9336 5.66406 27.6953 -0.0976562 27.6953 -7.05078 C 27.6953 -14.0137 21.9238 -19.7754 14.9609 -19.7754 C 8.00781 -19.7754 2.25586 -14.0137 2.25586 -7.05078 C 2.25586 -0.0976562 8.01758 5.66406 14.9707 5.66406 Z M 14.9707 3.84766 C 8.93555 3.84766 4.08203 -1.01562 4.08203 -7.05078 C 4.08203 -13.0957 8.92578 -17.9492 14.9609 -17.9492 C 21.0059 -17.9492 25.8594 -13.0957 25.8691 -7.05078 C 25.8789 -1.01562 21.0156 3.84766 14.9707 3.84766 Z M 14.9414 -1.38672 C 15.5176 -1.38672 15.8594 -1.77734 15.8594 -2.38281 L 15.8594 -6.13281 L 19.7754 -6.13281 C 20.3711 -6.13281 20.7812 -6.46484 20.7812 -7.02148 C 20.7812 -7.59766 20.3906 -7.93945 19.7754 -7.93945 L 15.8594 -7.93945 L 15.8594 -11.8652 C 15.8594 -12.4805 15.5176 -12.8711 14.9414 -12.8711 C 14.375 -12.8711 14.0527 -12.4609 14.0527 -11.8652 L 14.0527 -7.93945 L 10.1465 -7.93945 C 9.53125 -7.93945 9.13086 -7.59766 9.13086 -7.02148 C 9.13086 -6.46484 9.55078 -6.13281 10.1465 -6.13281 L 14.0527 -6.13281 L 14.0527 -2.38281 C 14.0527 -1.79688 14.375 -1.38672 14.9414 -1.38672 Z"/>
  </g>
  <text style="stroke:none;fill:black;font-family:-apple-system,&quot;SF Pro Display&quot;,&quot;SF Pro Text&quot;,Helvetica,sans-serif;font-weight:bold;" transform="matrix(1 0 0 1 263 1953)">Design Variations</text>
  <text style="stroke:none;fill:black;font-family:-apple-system,&quot;SF Pro Display&quot;,&quot;SF Pro Text&quot;,Helvetica,sans-serif;" transform="matrix(1 0 0 1 263 1971)">Symbols are supported in up to nine weights and three scales.</text>
  <text style="stroke:none;fill:black;font-family:-apple-system,&quot;SF Pro Display&quot;,&quot;SF Pro Text&quot;,Helvetica,sans-serif;" transform="matrix(1 0 0 1 263 1989)">For optimal layout with text and other symbols, vertically align</text>
  <text style="stroke:none;fill:black;font-family:-apple-system,&quot;SF Pro Display&quot;,&quot;SF Pro Text&quot;,Helvetica,sans-serif;" transform="matrix(1 0 0 1 263 2007)">symbols with the adjacent text.</text>
  <line id="" style="fill:none;stroke:#00AEEF;stroke-width:0.5;opacity:1.0;" x1="776" x2="776" y1="1919" y2="1933"/>
  <g id="" transform="matrix(1 0 0 1 776 1933)">
   <path d="M 3.31055 0.126953 C 3.82812 0.126953 4.08203 -0.0683594 4.26758 -0.605469 L 5.52734 -4.0625 L 11.2891 -4.0625 L 12.5488 -0.605469 C 12.7344 -0.0683594 12.9883 0.126953 13.4961 0.126953 C 14.0137 0.126953 14.3457 -0.185547 14.3457 -0.673828 C 14.3457 -0.839844 14.3164 -0.986328 14.2383 -1.20117 L 9.6582 -13.3887 C 9.43359 -13.9941 9.0332 -14.2871 8.4082 -14.2871 C 7.80273 -14.2871 7.39258 -13.9941 7.17773 -13.3984 L 2.59766 -1.19141 C 2.51953 -0.976562 2.49023 -0.830078 2.49023 -0.664062 C 2.49023 -0.175781 2.80273 0.126953 3.31055 0.126953 Z M 6.00586 -5.53711 L 8.37891 -12.1094 L 8.42773 -12.1094 L 10.8008 -5.53711 Z"/>
  </g>
  <line id="" style="fill:none;stroke:#00AEEF;stroke-width:0.5;opacity:1.0;" x1="792.836" x2="792.836" y1="1919" y2="1933"/>
  <text style="stroke:none;fill:black;font-family:-apple-system,&quot;SF Pro Display&quot;,&quot;SF Pro Text&quot;,Helvetica,sans-serif;font-weight:bold;" transform="matrix(1 0 0 1 776 1953)">Margins</text>
  <text style="stroke:none;fill:black;font-family:-apple-system,&quot;SF Pro Display&quot;,&quot;SF Pro Text&quot;,Helvetica,sans-serif;" transform="matrix(1 0 0 1 776 1971)">Leading and trailing margins on the left and right side of each symbol</text>
  <text style="stroke:none;fill:black;font-family:-apple-system,&quot;SF Pro Display&quot;,&quot;SF Pro Text&quot;,Helvetica,sans-serif;" transform="matrix(1 0 0 1 776 1989)">can be adjusted by modifying the x-location of the margin guidelines.</text>
  <text style="stroke:none;fill:black;font-family:-apple-system,&quot;SF Pro Display&quot;,&quot;SF Pro Text&quot;,Helvetica,sans-serif;" transform="matrix(1 0 0 1 776 2007)">Modifications are automatically applied proportionally to all</text>
  <text style="stroke:none;fill:black;font-family:-apple-system,&quot;SF Pro Display&quot;,&quot;SF Pro Text&quot;,Helvetica,sans-serif;" transform="matrix(1 0 0 1 776 2025)">scales and weights.</text>
  <g id="" transform="matrix(1 0 0 1 1289 1933)">
   <path d="M 2.8418 1.86523 L 4.54102 3.57422 C 5.40039 4.44336 6.38672 4.38477 7.31445 3.35938 L 17.4902 -7.85156 C 17.7539 -7.76367 18.0273 -7.7832 18.3398 -7.8418 L 19.4043 -8.03711 L 20.0684 -7.36328 L 20.0293 -6.80664 C 19.9902 -6.30859 20.1172 -5.92773 20.6055 -5.44922 L 21.3672 -4.70703 C 21.8457 -4.22852 22.4609 -4.19922 22.9297 -4.66797 L 25.8398 -7.58789 C 26.3086 -8.05664 26.2891 -8.65234 25.8105 -9.13086 L 25.0391 -9.89258 C 24.5605 -10.3711 24.1895 -10.5273 23.7109 -10.4883 L 23.1348 -10.4395 L 22.4902 -11.0742 L 22.7344 -12.1973 C 22.8613 -12.7637 22.7051 -13.2031 22.1191 -13.7891 L 19.9219 -15.9766 C 16.582 -19.2969 12.1484 -19.2188 9.25781 -16.3281 C 8.83789 -15.918 8.80859 -15.3418 9.04297 -14.9512 C 9.27734 -14.5898 9.73633 -14.3555 10.3809 -14.5215 C 11.8457 -14.8633 13.3691 -14.9219 14.7949 -13.9844 L 14.209 -12.5293 C 14.0137 -12.0508 13.9844 -11.6504 14.1113 -11.2891 L 3.04688 -0.898438 C 2.06055 0.0195312 1.98242 0.996094 2.8418 1.86523 Z M 10.752 -15.957 C 13.1836 -17.7344 16.4746 -17.4316 18.7012 -15.2051 L 21.1328 -12.793 C 21.3672 -12.5586 21.4062 -12.373 21.3379 -12.0312 L 21.0156 -10.5469 L 22.5195 -9.0625 L 23.5059 -9.12109 C 23.7598 -9.13086 23.8379 -9.11133 24.0332 -8.91602 L 24.6094 -8.33984 L 22.168 -5.89844 L 21.5918 -6.47461 C 21.3965 -6.66992 21.3672 -6.74805 21.377 -7.01172 L 21.4453 -7.98828 L 19.9512 -9.47266 L 18.4277 -9.21875 C 18.1055 -9.15039 17.959 -9.17969 17.7148 -9.41406 L 15.7129 -11.416 C 15.459 -11.6504 15.4297 -11.8164 15.5859 -12.1875 L 16.4648 -14.2773 C 14.9023 -15.7324 12.8711 -16.3574 10.8398 -15.7617 C 10.6836 -15.7227 10.625 -15.8496 10.752 -15.957 Z M 5.27344 2.30469 L 4.10156 1.14258 C 3.63281 0.683594 3.74023 0.341797 4.14062 -0.0195312 L 14.9512 -10.1953 L 16.416 -8.71094 L 6.42578 2.27539 C 6.07422 2.67578 5.74219 2.77344 5.27344 2.30469 Z"/>
  </g>
  <text style="stroke:none;fill:black;font-family:-apple-system,&quot;SF Pro Display&quot;,&quot;SF Pro Text&quot;,Helvetica,sans-serif;font-weight:bold;" transform="matrix(1 0 0 1 1289 1953)">Exporting</text>
  <text style="stroke:none;fill:black;font-family:-apple-system,&quot;SF Pro Display&quot;,&quot;SF Pro Text&quot;,Helvetica,sans-serif;" transform="matrix(1 0 0 1 1289 1971)">Symbols should be outlined when exporting to ensure the</text>
  <text style="stroke:none;fill:black;font-family:-apple-system,&quot;SF Pro Display&quot;,&quot;SF Pro Text&quot;,Helvetica,sans-serif;" transform="matrix(1 0 0 1 1289 1989)">design is preserved when submitting to Xcode.</text>
  <text id="template-version" style="stroke:none;fill:black;font-family:-apple-system,&quot;SF Pro Display&quot;,&quot;SF Pro Text&quot;,Helvetica,sans-serif;text-anchor:end;" transform="matrix(1 0 0 1 3036 1933)">Template v.2.0</text>
  <text style="stroke:none;fill:black;font-family:-apple-system,&quot;SF Pro Display&quot;,&quot;SF Pro Text&quot;,Helvetica,sans-serif;text-anchor:end;" transform="matrix(1 0 0 1 3036 1951)">Requires Xcode 12 or greater</text>
  <text style="stroke:none;fill:black;font-family:-apple-system,&quot;SF Pro Display&quot;,&quot;SF Pro Text&quot;,Helvetica,sans-serif;text-anchor:end;" transform="matrix(1 0 0 1 3036 1969)">Generated from play</text>
  <text style="stroke:none;fill:black;font-family:-apple-system,&quot;SF Pro Display&quot;,&quot;SF Pro Text&quot;,Helvetica,sans-serif;text-anchor:end;" transform="matrix(1 0 0 1 3036 1987)">Typeset at 100 points</text>
  <text style="stroke:none;fill:black;font-family:-apple-system,&quot;SF Pro Display&quot;,&quot;SF Pro Text&quot;,Helvetica,sans-serif;" transform="matrix(1 0 0 1 263 726)">Small</text>
  <text style="stroke:none;fill:black;font-family:-apple-system,&quot;SF Pro Display&quot;,&quot;SF Pro Text&quot;,Helvetica,sans-serif;" transform="matrix(1 0 0 1 263 1156)">Medium</text>
  <text style="stroke:none;fill:black;font-family:-apple-system,&quot;SF Pro Display&quot;,&quot;SF Pro Text&quot;,Helvetica,sans-serif;" transform="matrix(1 0 0 1 263 1586)">Large</text>
 </g>
 <g id="Guides">
  <g id="H-reference" style="fill:#27AAE1;stroke:none;" transform="matrix(1 0 0 1 339 696)">
   <path d="M 0.976562 0 L 3.66211 0 L 12.9883 -24.4629 L 45.7031 -24.4629 L 55.0781 0 L 57.7148 0 L 30.6152 -70.459 L 28.125 -70.459 Z M 29.2969 -67.1387 L 29.3945 -67.1387 L 44.873 -26.709 L 13.8672 -26.709 Z"/>
  </g>
  <line id="Baseline-S" style="fill:none;stroke:#27AAE1;opacity:1;stroke-width:0.5;" x1="263" x2="3036" y1="696" y2="696"/>
  <line id="Capline-S" style="fill:none;stroke:#27AAE1;opacity:1;stroke-width:0.5;" x1="263" x2="3036" y1="625.541" y2="625.541"/>
  <g id="H-reference" style="fill:#27AAE1;stroke:none;" transform="matrix(1 0 0 1 339 1126)">
   <path d="M 0.976562 0 L 3.66211 0 L 12.9883 -24.4629 L 45.7031 -24.4629 L 55.0781 0 L 57.7148 0 L 30.6152 -70.459 L 28.125 -70.459 Z M 29.2969 -67.1387 L 29.3945 -67.1387 L 44.873 -26.709 L 13.8672 -26.709 Z"/>
  </g>
  <line id="Baseline-M" style="fill:none;stroke:#27AAE1;opacity:1;stroke-width:0.5;" x1="263" x2="3036" y1="1126" y2="1126"/>
  <line id="Capline-M" style="fill:none;stroke:#27AAE1;opacity:1;stroke-width:0.5;" x1="263" x2="3036" y1="1055.54" y2="1055.54"/>
  <g id="H-reference" style="fill:#27AAE1;stroke:none;" transform="matrix(1 0 0 1 339 1556)">
   <path d="M 0.976562 0 L 3.66211 0 L 12.9883 -24.4629 L 45.7031 -24.4629 L 55.0781 0 L 57.7148 0 L 30.6152 -70.459 L 28.125 -70.459 Z M 29.2969 -67.1387 L 29.3945 -67.1387 L 44.873 -26.709 L 13.8672 -26.709 Z"/>
  </g>
  <line id="Baseline-L" style="fill:none;stroke:#27AAE1;opacity:1;stroke-width:0.5;" x1="263" x2="3036" y1="1556" y2="1556"/>
  <line id="Capline-L" style="fill:none;stroke:#27AAE1;opacity:1;stroke-width:0.5;" x1="263" x2="3036" y1="1485.54" y2="1485.54"/>
  <line id="left-margin" style="fill:none;stroke:#00AEEF;stroke-width:0.5;opacity:1.0;" x1="1405.95" x2="1405.95" y1="1030.79" y2="1150.12"/>
  <line id="right-margin" style="fill:none;stroke:#00AEEF;stroke-width:0.5;opacity:1.0;" x1="1493.74" x2="1493.74" y1="1030.79" y2="1150.12"/>
 </g>
 <g id="Symbols">
  <g id="Black-L" transform="matrix(1 0 0 1 2869.75 1556)">
   <path d="M 28.8086 25.8301 C 32.0312 25.8301 35.0098 24.8535 39.1113 22.5098 L 115.723 -21.9238 C 122.021 -25.5371 125.586 -29.3457 125.586 -35.2051 C 125.586 -41.0645 122.021 -44.8242 115.723 -48.4863 L 39.1113 -92.8711 C 35.0098 -95.2148 32.0312 -96.1914 28.8086 -96.1914 C 22.0215 -96.1914 16.0645 -91.0156 16.0645 -82.1289 L 16.0645 11.7676 C 16.0645 20.6055 22.0215 25.8301 28.8086 25.8301 Z M 38.1348 -1.26953 C 37.8418 -1.26953 37.6465 -1.46484 37.6465 -1.85547 L 37.6465 -68.6035 C 37.6465 -68.9453 37.8418 -69.1895 38.1348 -69.1895 C 38.2812 -69.1895 38.4277 -69.0918 38.7207 -68.9453 L 96.4844 -35.6934 C 96.6797 -35.5469 96.7773 -35.4004 96.7773 -35.2051 C 96.7773 -34.9609 96.6797 -34.8145 96.4844 -34.7168 L 38.7207 -1.46484 C 38.4277 -1.31836 38.2812 -1.26953 38.1348 -1.26953 Z"/>
  </g>
  <g id="Heavy-L" transform="matrix(1 0 0 1 2574.82 1556)">
   <path d="M 27.3926 23.9258 C 30.4199 23.9258 33.1543 23.0469 36.8164 20.8984 L 112.939 -23.2422 C 118.848 -26.6602 121.973 -29.9805 121.973 -35.2051 C 121.973 -40.3809 118.848 -43.7012 112.939 -47.1191 L 36.8164 -91.2598 C 33.1543 -93.4082 30.4199 -94.3359 27.3926 -94.3359 C 21.2402 -94.3359 16.0645 -89.5996 16.0645 -81.6406 L 16.0645 11.2793 C 16.0645 19.2383 21.2402 23.9258 27.3926 23.9258 Z M 35.1562 0.878906 C 34.8145 0.878906 34.6191 0.634766 34.6191 0.195312 L 34.6191 -70.6055 C 34.6191 -71.0449 34.8145 -71.2891 35.1562 -71.2891 C 35.3516 -71.2891 35.5469 -71.1914 35.8398 -71.0449 L 96.875 -35.791 C 97.168 -35.6445 97.3145 -35.4492 97.3145 -35.2051 C 97.3145 -34.9121 97.168 -34.7168 96.875 -34.5703 L 35.8398 0.634766 C 35.5469 0.78125 35.3516 0.878906 35.1562 0.878906 Z"/>
  </g>
  <g id="Bold-L" transform="matrix(1 0 0 1 2280.11 1556)">
   <path d="M 25.8301 21.875 C 28.6133 21.875 31.0547 20.9473 34.2773 19.0918 L 109.863 -24.7559 C 115.283 -27.9297 117.92 -30.7129 117.92 -35.2051 C 117.92 -39.6484 115.283 -42.4316 109.863 -45.6055 L 34.2773 -89.502 C 31.0547 -91.3574 28.6133 -92.2363 25.8301 -92.2363 C 20.3613 -92.2363 16.0645 -88.0371 16.0645 -81.1035 L 16.0645 10.7422 C 16.0645 17.6758 20.3613 21.875 25.8301 21.875 Z M 31.8359 3.22266 C 31.4453 3.22266 31.2012 2.97852 31.2012 2.44141 L 31.2012 -72.8516 C 31.2012 -73.3887 31.4453 -73.6328 31.8359 -73.6328 C 32.0801 -73.6328 32.3242 -73.5352 32.6172 -73.3887 L 97.3633 -35.9375 C 97.6562 -35.7422 97.9004 -35.5469 97.9004 -35.2051 C 97.9004 -34.8633 97.6562 -34.6191 97.3633 -34.4238 L 32.6172 2.97852 C 32.3242 3.125 32.0801 3.22266 31.8359 3.22266 Z"/>
  </g>
  <g id="Semibold-L" transform="matrix(1 0 0 1 1984.77 1556)">
   <path d="M 24.8047 20.4102 C 27.3438 20.4102 29.5898 19.5312 32.4707 17.8711 L 107.715 -25.7812 C 112.842 -28.8086 115.137 -31.25 115.137 -35.2051 C 115.137 -39.1113 112.842 -41.6016 107.715 -44.5801 L 32.4707 -88.2324 C 29.5898 -89.9414 27.3438 -90.7715 24.8047 -90.7715 C 19.7754 -90.7715 16.0645 -86.9629 16.0645 -80.7617 L 16.0645 10.3516 C 16.0645 16.6016 19.7754 20.4102 24.8047 20.4102 Z M 29.541 4.88281 C 29.1016 4.88281 28.8574 4.58984 28.8574 4.00391 L 28.8574 -74.4141 C 28.8574 -75 29.1016 -75.293 29.541 -75.293 C 29.834 -75.293 30.0781 -75.1465 30.4199 -74.9512 L 97.6562 -36.0352 C 97.998 -35.8398 98.3398 -35.5957 98.3398 -35.2051 C 98.3398 -34.8145 97.998 -34.5703 97.6562 -34.3262 L 30.4199 4.58984 C 30.0781 4.73633 29.834 4.88281 29.541 4.88281 Z"/>
  </g>
  <g id="Medium-L" transform="matrix(1 0 0 1 1689.11 1556)">
   <path d="M 23.9746 19.3359 C 26.416 19.3359 28.4668 18.457 31.1523 16.9434 L 106.104 -26.6113 C 111.035 -29.4434 113.037 -31.6406 113.037 -35.2051 C 113.037 -38.7207 111.035 -40.918 106.104 -43.7988 L 31.1523 -87.3047 C 28.4668 -88.8672 26.416 -89.6973 23.9746 -89.6973 C 19.3359 -89.6973 16.0645 -86.1328 16.0645 -80.4688 L 16.0645 10.0586 C 16.0645 15.7715 19.3359 19.3359 23.9746 19.3359 Z M 27.7832 6.10352 C 27.3438 6.10352 27.0508 5.81055 27.0508 5.22461 L 27.0508 -75.5859 C 27.0508 -76.2207 27.3438 -76.5137 27.7832 -76.5137 C 28.0762 -76.5137 28.3691 -76.3672 28.7109 -76.1719 L 97.9004 -36.084 C 98.291 -35.8887 98.6328 -35.5957 98.6328 -35.2051 C 98.6328 -34.7656 98.291 -34.4727 97.9004 -34.2773 L 28.7109 5.81055 C 28.3691 6.00586 28.0762 6.10352 27.7832 6.10352 Z"/>
  </g>
  <g id="Regular-L" transform="matrix(1 0 0 1 1393.74 1556)">
   <path d="M 22.9004 17.8711 C 25.1953 17.8711 27.0508 17.0898 29.3945 15.7227 L 103.955 -27.6367 C 108.594 -30.2734 110.303 -32.1289 110.303 -35.2051 C 110.303 -38.2324 108.594 -40.0879 103.955 -42.7734 L 29.3945 -86.084 C 27.0508 -87.4512 25.1953 -88.2812 22.9004 -88.2812 C 18.7012 -88.2812 16.0645 -85.1074 16.0645 -80.0781 L 16.0645 9.7168 C 16.0645 14.6973 18.7012 17.8711 22.9004 17.8711 Z M 25.4883 7.76367 C 25.0488 7.76367 24.7559 7.42188 24.7559 6.73828 L 24.7559 -77.1484 C 24.7559 -77.832 25.0488 -78.125 25.4883 -78.125 C 25.8789 -78.125 26.1719 -77.9785 26.5137 -77.7832 L 98.2422 -36.1816 C 98.6328 -35.9375 99.0723 -35.6445 99.0723 -35.2051 C 99.0723 -34.7168 98.6328 -34.4238 98.2422 -34.1797 L 26.5137 7.42188 C 26.1719 7.61719 25.8789 7.76367 25.4883 7.76367 Z"/>
  </g>
  <g id="Light-L" transform="matrix(1 0 0 1 1097.81 1556)">
   <path d="M 21.9727 17.5781 C 23.877 17.5781 25.3906 16.9434 27.4414 15.7227 L 103.564 -28.7598 C 107.324 -30.9082 108.838 -32.5195 108.838 -35.2051 C 108.838 -37.8418 107.324 -39.4531 103.564 -41.6016 L 27.4414 -86.084 C 25.3906 -87.3047 23.877 -87.9395 21.9727 -87.9395 C 18.3594 -87.9395 16.0645 -85.2539 16.0645 -80.9082 L 16.0645 10.5469 C 16.0645 14.8926 18.3594 17.5781 21.9727 17.5781 Z M 23.6816 9.96094 C 23.0957 9.96094 22.7051 9.47266 22.7051 8.59375 L 22.7051 -79.0039 C 22.7051 -79.9316 23.0957 -80.3223 23.6816 -80.3223 C 24.1699 -80.3223 24.5605 -80.127 25 -79.8828 L 99.4629 -36.6211 C 100 -36.2793 100.635 -35.8398 100.635 -35.2051 C 100.635 -34.5215 100 -34.1309 99.4629 -33.7891 L 25 9.47266 C 24.5605 9.76562 24.1699 9.96094 23.6816 9.96094 Z"/>
  </g>
  <g id="Thin-L" transform="matrix(1 0 0 1 802.101 1556)">
   <path d="M 20.7031 17.1387 C 22.1191 17.1387 23.1934 16.748 24.9023 15.7227 L 103.076 -30.2734 C 105.615 -31.7383 106.982 -33.0566 106.982 -35.2051 C 106.982 -37.3535 105.615 -38.623 103.076 -40.0879 L 24.9023 -86.084 C 23.1934 -87.1094 22.1191 -87.5 20.7031 -87.5 C 17.9199 -87.5 16.0645 -85.498 16.0645 -82.0312 L 16.0645 11.6211 C 16.0645 15.0879 17.9199 17.1387 20.7031 17.1387 Z M 21.2891 12.8418 C 20.5566 12.8418 20.0195 12.2559 20.0195 11.0352 L 20.0195 -81.4453 C 20.0195 -82.7148 20.5566 -83.252 21.2891 -83.252 C 21.9238 -83.252 22.4609 -83.0078 23.0469 -82.6172 L 101.074 -37.1582 C 101.807 -36.6699 102.686 -36.084 102.686 -35.2051 C 102.686 -34.2773 101.807 -33.6914 101.074 -33.252 L 23.0469 12.2559 C 22.4609 12.6465 21.9238 12.8418 21.2891 12.8418 Z"/>
  </g>
  <g id="Ultralight-L" transform="matrix(1 0 0 1 505.927 1556)">
   <path d="M 20.0195 16.8945 C 21.1914 16.8945 22.0703 16.6504 23.584 15.7227 L 102.832 -31.0547 C 104.785 -32.1777 106.006 -33.3008 106.006 -35.2051 C 106.006 -37.0605 104.785 -38.1836 102.832 -39.3066 L 23.584 -86.084 C 22.0703 -87.0117 21.1914 -87.2559 20.0195 -87.2559 C 17.6758 -87.2559 16.0645 -85.5957 16.0645 -82.5684 L 16.0645 12.207 C 16.0645 15.1855 17.6758 16.8945 20.0195 16.8945 Z M 20.0684 14.3555 C 19.2383 14.3555 18.6523 13.6719 18.6523 12.3047 L 18.6523 -82.666 C 18.6523 -84.1309 19.2383 -84.7168 20.0684 -84.7168 C 20.752 -84.7168 21.3379 -84.4727 22.0215 -84.0332 L 101.904 -37.4023 C 102.734 -36.9141 103.76 -36.2305 103.76 -35.2051 C 103.76 -34.1797 102.734 -33.4961 101.904 -32.959 L 22.0215 13.6719 C 21.3379 14.1113 20.752 14.3555 20.0684 14.3555 Z"/>
  </g>
  <g id="Black-M" transform="matrix(1 0 0 1 2882.06 1126)">
   <path d="M 23.6816 14.4043 C 26.3184 14.4043 28.8086 13.7207 32.373 11.6699 L 93.2129 -23.6816 C 98.1445 -26.5625 101.416 -29.9805 101.416 -35.2051 C 101.416 -40.4297 98.1445 -43.8477 93.2129 -46.6797 L 32.373 -82.0801 C 28.8086 -84.1309 26.3184 -84.8145 23.6816 -84.8145 C 17.9688 -84.8145 12.4512 -80.4199 12.4512 -72.7051 L 12.4512 2.29492 C 12.4512 10.0098 17.9688 14.4043 23.6816 14.4043 Z M 32.6172 -10.5957 C 32.3242 -10.5957 32.2266 -10.791 32.2266 -11.084 L 32.2266 -59.375 C 32.2266 -59.668 32.3242 -59.8633 32.6172 -59.8633 C 32.7148 -59.8633 32.8613 -59.8145 33.1055 -59.668 L 74.8535 -35.6445 C 75.0488 -35.498 75.0977 -35.4004 75.0977 -35.2051 C 75.0977 -35.0098 75.0488 -34.8633 74.8535 -34.7656 L 33.1055 -10.791 C 32.8613 -10.6445 32.7148 -10.5957 32.6172 -10.5957 Z"/>
  </g>
  <g id="Heavy-M" transform="matrix(1 0 0 1 2587.1 1126)">
   <path d="M 22.4121 12.4512 C 24.8535 12.4512 27.1973 11.7676 30.3711 9.91211 L 90.2832 -24.8535 C 95.0195 -27.6367 97.8516 -30.6152 97.8516 -35.2051 C 97.8516 -39.7949 95.0195 -42.7734 90.2832 -45.5078 L 30.3711 -80.3223 C 27.1973 -82.1777 24.8535 -82.8613 22.4121 -82.8613 C 17.1875 -82.8613 12.4512 -78.8574 12.4512 -71.9238 L 12.4512 1.5625 C 12.4512 8.44727 17.1875 12.4512 22.4121 12.4512 Z M 29.834 -8.83789 C 29.541 -8.83789 29.3945 -9.0332 29.3945 -9.375 L 29.3945 -61.084 C 29.3945 -61.4258 29.541 -61.6211 29.834 -61.6211 C 29.9805 -61.6211 30.0781 -61.5234 30.3223 -61.4258 L 75 -35.6445 C 75.1953 -35.5469 75.293 -35.4004 75.293 -35.2051 C 75.293 -35.0098 75.1953 -34.8633 75 -34.7168 L 30.3223 -9.0332 C 30.0781 -8.93555 29.9805 -8.83789 29.834 -8.83789 Z"/>
  </g>
  <g id="Bold-M" transform="matrix(1 0 0 1 2292.37 1126)">
   <path d="M 20.9961 10.2539 C 23.291 10.2539 25.3418 9.57031 28.125 7.95898 L 87.0117 -26.1719 C 91.5039 -28.8086 93.8477 -31.2988 93.8477 -35.2051 C 93.8477 -39.1113 91.5039 -41.6016 87.0117 -44.1895 L 28.125 -78.3691 C 25.3418 -79.9805 23.291 -80.6641 20.9961 -80.6641 C 16.3086 -80.6641 12.4512 -77.0996 12.4512 -71.0938 L 12.4512 0.683594 C 12.4512 6.68945 16.3086 10.2539 20.9961 10.2539 Z M 26.709 -6.88477 C 26.416 -6.88477 26.2695 -7.08008 26.2695 -7.42188 L 26.2695 -62.9883 C 26.2695 -63.3301 26.416 -63.5254 26.709 -63.5254 C 26.8555 -63.5254 27.002 -63.4766 27.2461 -63.3301 L 75.1465 -35.6934 C 75.3418 -35.5469 75.4883 -35.4004 75.4883 -35.2051 C 75.4883 -34.9609 75.3418 -34.8145 75.1465 -34.7168 L 27.2461 -7.08008 C 27.002 -6.98242 26.8555 -6.88477 26.709 -6.88477 Z"/>
  </g>
  <g id="Semibold-M" transform="matrix(1 0 0 1 1997 1126)">
   <path d="M 20.0195 8.74023 C 22.2168 8.74023 24.1211 8.05664 26.6113 6.5918 L 84.7656 -27.0996 C 89.1113 -29.6387 91.1133 -31.7871 91.1133 -35.2051 C 91.1133 -38.623 89.1113 -40.7715 84.7656 -43.3105 L 26.6113 -77.002 C 24.1211 -78.418 22.2168 -79.1504 20.0195 -79.1504 C 15.7227 -79.1504 12.4512 -75.8789 12.4512 -70.5078 L 12.4512 0.146484 C 12.4512 5.46875 15.7227 8.74023 20.0195 8.74023 Z M 24.5605 -5.51758 C 24.2676 -5.51758 24.1211 -5.71289 24.1211 -6.10352 L 24.1211 -64.3555 C 24.1211 -64.6973 24.2676 -64.8926 24.5605 -64.8926 C 24.707 -64.8926 24.9023 -64.7949 25.1465 -64.6973 L 75.2441 -35.6934 C 75.4883 -35.5957 75.6348 -35.4492 75.6348 -35.2051 C 75.6348 -34.9609 75.4883 -34.8145 75.2441 -34.668 L 25.1465 -5.71289 C 24.9023 -5.61523 24.707 -5.51758 24.5605 -5.51758 Z"/>
  </g>
  <g id="Medium-M" transform="matrix(1 0 0 1 1701.32 1126)">
   <path d="M 19.2871 7.61719 C 21.3379 7.61719 23.1445 6.88477 25.3906 5.56641 L 83.0566 -27.7832 C 87.2559 -30.2246 89.0137 -32.1289 89.0137 -35.2051 C 89.0137 -38.2812 87.2559 -40.1367 83.0566 -42.627 L 25.3906 -75.9766 C 23.1445 -77.2949 21.3379 -78.0273 19.2871 -78.0273 C 15.2832 -78.0273 12.4512 -74.9512 12.4512 -70.1172 L 12.4512 -0.292969 C 12.4512 4.58984 15.2832 7.61719 19.2871 7.61719 Z M 22.9004 -4.49219 C 22.6562 -4.49219 22.4609 -4.73633 22.4609 -5.07812 L 22.4609 -65.332 C 22.4609 -65.7227 22.6562 -65.918 22.9004 -65.918 C 23.0957 -65.918 23.291 -65.8203 23.4863 -65.6738 L 75.3418 -35.7422 C 75.5371 -35.5957 75.7324 -35.4492 75.7324 -35.2051 C 75.7324 -34.9609 75.5371 -34.8145 75.3418 -34.668 L 23.4863 -4.73633 C 23.291 -4.58984 23.0957 -4.49219 22.9004 -4.49219 Z"/>
  </g>
  <g id="Regular-M" transform="matrix(1 0 0 1 1405.95 1126)">
   <path d="M 18.3105 6.15234 C 20.2637 6.15234 21.9238 5.37109 23.877 4.24805 L 80.8105 -28.6621 C 84.8633 -31.0547 86.2793 -32.6172 86.2793 -35.2051 C 86.2793 -37.793 84.8633 -39.3555 80.8105 -41.6992 L 23.877 -74.6582 C 21.9238 -75.7812 20.2637 -76.5137 18.3105 -76.5137 C 14.6973 -76.5137 12.4512 -73.7793 12.4512 -69.5312 L 12.4512 -0.878906 C 12.4512 3.36914 14.6973 6.15234 18.3105 6.15234 Z M 20.8008 -3.17383 C 20.5078 -3.17383 20.3125 -3.36914 20.3125 -3.75977 L 20.3125 -66.6504 C 20.3125 -67.041 20.5078 -67.2363 20.8008 -67.2363 C 20.9961 -67.2363 21.1914 -67.1387 21.3867 -66.9922 L 75.4395 -35.7422 C 75.6836 -35.5957 75.8789 -35.4492 75.8789 -35.2051 C 75.8789 -34.9609 75.6836 -34.7656 75.4395 -34.668 L 21.3867 -3.36914 C 21.1914 -3.27148 20.9961 -3.17383 20.8008 -3.17383 Z"/>
  </g>
  <g id="Light-M" transform="matrix(1 0 0 1 1109.92 1126)">
   <path d="M 17.4316 5.81055 C 19.0918 5.81055 20.4102 5.27344 22.168 4.24805 L 80.4688 -29.6875 C 83.7402 -31.5918 85.0098 -32.959 85.0098 -35.2051 C 85.0098 -37.4512 83.7402 -38.7695 80.4688 -40.6738 L 22.168 -74.6582 C 20.4102 -75.6348 19.0918 -76.2207 17.4316 -76.2207 C 14.4043 -76.2207 12.4512 -73.9258 12.4512 -70.2637 L 12.4512 -0.146484 C 12.4512 3.51562 14.4043 5.81055 17.4316 5.81055 Z M 19.1895 -1.2207 C 18.7988 -1.2207 18.5059 -1.51367 18.5059 -2.09961 L 18.5059 -68.3105 C 18.5059 -68.8965 18.7988 -69.1895 19.1895 -69.1895 C 19.4824 -69.1895 19.7754 -69.0918 20.0684 -68.8965 L 76.5137 -36.1328 C 76.9043 -35.8887 77.2949 -35.6445 77.2949 -35.2051 C 77.2949 -34.7656 76.9043 -34.5215 76.5137 -34.2773 L 20.0684 -1.51367 C 19.7754 -1.31836 19.4824 -1.2207 19.1895 -1.2207 Z"/>
  </g>
  <g id="Thin-M" transform="matrix(1 0 0 1 814.113 1126)">
   <path d="M 16.3086 5.41992 C 17.5293 5.41992 18.457 5.07812 19.8242 4.24805 L 79.9805 -31.0547 C 82.2266 -32.373 83.3008 -33.4473 83.3008 -35.2051 C 83.3008 -36.9629 82.2266 -38.0371 79.9805 -39.3066 L 19.8242 -74.6582 C 18.457 -75.4883 17.5293 -75.8301 16.3086 -75.8301 C 13.9648 -75.8301 12.4512 -74.1211 12.4512 -71.2402 L 12.4512 0.878906 C 12.4512 3.71094 13.9648 5.41992 16.3086 5.41992 Z M 17.041 1.41602 C 16.4551 1.41602 16.1133 0.976562 16.1133 0.0976562 L 16.1133 -70.5078 C 16.1133 -71.4355 16.4551 -71.8262 17.041 -71.8262 C 17.4805 -71.8262 17.8711 -71.6309 18.2617 -71.3867 L 77.9785 -36.5723 C 78.5156 -36.2793 79.1504 -35.8398 79.1504 -35.2051 C 79.1504 -34.5703 78.5156 -34.1309 77.9785 -33.7891 L 18.2617 0.976562 C 17.8711 1.2207 17.4805 1.41602 17.041 1.41602 Z"/>
  </g>
  <g id="Ultralight-M" transform="matrix(1 0 0 1 517.865 1126)">
   <path d="M 15.7227 5.22461 C 16.6992 5.22461 17.4316 4.98047 18.6523 4.24805 L 79.7363 -31.7871 C 81.4453 -32.7148 82.4707 -33.6426 82.4707 -35.2051 C 82.4707 -36.7188 81.4453 -37.6465 79.7363 -38.623 L 18.6523 -74.6582 C 17.4316 -75.3906 16.6992 -75.6348 15.7227 -75.6348 C 13.7695 -75.6348 12.4512 -74.2188 12.4512 -71.7773 L 12.4512 1.36719 C 12.4512 3.80859 13.7695 5.22461 15.7227 5.22461 Z M 15.918 2.73438 C 15.2832 2.73438 14.8438 2.24609 14.8438 1.2207 L 14.8438 -71.6309 C 14.8438 -72.7051 15.2832 -73.1445 15.918 -73.1445 C 16.4551 -73.1445 16.8945 -72.9492 17.3828 -72.6562 L 78.7109 -36.8164 C 79.3457 -36.4746 80.0781 -35.9375 80.0781 -35.2051 C 80.0781 -34.4238 79.3457 -33.9355 78.7109 -33.5449 L 17.3828 2.24609 C 16.8945 2.53906 16.4551 2.73438 15.918 2.73438 Z"/>
  </g>
  <g id="Black-S" transform="matrix(1 0 0 1 2893.31 696)">
   <path d="M 18.457 3.51562 C 20.5078 3.51562 22.4609 2.97852 25.2441 1.36719 L 72.8027 -26.2695 C 76.6602 -28.5156 79.1992 -31.1523 79.1992 -35.2051 C 79.1992 -39.2578 76.6602 -41.8945 72.8027 -44.1406 L 25.2441 -71.7773 C 22.4609 -73.3887 20.5078 -73.9258 18.457 -73.9258 C 14.0137 -73.9258 9.76562 -70.5078 9.76562 -64.502 L 9.76562 -5.9082 C 9.76562 0.0976562 14.0137 3.51562 18.457 3.51562 Z M 25.3418 -15.8203 C 25.1465 -15.8203 25.0488 -15.9668 25.0488 -16.2109 L 25.0488 -54.248 C 25.0488 -54.4922 25.1465 -54.6387 25.3418 -54.6387 C 25.4395 -54.6387 25.5371 -54.5898 25.7324 -54.4922 L 58.6426 -35.5469 C 58.7891 -35.4492 58.8379 -35.3516 58.8379 -35.2051 C 58.8379 -35.0586 58.7891 -34.9609 58.6426 -34.8633 L 25.7324 -15.9668 C 25.5371 -15.8691 25.4395 -15.8203 25.3418 -15.8203 Z"/>
  </g>
  <g id="Heavy-S" transform="matrix(1 0 0 1 2597.87 696)">
   <path d="M 17.5781 2.05078 C 19.5312 2.05078 21.3867 1.46484 23.877 0.0488281 L 70.6055 -27.0508 C 74.4141 -29.248 76.6113 -31.5918 76.6113 -35.2051 C 76.6113 -38.8184 74.4141 -41.1621 70.6055 -43.3594 L 23.877 -70.459 C 21.3867 -71.875 19.5312 -72.4609 17.5781 -72.4609 C 13.4766 -72.4609 9.76562 -69.2871 9.76562 -63.8672 L 9.76562 -6.54297 C 9.76562 -1.12305 13.4766 2.05078 17.5781 2.05078 Z M 23.3887 -14.6973 C 23.1934 -14.6973 23.0957 -14.8438 23.0957 -15.0879 L 23.0957 -55.3711 C 23.0957 -55.6152 23.1934 -55.7617 23.3887 -55.7617 C 23.4863 -55.7617 23.584 -55.7129 23.7793 -55.6152 L 58.6426 -35.5469 C 58.7891 -35.4492 58.8379 -35.3516 58.8379 -35.2051 C 58.8379 -35.0586 58.7891 -34.9609 58.6426 -34.8633 L 23.7793 -14.8438 C 23.584 -14.7461 23.4863 -14.6973 23.3887 -14.6973 Z"/>
  </g>
  <g id="Bold-S" transform="matrix(1 0 0 1 2302.58 696)">
   <path d="M 16.6016 0.439453 C 18.5059 0.439453 20.166 -0.195312 22.4121 -1.46484 L 68.1152 -27.9297 C 71.875 -30.0781 73.6816 -32.0801 73.6816 -35.2051 C 73.6816 -38.3301 71.875 -40.332 68.1152 -42.4805 L 22.4121 -68.9453 C 20.166 -70.2148 18.5059 -70.8496 16.6016 -70.8496 C 12.8418 -70.8496 9.76562 -67.9199 9.76562 -63.1348 L 9.76562 -7.27539 C 9.76562 -2.49023 12.8418 0.439453 16.6016 0.439453 Z M 21.1914 -13.4277 C 21.0449 -13.4277 20.9473 -13.5742 20.9473 -13.7695 L 20.9473 -56.6406 C 20.9473 -56.8848 21.0449 -56.9824 21.1914 -56.9824 C 21.3379 -56.9824 21.4355 -56.9336 21.582 -56.8359 L 58.5938 -35.498 C 58.7402 -35.4004 58.7891 -35.3516 58.7891 -35.2051 C 58.7891 -35.0586 58.7402 -35.0098 58.5938 -34.9121 L 21.582 -13.5742 C 21.4355 -13.4766 21.3379 -13.4277 21.1914 -13.4277 Z"/>
  </g>
  <g id="Semibold-S" transform="matrix(1 0 0 1 2006.84 696)">
   <path d="M 15.918 -0.732422 C 17.7734 -0.732422 19.3359 -1.31836 21.3867 -2.49023 L 66.4551 -28.5645 C 70.1172 -30.6641 71.7285 -32.4219 71.7285 -35.2051 C 71.7285 -37.9883 70.1172 -39.7461 66.4551 -41.8457 L 21.3867 -67.9199 C 19.3359 -69.0918 17.7734 -69.6777 15.918 -69.6777 C 12.4023 -69.6777 9.76562 -66.9922 9.76562 -62.5977 L 9.76562 -7.8125 C 9.76562 -3.41797 12.4023 -0.732422 15.918 -0.732422 Z M 19.7266 -12.5977 C 19.5312 -12.5977 19.4336 -12.6953 19.4336 -12.8906 L 19.4336 -57.5195 C 19.4336 -57.7148 19.5312 -57.8613 19.7266 -57.8613 C 19.8242 -57.8613 19.9219 -57.8125 20.0684 -57.7148 L 58.5938 -35.498 C 58.7402 -35.4004 58.7891 -35.3516 58.7891 -35.2051 C 58.7891 -35.0586 58.7402 -35.0098 58.5938 -34.9121 L 20.0684 -12.6953 C 19.9219 -12.6465 19.8242 -12.5977 19.7266 -12.5977 Z"/>
  </g>
  <g id="Medium-S" transform="matrix(1 0 0 1 1710.86 696)">
   <path d="M 15.4297 -1.5625 C 17.1875 -1.5625 18.7012 -2.19727 20.5566 -3.27148 L 65.1367 -29.0039 C 68.7988 -31.1035 70.166 -32.666 70.166 -35.2051 C 70.166 -37.7441 68.7988 -39.3066 65.1367 -41.4062 L 20.5566 -67.1387 C 18.7012 -68.2129 17.1875 -68.8477 15.4297 -68.8477 C 12.1094 -68.8477 9.76562 -66.2598 9.76562 -62.2559 L 9.76562 -8.1543 C 9.76562 -4.15039 12.1094 -1.5625 15.4297 -1.5625 Z M 18.5547 -11.9141 C 18.4082 -11.9141 18.3105 -12.0605 18.3105 -12.2559 L 18.3105 -58.2031 C 18.3105 -58.3984 18.4082 -58.4961 18.5547 -58.4961 C 18.7012 -58.4961 18.7988 -58.4473 18.8965 -58.3496 L 58.5938 -35.4492 C 58.6914 -35.4004 58.7891 -35.3516 58.7891 -35.2051 C 58.7891 -35.0586 58.6914 -35.0098 58.5938 -34.9609 L 18.8965 -12.0605 C 18.7988 -11.9629 18.7012 -11.9141 18.5547 -11.9141 Z"/>
  </g>
  <g id="Regular-S" transform="matrix(1 0 0 1 1415.1 696)">
   <path d="M 14.7461 -2.68555 C 16.4551 -2.68555 17.8711 -3.32031 19.5312 -4.29688 L 63.4766 -29.5898 C 67.041 -31.6895 68.2129 -33.0078 68.2129 -35.2051 C 68.2129 -37.4023 67.041 -38.7207 63.4766 -40.8203 L 19.5312 -66.1133 C 17.8711 -67.0898 16.4551 -67.7246 14.7461 -67.7246 C 11.6699 -67.7246 9.76562 -65.332 9.76562 -61.7188 L 9.76562 -8.69141 C 9.76562 -5.07812 11.6699 -2.68555 14.7461 -2.68555 Z M 17.0898 -11.084 C 16.8945 -11.084 16.7969 -11.1816 16.7969 -11.377 L 16.7969 -59.0332 C 16.7969 -59.2285 16.8945 -59.3262 17.0898 -59.3262 C 17.1875 -59.3262 17.2852 -59.2773 17.4316 -59.2285 L 58.5449 -35.4492 C 58.6914 -35.4004 58.7402 -35.3516 58.7402 -35.2051 C 58.7402 -35.0586 58.6914 -35.0098 58.5449 -34.9609 L 17.4316 -11.1816 C 17.2852 -11.1328 17.1875 -11.084 17.0898 -11.084 Z"/>
  </g>
  <g id="Light-S" transform="matrix(1 0 0 1 1119 696)">
   <path d="M 14.0137 -2.92969 C 15.4297 -2.92969 16.5527 -3.4668 18.0176 -4.29688 L 63.1836 -30.5176 C 66.0645 -32.1777 67.0898 -33.3008 67.0898 -35.2051 C 67.0898 -37.1094 66.0645 -38.2324 63.1836 -39.8926 L 18.0176 -66.1133 C 16.5527 -66.9434 15.4297 -67.4805 14.0137 -67.4805 C 11.377 -67.4805 9.76562 -65.4785 9.76562 -62.4023 L 9.76562 -8.00781 C 9.76562 -4.93164 11.377 -2.92969 14.0137 -2.92969 Z M 15.625 -9.32617 C 15.3809 -9.32617 15.1855 -9.52148 15.1855 -9.91211 L 15.1855 -60.498 C 15.1855 -60.8887 15.3809 -61.084 15.625 -61.084 C 15.8691 -61.084 16.0156 -60.9863 16.2109 -60.8887 L 59.5215 -35.791 C 59.7656 -35.6445 60.0098 -35.498 60.0098 -35.2051 C 60.0098 -34.9121 59.7656 -34.7656 59.5215 -34.6191 L 16.2109 -9.52148 C 16.0156 -9.42383 15.8691 -9.32617 15.625 -9.32617 Z"/>
  </g>
  <g id="Thin-S" transform="matrix(1 0 0 1 823.097 696)">
   <path d="M 12.9883 -3.27148 C 14.0137 -3.27148 14.8438 -3.61328 15.9668 -4.29688 L 62.7441 -31.6895 C 64.6973 -32.8125 65.5762 -33.7402 65.5762 -35.2051 C 65.5762 -36.6699 64.6973 -37.5977 62.7441 -38.7207 L 15.9668 -66.1133 C 14.8438 -66.7969 14.0137 -67.1387 12.9883 -67.1387 C 11.0352 -67.1387 9.76562 -65.6738 9.76562 -63.2812 L 9.76562 -7.12891 C 9.76562 -4.73633 11.0352 -3.27148 12.9883 -3.27148 Z M 13.7695 -7.03125 C 13.3301 -7.03125 13.0859 -7.32422 13.0859 -7.95898 L 13.0859 -62.4512 C 13.0859 -63.0859 13.3301 -63.3789 13.7695 -63.3789 C 14.0625 -63.3789 14.3555 -63.2812 14.6484 -63.0859 L 60.791 -36.1816 C 61.1816 -35.9863 61.6699 -35.6445 61.6699 -35.2051 C 61.6699 -34.7656 61.1816 -34.4238 60.791 -34.2285 L 14.6484 -7.32422 C 14.3555 -7.12891 14.0625 -7.03125 13.7695 -7.03125 Z"/>
  </g>
  <g id="Ultralight-S" transform="matrix(1 0 0 1 526.801 696)">
   <path d="M 12.4512 -3.4668 C 13.2812 -3.4668 13.916 -3.71094 14.9414 -4.29688 L 62.5488 -32.3242 C 64.0137 -33.1543 64.8438 -33.9355 64.8438 -35.2051 C 64.8438 -36.4746 64.0137 -37.2559 62.5488 -38.0859 L 14.9414 -66.1133 C 13.916 -66.6992 13.2812 -66.9434 12.4512 -66.9434 C 10.8398 -66.9434 9.76562 -65.7715 9.76562 -63.7207 L 9.76562 -6.68945 C 9.76562 -4.63867 10.8398 -3.4668 12.4512 -3.4668 Z M 12.793 -5.85938 C 12.3047 -5.85938 11.9629 -6.20117 11.9629 -6.98242 L 11.9629 -63.4277 C 11.9629 -64.2578 12.3047 -64.5508 12.793 -64.5508 C 13.1348 -64.5508 13.4766 -64.4531 13.8672 -64.209 L 61.4746 -36.4258 C 61.9629 -36.1328 62.5 -35.791 62.5 -35.2051 C 62.5 -34.6191 61.9629 -34.2773 61.4746 -33.9844 L 13.8672 -6.20117 C 13.4766 -5.95703 13.1348 -5.85938 12.793 -5.85938 Z"/>
  </g>
 </g>
</svg>
