<?xml version="1.0" encoding="UTF-8"?>
<!--Generator: Apple Native CoreSVG 149-->
<!DOCTYPE svg
PUBLIC "-//W3C//DTD SVG 1.1//EN"
       "http://www.w3.org/Graphics/SVG/1.1/DTD/svg11.dtd">
<svg version="1.1" xmlns="http://www.w3.org/2000/svg" xmlns:xlink="http://www.w3.org/1999/xlink" width="3300" height="2200">
 <!--glyph: "uni100174.medium", point size: 100.000000, font version: "Version 16.0d12e3", template writer version: "8"-->
 <g id="Notes">
  <rect height="2200" id="artboard" style="fill:white;opacity:1" width="3300" x="0" y="0"/>
  <line id="" style="fill:none;stroke:black;opacity:1;stroke-width:0.5;" x1="263" x2="3036" y1="292" y2="292"/>
  <text style="stroke:none;fill:black;font-family:-apple-system,&quot;SF Pro Display&quot;,&quot;SF Pro Text&quot;,Helvetica,sans-serif;font-weight:bold;" transform="matrix(1 0 0 1 263 322)">Weight/Scale Variations</text>
  <text style="stroke:none;fill:black;font-family:-apple-system,&quot;SF Pro Display&quot;,&quot;SF Pro Text&quot;,Helvetica,sans-serif;text-anchor:middle;" transform="matrix(1 0 0 1 559.711 322)">Ultralight</text>
  <text style="stroke:none;fill:black;font-family:-apple-system,&quot;SF Pro Display&quot;,&quot;SF Pro Text&quot;,Helvetica,sans-serif;text-anchor:middle;" transform="matrix(1 0 0 1 856.422 322)">Thin</text>
  <text style="stroke:none;fill:black;font-family:-apple-system,&quot;SF Pro Display&quot;,&quot;SF Pro Text&quot;,Helvetica,sans-serif;text-anchor:middle;" transform="matrix(1 0 0 1 1153.13 322)">Light</text>
  <text style="stroke:none;fill:black;font-family:-apple-system,&quot;SF Pro Display&quot;,&quot;SF Pro Text&quot;,Helvetica,sans-serif;text-anchor:middle;" transform="matrix(1 0 0 1 1449.84 322)">Regular</text>
  <text style="stroke:none;fill:black;font-family:-apple-system,&quot;SF Pro Display&quot;,&quot;SF Pro Text&quot;,Helvetica,sans-serif;text-anchor:middle;" transform="matrix(1 0 0 1 1746.56 322)">Medium</text>
  <text style="stroke:none;fill:black;font-family:-apple-system,&quot;SF Pro Display&quot;,&quot;SF Pro Text&quot;,Helvetica,sans-serif;text-anchor:middle;" transform="matrix(1 0 0 1 2043.27 322)">Semibold</text>
  <text style="stroke:none;fill:black;font-family:-apple-system,&quot;SF Pro Display&quot;,&quot;SF Pro Text&quot;,Helvetica,sans-serif;text-anchor:middle;" transform="matrix(1 0 0 1 2339.98 322)">Bold</text>
  <text style="stroke:none;fill:black;font-family:-apple-system,&quot;SF Pro Display&quot;,&quot;SF Pro Text&quot;,Helvetica,sans-serif;text-anchor:middle;" transform="matrix(1 0 0 1 2636.69 322)">Heavy</text>
  <text style="stroke:none;fill:black;font-family:-apple-system,&quot;SF Pro Display&quot;,&quot;SF Pro Text&quot;,Helvetica,sans-serif;text-anchor:middle;" transform="matrix(1 0 0 1 2933.4 322)">Black</text>
  <line id="" style="fill:none;stroke:black;opacity:1;stroke-width:0.5;" x1="263" x2="3036" y1="1903" y2="1903"/>
  <g id="" transform="matrix(1 0 0 1 263 1933)">
   <path d="M9.24805 0.830078C13.5547 0.830078 17.1387-2.74414 17.1387-7.05078C17.1387-11.3574 13.5449-14.9316 9.23828-14.9316C4.94141-14.9316 1.36719-11.3574 1.36719-7.05078C1.36719-2.74414 4.95117 0.830078 9.24805 0.830078ZM9.24805-0.654297C5.70312-0.654297 2.87109-3.49609 2.87109-7.05078C2.87109-10.6055 5.69336-13.4473 9.23828-13.4473C12.793-13.4473 15.6348-10.6055 15.6445-7.05078C15.6543-3.49609 12.8027-0.654297 9.24805-0.654297ZM9.22852-3.62305C9.69727-3.62305 9.9707-3.93555 9.9707-4.45312L9.9707-6.31836L12.002-6.31836C12.5-6.31836 12.832-6.57227 12.832-7.04102C12.832-7.51953 12.5195-7.7832 12.002-7.7832L9.9707-7.7832L9.9707-9.81445C9.9707-10.332 9.69727-10.6543 9.22852-10.6543C8.75977-10.6543 8.50586-10.3125 8.50586-9.81445L8.50586-7.7832L6.49414-7.7832C5.97656-7.7832 5.64453-7.51953 5.64453-7.04102C5.64453-6.57227 5.99609-6.31836 6.49414-6.31836L8.50586-6.31836L8.50586-4.45312C8.50586-3.95508 8.75977-3.62305 9.22852-3.62305Z"/>
  </g>
  <g id="" transform="matrix(1 0 0 1 281.506 1933)">
   <path d="M11.709 2.91016C17.1582 2.91016 21.6699-1.61133 21.6699-7.05078C21.6699-12.5 17.1484-17.0117 11.6992-17.0117C6.25977-17.0117 1.74805-12.5 1.74805-7.05078C1.74805-1.61133 6.26953 2.91016 11.709 2.91016ZM11.709 1.25C7.09961 1.25 3.41797-2.44141 3.41797-7.05078C3.41797-11.6602 7.08984-15.3516 11.6992-15.3516C16.3086-15.3516 20-11.6602 20.0098-7.05078C20.0195-2.44141 16.3184 1.25 11.709 1.25ZM11.6797-2.66602C12.207-2.66602 12.5098-3.01758 12.5098-3.59375L12.5098-6.23047L15.3223-6.23047C15.8691-6.23047 16.25-6.51367 16.25-7.03125C16.25-7.55859 15.8887-7.86133 15.3223-7.86133L12.5098-7.86133L12.5098-10.6836C12.5098-11.25 12.207-11.6113 11.6797-11.6113C11.1621-11.6113 10.8789-11.2305 10.8789-10.6836L10.8789-7.86133L8.07617-7.86133C7.50977-7.86133 7.13867-7.55859 7.13867-7.03125C7.13867-6.51367 7.5293-6.23047 8.07617-6.23047L10.8789-6.23047L10.8789-3.59375C10.8789-3.03711 11.1621-2.66602 11.6797-2.66602Z"/>
  </g>
  <g id="" transform="matrix(1 0 0 1 304.924 1933)">
   <path d="M14.9707 5.66406C21.9336 5.66406 27.6953-0.0976562 27.6953-7.05078C27.6953-14.0137 21.9238-19.7754 14.9609-19.7754C8.00781-19.7754 2.25586-14.0137 2.25586-7.05078C2.25586-0.0976562 8.01758 5.66406 14.9707 5.66406ZM14.9707 3.84766C8.93555 3.84766 4.08203-1.01562 4.08203-7.05078C4.08203-13.0957 8.92578-17.9492 14.9609-17.9492C21.0059-17.9492 25.8594-13.0957 25.8691-7.05078C25.8789-1.01562 21.0156 3.84766 14.9707 3.84766ZM14.9414-1.38672C15.5176-1.38672 15.8594-1.77734 15.8594-2.38281L15.8594-6.13281L19.7754-6.13281C20.3711-6.13281 20.7812-6.46484 20.7812-7.02148C20.7812-7.59766 20.3906-7.93945 19.7754-7.93945L15.8594-7.93945L15.8594-11.8652C15.8594-12.4805 15.5176-12.8711 14.9414-12.8711C14.375-12.8711 14.0527-12.4609 14.0527-11.8652L14.0527-7.93945L10.1465-7.93945C9.53125-7.93945 9.13086-7.59766 9.13086-7.02148C9.13086-6.46484 9.55078-6.13281 10.1465-6.13281L14.0527-6.13281L14.0527-2.38281C14.0527-1.79688 14.375-1.38672 14.9414-1.38672Z"/>
  </g>
  <text style="stroke:none;fill:black;font-family:-apple-system,&quot;SF Pro Display&quot;,&quot;SF Pro Text&quot;,Helvetica,sans-serif;font-weight:bold;" transform="matrix(1 0 0 1 263 1953)">Design Variations</text>
  <text style="stroke:none;fill:black;font-family:-apple-system,&quot;SF Pro Display&quot;,&quot;SF Pro Text&quot;,Helvetica,sans-serif;" transform="matrix(1 0 0 1 263 1971)">Symbols are supported in up to nine weights and three scales.</text>
  <text style="stroke:none;fill:black;font-family:-apple-system,&quot;SF Pro Display&quot;,&quot;SF Pro Text&quot;,Helvetica,sans-serif;" transform="matrix(1 0 0 1 263 1989)">For optimal layout with text and other symbols, vertically align</text>
  <text style="stroke:none;fill:black;font-family:-apple-system,&quot;SF Pro Display&quot;,&quot;SF Pro Text&quot;,Helvetica,sans-serif;" transform="matrix(1 0 0 1 263 2007)">symbols with the adjacent text.</text>
  <line id="" style="fill:none;stroke:#00AEEF;stroke-width:0.5;opacity:1.0;" x1="776" x2="776" y1="1919" y2="1933"/>
  <g id="" transform="matrix(1 0 0 1 776 1933)">
   <path d="M3.31055 0.126953C3.82812 0.126953 4.08203-0.0683594 4.26758-0.605469L5.52734-4.0625L11.2891-4.0625L12.5488-0.605469C12.7344-0.0683594 12.9883 0.126953 13.4961 0.126953C14.0137 0.126953 14.3457-0.185547 14.3457-0.673828C14.3457-0.839844 14.3164-0.986328 14.2383-1.20117L9.6582-13.3887C9.43359-13.9941 9.0332-14.2871 8.4082-14.2871C7.80273-14.2871 7.39258-13.9941 7.17773-13.3984L2.59766-1.19141C2.51953-0.976562 2.49023-0.830078 2.49023-0.664062C2.49023-0.175781 2.80273 0.126953 3.31055 0.126953ZM6.00586-5.53711L8.37891-12.1094L8.42773-12.1094L10.8008-5.53711Z"/>
  </g>
  <line id="" style="fill:none;stroke:#00AEEF;stroke-width:0.5;opacity:1.0;" x1="792.836" x2="792.836" y1="1919" y2="1933"/>
  <text style="stroke:none;fill:black;font-family:-apple-system,&quot;SF Pro Display&quot;,&quot;SF Pro Text&quot;,Helvetica,sans-serif;font-weight:bold;" transform="matrix(1 0 0 1 776 1953)">Margins</text>
  <text style="stroke:none;fill:black;font-family:-apple-system,&quot;SF Pro Display&quot;,&quot;SF Pro Text&quot;,Helvetica,sans-serif;" transform="matrix(1 0 0 1 776 1971)">Leading and trailing margins on the left and right side of each symbol</text>
  <text style="stroke:none;fill:black;font-family:-apple-system,&quot;SF Pro Display&quot;,&quot;SF Pro Text&quot;,Helvetica,sans-serif;" transform="matrix(1 0 0 1 776 1989)">can be adjusted by modifying the x-location of the margin guidelines.</text>
  <text style="stroke:none;fill:black;font-family:-apple-system,&quot;SF Pro Display&quot;,&quot;SF Pro Text&quot;,Helvetica,sans-serif;" transform="matrix(1 0 0 1 776 2007)">Modifications are automatically applied proportionally to all</text>
  <text style="stroke:none;fill:black;font-family:-apple-system,&quot;SF Pro Display&quot;,&quot;SF Pro Text&quot;,Helvetica,sans-serif;" transform="matrix(1 0 0 1 776 2025)">scales and weights.</text>
  <g id="" transform="matrix(1 0 0 1 1289 1933)">
   <path d="M2.8418 1.86523L4.54102 3.57422C5.40039 4.44336 6.38672 4.38477 7.31445 3.35938L17.4902-7.85156C17.7539-7.76367 18.0273-7.7832 18.3398-7.8418L19.4043-8.03711L20.0684-7.36328L20.0293-6.80664C19.9902-6.30859 20.1172-5.92773 20.6055-5.44922L21.3672-4.70703C21.8457-4.22852 22.4609-4.19922 22.9297-4.66797L25.8398-7.58789C26.3086-8.05664 26.2891-8.65234 25.8105-9.13086L25.0391-9.89258C24.5605-10.3711 24.1895-10.5273 23.7109-10.4883L23.1348-10.4395L22.4902-11.0742L22.7344-12.1973C22.8613-12.7637 22.7051-13.2031 22.1191-13.7891L19.9219-15.9766C16.582-19.2969 12.1484-19.2188 9.25781-16.3281C8.83789-15.918 8.80859-15.3418 9.04297-14.9512C9.27734-14.5898 9.73633-14.3555 10.3809-14.5215C11.8457-14.8633 13.3691-14.9219 14.7949-13.9844L14.209-12.5293C14.0137-12.0508 13.9844-11.6504 14.1113-11.2891L3.04688-0.898438C2.06055 0.0195312 1.98242 0.996094 2.8418 1.86523ZM10.752-15.957C13.1836-17.7344 16.4746-17.4316 18.7012-15.2051L21.1328-12.793C21.3672-12.5586 21.4062-12.373 21.3379-12.0312L21.0156-10.5469L22.5195-9.0625L23.5059-9.12109C23.7598-9.13086 23.8379-9.11133 24.0332-8.91602L24.6094-8.33984L22.168-5.89844L21.5918-6.47461C21.3965-6.66992 21.3672-6.74805 21.377-7.01172L21.4453-7.98828L19.9512-9.47266L18.4277-9.21875C18.1055-9.15039 17.959-9.17969 17.7148-9.41406L15.7129-11.416C15.459-11.6504 15.4297-11.8164 15.5859-12.1875L16.4648-14.2773C14.9023-15.7324 12.8711-16.3574 10.8398-15.7617C10.6836-15.7227 10.625-15.8496 10.752-15.957ZM5.27344 2.30469L4.10156 1.14258C3.63281 0.683594 3.74023 0.341797 4.14062-0.0195312L14.9512-10.1953L16.416-8.71094L6.42578 2.27539C6.07422 2.67578 5.74219 2.77344 5.27344 2.30469Z"/>
  </g>
  <text style="stroke:none;fill:black;font-family:-apple-system,&quot;SF Pro Display&quot;,&quot;SF Pro Text&quot;,Helvetica,sans-serif;font-weight:bold;" transform="matrix(1 0 0 1 1289 1953)">Exporting</text>
  <text style="stroke:none;fill:black;font-family:-apple-system,&quot;SF Pro Display&quot;,&quot;SF Pro Text&quot;,Helvetica,sans-serif;" transform="matrix(1 0 0 1 1289 1971)">Symbols should be outlined when exporting to ensure the</text>
  <text style="stroke:none;fill:black;font-family:-apple-system,&quot;SF Pro Display&quot;,&quot;SF Pro Text&quot;,Helvetica,sans-serif;" transform="matrix(1 0 0 1 1289 1989)">design is preserved when submitting to Xcode.</text>
  <text id="template-version" style="stroke:none;fill:black;font-family:-apple-system,&quot;SF Pro Display&quot;,&quot;SF Pro Text&quot;,Helvetica,sans-serif;text-anchor:end;" transform="matrix(1 0 0 1 3036 1933)">Template v.2.0</text>
  <text style="stroke:none;fill:black;font-family:-apple-system,&quot;SF Pro Display&quot;,&quot;SF Pro Text&quot;,Helvetica,sans-serif;text-anchor:end;" transform="matrix(1 0 0 1 3036 1951)">Requires Xcode 12 or greater</text>
  <text style="stroke:none;fill:black;font-family:-apple-system,&quot;SF Pro Display&quot;,&quot;SF Pro Text&quot;,Helvetica,sans-serif;text-anchor:end;" transform="matrix(1 0 0 1 3036 1969)">Generated from info.circle</text>
  <text style="stroke:none;fill:black;font-family:-apple-system,&quot;SF Pro Display&quot;,&quot;SF Pro Text&quot;,Helvetica,sans-serif;text-anchor:end;" transform="matrix(1 0 0 1 3036 1987)">Typeset at 100 points</text>
  <text style="stroke:none;fill:black;font-family:-apple-system,&quot;SF Pro Display&quot;,&quot;SF Pro Text&quot;,Helvetica,sans-serif;" transform="matrix(1 0 0 1 263 726)">Small</text>
  <text style="stroke:none;fill:black;font-family:-apple-system,&quot;SF Pro Display&quot;,&quot;SF Pro Text&quot;,Helvetica,sans-serif;" transform="matrix(1 0 0 1 263 1156)">Medium</text>
  <text style="stroke:none;fill:black;font-family:-apple-system,&quot;SF Pro Display&quot;,&quot;SF Pro Text&quot;,Helvetica,sans-serif;" transform="matrix(1 0 0 1 263 1586)">Large</text>
 </g>
 <g id="Guides">
  <g id="H-reference" style="fill:#27AAE1;stroke:none;" transform="matrix(1 0 0 1 339 696)">
   <path d="M0.976562 0L3.66211 0L12.9883-24.4629L45.752-24.4629L55.127 0L57.7637 0L30.6152-70.459L28.125-70.459ZM29.3457-67.1387L29.4434-67.1387L44.873-26.709L13.8672-26.709Z"/>
  </g>
  <line id="Baseline-S" style="fill:none;stroke:#27AAE1;opacity:1;stroke-width:0.5;" x1="263" x2="3036" y1="696" y2="696"/>
  <line id="Capline-S" style="fill:none;stroke:#27AAE1;opacity:1;stroke-width:0.5;" x1="263" x2="3036" y1="625.541" y2="625.541"/>
  <g id="H-reference" style="fill:#27AAE1;stroke:none;" transform="matrix(1 0 0 1 339 1126)">
   <path d="M0.976562 0L3.66211 0L12.9883-24.4629L45.752-24.4629L55.127 0L57.7637 0L30.6152-70.459L28.125-70.459ZM29.3457-67.1387L29.4434-67.1387L44.873-26.709L13.8672-26.709Z"/>
  </g>
  <line id="Baseline-M" style="fill:none;stroke:#27AAE1;opacity:1;stroke-width:0.5;" x1="263" x2="3036" y1="1126" y2="1126"/>
  <line id="Capline-M" style="fill:none;stroke:#27AAE1;opacity:1;stroke-width:0.5;" x1="263" x2="3036" y1="1055.54" y2="1055.54"/>
  <g id="H-reference" style="fill:#27AAE1;stroke:none;" transform="matrix(1 0 0 1 339 1556)">
   <path d="M0.976562 0L3.66211 0L12.9883-24.4629L45.752-24.4629L55.127 0L57.7637 0L30.6152-70.459L28.125-70.459ZM29.3457-67.1387L29.4434-67.1387L44.873-26.709L13.8672-26.709Z"/>
  </g>
  <line id="Baseline-L" style="fill:none;stroke:#27AAE1;opacity:1;stroke-width:0.5;" x1="263" x2="3036" y1="1556" y2="1556"/>
  <line id="Capline-L" style="fill:none;stroke:#27AAE1;opacity:1;stroke-width:0.5;" x1="263" x2="3036" y1="1485.54" y2="1485.54"/>
  <line id="left-margin" style="fill:none;stroke:#00AEEF;stroke-width:0.5;opacity:1.0;" x1="1391.3" x2="1391.3" y1="1030.79" y2="1150.12"/>
  <line id="right-margin" style="fill:none;stroke:#00AEEF;stroke-width:0.5;opacity:1.0;" x1="1508.39" x2="1508.39" y1="1030.79" y2="1150.12"/>
 </g>
 <g id="Symbols">
  <g id="Black-L" transform="matrix(1 0 0 1 2854.05 1556)">
   <path d="M79.3457 32.8613C116.748 32.8613 147.412 2.19727 147.412-35.2051C147.412-72.6074 116.748-103.271 79.2969-103.271C41.8945-103.271 11.2793-72.6074 11.2793-35.2051C11.2793 2.19727 41.9434 32.8613 79.3457 32.8613ZM79.3457 12.4023C52.9785 12.4023 31.7383-8.83789 31.7383-35.2051C31.7383-61.5723 52.9297-82.8125 79.2969-82.8125C105.664-82.8125 126.953-61.5723 126.953-35.2051C127.002-8.83789 105.713 12.4023 79.3457 12.4023ZM79.4922-52.8809C85.0586-52.8809 89.5996-57.5684 89.5996-62.9883C89.5996-68.75 85.0586-73.2422 79.4922-73.2422C73.9746-73.2422 69.3848-68.75 69.3848-62.9883C69.3848-57.5684 73.9746-52.8809 79.4922-52.8809ZM67.9688-2.09961L93.1641-2.09961C96.9238-2.09961 99.8535-4.73633 99.8535-8.64258C99.8535-12.207 96.9238-15.0879 93.1641-15.0879L88.9648-15.0879L88.9648-37.0605C88.9648-42.2363 86.4258-45.5078 81.5918-45.5078L69.2383-45.5078C65.5273-45.5078 62.5488-42.6758 62.5488-39.1113C62.5488-35.2051 65.5273-32.5684 69.2383-32.5684L74.2676-32.5684L74.2676-15.0879L67.9688-15.0879C64.209-15.0879 61.2793-12.207 61.2793-8.64258C61.2793-4.73633 64.209-2.09961 67.9688-2.09961Z"/>
  </g>
  <g id="Heavy-L" transform="matrix(1 0 0 1 2558.39 1556)">
   <path d="M78.2715 31.7871C115.088 31.7871 145.312 1.5625 145.312-35.2051C145.312-72.0215 115.039-102.246 78.2715-102.246C41.4551-102.246 11.2793-72.0215 11.2793-35.2051C11.2793 1.5625 41.5039 31.7871 78.2715 31.7871ZM78.2715 14.0137C51.0254 14.0137 29.0527-7.95898 29.0527-35.2051C29.0527-62.5 50.9766-84.4727 78.2715-84.4727C105.518-84.4727 127.49-62.5 127.539-35.2051C127.539-7.95898 105.566 14.0137 78.2715 14.0137ZM78.2715-54.1992C83.5449-54.1992 87.793-58.5449 87.793-63.6719C87.793-69.043 83.5449-73.291 78.2715-73.291C73.1445-73.291 68.7988-69.043 68.7988-63.6719C68.7988-58.5449 73.1445-54.1992 78.2715-54.1992ZM66.9434-1.80664L92.2852-1.80664C95.6543-1.80664 98.3398-4.19922 98.3398-7.66602C98.3398-10.9375 95.6543-13.4766 92.2852-13.4766L87.0605-13.4766L87.0605-38.3789C87.0605-42.9688 84.7656-45.9473 80.4199-45.9473L68.1152-45.9473C64.7461-45.9473 62.1094-43.4082 62.1094-40.1367C62.1094-36.6699 64.7461-34.2773 68.1152-34.2773L73.7793-34.2773L73.7793-13.4766L66.9434-13.4766C63.5742-13.4766 60.8887-10.9375 60.8887-7.66602C60.8887-4.19922 63.5742-1.80664 66.9434-1.80664Z"/>
  </g>
  <g id="Bold-L" transform="matrix(1 0 0 1 2262.88 1556)">
   <path d="M77.0996 30.5664C113.232 30.5664 142.92 0.878906 142.92-35.2539C142.92-71.3379 113.184-101.074 77.0508-101.074C40.9668-101.074 11.2793-71.3379 11.2793-35.2539C11.2793 0.878906 41.0156 30.5664 77.0996 30.5664ZM77.0996 15.8203C48.8281 15.8203 26.0742-6.98242 26.0742-35.2539C26.0742-63.5254 48.7793-86.2793 77.0508-86.2793C105.371-86.2793 128.125-63.5254 128.174-35.2539C128.174-6.98242 105.371 15.8203 77.0996 15.8203ZM76.9531-55.7129C81.8359-55.7129 85.6934-59.668 85.6934-64.4531C85.6934-69.3848 81.8359-73.291 76.9531-73.291C72.168-73.291 68.2129-69.3848 68.2129-64.4531C68.2129-59.668 72.168-55.7129 76.9531-55.7129ZM65.8203-1.41602L91.3086-1.41602C94.2871-1.41602 96.6309-3.56445 96.6309-6.64062C96.6309-9.47266 94.2871-11.7188 91.3086-11.7188L84.9121-11.7188L84.9121-39.8438C84.9121-43.8477 82.8613-46.4355 79.1016-46.4355L66.8945-46.4355C63.916-46.4355 61.5723-44.1895 61.5723-41.3086C61.5723-38.2812 63.916-36.1328 66.8945-36.1328L73.2422-36.1328L73.2422-11.7188L65.8203-11.7188C62.8418-11.7188 60.498-9.47266 60.498-6.64062C60.498-3.56445 62.8418-1.41602 65.8203-1.41602Z"/>
  </g>
  <g id="Semibold-L" transform="matrix(1 0 0 1 1966.97 1556)">
   <path d="M76.2695 29.7363C111.914 29.7363 141.309 0.390625 141.309-35.2539C141.309-70.8984 111.865-100.244 76.2695-100.244C40.625-100.244 11.2793-70.8984 11.2793-35.2539C11.2793 0.390625 40.6738 29.7363 76.2695 29.7363ZM76.2695 17.041C47.3145 17.041 24.0234-6.25 24.0234-35.2539C24.0234-64.209 47.2656-87.5488 76.2695-87.5488C105.225-87.5488 128.564-64.209 128.613-35.2539C128.662-6.25 105.273 17.041 76.2695 17.041ZM76.0254-56.7383C80.6152-56.7383 84.2773-60.4492 84.2773-64.9414C84.2773-69.6289 80.6152-73.291 76.0254-73.291C71.4844-73.291 67.7734-69.6289 67.7734-64.9414C67.7734-60.4492 71.4844-56.7383 76.0254-56.7383ZM65.0391-1.17188L90.625-1.17188C93.3105-1.17188 95.459-3.125 95.459-5.85938C95.459-8.49609 93.3105-10.5469 90.625-10.5469L83.3984-10.5469L83.3984-40.8203C83.3984-44.4336 81.5918-46.7773 78.2227-46.7773L66.0645-46.7773C63.3301-46.7773 61.2305-44.7266 61.2305-42.1387C61.2305-39.4043 63.3301-37.4512 66.0645-37.4512L72.9004-37.4512L72.9004-10.5469L65.0391-10.5469C62.3047-10.5469 60.2051-8.49609 60.2051-5.85938C60.2051-3.125 62.3047-1.17188 65.0391-1.17188Z"/>
  </g>
  <g id="Medium-L" transform="matrix(1 0 0 1 1670.87 1556)">
   <path d="M75.6836 29.1504C110.938 29.1504 140.088 0 140.088-35.2539C140.088-70.5078 110.889-99.6582 75.6348-99.6582C40.3809-99.6582 11.2793-70.5078 11.2793-35.2539C11.2793 0 40.3809 29.1504 75.6836 29.1504ZM75.6836 18.0176C46.1426 18.0176 22.4609-5.76172 22.4609-35.2539C22.4609-64.7461 46.1426-88.5254 75.6348-88.5254C105.127-88.5254 128.906-64.7461 128.906-35.2539C128.955-5.76172 105.176 18.0176 75.6836 18.0176ZM75.3418-57.5195C79.7363-57.5195 83.2031-61.0352 83.2031-65.3809C83.2031-69.7754 79.7363-73.291 75.3418-73.291C70.9961-73.291 67.4316-69.7754 67.4316-65.3809C67.4316-61.0352 70.9961-57.5195 75.3418-57.5195ZM64.4531-0.976562L90.0879-0.976562C92.5781-0.976562 94.5312-2.83203 94.5312-5.32227C94.5312-7.71484 92.5781-9.61914 90.0879-9.61914L82.2754-9.61914L82.2754-41.5527C82.2754-44.873 80.6152-47.0215 77.4902-47.0215L65.4297-47.0215C62.9395-47.0215 60.9863-45.1172 60.9863-42.7734C60.9863-40.2344 62.9395-38.4277 65.4297-38.4277L72.6074-38.4277L72.6074-9.61914L64.4531-9.61914C61.9141-9.61914 60.0098-7.71484 60.0098-5.32227C60.0098-2.83203 61.9141-0.976562 64.4531-0.976562Z"/>
  </g>
  <g id="Regular-L" transform="matrix(1 0 0 1 1374.97 1556)">
   <path d="M74.8535 28.3203C109.668 28.3203 138.477-0.488281 138.477-35.2539C138.477-70.0684 109.619-98.877 74.8047-98.877C40.0391-98.877 11.2793-70.0684 11.2793-35.2539C11.2793-0.488281 40.0879 28.3203 74.8535 28.3203ZM74.8535 19.2383C44.6777 19.2383 20.4102-5.07812 20.4102-35.2539C20.4102-65.4785 44.6289-89.7461 74.8047-89.7461C105.029-89.7461 129.297-65.4785 129.346-35.2539C129.395-5.07812 105.078 19.2383 74.8535 19.2383ZM74.4141-58.4961C78.5645-58.4961 81.7871-61.7676 81.7871-65.8691C81.7871-70.0195 78.5645-73.291 74.4141-73.291C70.3125-73.291 67.041-70.0195 67.041-65.8691C67.041-61.7676 70.3125-58.4961 74.4141-58.4961ZM63.6719-0.732422L89.4043-0.732422C91.6504-0.732422 93.4082-2.39258 93.4082-4.58984C93.4082-6.73828 91.6504-8.39844 89.4043-8.39844L80.8105-8.39844L80.8105-42.5781C80.8105-45.4102 79.3457-47.3633 76.6113-47.3633L64.5996-47.3633C62.3535-47.3633 60.5957-45.6543 60.5957-43.5547C60.5957-41.3574 62.3535-39.6973 64.5996-39.6973L72.2656-39.6973L72.2656-8.39844L63.6719-8.39844C61.4258-8.39844 59.7168-6.73828 59.7168-4.58984C59.7168-2.39258 61.4258-0.732422 63.6719-0.732422Z"/>
  </g>
  <g id="Light-L" transform="matrix(1 0 0 1 1079.18 1556)">
   <path d="M73.9258 27.3926C108.301 27.3926 136.621-0.927734 136.621-35.2539C136.621-69.6289 108.252-97.9492 73.9258-97.9492C39.5508-97.9492 11.2793-69.6289 11.2793-35.2539C11.2793-0.927734 39.5996 27.3926 73.9258 27.3926ZM73.9258 20.5078C43.1152 20.5078 18.2129-4.44336 18.2129-35.2539C18.2129-66.1133 43.0664-91.0156 73.9258-91.0156C104.736-91.0156 129.688-66.1133 129.736-35.2539C129.736-4.44336 104.785 20.5078 73.9258 20.5078ZM73.6816-59.668C77.1484-59.668 79.9316-62.4023 79.9316-65.8691C79.9316-69.3359 77.1484-72.168 73.6816-72.168C70.2148-72.168 67.3828-69.3359 67.3828-65.8691C67.3828-62.4023 70.2148-59.668 73.6816-59.668ZM62.5488-0.976562L88.4277-0.976562C90.1855-0.976562 91.5039-2.29492 91.5039-4.00391C91.5039-5.66406 90.1855-7.03125 88.4277-7.03125L78.7598-7.03125L78.7598-43.9941C78.7598-46.0938 77.5879-47.6074 75.4883-47.6074L63.2324-47.6074C61.4258-47.6074 60.1074-46.2402 60.1074-44.6289C60.1074-42.8711 61.4258-41.5527 63.2324-41.5527L72.2168-41.5527L72.2168-7.03125L62.5488-7.03125C60.7422-7.03125 59.4238-5.66406 59.4238-4.00391C59.4238-2.29492 60.7422-0.976562 62.5488-0.976562Z"/>
  </g>
  <g id="Thin-L" transform="matrix(1 0 0 1 783.693 1556)">
   <path d="M72.7051 26.1719C106.494 26.1719 134.18-1.51367 134.18-35.2539C134.18-69.043 106.494-96.7285 72.7051-96.7285C38.9648-96.7285 11.2793-69.043 11.2793-35.2539C11.2793-1.51367 38.9648 26.1719 72.7051 26.1719ZM72.7051 22.168C41.0156 22.168 15.2832-3.56445 15.2832-35.2539C15.2832-66.9922 41.0156-92.7246 72.7051-92.7246C104.395-92.7246 130.176-66.9922 130.176-35.2539C130.176-3.56445 104.443 22.168 72.7051 22.168ZM72.6562-61.1816C75.293-61.1816 77.4902-63.1836 77.4902-65.8203C77.4902-68.457 75.293-70.6543 72.6562-70.6543C70.0195-70.6543 67.8223-68.457 67.8223-65.8203C67.8223-63.1836 70.0195-61.1816 72.6562-61.1816ZM61.0352-1.26953L87.0605-1.26953C88.2812-1.26953 89.0625-2.14844 89.0625-3.22266C89.0625-4.29688 88.2812-5.17578 87.0605-5.17578L76.0254-5.17578L76.0254-45.8496C76.0254-47.0215 75.2441-47.9492 73.9746-47.9492L61.4258-47.9492C60.2539-47.9492 59.4727-47.0215 59.4727-45.9961C59.4727-44.9219 60.2539-44.043 61.4258-44.043L72.1191-44.043L72.1191-5.17578L61.0352-5.17578C59.8633-5.17578 59.082-4.29688 59.082-3.22266C59.082-2.14844 59.8633-1.26953 61.0352-1.26953Z"/>
  </g>
  <g id="Ultralight-L" transform="matrix(1 0 0 1 487.616 1556)">
   <path d="M72.1191 25.5371C105.566 25.5371 132.91-1.80664 132.91-35.2539C132.91-68.75 105.566-96.0938 72.1191-96.0938C38.623-96.0938 11.2793-68.75 11.2793-35.2539C11.2793-1.80664 38.623 25.5371 72.1191 25.5371ZM72.1191 23.0469C39.9414 23.0469 13.7695-3.125 13.7695-35.2539C13.7695-67.4316 39.9414-93.6035 72.1191-93.6035C104.248-93.6035 130.42-67.4316 130.42-35.2539C130.42-3.125 104.248 23.0469 72.1191 23.0469ZM72.168-61.9629C74.3652-61.9629 76.2207-63.623 76.2207-65.8203C76.2207-68.0176 74.3652-69.873 72.168-69.873C69.9219-69.873 68.0664-68.0176 68.0664-65.8203C68.0664-63.623 69.9219-61.9629 72.168-61.9629ZM60.3027-1.41602L86.377-1.41602C87.2559-1.41602 87.793-2.09961 87.793-2.83203C87.793-3.56445 87.2559-4.24805 86.377-4.24805L74.6094-4.24805L74.6094-46.8262C74.6094-47.4609 74.0723-48.1445 73.2422-48.1445L60.5469-48.1445C59.6191-48.1445 59.1309-47.4609 59.1309-46.7285C59.1309-45.9961 59.6191-45.3125 60.5469-45.3125L72.0703-45.3125L72.0703-4.24805L60.3027-4.24805C59.375-4.24805 58.8867-3.56445 58.8867-2.83203C58.8867-2.09961 59.375-1.41602 60.3027-1.41602Z"/>
  </g>
  <g id="Black-M" transform="matrix(1 0 0 1 2870.97 1126)">
   <path d="M62.4023 18.457C91.9922 18.457 116.113-5.61523 116.113-35.2051C116.113-64.7949 91.9922-88.8672 62.4023-88.8672C32.8125-88.8672 8.74023-64.7949 8.74023-35.2051C8.74023-5.61523 32.8125 18.457 62.4023 18.457ZM62.4023 0.195312C42.8711 0.195312 27.002-15.625 27.002-35.2051C27.002-54.7363 42.8711-70.6055 62.4023-70.6055C81.9824-70.6055 97.8027-54.7363 97.8027-35.2051C97.8027-15.625 81.9824 0.195312 62.4023 0.195312ZM62.793-47.7539C67.2363-47.7539 70.9473-51.5137 70.9473-55.8105C70.9473-60.4492 67.2363-64.0625 62.793-64.0625C58.4473-64.0625 54.6875-60.4492 54.6875-55.8105C54.6875-51.5137 58.4473-47.7539 62.793-47.7539ZM53.418-10.1074L72.8516-10.1074C76.0254-10.1074 78.4668-12.3047 78.4668-15.5762C78.4668-18.6035 76.0254-20.9961 72.8516-20.9961L70.459-20.9961L70.459-35.6934C70.459-39.9902 68.3105-42.7734 64.209-42.7734L54.4434-42.7734C51.2695-42.7734 48.8281-40.3809 48.8281-37.3535C48.8281-34.1309 51.2695-31.9336 54.4434-31.9336L58.1543-31.9336L58.1543-20.9961L53.418-20.9961C50.293-20.9961 47.8516-18.6035 47.8516-15.5762C47.8516-12.3047 50.293-10.1074 53.418-10.1074Z"/>
  </g>
  <g id="Heavy-M" transform="matrix(1 0 0 1 2575.19 1126)">
   <path d="M61.5234 17.5293C90.5273 17.5293 114.258-6.20117 114.258-35.2051C114.258-64.2578 90.5273-87.9883 61.4746-87.9883C32.4707-87.9883 8.74023-64.2578 8.74023-35.2051C8.74023-6.20117 32.4707 17.5293 61.5234 17.5293ZM61.5234 1.61133C41.1133 1.61133 24.6582-14.8438 24.6582-35.2051C24.6582-55.6152 41.1133-72.0703 61.4746-72.0703C81.8848-72.0703 98.3398-55.6152 98.3398-35.2051C98.3398-14.8438 81.8848 1.61133 61.5234 1.61133ZM61.7188-48.877C65.918-48.877 69.4336-52.4414 69.4336-56.543C69.4336-60.9375 65.918-64.3555 61.7188-64.3555C57.5195-64.3555 54.0039-60.9375 54.0039-56.543C54.0039-52.4414 57.5195-48.877 61.7188-48.877ZM52.6367-9.7168L72.168-9.7168C75.0488-9.7168 77.2461-11.7188 77.2461-14.6973C77.2461-17.4316 75.0488-19.6289 72.168-19.6289L68.8965-19.6289L68.8965-36.7188C68.8965-40.6738 66.9434-43.1641 63.2324-43.1641L53.5645-43.1641C50.7324-43.1641 48.4863-41.0156 48.4863-38.2324C48.4863-35.3027 50.7324-33.252 53.5645-33.252L57.666-33.252L57.666-19.6289L52.6367-19.6289C49.7559-19.6289 47.5098-17.4316 47.5098-14.6973C47.5098-11.7188 49.7559-9.7168 52.6367-9.7168Z"/>
  </g>
  <g id="Bold-M" transform="matrix(1 0 0 1 2279.5 1126)">
   <path d="M60.498 16.5039C88.8672 16.5039 112.207-6.83594 112.207-35.2051C112.207-63.623 88.8672-86.9629 60.4492-86.9629C32.0312-86.9629 8.74023-63.623 8.74023-35.2051C8.74023-6.83594 32.0801 16.5039 60.498 16.5039ZM60.498 3.22266C39.1602 3.22266 22.0703-13.916 22.0703-35.2051C22.0703-56.543 39.1602-73.6816 60.4492-73.6816C81.7383-73.6816 98.9258-56.543 98.9258-35.2051C98.9746-13.916 81.7871 3.22266 60.498 3.22266ZM60.4492-50.1953C64.4531-50.1953 67.7246-53.4668 67.7246-57.4219C67.7246-61.5234 64.4531-64.7461 60.4492-64.7461C56.4941-64.7461 53.2227-61.5234 53.2227-57.4219C53.2227-53.4668 56.4941-50.1953 60.4492-50.1953ZM51.709-9.22852L71.3867-9.22852C73.9258-9.22852 75.9277-11.084 75.9277-13.7207C75.9277-16.1621 73.9258-18.1152 71.3867-18.1152L67.1387-18.1152L67.1387-37.8906C67.1387-41.3574 65.3809-43.6035 62.1094-43.6035L52.6367-43.6035C50.0488-43.6035 48.0469-41.6992 48.0469-39.209C48.0469-36.5723 50.0488-34.7656 52.6367-34.7656L57.0801-34.7656L57.0801-18.1152L51.709-18.1152C49.1699-18.1152 47.1191-16.1621 47.1191-13.7207C47.1191-11.084 49.1699-9.22852 51.709-9.22852Z"/>
  </g>
  <g id="Semibold-M" transform="matrix(1 0 0 1 1983.5 1126)">
   <path d="M59.7656 15.8203C87.7441 15.8203 110.791-7.27539 110.791-35.2539C110.791-63.2324 87.6953-86.2793 59.7656-86.2793C31.7871-86.2793 8.74023-63.2324 8.74023-35.2539C8.74023-7.27539 31.7871 15.8203 59.7656 15.8203ZM59.7656 4.3457C37.8418 4.3457 20.2637-13.3301 20.2637-35.2539C20.2637-57.1777 37.793-74.8047 59.7656-74.8047C81.6895-74.8047 99.3164-57.1777 99.3652-35.2539C99.3652-13.3301 81.6895 4.3457 59.7656 4.3457ZM59.6191-51.0742C63.4766-51.0742 66.5039-54.1992 66.5039-57.959C66.5039-61.9141 63.4766-64.9902 59.6191-64.9902C55.8105-64.9902 52.6855-61.9141 52.6855-57.959C52.6855-54.1992 55.8105-51.0742 59.6191-51.0742ZM51.0742-8.93555L70.8496-8.93555C73.1934-8.93555 75.0488-10.6445 75.0488-13.0371C75.0488-15.2832 73.1934-17.041 70.8496-17.041L65.918-17.041L65.918-38.7207C65.918-41.8945 64.3555-43.9453 61.377-43.9453L51.9531-43.9453C49.6094-43.9453 47.7539-42.1387 47.7539-39.8926C47.7539-37.5 49.6094-35.791 51.9531-35.791L56.7383-35.791L56.7383-17.041L51.0742-17.041C48.7305-17.041 46.875-15.2832 46.875-13.0371C46.875-10.6445 48.7305-8.93555 51.0742-8.93555Z"/>
  </g>
  <g id="Medium-M" transform="matrix(1 0 0 1 1687.3 1126)">
   <path d="M59.2285 15.2344C86.9141 15.2344 109.766-7.61719 109.766-35.2539C109.766-62.8906 86.8652-85.7422 59.1797-85.7422C31.543-85.7422 8.74023-62.8906 8.74023-35.2539C8.74023-7.61719 31.5918 15.2344 59.2285 15.2344ZM59.2285 5.17578C36.8164 5.17578 18.8965-12.8418 18.8965-35.2539C18.8965-57.666 36.8164-75.6348 59.1797-75.6348C81.5918-75.6348 99.6094-57.666 99.6582-35.2539C99.707-12.8418 81.6406 5.17578 59.2285 5.17578ZM58.9355-51.7578C62.6953-51.7578 65.625-54.7363 65.625-58.3984C65.625-62.207 62.6953-65.1367 58.9355-65.1367C55.2734-65.1367 52.2949-62.207 52.2949-58.3984C52.2949-54.7363 55.2734-51.7578 58.9355-51.7578ZM50.5859-8.69141L70.4102-8.69141C72.6074-8.69141 74.3652-10.2539 74.3652-12.5C74.3652-14.5996 72.6074-16.2598 70.4102-16.2598L64.9902-16.2598L64.9902-39.3066C64.9902-42.2363 63.5254-44.1895 60.791-44.1895L51.4648-44.1895C49.2676-44.1895 47.5586-42.5293 47.5586-40.4297C47.5586-38.1836 49.2676-36.5723 51.4648-36.5723L56.4453-36.5723L56.4453-16.2598L50.5859-16.2598C48.4375-16.2598 46.6797-14.5996 46.6797-12.5C46.6797-10.2539 48.4375-8.69141 50.5859-8.69141Z"/>
  </g>
  <g id="Regular-M" transform="matrix(1 0 0 1 1391.3 1126)">
   <path d="M58.5449 14.5508C85.791 14.5508 108.35-8.05664 108.35-35.2539C108.35-62.5 85.7422-85.0586 58.4961-85.0586C31.2988-85.0586 8.74023-62.5 8.74023-35.2539C8.74023-8.05664 31.3477 14.5508 58.5449 14.5508ZM58.5449 6.25C35.498 6.25 17.0898-12.207 17.0898-35.2539C17.0898-58.3008 35.4492-76.7578 58.4961-76.7578C81.543-76.7578 100-58.3008 100.049-35.2539C100.098-12.207 81.5918 6.25 58.5449 6.25ZM58.1055-52.6367C61.6699-52.6367 64.4531-55.4688 64.4531-58.9844C64.4531-62.5488 61.6699-65.3809 58.1055-65.3809C54.5898-65.3809 51.7578-62.5488 51.7578-58.9844C51.7578-55.4688 54.5898-52.6367 58.1055-52.6367ZM50-8.39844L69.873-8.39844C71.875-8.39844 73.4375-9.81445 73.4375-11.8164C73.4375-13.7207 71.875-15.2344 69.873-15.2344L63.8184-15.2344L63.8184-40.0879C63.8184-42.7246 62.5-44.4824 60.0098-44.4824L50.8301-44.4824C48.8281-44.4824 47.2656-42.9688 47.2656-41.0645C47.2656-39.0625 48.8281-37.6465 50.8301-37.6465L56.0547-37.6465L56.0547-15.2344L50-15.2344C47.998-15.2344 46.4355-13.7207 46.4355-11.8164C46.4355-9.81445 47.998-8.39844 50-8.39844Z"/>
  </g>
  <g id="Light-M" transform="matrix(1 0 0 1 1095.42 1126)">
   <path d="M57.7148 13.7207C84.5215 13.7207 106.689-8.44727 106.689-35.2539C106.689-62.1094 84.5215-84.2285 57.666-84.2285C30.8594-84.2285 8.74023-62.1094 8.74023-35.2539C8.74023-8.44727 30.9082 13.7207 57.7148 13.7207ZM57.7148 7.37305C34.082 7.37305 15.0879-11.6699 15.0879-35.2539C15.0879-58.8867 34.082-77.9297 57.666-77.9297C81.2988-77.9297 100.342-58.8867 100.391-35.2539C100.391-11.6699 81.3477 7.37305 57.7148 7.37305ZM57.4219-53.6621C60.4492-53.6621 62.793-56.0059 62.793-58.9844C62.793-61.9629 60.4492-64.3555 57.4219-64.3555C54.4434-64.3555 52.0508-61.9629 52.0508-58.9844C52.0508-56.0059 54.4434-53.6621 57.4219-53.6621ZM48.9746-8.59375L68.9941-8.59375C70.5566-8.59375 71.7773-9.76562 71.7773-11.2793C71.7773-12.793 70.5566-14.0137 68.9941-14.0137L61.9629-14.0137L61.9629-41.3574C61.9629-43.3594 60.9375-44.7266 59.0332-44.7266L49.6094-44.7266C48.0469-44.7266 46.8262-43.5059 46.8262-42.041C46.8262-40.4785 48.0469-39.3066 49.6094-39.3066L56.0059-39.3066L56.0059-14.0137L48.9746-14.0137C47.4121-14.0137 46.1914-12.793 46.1914-11.2793C46.1914-9.76562 47.4121-8.59375 48.9746-8.59375Z"/>
  </g>
  <g id="Thin-M" transform="matrix(1 0 0 1 799.806 1126)">
   <path d="M56.6406 12.5977C82.9102 12.5977 104.492-8.98438 104.492-35.2539C104.492-61.5723 82.9102-83.1543 56.5918-83.1543C30.3223-83.1543 8.74023-61.5723 8.74023-35.2539C8.74023-8.98438 30.3223 12.5977 56.6406 12.5977ZM56.6406 8.88672C32.2266 8.88672 12.4512-10.8887 12.4512-35.2539C12.4512-59.6191 32.2266-79.4434 56.5918-79.4434C81.0059-79.4434 100.781-59.6191 100.781-35.2539C100.781-10.8887 81.0059 8.88672 56.6406 8.88672ZM56.543-54.9805C58.7402-54.9805 60.5957-56.7383 60.5957-58.9355C60.5957-61.1816 58.7402-62.9883 56.543-62.9883C54.2969-62.9883 52.4902-61.1816 52.4902-58.9355C52.4902-56.7383 54.2969-54.9805 56.543-54.9805ZM47.6562-8.83789L67.7734-8.83789C68.8477-8.83789 69.5312-9.61914 69.5312-10.5957C69.5312-11.5234 68.8477-12.3535 67.7734-12.3535L59.5215-12.3535L59.5215-43.0664C59.5215-44.1895 58.8379-45.0195 57.666-45.0195L47.998-45.0195C46.9727-45.0195 46.2402-44.2383 46.2402-43.2617C46.2402-42.334 46.9727-41.5039 47.998-41.5039L55.9082-41.5039L55.9082-12.3535L47.6562-12.3535C46.582-12.3535 45.8496-11.5234 45.8496-10.5957C45.8496-9.61914 46.582-8.83789 47.6562-8.83789Z"/>
  </g>
  <g id="Ultralight-M" transform="matrix(1 0 0 1 503.656 1126)">
   <path d="M56.0547 12.0605C82.0801 12.0605 103.369-9.22852 103.369-35.2539C103.369-61.2793 82.0801-82.5684 56.0547-82.5684C30.0293-82.5684 8.74023-61.2793 8.74023-35.2539C8.74023-9.22852 30.0293 12.0605 56.0547 12.0605ZM56.0547 9.66797C31.2988 9.66797 11.1328-10.498 11.1328-35.2539C11.1328-60.0586 31.2988-80.1758 56.0547-80.1758C80.8594-80.1758 100.977-60.0586 100.977-35.2539C100.977-10.498 80.8594 9.66797 56.0547 9.66797ZM56.0547-55.7129C57.9102-55.7129 59.4238-57.0801 59.4238-58.9355C59.4238-60.791 57.9102-62.3047 56.0547-62.3047C54.248-62.3047 52.6855-60.791 52.6855-58.9355C52.6855-57.0801 54.248-55.7129 56.0547-55.7129ZM46.9727-8.98438L67.1387-8.98438C67.9199-8.98438 68.4082-9.57031 68.4082-10.2539C68.4082-10.8887 67.9199-11.5234 67.1387-11.5234L58.252-11.5234L58.252-43.9453C58.252-44.5801 57.7637-45.166 56.9824-45.166L47.2168-45.166C46.3867-45.166 45.9473-44.5801 45.9473-43.8965C45.9473-43.2617 46.3867-42.627 47.2168-42.627L55.8594-42.627L55.8594-11.5234L46.9727-11.5234C46.1426-11.5234 45.7031-10.8887 45.7031-10.2539C45.7031-9.57031 46.1426-8.98438 46.9727-8.98438Z"/>
  </g>
  <g id="Black-S" transform="matrix(1 0 0 1 2884.57 696)">
   <path d="M48.8281 6.78711C71.9727 6.78711 90.8203-12.0605 90.8203-35.2051C90.8203-58.3496 71.9727-77.1973 48.8281-77.1973C25.6836-77.1973 6.83594-58.3496 6.83594-35.2051C6.83594-12.0605 25.6836 6.78711 48.8281 6.78711ZM48.8281-7.37305C33.4473-7.37305 20.9961-19.8242 20.9961-35.2051C20.9961-50.5859 33.4473-63.0371 48.8281-63.0371C64.209-63.0371 76.6602-50.5859 76.6602-35.2051C76.6602-19.8242 64.209-7.37305 48.8281-7.37305ZM49.1211-45.1172C52.5879-45.1172 55.4688-48.0469 55.4688-51.416C55.4688-55.0293 52.5879-57.8613 49.1211-57.8613C45.7031-57.8613 42.7734-55.0293 42.7734-51.416C42.7734-48.0469 45.7031-45.1172 49.1211-45.1172ZM41.7969-15.5273L57.0312-15.5273C59.4727-15.5273 61.377-17.2363 61.377-19.7754C61.377-22.1191 59.4727-23.9746 57.0312-23.9746L55.0781-23.9746L55.0781-35.6445C55.0781-39.0137 53.418-41.1621 50.2441-41.1621L42.5781-41.1621C40.1367-41.1621 38.2324-39.3066 38.2324-36.9629C38.2324-34.4238 40.1367-32.7148 42.5781-32.7148L45.5078-32.7148L45.5078-23.9746L41.7969-23.9746C39.3555-23.9746 37.4512-22.1191 37.4512-19.7754C37.4512-17.2363 39.3555-15.5273 41.7969-15.5273Z"/>
  </g>
  <g id="Heavy-S" transform="matrix(1 0 0 1 2588.47 696)">
   <path d="M48.2422 6.15234C70.9961 6.15234 89.5996-12.4512 89.5996-35.2051C89.5996-57.959 70.9961-76.6113 48.1934-76.6113C25.4395-76.6113 6.83594-57.959 6.83594-35.2051C6.83594-12.4512 25.4395 6.15234 48.2422 6.15234ZM48.2422-6.39648C32.2754-6.39648 19.4336-19.2871 19.4336-35.2051C19.4336-51.1719 32.2754-64.0137 48.1934-64.0137C64.1602-64.0137 77.002-51.1719 77.0508-35.2051C77.0508-19.2871 64.1602-6.39648 48.2422-6.39648ZM48.3398-45.8984C51.709-45.8984 54.4922-48.6816 54.4922-52.002C54.4922-55.4688 51.709-58.2031 48.3398-58.2031C45.0195-58.2031 42.1875-55.4688 42.1875-52.002C42.1875-48.6816 45.0195-45.8984 48.3398-45.8984ZM41.3086-15.1855L56.5918-15.1855C58.8867-15.1855 60.6445-16.7969 60.6445-19.1406C60.6445-21.3379 58.8867-23.0957 56.5918-23.0957L54.1016-23.0957L54.1016-36.2793C54.1016-39.4531 52.5391-41.4551 49.6094-41.4551L42.041-41.4551C39.7949-41.4551 37.9883-39.6973 37.9883-37.5488C37.9883-35.1562 39.7949-33.5449 42.041-33.5449L45.1172-33.5449L45.1172-23.0957L41.3086-23.0957C39.0137-23.0957 37.207-21.3379 37.207-19.1406C37.207-16.7969 39.0137-15.1855 41.3086-15.1855Z"/>
  </g>
  <g id="Bold-S" transform="matrix(1 0 0 1 2292.44 696)">
   <path d="M47.5586 5.46875C69.873 5.46875 88.2324-12.8906 88.2324-35.2539C88.2324-57.5684 69.873-75.9277 47.5098-75.9277C25.1953-75.9277 6.83594-57.5684 6.83594-35.2539C6.83594-12.8906 25.1953 5.46875 47.5586 5.46875ZM47.5586-5.32227C30.957-5.32227 17.6758-18.6523 17.6758-35.2539C17.6758-51.8066 30.957-65.1367 47.5098-65.1367C64.1113-65.1367 77.4414-51.8066 77.4414-35.2539C77.4414-18.6523 64.1113-5.32227 47.5586-5.32227ZM47.4609-46.7285C50.7812-46.7285 53.3691-49.4141 53.3691-52.6367C53.3691-56.0059 50.7812-58.5938 47.4609-58.5938C44.2383-58.5938 41.6016-56.0059 41.6016-52.6367C41.6016-49.4141 44.2383-46.7285 47.4609-46.7285ZM40.7227-14.7949L56.1035-14.7949C58.2031-14.7949 59.8633-16.3086 59.8633-18.457C59.8633-20.5078 58.2031-22.0703 56.1035-22.0703L52.9785-22.0703L52.9785-37.0605C52.9785-39.8926 51.5625-41.748 48.877-41.748L41.5039-41.748C39.4043-41.748 37.7441-40.1855 37.7441-38.1836C37.7441-35.9863 39.4043-34.5215 41.5039-34.5215L44.7266-34.5215L44.7266-22.0703L40.7227-22.0703C38.623-22.0703 36.9629-20.5078 36.9629-18.457C36.9629-16.3086 38.623-14.7949 40.7227-14.7949Z"/>
  </g>
  <g id="Semibold-S" transform="matrix(1 0 0 1 1996.2 696)">
   <path d="M47.0703 4.98047C69.0918 4.98047 87.3047-13.1836 87.3047-35.2539C87.3047-57.2754 69.0918-75.4883 47.0215-75.4883C25-75.4883 6.83594-57.2754 6.83594-35.2539C6.83594-13.1836 25.0488 4.98047 47.0703 4.98047ZM47.0703-4.58984C30.0781-4.58984 16.4551-18.2129 16.4551-35.2539C16.4551-52.2461 30.0293-65.8691 47.0215-65.8691C64.0625-65.8691 77.6855-52.2461 77.7344-35.2539C77.7344-18.2129 64.0625-4.58984 47.0703-4.58984ZM46.875-47.3145C50.0977-47.3145 52.6367-49.9512 52.6367-53.0762C52.6367-56.3477 50.0977-58.8867 46.875-58.8867C43.75-58.8867 41.1621-56.3477 41.1621-53.0762C41.1621-49.9512 43.75-47.3145 46.875-47.3145ZM40.332-14.5508L55.7617-14.5508C57.7148-14.5508 59.3262-15.9668 59.3262-17.9688C59.3262-19.873 57.7148-21.3867 55.7617-21.3867L52.1973-21.3867L52.1973-37.5488C52.1973-40.2344 50.8789-41.9922 48.3887-41.9922L41.0645-41.9922C39.1113-41.9922 37.5488-40.4785 37.5488-38.5742C37.5488-36.5723 39.1113-35.1562 41.0645-35.1562L44.4336-35.1562L44.4336-21.3867L40.332-21.3867C38.3789-21.3867 36.8164-19.873 36.8164-17.9688C36.8164-15.9668 38.3789-14.5508 40.332-14.5508Z"/>
  </g>
  <g id="Medium-S" transform="matrix(1 0 0 1 1699.83 696)">
   <path d="M46.7285 4.63867C68.5547 4.63867 86.6211-13.4277 86.6211-35.2539C86.6211-57.0801 68.5059-75.1465 46.6797-75.1465C24.8535-75.1465 6.83594-57.0801 6.83594-35.2539C6.83594-13.4277 24.9023 4.63867 46.7285 4.63867ZM46.7285-4.00391C29.3945-4.00391 15.5273-17.9199 15.5273-35.2539C15.5273-52.5879 29.3457-66.4551 46.6797-66.4551C64.0137-66.4551 77.8809-52.5879 77.9297-35.2539C77.9785-17.9199 64.0625-4.00391 46.7285-4.00391ZM46.4355-47.7539C49.6094-47.7539 52.0508-50.3418 52.0508-53.418C52.0508-56.5918 49.6094-59.082 46.4355-59.082C43.3105-59.082 40.8203-56.5918 40.8203-53.418C40.8203-50.3418 43.3105-47.7539 46.4355-47.7539ZM40.0391-14.3555L55.5176-14.3555C57.373-14.3555 58.8867-15.7227 58.8867-17.627C58.8867-19.4336 57.373-20.8496 55.5176-20.8496L51.6602-20.8496L51.6602-37.9395C51.6602-40.4785 50.3906-42.1387 47.998-42.1387L40.7715-42.1387C38.916-42.1387 37.4023-40.7227 37.4023-38.916C37.4023-37.0117 38.916-35.6445 40.7715-35.6445L44.2383-35.6445L44.2383-20.8496L40.0391-20.8496C38.1348-20.8496 36.6699-19.4336 36.6699-17.627C36.6699-15.7227 38.1348-14.3555 40.0391-14.3555Z"/>
  </g>
  <g id="Regular-S" transform="matrix(1 0 0 1 1403.58 696)">
   <path d="M46.2402 4.15039C67.7734 4.15039 85.6934-13.7207 85.6934-35.2539C85.6934-56.7871 67.7246-74.6582 46.1914-74.6582C24.707-74.6582 6.83594-56.7871 6.83594-35.2539C6.83594-13.7207 24.7559 4.15039 46.2402 4.15039ZM46.2402-3.27148C28.5156-3.27148 14.3555-17.4805 14.3555-35.2539C14.3555-53.0273 28.4668-67.2363 46.1914-67.2363C63.9648-67.2363 78.1738-53.0273 78.2227-35.2539C78.2715-17.4805 64.0137-3.27148 46.2402-3.27148ZM45.8496-48.3398C48.9258-48.3398 51.3184-50.8301 51.3184-53.8574C51.3184-56.9336 48.9258-59.375 45.8496-59.375C42.8223-59.375 40.3809-56.9336 40.3809-53.8574C40.3809-50.8301 42.8223-48.3398 45.8496-48.3398ZM39.6484-14.1113L55.1758-14.1113C56.9336-14.1113 58.3496-15.3809 58.3496-17.1387C58.3496-18.8477 56.9336-20.166 55.1758-20.166L50.8789-20.166L50.8789-38.4277C50.8789-40.8203 49.707-42.3828 47.5098-42.3828L40.3809-42.3828C38.623-42.3828 37.2559-41.0645 37.2559-39.3555C37.2559-37.5488 38.623-36.2793 40.3809-36.2793L43.9453-36.2793L43.9453-20.166L39.6484-20.166C37.8906-20.166 36.4746-18.8477 36.4746-17.1387C36.4746-15.3809 37.8906-14.1113 39.6484-14.1113Z"/>
  </g>
  <g id="Light-S" transform="matrix(1 0 0 1 1107.6 696)">
   <path d="M45.5078 3.41797C66.6992 3.41797 84.2285-14.0625 84.2285-35.2539C84.2285-56.4453 66.6504-73.9258 45.5078-73.9258C24.3164-73.9258 6.83594-56.4453 6.83594-35.2539C6.83594-14.0625 24.3652 3.41797 45.5078 3.41797ZM45.5078-2.29492C27.2461-2.29492 12.5977-16.9922 12.5977-35.2539C12.5977-53.5156 27.1973-68.2129 45.5078-68.2129C63.7695-68.2129 78.4668-53.5156 78.5156-35.2539C78.5156-16.9922 63.8184-2.29492 45.5078-2.29492ZM45.2637-49.2676C47.8027-49.2676 49.8047-51.3184 49.8047-53.8574C49.8047-56.3965 47.8027-58.4473 45.2637-58.4473C42.7246-58.4473 40.6738-56.3965 40.6738-53.8574C40.6738-51.3184 42.7246-49.2676 45.2637-49.2676ZM38.7207-14.2578L54.3945-14.2578C55.7617-14.2578 56.8359-15.2832 56.8359-16.6992C56.8359-18.0176 55.7617-19.0918 54.3945-19.0918L49.2188-19.0918L49.2188-39.5508C49.2188-41.3574 48.291-42.5781 46.582-42.5781L39.3066-42.5781C37.9395-42.5781 36.8164-41.5039 36.8164-40.1855C36.8164-38.8184 37.9395-37.793 39.3066-37.793L43.8965-37.793L43.8965-19.0918L38.7207-19.0918C37.3535-19.0918 36.2793-18.0176 36.2793-16.6992C36.2793-15.2832 37.3535-14.2578 38.7207-14.2578Z"/>
  </g>
  <g id="Thin-S" transform="matrix(1 0 0 1 811.867 696)">
   <path d="M44.5801 2.49023C65.2832 2.49023 82.2754-14.5508 82.2754-35.2539C82.2754-55.957 65.2344-72.998 44.5312-72.998C23.8281-72.998 6.83594-55.957 6.83594-35.2539C6.83594-14.5508 23.877 2.49023 44.5801 2.49023ZM44.5801-0.927734C25.5859-0.927734 10.2539-16.3086 10.2539-35.2539C10.2539-54.1992 25.5859-69.5801 44.5312-69.5801C63.5254-69.5801 78.8574-54.1992 78.8574-35.2539C78.8574-16.3086 63.5254-0.927734 44.5801-0.927734ZM44.4336-50.4395C46.3379-50.4395 47.8516-51.9531 47.8516-53.8086C47.8516-55.7129 46.3379-57.2754 44.4336-57.2754C42.5781-57.2754 41.0156-55.7129 41.0156-53.8086C41.0156-51.9531 42.5781-50.4395 44.4336-50.4395ZM37.5488-14.502L53.3203-14.502C54.248-14.502 54.8828-15.1855 54.8828-16.0645C54.8828-16.8945 54.248-17.627 53.3203-17.627L47.0703-17.627L47.0703-41.0645C47.0703-42.0898 46.4844-42.8223 45.4102-42.8223L37.8906-42.8223C36.9629-42.8223 36.3281-42.1387 36.3281-41.3086C36.3281-40.4297 36.9629-39.7461 37.8906-39.7461L43.7988-39.7461L43.7988-17.627L37.5488-17.627C36.6211-17.627 35.9863-16.8945 35.9863-16.0645C35.9863-15.1855 36.6211-14.502 37.5488-14.502Z"/>
  </g>
  <g id="Ultralight-S" transform="matrix(1 0 0 1 515.644 696)">
   <path d="M44.043 1.95312C64.502 1.95312 81.2988-14.7949 81.2988-35.2539C81.2988-55.7129 64.502-72.4609 44.043-72.4609C23.584-72.4609 6.83594-55.7129 6.83594-35.2539C6.83594-14.7949 23.584 1.95312 44.043 1.95312ZM44.043-0.244141C24.7559-0.244141 9.08203-15.9668 9.08203-35.2539C9.08203-54.541 24.7559-70.2637 44.043-70.2637C63.3789-70.2637 79.0527-54.541 79.0527-35.2539C79.0527-15.9668 63.3789-0.244141 44.043-0.244141ZM44.043-51.0742C45.6055-51.0742 46.875-52.2461 46.875-53.8086C46.875-55.3711 45.6055-56.6406 44.043-56.6406C42.4805-56.6406 41.2109-55.3711 41.2109-53.8086C41.2109-52.2461 42.4805-51.0742 44.043-51.0742ZM36.9629-14.5996L52.7832-14.5996C53.4668-14.5996 53.9062-15.1367 53.9062-15.7227C53.9062-16.3574 53.4668-16.8945 52.7832-16.8945L45.9473-16.8945L45.9473-41.7969C45.9473-42.4316 45.5078-42.9688 44.8242-42.9688L37.1582-42.9688C36.4746-42.9688 36.0352-42.4805 36.0352-41.8457C36.0352-41.2598 36.4746-40.7227 37.1582-40.7227L43.75-40.7227L43.75-16.8945L36.9629-16.8945C36.2793-16.8945 35.8398-16.3574 35.8398-15.7227C35.8398-15.1367 36.2793-14.5996 36.9629-14.5996Z"/>
  </g>
 </g>
</svg>
