<?xml version="1.0" encoding="UTF-8" standalone="no"?>
<!DOCTYPE svg PUBLIC "-//W3C//DTD SVG 1.1//EN" "http://www.w3.org/Graphics/SVG/1.1/DTD/svg11.dtd">
<svg width="100%" height="100%" viewBox="0 0 1024 1024" version="1.1" xmlns="http://www.w3.org/2000/svg" xmlns:xlink="http://www.w3.org/1999/xlink" xml:space="preserve" xmlns:serif="http://www.serif.com/" style="fill-rule:evenodd;clip-rule:evenodd;stroke-linejoin:round;stroke-miterlimit:2;">
    <g id="Cog" transform="matrix(1.80868,0.484048,-0.540787,2.02069,-417.08,-1087.33)">
        <path d="M725.283,392.506C730.521,406.174 732.022,420.162 729.784,434.471C747.104,436.642 764.061,440.709 780.274,446.581C786.329,433.187 795.443,421.744 807.614,412.253C822.885,418.467 837.447,425.993 851.096,434.723C847.998,448.903 841.483,461.689 831.552,473.08C845.339,482.711 857.753,493.822 868.513,506.164C881.239,497.274 895.524,491.443 911.366,488.67C921.12,500.887 929.527,513.921 936.471,527.59C925.867,538.484 913.082,546.641 898.118,552.061C904.679,566.573 909.222,581.751 911.647,597.254C927.634,595.251 943.262,596.594 958.531,601.283C960.154,616.228 960.154,631.279 958.531,646.224C943.262,650.913 927.634,652.256 911.647,650.252C909.222,665.756 904.679,680.934 898.118,695.445C913.082,700.865 925.867,709.022 936.471,719.917C929.527,733.586 921.12,746.62 911.366,758.836C895.524,756.064 881.239,750.233 868.513,741.343C857.753,753.684 845.339,764.795 831.552,774.427C841.483,785.817 847.998,798.603 851.096,812.784C837.447,821.514 822.885,829.039 807.614,835.254C795.443,825.763 786.329,814.32 780.274,800.926C764.061,806.798 747.104,810.865 729.784,813.035C732.022,827.345 730.521,841.333 725.283,855C708.586,856.452 691.771,856.452 675.074,855C669.836,841.333 668.335,827.345 670.573,813.035C653.253,810.865 636.295,806.798 620.083,800.926C614.028,814.32 604.914,825.763 592.743,835.254C577.472,829.039 562.91,821.514 549.261,812.784C552.359,798.603 558.874,785.817 568.805,774.427C555.018,764.795 542.604,753.684 531.844,741.343C519.118,750.233 504.833,756.064 488.99,758.836C479.237,746.62 470.83,733.586 463.886,719.917C474.49,709.022 487.274,700.865 502.239,695.445C495.678,680.934 491.135,665.756 488.71,650.252C472.723,652.256 457.095,650.913 441.826,646.224C440.203,631.279 440.203,616.228 441.826,601.283C457.095,596.594 472.723,595.251 488.71,597.254C491.135,581.751 495.678,566.573 502.239,552.061C487.274,546.641 474.49,538.484 463.886,527.59C470.83,513.921 479.237,500.887 488.99,488.67C504.833,491.443 519.118,497.274 531.844,506.164C542.604,493.822 555.018,482.711 568.805,473.08C558.874,461.689 552.359,448.903 549.261,434.723C562.91,425.993 577.472,418.467 592.743,412.253C604.914,421.744 614.028,433.187 620.083,446.581C636.295,440.709 653.253,436.642 670.573,434.471C668.335,420.162 669.836,406.174 675.074,392.506C691.771,391.054 708.586,391.054 725.283,392.506ZM700.178,509.768C770.463,509.768 827.524,560.843 827.524,623.753C827.524,686.663 770.463,737.738 700.178,737.738C629.894,737.738 572.833,686.663 572.833,623.753C572.833,560.843 629.894,509.768 700.178,509.768Z" style="fill:rgb(174,174,174);"/>
    </g>
</svg>
