<?xml version="1.0" encoding="UTF-8" standalone="no"?>
<!DOCTYPE svg PUBLIC "-//W3C//DTD SVG 1.1//EN" "http://www.w3.org/Graphics/SVG/1.1/DTD/svg11.dtd">
<svg width="100%" height="100%" viewBox="0 0 1024 1024" version="1.1" xmlns="http://www.w3.org/2000/svg" xmlns:xlink="http://www.w3.org/1999/xlink" xml:space="preserve" xmlns:serif="http://www.serif.com/" style="fill-rule:evenodd;clip-rule:evenodd;stroke-linejoin:round;stroke-miterlimit:2;">
    <g id="PauseGlyph" transform="matrix(13.1486,0,0,13.1486,389.374,354.897)">
        <path d="M2.256,23.897L5.508,23.897C7.002,23.897 7.764,23.135 7.764,21.641L7.764,2.256C7.764,0.791 7.002,0 5.508,0L2.256,0C0.762,0 0,0.762 0,2.256L0,21.641C0,23.135 0.723,23.897 2.256,23.897ZM13.145,23.897L16.397,23.897C17.891,23.897 18.652,23.135 18.652,21.641L18.652,2.256C18.652,0.791 17.891,0 16.397,0L13.145,0C11.65,0 10.889,0.762 10.889,2.256L10.889,21.641C10.889,23.135 11.621,23.897 13.145,23.897Z" style="fill:white;fill-rule:nonzero;"/>
    </g>
</svg>
