<?xml version="1.0" encoding="UTF-8"?>
<!--Generator: Apple Native CoreSVG 129-->
<!DOCTYPE svg
PUBLIC "-//W3C//DTD SVG 1.1//EN"
       "http://www.w3.org/Graphics/SVG/1.1/DTD/svg11.dtd">
<svg version="1.1" xmlns="http://www.w3.org/2000/svg" xmlns:xlink="http://www.w3.org/1999/xlink" width="3300" height="2200">
 <!--glyph: "uni10029F.medium", point size: 100.000000, font version: "Version 16.0d9e1", template writer version: "8"-->
 <g id="Notes">
  <rect height="2200" id="artboard" style="fill:white;opacity:1" width="3300" x="0" y="0"/>
  <line id="" style="fill:none;stroke:black;opacity:1;stroke-width:0.5;" x1="263" x2="3036" y1="292" y2="292"/>
  <text style="stroke:none;fill:black;font-family:-apple-system,&quot;SF Pro Display&quot;,&quot;SF Pro Text&quot;,Helvetica,sans-serif;font-weight:bold;" transform="matrix(1 0 0 1 263 322)">Weight/Scale Variations</text>
  <text style="stroke:none;fill:black;font-family:-apple-system,&quot;SF Pro Display&quot;,&quot;SF Pro Text&quot;,Helvetica,sans-serif;text-anchor:middle;" transform="matrix(1 0 0 1 559.711 322)">Ultralight</text>
  <text style="stroke:none;fill:black;font-family:-apple-system,&quot;SF Pro Display&quot;,&quot;SF Pro Text&quot;,Helvetica,sans-serif;text-anchor:middle;" transform="matrix(1 0 0 1 856.422 322)">Thin</text>
  <text style="stroke:none;fill:black;font-family:-apple-system,&quot;SF Pro Display&quot;,&quot;SF Pro Text&quot;,Helvetica,sans-serif;text-anchor:middle;" transform="matrix(1 0 0 1 1153.13 322)">Light</text>
  <text style="stroke:none;fill:black;font-family:-apple-system,&quot;SF Pro Display&quot;,&quot;SF Pro Text&quot;,Helvetica,sans-serif;text-anchor:middle;" transform="matrix(1 0 0 1 1449.84 322)">Regular</text>
  <text style="stroke:none;fill:black;font-family:-apple-system,&quot;SF Pro Display&quot;,&quot;SF Pro Text&quot;,Helvetica,sans-serif;text-anchor:middle;" transform="matrix(1 0 0 1 1746.56 322)">Medium</text>
  <text style="stroke:none;fill:black;font-family:-apple-system,&quot;SF Pro Display&quot;,&quot;SF Pro Text&quot;,Helvetica,sans-serif;text-anchor:middle;" transform="matrix(1 0 0 1 2043.27 322)">Semibold</text>
  <text style="stroke:none;fill:black;font-family:-apple-system,&quot;SF Pro Display&quot;,&quot;SF Pro Text&quot;,Helvetica,sans-serif;text-anchor:middle;" transform="matrix(1 0 0 1 2339.98 322)">Bold</text>
  <text style="stroke:none;fill:black;font-family:-apple-system,&quot;SF Pro Display&quot;,&quot;SF Pro Text&quot;,Helvetica,sans-serif;text-anchor:middle;" transform="matrix(1 0 0 1 2636.69 322)">Heavy</text>
  <text style="stroke:none;fill:black;font-family:-apple-system,&quot;SF Pro Display&quot;,&quot;SF Pro Text&quot;,Helvetica,sans-serif;text-anchor:middle;" transform="matrix(1 0 0 1 2933.4 322)">Black</text>
  <line id="" style="fill:none;stroke:black;opacity:1;stroke-width:0.5;" x1="263" x2="3036" y1="1903" y2="1903"/>
  <g id="" transform="matrix(1 0 0 1 263 1933)">
   <path d="M 9.24805 0.830078 C 13.5547 0.830078 17.1387 -2.74414 17.1387 -7.05078 C 17.1387 -11.3574 13.5449 -14.9316 9.23828 -14.9316 C 4.94141 -14.9316 1.36719 -11.3574 1.36719 -7.05078 C 1.36719 -2.74414 4.95117 0.830078 9.24805 0.830078 Z M 9.24805 -0.654297 C 5.70312 -0.654297 2.87109 -3.49609 2.87109 -7.05078 C 2.87109 -10.6055 5.69336 -13.4473 9.23828 -13.4473 C 12.793 -13.4473 15.6348 -10.6055 15.6445 -7.05078 C 15.6543 -3.49609 12.8027 -0.654297 9.24805 -0.654297 Z M 9.22852 -3.62305 C 9.69727 -3.62305 9.9707 -3.93555 9.9707 -4.45312 L 9.9707 -6.31836 L 12.002 -6.31836 C 12.5 -6.31836 12.832 -6.57227 12.832 -7.04102 C 12.832 -7.51953 12.5195 -7.7832 12.002 -7.7832 L 9.9707 -7.7832 L 9.9707 -9.81445 C 9.9707 -10.332 9.69727 -10.6543 9.22852 -10.6543 C 8.75977 -10.6543 8.50586 -10.3125 8.50586 -9.81445 L 8.50586 -7.7832 L 6.49414 -7.7832 C 5.97656 -7.7832 5.64453 -7.51953 5.64453 -7.04102 C 5.64453 -6.57227 5.99609 -6.31836 6.49414 -6.31836 L 8.50586 -6.31836 L 8.50586 -4.45312 C 8.50586 -3.95508 8.75977 -3.62305 9.22852 -3.62305 Z"/>
  </g>
  <g id="" transform="matrix(1 0 0 1 281.506 1933)">
   <path d="M 11.709 2.91016 C 17.1582 2.91016 21.6699 -1.61133 21.6699 -7.05078 C 21.6699 -12.5 17.1484 -17.0117 11.6992 -17.0117 C 6.25977 -17.0117 1.74805 -12.5 1.74805 -7.05078 C 1.74805 -1.61133 6.26953 2.91016 11.709 2.91016 Z M 11.709 1.25 C 7.09961 1.25 3.41797 -2.44141 3.41797 -7.05078 C 3.41797 -11.6602 7.08984 -15.3516 11.6992 -15.3516 C 16.3086 -15.3516 20 -11.6602 20.0098 -7.05078 C 20.0195 -2.44141 16.3184 1.25 11.709 1.25 Z M 11.6797 -2.66602 C 12.207 -2.66602 12.5098 -3.01758 12.5098 -3.59375 L 12.5098 -6.23047 L 15.3223 -6.23047 C 15.8691 -6.23047 16.25 -6.51367 16.25 -7.03125 C 16.25 -7.55859 15.8887 -7.86133 15.3223 -7.86133 L 12.5098 -7.86133 L 12.5098 -10.6836 C 12.5098 -11.25 12.207 -11.6113 11.6797 -11.6113 C 11.1621 -11.6113 10.8789 -11.2305 10.8789 -10.6836 L 10.8789 -7.86133 L 8.07617 -7.86133 C 7.50977 -7.86133 7.13867 -7.55859 7.13867 -7.03125 C 7.13867 -6.51367 7.5293 -6.23047 8.07617 -6.23047 L 10.8789 -6.23047 L 10.8789 -3.59375 C 10.8789 -3.03711 11.1621 -2.66602 11.6797 -2.66602 Z"/>
  </g>
  <g id="" transform="matrix(1 0 0 1 304.924 1933)">
   <path d="M 14.9707 5.66406 C 21.9336 5.66406 27.6953 -0.0976562 27.6953 -7.05078 C 27.6953 -14.0137 21.9238 -19.7754 14.9609 -19.7754 C 8.00781 -19.7754 2.25586 -14.0137 2.25586 -7.05078 C 2.25586 -0.0976562 8.01758 5.66406 14.9707 5.66406 Z M 14.9707 3.84766 C 8.93555 3.84766 4.08203 -1.01562 4.08203 -7.05078 C 4.08203 -13.0957 8.92578 -17.9492 14.9609 -17.9492 C 21.0059 -17.9492 25.8594 -13.0957 25.8691 -7.05078 C 25.8789 -1.01562 21.0156 3.84766 14.9707 3.84766 Z M 14.9414 -1.38672 C 15.5176 -1.38672 15.8594 -1.77734 15.8594 -2.38281 L 15.8594 -6.13281 L 19.7754 -6.13281 C 20.3711 -6.13281 20.7812 -6.46484 20.7812 -7.02148 C 20.7812 -7.59766 20.3906 -7.93945 19.7754 -7.93945 L 15.8594 -7.93945 L 15.8594 -11.8652 C 15.8594 -12.4805 15.5176 -12.8711 14.9414 -12.8711 C 14.375 -12.8711 14.0527 -12.4609 14.0527 -11.8652 L 14.0527 -7.93945 L 10.1465 -7.93945 C 9.53125 -7.93945 9.13086 -7.59766 9.13086 -7.02148 C 9.13086 -6.46484 9.55078 -6.13281 10.1465 -6.13281 L 14.0527 -6.13281 L 14.0527 -2.38281 C 14.0527 -1.79688 14.375 -1.38672 14.9414 -1.38672 Z"/>
  </g>
  <text style="stroke:none;fill:black;font-family:-apple-system,&quot;SF Pro Display&quot;,&quot;SF Pro Text&quot;,Helvetica,sans-serif;font-weight:bold;" transform="matrix(1 0 0 1 263 1953)">Design Variations</text>
  <text style="stroke:none;fill:black;font-family:-apple-system,&quot;SF Pro Display&quot;,&quot;SF Pro Text&quot;,Helvetica,sans-serif;" transform="matrix(1 0 0 1 263 1971)">Symbols are supported in up to nine weights and three scales.</text>
  <text style="stroke:none;fill:black;font-family:-apple-system,&quot;SF Pro Display&quot;,&quot;SF Pro Text&quot;,Helvetica,sans-serif;" transform="matrix(1 0 0 1 263 1989)">For optimal layout with text and other symbols, vertically align</text>
  <text style="stroke:none;fill:black;font-family:-apple-system,&quot;SF Pro Display&quot;,&quot;SF Pro Text&quot;,Helvetica,sans-serif;" transform="matrix(1 0 0 1 263 2007)">symbols with the adjacent text.</text>
  <line id="" style="fill:none;stroke:#00AEEF;stroke-width:0.5;opacity:1.0;" x1="776" x2="776" y1="1919" y2="1933"/>
  <g id="" transform="matrix(1 0 0 1 776 1933)">
   <path d="M 3.31055 0.126953 C 3.82812 0.126953 4.08203 -0.0683594 4.26758 -0.605469 L 5.52734 -4.0625 L 11.2891 -4.0625 L 12.5488 -0.605469 C 12.7344 -0.0683594 12.9883 0.126953 13.4961 0.126953 C 14.0137 0.126953 14.3457 -0.185547 14.3457 -0.673828 C 14.3457 -0.839844 14.3164 -0.986328 14.2383 -1.20117 L 9.6582 -13.3887 C 9.43359 -13.9941 9.0332 -14.2871 8.4082 -14.2871 C 7.80273 -14.2871 7.39258 -13.9941 7.17773 -13.3984 L 2.59766 -1.19141 C 2.51953 -0.976562 2.49023 -0.830078 2.49023 -0.664062 C 2.49023 -0.175781 2.80273 0.126953 3.31055 0.126953 Z M 6.00586 -5.53711 L 8.37891 -12.1094 L 8.42773 -12.1094 L 10.8008 -5.53711 Z"/>
  </g>
  <line id="" style="fill:none;stroke:#00AEEF;stroke-width:0.5;opacity:1.0;" x1="792.836" x2="792.836" y1="1919" y2="1933"/>
  <text style="stroke:none;fill:black;font-family:-apple-system,&quot;SF Pro Display&quot;,&quot;SF Pro Text&quot;,Helvetica,sans-serif;font-weight:bold;" transform="matrix(1 0 0 1 776 1953)">Margins</text>
  <text style="stroke:none;fill:black;font-family:-apple-system,&quot;SF Pro Display&quot;,&quot;SF Pro Text&quot;,Helvetica,sans-serif;" transform="matrix(1 0 0 1 776 1971)">Leading and trailing margins on the left and right side of each symbol</text>
  <text style="stroke:none;fill:black;font-family:-apple-system,&quot;SF Pro Display&quot;,&quot;SF Pro Text&quot;,Helvetica,sans-serif;" transform="matrix(1 0 0 1 776 1989)">can be adjusted by modifying the x-location of the margin guidelines.</text>
  <text style="stroke:none;fill:black;font-family:-apple-system,&quot;SF Pro Display&quot;,&quot;SF Pro Text&quot;,Helvetica,sans-serif;" transform="matrix(1 0 0 1 776 2007)">Modifications are automatically applied proportionally to all</text>
  <text style="stroke:none;fill:black;font-family:-apple-system,&quot;SF Pro Display&quot;,&quot;SF Pro Text&quot;,Helvetica,sans-serif;" transform="matrix(1 0 0 1 776 2025)">scales and weights.</text>
  <g id="" transform="matrix(1 0 0 1 1289 1933)">
   <path d="M 2.8418 1.86523 L 4.54102 3.57422 C 5.40039 4.44336 6.38672 4.38477 7.31445 3.35938 L 17.4902 -7.85156 C 17.7539 -7.76367 18.0273 -7.7832 18.3398 -7.8418 L 19.4043 -8.03711 L 20.0684 -7.36328 L 20.0293 -6.80664 C 19.9902 -6.30859 20.1172 -5.92773 20.6055 -5.44922 L 21.3672 -4.70703 C 21.8457 -4.22852 22.4609 -4.19922 22.9297 -4.66797 L 25.8398 -7.58789 C 26.3086 -8.05664 26.2891 -8.65234 25.8105 -9.13086 L 25.0391 -9.89258 C 24.5605 -10.3711 24.1895 -10.5273 23.7109 -10.4883 L 23.1348 -10.4395 L 22.4902 -11.0742 L 22.7344 -12.1973 C 22.8613 -12.7637 22.7051 -13.2031 22.1191 -13.7891 L 19.9219 -15.9766 C 16.582 -19.2969 12.1484 -19.2188 9.25781 -16.3281 C 8.83789 -15.918 8.80859 -15.3418 9.04297 -14.9512 C 9.27734 -14.5898 9.73633 -14.3555 10.3809 -14.5215 C 11.8457 -14.8633 13.3691 -14.9219 14.7949 -13.9844 L 14.209 -12.5293 C 14.0137 -12.0508 13.9844 -11.6504 14.1113 -11.2891 L 3.04688 -0.898438 C 2.06055 0.0195312 1.98242 0.996094 2.8418 1.86523 Z M 10.752 -15.957 C 13.1836 -17.7344 16.4746 -17.4316 18.7012 -15.2051 L 21.1328 -12.793 C 21.3672 -12.5586 21.4062 -12.373 21.3379 -12.0312 L 21.0156 -10.5469 L 22.5195 -9.0625 L 23.5059 -9.12109 C 23.7598 -9.13086 23.8379 -9.11133 24.0332 -8.91602 L 24.6094 -8.33984 L 22.168 -5.89844 L 21.5918 -6.47461 C 21.3965 -6.66992 21.3672 -6.74805 21.377 -7.01172 L 21.4453 -7.98828 L 19.9512 -9.47266 L 18.4277 -9.21875 C 18.1055 -9.15039 17.959 -9.17969 17.7148 -9.41406 L 15.7129 -11.416 C 15.459 -11.6504 15.4297 -11.8164 15.5859 -12.1875 L 16.4648 -14.2773 C 14.9023 -15.7324 12.8711 -16.3574 10.8398 -15.7617 C 10.6836 -15.7227 10.625 -15.8496 10.752 -15.957 Z M 5.27344 2.30469 L 4.10156 1.14258 C 3.63281 0.683594 3.74023 0.341797 4.14062 -0.0195312 L 14.9512 -10.1953 L 16.416 -8.71094 L 6.42578 2.27539 C 6.07422 2.67578 5.74219 2.77344 5.27344 2.30469 Z"/>
  </g>
  <text style="stroke:none;fill:black;font-family:-apple-system,&quot;SF Pro Display&quot;,&quot;SF Pro Text&quot;,Helvetica,sans-serif;font-weight:bold;" transform="matrix(1 0 0 1 1289 1953)">Exporting</text>
  <text style="stroke:none;fill:black;font-family:-apple-system,&quot;SF Pro Display&quot;,&quot;SF Pro Text&quot;,Helvetica,sans-serif;" transform="matrix(1 0 0 1 1289 1971)">Symbols should be outlined when exporting to ensure the</text>
  <text style="stroke:none;fill:black;font-family:-apple-system,&quot;SF Pro Display&quot;,&quot;SF Pro Text&quot;,Helvetica,sans-serif;" transform="matrix(1 0 0 1 1289 1989)">design is preserved when submitting to Xcode.</text>
  <text id="template-version" style="stroke:none;fill:black;font-family:-apple-system,&quot;SF Pro Display&quot;,&quot;SF Pro Text&quot;,Helvetica,sans-serif;text-anchor:end;" transform="matrix(1 0 0 1 3036 1933)">Template v.2.0</text>
  <text style="stroke:none;fill:black;font-family:-apple-system,&quot;SF Pro Display&quot;,&quot;SF Pro Text&quot;,Helvetica,sans-serif;text-anchor:end;" transform="matrix(1 0 0 1 3036 1951)">Requires Xcode 12 or greater</text>
  <text style="stroke:none;fill:black;font-family:-apple-system,&quot;SF Pro Display&quot;,&quot;SF Pro Text&quot;,Helvetica,sans-serif;text-anchor:end;" transform="matrix(1 0 0 1 3036 1969)">Generated from repeat.1</text>
  <text style="stroke:none;fill:black;font-family:-apple-system,&quot;SF Pro Display&quot;,&quot;SF Pro Text&quot;,Helvetica,sans-serif;text-anchor:end;" transform="matrix(1 0 0 1 3036 1987)">Typeset at 100 points</text>
  <text style="stroke:none;fill:black;font-family:-apple-system,&quot;SF Pro Display&quot;,&quot;SF Pro Text&quot;,Helvetica,sans-serif;" transform="matrix(1 0 0 1 263 726)">Small</text>
  <text style="stroke:none;fill:black;font-family:-apple-system,&quot;SF Pro Display&quot;,&quot;SF Pro Text&quot;,Helvetica,sans-serif;" transform="matrix(1 0 0 1 263 1156)">Medium</text>
  <text style="stroke:none;fill:black;font-family:-apple-system,&quot;SF Pro Display&quot;,&quot;SF Pro Text&quot;,Helvetica,sans-serif;" transform="matrix(1 0 0 1 263 1586)">Large</text>
 </g>
 <g id="Guides">
  <g id="H-reference" style="fill:#27AAE1;stroke:none;" transform="matrix(1 0 0 1 339 696)">
   <path d="M 0.976562 0 L 3.66211 0 L 12.9883 -24.4629 L 45.7031 -24.4629 L 55.0781 0 L 57.7148 0 L 30.6152 -70.459 L 28.125 -70.459 Z M 29.2969 -67.1387 L 29.3945 -67.1387 L 44.873 -26.709 L 13.8672 -26.709 Z"/>
  </g>
  <line id="Baseline-S" style="fill:none;stroke:#27AAE1;opacity:1;stroke-width:0.5;" x1="263" x2="3036" y1="696" y2="696"/>
  <line id="Capline-S" style="fill:none;stroke:#27AAE1;opacity:1;stroke-width:0.5;" x1="263" x2="3036" y1="625.541" y2="625.541"/>
  <g id="H-reference" style="fill:#27AAE1;stroke:none;" transform="matrix(1 0 0 1 339 1126)">
   <path d="M 0.976562 0 L 3.66211 0 L 12.9883 -24.4629 L 45.7031 -24.4629 L 55.0781 0 L 57.7148 0 L 30.6152 -70.459 L 28.125 -70.459 Z M 29.2969 -67.1387 L 29.3945 -67.1387 L 44.873 -26.709 L 13.8672 -26.709 Z"/>
  </g>
  <line id="Baseline-M" style="fill:none;stroke:#27AAE1;opacity:1;stroke-width:0.5;" x1="263" x2="3036" y1="1126" y2="1126"/>
  <line id="Capline-M" style="fill:none;stroke:#27AAE1;opacity:1;stroke-width:0.5;" x1="263" x2="3036" y1="1055.54" y2="1055.54"/>
  <g id="H-reference" style="fill:#27AAE1;stroke:none;" transform="matrix(1 0 0 1 339 1556)">
   <path d="M 0.976562 0 L 3.66211 0 L 12.9883 -24.4629 L 45.7031 -24.4629 L 55.0781 0 L 57.7148 0 L 30.6152 -70.459 L 28.125 -70.459 Z M 29.2969 -67.1387 L 29.3945 -67.1387 L 44.873 -26.709 L 13.8672 -26.709 Z"/>
  </g>
  <line id="Baseline-L" style="fill:none;stroke:#27AAE1;opacity:1;stroke-width:0.5;" x1="263" x2="3036" y1="1556" y2="1556"/>
  <line id="Capline-L" style="fill:none;stroke:#27AAE1;opacity:1;stroke-width:0.5;" x1="263" x2="3036" y1="1485.54" y2="1485.54"/>
  <line id="left-margin" style="fill:none;stroke:#00AEEF;stroke-width:0.5;opacity:1.0;" x1="1384.05" x2="1384.05" y1="1030.79" y2="1150.12"/>
  <line id="right-margin" style="fill:none;stroke:#00AEEF;stroke-width:0.5;opacity:1.0;" x1="1515.64" x2="1515.64" y1="1030.79" y2="1150.12"/>
 </g>
 <g id="Symbols">
  <g id="Black-L" transform="matrix(1 0 0 1 2840.24 1556)">
   <path d="M 159.961 -55.0781 C 166.016 -55.0781 169.971 -58.2031 169.971 -65.3809 L 169.971 -95.5566 C 169.971 -102.148 165.186 -106.641 158.643 -106.641 C 153.418 -106.641 149.902 -104.98 146.045 -102.148 L 137.695 -96.0449 C 134.473 -93.7012 133.398 -91.9434 133.398 -89.3066 C 133.398 -85.4004 136.182 -82.7637 139.893 -82.7637 C 141.846 -82.7637 143.213 -83.3008 144.58 -84.375 L 149.512 -88.3301 L 149.951 -88.3301 L 149.951 -65.3809 C 149.951 -58.2031 153.906 -55.0781 159.961 -55.0781 Z M 16.0645 -43.6523 C 16.0645 -37.1582 20.5078 -32.7148 26.9531 -32.7148 C 33.4473 -32.7148 37.8418 -37.1094 37.8418 -43.6523 L 37.8418 -47.5586 C 37.8418 -58.3984 45.0684 -64.8926 56.8848 -64.8926 L 82.8125 -64.8926 L 82.8125 -51.7578 C 82.8125 -46.7773 85.8887 -43.6035 90.8203 -43.6035 C 93.1152 -43.6035 94.9219 -44.4336 96.3867 -45.6543 L 124.268 -69.3848 C 127.881 -72.5098 127.832 -77.5879 124.268 -80.6641 L 96.3867 -104.395 C 94.9219 -105.615 93.1152 -106.445 90.8203 -106.445 C 85.8887 -106.445 82.8125 -103.271 82.8125 -98.291 L 82.8125 -86.2305 L 57.8613 -86.2305 C 31.8848 -86.2305 16.0645 -72.6562 16.0645 -50.5859 Z M 82.2266 -25.1953 C 82.2266 -30.1758 79.1504 -33.3008 74.2188 -33.3008 C 71.9238 -33.3008 70.1172 -32.5195 68.6523 -31.2988 L 40.8203 -7.56836 C 37.1582 -4.44336 37.207 0.683594 40.8203 3.75977 L 68.6523 27.4414 C 70.1172 28.6621 71.9238 29.4922 74.2188 29.4922 C 79.1504 29.4922 82.2266 26.3672 82.2266 21.3867 L 82.2266 9.42383 L 128.467 9.42383 C 154.395 9.42383 170.264 -4.15039 170.264 -26.2207 L 170.264 -33.1543 C 170.264 -39.6484 165.82 -44.0918 159.326 -44.0918 C 152.832 -44.0918 148.486 -39.6973 148.486 -33.1543 L 148.486 -29.248 C 148.486 -18.4082 141.26 -11.8652 129.395 -11.8652 L 82.2266 -11.8652 Z"/>
  </g>
  <g id="Heavy-L" transform="matrix(1 0 0 1 2545.89 1556)">
   <path d="M 156.152 -53.9551 C 161.621 -53.9551 165.137 -56.8359 165.137 -63.1836 L 165.137 -93.2129 C 165.137 -99.2676 160.84 -103.32 154.883 -103.32 C 150.098 -103.32 146.924 -101.855 143.262 -99.1699 L 135.01 -93.0664 C 132.227 -91.0156 131.25 -89.4043 131.25 -87.0117 C 131.25 -83.5938 133.691 -81.2012 137.109 -81.2012 C 138.867 -81.2012 140.088 -81.6895 141.357 -82.666 L 146.68 -86.9629 L 147.168 -86.9629 L 147.168 -63.1836 C 147.168 -56.8359 150.684 -53.9551 156.152 -53.9551 Z M 16.0645 -42.627 C 16.0645 -36.8164 20.1172 -32.7637 25.9277 -32.7637 C 31.6895 -32.7637 35.6934 -36.7676 35.6934 -42.627 L 35.6934 -46.5332 C 35.6934 -57.3242 42.8711 -63.916 54.4922 -63.916 L 81.9824 -63.916 L 81.9824 -50.7324 C 81.9824 -46.1914 84.8145 -43.3105 89.3555 -43.3105 C 91.4551 -43.3105 93.1641 -44.043 94.5312 -45.2148 L 121.387 -67.8223 C 124.854 -70.752 124.805 -75.5371 121.387 -78.418 L 94.5312 -101.074 C 93.1641 -102.246 91.4551 -102.979 89.3555 -102.979 C 84.8145 -102.979 81.9824 -100.098 81.9824 -95.5566 L 81.9824 -83.1543 L 55.5176 -83.1543 C 31.0547 -83.1543 16.0645 -70.166 16.0645 -49.0723 Z M 80.1758 -24.6094 C 80.1758 -29.1504 77.3438 -32.0801 72.8516 -32.0801 C 70.752 -32.0801 68.9941 -31.2988 67.627 -30.1758 L 40.7715 -7.51953 C 37.3535 -4.58984 37.3535 0.195312 40.7715 3.07617 L 67.627 25.7324 C 68.9941 26.9043 70.752 27.6367 72.8516 27.6367 C 77.3438 27.6367 80.1758 24.7559 80.1758 20.2148 L 80.1758 7.86133 L 126.074 7.86133 C 150.488 7.86133 165.527 -5.12695 165.527 -26.1719 L 165.527 -32.666 C 165.527 -38.4277 161.475 -42.4805 155.664 -42.4805 C 149.854 -42.4805 145.85 -38.4766 145.85 -32.666 L 145.85 -28.7109 C 145.85 -17.9688 138.672 -11.377 127.1 -11.377 L 80.1758 -11.377 Z"/>
  </g>
  <g id="Bold-L" transform="matrix(1 0 0 1 2251.84 1556)">
   <path d="M 151.904 -52.7344 C 156.738 -52.7344 159.766 -55.3223 159.766 -60.791 L 159.766 -90.625 C 159.766 -96.0449 156.006 -99.6582 150.684 -99.6582 C 146.338 -99.6582 143.555 -98.3398 140.137 -95.8008 L 131.982 -89.6973 C 129.688 -87.9883 128.809 -86.5234 128.809 -84.5215 C 128.809 -81.5918 130.957 -79.4434 134.033 -79.4434 C 135.547 -79.4434 136.621 -79.8828 137.793 -80.8105 L 143.555 -85.4004 L 144.043 -85.4004 L 144.043 -60.791 C 144.043 -55.3223 147.07 -52.7344 151.904 -52.7344 Z M 16.0645 -41.5039 C 16.0645 -36.4746 19.7266 -32.8125 24.707 -32.8125 C 29.7363 -32.8125 33.3496 -36.4258 33.3496 -41.5039 L 33.3496 -45.4102 C 33.3496 -56.1035 40.4785 -62.793 51.7578 -62.793 L 81.0547 -62.793 L 81.0547 -49.6094 C 81.0547 -45.5078 83.6426 -42.9199 87.6953 -42.9199 C 89.5508 -42.9199 91.2109 -43.6035 92.4805 -44.6777 L 118.213 -66.1133 C 121.436 -68.7988 121.387 -73.2422 118.213 -75.9277 L 92.4805 -97.4121 C 91.2109 -98.4863 89.5508 -99.1699 87.6953 -99.1699 C 83.6426 -99.1699 81.0547 -96.582 81.0547 -92.4805 L 81.0547 -79.7363 L 52.9297 -79.7363 C 30.127 -79.7363 16.0645 -67.334 16.0645 -47.4121 Z M 77.9297 -23.9746 C 77.9297 -28.0762 75.3418 -30.6641 71.2891 -30.6641 C 69.3848 -30.6641 67.7734 -29.9805 66.5039 -28.9062 L 40.7715 -7.4707 C 37.5488 -4.78516 37.5488 -0.390625 40.7715 2.34375 L 66.5039 23.8281 C 67.7734 24.9023 69.3848 25.5859 71.2891 25.5859 C 75.3418 25.5859 77.9297 22.998 77.9297 18.8965 L 77.9297 6.15234 L 123.389 6.15234 C 146.143 6.15234 160.205 -6.20117 160.205 -26.1719 L 160.205 -32.0801 C 160.205 -37.1094 156.592 -40.7227 151.562 -40.7227 C 146.533 -40.7227 142.92 -37.1582 142.92 -32.0801 L 142.92 -28.1738 C 142.92 -17.4805 135.791 -10.7422 124.512 -10.7422 L 77.9297 -10.7422 Z"/>
  </g>
  <g id="Semibold-L" transform="matrix(1 0 0 1 1956.94 1556)">
   <path d="M 148.975 -51.9043 C 153.369 -51.9043 156.055 -54.2969 156.055 -59.082 L 156.055 -88.8184 C 156.055 -93.7988 152.686 -97.1191 147.754 -97.1191 C 143.75 -97.1191 141.26 -95.8984 137.988 -93.5059 L 129.932 -87.4023 C 127.93 -85.9375 127.148 -84.5703 127.148 -82.7637 C 127.148 -80.2246 129.053 -78.2715 131.885 -78.2715 C 133.203 -78.2715 134.229 -78.6621 135.352 -79.4922 L 141.406 -84.3262 L 141.846 -84.3262 L 141.846 -59.082 C 141.846 -54.2969 144.531 -51.9043 148.975 -51.9043 Z M 16.0645 -40.7227 C 16.0645 -36.2305 19.4336 -32.8613 23.877 -32.8613 C 28.3691 -32.8613 31.6895 -36.1816 31.6895 -40.7227 L 31.6895 -44.6289 C 31.6895 -55.2734 38.8184 -62.0605 49.9023 -62.0605 L 80.4199 -62.0605 L 80.4199 -48.8281 C 80.4199 -45.0684 82.8125 -42.6758 86.5723 -42.6758 C 88.2812 -42.6758 89.8438 -43.3105 91.0645 -44.3359 L 116.016 -64.9414 C 119.092 -67.4805 119.043 -71.6797 116.016 -74.2188 L 91.0645 -94.8242 C 89.8438 -95.8984 88.2812 -96.4844 86.5723 -96.4844 C 82.8125 -96.4844 80.4199 -94.0918 80.4199 -90.3809 L 80.4199 -77.3926 L 51.123 -77.3926 C 29.4922 -77.3926 16.0645 -65.4297 16.0645 -46.2891 Z M 76.3672 -23.5352 C 76.3672 -27.2949 73.9746 -29.6875 70.2148 -29.6875 C 68.5059 -29.6875 66.9434 -29.0527 65.6738 -28.0273 L 40.7715 -7.42188 C 37.6953 -4.93164 37.6953 -0.732422 40.7715 1.80664 L 65.6738 22.5098 C 66.9434 23.5352 68.5059 24.1211 70.2148 24.1211 C 73.9746 24.1211 76.3672 21.7773 76.3672 18.0176 L 76.3672 4.98047 L 121.533 4.98047 C 143.164 4.98047 156.592 -6.98242 156.592 -26.123 L 156.592 -31.6895 C 156.592 -36.1816 153.223 -39.5508 148.73 -39.5508 C 144.238 -39.5508 140.918 -36.1816 140.918 -31.6895 L 140.918 -27.7832 C 140.918 -17.1387 133.838 -10.3516 122.754 -10.3516 L 76.3672 -10.3516 Z"/>
  </g>
  <g id="Medium-L" transform="matrix(1 0 0 1 1661.62 1556)">
   <path d="M 146.777 -51.2695 C 150.83 -51.2695 153.223 -53.4668 153.223 -57.8613 L 153.223 -87.4512 C 153.223 -92.1387 150.146 -95.2148 145.557 -95.2148 C 141.748 -95.2148 139.502 -94.0918 136.377 -91.748 L 128.369 -85.6934 C 126.611 -84.375 125.928 -83.0566 125.928 -81.4453 C 125.928 -79.1504 127.637 -77.3438 130.273 -77.3438 C 131.445 -77.3438 132.422 -77.7344 133.496 -78.5156 L 139.746 -83.4961 L 140.234 -83.4961 L 140.234 -57.8613 C 140.234 -53.5156 142.676 -51.2695 146.777 -51.2695 Z M 16.0645 -40.0879 C 16.0645 -36.0352 19.1895 -32.9102 23.291 -32.9102 C 27.3438 -32.9102 30.4688 -36.0352 30.4688 -40.0879 L 30.4688 -44.043 C 30.4688 -54.6387 37.5488 -61.4746 48.4863 -61.4746 L 79.9316 -61.4746 L 79.9316 -48.1934 C 79.9316 -44.7266 82.1777 -42.4805 85.6934 -42.4805 C 87.3047 -42.4805 88.8184 -43.0664 89.9902 -44.043 L 114.355 -64.0137 C 117.334 -66.4551 117.236 -70.459 114.355 -72.9004 L 89.9902 -92.9199 C 88.8184 -93.8965 87.3047 -94.4824 85.6934 -94.4824 C 82.1777 -94.4824 79.9316 -92.2363 79.9316 -88.7695 L 79.9316 -75.5859 L 49.7559 -75.5859 C 29.0039 -75.5859 16.0645 -63.9648 16.0645 -45.4102 Z M 75.1465 -23.1934 C 75.1465 -26.709 72.9004 -28.9551 69.3848 -28.9551 C 67.7734 -28.9551 66.3086 -28.3691 65.0879 -27.3438 L 40.7715 -7.42188 C 37.8418 -5.0293 37.793 -1.02539 40.7715 1.41602 L 65.0879 21.4844 C 66.3086 22.4609 67.7734 23.0469 69.3848 23.0469 C 72.9004 23.0469 75.1465 20.8496 75.1465 17.334 L 75.1465 4.05273 L 120.117 4.05273 C 140.869 4.05273 153.809 -7.56836 153.809 -26.123 L 153.809 -31.3965 C 153.809 -35.498 150.684 -38.623 146.582 -38.623 C 142.529 -38.623 139.404 -35.498 139.404 -31.3965 L 139.404 -27.4902 C 139.404 -16.8457 132.324 -10.0586 121.387 -10.0586 L 75.1465 -10.0586 Z"/>
  </g>
  <g id="Regular-L" transform="matrix(1 0 0 1 1366.71 1556)">
   <path d="M 143.896 -50.3906 C 147.51 -50.3906 149.561 -52.4414 149.561 -56.2012 L 149.561 -85.6934 C 149.561 -89.8926 146.875 -92.7246 142.725 -92.7246 C 139.209 -92.7246 137.207 -91.6504 134.277 -89.4531 L 126.318 -83.3984 C 124.902 -82.3242 124.268 -81.1035 124.268 -79.7363 C 124.268 -77.7832 125.732 -76.1719 128.125 -76.1719 C 129.199 -76.1719 130.078 -76.5137 131.055 -77.2461 L 137.646 -82.4219 L 138.086 -82.4219 L 138.086 -56.2012 C 138.086 -52.4902 140.186 -50.3906 143.896 -50.3906 Z M 16.0645 -39.3066 C 16.0645 -35.791 18.8965 -32.9102 22.4609 -32.9102 C 26.0254 -32.9102 28.8574 -35.791 28.8574 -39.3066 L 28.8574 -43.2617 C 28.8574 -53.8086 35.8887 -60.6934 46.6309 -60.6934 L 79.2969 -60.6934 L 79.2969 -47.4609 C 79.2969 -44.2871 81.3477 -42.2363 84.6191 -42.2363 C 86.0352 -42.2363 87.4512 -42.7734 88.5742 -43.7012 L 112.158 -62.8418 C 114.99 -65.1367 114.941 -68.8965 112.158 -71.1914 L 88.5742 -90.3809 C 87.4512 -91.3574 86.0352 -91.8457 84.6191 -91.8457 C 81.3477 -91.8457 79.2969 -89.8438 79.2969 -86.6699 L 79.2969 -73.2422 L 47.998 -73.2422 C 28.3691 -73.2422 16.0645 -62.0117 16.0645 -44.2871 Z M 73.6328 -22.8027 C 73.6328 -25.9277 71.582 -27.9785 68.3105 -27.9785 C 66.8945 -27.9785 65.4785 -27.4414 64.3066 -26.5137 L 40.7227 -7.37305 C 37.9883 -5.17578 37.8906 -1.41602 40.7227 0.927734 L 64.3066 20.166 C 65.4785 21.0938 66.8945 21.6309 68.3105 21.6309 C 71.582 21.6309 73.6328 19.6289 73.6328 16.4551 L 73.6328 2.88086 L 118.262 2.88086 C 137.891 2.88086 150.195 -8.30078 150.195 -26.0742 L 150.195 -31.0059 C 150.195 -34.5703 147.363 -37.4023 143.799 -37.4023 C 140.234 -37.4023 137.402 -34.5703 137.402 -31.0059 L 137.402 -27.0996 C 137.402 -16.5039 130.371 -9.66797 119.629 -9.66797 L 73.6328 -9.66797 Z"/>
  </g>
  <g id="Light-L" transform="matrix(1 0 0 1 1072.42 1556)">
   <path d="M 139.795 -50.293 C 143.018 -50.293 144.971 -52.1973 144.971 -55.5176 L 144.971 -85.3027 C 144.971 -89.1113 142.529 -91.6016 138.721 -91.6016 C 135.547 -91.6016 133.691 -90.7227 130.811 -88.623 L 122.949 -82.8125 C 121.533 -81.7871 120.898 -80.7129 120.898 -79.3457 C 120.898 -77.4414 122.314 -75.9277 124.463 -75.9277 C 125.537 -75.9277 126.318 -76.2207 127.344 -77.002 L 134.131 -82.1289 L 134.473 -82.1289 L 134.473 -55.5176 C 134.473 -52.2461 136.475 -50.293 139.795 -50.293 Z M 16.0645 -38.7695 C 16.0645 -35.6445 18.6035 -33.1055 21.7285 -33.1055 C 24.8535 -33.1055 27.3926 -35.6445 27.3926 -38.7695 L 27.3926 -42.3828 C 27.3926 -53.7109 34.5703 -60.8887 45.8984 -60.8887 L 76.6602 -60.8887 L 76.6602 -47.5586 C 76.6602 -44.6777 78.5645 -42.8711 81.4941 -42.8711 C 82.8125 -42.8711 84.0332 -43.3105 85.1562 -44.1895 L 108.398 -62.5977 C 111.182 -64.8438 111.084 -68.6035 108.398 -70.752 L 85.1562 -89.209 C 84.0332 -90.0879 82.8125 -90.5273 81.4941 -90.5273 C 78.5645 -90.5273 76.6602 -88.7207 76.6602 -85.8398 L 76.6602 -71.9238 L 47.2656 -71.9238 C 27.9785 -71.9238 16.0645 -61.0352 16.0645 -43.4082 Z M 71.582 -22.6562 C 71.582 -25.5371 69.6777 -27.3438 66.748 -27.3438 C 65.4297 -27.3438 64.209 -26.9043 63.1348 -26.0254 L 39.8926 -7.66602 C 37.207 -5.51758 37.0605 -1.75781 39.8926 0.488281 L 63.1348 18.9941 C 64.209 19.873 65.4297 20.3125 66.748 20.3125 C 69.6777 20.3125 71.582 18.5059 71.582 15.625 L 71.582 1.5625 L 114.16 1.5625 C 133.496 1.5625 145.361 -9.32617 145.361 -26.9531 L 145.361 -31.543 C 145.361 -34.668 142.822 -37.207 139.697 -37.207 C 136.572 -37.207 134.033 -34.668 134.033 -31.543 L 134.033 -27.9297 C 134.033 -16.6016 126.855 -9.42383 115.527 -9.42383 L 71.582 -9.42383 Z"/>
  </g>
  <g id="Thin-L" transform="matrix(1 0 0 1 778.908 1556)">
   <path d="M 134.375 -50.0977 C 137.061 -50.0977 138.867 -51.8555 138.867 -54.6387 L 138.867 -84.7656 C 138.867 -88.0859 136.768 -90.1855 133.447 -90.1855 C 130.664 -90.1855 129.004 -89.502 126.27 -87.5 L 118.506 -82.0312 C 117.139 -81.0547 116.406 -80.127 116.406 -78.7598 C 116.406 -76.9531 117.725 -75.6348 119.678 -75.6348 C 120.703 -75.6348 121.387 -75.8789 122.461 -76.709 L 129.492 -81.6895 L 129.688 -81.6895 L 129.688 -54.6387 C 129.688 -51.9043 131.592 -50.0977 134.375 -50.0977 Z M 16.0645 -38.0371 C 16.0645 -35.498 18.2129 -33.3496 20.752 -33.3496 C 23.3398 -33.3496 25.4395 -35.498 25.4395 -38.0371 L 25.4395 -41.2109 C 25.4395 -53.5645 32.8613 -61.1816 44.873 -61.1816 L 73.1934 -61.1816 L 73.1934 -47.7051 C 73.1934 -45.2637 74.9023 -43.6523 77.3926 -43.6523 C 78.5645 -43.6523 79.541 -43.9941 80.5664 -44.8242 L 103.369 -62.3047 C 106.104 -64.4043 105.957 -68.2617 103.369 -70.2148 L 80.5664 -87.6465 C 79.541 -88.4766 78.5645 -88.8184 77.3926 -88.8184 C 74.9023 -88.8184 73.1934 -87.207 73.1934 -84.7656 L 73.1934 -70.166 L 46.3379 -70.166 C 27.3926 -70.166 16.0645 -59.668 16.0645 -42.2363 Z M 68.8965 -22.5098 C 68.8965 -24.9512 67.2363 -26.5625 64.6973 -26.5625 C 63.5254 -26.5625 62.5977 -26.2207 61.5234 -25.3906 L 38.7207 -8.00781 C 36.1328 -6.00586 35.9863 -2.19727 38.7207 -0.0488281 L 61.5234 17.4316 C 62.5977 18.2617 63.5254 18.6035 64.6973 18.6035 C 67.2363 18.6035 68.8965 16.9922 68.8965 14.5508 L 68.8965 -0.146484 L 108.74 -0.146484 C 127.637 -0.146484 138.965 -10.6445 138.965 -28.0762 L 138.965 -32.2754 C 138.965 -34.8145 136.865 -36.9629 134.277 -36.9629 C 131.738 -36.9629 129.59 -34.8145 129.59 -32.2754 L 129.59 -29.1016 C 129.59 -16.748 122.168 -9.13086 110.156 -9.13086 L 68.8965 -9.13086 Z"/>
  </g>
  <g id="Ultralight-L" transform="matrix(1 0 0 1 483.832 1556)">
   <path d="M 131.592 -50.0488 C 134.033 -50.0488 135.791 -51.6602 135.791 -54.1992 L 135.791 -84.5215 C 135.791 -87.5 133.838 -89.4531 130.762 -89.4531 C 128.174 -89.4531 126.611 -88.8672 123.926 -86.9629 L 116.211 -81.6406 C 114.893 -80.7129 114.111 -79.834 114.111 -78.4668 C 114.111 -76.709 115.381 -75.4883 117.188 -75.4883 C 118.213 -75.4883 118.848 -75.7324 119.971 -76.5137 L 127.1 -81.4941 L 127.246 -81.4941 L 127.246 -54.1992 C 127.246 -51.7578 129.053 -50.0488 131.592 -50.0488 Z M 16.0645 -37.6465 C 16.0645 -35.4004 17.9688 -33.4961 20.2637 -33.4961 C 22.5586 -33.4961 24.4629 -35.4004 24.4629 -37.6465 L 24.4629 -40.625 C 24.4629 -53.4668 31.9824 -61.3281 44.3848 -61.3281 L 71.4355 -61.3281 L 71.4355 -47.7539 C 71.4355 -45.5566 72.998 -44.0918 75.293 -44.0918 C 76.3672 -44.0918 77.1973 -44.3848 78.2227 -45.166 L 100.83 -62.1094 C 103.516 -64.209 103.369 -68.0664 100.83 -69.9707 L 78.2227 -86.8164 C 77.1973 -87.5977 76.3672 -87.9395 75.293 -87.9395 C 72.998 -87.9395 71.4355 -86.4258 71.4355 -84.2285 L 71.4355 -69.2383 L 45.8496 -69.2383 C 27.0996 -69.2383 16.0645 -58.9844 16.0645 -41.6504 Z M 67.5293 -22.4609 C 67.5293 -24.6582 65.9668 -26.123 63.6719 -26.123 C 62.5977 -26.123 61.7676 -25.8301 60.7422 -25.0488 L 38.1348 -8.1543 C 35.5957 -6.29883 35.4492 -2.39258 38.1348 -0.341797 L 60.7422 16.6016 C 61.7676 17.3828 62.5977 17.6758 63.6719 17.6758 C 65.9668 17.6758 67.5293 16.2109 67.5293 14.0137 L 67.5293 -1.02539 L 105.908 -1.02539 C 124.658 -1.02539 135.693 -11.3281 135.693 -28.6133 L 135.693 -32.6172 C 135.693 -34.9121 133.789 -36.8164 131.494 -36.8164 C 129.248 -36.8164 127.344 -34.9121 127.344 -32.6172 L 127.344 -29.6875 C 127.344 -16.7969 119.775 -8.98438 107.373 -8.98438 L 67.5293 -8.98438 Z"/>
  </g>
  <g id="Black-M" transform="matrix(1 0 0 1 2859.3 1126)">
   <path d="M 126.855 -52.002 C 132.129 -52.002 135.742 -54.7363 135.742 -61.1328 L 135.742 -84.9121 C 135.742 -90.5762 131.543 -94.4336 125.879 -94.4336 C 121.484 -94.4336 118.311 -93.0176 115.088 -90.7227 L 108.496 -86.0352 C 105.469 -83.8867 104.492 -82.373 104.492 -79.9316 C 104.492 -76.3184 106.982 -74.0723 110.205 -74.0723 C 112.012 -74.0723 113.135 -74.5117 114.355 -75.4395 L 117.725 -78.0762 L 118.066 -78.0762 L 118.066 -61.1328 C 118.066 -54.7363 121.631 -52.002 126.855 -52.002 Z M 12.4512 -42.8223 C 12.4512 -37.1094 16.2109 -33.3496 21.9238 -33.3496 C 27.6855 -33.3496 31.3965 -37.0117 31.3965 -42.8223 L 31.3965 -45.7031 C 31.3965 -54.5898 37.1094 -59.668 46.9727 -59.668 L 63.916 -59.668 L 63.916 -49.4629 C 63.916 -45.2148 66.5527 -42.4805 70.7031 -42.4805 C 72.7051 -42.4805 74.1211 -43.1641 75.3418 -44.1895 L 98.0957 -63.6719 C 101.172 -66.3086 101.123 -70.7031 98.0957 -73.2422 L 75.3418 -92.6758 C 74.1211 -93.6523 72.7051 -94.3359 70.7031 -94.3359 C 66.5527 -94.3359 63.916 -91.6504 63.916 -87.4023 L 63.916 -78.1738 L 47.5586 -78.1738 C 25.6348 -78.1738 12.4512 -67.0898 12.4512 -48.6816 Z M 65.3809 -28.1738 C 65.3809 -32.4219 62.7441 -35.1074 58.5938 -35.1074 C 56.5918 -35.1074 55.127 -34.4238 53.9551 -33.4473 L 31.1523 -13.9648 C 28.0762 -11.3281 28.1738 -6.93359 31.1523 -4.3457 L 53.9551 15.0391 C 55.127 16.0645 56.5918 16.748 58.5938 16.748 C 62.7441 16.748 65.3809 14.0625 65.3809 9.76562 L 65.3809 0.732422 L 100.586 0.732422 C 122.559 0.732422 135.742 -10.3516 135.742 -28.7598 L 135.742 -34.5703 C 135.742 -40.332 131.982 -44.0918 126.221 -44.0918 C 120.508 -44.0918 116.797 -40.3809 116.797 -34.5703 L 116.797 -31.7383 C 116.797 -22.8516 111.035 -17.7246 101.221 -17.7246 L 65.3809 -17.7246 Z"/>
  </g>
  <g id="Heavy-M" transform="matrix(1 0 0 1 2564.55 1126)">
   <path d="M 123.779 -50.8301 C 128.564 -50.8301 131.689 -53.3203 131.689 -58.9355 L 131.689 -82.4707 C 131.689 -87.6465 127.93 -91.1133 122.803 -91.1133 C 118.75 -91.1133 115.967 -89.8438 112.939 -87.6465 L 106.445 -82.959 C 103.857 -81.1035 102.979 -79.7363 102.979 -77.5879 C 102.979 -74.4629 105.225 -72.4121 108.105 -72.4121 C 109.717 -72.4121 110.742 -72.8027 111.816 -73.6816 L 115.625 -76.6602 L 115.918 -76.6602 L 115.918 -58.9355 C 115.918 -53.3203 119.092 -50.8301 123.779 -50.8301 Z M 12.4512 -41.8457 C 12.4512 -36.7676 15.8691 -33.3496 20.9961 -33.3496 C 26.0742 -33.3496 29.4434 -36.7188 29.4434 -41.8457 L 29.4434 -44.8242 C 29.4434 -53.418 35.1074 -58.5449 44.5312 -58.5449 L 63.6719 -58.5449 L 63.6719 -48.3398 C 63.6719 -44.4336 66.1133 -41.9922 69.873 -41.9922 C 71.7285 -41.9922 73.0957 -42.627 74.2188 -43.5547 L 95.9961 -62.0117 C 98.8281 -64.4531 98.7793 -68.5059 95.9961 -70.8984 L 74.2188 -89.3555 C 73.0957 -90.2832 71.7285 -90.918 69.873 -90.918 C 66.1133 -90.918 63.6719 -88.4766 63.6719 -84.5703 L 63.6719 -75.1465 L 45.2148 -75.1465 C 24.8047 -75.1465 12.4512 -64.5996 12.4512 -47.2656 Z M 63.6719 -27.5391 C 63.6719 -31.4453 61.2793 -33.8867 57.4707 -33.8867 C 55.6641 -33.8867 54.248 -33.252 53.125 -32.3242 L 31.3965 -13.8672 C 28.5156 -11.4258 28.5645 -7.37305 31.3965 -4.98047 L 53.125 13.4766 C 54.248 14.4043 55.6641 15.0391 57.4707 15.0391 C 61.2793 15.0391 63.6719 12.5977 63.6719 8.69141 L 63.6719 -0.585938 L 99.0234 -0.585938 C 119.434 -0.585938 131.836 -11.1328 131.836 -28.5156 L 131.836 -33.8867 C 131.836 -38.9648 128.369 -42.4316 123.291 -42.4316 C 118.213 -42.4316 114.795 -39.0137 114.795 -33.8867 L 114.795 -30.957 C 114.795 -22.3145 109.18 -17.2363 99.7559 -17.2363 L 63.6719 -17.2363 Z"/>
  </g>
  <g id="Bold-M" transform="matrix(1 0 0 1 2270.03 1126)">
   <path d="M 120.361 -49.5605 C 124.512 -49.5605 127.148 -51.709 127.148 -56.4941 L 127.148 -79.7363 C 127.148 -84.3262 123.926 -87.4023 119.385 -87.4023 C 115.723 -87.4023 113.33 -86.2793 110.547 -84.2285 L 104.15 -79.4922 C 102.1 -77.9785 101.367 -76.709 101.367 -74.9512 C 101.367 -72.3633 103.223 -70.5566 105.811 -70.5566 C 107.129 -70.5566 108.057 -70.9473 109.033 -71.6797 L 113.184 -75.0488 L 113.574 -75.0488 L 113.574 -56.4941 C 113.574 -51.709 116.211 -49.5605 120.361 -49.5605 Z M 12.4512 -40.7715 C 12.4512 -36.4258 15.5273 -33.3496 19.873 -33.3496 C 24.2676 -33.3496 27.2949 -36.377 27.2949 -40.7715 L 27.2949 -43.7988 C 27.2949 -52.1484 32.8613 -57.2754 41.748 -57.2754 L 63.4277 -57.2754 L 63.4277 -47.0215 C 63.4277 -43.6035 65.5762 -41.4062 68.9941 -41.4062 C 70.6055 -41.4062 71.9238 -41.9922 72.998 -42.8711 L 93.6035 -60.2051 C 96.2402 -62.4512 96.1914 -66.0645 93.6035 -68.3105 L 72.998 -85.6445 C 71.9238 -86.5234 70.6055 -87.1094 68.9941 -87.1094 C 65.5762 -87.1094 63.4277 -84.9121 63.4277 -81.4453 L 63.4277 -71.8262 L 42.5781 -71.8262 C 23.9258 -71.8262 12.4512 -61.8164 12.4512 -45.7031 Z M 61.7676 -26.9043 C 61.7676 -30.3711 59.6191 -32.5195 56.2012 -32.5195 C 54.6387 -32.5195 53.2715 -31.9824 52.2461 -31.1035 L 31.6406 -13.7207 C 29.0039 -11.5234 29.0039 -7.86133 31.6406 -5.66406 L 52.2461 11.7188 C 53.2715 12.5977 54.6387 13.1836 56.2012 13.1836 C 59.6191 13.1836 61.7676 10.9863 61.7676 7.51953 L 61.7676 -2.09961 L 97.3145 -2.09961 C 115.967 -2.09961 127.441 -12.0605 127.441 -28.2227 L 127.441 -33.1055 C 127.441 -37.5 124.365 -40.5762 120.02 -40.5762 C 115.625 -40.5762 112.598 -37.5 112.598 -33.1055 L 112.598 -30.0781 C 112.598 -21.7773 107.031 -16.6504 98.1445 -16.6504 L 61.7676 -16.6504 Z"/>
  </g>
  <g id="Semibold-M" transform="matrix(1 0 0 1 1974.83 1126)">
   <path d="M 117.969 -48.6328 C 121.729 -48.6328 124.023 -50.6348 124.023 -54.7852 L 124.023 -77.832 C 124.023 -82.0312 121.143 -84.8633 116.992 -84.8633 C 113.623 -84.8633 111.523 -83.7891 108.887 -81.8359 L 102.588 -77.0996 C 100.83 -75.7812 100.195 -74.6582 100.195 -73.1445 C 100.195 -70.9473 101.807 -69.2871 104.199 -69.2871 C 105.322 -69.2871 106.201 -69.6289 107.08 -70.3125 L 111.572 -73.9258 L 111.914 -73.9258 L 111.914 -54.7852 C 111.914 -50.6348 114.209 -48.6328 117.969 -48.6328 Z M 12.4512 -40.0391 C 12.4512 -36.1816 15.2832 -33.3496 19.1406 -33.3496 C 22.998 -33.3496 25.8301 -36.1328 25.8301 -40.0391 L 25.8301 -43.1641 C 25.8301 -51.2695 31.2988 -56.3965 39.8926 -56.3965 L 63.2324 -56.3965 L 63.2324 -46.1426 C 63.2324 -43.0176 65.2344 -41.0156 68.4082 -41.0156 C 69.8242 -41.0156 71.1426 -41.5527 72.1191 -42.3828 L 91.9434 -58.9844 C 94.4336 -61.0352 94.3848 -64.4043 91.9434 -66.5039 L 72.1191 -83.1055 C 71.1426 -83.9355 69.8242 -84.4727 68.4082 -84.4727 C 65.2344 -84.4727 63.2324 -82.4707 63.2324 -79.2969 L 63.2324 -69.4824 L 40.7715 -69.4824 C 23.291 -69.4824 12.4512 -59.9121 12.4512 -44.6289 Z M 60.498 -26.4648 C 60.498 -29.5898 58.4961 -31.5918 55.3223 -31.5918 C 53.9062 -31.5918 52.6367 -31.0547 51.6113 -30.2246 L 31.7871 -13.6719 C 29.2969 -11.5723 29.2969 -8.20312 31.7871 -6.15234 L 51.6113 10.498 C 52.6367 11.3281 53.9062 11.8652 55.3223 11.8652 C 58.4961 11.8652 60.498 9.86328 60.498 6.68945 L 60.498 -3.125 L 96.0938 -3.125 C 113.574 -3.125 124.414 -12.6953 124.414 -28.0273 L 124.414 -32.6172 C 124.414 -36.4746 121.582 -39.3066 117.725 -39.3066 C 113.867 -39.3066 111.084 -36.4746 111.084 -32.6172 L 111.084 -29.4922 C 111.084 -21.3867 105.566 -16.2109 97.0215 -16.2109 L 60.498 -16.2109 Z"/>
  </g>
  <g id="Medium-M" transform="matrix(1 0 0 1 1679.25 1126)">
   <path d="M 116.211 -47.9492 C 119.629 -47.9492 121.631 -49.8047 121.631 -53.5156 L 121.631 -76.416 C 121.631 -80.3223 119.043 -82.9102 115.186 -82.9102 C 112.061 -82.9102 110.156 -81.9336 107.666 -80.0781 L 101.367 -75.293 C 99.9023 -74.1699 99.3652 -73.0957 99.3652 -71.7773 C 99.3652 -69.8242 100.781 -68.3105 102.979 -68.3105 C 103.955 -68.3105 104.785 -68.6523 105.615 -69.2871 L 110.303 -73.0957 L 110.693 -73.0957 L 110.693 -53.5156 C 110.693 -49.8047 112.744 -47.9492 116.211 -47.9492 Z M 12.4512 -39.4531 C 12.4512 -35.9863 15.0879 -33.3496 18.5547 -33.3496 C 22.0703 -33.3496 24.6582 -35.9863 24.6582 -39.4531 L 24.6582 -42.627 C 24.6582 -50.5859 30.127 -55.7129 38.4277 -55.7129 L 63.1348 -55.7129 L 63.1348 -45.5078 C 63.1348 -42.5781 64.9902 -40.7227 67.9199 -40.7227 C 69.2383 -40.7227 70.5078 -41.2109 71.4844 -41.9922 L 90.7227 -58.0078 C 93.0664 -59.9609 93.0664 -63.1348 90.7227 -65.0879 L 71.4844 -81.1523 C 70.5078 -81.9824 69.2383 -82.4707 67.9199 -82.4707 C 64.9902 -82.4707 63.1348 -80.6152 63.1348 -77.6855 L 63.1348 -67.7246 L 39.4043 -67.7246 C 22.8516 -67.7246 12.4512 -58.4961 12.4512 -43.7988 Z M 59.4727 -26.0742 C 59.4727 -29.0039 57.6172 -30.9082 54.6875 -30.9082 C 53.3691 -30.9082 52.0996 -30.3711 51.123 -29.5898 L 31.9336 -13.5742 C 29.541 -11.6699 29.541 -8.49609 31.9336 -6.49414 L 51.123 9.57031 C 52.0996 10.4004 53.3691 10.8887 54.6875 10.8887 C 57.6172 10.8887 59.4727 9.0332 59.4727 6.10352 L 59.4727 -3.90625 L 95.2148 -3.90625 C 111.768 -3.90625 122.119 -13.1836 122.119 -27.832 L 122.119 -32.1777 C 122.119 -35.6934 119.482 -38.3301 116.016 -38.3301 C 112.549 -38.3301 109.912 -35.6934 109.912 -32.1777 L 109.912 -29.0039 C 109.912 -21.0938 104.492 -15.918 96.1426 -15.918 L 59.4727 -15.918 Z"/>
  </g>
  <g id="Regular-M" transform="matrix(1 0 0 1 1384.05 1126)">
   <path d="M 113.818 -47.0703 C 116.846 -47.0703 118.506 -48.7305 118.506 -51.8555 L 118.506 -74.5605 C 118.506 -78.0762 116.26 -80.4199 112.842 -80.4199 C 109.961 -80.4199 108.35 -79.4922 106.006 -77.7344 L 99.8047 -72.9004 C 98.6816 -72.0215 98.2422 -71.0449 98.2422 -69.9707 C 98.2422 -68.4082 99.4141 -67.0898 101.367 -67.0898 C 102.197 -67.0898 102.93 -67.334 103.662 -67.9199 L 108.643 -71.9727 L 109.082 -71.9727 L 109.082 -51.8555 C 109.082 -48.7305 110.742 -47.0703 113.818 -47.0703 Z M 12.4512 -38.7207 C 12.4512 -35.7422 14.8438 -33.3496 17.8223 -33.3496 C 20.8008 -33.3496 23.1934 -35.7422 23.1934 -38.7207 L 23.1934 -41.9434 C 23.1934 -49.707 28.5645 -54.834 36.5723 -54.834 L 62.9395 -54.834 L 62.9395 -44.6289 C 62.9395 -41.9922 64.6484 -40.332 67.334 -40.332 C 68.5059 -40.332 69.7266 -40.7715 70.6055 -41.5527 L 89.0625 -56.7871 C 91.3086 -58.5938 91.2598 -61.4746 89.0625 -63.3301 L 70.6055 -78.6621 C 69.7266 -79.3945 68.5059 -79.8828 67.334 -79.8828 C 64.6484 -79.8828 62.9395 -78.1738 62.9395 -75.5371 L 62.9395 -65.4297 L 37.5977 -65.4297 C 22.2168 -65.4297 12.4512 -56.5918 12.4512 -42.7246 Z M 58.2031 -25.6348 C 58.2031 -28.2715 56.543 -29.9316 53.8086 -29.9316 C 52.6367 -29.9316 51.416 -29.4922 50.5371 -28.7598 L 32.0801 -13.5254 C 29.8828 -11.7188 29.834 -8.83789 32.0801 -6.98242 L 50.5371 8.34961 C 51.416 9.13086 52.6367 9.57031 53.8086 9.57031 C 56.543 9.57031 58.2031 7.91016 58.2031 5.27344 L 58.2031 -4.93164 L 93.9941 -4.93164 C 109.375 -4.93164 119.141 -13.8184 119.141 -27.6367 L 119.141 -31.6406 C 119.141 -34.668 116.748 -37.0605 113.77 -37.0605 C 110.791 -37.0605 108.398 -34.668 108.398 -31.6406 L 108.398 -28.418 C 108.398 -20.7031 103.027 -15.5273 95.0195 -15.5273 L 58.2031 -15.5273 Z"/>
  </g>
  <g id="Light-M" transform="matrix(1 0 0 1 1089.49 1126)">
   <path d="M 110.156 -46.9727 C 112.842 -46.9727 114.404 -48.4863 114.404 -51.2695 L 114.404 -74.2188 C 114.404 -77.3438 112.402 -79.3945 109.277 -79.3945 C 106.689 -79.3945 105.176 -78.6621 102.93 -76.9531 L 96.7773 -72.3633 C 95.7031 -71.5332 95.2148 -70.6543 95.2148 -69.5801 C 95.2148 -68.1152 96.3379 -66.8945 98.0957 -66.8945 C 98.9258 -66.8945 99.5605 -67.1387 100.342 -67.7246 L 105.518 -71.7285 L 105.811 -71.7285 L 105.811 -51.2695 C 105.811 -48.5352 107.422 -46.9727 110.156 -46.9727 Z M 12.4512 -38.2324 C 12.4512 -35.5957 14.5508 -33.4961 17.1875 -33.4961 C 19.7754 -33.4961 21.875 -35.5957 21.875 -38.2324 L 21.875 -41.1621 C 21.875 -49.6094 27.3926 -55.0293 35.8887 -55.0293 L 60.5957 -55.0293 L 60.5957 -44.7266 C 60.5957 -42.3828 62.1094 -40.8691 64.5508 -40.8691 C 65.625 -40.8691 66.6504 -41.2598 67.5293 -41.9434 L 85.6934 -56.543 C 87.8418 -58.3008 87.793 -61.2305 85.6934 -62.9395 L 67.5293 -77.5879 C 66.6504 -78.3203 65.625 -78.6621 64.5508 -78.6621 C 62.1094 -78.6621 60.5957 -77.1973 60.5957 -74.8047 L 60.5957 -64.2578 L 36.9629 -64.2578 C 21.875 -64.2578 12.4512 -55.6641 12.4512 -41.9434 Z M 56.3965 -25.5371 C 56.3965 -27.8809 54.834 -29.3945 52.4414 -29.3945 C 51.3672 -29.3945 50.3418 -29.0039 49.4629 -28.3203 L 31.2988 -13.7207 C 29.1504 -12.0605 29.1016 -9.13086 31.2988 -7.32422 L 49.4629 7.32422 C 50.3418 8.05664 51.3672 8.39844 52.4414 8.39844 C 54.834 8.39844 56.3965 6.88477 56.3965 4.54102 L 56.3965 -6.10352 L 90.332 -6.10352 C 105.42 -6.10352 114.795 -14.6973 114.795 -28.418 L 114.795 -32.1289 C 114.795 -34.7656 112.695 -36.8652 110.107 -36.8652 C 107.471 -36.8652 105.371 -34.7656 105.371 -32.1289 L 105.371 -29.1992 C 105.371 -20.752 99.8535 -15.332 91.3574 -15.332 L 56.3965 -15.332 Z"/>
  </g>
  <g id="Thin-M" transform="matrix(1 0 0 1 795.631 1126)">
   <path d="M 105.273 -46.7773 C 107.52 -46.7773 108.936 -48.1934 108.936 -50.4883 L 108.936 -73.7305 C 108.936 -76.416 107.227 -78.125 104.541 -78.125 C 102.295 -78.125 100.977 -77.5391 98.8281 -75.9766 L 92.7734 -71.6797 C 91.748 -70.8984 91.1621 -70.166 91.1621 -69.0918 C 91.1621 -67.6758 92.2363 -66.6016 93.75 -66.6016 C 94.5801 -66.6016 95.1172 -66.7969 95.9473 -67.4316 L 101.367 -71.3379 L 101.562 -71.3379 L 101.562 -50.4883 C 101.562 -48.2422 103.027 -46.7773 105.273 -46.7773 Z M 12.4512 -37.5488 C 12.4512 -35.4492 14.209 -33.7402 16.3086 -33.7402 C 18.4082 -33.7402 20.1172 -35.4492 20.1172 -37.5488 L 20.1172 -40.1367 C 20.1172 -49.4629 25.8301 -55.2734 35.0098 -55.2734 L 57.4707 -55.2734 L 57.4707 -44.873 C 57.4707 -42.8711 58.8379 -41.6016 60.8887 -41.6016 C 61.8164 -41.6016 62.5977 -41.8945 63.4277 -42.5293 L 81.2012 -56.25 C 83.3496 -57.959 83.2031 -60.8887 81.2012 -62.4512 L 63.4277 -76.1719 C 62.5977 -76.8555 61.8164 -77.1484 60.8887 -77.1484 C 58.8379 -77.1484 57.4707 -75.8301 57.4707 -73.877 L 57.4707 -62.6953 L 36.084 -62.6953 C 21.3379 -62.6953 12.4512 -54.4434 12.4512 -40.918 Z M 53.9551 -25.3906 C 53.9551 -27.3926 52.6367 -28.6621 50.5859 -28.6621 C 49.6582 -28.6621 48.877 -28.3691 48.0469 -27.7344 L 30.2734 -14.0625 C 28.2227 -12.5 28.125 -9.52148 30.2734 -7.86133 L 48.0469 5.9082 C 48.877 6.54297 49.6582 6.83594 50.5859 6.83594 C 52.6367 6.83594 53.9551 5.56641 53.9551 3.56445 L 53.9551 -7.66602 L 85.4492 -7.66602 C 100.195 -7.66602 109.082 -15.8691 109.082 -29.4434 L 109.082 -32.7637 C 109.082 -34.8633 107.324 -36.6211 105.225 -36.6211 C 103.125 -36.6211 101.416 -34.8633 101.416 -32.7637 L 101.416 -30.2246 C 101.416 -20.8984 95.7031 -15.0879 86.5234 -15.0879 L 53.9551 -15.0879 Z"/>
  </g>
  <g id="Ultralight-M" transform="matrix(1 0 0 1 500.385 1126)">
   <path d="M 102.783 -46.7285 C 104.785 -46.7285 106.152 -48.0469 106.152 -50.0488 L 106.152 -73.4863 C 106.152 -75.9277 104.59 -77.4414 102.148 -77.4414 C 100.098 -77.4414 98.8281 -76.9531 96.7285 -75.4883 L 90.7715 -71.3379 C 89.6973 -70.5566 89.1113 -69.873 89.1113 -68.8477 C 89.1113 -67.4805 90.1367 -66.4551 91.5527 -66.4551 C 92.334 -66.4551 92.8711 -66.6504 93.75 -67.2852 L 99.2188 -71.1426 L 99.3164 -71.1426 L 99.3164 -50.0488 C 99.3164 -48.0957 100.781 -46.7285 102.783 -46.7285 Z M 12.4512 -37.207 C 12.4512 -35.4004 14.0137 -33.8379 15.8203 -33.8379 C 17.6758 -33.8379 19.2383 -35.4004 19.2383 -37.207 L 19.2383 -39.5996 C 19.2383 -49.4141 25.0488 -55.4199 34.5215 -55.4199 L 55.9082 -55.4199 L 55.9082 -44.9219 C 55.9082 -43.1152 57.1289 -41.9434 58.9844 -41.9434 C 59.8633 -41.9434 60.498 -42.1875 61.3281 -42.8223 L 78.9062 -56.1035 C 81.0059 -57.7637 80.8594 -60.7422 78.9062 -62.207 L 61.3281 -75.4395 C 60.498 -76.0742 59.8633 -76.3184 58.9844 -76.3184 C 57.1289 -76.3184 55.9082 -75.1465 55.9082 -73.3398 L 55.9082 -61.8652 L 35.6445 -61.8652 C 21.0938 -61.8652 12.4512 -53.8574 12.4512 -40.3809 Z M 52.7344 -25.3418 C 52.7344 -27.1484 51.5137 -28.3203 49.6582 -28.3203 C 48.7793 -28.3203 48.0957 -28.0762 47.3145 -27.4414 L 29.7363 -14.209 C 27.7344 -12.6953 27.6367 -9.7168 29.7363 -8.10547 L 47.3145 5.17578 C 48.0957 5.81055 48.7793 6.05469 49.6582 6.05469 C 51.5137 6.05469 52.7344 4.88281 52.7344 3.07617 L 52.7344 -8.44727 L 82.9102 -8.44727 C 97.5098 -8.44727 106.152 -16.5039 106.152 -29.9316 L 106.152 -33.1055 C 106.152 -34.9609 104.59 -36.4746 102.734 -36.4746 C 100.879 -36.4746 99.3652 -34.9609 99.3652 -33.1055 L 99.3652 -30.7617 C 99.3652 -20.9473 93.5547 -14.9414 84.0332 -14.9414 L 52.7344 -14.9414 Z"/>
  </g>
  <g id="Black-S" transform="matrix(1 0 0 1 2875.47 696)">
   <path d="M 99.2188 -48.291 C 103.32 -48.291 106.104 -50.3906 106.104 -55.3711 L 106.104 -73.9746 C 106.104 -78.3691 102.832 -81.3477 98.4375 -81.3477 C 95.0195 -81.3477 92.5781 -80.2734 90.0391 -78.4668 L 84.9121 -74.8047 C 82.5684 -73.1445 81.7871 -71.9727 81.7871 -70.0684 C 81.7871 -67.2852 83.7402 -65.5273 86.2305 -65.5273 C 87.6465 -65.5273 88.5254 -65.8691 89.4531 -66.6016 L 92.1387 -68.7012 L 92.3828 -68.7012 L 92.3828 -55.3711 C 92.3828 -50.3906 95.166 -48.291 99.2188 -48.291 Z M 9.76562 -41.1133 C 9.76562 -36.6699 12.6953 -33.7402 17.1387 -33.7402 C 21.582 -33.7402 24.4629 -36.6211 24.4629 -41.1133 L 24.4629 -43.3594 C 24.4629 -50.293 28.9551 -54.2969 36.6211 -54.2969 L 50.0977 -54.2969 L 50.0977 -46.2891 C 50.0977 -42.9688 52.1484 -40.8691 55.3711 -40.8691 C 56.9336 -40.8691 58.0566 -41.4062 58.9844 -42.1875 L 76.7578 -57.373 C 79.1504 -59.4238 79.1016 -62.8418 76.7578 -64.8438 L 58.9844 -79.9805 C 58.0566 -80.7617 56.9336 -81.2988 55.3711 -81.2988 C 52.1484 -81.2988 50.0977 -79.1992 50.0977 -75.8789 L 50.0977 -68.6523 L 37.1094 -68.6523 C 20.0195 -68.6523 9.76562 -60.0098 9.76562 -45.6543 Z M 51.123 -29.6387 C 51.123 -32.959 49.0723 -35.0586 45.8496 -35.0586 C 44.2871 -35.0586 43.1641 -34.5215 42.2363 -33.7402 L 24.4629 -18.5547 C 22.0703 -16.5039 22.1191 -13.0859 24.4629 -11.084 L 42.2363 4.05273 C 43.1641 4.83398 44.2871 5.37109 45.8496 5.37109 C 49.0723 5.37109 51.123 3.27148 51.123 -0.0488281 L 51.123 -7.12891 L 78.7598 -7.12891 C 95.8496 -7.12891 106.104 -15.7715 106.104 -30.127 L 106.104 -34.668 C 106.104 -39.1113 103.174 -42.041 98.7305 -42.041 C 94.2871 -42.041 91.4062 -39.1602 91.4062 -34.668 L 91.4062 -32.4219 C 91.4062 -25.4883 86.9141 -21.4844 79.248 -21.4844 L 51.123 -21.4844 Z"/>
  </g>
  <g id="Heavy-S" transform="matrix(1 0 0 1 2580 696)">
   <path d="M 97.2656 -47.4121 C 101.025 -47.4121 103.467 -49.3164 103.467 -53.7598 L 103.467 -72.1191 C 103.467 -76.1719 100.488 -78.9062 96.4844 -78.9062 C 93.3105 -78.9062 91.1133 -77.9297 88.7695 -76.2207 L 83.6914 -72.5098 C 81.6895 -71.0449 81.0059 -69.9707 81.0059 -68.3105 C 81.0059 -65.8691 82.7148 -64.3066 85.0098 -64.3066 C 86.2305 -64.3066 87.0605 -64.5996 87.8906 -65.2832 L 90.8691 -67.627 L 91.1133 -67.627 L 91.1133 -53.7598 C 91.1133 -49.3164 93.5547 -47.4121 97.2656 -47.4121 Z M 9.76562 -40.4297 C 9.76562 -36.4258 12.5 -33.7402 16.4551 -33.7402 C 20.459 -33.7402 23.1445 -36.377 23.1445 -40.4297 L 23.1445 -42.7734 C 23.1445 -49.4141 27.5391 -53.418 34.8145 -53.418 L 50.1953 -53.418 L 50.1953 -45.4102 C 50.1953 -42.334 52.0996 -40.4297 55.0781 -40.4297 C 56.4941 -40.4297 57.6172 -40.918 58.4961 -41.6504 L 75.4883 -56.1523 C 77.7344 -58.0566 77.6855 -61.2305 75.4883 -63.0859 L 58.4961 -77.5879 C 57.6172 -78.3203 56.4941 -78.8086 55.0781 -78.8086 C 52.0996 -78.8086 50.1953 -76.9043 50.1953 -73.8281 L 50.1953 -66.5039 L 35.4004 -66.5039 C 19.4336 -66.5039 9.76562 -58.2031 9.76562 -44.6777 Z M 50.0488 -29.1992 C 50.0488 -32.2754 48.1445 -34.1797 45.166 -34.1797 C 43.7012 -34.1797 42.627 -33.6914 41.748 -32.959 L 24.707 -18.457 C 22.4609 -16.5527 22.5098 -13.3789 24.707 -11.5234 L 41.748 2.97852 C 42.627 3.71094 43.7012 4.19922 45.166 4.19922 C 48.1445 4.19922 50.0488 2.29492 50.0488 -0.78125 L 50.0488 -8.00781 L 77.9785 -8.00781 C 93.8965 -8.00781 103.613 -16.3086 103.613 -29.834 L 103.613 -34.082 C 103.613 -38.0859 100.879 -40.7715 96.875 -40.7715 C 92.9199 -40.7715 90.2344 -38.1348 90.2344 -34.082 L 90.2344 -31.7383 C 90.2344 -25.0977 85.8398 -21.0938 78.5156 -21.0938 L 50.0488 -21.0938 Z"/>
  </g>
  <g id="Bold-S" transform="matrix(1 0 0 1 2284.7 696)">
   <path d="M 95.1172 -46.4355 C 98.4375 -46.4355 100.488 -48.1445 100.488 -51.9531 L 100.488 -70.0684 C 100.488 -73.7305 97.9004 -76.2207 94.2871 -76.2207 C 91.4062 -76.2207 89.502 -75.293 87.3047 -73.6816 L 82.2754 -69.9219 C 80.6641 -68.7012 80.127 -67.7246 80.127 -66.3574 C 80.127 -64.3555 81.5918 -62.8906 83.6426 -62.8906 C 84.668 -62.8906 85.4004 -63.1836 86.1328 -63.7695 L 89.4043 -66.4551 L 89.6973 -66.4551 L 89.6973 -51.9531 C 89.6973 -48.1445 91.7969 -46.4355 95.1172 -46.4355 Z M 9.76562 -39.6484 C 9.76562 -36.1816 12.2559 -33.6914 15.7227 -33.6914 C 19.1895 -33.6914 21.6309 -36.1328 21.6309 -39.6484 L 21.6309 -42.1387 C 21.6309 -48.4375 25.9766 -52.3926 32.8125 -52.3926 L 50.293 -52.3926 L 50.293 -44.4336 C 50.293 -41.6504 52.002 -39.8926 54.7363 -39.8926 C 56.0059 -39.8926 57.0801 -40.3809 57.9102 -41.0645 L 74.1211 -54.7852 C 76.1719 -56.543 76.1719 -59.375 74.1211 -61.1328 L 57.9102 -74.8535 C 57.0801 -75.5859 56.0059 -76.0254 54.7363 -76.0254 C 52.002 -76.0254 50.293 -74.2676 50.293 -71.5332 L 50.293 -64.0625 L 33.4473 -64.0625 C 18.7988 -64.0625 9.76562 -56.2012 9.76562 -43.5547 Z M 48.8281 -28.7109 C 48.8281 -31.4453 47.0703 -33.2031 44.3359 -33.2031 C 43.0664 -33.2031 41.9922 -32.7637 41.1621 -32.0312 L 25 -18.3105 C 22.9004 -16.6016 22.9492 -13.7207 25 -12.0117 L 41.1621 1.75781 C 41.9922 2.44141 43.0664 2.92969 44.3359 2.92969 C 47.0703 2.92969 48.8281 1.17188 48.8281 -1.61133 L 48.8281 -9.0332 L 77.0996 -9.0332 C 91.748 -9.0332 100.781 -16.8945 100.781 -29.541 L 100.781 -33.4473 C 100.781 -36.9141 98.3398 -39.4043 94.8242 -39.4043 C 91.3574 -39.4043 88.916 -36.9629 88.916 -33.4473 L 88.916 -30.957 C 88.916 -24.6582 84.5703 -20.7031 77.7344 -20.7031 L 48.8281 -20.7031 Z"/>
  </g>
  <g id="Semibold-S" transform="matrix(1 0 0 1 1988.97 696)">
   <path d="M 93.6035 -45.752 C 96.6309 -45.752 98.4375 -47.3145 98.4375 -50.7324 L 98.4375 -68.6523 C 98.4375 -72.0703 96.1426 -74.3652 92.7734 -74.3652 C 90.0879 -74.3652 88.3789 -73.4863 86.3281 -71.9238 L 81.3477 -68.1152 C 79.9805 -67.0898 79.4922 -66.1621 79.4922 -64.9902 C 79.4922 -63.2324 80.7617 -61.9629 82.666 -61.9629 C 83.5938 -61.9629 84.2773 -62.207 84.9609 -62.7441 L 88.4277 -65.625 L 88.7207 -65.625 L 88.7207 -50.7324 C 88.7207 -47.3145 90.5273 -45.752 93.6035 -45.752 Z M 9.76562 -39.1113 C 9.76562 -35.9863 12.0605 -33.6914 15.1855 -33.6914 C 18.3594 -33.6914 20.6055 -35.9863 20.6055 -39.1113 L 20.6055 -41.6992 C 20.6055 -47.8027 24.8535 -51.709 31.4453 -51.709 L 50.3418 -51.709 L 50.3418 -43.75 C 50.3418 -41.1621 51.9531 -39.5508 54.4922 -39.5508 C 55.6641 -39.5508 56.7383 -39.9902 57.5195 -40.6738 L 73.1445 -53.8574 C 75.0977 -55.5176 75.0488 -58.1055 73.1445 -59.7656 L 57.5195 -72.998 C 56.7383 -73.6816 55.6641 -74.1211 54.4922 -74.1211 C 51.9531 -74.1211 50.3418 -72.5098 50.3418 -69.9219 L 50.3418 -62.4023 L 32.1289 -62.4023 C 18.3594 -62.4023 9.76562 -54.834 9.76562 -42.8223 Z M 47.9492 -28.3691 C 47.9492 -30.9082 46.3867 -32.5195 43.7988 -32.5195 C 42.6758 -32.5195 41.6016 -32.1289 40.7715 -31.4453 L 25.1953 -18.2617 C 23.2422 -16.6016 23.2422 -13.9648 25.1953 -12.3047 L 40.7715 0.927734 C 41.6016 1.5625 42.6758 2.00195 43.7988 2.00195 C 46.3867 2.00195 47.9492 0.390625 47.9492 -2.14844 L 47.9492 -9.7168 L 76.5137 -9.7168 C 90.2344 -9.7168 98.8281 -17.2852 98.8281 -29.2969 L 98.8281 -33.0078 C 98.8281 -36.1328 96.5332 -38.4277 93.4082 -38.4277 C 90.2832 -38.4277 87.9883 -36.1328 87.9883 -33.0078 L 87.9883 -30.4199 C 87.9883 -24.3164 83.7402 -20.4102 77.1973 -20.4102 L 47.9492 -20.4102 Z"/>
  </g>
  <g id="Medium-S" transform="matrix(1 0 0 1 1692.99 696)">
   <path d="M 92.4805 -45.2148 C 95.2637 -45.2148 96.875 -46.7285 96.875 -49.7559 L 96.875 -67.627 C 96.875 -70.8008 94.7754 -72.9492 91.6504 -72.9492 C 89.0625 -72.9492 87.5488 -72.1191 85.5469 -70.6055 L 80.6152 -66.748 C 79.4434 -65.8691 79.0527 -64.9902 79.0527 -63.9648 C 79.0527 -62.4512 80.1758 -61.2305 81.9824 -61.2305 C 82.7637 -61.2305 83.3984 -61.4746 84.0332 -61.9629 L 87.6465 -64.9902 L 87.9883 -64.9902 L 87.9883 -49.7559 C 87.9883 -46.7285 89.5996 -45.2148 92.4805 -45.2148 Z M 9.76562 -38.7207 C 9.76562 -35.8398 11.9629 -33.6914 14.7949 -33.6914 C 17.6758 -33.6914 19.873 -35.8398 19.873 -38.7207 L 19.873 -41.3574 C 19.873 -47.2656 24.0234 -51.2207 30.3711 -51.2207 L 50.3906 -51.2207 L 50.3906 -43.2129 C 50.3906 -40.8203 51.9043 -39.3066 54.3457 -39.3066 C 55.4199 -39.3066 56.4453 -39.6973 57.2266 -40.3809 L 72.4121 -53.125 C 74.2676 -54.6875 74.2676 -57.1777 72.4121 -58.7402 L 57.2266 -71.582 C 56.4453 -72.2656 55.4199 -72.6562 54.3457 -72.6562 C 51.9043 -72.6562 50.3906 -71.1426 50.3906 -68.75 L 50.3906 -61.1328 L 31.1035 -61.1328 C 18.0664 -61.1328 9.76562 -53.7598 9.76562 -42.2363 Z M 47.3145 -28.125 C 47.3145 -30.5176 45.8008 -32.0312 43.4082 -32.0312 C 42.334 -32.0312 41.2598 -31.6406 40.4785 -30.957 L 25.3418 -18.1641 C 23.4375 -16.6504 23.4863 -14.1602 25.3418 -12.5977 L 40.4785 0.292969 C 41.2598 0.927734 42.334 1.31836 43.4082 1.31836 C 45.8008 1.31836 47.3145 -0.195312 47.3145 -2.58789 L 47.3145 -10.2539 L 76.0254 -10.2539 C 89.1113 -10.2539 97.3633 -17.627 97.3633 -29.1504 L 97.3633 -32.666 C 97.3633 -35.498 95.2148 -37.6953 92.334 -37.6953 C 89.4531 -37.6953 87.3047 -35.5469 87.3047 -32.666 L 87.3047 -30.0293 C 87.3047 -24.1211 83.1055 -20.166 76.7578 -20.166 L 47.3145 -20.166 Z"/>
  </g>
  <g id="Regular-S" transform="matrix(1 0 0 1 1397.23 696)">
   <path d="M 90.9668 -44.5801 C 93.5059 -44.5801 94.873 -45.8984 94.873 -48.5352 L 94.873 -66.2109 C 94.873 -69.1406 93.0176 -71.0938 90.1855 -71.0938 C 87.793 -71.0938 86.4258 -70.3125 84.5703 -68.8965 L 79.6387 -64.9902 C 78.7598 -64.2578 78.418 -63.4766 78.418 -62.6465 C 78.418 -61.377 79.3945 -60.2539 81.0547 -60.2539 C 81.6895 -60.2539 82.2754 -60.498 82.8125 -60.9375 L 86.6699 -64.1602 L 87.0605 -64.1602 L 87.0605 -48.5352 C 87.0605 -45.8984 88.3789 -44.5801 90.9668 -44.5801 Z M 9.76562 -38.1836 C 9.76562 -35.6934 11.7676 -33.6914 14.3066 -33.6914 C 16.8457 -33.6914 18.8477 -35.6934 18.8477 -38.1836 L 18.8477 -40.8691 C 18.8477 -46.6309 22.9492 -50.5371 29.0039 -50.5371 L 50.4883 -50.5371 L 50.4883 -42.5293 C 50.4883 -40.332 51.8555 -38.9648 54.1016 -38.9648 C 55.0781 -38.9648 56.1035 -39.3555 56.8359 -39.9414 L 71.4355 -52.1973 C 73.1934 -53.6621 73.1934 -55.9082 71.4355 -57.4219 L 56.8359 -69.7754 C 56.1035 -70.3613 55.0781 -70.752 54.1016 -70.752 C 51.8555 -70.752 50.4883 -69.3848 50.4883 -67.1875 L 50.4883 -59.4727 L 29.7852 -59.4727 C 17.627 -59.4727 9.76562 -52.3926 9.76562 -41.5039 Z M 46.4844 -27.7832 C 46.4844 -29.9805 45.1172 -31.3477 42.8711 -31.3477 C 41.8945 -31.3477 40.8203 -30.957 40.1367 -30.3711 L 25.5371 -18.1152 C 23.7793 -16.6504 23.7793 -14.4043 25.5371 -12.8906 L 40.1367 -0.537109 C 40.8203 0.0488281 41.8945 0.439453 42.8711 0.439453 C 45.1172 0.439453 46.4844 -0.927734 46.4844 -3.125 L 46.4844 -10.9375 L 75.4395 -10.9375 C 87.5977 -10.9375 95.459 -18.0176 95.459 -28.9062 L 95.459 -32.2266 C 95.459 -34.7168 93.457 -36.7188 90.918 -36.7188 C 88.4277 -36.7188 86.377 -34.7168 86.377 -32.2266 L 86.377 -29.4922 C 86.377 -23.7793 82.2754 -19.873 76.2207 -19.873 L 46.4844 -19.873 Z"/>
  </g>
  <g id="Light-S" transform="matrix(1 0 0 1 1102.43 696)">
   <path d="M 87.7441 -44.4824 C 89.9414 -44.4824 91.2109 -45.7031 91.2109 -47.998 L 91.2109 -65.918 C 91.2109 -68.5059 89.5508 -70.2148 87.0117 -70.2148 C 84.8633 -70.2148 83.6426 -69.5801 81.8359 -68.2129 L 77.002 -64.5508 C 76.123 -63.8672 75.7324 -63.1348 75.7324 -62.3047 C 75.7324 -61.084 76.6602 -60.1074 78.125 -60.1074 C 78.7598 -60.1074 79.2969 -60.3027 79.8828 -60.7422 L 83.8867 -63.916 L 84.1797 -63.916 L 84.1797 -47.998 C 84.1797 -45.7031 85.4492 -44.4824 87.7441 -44.4824 Z M 9.76562 -37.7441 C 9.76562 -35.5957 11.5234 -33.8379 13.7207 -33.8379 C 15.918 -33.8379 17.6758 -35.5957 17.6758 -37.7441 L 17.6758 -40.1855 C 17.6758 -46.5332 21.9238 -50.6836 28.418 -50.6836 L 48.3887 -50.6836 L 48.3887 -42.627 C 48.3887 -40.6738 49.6582 -39.4531 51.6602 -39.4531 C 52.5391 -39.4531 53.418 -39.7461 54.1016 -40.332 L 68.457 -52.002 C 70.166 -53.418 70.1172 -55.7129 68.457 -57.0801 L 54.1016 -68.7988 C 53.418 -69.3848 52.5391 -69.7266 51.6602 -69.7266 C 49.6582 -69.7266 48.3887 -68.457 48.3887 -66.5039 L 48.3887 -58.4473 L 29.1992 -58.4473 C 17.2852 -58.4473 9.76562 -51.6113 9.76562 -40.7715 Z M 44.873 -27.6855 C 44.873 -29.6387 43.6035 -30.8594 41.6016 -30.8594 C 40.7227 -30.8594 39.8438 -30.5664 39.1602 -29.9805 L 24.8047 -18.3105 C 23.1445 -16.9434 23.0957 -14.6484 24.8047 -13.2324 L 39.1602 -1.51367 C 39.8438 -0.927734 40.7227 -0.585938 41.6016 -0.585938 C 43.6035 -0.585938 44.873 -1.85547 44.873 -3.80859 L 44.873 -11.9629 L 72.168 -11.9629 C 84.1309 -11.9629 91.6504 -18.7988 91.6504 -29.5898 L 91.6504 -32.6172 C 91.6504 -34.8145 89.8926 -36.5723 87.6953 -36.5723 C 85.498 -36.5723 83.7402 -34.8145 83.7402 -32.6172 L 83.7402 -30.2246 C 83.7402 -23.877 79.4922 -19.7266 72.998 -19.7266 L 44.873 -19.7266 Z"/>
  </g>
  <g id="Thin-S" transform="matrix(1 0 0 1 808.253 696)">
   <path d="M 83.4473 -44.3359 C 85.2539 -44.3359 86.377 -45.459 86.377 -47.3145 L 86.377 -65.4785 C 86.377 -67.6758 85.0098 -69.0918 82.8125 -69.0918 C 81.0059 -69.0918 79.9316 -68.6035 78.2227 -67.334 L 73.4863 -63.916 C 72.6074 -63.2812 72.2168 -62.6953 72.2168 -61.8652 C 72.2168 -60.7422 73.0469 -59.8633 74.3164 -59.8633 C 74.9512 -59.8633 75.3906 -60.0586 76.0254 -60.498 L 80.2246 -63.5742 L 80.3711 -63.5742 L 80.3711 -47.3145 C 80.3711 -45.459 81.543 -44.3359 83.4473 -44.3359 Z M 9.76562 -37.207 C 9.76562 -35.4492 11.1816 -33.9844 12.9395 -33.9844 C 14.6973 -33.9844 16.1133 -35.4492 16.1133 -37.207 L 16.1133 -39.2578 C 16.1133 -46.4355 20.5566 -50.8789 27.5879 -50.8789 L 45.6543 -50.8789 L 45.6543 -42.7246 C 45.6543 -41.1133 46.7285 -40.0879 48.3887 -40.0879 C 49.1699 -40.0879 49.8047 -40.332 50.4883 -40.8203 L 64.4531 -51.7578 C 66.1621 -53.0762 66.0645 -55.4199 64.4531 -56.6895 L 50.4883 -67.5781 C 49.8047 -68.1152 49.1699 -68.3594 48.3887 -68.3594 C 46.7285 -68.3594 45.6543 -67.2852 45.6543 -65.6738 L 45.6543 -57.0312 L 28.4668 -57.0312 C 16.8457 -57.0312 9.76562 -50.5371 9.76562 -39.8926 Z M 42.7734 -27.5879 C 42.7734 -29.1992 41.6504 -30.2246 39.9902 -30.2246 C 39.2578 -30.2246 38.5742 -29.9805 37.8906 -29.4922 L 23.9258 -18.5547 C 22.3145 -17.334 22.2168 -14.9902 23.9258 -13.6719 L 37.8906 -2.73438 C 38.5742 -2.19727 39.2578 -1.95312 39.9902 -1.95312 C 41.6504 -1.95312 42.7734 -3.02734 42.7734 -4.63867 L 42.7734 -13.3301 L 67.8711 -13.3301 C 79.4922 -13.3301 86.5723 -19.8242 86.5723 -30.4688 L 86.5723 -33.2031 C 86.5723 -34.9121 85.1074 -36.377 83.3984 -36.377 C 81.6406 -36.377 80.2246 -34.9121 80.2246 -33.2031 L 80.2246 -31.1035 C 80.2246 -23.9746 75.7812 -19.4824 68.7012 -19.4824 L 42.7734 -19.4824 Z"/>
  </g>
  <g id="Ultralight-S" transform="matrix(1 0 0 1 512.861 696)">
   <path d="M 81.2012 -44.2383 C 82.8125 -44.2383 83.9355 -45.3125 83.9355 -46.9727 L 83.9355 -65.2832 C 83.9355 -67.2363 82.666 -68.5059 80.6641 -68.5059 C 79.0039 -68.5059 78.0273 -68.0664 76.3672 -66.8945 L 71.6797 -63.5742 C 70.8008 -62.9883 70.4102 -62.4512 70.4102 -61.6211 C 70.4102 -60.5469 71.1914 -59.7656 72.3145 -59.7656 C 72.9492 -59.7656 73.3398 -59.9121 74.0234 -60.4004 L 78.3203 -63.4277 L 78.418 -63.4277 L 78.418 -46.9727 C 78.418 -45.3613 79.541 -44.2383 81.2012 -44.2383 Z M 9.76562 -36.8652 C 9.76562 -35.3516 11.0352 -34.1309 12.5488 -34.1309 C 14.0625 -34.1309 15.332 -35.3516 15.332 -36.8652 L 15.332 -38.7695 C 15.332 -46.3379 19.8242 -50.9766 27.1973 -50.9766 L 44.2383 -50.9766 L 44.2383 -42.8223 C 44.2383 -41.3574 45.2148 -40.3809 46.7285 -40.3809 C 47.4121 -40.3809 47.998 -40.625 48.6328 -41.1133 L 62.4512 -51.6602 C 64.1113 -52.9297 64.0137 -55.2734 62.4512 -56.4453 L 48.6328 -66.9434 C 47.998 -67.4316 47.4121 -67.627 46.7285 -67.627 C 45.2148 -67.627 44.2383 -66.6992 44.2383 -65.2344 L 44.2383 -56.2988 L 28.0762 -56.2988 C 16.6016 -56.2988 9.76562 -50 9.76562 -39.4043 Z M 41.6504 -27.4902 C 41.6504 -28.9551 40.6738 -29.9316 39.1602 -29.9316 C 38.4766 -29.9316 37.8906 -29.6875 37.2559 -29.1992 L 23.4375 -18.7012 C 21.875 -17.5293 21.7773 -15.1855 23.4375 -13.916 L 37.2559 -3.36914 C 37.8906 -2.88086 38.4766 -2.68555 39.1602 -2.68555 C 40.6738 -2.68555 41.6504 -3.61328 41.6504 -5.07812 L 41.6504 -14.0625 L 65.625 -14.0625 C 77.0996 -14.0625 83.9355 -20.3613 83.9355 -30.957 L 83.9355 -33.4961 C 83.9355 -35.0098 82.666 -36.2793 81.1523 -36.2793 C 79.6387 -36.2793 78.418 -35.0098 78.418 -33.4961 L 78.418 -31.5918 C 78.418 -24.0234 73.877 -19.3848 66.5039 -19.3848 L 41.6504 -19.3848 Z"/>
  </g>
 </g>
</svg>
