<?xml version="1.0" encoding="UTF-8"?>
<!--Generator: Apple Native CoreSVG 149-->
<!DOCTYPE svg
PUBLIC "-//W3C//DTD SVG 1.1//EN"
       "http://www.w3.org/Graphics/SVG/1.1/DTD/svg11.dtd">
<svg version="1.1" xmlns="http://www.w3.org/2000/svg" xmlns:xlink="http://www.w3.org/1999/xlink" width="3300" height="2200">
 <!--glyph: "uni10028B.medium", point size: 100.000000, font version: "Version 16.0d12e3", template writer version: "8"-->
 <g id="Notes">
  <rect height="2200" id="artboard" style="fill:white;opacity:1" width="3300" x="0" y="0"/>
  <line id="" style="fill:none;stroke:black;opacity:1;stroke-width:0.5;" x1="263" x2="3036" y1="292" y2="292"/>
  <text style="stroke:none;fill:black;font-family:-apple-system,&quot;SF Pro Display&quot;,&quot;SF Pro Text&quot;,Helvetica,sans-serif;font-weight:bold;" transform="matrix(1 0 0 1 263 322)">Weight/Scale Variations</text>
  <text style="stroke:none;fill:black;font-family:-apple-system,&quot;SF Pro Display&quot;,&quot;SF Pro Text&quot;,Helvetica,sans-serif;text-anchor:middle;" transform="matrix(1 0 0 1 559.711 322)">Ultralight</text>
  <text style="stroke:none;fill:black;font-family:-apple-system,&quot;SF Pro Display&quot;,&quot;SF Pro Text&quot;,Helvetica,sans-serif;text-anchor:middle;" transform="matrix(1 0 0 1 856.422 322)">Thin</text>
  <text style="stroke:none;fill:black;font-family:-apple-system,&quot;SF Pro Display&quot;,&quot;SF Pro Text&quot;,Helvetica,sans-serif;text-anchor:middle;" transform="matrix(1 0 0 1 1153.13 322)">Light</text>
  <text style="stroke:none;fill:black;font-family:-apple-system,&quot;SF Pro Display&quot;,&quot;SF Pro Text&quot;,Helvetica,sans-serif;text-anchor:middle;" transform="matrix(1 0 0 1 1449.84 322)">Regular</text>
  <text style="stroke:none;fill:black;font-family:-apple-system,&quot;SF Pro Display&quot;,&quot;SF Pro Text&quot;,Helvetica,sans-serif;text-anchor:middle;" transform="matrix(1 0 0 1 1746.56 322)">Medium</text>
  <text style="stroke:none;fill:black;font-family:-apple-system,&quot;SF Pro Display&quot;,&quot;SF Pro Text&quot;,Helvetica,sans-serif;text-anchor:middle;" transform="matrix(1 0 0 1 2043.27 322)">Semibold</text>
  <text style="stroke:none;fill:black;font-family:-apple-system,&quot;SF Pro Display&quot;,&quot;SF Pro Text&quot;,Helvetica,sans-serif;text-anchor:middle;" transform="matrix(1 0 0 1 2339.98 322)">Bold</text>
  <text style="stroke:none;fill:black;font-family:-apple-system,&quot;SF Pro Display&quot;,&quot;SF Pro Text&quot;,Helvetica,sans-serif;text-anchor:middle;" transform="matrix(1 0 0 1 2636.69 322)">Heavy</text>
  <text style="stroke:none;fill:black;font-family:-apple-system,&quot;SF Pro Display&quot;,&quot;SF Pro Text&quot;,Helvetica,sans-serif;text-anchor:middle;" transform="matrix(1 0 0 1 2933.4 322)">Black</text>
  <line id="" style="fill:none;stroke:black;opacity:1;stroke-width:0.5;" x1="263" x2="3036" y1="1903" y2="1903"/>
  <g id="" transform="matrix(1 0 0 1 263 1933)">
   <path d="M9.24805 0.830078C13.5547 0.830078 17.1387-2.74414 17.1387-7.05078C17.1387-11.3574 13.5449-14.9316 9.23828-14.9316C4.94141-14.9316 1.36719-11.3574 1.36719-7.05078C1.36719-2.74414 4.95117 0.830078 9.24805 0.830078ZM9.24805-0.654297C5.70312-0.654297 2.87109-3.49609 2.87109-7.05078C2.87109-10.6055 5.69336-13.4473 9.23828-13.4473C12.793-13.4473 15.6348-10.6055 15.6445-7.05078C15.6543-3.49609 12.8027-0.654297 9.24805-0.654297ZM9.22852-3.62305C9.69727-3.62305 9.9707-3.93555 9.9707-4.45312L9.9707-6.31836L12.002-6.31836C12.5-6.31836 12.832-6.57227 12.832-7.04102C12.832-7.51953 12.5195-7.7832 12.002-7.7832L9.9707-7.7832L9.9707-9.81445C9.9707-10.332 9.69727-10.6543 9.22852-10.6543C8.75977-10.6543 8.50586-10.3125 8.50586-9.81445L8.50586-7.7832L6.49414-7.7832C5.97656-7.7832 5.64453-7.51953 5.64453-7.04102C5.64453-6.57227 5.99609-6.31836 6.49414-6.31836L8.50586-6.31836L8.50586-4.45312C8.50586-3.95508 8.75977-3.62305 9.22852-3.62305Z"/>
  </g>
  <g id="" transform="matrix(1 0 0 1 281.506 1933)">
   <path d="M11.709 2.91016C17.1582 2.91016 21.6699-1.61133 21.6699-7.05078C21.6699-12.5 17.1484-17.0117 11.6992-17.0117C6.25977-17.0117 1.74805-12.5 1.74805-7.05078C1.74805-1.61133 6.26953 2.91016 11.709 2.91016ZM11.709 1.25C7.09961 1.25 3.41797-2.44141 3.41797-7.05078C3.41797-11.6602 7.08984-15.3516 11.6992-15.3516C16.3086-15.3516 20-11.6602 20.0098-7.05078C20.0195-2.44141 16.3184 1.25 11.709 1.25ZM11.6797-2.66602C12.207-2.66602 12.5098-3.01758 12.5098-3.59375L12.5098-6.23047L15.3223-6.23047C15.8691-6.23047 16.25-6.51367 16.25-7.03125C16.25-7.55859 15.8887-7.86133 15.3223-7.86133L12.5098-7.86133L12.5098-10.6836C12.5098-11.25 12.207-11.6113 11.6797-11.6113C11.1621-11.6113 10.8789-11.2305 10.8789-10.6836L10.8789-7.86133L8.07617-7.86133C7.50977-7.86133 7.13867-7.55859 7.13867-7.03125C7.13867-6.51367 7.5293-6.23047 8.07617-6.23047L10.8789-6.23047L10.8789-3.59375C10.8789-3.03711 11.1621-2.66602 11.6797-2.66602Z"/>
  </g>
  <g id="" transform="matrix(1 0 0 1 304.924 1933)">
   <path d="M14.9707 5.66406C21.9336 5.66406 27.6953-0.0976562 27.6953-7.05078C27.6953-14.0137 21.9238-19.7754 14.9609-19.7754C8.00781-19.7754 2.25586-14.0137 2.25586-7.05078C2.25586-0.0976562 8.01758 5.66406 14.9707 5.66406ZM14.9707 3.84766C8.93555 3.84766 4.08203-1.01562 4.08203-7.05078C4.08203-13.0957 8.92578-17.9492 14.9609-17.9492C21.0059-17.9492 25.8594-13.0957 25.8691-7.05078C25.8789-1.01562 21.0156 3.84766 14.9707 3.84766ZM14.9414-1.38672C15.5176-1.38672 15.8594-1.77734 15.8594-2.38281L15.8594-6.13281L19.7754-6.13281C20.3711-6.13281 20.7812-6.46484 20.7812-7.02148C20.7812-7.59766 20.3906-7.93945 19.7754-7.93945L15.8594-7.93945L15.8594-11.8652C15.8594-12.4805 15.5176-12.8711 14.9414-12.8711C14.375-12.8711 14.0527-12.4609 14.0527-11.8652L14.0527-7.93945L10.1465-7.93945C9.53125-7.93945 9.13086-7.59766 9.13086-7.02148C9.13086-6.46484 9.55078-6.13281 10.1465-6.13281L14.0527-6.13281L14.0527-2.38281C14.0527-1.79688 14.375-1.38672 14.9414-1.38672Z"/>
  </g>
  <text style="stroke:none;fill:black;font-family:-apple-system,&quot;SF Pro Display&quot;,&quot;SF Pro Text&quot;,Helvetica,sans-serif;font-weight:bold;" transform="matrix(1 0 0 1 263 1953)">Design Variations</text>
  <text style="stroke:none;fill:black;font-family:-apple-system,&quot;SF Pro Display&quot;,&quot;SF Pro Text&quot;,Helvetica,sans-serif;" transform="matrix(1 0 0 1 263 1971)">Symbols are supported in up to nine weights and three scales.</text>
  <text style="stroke:none;fill:black;font-family:-apple-system,&quot;SF Pro Display&quot;,&quot;SF Pro Text&quot;,Helvetica,sans-serif;" transform="matrix(1 0 0 1 263 1989)">For optimal layout with text and other symbols, vertically align</text>
  <text style="stroke:none;fill:black;font-family:-apple-system,&quot;SF Pro Display&quot;,&quot;SF Pro Text&quot;,Helvetica,sans-serif;" transform="matrix(1 0 0 1 263 2007)">symbols with the adjacent text.</text>
  <line id="" style="fill:none;stroke:#00AEEF;stroke-width:0.5;opacity:1.0;" x1="776" x2="776" y1="1919" y2="1933"/>
  <g id="" transform="matrix(1 0 0 1 776 1933)">
   <path d="M3.31055 0.126953C3.82812 0.126953 4.08203-0.0683594 4.26758-0.605469L5.52734-4.0625L11.2891-4.0625L12.5488-0.605469C12.7344-0.0683594 12.9883 0.126953 13.4961 0.126953C14.0137 0.126953 14.3457-0.185547 14.3457-0.673828C14.3457-0.839844 14.3164-0.986328 14.2383-1.20117L9.6582-13.3887C9.43359-13.9941 9.0332-14.2871 8.4082-14.2871C7.80273-14.2871 7.39258-13.9941 7.17773-13.3984L2.59766-1.19141C2.51953-0.976562 2.49023-0.830078 2.49023-0.664062C2.49023-0.175781 2.80273 0.126953 3.31055 0.126953ZM6.00586-5.53711L8.37891-12.1094L8.42773-12.1094L10.8008-5.53711Z"/>
  </g>
  <line id="" style="fill:none;stroke:#00AEEF;stroke-width:0.5;opacity:1.0;" x1="792.836" x2="792.836" y1="1919" y2="1933"/>
  <text style="stroke:none;fill:black;font-family:-apple-system,&quot;SF Pro Display&quot;,&quot;SF Pro Text&quot;,Helvetica,sans-serif;font-weight:bold;" transform="matrix(1 0 0 1 776 1953)">Margins</text>
  <text style="stroke:none;fill:black;font-family:-apple-system,&quot;SF Pro Display&quot;,&quot;SF Pro Text&quot;,Helvetica,sans-serif;" transform="matrix(1 0 0 1 776 1971)">Leading and trailing margins on the left and right side of each symbol</text>
  <text style="stroke:none;fill:black;font-family:-apple-system,&quot;SF Pro Display&quot;,&quot;SF Pro Text&quot;,Helvetica,sans-serif;" transform="matrix(1 0 0 1 776 1989)">can be adjusted by modifying the x-location of the margin guidelines.</text>
  <text style="stroke:none;fill:black;font-family:-apple-system,&quot;SF Pro Display&quot;,&quot;SF Pro Text&quot;,Helvetica,sans-serif;" transform="matrix(1 0 0 1 776 2007)">Modifications are automatically applied proportionally to all</text>
  <text style="stroke:none;fill:black;font-family:-apple-system,&quot;SF Pro Display&quot;,&quot;SF Pro Text&quot;,Helvetica,sans-serif;" transform="matrix(1 0 0 1 776 2025)">scales and weights.</text>
  <g id="" transform="matrix(1 0 0 1 1289 1933)">
   <path d="M2.8418 1.86523L4.54102 3.57422C5.40039 4.44336 6.38672 4.38477 7.31445 3.35938L17.4902-7.85156C17.7539-7.76367 18.0273-7.7832 18.3398-7.8418L19.4043-8.03711L20.0684-7.36328L20.0293-6.80664C19.9902-6.30859 20.1172-5.92773 20.6055-5.44922L21.3672-4.70703C21.8457-4.22852 22.4609-4.19922 22.9297-4.66797L25.8398-7.58789C26.3086-8.05664 26.2891-8.65234 25.8105-9.13086L25.0391-9.89258C24.5605-10.3711 24.1895-10.5273 23.7109-10.4883L23.1348-10.4395L22.4902-11.0742L22.7344-12.1973C22.8613-12.7637 22.7051-13.2031 22.1191-13.7891L19.9219-15.9766C16.582-19.2969 12.1484-19.2188 9.25781-16.3281C8.83789-15.918 8.80859-15.3418 9.04297-14.9512C9.27734-14.5898 9.73633-14.3555 10.3809-14.5215C11.8457-14.8633 13.3691-14.9219 14.7949-13.9844L14.209-12.5293C14.0137-12.0508 13.9844-11.6504 14.1113-11.2891L3.04688-0.898438C2.06055 0.0195312 1.98242 0.996094 2.8418 1.86523ZM10.752-15.957C13.1836-17.7344 16.4746-17.4316 18.7012-15.2051L21.1328-12.793C21.3672-12.5586 21.4062-12.373 21.3379-12.0312L21.0156-10.5469L22.5195-9.0625L23.5059-9.12109C23.7598-9.13086 23.8379-9.11133 24.0332-8.91602L24.6094-8.33984L22.168-5.89844L21.5918-6.47461C21.3965-6.66992 21.3672-6.74805 21.377-7.01172L21.4453-7.98828L19.9512-9.47266L18.4277-9.21875C18.1055-9.15039 17.959-9.17969 17.7148-9.41406L15.7129-11.416C15.459-11.6504 15.4297-11.8164 15.5859-12.1875L16.4648-14.2773C14.9023-15.7324 12.8711-16.3574 10.8398-15.7617C10.6836-15.7227 10.625-15.8496 10.752-15.957ZM5.27344 2.30469L4.10156 1.14258C3.63281 0.683594 3.74023 0.341797 4.14062-0.0195312L14.9512-10.1953L16.416-8.71094L6.42578 2.27539C6.07422 2.67578 5.74219 2.77344 5.27344 2.30469Z"/>
  </g>
  <text style="stroke:none;fill:black;font-family:-apple-system,&quot;SF Pro Display&quot;,&quot;SF Pro Text&quot;,Helvetica,sans-serif;font-weight:bold;" transform="matrix(1 0 0 1 1289 1953)">Exporting</text>
  <text style="stroke:none;fill:black;font-family:-apple-system,&quot;SF Pro Display&quot;,&quot;SF Pro Text&quot;,Helvetica,sans-serif;" transform="matrix(1 0 0 1 1289 1971)">Symbols should be outlined when exporting to ensure the</text>
  <text style="stroke:none;fill:black;font-family:-apple-system,&quot;SF Pro Display&quot;,&quot;SF Pro Text&quot;,Helvetica,sans-serif;" transform="matrix(1 0 0 1 1289 1989)">design is preserved when submitting to Xcode.</text>
  <text id="template-version" style="stroke:none;fill:black;font-family:-apple-system,&quot;SF Pro Display&quot;,&quot;SF Pro Text&quot;,Helvetica,sans-serif;text-anchor:end;" transform="matrix(1 0 0 1 3036 1933)">Template v.2.0</text>
  <text style="stroke:none;fill:black;font-family:-apple-system,&quot;SF Pro Display&quot;,&quot;SF Pro Text&quot;,Helvetica,sans-serif;text-anchor:end;" transform="matrix(1 0 0 1 3036 1951)">Requires Xcode 12 or greater</text>
  <text style="stroke:none;fill:black;font-family:-apple-system,&quot;SF Pro Display&quot;,&quot;SF Pro Text&quot;,Helvetica,sans-serif;text-anchor:end;" transform="matrix(1 0 0 1 3036 1969)">Generated from forward</text>
  <text style="stroke:none;fill:black;font-family:-apple-system,&quot;SF Pro Display&quot;,&quot;SF Pro Text&quot;,Helvetica,sans-serif;text-anchor:end;" transform="matrix(1 0 0 1 3036 1987)">Typeset at 100 points</text>
  <text style="stroke:none;fill:black;font-family:-apple-system,&quot;SF Pro Display&quot;,&quot;SF Pro Text&quot;,Helvetica,sans-serif;" transform="matrix(1 0 0 1 263 726)">Small</text>
  <text style="stroke:none;fill:black;font-family:-apple-system,&quot;SF Pro Display&quot;,&quot;SF Pro Text&quot;,Helvetica,sans-serif;" transform="matrix(1 0 0 1 263 1156)">Medium</text>
  <text style="stroke:none;fill:black;font-family:-apple-system,&quot;SF Pro Display&quot;,&quot;SF Pro Text&quot;,Helvetica,sans-serif;" transform="matrix(1 0 0 1 263 1586)">Large</text>
 </g>
 <g id="Guides">
  <g id="H-reference" style="fill:#27AAE1;stroke:none;" transform="matrix(1 0 0 1 339 696)">
   <path d="M0.976562 0L3.66211 0L12.9883-24.4629L45.752-24.4629L55.127 0L57.7637 0L30.6152-70.459L28.125-70.459ZM29.3457-67.1387L29.4434-67.1387L44.873-26.709L13.8672-26.709Z"/>
  </g>
  <line id="Baseline-S" style="fill:none;stroke:#27AAE1;opacity:1;stroke-width:0.5;" x1="263" x2="3036" y1="696" y2="696"/>
  <line id="Capline-S" style="fill:none;stroke:#27AAE1;opacity:1;stroke-width:0.5;" x1="263" x2="3036" y1="625.541" y2="625.541"/>
  <g id="H-reference" style="fill:#27AAE1;stroke:none;" transform="matrix(1 0 0 1 339 1126)">
   <path d="M0.976562 0L3.66211 0L12.9883-24.4629L45.752-24.4629L55.127 0L57.7637 0L30.6152-70.459L28.125-70.459ZM29.3457-67.1387L29.4434-67.1387L44.873-26.709L13.8672-26.709Z"/>
  </g>
  <line id="Baseline-M" style="fill:none;stroke:#27AAE1;opacity:1;stroke-width:0.5;" x1="263" x2="3036" y1="1126" y2="1126"/>
  <line id="Capline-M" style="fill:none;stroke:#27AAE1;opacity:1;stroke-width:0.5;" x1="263" x2="3036" y1="1055.54" y2="1055.54"/>
  <g id="H-reference" style="fill:#27AAE1;stroke:none;" transform="matrix(1 0 0 1 339 1556)">
   <path d="M0.976562 0L3.66211 0L12.9883-24.4629L45.752-24.4629L55.127 0L57.7637 0L30.6152-70.459L28.125-70.459ZM29.3457-67.1387L29.4434-67.1387L44.873-26.709L13.8672-26.709Z"/>
  </g>
  <line id="Baseline-L" style="fill:none;stroke:#27AAE1;opacity:1;stroke-width:0.5;" x1="263" x2="3036" y1="1556" y2="1556"/>
  <line id="Capline-L" style="fill:none;stroke:#27AAE1;opacity:1;stroke-width:0.5;" x1="263" x2="3036" y1="1485.54" y2="1485.54"/>
  <line id="left-margin" style="fill:none;stroke:#00AEEF;stroke-width:0.5;opacity:1.0;" x1="1375.77" x2="1375.77" y1="1030.79" y2="1150.12"/>
  <line id="right-margin" style="fill:none;stroke:#00AEEF;stroke-width:0.5;opacity:1.0;" x1="1523.92" x2="1523.92" y1="1030.79" y2="1150.12"/>
 </g>
 <g id="Symbols">
  <g id="Black-L" transform="matrix(1 0 0 1 2825.76 1556)">
   <path d="M29.834 18.7012C33.3008 18.7012 36.4746 17.9199 39.7461 16.0156L105.273-22.2656C110.059-25.0488 113.672-28.4668 114.697-33.1055L114.697 3.41797C114.697 13.1348 120.996 18.7012 128.467 18.7012C131.934 18.7012 135.059 17.9199 138.379 16.0156L203.906-22.2656C209.619-25.5859 213.672-29.834 213.672-36.084C213.672-42.2852 209.814-46.1914 203.906-49.6582L138.379-87.8906C135.01-89.7949 131.836-90.625 128.32-90.625C120.898-90.625 114.697-85.1074 114.697-75.293L114.697-39.0137C113.672-43.6035 110.205-46.7773 105.273-49.6582L39.7461-87.8906C36.377-89.7949 33.252-90.625 29.7363-90.625C22.2656-90.625 16.0645-85.1074 16.0645-75.293L16.0645 3.41797C16.0645 13.1348 22.3633 18.7012 29.834 18.7012ZM36.6211-5.07812C36.2305-5.07812 36.0352-5.32227 36.0352-5.71289L36.0352-66.1621C36.0352-66.5527 36.2305-66.7969 36.6699-66.7969C36.8652-66.7969 37.1094-66.748 37.4023-66.6016L88.8672-36.7188C89.209-36.5234 89.3066-36.377 89.3066-35.9863C89.3066-35.6445 89.1602-35.4492 88.8672-35.2539L37.4023-5.32227C37.1582-5.17578 36.8652-5.07812 36.6211-5.07812ZM135.254-5.07812C134.863-5.07812 134.668-5.32227 134.668-5.71289L134.668-66.1621C134.668-66.5527 134.863-66.7969 135.303-66.7969C135.498-66.7969 135.742-66.748 136.035-66.6016L187.5-36.7188C187.842-36.5234 187.939-36.377 187.939-35.9863C187.939-35.6445 187.744-35.4492 187.5-35.2539L136.035-5.32227C135.791-5.17578 135.498-5.07812 135.254-5.07812Z"/>
  </g>
  <g id="Heavy-L" transform="matrix(1 0 0 1 2532.25 1556)">
   <path d="M28.5645 17.4805C31.7871 17.4805 34.668 16.6992 37.7441 14.8926L103.027-23.291C107.422-25.8301 110.547-28.9551 111.523-33.0566L111.523 3.41797C111.523 12.4023 117.236 17.4805 124.023 17.4805C127.197 17.4805 130.127 16.6992 133.203 14.8926L198.486-23.291C203.809-26.416 207.275-30.3223 207.275-35.8398C207.275-41.4062 203.906-45.0195 198.486-48.1934L133.203-86.4258C130.078-88.1836 127.148-89.0137 123.926-89.0137C117.139-89.0137 111.523-83.9844 111.523-74.9512L111.523-38.6719C110.547-42.6758 107.52-45.6055 103.027-48.1934L37.7441-86.4258C34.6191-88.1836 31.7383-89.0137 28.4668-89.0137C21.7285-89.0137 16.0645-83.9844 16.0645-74.9512L16.0645 3.41797C16.0645 12.4023 21.8262 17.4805 28.5645 17.4805ZM34.2773-3.02734C33.7402-3.02734 33.3496-3.36914 33.3496-4.05273L33.3496-67.4316C33.3496-68.1641 33.7402-68.5059 34.3262-68.5059C34.6191-68.5059 34.9121-68.4082 35.3027-68.1641L89.0625-36.8164C89.5508-36.5234 89.7461-36.3281 89.7461-35.791C89.7461-35.3027 89.502-35.0098 89.0625-34.7656L35.3027-3.32031C34.9609-3.125 34.6191-3.02734 34.2773-3.02734ZM129.736-3.02734C129.199-3.02734 128.809-3.36914 128.809-4.05273L128.809-67.4316C128.809-68.1641 129.199-68.5059 129.736-68.5059C130.029-68.5059 130.322-68.4082 130.762-68.1641L184.473-36.8164C184.961-36.5234 185.205-36.3281 185.205-35.791C185.205-35.3027 184.912-35.0098 184.473-34.7656L130.762-3.32031C130.371-3.125 130.029-3.02734 129.736-3.02734Z"/>
  </g>
  <g id="Bold-L" transform="matrix(1 0 0 1 2239.1 1556)">
   <path d="M27.1973 16.1133C30.0781 16.1133 32.7148 15.2832 35.498 13.6719L100.537-24.4629C104.443-26.7578 107.08-29.4922 107.959-32.959L107.959 3.41797C107.959 11.6211 113.037 16.1133 119.043 16.1133C121.973 16.1133 124.561 15.2832 127.393 13.6719L192.432-24.4629C197.266-27.2949 200.146-30.8105 200.146-35.5957C200.146-40.3809 197.363-43.7012 192.432-46.6309L127.393-84.7656C124.561-86.377 121.924-87.207 118.994-87.207C112.988-87.207 107.959-82.7148 107.959-74.5117L107.959-38.2812C107.08-41.6992 104.492-44.2871 100.537-46.6309L35.498-84.7656C32.666-86.377 30.0781-87.207 27.0996-87.207C21.1426-87.207 16.0645-82.7148 16.0645-74.5117L16.0645 3.41797C16.0645 11.6211 21.1914 16.1133 27.1973 16.1133ZM31.6406-0.683594C30.957-0.683594 30.3711-1.17188 30.3711-2.19727L30.3711-68.8965C30.3711-69.9219 30.957-70.3613 31.6895-70.3613C32.0312-70.3613 32.4219-70.2637 33.0078-69.9707L89.2578-36.9141C89.9414-36.5723 90.2344-36.2305 90.2344-35.5957C90.2344-34.9121 89.8926-34.5703 89.2578-34.1797L33.0078-1.12305C32.4707-0.830078 32.0312-0.683594 31.6406-0.683594ZM123.535-0.683594C122.852-0.683594 122.217-1.17188 122.217-2.19727L122.217-68.8965C122.217-69.9219 122.852-70.3613 123.535-70.3613C123.926-70.3613 124.316-70.2637 124.854-69.9707L181.104-36.9141C181.787-36.5723 182.129-36.2305 182.129-35.5957C182.129-34.9121 181.738-34.5703 181.104-34.1797L124.854-1.12305C124.365-0.830078 123.926-0.683594 123.535-0.683594Z"/>
  </g>
  <g id="Semibold-L" transform="matrix(1 0 0 1 1944.85 1556)">
   <path d="M26.2207 15.1855C28.9062 15.1855 31.3477 14.3555 33.9844 12.793L98.8281-25.2441C102.393-27.3438 104.688-29.834 105.469-32.9102L105.469 3.41797C105.469 11.0352 110.156 15.1855 115.625 15.1855C118.359 15.1855 120.752 14.3555 123.389 12.793L188.232-25.2441C192.725-27.9297 195.215-31.2012 195.215-35.4492C195.215-39.6973 192.822-42.8223 188.232-45.5078L123.389-83.5938C120.703-85.1562 118.311-85.9375 115.576-85.9375C110.107-85.9375 105.469-81.8359 105.469-74.2188L105.469-37.9883C104.688-41.0156 102.441-43.4082 98.8281-45.5078L33.9844-83.5938C31.2988-85.1562 28.9062-85.9375 26.1719-85.9375C20.7031-85.9375 16.0645-81.8359 16.0645-74.2188L16.0645 3.41797C16.0645 11.0352 20.752 15.1855 26.2207 15.1855ZM29.834 0.878906C29.0527 0.878906 28.2715 0.341797 28.2715-0.927734L28.2715-69.873C28.2715-71.1426 29.0527-71.6797 29.8828-71.6797C30.2734-71.6797 30.7617-71.582 31.3965-71.1914L89.4043-37.0117C90.1855-36.5723 90.5762-36.1816 90.5762-35.4492C90.5762-34.668 90.1367-34.2285 89.4043-33.7891L31.3965 0.390625C30.7617 0.732422 30.2734 0.878906 29.834 0.878906ZM119.287 0.878906C118.457 0.878906 117.676 0.341797 117.676-0.927734L117.676-69.873C117.676-71.1426 118.457-71.6797 119.287-71.6797C119.678-71.6797 120.166-71.582 120.801-71.1914L178.809-37.0117C179.59-36.5723 179.98-36.1816 179.98-35.4492C179.98-34.668 179.59-34.2285 178.809-33.7891L120.801 0.390625C120.166 0.732422 119.678 0.878906 119.287 0.878906Z"/>
  </g>
  <g id="Medium-L" transform="matrix(1 0 0 1 1650 1556)">
   <path d="M25.4883 14.4531C28.0273 14.4531 30.3223 13.623 32.8125 12.1582L97.5098-25.8789C100.83-27.832 102.881-30.127 103.613-32.8613L103.613 3.41797C103.613 10.5957 107.959 14.4531 113.037 14.4531C115.576 14.4531 117.871 13.623 120.361 12.1582L185.059-25.8789C189.307-28.3691 191.504-31.4453 191.504-35.3027C191.504-39.209 189.355-42.1387 185.059-44.6777L120.361-82.7148C117.822-84.1797 115.576-85.0098 112.988-85.0098C107.91-85.0098 103.613-81.2012 103.613-74.0234L103.613-37.793C102.881-40.4785 100.879-42.7246 97.5098-44.6777L32.8125-82.7148C30.2734-84.1797 28.0273-85.0098 25.4395-85.0098C20.4102-85.0098 16.0645-81.2012 16.0645-74.0234L16.0645 3.41797C16.0645 10.5957 20.4102 14.4531 25.4883 14.4531ZM28.4668 2.09961C27.5879 2.09961 26.709 1.51367 26.709 0.0488281L26.709-70.6543C26.709-72.0703 27.5879-72.6562 28.5156-72.6562C28.9551-72.6562 29.4434-72.5098 30.1758-72.1191L89.502-37.0605C90.3809-36.5723 90.8691-36.1328 90.8691-35.3027C90.8691-34.4727 90.3809-33.9844 89.502-33.4961L30.1758 1.5625C29.4922 1.95312 28.9551 2.09961 28.4668 2.09961ZM116.016 2.09961C115.137 2.09961 114.258 1.51367 114.258 0.0488281L114.258-70.6543C114.258-72.0703 115.137-72.6562 116.064-72.6562C116.504-72.6562 116.992-72.5098 117.725-72.1191L177.051-37.0605C177.93-36.5723 178.418-36.1328 178.418-35.3027C178.418-34.4727 177.93-33.9844 177.051-33.4961L117.725 1.5625C117.041 1.95312 116.504 2.09961 116.016 2.09961Z"/>
  </g>
  <g id="Regular-L" transform="matrix(1 0 0 1 1355.73 1556)">
   <path d="M24.5117 13.5254C26.9043 13.5254 28.9551 12.6465 31.2988 11.3281L95.8496-26.6602C98.7793-28.418 100.537-30.4688 101.172-32.8125L101.172 3.41797C101.172 10.0586 105.078 13.5254 109.619 13.5254C112.012 13.5254 114.111 12.6465 116.406 11.3281L180.957-26.6602C184.863-29.0039 186.621-31.7871 186.621-35.1562C186.621-38.5254 184.863-41.2598 180.957-43.6035L116.406-81.5918C114.062-82.959 112.012-83.7891 109.619-83.7891C105.078-83.7891 101.172-80.3711 101.172-73.7305L101.172-37.5C100.537-39.8438 98.7793-41.8457 95.8496-43.6035L31.2988-81.5918C28.9551-82.959 26.9043-83.7891 24.5117-83.7891C19.9707-83.7891 16.0645-80.3711 16.0645-73.7305L16.0645 3.41797C16.0645 10.0586 19.9707 13.5254 24.5117 13.5254ZM26.709 3.66211C25.7324 3.66211 24.6582 2.97852 24.6582 1.31836L24.6582-71.6309C24.6582-73.291 25.7324-73.9746 26.709-73.9746C27.1973-73.9746 27.7832-73.7793 28.5645-73.3398L89.6484-37.1582C90.6738-36.5723 91.2109-36.084 91.2109-35.1562C91.2109-34.2285 90.625-33.6914 89.6484-33.1055L28.5645 3.02734C27.7832 3.51562 27.1973 3.66211 26.709 3.66211ZM111.816 3.66211C110.84 3.66211 109.766 2.97852 109.766 1.31836L109.766-71.6309C109.766-73.291 110.84-73.9746 111.816-73.9746C112.305-73.9746 112.891-73.7793 113.672-73.3398L174.756-37.1582C175.781-36.5723 176.318-36.084 176.318-35.1562C176.318-34.2285 175.732-33.6914 174.756-33.1055L113.672 3.02734C112.891 3.51562 112.305 3.66211 111.816 3.66211Z"/>
  </g>
  <g id="Light-L" transform="matrix(1 0 0 1 1061.02 1556)">
   <path d="M23.6328 12.3535C25.7812 12.3535 27.7832 11.5234 29.7363 10.4004L94.7754-27.8809C97.1191-29.248 98.584-30.9082 99.2188-32.9102L99.2188 3.32031C99.2188 9.375 102.783 12.3535 106.787 12.3535C108.887 12.3535 110.889 11.5234 112.842 10.4004L177.881-27.8809C181.055-29.7363 182.617-32.1289 182.617-35.1562C182.617-38.1348 181.104-40.4297 177.881-42.334L112.842-80.6152C110.84-81.7383 108.887-82.6172 106.787-82.6172C102.783-82.6172 99.2188-79.5898 99.2188-73.5352L99.2188-37.3535C98.584-39.3066 97.1191-40.9668 94.7754-42.334L29.7363-80.6152C27.7344-81.7383 25.7812-82.6172 23.6328-82.6172C19.6777-82.6172 16.0645-79.5898 16.0645-73.5352L16.0645 3.32031C16.0645 9.375 19.6777 12.3535 23.6328 12.3535ZM25.0977 5.0293C23.9746 5.0293 22.6074 4.24805 22.6074 2.05078L22.6074-72.2656C22.6074-74.4629 23.9746-75.2441 25.0977-75.2441C25.6836-75.2441 26.3672-75.0977 27.3926-74.5117L90.0391-37.5C91.2598-36.7676 91.8457-36.2305 91.8457-35.1562C91.8457-34.082 91.2109-33.3984 90.0391-32.7637L27.3926 4.24805C26.416 4.83398 25.6836 5.0293 25.0977 5.0293ZM108.203 5.0293C107.08 5.0293 105.713 4.24805 105.713 2.05078L105.713-72.2656C105.713-74.4629 107.08-75.2441 108.203-75.2441C108.789-75.2441 109.473-75.0977 110.498-74.5117L173.145-37.5C174.365-36.7676 174.951-36.2305 174.951-35.1562C174.951-34.082 174.316-33.3984 173.145-32.7637L110.498 4.24805C109.521 4.83398 108.789 5.0293 108.203 5.0293Z"/>
  </g>
  <g id="Thin-L" transform="matrix(1 0 0 1 766.945 1556)">
   <path d="M22.5098 10.8887C24.2676 10.8887 26.2207 10.0098 27.7344 9.13086L93.3594-29.4434C94.9219-30.3711 96.0449-31.5918 96.582-33.1055L96.582 3.125C96.582 8.49609 99.707 10.8887 102.979 10.8887C104.736 10.8887 106.689 10.0098 108.203 9.13086L173.828-29.4434C176.025-30.7617 177.344-32.5684 177.344-35.1074C177.344-37.6465 176.074-39.3555 173.828-40.6738L108.203-79.2969C106.641-80.1758 104.736-81.0547 102.979-81.0547C99.707-81.0547 96.582-78.6133 96.582-73.291L96.582-37.1582C96.0449-38.623 94.9219-39.7461 93.3594-40.6738L27.7344-79.2969C26.1719-80.1758 24.2676-81.0547 22.5098-81.0547C19.2383-81.0547 16.0645-78.6133 16.0645-73.291L16.0645 3.125C16.0645 8.49609 19.2383 10.8887 22.5098 10.8887ZM22.9492 6.78711C21.6797 6.78711 19.873 5.85938 19.873 2.97852L19.873-73.1445C19.873-76.0254 21.6797-76.9531 22.9492-76.9531C23.6816-76.9531 24.4629-76.8066 25.8301-76.0254L90.5762-37.8906C92.041-37.0605 92.7246-36.377 92.7246-35.1074C92.7246-33.8867 91.9434-33.0566 90.5762-32.2754L25.8301 5.85938C24.5605 6.64062 23.6816 6.78711 22.9492 6.78711ZM103.418 6.78711C102.148 6.78711 100.342 5.85938 100.342 2.97852L100.342-73.1445C100.342-76.0254 102.148-76.9531 103.418-76.9531C104.15-76.9531 104.932-76.8066 106.299-76.0254L171.045-37.8906C172.51-37.0605 173.193-36.377 173.193-35.1074C173.193-33.8867 172.412-33.0566 171.045-32.2754L106.299 5.85938C105.029 6.64062 104.15 6.78711 103.418 6.78711Z"/>
  </g>
  <g id="Ultralight-L" transform="matrix(1 0 0 1 471.576 1556)">
   <path d="M21.9238 10.1074C23.5352 10.1074 25.4395 9.22852 26.6602 8.49609L92.627-30.2734C93.7988-30.957 94.7266-31.9336 95.2148-33.2031L95.2148 3.02734C95.2148 8.00781 98.1445 10.1074 101.025 10.1074C102.637 10.1074 104.541 9.22852 105.811 8.49609L171.729-30.2734C173.438-31.25 174.658-32.8125 174.658-35.1074C174.658-37.4023 173.535-38.7695 171.729-39.8438L105.811-78.6133C104.443-79.3457 102.637-80.2246 101.025-80.2246C98.1445-80.2246 95.2148-78.125 95.2148-73.1445L95.2148-37.0117C94.7266-38.2324 93.8477-39.1113 92.627-39.8438L26.6602-78.6133C25.3418-79.3457 23.5352-80.2246 21.9238-80.2246C19.043-80.2246 16.0645-78.125 16.0645-73.1445L16.0645 3.02734C16.0645 8.00781 19.043 10.1074 21.9238 10.1074ZM21.8262 7.71484C20.5078 7.71484 18.457 6.68945 18.457 3.4668L18.457-73.584C18.457-76.8555 20.5078-77.832 21.8262-77.832C22.6562-77.832 23.4863-77.6855 25.0488-76.8066L90.8691-38.0859C92.4316-37.207 93.1641-36.4258 93.1641-35.1074C93.1641-33.7891 92.334-32.8613 90.8691-32.0312L25.0488 6.68945C23.584 7.56836 22.6562 7.71484 21.8262 7.71484ZM100.928 7.71484C99.6094 7.71484 97.6074 6.68945 97.6074 3.4668L97.6074-73.584C97.6074-76.8555 99.6094-77.832 100.928-77.832C101.807-77.832 102.637-77.6855 104.15-76.8066L169.971-38.0859C171.582-37.207 172.314-36.4258 172.314-35.1074C172.314-33.7891 171.484-32.8613 169.971-32.0312L104.15 6.68945C102.686 7.56836 101.807 7.71484 100.928 7.71484Z"/>
  </g>
  <g id="Black-M" transform="matrix(1 0 0 1 2846.75 1126)">
   <path d="M24.3652 7.66602C27.2461 7.66602 29.9805 7.03125 32.666 5.46875L84.0332-24.4141C87.9395-26.709 91.2109-29.541 92.1387-33.7402L92.1387-5.37109C92.1387 2.88086 97.6074 7.66602 104.004 7.66602C106.885 7.66602 109.668 7.03125 112.354 5.46875L163.672-24.4141C168.311-27.0996 172.07-30.6152 172.07-36.1328C172.07-41.6992 168.506-44.8242 163.672-47.6562L112.354-77.4902C109.619-79.0527 106.836-79.6875 103.906-79.6875C97.4609-79.6875 92.1387-75 92.1387-66.6992L92.1387-38.5742C91.2598-42.6758 88.0859-45.2637 84.0332-47.6562L32.666-77.4902C29.9316-79.0527 27.1484-79.6875 24.2188-79.6875C17.8223-79.6875 12.4512-75 12.4512-66.6992L12.4512-5.37109C12.4512 2.88086 17.9199 7.66602 24.3652 7.66602ZM30.6641-13.916C30.4688-13.916 30.4199-14.0625 30.4199-14.209L30.4199-57.8125C30.4199-58.0078 30.4688-58.1055 30.7129-58.1055C30.8594-58.1055 30.957-58.1543 31.1523-58.0078L68.8477-36.377C68.9941-36.3281 68.9941-36.2793 68.9941-36.084C68.9941-35.9375 68.8965-35.791 68.8477-35.7422L31.1523-14.0625C31.0547-13.9648 30.8594-13.916 30.6641-13.916ZM110.352-13.916C110.156-13.916 110.107-14.0625 110.107-14.209L110.107-57.8125C110.107-58.0078 110.156-58.1055 110.4-58.1055C110.498-58.1055 110.645-58.1543 110.84-58.0078L148.535-36.377C148.633-36.3281 148.633-36.2793 148.633-36.084C148.633-35.9375 148.584-35.791 148.535-35.7422L110.84-14.0625C110.693-13.9648 110.498-13.916 110.352-13.916Z"/>
  </g>
  <g id="Heavy-M" transform="matrix(1 0 0 1 2553 1126)">
   <path d="M23.1934 6.5918C25.8789 6.5918 28.3691 5.95703 30.9082 4.49219L81.8848-25.2441C85.498-27.3438 88.3301-29.9805 89.1602-33.6426L89.1602-5.32227C89.1602 2.24609 94.0918 6.5918 99.9023 6.5918C102.588 6.5918 105.078 5.95703 107.617 4.49219L158.545-25.2441C162.939-27.7832 166.113-31.0547 166.113-35.9375C166.113-40.8203 163.086-43.7988 158.545-46.4355L107.617-76.1719C105.029-77.6367 102.539-78.2227 99.8047-78.2227C93.9941-78.2227 89.1602-73.9746 89.1602-66.3574L89.1602-38.2324C88.3301-41.7969 85.5957-44.2383 81.8848-46.4355L30.9082-76.1719C28.3203-77.6367 25.8301-78.2227 23.0957-78.2227C17.2852-78.2227 12.4512-73.9746 12.4512-66.3574L12.4512-5.32227C12.4512 2.24609 17.3828 6.5918 23.1934 6.5918ZM28.5156-12.0117C28.2227-12.0117 28.0273-12.207 28.0273-12.5977L28.0273-59.082C28.0273-59.4238 28.2227-59.6191 28.5645-59.6191C28.7598-59.6191 28.9551-59.6191 29.1992-59.4238L68.9453-36.4258C69.1895-36.2793 69.2871-36.1816 69.2871-35.8887C69.2871-35.5957 69.1406-35.4004 68.9453-35.3027L29.1992-12.207C29.0039-12.1094 28.7598-12.0117 28.5156-12.0117ZM105.225-12.0117C104.932-12.0117 104.736-12.207 104.736-12.5977L104.736-59.082C104.736-59.4238 104.932-59.6191 105.273-59.6191C105.469-59.6191 105.615-59.6191 105.908-59.4238L145.654-36.4258C145.898-36.2793 145.996-36.1816 145.996-35.8887C145.996-35.5957 145.85-35.4004 145.654-35.3027L105.908-12.207C105.664-12.1094 105.469-12.0117 105.225-12.0117Z"/>
  </g>
  <g id="Bold-M" transform="matrix(1 0 0 1 2259.61 1126)">
   <path d="M21.9238 5.41992C24.3652 5.41992 26.5625 4.78516 28.9062 3.41797L79.4434-26.1719C82.7637-28.125 85.1074-30.4688 85.8398-33.5449L85.8398-5.27344C85.8398 1.5625 90.1855 5.41992 95.3125 5.41992C97.7539 5.41992 99.9512 4.78516 102.295 3.41797L152.832-26.1719C156.885-28.5156 159.473-31.4941 159.473-35.6934C159.473-39.8438 156.982-42.627 152.832-45.0195L102.295-74.6094C99.9023-75.9766 97.7051-76.6113 95.2148-76.6113C90.1367-76.6113 85.8398-72.8027 85.8398-65.918L85.8398-37.8418C85.1074-40.8691 82.8125-43.0664 79.4434-45.0195L28.9062-74.6094C26.5137-75.9766 24.3164-76.6113 21.875-76.6113C16.748-76.6113 12.4512-72.8027 12.4512-65.918L12.4512-5.27344C12.4512 1.5625 16.7969 5.41992 21.9238 5.41992ZM26.123-9.91211C25.6836-9.91211 25.3418-10.1562 25.3418-10.791L25.3418-60.4492C25.3418-61.0352 25.6836-61.3281 26.1719-61.3281C26.416-61.3281 26.6602-61.2305 27.002-61.0352L69.043-36.4746C69.4336-36.2305 69.6289-36.0352 69.6289-35.6445C69.6289-35.2051 69.4336-35.0098 69.043-34.7656L27.002-10.1562C26.709-9.96094 26.416-9.91211 26.123-9.91211ZM99.5117-9.91211C99.0723-9.91211 98.7305-10.1562 98.7305-10.791L98.7305-60.4492C98.7305-61.0352 99.0723-61.3281 99.5605-61.3281C99.8047-61.3281 100.049-61.2305 100.391-61.0352L142.432-36.4746C142.822-36.2305 143.018-36.0352 143.018-35.6445C143.018-35.2051 142.773-35.0098 142.432-34.7656L100.391-10.1562C100.049-9.96094 99.8047-9.91211 99.5117-9.91211Z"/>
  </g>
  <g id="Semibold-M" transform="matrix(1 0 0 1 1965.19 1126)">
   <path d="M21.0449 4.58984C23.291 4.58984 25.293 3.95508 27.5391 2.68555L77.7832-26.8066C80.8594-28.6133 82.8613-30.7617 83.5449-33.4473L83.5449-5.22461C83.5449 1.07422 87.5 4.58984 92.1387 4.58984C94.3848 4.58984 96.3867 3.95508 98.6328 2.68555L148.877-26.8066C152.686-29.0527 154.883-31.8359 154.883-35.498C154.883-39.1602 152.783-41.7969 148.877-44.0918L98.6328-73.584C96.3867-74.8535 94.3848-75.4883 92.0898-75.4883C87.4512-75.4883 83.5449-72.0215 83.5449-65.6738L83.5449-37.5488C82.9102-40.1855 80.9082-42.2363 77.7832-44.0918L27.5391-73.584C25.293-74.8535 23.291-75.4883 20.9961-75.4883C16.3574-75.4883 12.4512-72.0215 12.4512-65.6738L12.4512-5.22461C12.4512 1.07422 16.4062 4.58984 21.0449 4.58984ZM24.5117-8.39844C23.9746-8.39844 23.5352-8.78906 23.5352-9.52148L23.5352-61.377C23.5352-62.1094 23.9746-62.5 24.5117-62.5C24.8047-62.5 25.0977-62.4023 25.4883-62.1582L69.0918-36.4746C69.6289-36.2305 69.873-35.9863 69.873-35.4492C69.873-34.9609 69.5801-34.7168 69.0918-34.4238L25.4883-8.74023C25.0977-8.54492 24.8047-8.39844 24.5117-8.39844ZM95.6055-8.39844C95.0684-8.39844 94.6289-8.78906 94.6289-9.52148L94.6289-61.377C94.6289-62.1094 95.0684-62.5 95.6055-62.5C95.8496-62.5 96.1914-62.4023 96.582-62.1582L140.186-36.4746C140.723-36.2305 140.967-35.9863 140.967-35.4492C140.967-34.9609 140.674-34.7168 140.186-34.4238L96.582-8.74023C96.1914-8.54492 95.8496-8.39844 95.6055-8.39844Z"/>
  </g>
  <g id="Medium-M" transform="matrix(1 0 0 1 1670.21 1126)">
   <path d="M20.3613 4.00391C22.5098 4.00391 24.3652 3.36914 26.4648 2.09961L76.5137-27.2949C79.3945-29.0039 81.2012-31.0059 81.8359-33.3984L81.8359-5.22461C81.8359 0.732422 85.4492 4.00391 89.7461 4.00391C91.8945 4.00391 93.7012 3.36914 95.8496 2.09961L145.898-27.2949C149.561-29.4434 151.416-32.0801 151.416-35.3516C151.416-38.6719 149.609-41.1621 145.898-43.3594L95.8496-72.7539C93.7012-74.0234 91.8457-74.6582 89.6973-74.6582C85.4004-74.6582 81.8359-71.3867 81.8359-65.4297L81.8359-37.3535C81.2012-39.6973 79.4434-41.6504 76.5137-43.3594L26.4648-72.7539C24.3652-74.0234 22.5098-74.6582 20.3613-74.6582C16.0645-74.6582 12.4512-71.3867 12.4512-65.4297L12.4512-5.22461C12.4512 0.732422 16.0645 4.00391 20.3613 4.00391ZM23.2422-7.32422C22.6562-7.32422 22.1191-7.71484 22.1191-8.54492L22.1191-62.1094C22.1191-62.9395 22.6562-63.3789 23.2422-63.3789C23.5352-63.3789 23.877-63.2324 24.3164-62.9883L69.1406-36.5234C69.7754-36.1816 70.0684-35.9375 70.0684-35.3516C70.0684-34.7656 69.7266-34.4727 69.1406-34.1309L24.3164-7.66602C23.9258-7.42188 23.5352-7.32422 23.2422-7.32422ZM92.627-7.32422C91.9922-7.32422 91.5039-7.71484 91.5039-8.54492L91.5039-62.1094C91.5039-62.9395 91.9922-63.3789 92.627-63.3789C92.9199-63.3789 93.2617-63.2324 93.6523-62.9883L138.525-36.5234C139.111-36.1816 139.404-35.9375 139.404-35.3516C139.404-34.7656 139.111-34.4727 138.525-34.1309L93.6523-7.66602C93.2617-7.42188 92.9199-7.32422 92.627-7.32422Z"/>
  </g>
  <g id="Regular-M" transform="matrix(1 0 0 1 1375.77 1126)">
   <path d="M19.4824 3.17383C21.4844 3.17383 23.1445 2.53906 25.0977 1.36719L74.8535-27.9297C77.5391-29.4922 79.0039-31.25 79.541-33.3008L79.541-5.17578C79.541 0.244141 82.7637 3.17383 86.5723 3.17383C88.5742 3.17383 90.2344 2.53906 92.1875 1.36719L141.992-27.9297C145.41-29.9805 146.924-32.373 146.924-35.2051C146.924-37.9883 145.41-40.3809 141.992-42.4316L92.1875-71.7285C90.2344-72.9004 88.5742-73.5352 86.5723-73.5352C82.7637-73.5352 79.541-70.6055 79.541-65.1855L79.541-37.0605C79.0039-39.1113 77.5391-40.8691 74.8535-42.4316L25.0977-71.7285C23.0957-72.9004 21.4844-73.5352 19.4824-73.5352C15.6738-73.5352 12.4512-70.6055 12.4512-65.1855L12.4512-5.17578C12.4512 0.244141 15.6738 3.17383 19.4824 3.17383ZM21.6309-5.85938C20.8984-5.85938 20.3125-6.29883 20.3125-7.32422L20.3125-63.0371C20.3125-64.0625 20.8984-64.502 21.6309-64.502C21.9727-64.502 22.3145-64.3555 22.8027-64.1113L69.2383-36.5723C69.9219-36.1816 70.3125-35.8398 70.3125-35.2051C70.3125-34.5215 69.9219-34.1797 69.2383-33.7891L22.8027-6.25C22.3633-5.95703 21.9727-5.85938 21.6309-5.85938ZM88.7207-5.85938C87.9883-5.85938 87.4023-6.29883 87.4023-7.32422L87.4023-63.0371C87.4023-64.0625 87.9883-64.502 88.7207-64.502C89.0625-64.502 89.4043-64.3555 89.8926-64.1113L136.328-36.5723C137.012-36.1816 137.402-35.8398 137.402-35.2051C137.402-34.5215 137.012-34.1797 136.328-33.7891L89.8926-6.25C89.4531-5.95703 89.0625-5.85938 88.7207-5.85938Z"/>
  </g>
  <g id="Light-M" transform="matrix(1 0 0 1 1080.84 1126)">
   <path d="M18.7012 2.14844C20.459 2.14844 22.0703 1.51367 23.7305 0.537109L73.9258-29.0039C76.0254-30.2246 77.2461-31.6895 77.7832-33.3984L77.7832-5.32227C77.7832-0.341797 80.6641 2.14844 84.0332 2.14844C85.791 2.14844 87.3535 1.51367 89.0625 0.537109L139.209-29.0039C141.992-30.6152 143.311-32.666 143.311-35.1562C143.311-37.6465 142.041-39.6484 139.209-41.3086L89.0625-70.8496C87.3535-71.8262 85.791-72.4609 84.0332-72.4609C80.6641-72.4609 77.7832-69.9707 77.7832-64.9902L77.7832-36.9629C77.2949-38.623 76.0254-40.0391 73.9258-41.3086L23.7305-70.8496C22.0215-71.8262 20.459-72.4609 18.7012-72.4609C15.3809-72.4609 12.4512-69.9707 12.4512-64.9902L12.4512-5.32227C12.4512-0.341797 15.3809 2.14844 18.7012 2.14844ZM20.166-4.63867C19.3359-4.63867 18.457-5.17578 18.457-6.64062L18.457-63.623C18.457-65.0879 19.3359-65.6738 20.166-65.6738C20.6055-65.6738 21.0449-65.5273 21.7773-65.1367L69.5801-36.8164C70.459-36.3281 70.8984-35.9375 70.8984-35.1562C70.8984-34.375 70.4102-33.9355 69.5801-33.4961L21.7773-5.17578C21.0938-4.78516 20.6055-4.63867 20.166-4.63867ZM85.4492-4.63867C84.668-4.63867 83.7402-5.17578 83.7402-6.64062L83.7402-63.623C83.7402-65.0879 84.668-65.6738 85.4492-65.6738C85.8887-65.6738 86.377-65.5273 87.0605-65.1367L134.912-36.8164C135.742-36.3281 136.182-35.9375 136.182-35.1562C136.182-34.375 135.742-33.9355 134.912-33.4961L87.0605-5.17578C86.377-4.78516 85.8887-4.63867 85.4492-4.63867Z"/>
  </g>
  <g id="Thin-M" transform="matrix(1 0 0 1 786.5 1126)">
   <path d="M17.6758 0.830078C19.1406 0.830078 20.6543 0.146484 21.9238-0.585938L72.6562-30.4199C74.0234-31.2012 75-32.2754 75.3906-33.5449L75.3906-5.46875C75.3906-1.17188 77.9297 0.830078 80.6152 0.830078C82.0801 0.830078 83.5938 0.146484 84.8633-0.585938L135.596-30.4199C137.5-31.543 138.574-33.0566 138.574-35.1562C138.574-37.207 137.549-38.6719 135.596-39.8438L84.8633-69.6777C83.5449-70.4102 82.0801-71.0938 80.6152-71.0938C77.9297-71.0938 75.3906-69.0918 75.3906-64.7949L75.3906-36.7676C75-37.9883 74.0723-38.9648 72.6562-39.8438L21.9238-69.6777C20.6055-70.4102 19.1406-71.0938 17.6758-71.0938C14.9902-71.0938 12.4512-69.0918 12.4512-64.7949L12.4512-5.46875C12.4512-1.17188 14.9902 0.830078 17.6758 0.830078ZM18.2129-3.02734C17.2852-3.02734 15.9668-3.71094 15.9668-5.81055L15.9668-64.4531C15.9668-66.5039 17.2852-67.1875 18.2129-67.1875C18.7988-67.1875 19.3848-67.0898 20.3613-66.5039L70.0684-37.207C71.1426-36.5723 71.6797-36.084 71.6797-35.1562C71.6797-34.2285 71.0938-33.5938 70.0684-33.0566L20.3613-3.71094C19.4336-3.17383 18.7988-3.02734 18.2129-3.02734ZM81.1523-3.02734C80.2246-3.02734 78.9062-3.71094 78.9062-5.81055L78.9062-64.4531C78.9062-66.5039 80.2246-67.1875 81.1523-67.1875C81.7383-67.1875 82.3242-67.0898 83.3008-66.5039L133.008-37.207C134.082-36.5723 134.619-36.084 134.619-35.1562C134.619-34.2285 134.033-33.5938 133.008-33.0566L83.3008-3.71094C82.373-3.17383 81.7383-3.02734 81.1523-3.02734Z"/>
  </g>
  <g id="Ultralight-M" transform="matrix(1 0 0 1 491.01 1126)">
   <path d="M17.1387 0.146484C18.457 0.146484 19.9707-0.537109 20.9961-1.17188L71.9727-31.1523C72.998-31.7383 73.8281-32.5684 74.1699-33.6426L74.1699-5.51758C74.1699-1.5625 76.5625 0.146484 78.9062 0.146484C80.1758 0.146484 81.6895-0.537109 82.7148-1.17188L133.74-31.1523C135.156-31.9824 136.182-33.3008 136.182-35.1562C136.182-37.0117 135.254-38.1348 133.74-39.0625L82.7148-69.043C81.5918-69.6777 80.1758-70.3613 78.9062-70.3613C76.5625-70.3613 74.1699-68.6523 74.1699-64.6484L74.1699-36.6699C73.8281-37.6953 73.0469-38.4277 71.9727-39.0625L20.9961-69.043C19.873-69.6777 18.457-70.3613 17.1387-70.3613C14.7949-70.3613 12.4512-68.6523 12.4512-64.6484L12.4512-5.51758C12.4512-1.5625 14.7949 0.146484 17.1387 0.146484ZM17.2363-2.24609C16.2598-2.24609 14.7461-2.97852 14.7461-5.37109L14.7461-64.8438C14.7461-67.2363 16.2598-67.9688 17.2363-67.9688C17.8711-67.9688 18.5059-67.8711 19.6289-67.2363L70.3125-37.4023C71.5332-36.7188 72.0703-36.1328 72.0703-35.1562C72.0703-34.1309 71.4355-33.4473 70.3125-32.8125L19.6289-2.97852C18.5547-2.34375 17.8711-2.24609 17.2363-2.24609ZM78.9551-2.24609C77.9785-2.24609 76.4648-2.97852 76.4648-5.37109L76.4648-64.8438C76.4648-67.2363 77.9785-67.9688 78.9551-67.9688C79.5898-67.9688 80.2246-67.8711 81.3477-67.2363L132.031-37.4023C133.252-36.7188 133.789-36.1328 133.789-35.1562C133.789-34.1309 133.203-33.4473 132.031-32.8125L81.3477-2.97852C80.2734-2.34375 79.5898-2.24609 78.9551-2.24609Z"/>
  </g>
  <g id="Black-S" transform="matrix(1 0 0 1 2865.72 696)">
   <path d="M18.9941-1.70898C21.2402-1.70898 23.3887-2.19727 25.4883-3.41797L65.6738-26.8066C68.75-28.5645 71.2891-30.8105 71.9727-34.082L71.9727-11.8164C71.9727-5.41992 76.2207-1.70898 81.2012-1.70898C83.4473-1.70898 85.5957-2.19727 87.6953-3.41797L127.881-26.8066C131.494-28.9062 134.375-31.6406 134.375-35.9375C134.375-40.2344 131.641-42.6758 127.881-44.873L87.6953-68.2617C85.5469-69.4824 83.3984-69.9707 81.1035-69.9707C76.123-69.9707 71.9727-66.3086 71.9727-59.8633L71.9727-37.8418C71.2891-41.0156 68.8477-43.0176 65.6738-44.873L25.4883-68.2617C23.3398-69.4824 21.1914-69.9707 18.8965-69.9707C13.916-69.9707 9.76562-66.3086 9.76562-59.8633L9.76562-11.8164C9.76562-5.41992 14.0137-1.70898 18.9941-1.70898ZM23.877-18.4082C23.7305-18.4082 23.6816-18.5059 23.6816-18.6523L23.6816-53.0273C23.6816-53.1738 23.7305-53.2715 23.9258-53.2715C24.0234-53.2715 24.1211-53.2715 24.2676-53.1738L53.9551-36.1328C54.0527-36.084 54.0527-36.0352 54.0527-35.8887C54.0527-35.7422 54.0039-35.6445 53.9551-35.5957L24.2676-18.5059C24.1699-18.457 24.0234-18.4082 23.877-18.4082ZM86.084-18.4082C85.9375-18.4082 85.8887-18.5059 85.8887-18.6523L85.8887-53.0273C85.8887-53.1738 85.9375-53.2715 86.1328-53.2715C86.2305-53.2715 86.3281-53.2715 86.4746-53.1738L116.162-36.1328C116.26-36.084 116.26-36.0352 116.26-35.8887C116.26-35.7422 116.211-35.6445 116.162-35.5957L86.4746-18.5059C86.377-18.457 86.2305-18.4082 86.084-18.4082Z"/>
  </g>
  <g id="Heavy-S" transform="matrix(1 0 0 1 2571.09 696)">
   <path d="M18.2129-2.39258C20.3125-2.39258 22.2656-2.88086 24.2676-4.05273L64.1113-27.2949C67.041-29.0039 69.2383-31.1035 69.9219-33.9844L69.9219-11.7676C69.9219-5.81055 73.7793-2.39258 78.3203-2.39258C80.4688-2.39258 82.4219-2.88086 84.4238-4.05273L124.268-27.2949C127.734-29.3457 130.225-31.9336 130.225-35.7422C130.225-39.5996 127.832-41.9434 124.268-44.043L84.4238-67.334C82.373-68.5059 80.4199-68.9941 78.2715-68.9941C73.6816-68.9941 69.9219-65.5762 69.9219-59.6191L69.9219-37.5977C69.2871-40.3809 67.0898-42.334 64.1113-44.043L24.2676-67.334C22.2168-68.5059 20.2637-68.9941 18.1152-68.9941C13.5742-68.9941 9.76562-65.5762 9.76562-59.6191L9.76562-11.7676C9.76562-5.81055 13.623-2.39258 18.2129-2.39258ZM22.4121-17.0898C22.168-17.0898 22.0703-17.2363 22.0703-17.4805L22.0703-53.9062C22.0703-54.1504 22.168-54.2969 22.4609-54.2969C22.5586-54.2969 22.7051-54.248 22.9004-54.1504L54.0039-36.1328C54.1504-36.0352 54.248-35.9375 54.248-35.7422C54.248-35.498 54.1504-35.4004 54.0039-35.3027L22.9004-17.2363C22.7539-17.1387 22.5586-17.0898 22.4121-17.0898ZM82.5195-17.0898C82.3242-17.0898 82.1777-17.2363 82.1777-17.4805L82.1777-53.9062C82.1777-54.1504 82.3242-54.2969 82.5684-54.2969C82.7148-54.2969 82.8613-54.248 83.0078-54.1504L114.111-36.1328C114.307-36.0352 114.355-35.9375 114.355-35.7422C114.355-35.498 114.258-35.4004 114.111-35.3027L83.0078-17.2363C82.8613-17.1387 82.7148-17.0898 82.5195-17.0898Z"/>
  </g>
  <g id="Bold-S" transform="matrix(1 0 0 1 2276.7 696)">
   <path d="M17.334-3.17383C19.2871-3.17383 20.9961-3.66211 22.9004-4.78516L62.4023-27.8809C65.1367-29.4922 66.9922-31.3965 67.5781-33.8867L67.5781-11.7188C67.5781-6.25 71.0449-3.17383 75.1465-3.17383C77.0996-3.17383 78.8086-3.66211 80.7129-4.78516L120.215-27.8809C123.535-29.834 125.586-32.2266 125.586-35.5469C125.586-38.8672 123.633-41.1621 120.215-43.1641L80.7129-66.2598C78.8086-67.3828 77.0996-67.8711 75.0977-67.8711C70.9961-67.8711 67.5781-64.7949 67.5781-59.3262L67.5781-37.3047C66.9922-39.6973 65.1855-41.5039 62.4023-43.1641L22.9004-66.2598C20.9961-67.3828 19.2383-67.8711 17.2852-67.8711C13.1836-67.8711 9.76562-64.7949 9.76562-59.3262L9.76562-11.7188C9.76562-6.25 13.2324-3.17383 17.334-3.17383ZM20.752-15.625C20.459-15.625 20.2637-15.8203 20.2637-16.1621L20.2637-54.8828C20.2637-55.2246 20.459-55.4199 20.8008-55.4199C20.9473-55.4199 21.0938-55.3711 21.3379-55.2734L54.0039-36.1328C54.2969-35.9863 54.3945-35.8398 54.3945-35.5469C54.3945-35.2539 54.248-35.1074 54.0039-34.9121L21.3379-15.7715C21.1426-15.6738 20.9473-15.625 20.752-15.625ZM78.5645-15.625C78.2715-15.625 78.0762-15.8203 78.0762-16.1621L78.0762-54.8828C78.0762-55.2246 78.2715-55.4199 78.6133-55.4199C78.7598-55.4199 78.9551-55.3711 79.1504-55.2734L111.816-36.1328C112.109-35.9863 112.256-35.8398 112.256-35.5469C112.256-35.2539 112.061-35.1074 111.816-34.9121L79.1504-15.7715C78.9551-15.6738 78.7598-15.625 78.5645-15.625Z"/>
  </g>
  <g id="Semibold-S" transform="matrix(1 0 0 1 1981.57 696)">
   <path d="M16.6992-3.71094C18.5547-3.71094 20.166-4.19922 21.9727-5.27344L61.2305-28.2715C63.8184-29.834 65.4297-31.5918 65.9668-33.7891L65.9668-11.7188C65.9668-6.5918 69.1406-3.71094 72.9492-3.71094C74.8047-3.71094 76.3672-4.19922 78.2227-5.27344L117.432-28.2715C120.654-30.1758 122.412-32.4707 122.412-35.4492C122.412-38.3789 120.703-40.5762 117.432-42.5293L78.2227-65.5273C76.3672-66.6016 74.7559-67.0898 72.9004-67.0898C69.0918-67.0898 65.9668-64.2578 65.9668-59.1309L65.9668-37.1094C65.4785-39.2578 63.8184-40.9668 61.2305-42.5293L21.9727-65.5273C20.1172-66.6016 18.5547-67.0898 16.6992-67.0898C12.8906-67.0898 9.76562-64.2578 9.76562-59.1309L9.76562-11.7188C9.76562-6.5918 12.9395-3.71094 16.6992-3.71094ZM19.6289-14.5996C19.2383-14.5996 18.9941-14.8438 18.9941-15.2344L18.9941-55.5664C18.9941-56.0059 19.2383-56.2012 19.6289-56.2012C19.8242-56.2012 20.0195-56.1523 20.2637-56.0059L54.0039-36.1328C54.3945-35.9375 54.541-35.791 54.541-35.4004C54.541-35.0586 54.3457-34.8633 54.0039-34.7168L20.2637-14.7949C20.0195-14.6484 19.8242-14.5996 19.6289-14.5996ZM75.8301-14.5996C75.4395-14.5996 75.1953-14.8438 75.1953-15.2344L75.1953-55.5664C75.1953-56.0059 75.4395-56.2012 75.8789-56.2012C76.0254-56.2012 76.2695-56.1523 76.4648-56.0059L110.254-36.1328C110.596-35.9375 110.791-35.791 110.791-35.4004C110.791-35.0586 110.596-34.8633 110.254-34.7168L76.4648-14.7949C76.2695-14.6484 76.0254-14.5996 75.8301-14.5996Z"/>
  </g>
  <g id="Medium-S" transform="matrix(1 0 0 1 1686.08 696)">
   <path d="M16.2598-4.10156C18.0176-4.10156 19.4824-4.58984 21.2891-5.66406L60.3027-28.5645C62.793-30.0781 64.2578-31.7383 64.7949-33.7402L64.7949-11.6699C64.7949-6.83594 67.7246-4.10156 71.2891-4.10156C73.0469-4.10156 74.5117-4.58984 76.2695-5.66406L115.332-28.5645C118.457-30.4199 119.971-32.6172 119.971-35.3516C119.971-38.0371 118.457-40.1855 115.332-42.041L76.2695-64.9902C74.5117-66.0156 73.0469-66.5039 71.2402-66.5039C67.6758-66.5039 64.7949-63.8184 64.7949-58.9844L64.7949-36.9629C64.2578-38.916 62.793-40.5762 60.3027-42.041L21.2891-64.9902C19.4824-66.0156 18.0176-66.5039 16.2109-66.5039C12.6953-66.5039 9.76562-63.8184 9.76562-58.9844L9.76562-11.6699C9.76562-6.83594 12.6953-4.10156 16.2598-4.10156ZM18.75-13.8184C18.3105-13.8184 18.0176-14.0625 18.0176-14.5508L18.0176-56.0547C18.0176-56.543 18.3105-56.8359 18.7988-56.8359C18.9453-56.8359 19.1895-56.7383 19.4336-56.5918L54.0527-36.1328C54.4434-35.8887 54.6387-35.7422 54.6387-35.3027C54.6387-34.9121 54.4434-34.7168 54.0527-34.5215L19.4336-14.0625C19.1895-13.916 18.9453-13.8184 18.75-13.8184ZM73.7793-13.8184C73.3398-13.8184 73.0469-14.0625 73.0469-14.5508L73.0469-56.0547C73.0469-56.543 73.3398-56.8359 73.7793-56.8359C73.9746-56.8359 74.2188-56.7383 74.4629-56.5918L109.033-36.1328C109.473-35.8887 109.668-35.7422 109.668-35.3027C109.668-34.9121 109.424-34.7168 109.033-34.5215L74.4629-14.0625C74.2188-13.916 73.9746-13.8184 73.7793-13.8184Z"/>
  </g>
  <g id="Regular-S" transform="matrix(1 0 0 1 1390.93 696)">
   <path d="M15.6738-4.63867C17.334-4.63867 18.6523-5.12695 20.3613-6.15234L59.1309-28.9551C61.4746-30.3711 62.7441-31.9336 63.1836-33.6426L63.1836-11.6211C63.1836-7.12891 65.8203-4.63867 69.0918-4.63867C70.752-4.63867 72.0703-5.12695 73.7793-6.15234L112.549-28.9551C115.576-30.7617 116.846-32.8613 116.846-35.2051C116.846-37.5488 115.576-39.6484 112.549-41.4062L73.7793-64.2578C72.0703-65.2832 70.752-65.7715 69.0918-65.7715C65.8203-65.7715 63.1836-63.2812 63.1836-58.7402L63.1836-36.7676C62.7441-38.4766 61.4746-40.0391 59.1309-41.4062L20.3613-64.2578C18.6523-65.2832 17.334-65.7715 15.6738-65.7715C12.4023-65.7715 9.76562-63.2812 9.76562-58.7402L9.76562-11.6211C9.76562-7.12891 12.4023-4.63867 15.6738-4.63867ZM17.627-12.793C17.1387-12.793 16.7969-13.0859 16.7969-13.6719L16.7969-56.7383C16.7969-57.2754 17.1387-57.6172 17.627-57.6172C17.8711-57.6172 18.1152-57.5195 18.4082-57.3242L54.0527-36.1328C54.541-35.8887 54.7852-35.6445 54.7852-35.2051C54.7852-34.7656 54.541-34.5215 54.0527-34.2773L18.4082-13.0859C18.1152-12.8906 17.8711-12.793 17.627-12.793ZM71.0938-12.793C70.5566-12.793 70.2148-13.0859 70.2148-13.6719L70.2148-56.7383C70.2148-57.2754 70.5566-57.6172 71.0938-57.6172C71.2891-57.6172 71.5332-57.5195 71.8262-57.3242L107.471-36.1328C107.959-35.8887 108.203-35.6445 108.203-35.2051C108.203-34.7656 107.959-34.5215 107.471-34.2773L71.8262-13.0859C71.5332-12.8906 71.2891-12.793 71.0938-12.793Z"/>
  </g>
  <g id="Light-S" transform="matrix(1 0 0 1 1095.81 696)">
   <path d="M14.9414-5.56641C16.4062-5.56641 17.6758-6.05469 19.1406-6.88477L58.3008-29.9316C60.1074-31.0059 61.1816-32.2754 61.6211-33.7402L61.6211-11.7188C61.6211-7.66602 64.0137-5.56641 66.7969-5.56641C68.2617-5.56641 69.5312-6.05469 70.9961-6.88477L110.107-29.9316C112.549-31.3477 113.672-33.1055 113.672-35.2051C113.672-37.2559 112.598-38.9648 110.107-40.4297L70.9961-63.4766C69.5312-64.3066 68.2617-64.7949 66.7969-64.7949C64.0137-64.7949 61.6211-62.6953 61.6211-58.5938L61.6211-36.6211C61.1816-38.0859 60.1562-39.3066 58.3008-40.4297L19.1406-63.4766C17.6758-64.3066 16.4062-64.7949 14.9414-64.7949C12.1582-64.7949 9.76562-62.6953 9.76562-58.5938L9.76562-11.7188C9.76562-7.66602 12.1582-5.56641 14.9414-5.56641ZM16.3574-11.7188C15.7715-11.7188 15.1367-12.1094 15.1367-13.0859L15.1367-57.2754C15.1367-58.252 15.7715-58.6426 16.3574-58.6426C16.6504-58.6426 16.9922-58.5449 17.4316-58.252L54.3945-36.377C54.9805-36.0352 55.3223-35.7422 55.3223-35.2051C55.3223-34.6191 54.9805-34.3262 54.3945-33.9844L17.4316-12.1094C16.9922-11.8164 16.6504-11.7188 16.3574-11.7188ZM68.2129-11.7188C67.627-11.7188 66.9922-12.1094 66.9922-13.0859L66.9922-57.2754C66.9922-58.252 67.627-58.6426 68.2129-58.6426C68.5059-58.6426 68.8477-58.5449 69.2871-58.252L106.25-36.377C106.836-36.0352 107.178-35.7422 107.178-35.2051C107.178-34.6191 106.836-34.3262 106.25-33.9844L69.2871-12.1094C68.8477-11.8164 68.5059-11.7188 68.2129-11.7188Z"/>
  </g>
  <g id="Thin-S" transform="matrix(1 0 0 1 801.198 696)">
   <path d="M14.0625-6.73828C15.2344-6.73828 16.4551-7.22656 17.5293-7.86133L57.1777-31.2012C58.3496-31.8848 59.1797-32.8125 59.5215-33.8867L59.5215-11.8652C59.5215-8.39844 61.5723-6.73828 63.8184-6.73828C64.9902-6.73828 66.2109-7.22656 67.2852-7.86133L106.934-31.2012C108.594-32.1777 109.473-33.4473 109.473-35.1562C109.473-36.8652 108.594-38.0859 106.934-39.1113L67.2852-62.4512C66.1621-63.0371 64.9902-63.5742 63.8184-63.5742C61.5723-63.5742 59.5215-61.9141 59.5215-58.4473L59.5215-36.4746C59.1797-37.5488 58.3984-38.3789 57.1777-39.1113L17.5293-62.4512C16.4062-63.0371 15.2344-63.5742 14.0625-63.5742C11.8164-63.5742 9.76562-61.9141 9.76562-58.4473L9.76562-11.8652C9.76562-8.39844 11.8164-6.73828 14.0625-6.73828ZM14.6484-10.3027C13.9648-10.3027 12.9883-10.8398 12.9883-12.3535L12.9883-57.959C12.9883-59.4727 13.9648-59.9609 14.6484-59.9609C15.0879-59.9609 15.4785-59.8633 16.2109-59.4727L54.7852-36.7188C55.6152-36.2305 56.0059-35.8398 56.0059-35.1562C56.0059-34.4727 55.5664-34.0332 54.7852-33.5938L16.2109-10.8398C15.5273-10.4004 15.0879-10.3027 14.6484-10.3027ZM64.4043-10.3027C63.7207-10.3027 62.7441-10.8398 62.7441-12.3535L62.7441-57.959C62.7441-59.4727 63.7207-59.9609 64.4043-59.9609C64.8438-59.9609 65.2344-59.8633 65.9668-59.4727L104.59-36.7188C105.371-36.2305 105.762-35.8398 105.762-35.1562C105.762-34.4727 105.322-34.0332 104.59-33.5938L65.9668-10.8398C65.2832-10.4004 64.8438-10.3027 64.4043-10.3027Z"/>
  </g>
  <g id="Ultralight-S" transform="matrix(1 0 0 1 505.561 696)">
   <path d="M13.5742-7.32422C14.6484-7.32422 15.8203-7.86133 16.6992-8.39844L56.5918-31.8359C57.4707-32.373 58.1543-33.0566 58.4473-33.9355L58.4473-11.9629C58.4473-8.74023 60.3516-7.32422 62.2559-7.32422C63.3301-7.32422 64.502-7.86133 65.3809-8.39844L105.273-31.8359C106.543-32.5684 107.324-33.6426 107.324-35.1562C107.324-36.6699 106.592-37.6465 105.273-38.4277L65.3809-61.9141C64.4531-62.4023 63.3301-62.9395 62.2559-62.9395C60.3516-62.9395 58.4473-61.5234 58.4473-58.3008L58.4473-36.377C58.1543-37.2559 57.5195-37.8906 56.5918-38.4277L16.6992-61.9141C15.7715-62.4023 14.6484-62.9395 13.5742-62.9395C11.6699-62.9395 9.76562-61.5234 9.76562-58.3008L9.76562-11.9629C9.76562-8.74023 11.6699-7.32422 13.5742-7.32422ZM13.7695-9.57031C12.9883-9.57031 11.8652-10.1562 11.8652-11.9629L11.8652-58.3008C11.8652-60.1074 12.9883-60.6934 13.7695-60.6934C14.2578-60.6934 14.7461-60.5957 15.5762-60.1074L55.0293-36.8652C55.957-36.3281 56.3477-35.9375 56.3477-35.1562C56.3477-34.375 55.9082-33.8867 55.0293-33.3984L15.5762-10.1562C14.7949-9.66797 14.2578-9.57031 13.7695-9.57031ZM62.4512-9.57031C61.6699-9.57031 60.5469-10.1562 60.5469-11.9629L60.5469-58.3008C60.5469-60.1074 61.6699-60.6934 62.4512-60.6934C62.9395-60.6934 63.4277-60.5957 64.2578-60.1074L103.711-36.8652C104.639-36.3281 105.029-35.9375 105.029-35.1562C105.029-34.375 104.59-33.8867 103.711-33.3984L64.2578-10.1562C63.4766-9.66797 62.9395-9.57031 62.4512-9.57031Z"/>
  </g>
 </g>
</svg>
